<?xml version="1.0" encoding="UTF-8"?>
<svg width="195px" height="56px" viewBox="0 0 195 56" version="1.1" xmlns="http://www.w3.org/2000/svg" xmlns:xlink="http://www.w3.org/1999/xlink">
    <title>编组 2</title>
    <g id="新手引导" stroke="none" stroke-width="1" fill="none" fill-rule="evenodd">
        <g transform="translate(-503.000000, -481.000000)" id="编组-2">
            <g transform="translate(504.000000, 482.000000)" id="编组-4">
                <rect id="矩形" stroke="#FFFFFF" fill="#484849" x="1" y="17" width="179" height="32" rx="16"></rect>
                <rect id="矩形" stroke="#FFFFFF" x="0" y="17" width="182" height="37" rx="18.5"></rect>
                <text id="No，thanks" font-family="PingFangSC-Regular, PingFang SC" font-size="14" font-weight="normal" fill="#FFFFFF">
                    <tspan x="56" y="38">No，thanks</tspan>
                </text>
                <line x1="13.2823388" y1="49" x2="11.2791256" y2="52.5722941" id="路径-3" stroke="#FFFFFF"></line>
                <line x1="19.3224335" y1="49" x2="19.3224335" y2="54" id="路径-4" stroke="#FFFFFF"></line>
                <line x1="26.1950403" y1="49" x2="26.1950403" y2="54" id="路径-5" stroke="#FFFFFF"></line>
                <line x1="32.7207001" y1="49" x2="32.7207001" y2="54" id="路径-6" stroke="#FFFFFF"></line>
                <line x1="39.7207001" y1="49" x2="39.7207001" y2="54" id="路径-6" stroke="#FFFFFF"></line>
                <line x1="46.7207001" y1="49" x2="46.7207001" y2="54" id="路径-6" stroke="#FFFFFF"></line>
                <line x1="53.7207001" y1="49" x2="53.7207001" y2="54" id="路径-6" stroke="#FFFFFF"></line>
                <line x1="60.7207001" y1="49" x2="60.7207001" y2="54" id="路径-6" stroke="#FFFFFF"></line>
                <line x1="67.7207001" y1="49" x2="67.7207001" y2="54" id="路径-6" stroke="#FFFFFF"></line>
                <line x1="74.7207001" y1="49" x2="74.7207001" y2="54" id="路径-6" stroke="#FFFFFF"></line>
                <line x1="81.7207001" y1="49" x2="81.7207001" y2="54" id="路径-6" stroke="#FFFFFF"></line>
                <line x1="88.7207001" y1="49" x2="88.7207001" y2="54" id="路径-6" stroke="#FFFFFF"></line>
                <line x1="95.7207001" y1="49" x2="95.7207001" y2="54" id="路径-6" stroke="#FFFFFF"></line>
                <line x1="102.7207" y1="49" x2="102.7207" y2="54" id="路径-6" stroke="#FFFFFF"></line>
                <line x1="109.7207" y1="49" x2="109.7207" y2="54" id="路径-6" stroke="#FFFFFF"></line>
                <line x1="116.7207" y1="49" x2="116.7207" y2="54" id="路径-6" stroke="#FFFFFF"></line>
                <line x1="123.7207" y1="49" x2="123.7207" y2="54" id="路径-6" stroke="#FFFFFF"></line>
                <line x1="130.7207" y1="49" x2="130.7207" y2="54" id="路径-6" stroke="#FFFFFF"></line>
                <line x1="137.7207" y1="49" x2="137.7207" y2="54" id="路径-6" stroke="#FFFFFF"></line>
                <line x1="144.7207" y1="49" x2="144.7207" y2="54" id="路径-6" stroke="#FFFFFF"></line>
                <line x1="151.7207" y1="49" x2="151.7207" y2="54" id="路径-6" stroke="#FFFFFF"></line>
                <line x1="158.7207" y1="49" x2="158.7207" y2="54" id="路径-6" stroke="#FFFFFF"></line>
                <line x1="165.7207" y1="49" x2="165.7207" y2="54" id="路径-6" stroke="#FFFFFF"></line>
                <line x1="170.5" y1="47.5" x2="172.865586" y2="51.5" id="路径-7" stroke="#FFFFFF"></line>
                <line x1="174.865586" y1="44.4747146" x2="178.5" y2="46.5" id="路径-8" stroke="#FFFFFF"></line>
                <line x1="180" y1="8" x2="183.5" y2="0" id="路径-9" stroke="#979797"></line>
                <line x1="183.5" y1="12.2076229" x2="193.017132" y2="8" id="路径-10" stroke="#979797"></line>
                <line x1="185.6" y1="17" x2="193.017132" y2="17" id="路径-11" stroke="#979797"></line>
            </g>
        </g>
    </g>
</svg>