<svg width="285" height="209" viewBox="0 0 285 209" fill="none" xmlns="http://www.w3.org/2000/svg">
<g id="undraw_secure_files_re_6vdh">
<path id="&#232;&#183;&#175;&#229;&#190;&#132;" d="M264.098 209V185.267C264.098 185.267 273.346 202.093 264.098 209Z" fill="#F1F1F1"/>
<path id="&#232;&#183;&#175;&#229;&#190;&#132;_2" d="M264.669 208.996L247.186 192.946C247.186 192.946 265.835 197.511 264.669 208.996Z" fill="#F1F1F1"/>
<path id="&#232;&#183;&#175;&#229;&#190;&#132;_3" d="M189.142 146.31C189.064 145.431 189.379 144.561 190.002 143.936C190.626 143.311 191.495 142.995 192.374 143.071L195.526 137.025L199.668 138.044L195.097 146.52C194.865 148.023 193.546 149.114 192.026 149.06C190.507 149.007 189.268 147.825 189.142 146.31H189.142Z" fill="#FFB7B7"/>
<path id="&#232;&#183;&#175;&#229;&#190;&#132;_4" d="M207.955 205.218L204.46 205.217L202.797 191.737L207.956 191.737L207.955 205.218Z" fill="#FFB7B7"/>
<path id="&#232;&#183;&#175;&#229;&#190;&#132;_5" d="M208.846 208.605L197.577 208.605V208.462C197.577 206.04 199.541 204.076 201.963 204.076H201.964L208.846 204.076L208.846 208.605Z" fill="#2F2E41"/>
<path id="&#232;&#183;&#175;&#229;&#190;&#132;_6" d="M236.064 202.607L232.692 203.526L227.541 190.958L232.517 189.601L236.064 202.607Z" fill="#FFB7B7"/>
<path id="&#232;&#183;&#175;&#229;&#190;&#132;_7" d="M237.815 205.64L226.943 208.605L226.905 208.468C226.268 206.131 227.646 203.72 229.983 203.082L229.983 203.082L236.623 201.271L237.815 205.64Z" fill="#2F2E41"/>
<path id="&#232;&#183;&#175;&#229;&#190;&#132;_8" d="M201.575 146.987L199.831 173.46L203.576 203.162L209.71 201.29L209.969 174.752L214.876 159.449L229.404 200.321L236.054 197.868L230.566 171.329L227.467 146.406L201.575 146.987Z" fill="#2F2E41"/>
<path id="&#232;&#183;&#175;&#229;&#190;&#132;_9" d="M218.523 100.5L208.194 102.023L204.472 105.703L203.317 118.926L204.035 130.639L201.043 151.294C201.043 151.294 208.566 147.118 214.396 152.346C220.226 157.574 228.383 153.27 228.551 149.792L218.523 100.5Z" fill="#CBCBCB"/>
<path id="&#232;&#183;&#175;&#229;&#190;&#132;_10" d="M213.278 117.084L213.278 117.069L218.409 100.343L218.476 100.338C218.841 100.315 227.444 99.8076 229.368 104.055L229.378 104.076L228.793 121.458L229.598 148.681L213.687 152.128L213.571 152.153L213.278 117.084Z" fill="#2F2E41"/>
<path id="&#232;&#183;&#175;&#229;&#190;&#132;_11" d="M207.591 115.928L208.533 101.748C201.838 102.165 201.939 106.911 201.946 107.118L201.873 128.328L200.532 151.019L205.408 150.653L207.591 115.928Z" fill="#2F2E41"/>
<path id="&#232;&#183;&#175;&#229;&#190;&#132;_12" d="M192.495 141.729L198.439 127.934L202.587 120.316L204.753 134.058L197.233 145.339L192.495 141.729Z" fill="#2F2E41"/>
<path id="&#232;&#183;&#175;&#229;&#190;&#132;_13" d="M217.059 136.653C217.243 135.789 217.801 135.052 218.581 134.638C219.362 134.225 220.285 134.179 221.103 134.512L225.898 129.664L229.555 131.86L222.687 138.611C222.022 139.977 220.439 140.631 219.004 140.131C217.568 139.632 216.732 138.138 217.059 136.653Z" fill="#FFB7B7"/>
<path id="&#232;&#183;&#175;&#229;&#190;&#132;_14" d="M221.092 132.742L230.869 122.017L224.397 112.782L225.063 108.267L228.877 103.555L228.952 103.651C229.358 104.178 238.913 116.59 239.187 121.289C239.462 126.006 225.729 137.936 225.144 138.442L225.063 138.512L221.092 132.742Z" fill="#2F2E41"/>
<circle id="&#230;&#164;&#173;&#229;&#156;&#134;&#229;&#189;&#162;" cx="212.563" cy="92.3888" r="6.94899" fill="#FFB7B7"/>
<path id="&#232;&#183;&#175;&#229;&#190;&#132;_15" d="M219.099 86.8335L219.435 86.1555L217.74 85.3132C217.74 85.3132 215.87 82.2706 212.487 83.1256C209.103 83.9807 207.58 84.4924 207.58 84.4924L205.889 85.3432L206.738 86.1875L205.216 86.6993L206.233 87.2046L205.049 87.8848L205.686 91.3716C205.686 91.3716 206.745 88.727 208.779 89.7376C210.813 90.7483 214.533 89.2152 214.533 89.2152L217.766 95.4711C217.766 95.4711 218.433 93.2781 219.622 93.8628C219.622 93.8628 222.659 89.0254 219.099 86.8335Z" fill="#2F2E41"/>
<path id="&#232;&#183;&#175;&#229;&#190;&#132;_16" d="M140.47 126.176L34.7975 155.319L0 29.143L105.673 0L140.47 126.176Z" fill="white"/>
<path id="&#229;&#189;&#162;&#231;&#138;&#182;" fill-rule="evenodd" clip-rule="evenodd" d="M34.7975 155.319L140.47 126.176L105.673 0L0 29.143L34.7975 155.319ZM138.092 124.825L36.1476 152.94L2.37836 30.4931L104.323 2.37835L138.092 124.825Z" fill="#F1F1F1"/>
<path id="&#229;&#189;&#162;&#231;&#138;&#182;_2" fill-rule="evenodd" clip-rule="evenodd" d="M56.1871 63.8298L82.6759 56.5245C83.4535 56.3092 83.91 55.505 83.6963 54.727L76.3911 28.2381C76.1757 27.4606 75.3716 27.0041 74.5935 27.2177L48.1047 34.523C47.3271 34.7384 46.8707 35.5425 47.0843 36.3206L54.3895 62.8094C54.6049 63.5869 55.4091 64.0434 56.1871 63.8298ZM47.6479 36.1651C47.5197 35.6983 47.7936 35.2158 48.2601 35.0866L74.7489 27.7814C75.2157 27.6532 75.6982 27.9271 75.8275 28.3936L83.1327 54.8824C83.2609 55.3493 82.987 55.8317 82.5205 55.961L56.0316 63.2662C55.5648 63.3944 55.0823 63.1205 54.9531 62.654L47.6479 36.1651Z" fill="#E5E5E5"/>
<path id="&#232;&#183;&#175;&#229;&#190;&#132;_17" d="M75.9611 61.8636L49.4723 69.1688C48.7721 69.3611 48.0484 68.9503 47.8545 68.2505L40.5492 41.7616C40.357 41.0614 40.7678 40.3377 41.4676 40.1438L67.9564 32.8386C68.6567 32.6463 69.3804 33.0572 69.5742 33.757L76.8795 60.2458C77.0718 60.946 76.6609 61.6697 75.9611 61.8636Z" fill="#2C65FF"/>
<path id="&#231;&#159;&#169;&#229;&#189;&#162;" d="M32.7272 85.8658L106.647 65.4798L107.435 68.3363L33.515 88.7224L32.7272 85.8658Z" fill="#F1F1F1"/>
<path id="&#231;&#159;&#169;&#229;&#189;&#162;_2" d="M34.7812 93.3136L108.701 72.9275L109.489 75.784L35.569 96.1701L34.7812 93.3136Z" fill="#F1F1F1"/>
<path id="&#231;&#159;&#169;&#229;&#189;&#162;_3" d="M36.8352 100.761L110.755 80.3754L111.543 83.2319L37.623 103.618L36.8352 100.761Z" fill="#F1F1F1"/>
<path id="&#231;&#159;&#169;&#229;&#189;&#162;_4" d="M40.4503 113.87L114.37 93.4837L115.158 96.3402L41.2381 116.726L40.4503 113.87Z" fill="#F1F1F1"/>
<path id="&#231;&#159;&#169;&#229;&#189;&#162;_5" d="M42.5043 121.318L116.424 100.932L117.212 103.788L43.2921 124.174L42.5043 121.318Z" fill="#F1F1F1"/>
<path id="&#231;&#159;&#169;&#229;&#189;&#162;_6" d="M44.5583 128.766L118.478 108.379L119.266 111.236L45.3461 131.622L44.5583 128.766Z" fill="#F1F1F1"/>
<path id="&#232;&#183;&#175;&#229;&#190;&#132;_18" d="M174.297 154.897H64.679V24.0111H174.297V154.897Z" fill="white"/>
<path id="&#229;&#189;&#162;&#231;&#138;&#182;_3" fill-rule="evenodd" clip-rule="evenodd" d="M64.679 154.897H174.297V24.0111H64.679V154.897ZM172.363 152.963H66.6128V25.9449H172.363V152.963Z" fill="#E5E5E5"/>
<rect id="&#231;&#159;&#169;&#229;&#189;&#162;_7" x="91.6659" y="80.2773" width="62.6729" height="2.96317" fill="#2C65FF"/>
<rect id="&#231;&#159;&#169;&#229;&#189;&#162;_8" x="91.6659" y="87.9816" width="62.6729" height="2.96317" fill="#2C65FF"/>
<rect id="&#231;&#159;&#169;&#229;&#189;&#162;_9" x="91.6659" y="95.6858" width="62.6729" height="2.96317" fill="#2C65FF"/>
<circle id="&#230;&#164;&#173;&#229;&#156;&#134;&#229;&#189;&#162;_2" cx="86.5707" cy="82.1931" r="1.93383" fill="#2C65FF"/>
<rect id="&#231;&#159;&#169;&#229;&#189;&#162;_10" x="91.6659" y="47.08" width="62.6729" height="2.96317" fill="#E5E5E5"/>
<rect id="&#231;&#159;&#169;&#229;&#189;&#162;_11" x="91.6659" y="54.7842" width="62.6729" height="2.96317" fill="#E5E5E5"/>
<rect id="&#231;&#159;&#169;&#229;&#189;&#162;_12" x="91.6659" y="62.4884" width="62.6729" height="2.96317" fill="#E5E5E5"/>
<circle id="&#230;&#164;&#173;&#229;&#156;&#134;&#229;&#189;&#162;_3" cx="86.5707" cy="48.6733" r="1.93383" fill="#E5E5E5"/>
<rect id="&#231;&#159;&#169;&#229;&#189;&#162;_13" x="91.6659" y="113.797" width="62.6729" height="2.96317" fill="#E5E5E5"/>
<rect id="&#231;&#159;&#169;&#229;&#189;&#162;_14" x="91.6659" y="121.501" width="62.6729" height="2.96317" fill="#E5E5E5"/>
<rect id="&#231;&#159;&#169;&#229;&#189;&#162;_15" x="91.6659" y="129.206" width="62.6729" height="2.96317" fill="#E5E5E5"/>
<circle id="&#230;&#164;&#173;&#229;&#156;&#134;&#229;&#189;&#162;_4" cx="86.5707" cy="115.39" r="1.93383" fill="#E5E5E5"/>
<circle id="&#230;&#164;&#173;&#229;&#156;&#134;&#229;&#189;&#162;_5" cx="169.179" cy="143.763" r="22.4051" fill="#2C65FF"/>
<path id="&#229;&#189;&#162;&#231;&#138;&#182;_4" fill-rule="evenodd" clip-rule="evenodd" d="M175.386 138.046V142.333C177.11 142.411 178.468 143.831 178.469 145.556V155.687H159.889V145.556C159.89 143.831 161.248 142.411 162.971 142.333V138.046C162.97 135.828 164.153 133.777 166.074 132.667C167.995 131.557 170.363 131.557 172.284 132.667C174.205 133.777 175.388 135.828 175.386 138.046ZM173.201 138.046C173.198 135.826 171.399 134.027 169.179 134.024C166.959 134.027 165.16 135.826 165.157 138.046V142.326H173.201V138.046Z" fill="white"/>
<path id="&#232;&#183;&#175;&#229;&#190;&#132;_19" d="M170.849 147.336C170.849 146.541 170.289 145.856 169.51 145.699C168.73 145.541 167.948 145.955 167.64 146.688C167.331 147.42 167.582 148.269 168.239 148.716V152.346H170.118V148.716C170.575 148.406 170.849 147.889 170.849 147.336Z" fill="#2C65FF"/>
<path id="&#232;&#183;&#175;&#229;&#190;&#132;_20" d="M283.954 208.867H158.958C158.777 208.867 158.63 208.72 158.63 208.539C158.63 208.357 158.777 208.211 158.958 208.211H283.954C284.135 208.211 284.282 208.357 284.282 208.539C284.282 208.72 284.135 208.867 283.954 208.867Z" fill="#CBCBCB"/>
</g>
</svg>
