<?xml version="1.0" encoding="UTF-8"?>
<svg width="24px" height="24px" viewBox="0 0 24 24" version="1.1" xmlns="http://www.w3.org/2000/svg" xmlns:xlink="http://www.w3.org/1999/xlink">
    <title>clickhouse</title>
    <g id="页面-1" stroke="none" stroke-width="1" fill="none" fill-rule="evenodd">
        <g id="clickhouse">
            <rect id="矩形" x="0" y="0" width="24" height="24"></rect>
            <polygon id="路径" fill="#FF0000" fill-rule="nonzero" points="0 19.6666667 2.66666667 19.6666667 2.66666667 22.3333333 0 22.3333333"></polygon>
            <path d="M0,1 L2.66666667,1 L2.66666667,19.6666667 L0,19.6666667 L0,1 Z M5.33333333,1 L8,1 L8,22.3333333 L5.33333333,22.3333333 L5.33333333,1 Z M10.6666667,1 L13.3333333,1 L13.3333333,22.3333333 L10.6666667,22.3333333 L10.6666667,1 Z M16,1 L18.6666667,1 L18.6666667,22.3333333 L16,22.3333333 L16,1 Z M21.3333333,9.66666667 L24,9.66666667 L24,13.6666667 L21.3333333,13.6666667 L21.3333333,9.66666667 Z" id="形状" fill="#FFCC00" fill-rule="nonzero"></path>
        </g>
    </g>
</svg>