<?xml version="1.0" standalone="no"?><!DOCTYPE svg PUBLIC "-//W3C//DTD SVG 1.1//EN" "http://www.w3.org/Graphics/SVG/1.1/DTD/svg11.dtd"><svg t="1647340784586" class="icon" viewBox="0 0 1024 1024" version="1.1" xmlns="http://www.w3.org/2000/svg" p-id="1057" xmlns:xlink="http://www.w3.org/1999/xlink" width="200" height="200"><defs><style type="text/css"></style></defs><path d="M778.4 599.5c-32.3 0-60.7 16-78.3 40.3l-102.4-52.7c8.3-17.9 13.3-37.6 13.3-58.6 0-23.9-6.5-46-17.1-65.6l59.8-24.7c5.3 9 11.8 17.5 20.3 24.6 40.8 34.6 101.8 29.6 136.4-11.2 34.6-40.8 29.6-101.8-11.2-136.4-40.8-34.6-101.8-29.6-136.4 11.2-20.9 24.6-27.1 56.6-19.9 85.8l-65.1 26.9c-22.7-26.9-55.2-44.9-92.2-48.7v-95c46.7-6.9 82.7-46.7 82.7-95.4 0-53.5-43.3-96.8-96.8-96.8s-96.8 43.3-96.8 96.8c0 48.6 36 88.5 82.7 95.4v95C387.1 397.6 332 456.3 332 528.5c0 34.7 13.1 66.1 34.1 90.5L324 640.7c-17.5-25.3-46.6-41.9-79.6-41.9-53.5 0-96.8 43.3-96.8 96.8s43.3 96.8 96.8 96.8S341 749 341 695.6c0-10.3-2-20.1-5-29.4l51.7-26.6c23.4 17.7 52.2 28.5 83.7 28.5 45.9 0 86.3-22.5 111.7-56.7L687.3 665c-3.4 9.9-5.7 20.3-5.7 31.4 0 53.5 43.3 96.8 96.8 96.8s96.8-43.3 96.8-96.8-43.3-96.9-96.8-96.9z" fill="#2C65FF" p-id="1058"></path></svg>
