<?xml version="1.0" encoding="UTF-8"?>
<svg width="30px" height="30px" viewBox="0 0 30 30" version="1.1" xmlns="http://www.w3.org/2000/svg" xmlns:xlink="http://www.w3.org/1999/xlink">
    <title>db2</title>
    <g id="db2" stroke="none" stroke-width="1" fill="none" fill-rule="evenodd">
        <circle id="椭圆形" stroke="#E3E3E3" fill="#FFFFFF" cx="14.9217305" cy="15.0782695" r="14.3496"></circle>
        <g transform="translate(8.000000, 8.000000)" fill="#2BC1E8" fill-rule="nonzero" id="形状">
            <path d="M2.79685346,0.017578125 C2.84958783,0.0333984375 2.85310346,0.0474609375 2.85310346,0.244335938 C2.85310346,0.441210938 2.85134564,0.455273438 2.79685346,0.47109375 C2.70017377,0.495703125 0.0950956442,0.488671875 0.0546659567,0.460546875 C0.0300565817,0.444726563 0.0142362692,0.3796875 0.00896283169,0.254882813 C-0.00158404331,0.100195313 0.00368939419,0.06328125 0.0441190817,0.0369140625 C0.0792753317,0.0123046875 0.355251894,0.003515625 1.41169721,0.003515625 C2.14294721,0.0017578125 2.76345502,0.0087890625 2.79685346,0.017578125 Z M6.70095502,0.0826171875 C6.91189252,0.166992188 7.06482221,0.253125 7.17732221,0.356835938 C7.24587689,0.420117188 7.25642377,0.441210938 7.22478314,0.460546875 C7.20368939,0.472851563 6.36521283,0.483398438 5.23845502,0.483398438 C3.49822064,0.483398438 3.28552533,0.478125 3.25036908,0.44296875 C3.18884564,0.384960938 3.19411908,0.06328125 3.25564252,0.0263671875 C3.28376752,0.0087890625 3.81990033,0.003515625 4.91325971,0.0087890625 L6.52868939,0.0158203125 C6.52693158,0.017578125 6.70095502,0.0826171875 6.70095502,0.0826171875 L6.70095502,0.0826171875 Z M10.3800566,0.052734375 C10.4081816,0.080859375 10.4310331,0.124804688 10.4310331,0.14765625 C10.4310331,0.172265625 10.4521269,0.249609375 10.4749785,0.314648438 C10.5136503,0.421875 10.5136503,0.439453125 10.4820097,0.458789063 C10.4310331,0.4921875 8.21794721,0.4921875 8.16697064,0.458789063 C8.11950971,0.42890625 8.09841596,0.0931640625 8.14236127,0.038671875 C8.17048627,0.0052734375 8.32868939,0 9.25154096,0 C10.2956816,0.0017578125 10.3325956,0.003515625 10.3800566,0.052734375 L10.3800566,0.052734375 Z M14.5531035,0.0263671875 C14.5935331,0.04921875 14.6005644,0.0826171875 14.6005644,0.212695313 C14.6005644,0.314648438 14.5847441,0.390234375 14.5601347,0.42890625 L14.5214628,0.48515625 L13.3648222,0.48515625 C12.3523222,0.48515625 12.2081816,0.479882812 12.1941191,0.446484375 C12.1712675,0.390234375 12.2837675,0.0544921875 12.3347441,0.0263671875 C12.3945097,-0.0052734375 14.4898222,-0.0052734375 14.5531035,0.0263671875 L14.5531035,0.0263671875 Z M2.83904096,1.09511719 L2.83904096,1.31132813 L1.45212689,1.31835938 C-0.114084043,1.32539063 0.00193158169,1.34121094 0.00193158169,1.11796875 C0.00193158169,1.05117188 0.0124784567,0.968554688 0.0265409567,0.931640625 L0.0511503317,0.86484375 L1.44158002,0.870117188 L2.83552533,0.877148438 C2.83904096,0.87890625 2.83904096,1.09511719 2.83904096,1.09511719 L2.83904096,1.09511719 Z M7.61853314,0.9140625 C7.67126752,0.972070313 7.74861127,1.23222656 7.72751752,1.28496094 C7.71169721,1.31835938 7.47087689,1.32363281 5.48454877,1.32363281 L3.25915814,1.32363281 L3.23454877,1.26210937 C3.20642377,1.18652344 3.20642377,1.00019531 3.23630658,0.92109375 L3.25915814,0.86484375 L5.41599408,0.86484375 C7.49372846,0.866601562 7.57810346,0.868359375 7.61853314,0.9140625 Z M10.6630644,0.922851563 C10.7105253,1.0125 10.7878691,1.2796875 10.7720488,1.30429687 C10.7650175,1.31484375 10.1726347,1.32539062 9.45193158,1.32539062 C7.97888471,1.32539062 8.11599408,1.34824219 8.11599408,1.10742187 C8.11599408,0.845507812 7.99470502,0.868359375 9.40095502,0.868359375 L10.6314238,0.868359375 L10.6630644,0.922851562 L10.6630644,0.922851563 Z M14.575955,0.931640625 C14.6093535,1.01601563 14.6093535,1.21113281 14.575955,1.27441406 C14.5513456,1.32011719 14.5074003,1.321875 13.2224394,1.321875 L11.9005644,1.321875 L11.9128691,1.26386719 C11.9691191,1.04238281 11.9866972,0.980859375 12.0218535,0.926367187 L12.0622831,0.86484375 L14.5495878,0.86484375 C14.5513456,0.866601562 14.575955,0.931640625 14.575955,0.931640625 Z M2.02517377,1.78945313 C2.03220502,1.81933594 2.03747846,1.92128906 2.03220502,2.0109375 L2.02517377,2.17617188 L0.829861269,2.17617188 L0.822830019,1.98808594 C0.817556582,1.884375 0.821072207,1.78417969 0.828103457,1.76484375 C0.838650332,1.74023438 0.959939394,1.73144531 1.42575971,1.73144531 L2.01286908,1.73144531 L2.02517377,1.78945313 L2.02517377,1.78945313 Z M5.23845502,1.96523438 L5.24548627,2.18847656 L4.66365033,2.18847656 C4.24704877,2.18847656 4.07654096,2.18144531 4.05368939,2.15859375 C4.01501752,2.11992188 4.01325971,1.84746094 4.04841596,1.77890625 C4.07302533,1.73320313 4.10115033,1.73144531 4.65310346,1.73496094 L5.22966596,1.74199219 C5.22966596,1.74375 5.23845502,1.96523438 5.23845502,1.96523438 L5.23845502,1.96523438 Z M7.74861127,1.94238281 C7.74861127,2.09003906 7.73806439,2.14628906 7.70993939,2.16386719 C7.65193158,2.20253906 6.53220502,2.19726562 6.49353314,2.15859375 C6.45486127,2.11992188 6.45310346,1.84746094 6.48825971,1.77890625 C6.51286908,1.73320312 6.54450971,1.73144531 7.13161908,1.73496094 L7.74685346,1.74199219 L7.74685346,1.94238281 L7.74861127,1.94238281 Z M10.939041,1.78242188 C10.9829863,1.87207031 11.023416,2.00566406 11.0339628,2.09355469 L11.0462675,2.19023437 L9.99158002,2.19023437 C8.79802533,2.19023437 8.90525189,2.21132812 8.90525189,1.97226562 C8.90525189,1.71210937 8.81911908,1.73144531 9.94060346,1.73847656 C10.7825956,1.74375 10.9249785,1.74902344 10.939041,1.78242187 L10.939041,1.78242188 Z M13.7761503,1.95996094 L13.7761503,2.17617188 L12.7179472,2.18320313 C11.8654081,2.18847656 11.6544706,2.18320313 11.6439238,2.15507813 C11.6316191,2.12167969 11.7195097,1.82460938 11.7616972,1.76132813 C11.7792753,1.73847656 11.9990019,1.73144531 12.7794706,1.73671875 L13.7761503,1.74375 L13.7761503,1.95996094 L13.7761503,1.95996094 Z M2.00759564,2.60859375 C2.05329877,2.62441406 2.05154096,2.98828125 2.00232221,3.02519531 C1.97947064,3.04628906 1.79665814,3.05332031 1.39939252,3.04804688 L0.829861269,3.04101563 L0.822830019,2.8265625 C0.817556582,2.70878906 0.824587832,2.60507813 0.840408144,2.59804688 C0.866775332,2.58046875 1.95661908,2.59101563 2.00759564,2.60859375 L2.00759564,2.60859375 Z M7.50603314,2.62441406 C7.50603314,2.67714844 7.25466596,2.99355469 7.18786908,3.0234375 C7.14040814,3.04628906 6.71501752,3.05332031 5.61111127,3.05332031 C4.27341596,3.05332031 4.09763471,3.04804688 4.06247846,3.01289063 C4.03435346,2.98476562 4.02204877,2.92675781 4.02204877,2.81777344 C4.02204877,2.64199219 4.03786908,2.60683594 4.10818158,2.59453125 C4.13630658,2.58925781 4.91150189,2.5875 5.83259564,2.59277344 C7.04197064,2.59628906 7.50603314,2.60332031 7.50603314,2.62441406 L7.50603314,2.62441406 Z M11.1868925,2.60859375 C11.2167753,2.6296875 11.248416,2.68417969 11.2589628,2.72988281 C11.2888456,2.87929688 11.2993925,2.90039062 11.3486113,2.90039062 C11.39783,2.90039062 11.4066191,2.87929688 11.4382597,2.72988281 C11.445291,2.6859375 11.4681425,2.63496094 11.4892363,2.62089844 C11.5243925,2.59277344 13.7199003,2.58046875 13.7656035,2.60859375 C13.7937285,2.62617188 13.8007597,2.94960938 13.7761503,3.01289063 C13.7638456,3.04804688 13.6900175,3.05332031 13.2118925,3.05332031 C12.739041,3.05332031 12.6581816,3.04804688 12.6159941,3.009375 C12.5913847,2.98652344 12.570291,2.953125 12.570291,2.93378906 C12.570291,2.87578125 12.5263456,2.89863281 12.494705,2.97773438 L12.4648222,3.05332031 L11.3837675,3.05332031 C10.6894316,3.05332031 10.2868925,3.04277344 10.2552519,3.02871094 C10.2271269,3.01289063 10.207791,2.97597656 10.207791,2.9390625 C10.207791,2.90566406 10.1954863,2.87050781 10.1831816,2.86347656 C10.1585722,2.84765625 10.1480253,2.86523438 10.1216581,2.98300781 L10.1058378,3.05507813 L9.54861127,3.05507813 C8.89294721,3.05507813 8.91047981,3.06035156 8.91047981,2.81777344 C8.91047981,2.73164063 8.92107221,2.64550781 8.93161908,2.6296875 C8.94743939,2.60507813 9.20583783,2.59628906 10.0320097,2.58925781 C10.6243925,2.5875 11.1148222,2.58222656 11.1236113,2.57695313 C11.1253691,2.5734375 11.1552519,2.5875 11.1868925,2.60859375 L11.1868925,2.60859375 Z M2.03396283,3.66679688 C2.03923627,3.80917969 2.03220502,3.8671875 2.00583783,3.89003906 C1.98122846,3.91113281 1.80720502,3.91816406 1.40115033,3.91289063 L0.831619082,3.90585938 L0.824587832,3.68261719 L0.817556582,3.46113281 L1.42224408,3.46640625 L2.02693158,3.4734375 L2.03396283,3.66679688 Z M7.23884564,3.50683594 C7.33552533,3.58769531 7.53591596,3.86542969 7.51833783,3.89003906 C7.50779096,3.91113281 6.97165814,3.91816406 5.78865033,3.91816406 C4.12048627,3.91816406 4.07126752,3.91640625 4.04665814,3.87070313 C4.01853314,3.81445313 4.01150189,3.50507813 4.03962689,3.47871094 C4.04665814,3.46816406 4.75857221,3.46113281 5.62165814,3.46113281 C7.06482221,3.46289063 7.19314252,3.46640625 7.23884564,3.50683594 L7.23884564,3.50683594 Z M10.1128691,3.68964844 L10.1128691,3.90585938 L9.53982221,3.91289063 C9.02302533,3.91816406 8.96501752,3.91464844 8.93689252,3.87421875 C8.90173627,3.82851563 8.89118939,3.50507813 8.92107221,3.47519531 C8.93161908,3.46816406 9.20056439,3.46289063 9.52400189,3.46464844 L10.1111113,3.47167969 C10.1128691,3.4734375 10.1128691,3.68964844 10.1128691,3.68964844 L10.1128691,3.68964844 Z M12.325955,3.48574219 C12.3470488,3.51914062 12.2222441,3.86894531 12.1818144,3.8953125 C12.1642363,3.90761719 11.7845488,3.91816406 11.3398222,3.91816406 L10.5329863,3.91816406 L10.4855253,3.80917969 C10.4292753,3.68789063 10.3818132,3.53496094 10.3818132,3.49101563 C10.3800566,3.45234375 12.3031035,3.44707031 12.325955,3.48574219 Z M13.7831816,3.68085938 L13.7761503,3.90410156 L13.2417753,3.91113281 C12.9499785,3.91289063 12.682791,3.91113281 12.6511503,3.90410156 C12.598416,3.89179688 12.5931425,3.87597656 12.5931425,3.68964844 C12.5931425,3.58066406 12.6001738,3.48398438 12.6107206,3.47519531 C12.6177519,3.46464844 12.888455,3.45761719 13.2083769,3.45761719 L13.7902128,3.45761719 C13.7902128,3.46113281 13.7831816,3.68085938 13.7831816,3.68085938 L13.7831816,3.68085938 Z M2.01111127,4.33476562 C2.02868939,4.35761719 2.03923627,4.44199219 2.03396283,4.55800781 L2.02693158,4.74433594 L1.44685346,4.75664062 C1.12868939,4.76367187 0.856228457,4.76367187 0.843923769,4.76191406 C0.815798769,4.75136719 0.808767519,4.34179688 0.836892519,4.3171875 C0.843923769,4.30664062 1.10583783,4.29960937 1.41697064,4.29960937 C1.87048627,4.29960937 1.98825971,4.30664062 2.01111127,4.33476562 Z M5.22790814,4.31542969 C5.26130658,4.32773438 5.26833783,4.37167969 5.26833783,4.52988281 C5.26833783,4.64238281 5.25603314,4.7390625 5.24372846,4.74609375 C5.22790814,4.75664063 4.95896283,4.76191406 4.64079877,4.75839844 C4.21540814,4.75839844 4.05896283,4.74785156 4.04314252,4.725 C4.03259564,4.70742188 4.02204877,4.62304688 4.02204877,4.53691406 C4.02204877,4.29609375 4.00622846,4.29960655 4.64431439,4.29960655 C4.94314252,4.29960655 5.20505658,4.30664062 5.22790814,4.31542969 Z M7.71521283,4.32949219 C7.73806439,4.35058594 7.76794721,4.43847656 7.78728314,4.54042969 C7.81189252,4.70039062 7.81189252,4.72148438 7.77146283,4.74960937 C7.71521283,4.79003906 6.61482221,4.79707031 6.53747846,4.75664062 C6.49704877,4.73378906 6.49001752,4.70039062 6.49001752,4.55273437 C6.49001752,4.29082031 6.46716596,4.29785156 7.12283002,4.29785156 C7.52712689,4.29960937 7.68533002,4.30664062 7.71521283,4.32949219 L7.71521283,4.32949219 Z M10.1128691,4.528125 L10.1128691,4.74433594 L8.91755658,4.74433594 L8.91052533,4.57382813 C8.89822064,4.28378906 8.86482221,4.29609375 9.53630658,4.30488281 L10.1128691,4.31191406 L10.1128691,4.528125 Z M12.0306425,4.32246094 C12.0886503,4.35761719 11.9638456,4.72851562 11.8829863,4.76015625 C11.8021269,4.79355469 10.8089628,4.76191406 10.7685331,4.72675781 C10.750955,4.7109375 10.7351347,4.6828125 10.7351347,4.66347656 C10.7351347,4.640625 10.714041,4.56855469 10.6911894,4.50527344 C10.6173613,4.29082031 10.5927519,4.29960937 11.3363066,4.29960937 C11.7001738,4.29960937 12.0113066,4.31015625 12.0306425,4.32246094 L12.0306425,4.32246094 Z M13.7831816,4.53339844 C13.788455,4.67578125 13.7814238,4.75664062 13.7620878,4.75664062 L12.6423613,4.75664062 C12.5966581,4.75664062 12.5913847,4.7390625 12.5913847,4.5421875 C12.5913847,4.39453125 12.6019316,4.32421875 12.6247831,4.31542969 C12.6406035,4.30839844 12.907791,4.303125 13.2154081,4.30488281 L13.7743925,4.31015625 C13.7761503,4.31191406 13.7831816,4.53339844 13.7831816,4.53339844 L13.7831816,4.53339844 Z M2.80915814,5.175 C2.84431439,5.18203125 2.85310346,5.21542969 2.85310346,5.38945313 C2.85310346,5.55292969 2.84607221,5.59511719 2.81267377,5.60742188 C2.78982221,5.61445312 2.16931439,5.62324219 1.42927533,5.62324219 C-0.100021543,5.62324219 0.00544720669,5.6390625 0.00544720669,5.41230469 C0.00544720669,5.24179687 0.0265409567,5.17148437 0.0775175192,5.1609375 C0.135525332,5.146875 2.75818158,5.16269531 2.80915814,5.175 L2.80915814,5.175 Z M5.56013471,5.16445312 C7.27224408,5.16445312 7.73279096,5.17148437 7.74158002,5.19433594 C7.75740033,5.24003906 7.66599408,5.51953125 7.61501752,5.57578125 C7.57634564,5.61972656 7.47087689,5.62148437 5.43005658,5.62148437 C3.52810346,5.62148437 3.28376752,5.61621094 3.24861127,5.58105469 C3.21345502,5.54589844 3.20818158,5.44394531 3.23103314,5.19785156 C3.23279096,5.16445312 3.30486127,5.13984375 3.35583783,5.15390625 C3.37693158,5.15917969 4.36833783,5.16445312 5.56013471,5.16445312 Z M10.1128691,5.39296875 L10.1128691,5.60917969 L9.14958783,5.61621094 C8.42185346,5.62148437 8.17751752,5.61445312 8.14939252,5.59160156 C8.10368939,5.55292969 8.11072064,5.19785156 8.15993939,5.16972656 C8.17575971,5.15917969 8.62048627,5.15742188 9.15134564,5.16445312 L10.1128691,5.17675781 L10.1128691,5.39296875 L10.1128691,5.39296875 Z M11.7722441,5.23652344 C11.7423613,5.38945312 11.7054472,5.50019531 11.6685331,5.55996094 C11.6281035,5.62148437 11.6157988,5.62324219 11.3661894,5.62324219 C11.2238066,5.62324219 11.0937285,5.61269531 11.0761503,5.60214844 C11.0409941,5.57929687 11.0005644,5.48261719 10.9548613,5.31035156 C10.9267363,5.19785156 10.9267363,5.18554687 10.9706816,5.16972656 C10.9935331,5.15917969 11.1886503,5.15390625 11.4013456,5.15917969 L11.7880644,5.16621094 C11.7845488,5.16621094 11.7722441,5.23652344 11.7722441,5.23652344 L11.7722441,5.23652344 Z M14.5724394,5.17675781 C14.5829863,5.18378906 14.5935331,5.27167969 14.5970488,5.36484375 C14.6128691,5.6390625 14.6814238,5.62148437 13.5968535,5.62148437 C13.0888456,5.62148437 12.6564238,5.61445313 12.6335722,5.60566406 C12.6001738,5.59335938 12.5931425,5.54941406 12.5931425,5.38945313 C12.5931425,5.21191406 12.598416,5.18378906 12.6406035,5.16796875 C12.7021269,5.14863281 14.5513456,5.15390625 14.5724394,5.17675781 L14.5724394,5.17675781 Z M2.82146283,6.05214844 C2.84431439,6.06445312 2.85134564,6.12773437 2.84607221,6.27363281 L2.83904096,6.47402344 L1.45212689,6.48105469 C0.172439394,6.48632812 0.0634550192,6.4828125 0.0353300192,6.44238281 C-0.00509966831,6.38613281 -0.00861529331,6.09960937 0.0335722067,6.05917969 C0.0704862692,6.02402344 2.76521283,6.01699219 2.82146283,6.05214844 Z M7.27048627,6.06972656 C7.28103314,6.103125 6.98572064,6.30878906 6.83630658,6.3703125 C6.57263471,6.47929688 6.44958783,6.48808594 4.82009564,6.48808594 C3.30661908,6.48808594 3.26091596,6.48632812 3.23630658,6.440625 C3.20115033,6.37207031 3.20290814,6.09960938 3.24158002,6.0609375 C3.28200971,6.01699219 7.25466596,6.02578125 7.27048627,6.06972656 Z M10.1128691,6.2578125 L10.1128691,6.47402344 L9.13200971,6.48105469 L8.14763471,6.48632812 L8.13181439,6.43007813 C8.10720502,6.328125 8.11599408,6.0890625 8.14763471,6.05917969 C8.17048627,6.03632812 8.41482221,6.02929688 9.14783002,6.03457031 L10.1146269,6.04160156 C10.1128691,6.04160156 10.1128691,6.2578125 10.1128691,6.2578125 Z M11.4909941,6.07324219 C11.501541,6.09609375 11.4892363,6.16992188 11.4663847,6.23671875 C11.4435331,6.3 11.4224394,6.37382813 11.4224394,6.39492188 C11.4224394,6.41777344 11.4101347,6.44238281 11.3925566,6.45292969 C11.3574003,6.47578125 11.2712675,6.37382813 11.2712675,6.30527344 C11.2712675,6.28066406 11.2536894,6.22089844 11.2308378,6.18046875 C11.17283,6.06269531 11.1974394,6.03105469 11.3486113,6.03105469 C11.4435331,6.02929688 11.4786894,6.03984375 11.4909941,6.07324219 L11.4909941,6.07324219 Z M14.5724394,6.05917969 C14.6128691,6.09960938 14.6111113,6.38789062 14.5724394,6.44238281 C14.5425566,6.4828125 14.4581816,6.48632812 13.5722441,6.48105469 L12.6054472,6.47402344 L12.598416,6.2859375 C12.5931425,6.18222656 12.5966581,6.08203125 12.6036894,6.06269531 C12.6212675,6.01699219 14.5232206,6.01171875 14.5724394,6.05917969 L14.5724394,6.05917969 Z"></path>
            <path d="M13.2523222,7.80292969 C13.92908,7.9734375 14.294705,8.29511719 14.4880644,8.88222656 C14.5706816,9.13183594 14.5583769,9.83671875 14.4740019,10.1232422 C14.314041,10.6382813 14.1294706,10.8878906 13.4878691,11.4556641 C12.5439238,12.2853516 12.3277128,12.4927734 12.2064238,12.6791016 C12.1361113,12.7845703 12.0886503,12.8917969 12.0991972,12.9181641 C12.1167753,12.9603516 12.2943144,12.9673828 13.301541,12.9673828 C13.98533,12.9673828 14.5074003,12.9796875 14.5407988,13.0007813 C14.5829863,13.0236328 14.5970488,13.1220703 14.60408,13.4595703 C14.6146269,13.8339844 14.6075956,13.8990234 14.5548613,13.9552734 C14.4986113,14.0150391 14.4195097,14.0167969 12.5263456,14.0167969 C11.3345488,14.0167969 10.5224394,14.0044922 10.469705,13.9833984 C10.3835722,13.9535156 10.376541,13.9376953 10.376541,13.7443359 C10.376541,13.5351563 10.469705,13.0886719 10.5646269,12.8478516 C10.6138456,12.7195313 10.7931425,12.3943359 10.8845488,12.2607422 C11.1095488,11.9285156 11.7845488,11.2623047 12.4331816,10.7384766 C12.7741972,10.4589844 12.9956816,10.1513672 13.0624785,9.85957031 C13.1257597,9.58359375 13.1292753,9.25488281 13.0730253,9.02636719 C12.9904081,8.69414063 12.6704863,8.52714844 12.2907988,8.62207031 C11.9497831,8.7046875 11.8074003,8.92792969 11.7669706,9.43242188 C11.7493925,9.66269531 11.7282988,9.76464844 11.6913847,9.78398438 C11.6632597,9.80332031 11.3644316,9.81386719 11.0146269,9.80683594 L10.3923613,9.79980469 L10.3958769,9.421875 C10.3958769,9.21445313 10.4169706,8.98242188 10.4380644,8.90683594 C10.6085722,8.34960938 11.032205,7.96464844 11.650955,7.80996094 C11.9743925,7.734375 12.964041,7.72734375 13.2523222,7.80292969 L13.2523222,7.80292969 Z M4.57575971,9.81914063 C4.47908002,9.16523438 4.41931439,8.94023438 4.26990033,8.65722656 C4.06423627,8.27050781 3.68279096,7.93828125 3.29431439,7.80644531 C3.20466596,7.7765625 2.99197064,7.73085938 2.81794721,7.70097656 C2.57536908,7.6640625 2.23435346,7.65175781 1.34138471,7.65527344 C0.705056582,7.65527344 0.156619082,7.66582031 0.128494082,7.67460938 C0.100369082,7.68515625 0.0652128317,7.71152344 0.0493925192,7.73085938 C0.0353300192,7.75019531 0.0212675192,9.15820313 0.0212675192,10.8615234 L0.0212675192,13.9535156 L0.114431582,13.9869141 C0.228689394,14.0255859 2.19743939,14.0291016 2.64216596,13.9904297 C3.32595502,13.9289063 3.79529096,13.6845703 4.11521283,13.2292969 C4.31033002,12.9462891 4.47908002,12.4681641 4.54939252,11.9847656 C4.60388471,11.5646484 4.62497846,10.1496094 4.57575971,9.81914063 L4.57575971,9.81914063 Z M3.17302533,11.0654297 C3.11325971,12.7195313 2.91990033,13.021875 1.90564252,13.0412109 C1.71755658,13.0447266 1.54529096,13.0341797 1.52068158,13.021875 C1.45740033,12.9849609 1.46091596,8.73632813 1.52419721,8.67304688 C1.58396283,8.61152344 2.29939252,8.64667969 2.49275189,8.71875 C2.65271283,8.78027344 2.84783002,8.93847656 2.91990033,9.06679688 C3.10622846,9.39199219 3.20818158,10.1865234 3.17302533,11.0654297 L3.17302533,11.0654297 Z M9.71911908,11.3115234 C9.56267377,11.0548828 9.42029096,10.9300781 9.10740033,10.7859375 C8.96501752,10.7244141 8.84724408,10.6646484 8.84724408,10.6576172 C8.84724408,10.6505859 8.91404096,10.6119141 9.00017377,10.5714844 C9.20232221,10.4730469 9.36404096,10.3289063 9.50115033,10.1126953 C9.87204877,9.534375 9.77888471,8.60273438 9.30954877,8.14746094 C9.07751752,7.92421875 8.85779096,7.81875 8.42009564,7.72734375 C8.10017377,7.65878906 5.54079877,7.62539063 5.47575971,7.68867188 C5.41247846,7.7484375 5.40896283,13.921875 5.47224408,13.9798828 C5.52497846,14.0291016 7.59743939,14.0326172 8.15993939,13.9869141 C8.88591596,13.9271484 9.45193158,13.6054688 9.72263471,13.1044922 C9.81931439,12.9199219 9.94763471,12.4048828 9.95115033,12.1763672 C9.94939252,11.9390625 9.83513471,11.5119141 9.71911908,11.3115234 L9.71911908,11.3115234 Z M6.87146283,8.67304688 C6.89607221,8.61152344 7.59040814,8.64316406 7.81540814,8.71523438 C8.15642377,8.82949219 8.26013471,8.99472656 8.26013471,9.44121094 C8.26013471,9.81210938 8.21794721,9.92109375 7.99294721,10.0845703 C7.84001752,10.1988281 7.42341596,10.2849609 7.09997846,10.2708984 L6.87146283,10.2603516 L6.86091596,9.48867188 C6.85740033,9.06679688 6.86091596,8.69941406 6.87146283,8.67304688 L6.87146283,8.67304688 Z M7.81716596,12.9761719 C7.66072064,13.0148438 6.95935346,13.0640625 6.89958783,13.0447266 C6.86443158,13.0324219 6.85388471,12.8179688 6.85388471,12.1359375 C6.85388471,11.64375 6.86443158,11.2306641 6.88200971,11.2166016 C6.89607221,11.2007813 7.11755658,11.1972656 7.36892377,11.2042969 C7.75388471,11.2148438 7.85583783,11.2306641 7.97361127,11.2869141 C8.28298627,11.4380859 8.42888471,11.6964844 8.42888471,12.1007813 C8.43415814,12.5947266 8.23376752,12.8742188 7.81716596,12.9761719 L7.81716596,12.9761719 Z"></path>
        </g>
    </g>
</svg>