<?xml version="1.0" encoding="UTF-8"?>
<svg width="30px" height="30px" viewBox="0 0 30 30" version="1.1" xmlns="http://www.w3.org/2000/svg" xmlns:xlink="http://www.w3.org/1999/xlink">
    <title>dummy</title>
    <g id="dummy" stroke="none" stroke-width="1" fill="none" fill-rule="evenodd">
        <circle id="椭圆形" stroke="#E3E3E3" fill="#FFFFFF" cx="14.9217305" cy="15.0782695" r="14.3496"></circle>
        <g transform="translate(7.000000, 7.000000)" fill="#4AAF47" fill-rule="nonzero" id="形状">
            <path d="M13.9282126,0 L1.07178743,0 C0.482304343,0 0,0.482304343 0,1.07178743 L0,13.9282126 C0,14.5176957 0.482304343,15 1.07178743,15 L13.9282126,15 C14.5176957,15 15,14.5176957 15,13.9282126 L15,1.07178743 C15,0.482304343 14.5176957,0 13.9282126,0 Z M13.9215139,13.3152841 C13.9215139,13.6669644 13.6368204,13.9516579 13.2851401,13.9516579 L1.69643854,13.9516579 C1.34475829,13.9516579 1.06006475,13.6669644 1.06006475,13.3152841 L1.06006475,1.72658256 C1.06006475,1.37657698 1.34643296,1.09020878 1.69643854,1.09020878 L13.2851401,1.09020878 C13.6351457,1.09020878 13.9215139,1.37657698 13.9215139,1.72658256 L13.9215139,13.3152841 Z"></path>
            <path d="M11.4302462,11 L3.5961313,11 C3.2866354,11 3.03341149,10.775 3.03341149,10.5 C3.03341149,10.225 3.2866354,10 3.5961313,10 L11.4302462,10 C11.7397421,10 11.992966,10.225 11.992966,10.5 C11.992966,10.775 11.7397421,11 11.4302462,11 Z M5.26846424,6 L3.56271981,6 C3.25322392,6 3,5.775 3,5.5 C3,5.225 3.25322392,5 3.56271981,5 L5.26846424,5 C5.57796014,5 5.83118406,5.225 5.83118406,5.5 C5.83118406,5.775 5.57796014,6 5.26846424,6 Z M11.4372802,6 L9.78429074,6 C9.47479484,6 9.22157093,5.775 9.22157093,5.5 C9.22157093,5.225 9.47479484,5 9.78429074,5 L11.4372802,5 C11.7467761,5 12,5.225 12,5.5 C12,5.775 11.7467761,6 11.4372802,6 Z"></path>
        </g>
    </g>
</svg>