<?xml version="1.0" encoding="UTF-8"?>
<svg width="30px" height="30px" viewBox="0 0 30 30" version="1.1" xmlns="http://www.w3.org/2000/svg" xmlns:xlink="http://www.w3.org/1999/xlink">
    <title>excel</title>
    <g id="excel" stroke="none" stroke-width="1" fill="none" fill-rule="evenodd">
        <g transform="translate(7.500000, 7.500000)" fill="#4AAF47" fill-rule="nonzero">
            <g id="图层_7">
                <path d="M11.3189876,0.0133734537 L1.10380198,0.0150451354 C0.493366039,0.0150451354 0,0.509862922 0,1.11835507 L0.006689709,13.8849883 C0.006689709,14.4934804 0.500055748,14.9866265 1.10881927,14.9882982 L13.8794737,15 C14.4899097,15 14.9832757,14.5068539 14.9849482,13.8966901 L14.988293,3.68271481 C14.988293,3.39017051 14.8728955,3.10932798 14.6655146,2.90203945 L12.1000111,0.336008024 C11.8926302,0.128719492 11.6116624,0.0133734537 11.3189876,0.0133734537 Z M12.8442413,13.9184219 L2.21429368,13.9100635 C1.60553016,13.9100635 1.11216412,13.4169174 1.11216412,12.8067536 L1.10547441,2.20494818 C1.10547441,1.59478435 1.59884045,1.10163825 2.2092764,1.10163825 L10.7436727,1.09996657 C11.0363474,1.09996657 11.3173152,1.2153126 11.5230237,1.42260114 L13.6286097,3.52390505 C13.8359906,3.73119358 13.9530605,4.01203611 13.9530605,4.30458041 L13.9497157,12.815112 C13.9480433,13.4252758 13.4530048,13.9184219 12.8442413,13.9184219 Z" id="形状"></path>
                <path d="M11.2721597,0.533266466 L11.2721597,4.5068539 C11.2721597,4.80106988 11.0330026,5.04012036 10.7386554,5.04012036 L10.7386554,5.04012036 C10.4443082,5.04012036 10.2051511,4.80106988 10.2051511,4.5068539 L10.2051511,0.533266466 C10.2051511,0.239050485 10.4443082,0 10.7386554,0 L10.7386554,0 C11.0330026,0 11.2721597,0.237378803 11.2721597,0.533266466 Z" id="路径"></path>
                <path d="M14.4414093,5.05015045 L10.7319657,5.05015045 C10.4376185,5.05015045 10.1984614,4.81109997 10.1984614,4.51688399 C10.1984614,4.222668 10.4376185,3.98361752 10.7319657,3.98361752 L14.4414093,3.98361752 C14.7357565,3.98361752 14.9749136,4.222668 14.9749136,4.51688399 C14.9749136,4.81277165 14.7357565,5.05015045 14.4414093,5.05015045 Z" id="路径"></path>
            </g>
            <g id="编组" transform="translate(3.125000, 6.250000)">
                <polygon id="路径" points="0.10548186 0.0705103607 1.25139843 0.0705103607 1.84753077 1.3715944 2.427681 0.0705103607 3.5624101 0.0705103607 2.51398434 2.11866846 3.65990091 4.29945318 2.4916094 4.29945318 1.82675404 2.93961051 1.16189867 4.29777437 0 4.29777437 1.16030046 2.095165"></polygon>
                <polygon id="路径" points="3.99232859 0.0705103607 5.03276331 0.0705103607 5.03276331 3.25690714 6.65654467 3.25690714 6.65654467 4.29777437 3.99232859 4.29777437"></polygon>
                <path d="M6.94741889,2.89931888 L7.93671088,2.82209325 C7.95748761,3.02355142 8.00223749,3.17800269 8.0677641,3.28376823 C8.17484417,3.45500767 8.32827233,3.5406274 8.52645038,3.5406274 C8.67508391,3.5406274 8.78855682,3.49697813 8.87006553,3.40967959 C8.94997603,3.32238104 8.98993128,3.21997314 8.98993128,3.10581351 C8.98993128,2.99669033 8.95157424,2.89764006 8.87486016,2.81202034 C8.79814608,2.7247218 8.62074477,2.64413853 8.34265623,2.56691289 C7.88716637,2.4376439 7.56113153,2.26640445 7.36614991,2.05319455 C7.16957008,1.83998465 7.07207927,1.56801612 7.07207927,1.23728895 C7.07207927,1.02072141 7.12162378,0.814226784 7.22231101,0.621162701 C7.32299824,0.428098619 7.47322998,0.27532617 7.67460444,0.166202993 C7.8759789,0.0554009977 8.15246923,0 8.50247723,0 C8.93239572,0 9.26002877,0.100729087 9.48697459,0.30218726 C9.7123222,0.503645434 9.84657184,0.822620875 9.88972351,1.2607924 L8.91002078,1.33298158 C8.88444942,1.14327513 8.82851207,1.00393323 8.74540515,0.918313507 C8.66229823,0.831014965 8.54722711,0.789044513 8.40019179,0.789044513 C8.27872782,0.789044513 8.18762985,0.820942057 8.12689787,0.886415963 C8.06616589,0.950211051 8.0357999,1.0291155 8.0357999,1.1214505 C8.0357999,1.18860322 8.06137126,1.24904068 8.11091577,1.30276285 C8.16046028,1.35816385 8.2755314,1.41020721 8.45932556,1.45889294 C8.9132172,1.58144666 9.23925204,1.7056792 9.43583187,1.83159056 C9.6324117,1.95750192 9.7762506,2.113632 9.86575036,2.29998081 C9.95525012,2.48632962 10,2.69450307 10,2.92617997 C10,3.19646969 9.94086623,3.44661358 9.82100048,3.67661167 C9.70113473,3.90493093 9.53492089,4.07952801 9.32076075,4.19704528 C9.10660061,4.31456255 8.83650312,4.375 8.51046828,4.375 C7.93830909,4.375 7.54195301,4.23733691 7.32140003,3.96033193 C7.10084705,3.67829048 6.97618667,3.3274175 6.94741889,2.89931888 Z" id="路径"></path>
            </g>
        </g>
    </g>
</svg>