<?xml version="1.0" encoding="UTF-8"?>
<svg width="24px" height="24px" viewBox="0 0 24 24" version="1.1" xmlns="http://www.w3.org/2000/svg" xmlns:xlink="http://www.w3.org/1999/xlink">
    <title>Fp</title>
    <g id="任务管理" stroke="none" stroke-width="1" fill="none" fill-rule="evenodd">
        <g id="JS/java脚本设置" transform="translate(-99.000000, -682.000000)">
            <g id="Fp" transform="translate(99.000000, 682.000000)">
                <rect id="矩形" fill-opacity="0" fill="#D8D8D8" x="0" y="0" width="24" height="24"></rect>
                <path d="M4.464,16 L4.464,10.688 L10.464,10.688 L10.464,9.552 L4.464,9.552 L4.464,5.712 L10.8,5.712 L10.8,4.576 L3.152,4.576 L3.152,16 L4.464,16 Z M14.0373333,19.168 L14.0373333,14.496 C14.6773333,15.648 15.5893333,16.224 16.7733333,16.224 C17.9573333,16.224 18.8693333,15.776 19.5413333,14.912 C20.1493333,14.112 20.4693333,13.104 20.4693333,11.888 C20.4693333,10.64 20.1493333,9.632 19.5253333,8.832 C18.8373333,7.936 17.8933333,7.504 16.7093333,7.504 C15.4613333,7.504 14.5493333,8.032 13.9573333,9.088 L13.9573333,7.728 L12.7573333,7.728 L12.7573333,19.168 L14.0373333,19.168 Z M16.5013333,15.168 C15.7333333,15.168 15.1413333,14.864 14.6933333,14.288 C14.2133333,13.696 13.9893333,12.928 13.9893333,11.968 L13.9893333,11.808 C13.9893333,10.88 14.1973333,10.112 14.6133333,9.536 C15.0613333,8.88 15.7173333,8.56 16.5493333,8.56 C17.4293333,8.56 18.1013333,8.88 18.5653333,9.552 C18.9493333,10.128 19.1573333,10.912 19.1573333,11.888 C19.1573333,12.88 18.9493333,13.664 18.5333333,14.24 C18.0693333,14.848 17.3973333,15.168 16.5013333,15.168 Z" fill="#2C65FF" fill-rule="nonzero"></path>
            </g>
        </g>
    </g>
</svg>
