<?xml version="1.0" encoding="UTF-8"?>
<svg width="28px" height="28px" viewBox="0 0 28 28" version="1.1" xmlns="http://www.w3.org/2000/svg" xmlns:xlink="http://www.w3.org/1999/xlink">
    <title>file</title>
    <g id="file" stroke="none" stroke-width="1" fill="none" fill-rule="evenodd">
        <g fill="#4AAF47" fill-rule="nonzero">
            <path d="M21.1193581,0.0249637802 L2.05951187,0.0280842528 C0.920539396,0.0280842528 0,0.951744121 0,2.08759612 L0.0124818901,25.9186448 C0.0124818901,27.0544968 0.933021286,27.9750362 2.06887329,27.9781567 L25.8968015,28 C27.035774,28 27.9563134,27.0794606 27.9594339,25.9404881 L27.9656748,6.87440098 C27.9656748,6.32831829 27.7503622,5.8040789 27.3634236,5.41714031 L22.5766187,0.627214978 C22.1896802,0.240276385 21.6654408,0.0249637802 21.1193581,0.0249637802 Z M23.965229,25.9810543 L4.13150563,25.9654519 C2.99565363,25.9654519 2.07511423,25.0449125 2.07511423,23.90594 L2.06263234,4.11590327 C2.06263234,2.97693079 2.98317174,2.0563914 4.12214421,2.0563914 L20.0459155,2.05327092 C20.5919982,2.05327092 21.1162376,2.26858353 21.5000557,2.65552212 L25.4287306,6.57795609 C25.8156692,6.96489468 26.0341023,7.48913407 26.0341023,8.03521676 L26.0278614,23.9215424 C26.0247409,25.0605149 25.101081,25.9810543 23.965229,25.9810543 L23.965229,25.9810543 Z" id="形状"></path>
            <path d="M13.9360303,10.0198373 L7.01170177,10.0198373 C6.46249861,10.0198373 6.01627104,9.57360972 6.01627104,9.02440655 C6.01627104,8.47520339 6.46249861,8.02897582 7.01170177,8.02897582 L13.9360303,8.02897582 C14.4852335,8.02897582 14.931461,8.47520339 14.931461,9.02440655 C14.931461,9.57673019 14.4852335,10.0198373 13.9360303,10.0198373 Z M20.9945392,14.9782681 L6.98985846,14.9782681 C6.4406553,14.9782681 5.99442773,14.5320406 5.99442773,13.9828374 C5.99442773,13.4336342 6.4406553,12.9874067 6.98985846,12.9874067 L20.9945392,12.9874067 C21.5437423,12.9874067 21.9899699,13.4336342 21.9899699,13.9828374 C21.9899699,14.535161 21.5437423,14.9782681 20.9945392,14.9782681 Z M20.9851778,20.0053494 L6.98049705,20.0053494 C6.43129388,20.0053494 5.98506631,19.5591218 5.98506631,19.0099186 C5.98506631,18.4607155 6.43129388,18.0144879 6.98049705,18.0144879 L20.9851778,18.0144879 C21.5343809,18.0144879 21.9806085,18.4607155 21.9806085,19.0099186 C21.9806085,19.5622423 21.5343809,20.0053494 20.9851778,20.0053494 Z M21.0319848,0.995430737 L21.0319848,8.41279394 C21.0319848,8.9619971 20.5857573,9.40822467 20.0365541,9.40822467 C19.4873509,9.40822467 19.0411234,8.9619971 19.0411234,8.41279394 L19.0411234,0.995430737 C19.0411234,0.446227572 19.4873509,0 20.0365541,0 C20.5857573,0 21.0319848,0.443107099 21.0319848,0.995430737 Z" id="形状"></path>
            <path d="M26.9452803,9.42694751 L20.0240722,9.42694751 C19.4748691,9.42694751 19.0286415,8.98071994 19.0286415,8.43151677 C19.0286415,7.88231361 19.4748691,7.43608604 20.0240722,7.43608604 L26.9452803,7.43608604 C27.4944835,7.43608604 27.940711,7.88231361 27.940711,8.43151677 C27.940711,8.98384041 27.4944835,9.42694751 26.9452803,9.42694751 Z" id="路径"></path>
        </g>
    </g>
</svg>