<?xml version="1.0" encoding="UTF-8"?>
<svg width="30px" height="30px" viewBox="0 0 30 30" version="1.1" xmlns="http://www.w3.org/2000/svg" xmlns:xlink="http://www.w3.org/1999/xlink">
    <title>file</title>
    <g id="file" stroke="none" stroke-width="1" fill="none" fill-rule="evenodd">
        <circle id="椭圆形" stroke="#E3E3E3" fill="#FFFFFF" cx="14.9217305" cy="15.0782695" r="14.3496"></circle>
        <g transform="translate(7.000000, 7.000000)" fill="#4AAF47" fill-rule="nonzero">
            <path d="M11.3278286,0 L1.10466414,0.00167317345 C0.493751395,0.00167317345 0,0.496932515 0,1.10596765 L0.00669493417,13.8839933 C0.00669493417,14.4930284 0.500446329,14.9866146 1.10968534,14.9882878 L13.8903147,15 C14.5012274,15 14.9949788,14.5064138 14.9966525,13.8957055 L15,3.67261573 C15,3.37981037 14.8845124,3.09871723 14.6769694,2.89124373 L12.1094622,0.322922476 C11.9019192,0.115448968 11.620732,0 11.3278286,0 Z M12.8542736,13.9174568 L2.21602321,13.9090909 C1.6067842,13.9090909 1.11303281,13.4155047 1.11303281,12.8047964 L1.10633787,2.1935304 C1.10633787,1.58282209 1.60008927,1.08923592 2.21100201,1.08923592 L10.7520643,1.08756274 C11.0449676,1.08756274 11.3261549,1.20301171 11.5320241,1.41048522 L13.6392546,3.51366425 C13.8467976,3.72113776 13.9639589,4.0022309 13.9639589,4.29503625 L13.9606115,12.8131623 C13.9589377,13.4238706 13.4635126,13.9174568 12.8542736,13.9174568 L12.8542736,13.9174568 Z" id="形状"></path>
            <path d="M7.47104699,5.50943691 L3.57730552,5.50943691 C3.26847339,5.50943691 3.01754728,5.26407737 3.01754728,4.9620964 C3.01754728,4.66011543 3.26847339,4.41475589 3.57730552,4.41475589 L7.47104699,4.41475589 C7.77987912,4.41475589 8.03080523,4.66011543 8.03080523,4.9620964 C8.03080523,5.26579317 7.77987912,5.50943691 7.47104699,5.50943691 Z M11.4402418,8.23584464 L3.56502242,8.23584464 C3.25619029,8.23584464 3.00526418,7.9904851 3.00526418,7.68850413 C3.00526418,7.38652316 3.25619029,7.14116363 3.56502242,7.14116363 L11.4402418,7.14116363 C11.7490739,7.14116363 12,7.38652316 12,7.68850413 C12,7.9922009 11.7490739,8.23584464 11.4402418,8.23584464 Z M11.4349776,11 L3.55975824,11 C3.25092611,11 3,10.7546405 3,10.4526595 C3,10.1506785 3.25092611,9.90531898 3.55975824,9.90531898 L11.4349776,9.90531898 C11.7438097,9.90531898 11.9947358,10.1506785 11.9947358,10.4526595 C11.9947358,10.7563563 11.7438097,11 11.4349776,11 Z M11.4612985,0.547340509 L11.4612985,4.62579941 C11.4612985,4.92778038 11.2103724,5.17313992 10.9015403,5.17313992 C10.5927081,5.17313992 10.341782,4.92778038 10.341782,4.62579941 L10.341782,0.547340509 C10.341782,0.245359538 10.5927081,0 10.9015403,0 C11.2103724,0 11.4612985,0.243643737 11.4612985,0.547340509 Z" id="形状"></path>
            <path d="M14.4415266,5 L10.5584734,5 C10.2503501,5 10,4.77586207 10,4.5 C10,4.22413793 10.2503501,4 10.5584734,4 L14.4415266,4 C14.7496499,4 15,4.22413793 15,4.5 C15,4.77742947 14.7496499,5 14.4415266,5 Z" id="路径"></path>
        </g>
    </g>
</svg>