<?xml version="1.0" encoding="UTF-8"?>
<svg width="30px" height="30px" viewBox="0 0 30 30" version="1.1" xmlns="http://www.w3.org/2000/svg" xmlns:xlink="http://www.w3.org/1999/xlink">
    <title>gridfs2</title>
    <g id="gridfs2" stroke="none" stroke-width="1" fill="none" fill-rule="evenodd">
        <circle id="椭圆形" stroke="#E3E3E3" fill="#FFFFFF" cx="14.9217305" cy="15.0782695" r="14.3496"></circle>
        <g transform="translate(8.000000, 8.000000)" fill="#4AAF47" fill-rule="nonzero">
            <path d="M8.18724808,5.50943691 L7.58446317,5.50943691 C7.26200073,5.50943691 7,5.26407737 7,4.9620964 C7,4.66011543 7.26200073,4.41475589 7.58446317,4.41475589 L8.18724808,4.41475589 C8.50971052,4.41475589 8.77171125,4.66011543 8.77171125,4.9620964 C8.77171125,5.26579317 8.50971052,5.50943691 8.18724808,5.50943691 Z M11.4155368,8.23584464 L8.46940271,8.23584464 C8.14694027,8.23584464 7.88493954,7.9904851 7.88493954,7.68850413 C7.88493954,7.38652316 8.14694027,7.14116363 8.46940271,7.14116363 L11.4155368,7.14116363 C11.7379993,7.14116363 12,7.38652316 12,7.68850413 C12,7.9922009 11.7379993,8.23584464 11.4155368,8.23584464 L11.4155368,8.23584464 Z M11.4100403,11 L8.50054965,11 C8.17808721,11 7.91608648,10.7546405 7.91608648,10.4526595 C7.91608648,10.1506785 8.17808721,9.90531898 8.50054965,9.90531898 L11.4100403,9.90531898 C11.7325027,9.90531898 11.9945035,10.1506785 11.9945035,10.4526595 C11.9945035,10.7563563 11.7325027,11 11.4100403,11 L11.4100403,11 Z M11.4375229,0.547340509 L11.4375229,4.62579941 C11.4375229,4.92778038 11.1755222,5.17313992 10.8530597,5.17313992 C10.5305973,5.17313992 10.2685966,4.92778038 10.2685966,4.62579941 L10.2685966,0.547340509 C10.2685966,0.245359538 10.5305973,0 10.8530597,0 C11.1755222,0 11.4375229,0.243643737 11.4375229,0.547340509 Z" id="形状"></path>
            <path d="M14.4652843,5.09734513 L10.7474181,5.09734513 C10.4524026,5.09734513 10.2127024,4.84424779 10.2127024,4.53274336 C10.2127024,4.22123894 10.4524026,3.96814159 10.7474181,3.96814159 L14.4652843,3.96814159 C14.7602999,3.96814159 15,4.22123894 15,4.53274336 C15,4.8460177 14.7602999,5.09734513 14.4652843,5.09734513 L14.4652843,5.09734513 Z M6.77141324,6.34159292 L4.63590305,2.58938053 C4.42805119,2.21769912 4.05090065,2 3.62849204,2 C3.20608343,2 2.82725666,2.21946903 2.61940481,2.58938053 L0.492275737,6.34159292 C-0.33745546,7.79292035 -0.0994315609,9.63185841 1.06386834,10.819469 C1.63546094,11.4017699 2.35791376,11.7504425 3.10383373,11.8619469 L3.10383373,12.7929204 C3.10383373,12.9061947 3.19099741,13 3.29995201,13 L3.94865095,13 C4.05592932,13 4.14476923,12.9079646 4.14476923,12.7929204 L4.14476923,11.8637168 C4.89236542,11.7557522 5.61649446,11.4106195 6.20149686,10.819469 C7.36312054,9.63185841 7.59443954,7.79292035 6.77141324,6.34159292 L6.77141324,6.34159292 Z M5.46731047,10.0247788 C5.10021727,10.3982301 4.64093172,10.6460177 4.14476923,10.7486726 L4.14476923,6.61415929 C4.14476923,6.50088496 4.05760555,6.40707965 3.94865095,6.40707965 L3.29995201,6.40707965 C3.19267363,6.40707965 3.10383373,6.49911504 3.10383373,6.61415929 L3.10383373,10.7486726 C2.60767123,10.6460177 2.15006191,10.3982301 1.78296871,10.0247788 C0.948208839,9.17522124 0.775557701,7.8619469 1.367265,6.82300885 L3.42566886,3.22123894 C3.48936539,3.12035398 3.58323397,3.10442478 3.62513959,3.10442478 C3.66034031,3.10442478 3.76091379,3.11150442 3.82461032,3.22123894 L5.88133796,6.82300885 C6.46634036,7.86017699 6.30207034,9.17522124 5.46731047,10.0247788 Z" id="形状"></path>
            <path d="M3,6.5 C3,6.77614237 3.22385763,7 3.5,7 C3.77614237,7 4,6.77614237 4,6.5 C4,6.22385763 3.77614237,6 3.5,6 C3.22385763,6 3,6.22385763 3,6.5 L3,6.5 Z" id="路径"></path>
            <path d="M3,12.5 C3,12.7761424 3.22385763,13 3.5,13 C3.77614237,13 4,12.7761424 4,12.5 C4,12.2238576 3.77614237,12 3.5,12 C3.22385763,12 3,12.2238576 3,12.5 L3,12.5 Z" id="路径"></path>
            <path d="M0,3.5 C0,3.67863279 0.0952994584,3.8436963 0.249999998,3.9330127 C0.404700537,4.0223291 0.595299463,4.0223291 0.750000002,3.9330127 C0.904700542,3.8436963 1,3.67863279 1,3.5 C1,3.32136721 0.904700542,3.1563037 0.750000002,3.0669873 C0.595299463,2.9776709 0.404700537,2.9776709 0.249999998,3.0669873 C0.0952994584,3.1563037 0,3.32136721 0,3.5 Z" id="路径"></path>
            <path d="M14.6752957,2.8898929 L12.1094622,0.322958501 C11.9019192,0.115461847 11.620732,0 11.3278286,0 L1.10466414,0.00167336011 C0.493751395,0.00167336011 0,0.496987952 0,1.10609103 L0.00167373354,3.55421687 L1.10633787,3.55421687 L1.10633787,2.1937751 C1.10633787,1.58299866 1.60008927,1.08935743 2.21100201,1.08935743 L10.7520643,1.08768407 C11.0449676,1.08768407 11.3261549,1.20314592 11.5320241,1.41064257 L13.6392546,3.51405622 C13.8467976,3.72155288 13.9639589,4.00267738 13.9639589,4.29551539 L13.9606115,12.8145917 C13.9606115,13.4253681 13.4651863,13.9190094 12.8542736,13.9190094 L2.21602321,13.9106426 C1.6067842,13.9106426 1.11303281,13.4170013 1.11303281,12.8062249 L1.11303281,11.7034806 L0.00836866771,11.7034806 L0.0100424012,13.8855422 C0.0100424012,14.4946452 0.503793796,14.9882865 1.11303281,14.9899598 L13.8903147,15 C14.5012274,15 14.9949788,14.5063588 14.9966525,13.8955823 L15,3.67135207 C15,3.37851406 14.8828387,3.09738956 14.6752957,2.8898929 Z" id="路径"></path>
            <path d="M0,11.5 C0,11.6786328 0.095299456,11.8436963 0.249999996,11.9330127 C0.404700537,12.0223291 0.595299463,12.0223291 0.750000004,11.9330127 C0.904700544,11.8436963 1,11.6786328 1,11.5 C1,11.3213672 0.904700542,11.1563037 0.750000002,11.0669873 C0.595299463,10.9776709 0.404700537,10.9776709 0.249999998,11.0669873 C0.0952994584,11.1563037 0,11.3213672 0,11.5 Z" id="路径"></path>
        </g>
    </g>
</svg>