<?xml version="1.0" standalone="no"?><!DOCTYPE svg PUBLIC "-//W3C//DTD SVG 1.1//EN" "http://www.w3.org/Graphics/SVG/1.1/DTD/svg11.dtd"><svg t="1611650556253" class="icon" viewBox="0 0 1024 1024" version="1.1" xmlns="http://www.w3.org/2000/svg" p-id="15329" xmlns:xlink="http://www.w3.org/1999/xlink" width="200" height="200"><defs><style type="text/css"></style></defs><path d="M0 0h1024v1024H0z" fill="#D8D8D8" fill-opacity="0" p-id="15330"></path><path d="M284.788 104.378c23.133-37.702 68.073-60.043 112.035-57.646 63.837 3.002 120.74 60.136 119.017 124.811 2.28 56.11-38.4 110.08-93.09 122.927-0.513 20.69-0.14 41.332-0.327 62.022 34.816 6.33 64.093 27.392 89.368 51.037 16.942-9.821 33.07-20.969 50.804-29.417-4.12-24.902-6.796-51.27 2.676-75.45 12.498-39.634 46.732-72.006 87.273-81.71 45.452-13.452 96.861 3.84 127.581 39.26 37.167 42.357 40.495 109.87 6.912 155.323-22.854 31.348-60.416 51.851-99.328 52.782-35.305 1.07-69.655-14.429-94.883-38.702-18.06 9.239-34.723 21.061-53.248 29.51 9.751 33.861 11.59 70.376-0.233 104.052 18.432 9.192 35.212 22.807 54.691 29.277 14.43-9.565 27.3-21.923 44.195-27.462 49.013-21.248 110.01-4.585 143.314 36.655 41.332 47.15 37.678 125.533-7.68 168.843-43.59 46.15-122.694 49.338-170.217 7.494-38.097-31.279-53.155-85.574-39.796-132.561-18.223-8.728-34.677-20.736-52.946-29.51a169.542 169.542 0 0 1-88.343 51.898c-0.14 20.48-0.326 41.03 0.046 61.533 43.404 10.938 78.965 46.569 89.81 89.972 7.261 30.441 4.585 63.954-11.124 91.439-23.46 43.962-74.31 71.354-123.951 66.048-62.022-5.074-114.409-62.068-112.78-124.51-1.35-57.785 42.752-109.684 97.77-123.6 0.511-20.48 0.837-40.914-0.28-61.324-38.703-5.446-74.24-27.95-97.443-59.16-31.977-43.008-41.472-102.632-21.295-152.738 17.827-51.433 65.35-90.648 119.064-99.142 0.512-20.154 0.419-40.378 0.093-60.556-31.372-9.612-60.602-28.625-78.104-56.855-26.368-39.634-25.576-94.906 0.42-134.54m84.875 10.775a60.928 60.928 0 0 0-35.188 32.117c-17.036 30.254 2.164 71.68 34.001 82.595 19.014 4.119 41.379 4.072 56.902-9.333 22.947-16.663 30.836-50.339 17.222-75.287-12.707-26.461-45.266-39.47-72.937-30.092m299.939 168.774c-33.28 8.402-54.412 47.244-41.332 79.663 12.078 37.376 64 50.571 93.556 25.902 22.668-16.663 28.765-50.292 16.081-74.891-12.567-24.064-41.844-37.609-68.305-30.674M360.657 423.098c-21.922 7.61-41.425 22.691-53.015 42.892-15.43 28.067-15.662 63.953-0.046 91.997 12.52 22.714 35.374 38.144 59.904 45.382 30.999 7.633 64.79-3.258 87.528-25.112 27.02-26.228 34.118-69.469 19.387-103.726-17.734-42.543-70.051-66.28-113.758-51.433m313.88 199.866c-16.57 1.7-30.488 12.66-40.309 25.484-18.432 28.09-9.053 70.074 21.225 85.783 33.815 21.085 83.316-3.025 87.994-42.496 8.681-38.982-30.022-77.312-68.91-68.77M366.639 794.856c-30.674 12.148-49.013 51.968-32.675 81.99a59.252 59.252 0 0 0 58.344 34.955c34.444-0.046 62.441-35.793 56.623-69.283-3.188-16.104-11.776-31.767-25.786-40.82-16.058-11.916-37.935-11.823-56.483-6.842z" fill="#535861" p-id="15331"></path></svg>