<svg width="50" height="50" viewBox="0 0 50 50" fill="none" xmlns="http://www.w3.org/2000/svg">
<g clip-path="url(#clip0_747_20978)">
<path fill-rule="evenodd" clip-rule="evenodd" d="M5.36816 1H9.75682C12.1614 1 14.1301 2.96875 14.125 5.36816V9.75684C14.125 12.1562 12.1614 14.125 9.75682 14.125H5.36816C2.96875 14.125 1 12.1614 1 9.75684V5.36816C1 2.96875 2.96875 1 5.36816 1ZM8.95189 10.895C10.0183 10.895 10.895 10.0183 10.895 8.9519V6.22436C10.895 5.15796 10.0183 4.28125 8.95189 4.28125H6.22435C5.15795 4.28125 4.28124 5.15796 4.28124 6.22436V8.9519C4.28124 10.0183 5.15795 10.895 6.22435 10.895H8.95189Z" fill="#4AAF47"/>
<path fill-rule="evenodd" clip-rule="evenodd" d="M6.25 18.1711V13.4273C6.25 12.8488 6.72179 12.375 7.29781 12.375H8.70219C9.27821 12.375 9.75 12.8488 9.75 13.4273V18.1711C9.75 18.7497 9.27821 19.2235 8.70219 19.2235H7.29781C6.72179 19.2235 6.25 18.7497 6.25 18.1711ZM6.25 39.3227V34.3915C6.25 33.813 6.72179 33.3392 7.29781 33.3392H8.7022C9.27822 33.3392 9.75 33.813 9.75 34.3915V39.3227C9.75 39.9012 9.27822 40.375 8.7022 40.375H7.29781C6.72179 40.375 6.25 39.9012 6.25 39.3227ZM6.25 23.8075V28.7662C6.25 29.3447 6.72179 29.8185 7.29781 29.8185H8.7022C9.27822 29.8185 9.75 29.3447 9.75 28.7662V23.8075C9.75 23.229 9.27822 22.7552 8.7022 22.7552H7.29781C6.72179 22.7552 6.25 23.229 6.25 23.8075Z" fill="#4AAF47"/>
<path fill-rule="evenodd" clip-rule="evenodd" d="M45.3416 1H40.6614C38.0972 1 36.0031 3.10094 36.0031 5.66146V10.3448C36.0031 12.9108 38.1026 15.0063 40.6614 15.0063H45.3416C47.9059 15.0063 50 12.9053 50 10.3448V5.66146C50.0054 3.10094 47.9059 1 45.3416 1ZM5.65833 35.9937H10.3385C12.9028 35.9937 15.0023 38.0892 14.9969 40.6552V45.3385C14.9969 47.8991 12.9028 50 10.3385 50H5.65833C3.09953 50 1 47.9045 1 45.3385V40.6552C1 38.0947 3.09406 35.9937 5.65833 35.9937ZM9.48015 46.5477C10.6174 46.5477 11.5523 45.6121 11.5523 44.4741V41.5634C11.5523 40.4254 10.6174 39.4898 9.48015 39.4898H6.57143C5.43418 39.4898 4.49924 40.4254 4.49924 41.5634V44.4741C4.49924 45.6121 5.43418 46.5477 6.57143 46.5477H9.48015ZM44.4832 11.5594C45.6205 11.5594 46.5554 10.6238 46.5554 9.48582V6.57514C46.5554 5.43713 45.6205 4.50156 44.4832 4.50156H41.5745C40.4373 4.50156 39.5023 5.43713 39.5023 6.57514V9.48582C39.5023 10.6238 40.4373 11.5594 41.5745 11.5594H44.4832ZM45.3307 35.9445H40.6505C38.0862 35.9445 35.9922 38.0454 35.9922 40.606V45.2893C35.9922 47.8553 38.0917 49.9508 40.6505 49.9508H45.3307C47.895 49.9508 49.989 47.8498 49.989 45.2893V40.606C49.9945 38.04 47.895 35.9445 45.3307 35.9445ZM44.4723 46.4984C45.6096 46.4984 46.5445 45.5629 46.5445 44.4249V41.5142C46.5445 40.3762 45.6096 39.4406 44.4723 39.4406H41.5636C40.4264 39.4406 39.4914 40.3762 39.4914 41.5142V44.4249C39.4914 45.5629 40.4264 46.4984 41.5636 46.4984H44.4723Z" fill="#4AAF47"/>
<path fill-rule="evenodd" clip-rule="evenodd" d="M13.5022 7.125H18.2837C18.8446 7.125 19.3041 7.59632 19.3041 8.17176V9.57475C19.3041 10.1502 18.8446 10.6215 18.2837 10.6215H13.5022C12.9413 10.6215 12.4818 10.1502 12.4818 9.57475V8.17176C12.4818 7.59632 12.9413 7.125 13.5022 7.125ZM34.0118 7.125H38.6116C39.1725 7.125 39.632 7.59632 39.632 8.17176V9.57475C39.632 10.1502 39.1725 10.6215 38.6116 10.6215H34.0118C33.4508 10.6215 32.9914 10.1502 32.9914 9.57475V8.17176C32.9914 7.59632 33.4508 7.125 34.0118 7.125ZM28.5465 7.125H23.7383C23.1774 7.125 22.7179 7.59632 22.7179 8.17176V9.57475C22.7179 10.1502 23.1774 10.6215 23.7383 10.6215H28.5465C29.1074 10.6215 29.5669 10.1502 29.5669 9.57475V8.17176C29.5669 7.59632 29.1074 7.125 28.5465 7.125ZM33.9049 42.1285H38.5047C39.0657 42.1285 39.5251 42.5998 39.5251 43.1753V44.5782C39.5251 45.1537 39.0657 45.625 38.5047 45.625H33.9049C33.344 45.625 32.8845 45.1537 32.8845 44.5782V43.1753C32.8845 42.5998 33.344 42.1285 33.9049 42.1285ZM18.1769 42.1285H13.3954C12.8344 42.1285 12.375 42.5998 12.375 43.1753V44.5782C12.375 45.1537 12.8344 45.625 13.3954 45.625H18.1769C18.7378 45.625 19.1973 45.1537 19.1973 44.5782V43.1753C19.1973 42.5998 18.7378 42.1285 18.1769 42.1285ZM23.6315 42.1285H28.4396C29.0006 42.1285 29.46 42.5998 29.46 43.1753V44.5782C29.46 45.1537 29.0006 45.625 28.4396 45.625H23.6315C23.0705 45.625 22.6111 45.1537 22.6111 44.5782V43.1753C22.6111 42.5998 23.0705 42.1285 23.6315 42.1285ZM41.3415 13.5371V18.2557C41.3415 18.8312 41.801 19.3025 42.3619 19.3025H43.7296C44.2905 19.3025 44.75 18.8312 44.75 18.2557V13.5371C44.75 12.9617 44.2905 12.4903 43.7296 12.4903H42.3619C41.801 12.4903 41.3415 12.9617 41.3415 13.5371ZM41.3415 39.2951V34.3901C41.3415 33.8147 41.801 33.3434 42.3619 33.3434H43.7296C44.2905 33.3434 44.75 33.8147 44.75 34.3901V39.2951C44.75 39.8706 44.2905 40.3419 43.7296 40.3419H42.3619C41.801 40.3419 41.3415 39.8706 41.3415 39.2951ZM41.3415 23.8622V28.7946C41.3415 29.3701 41.801 29.8414 42.3619 29.8414H43.7296C44.2905 29.8414 44.75 29.3701 44.75 28.7946V23.8622C44.75 23.2868 44.2905 22.8155 43.7296 22.8155H42.3619C41.801 22.8155 41.3415 23.2868 41.3415 23.8622ZM34.0759 20.3328L34.7864 19.6259C35.0535 19.3518 35.2085 18.9737 35.2085 18.5846C35.2085 18.19 35.0535 17.8173 34.7864 17.5433C34.2201 16.9788 33.3226 16.9788 32.7563 17.5433L32.0725 18.2448C30.3736 16.935 28.2954 16.2225 26.1691 16.239C21.5907 16.228 17.5999 19.445 16.5367 24.0157C15.4736 28.5864 17.6052 33.305 21.6975 35.4204C25.7845 37.5359 30.7582 36.4891 33.7072 32.8995C36.6509 29.3043 36.8058 24.1034 34.0759 20.3328ZM26.1744 33.5133C28.7335 33.5078 31.0895 32.0719 32.3075 29.7592C33.5309 27.4464 33.4134 24.6295 32.0083 22.4318L28.0283 26.5147C27.7718 26.7888 27.4192 26.9422 27.0506 26.9532C26.6713 26.9532 26.3027 26.7888 26.0355 26.5147C25.4853 25.9338 25.4853 25.0131 26.0355 24.4322L30.0156 20.3493C27.5154 18.6668 24.2458 18.7983 21.8898 20.6836C19.5338 22.5688 18.6042 25.7804 19.5766 28.6795C20.5489 31.5732 23.1987 33.5078 26.1744 33.5133Z" fill="#4AAF47"/>
</g>
<defs>
<clipPath id="clip0_747_20978">
<rect width="50" height="50" fill="white"/>
</clipPath>
</defs>
</svg>
