<?xml version="1.0" encoding="UTF-8"?>
<svg width="24px" height="24px" viewBox="0 0 24 24" version="1.1" xmlns="http://www.w3.org/2000/svg" xmlns:xlink="http://www.w3.org/1999/xlink">
    <title>Rf</title>
    <g id="任务管理" stroke="none" stroke-width="1" fill="none" fill-rule="evenodd">
        <g id="JS/java脚本设置" transform="translate(-37.000000, -750.000000)">
            <g id="Rf" transform="translate(37.000000, 750.000000)">
                <rect id="矩形" fill-opacity="0" fill="#D8D8D8" x="0" y="0" width="24" height="24"></rect>
                <path d="M5.464,18 L5.464,13.088 L8.92,13.088 C9.64,13.088 10.184,13.216 10.568,13.504 C10.984,13.792 11.224,14.288 11.288,14.96 L11.432,16.48 C11.48,17.12 11.64,17.616 11.896,18 L13.32,18 C12.984,17.584 12.776,17.024 12.712,16.32 L12.536,14.56 C12.408,13.408 11.8,12.72 10.712,12.48 L10.712,12.448 C11.368,12.288 11.88,11.968 12.264,11.456 C12.616,10.96 12.792,10.4 12.792,9.76 C12.792,8.704 12.44,7.904 11.768,7.36 C11.112,6.832 10.216,6.576 9.08,6.576 L4.152,6.576 L4.152,18 L5.464,18 Z M8.92,11.952 L5.464,11.952 L5.464,7.712 L8.92,7.712 C9.8,7.712 10.456,7.888 10.872,8.24 C11.256,8.576 11.464,9.104 11.464,9.808 C11.464,10.48 11.256,10.992 10.856,11.36 C10.408,11.744 9.752,11.952 8.92,11.952 Z M17.7893333,18 L17.7893333,10.8 L20.1253333,10.8 L20.1253333,9.728 L17.7893333,9.728 L17.7893333,8.816 C17.7893333,8.416 17.8693333,8.128 18.0293333,7.952 C18.1893333,7.76 18.4613333,7.68 18.8133333,7.68 L20.2373333,7.68 L20.2373333,6.576 L18.6533333,6.576 C17.9493333,6.576 17.4053333,6.768 17.0373333,7.168 C16.6853333,7.552 16.5093333,8.08 16.5093333,8.784 L16.5093333,9.728 L14.4293333,9.728 L14.4293333,10.8 L16.5093333,10.8 L16.5093333,18 L17.7893333,18 Z" fill="#2C65FF" fill-rule="nonzero"></path>
            </g>
        </g>
    </g>
</svg>
