<?xml version="1.0" encoding="utf-8"?>
<!-- Generator: Adobe Illustrator 22.0.0, SVG Export Plug-In . SVG Version: 6.00 Build 0)  -->
<svg version="1.1" id="图层_6" xmlns="http://www.w3.org/2000/svg" xmlns:xlink="http://www.w3.org/1999/xlink" x="0px" y="0px"
	 viewBox="0 0 1024 1024" style="enable-background:new 0 0 1024 1024;" xml:space="preserve">
<style type="text/css">
	.st0{fill:#909CA9;}
	.st1{fill:#D64949;}
</style>
<path class="st0" d="M567.1,250.9c-49.6-77.2-71.7-121.3-93.7-132.3s-77.2-5.5-137.8,16.6c-71.7,22.1-115.8,44.1-104.7,77.2
	c11,27.6,52.7,40.6,71.7,44.1c82.7,66.2,82.7,171,0,319.9c-77.2,27.6-137.8,55.1-176.4,82.7c-33.1,27.6-55.1,49.7-55.1,77.2
	c0,82.7,187.4,143.4,363.8,154.4c33.1,0,60.7,5.5,82.7,5.5c11,0,22,0,33.1-5.5c82.7-38.6,88.2-358.5,88.2-358.5v-22.1
	c22-5.5,49.6-11,77.2-16.6c33.1-5.5,137.8-22.1,137.8-22.1c66.1-11,93.7-22.1,99.2-49.7v-11C941.9,355.7,787.6,295,567.1,250.9z
	 M534,295l99.2,16.6c-11,22.1-22,38.6-33.1,60.7l-82.7-16.6C523,333.6,528.5,311.5,534,295z M517.5,504.6
	c-16.5,5.5-44.1,11-60.7,16.6c16.6-33.1,33.1-77.2,49.6-126.9c22,5.5,49.6,11,71.7,16.6C561.6,443.9,539.5,471.5,517.5,504.6z
	 M413.7,384.9c16.5,0,31.6,3.6,45,6.9c-16.6,66.2-20.8,95.6-45,147.4c-5.5,5.5-39.5,15.1-45,15.1
	C396.2,493.6,413.7,434.5,413.7,384.9z M379.7,267.4c24.6,4.8,36.3,5.9,49.2,7.6c21,3.2,37,4.6,61,8.9l-18.8,68.5
	c-22.9-4.6-36.3-5.8-59.4-6.8C405.6,316.5,395.4,292.9,379.7,267.4z M417.1,581.1l50.8-15.8c8.6-2.9,8.5-3.4,22-5.5v77.2
	c-33.1,11-69,26.8-102.1,37.9C398.9,641.7,411.1,609.3,417.1,581.1z M341.1,217.8c-33.1-5.5-55.1-11-60.7-16.5
	c7.6-3.7,3.7-2.3,11-5.5c11-5.5,33.1-16.6,60.7-22.1c22-5.5,42.3-12.9,64.4-15.1c18.3-2.6,18.3-1.4,29.4-1.4
	c11,5.5,27.6,33.1,60.7,88.2c-27.6-5.5-45-9.4-71.7-14.2C415.9,229.4,352.1,217.8,341.1,217.8z M115.1,741.7c0-11,11-27.6,38.6-44.1
	c38.6-27.6,99.2-55.1,170.9-82.7c18.6-7.9,26.5-12.4,46.7-22.7c-6.9,32.6-15.2,64.8-30.2,94.5C280.5,703.1,203.3,725.2,115.1,741.7z
	 M159.2,780.3c49.6-11,99.2-27.6,148.8-38.6c-16.6,27.6-33.1,55.1-49.6,77.2C214.3,807.9,181.3,796.9,159.2,780.3z M418.3,852
	l-115.8-16.6c27.6-38.6,49.6-71.7,66.1-104.8c37.6-10.4,74.4-23.3,110.2-38.6c-0.5,6.4-4.2,15.4-5.5,22.1
	C467.9,741.7,445.9,785.9,418.3,852z M534,846.5c-6.4,3.2-3.2,3.2-16.6,5.5c-16.3,2.8-33.1,5.5-49.6,5.5
	c27.6-55.1,38.6-99.3,49.6-132.3c5.5-16.6,11-38.6,16.6-60.7l11-5.5c11-5.5,27.6-11,38.6-16.6C583.6,719.7,567.1,830,534,846.5z
	 M594.6,587.3c-17.2,11.4-35.7,20.6-55.1,27.6c0-27.6,0-49.7-5.5-71.7c7.7-4.9,11-5.5,11-5.5c12.9-4.6,25.7-6.9,49.6-11L594.6,587.3
	L594.6,587.3z M589.2,482.5c11-22.1,22-38.6,33.1-60.7c33.1,5.5,73.4,14.7,100.9,25.7C684.5,458.6,627.7,471.5,589.2,482.5z
	 M848.2,432.9c-16.5,0-33.1,5.5-49.6,5.5c-48.4-19.9-98.2-36.4-148.8-49.7c11-22.1,16.5-38.6,27.6-60.7
	c55.1,16.5,99.2,27.6,137.8,44.1c33.1,11,60.7,22.1,77.2,33.1c11,5.5,16.6,5.5,16.6,11C903.3,421.8,886.8,427.4,848.2,432.9z"/>
<path class="st1" d="M853.5,471.6c66.1-11,93.7-22.1,99.2-49.7v-11c-11-55.1-165.4-115.8-385.8-159.9l-55.1-5.5l-6.7-2
	c0.4,0.7,0.7,1.2,1.2,2c-27.6-5.5-45-9.4-71.7-14.2c-18.9-1.8-82.7-13.4-93.7-13.4c-4.8-0.8-8.9-1.6-13.3-2.4l-23.5,42.8
	c80.6,66.3,80.2,170.4-1.8,318.1c-0.3,0.1-0.6,0.2-0.9,0.4l12.4,42.5c3.6-1.4,6.9-2.8,10.6-4.3c18.6-7.9,26.5-12.4,46.7-22.7
	l166.5-51c4.5-2.5,7.3-3.5,7.3-3.5c7.8-2.8,16-4.8,26.2-6.8l67.5-20.7c22-5.5,49.6-11,77.2-16.6
	C748.8,488.2,853.5,471.6,853.5,471.6z M677.1,328.2c55.1,16.5,99.2,27.6,137.8,44.1c33.1,11,60.7,22.1,77.2,33.1
	c11,5.5,16.6,5.5,16.6,11c-5.5,5.5-22.1,11.1-60.6,16.6c-16.5,0-33.1,5.5-49.6,5.5c-48.4-19.9-98.2-36.4-148.8-49.7
	C660.6,366.8,666.1,350.2,677.1,328.2z M533.8,295.1l99.2,16.6c-11,22.1-22,38.6-33.1,60.7l-82.7-16.6
	C522.8,333.7,528.3,311.7,533.8,295.1z M428.7,275.2c21,3.2,37,4.6,61,8.9l-18.8,68.5c-22.9-4.6-36.3-5.8-59.3-6.8
	c-6.2-29.3-16.4-52.9-32.1-78.3C404.1,272.3,415.7,273.5,428.7,275.2z M368.5,554.4c27.6-60.7,45-119.7,45-169.3
	c16.5,0,31.6,3.6,45,6.9c-16.6,66.2-20.8,95.6-45,147.4C408,544.8,374,554.4,368.5,554.4z M517.3,504.7c-16.5,5.5-44.1,11-60.7,16.6
	c16.6-33.1,33.1-77.2,49.6-126.9c22,5.5,49.6,11,71.7,16.6C561.4,444,539.3,471.6,517.3,504.7z M589,482.7
	c11-22.1,22-38.6,33.1-60.7c33.1,5.5,73.4,14.7,100.9,25.7C684.3,458.7,627.5,471.6,589,482.7z"/>
</svg>
