<?xml version="1.0" encoding="utf-8"?>
<!-- Generator: Adobe Illustrator 22.0.0, SVG Export Plug-In . SVG Version: 6.00 Build 0)  -->
<svg version="1.1" id="图层_6" xmlns="http://www.w3.org/2000/svg" xmlns:xlink="http://www.w3.org/1999/xlink" x="0px" y="0px"
	 viewBox="0 0 1024 1024" style="enable-background:new 0 0 1024 1024;" xml:space="preserve">
<style type="text/css">
	.st0{fill:#2D8CF0;}
</style>
<g>
	<path class="st0" d="M594.4,417v-59v0c-11.6,0.5-20.7,9.6-21.3,20.9c0,0.4,0,0.7,0,1.1C573,395.2,581.1,409.3,594.4,417z"/>
	<path class="st0" d="M550.2,334.7v37.1c3.8-20.3,20.9-35.5,41.7-37.1H550.2z"/>
	<path class="st0" d="M550.2,390L550.2,390v55.3v0.1h55c-0.1,0-0.3-0.1-0.4-0.1h0.4C576.7,440.6,554.5,418.3,550.2,390z"/>
	<path class="st0" d="M688,308.3c-16.4-54-67.1-93.4-126.9-93.4c-3.6,0-7.3,0-10.9,0.2v0v93.2H688z"/>
	<path class="st0" d="M838.3,110.7H194c-41.6,0-75.6,34-75.6,75.6v644.3c0,41.6,34,75.6,75.6,75.6h644.3c41.6,0,75.6-34,75.6-75.6
		V186.3C913.8,144.7,879.8,110.7,838.3,110.7z M717.6,447.9v9.1v12.4H341.2c18.2,184,186.2,331.2,376.2,331.2v23.3
		c-104.1,0-213.7-43.3-287.3-116.2C356.5,634.9,316,538,316,434.7c0-134.1,110.1-243.3,245.3-243.3c86.1,0,156.1,69.5,156.1,154.8
		c0,50.5-38.1,92.6-87.2,99.2h87.4V447.9z"/>
	<path class="st0" d="M693.2,334.8L693.2,334.8h-70v88c39.5-3.5,70.5-36.4,70.5-76.4c0,0,0,0,0,0v0
		C693.7,342.4,693.5,338.6,693.2,334.8C693.2,334.8,693.2,334.8,693.2,334.8z"/>
	<path class="st0" d="M523.7,445.5V218c-34.4,5.8-66.2,19.6-93.3,39.3c-55.1,40-91,104.7-91,177.5l0,0c0,3.6,0.1,7.1,0.1,10.7H523.7
		z"/>
</g>
</svg>
