<?xml version="1.0" encoding="UTF-8"?><svg version="1.1" width="24px" height="24px" viewBox="0 0 24.0 24.0" xmlns="http://www.w3.org/2000/svg" xmlns:xlink="http://www.w3.org/1999/xlink"><defs><clipPath id="i0"><path d="M1.57300509,0 L1.57300509,6.48008242 C1.57300509,7.41414835 1.77504244,8.10010302 2.20797963,8.55254121 C2.64091681,9.0049794 3.31918506,9.23849588 4.25721562,9.23849588 C5.18081494,9.23849588 5.85908319,9.0049794 6.29202037,8.55254121 C6.71052632,8.10010302 6.92699491,7.41414835 6.92699491,6.48008242 L6.92699491,0 L8.5,0 L8.5,6.45089286 C8.5,7.80820742 8.12478778,8.84443681 7.38879457,9.55958104 C6.65280136,10.2601305 5.61375212,10.625 4.25721562,10.625 C2.88624788,10.625 1.84719864,10.2747253 1.12563667,9.57417582 C0.375212224,8.84443681 0,7.80820742 0,6.45089286 L0,0 L1.57300509,0 Z"></path></clipPath><clipPath id="i1"><path d="M3.67087912,0 C5.46428571,0 6.375,0.980461394 6.375,2.96939736 L6.375,7.4375 L4.88983516,7.4375 L4.88983516,3.09545669 C4.88983516,1.86287665 4.31538462,1.24658663 3.19450549,1.24658663 C2.77417582,1.24658663 2.39587912,1.38665254 2.08763736,1.69479755 C1.75137363,2.03095574 1.54120879,2.49317326 1.48516484,3.08145009 L1.48516484,7.4375 L0,7.4375 L0,0.196092279 L1.48516484,0.196092279 L1.48516484,1.09251412 C1.76538462,0.72834275 2.08763736,0.462217514 2.45192308,0.280131827 C2.81620879,0.084039548 3.22252747,0 3.67087912,0 Z"></path></clipPath></defs><g transform="translate(4.0 7.0)"><g clip-path="url(#i0)"><polygon points="0,0 8.5,0 8.5,10.625 0,10.625 0,0" stroke="none" fill="#2C65FF"></polygon></g><g transform="translate(10.625 3.1875)"><g clip-path="url(#i1)"><polygon points="0,0 6.375,0 6.375,7.4375 0,7.4375 0,0" stroke="none" fill="#2C65FF"></polygon></g></g></g></svg>