<svg width="14" height="15" viewBox="0 0 14 15" fill="none" xmlns="http://www.w3.org/2000/svg">
<path d="M8.73132 14.9544C8.4126 14.9544 8.15576 14.6994 8.15576 14.3829V5.80964C8.15576 5.66829 8.20837 5.53001 8.30429 5.42553L12.0609 1.23724H1.93599L5.6988 5.42861C5.79163 5.53308 5.84423 5.66829 5.84423 5.80964V10.969L6.76018 11.7034C7.00773 11.9031 7.04487 12.2626 6.84682 12.5085C6.64878 12.7543 6.28364 12.7912 6.03609 12.5945L4.90663 11.6819C4.77047 11.5743 4.69311 11.4084 4.69311 11.2363V6.02474L0.221681 1.04365C0.0700551 0.874641 0.032922 0.634959 0.125754 0.429078C0.218587 0.223197 0.425913 0.0910645 0.651805 0.0910645H13.3575C13.5865 0.0910645 13.7907 0.223197 13.8835 0.432151C13.9764 0.638032 13.9361 0.880787 13.7845 1.04672L9.30688 6.02781V14.3829C9.30688 14.6994 9.05005 14.9544 8.73132 14.9544Z" fill="#4E5969"/>
</svg>
