<svg width="24" height="24" viewBox="0 0 24 24" fill="none" xmlns="http://www.w3.org/2000/svg">
<path d="M12.1526 16.8272H20.2514C20.3715 16.8274 20.4904 16.8044 20.6014 16.7594C20.7124 16.7145 20.8133 16.6486 20.8983 16.5654C20.9833 16.4823 21.0508 16.3835 21.0968 16.2748C21.1429 16.166 21.1666 16.0495 21.1667 15.9317V4.69271C21.1658 4.45516 21.0691 4.22761 20.8975 4.0598C20.726 3.89199 20.4937 3.79759 20.2514 3.79724H3.74863C3.62853 3.79706 3.50958 3.82009 3.39857 3.86501C3.28756 3.90992 3.18667 3.97585 3.10166 4.05901C3.01666 4.14218 2.94921 4.24095 2.90316 4.34968C2.85712 4.45842 2.83339 4.57498 2.83333 4.69271V15.9317C2.83418 16.1693 2.93094 16.3968 3.10246 16.5647C3.27398 16.7325 3.5063 16.8269 3.74863 16.8272H6.95833V19.5231L12.1526 16.8272ZM12.6018 18.6245L6.72825 21.8011C5.84275 22.28 5.125 21.8644 5.125 20.8728V18.6245H3.75275C3.02271 18.6243 2.32261 18.34 1.8064 17.8339C1.29018 17.3279 1.00012 16.6416 1 15.9259V4.69855C0.99982 4.34412 1.0709 3.99314 1.20917 3.66565C1.34745 3.33817 1.55021 3.04061 1.80586 2.78999C2.06151 2.53937 2.36504 2.34061 2.6991 2.20505C3.03316 2.0695 3.3912 1.99982 3.75275 2H20.2472C20.9773 2.00012 21.6774 2.28447 22.1936 2.79052C22.7098 3.29657 22.9999 3.98289 23 4.69855V15.9259C23.0002 16.2803 22.9291 16.6313 22.7908 16.9588C22.6526 17.2863 22.4498 17.5838 22.1941 17.8345C21.9385 18.0851 21.635 18.2838 21.3009 18.4194C20.9668 18.555 20.6088 18.6246 20.2472 18.6245H12.6018ZM6.95833 11.8848C6.77775 11.8848 6.59893 11.85 6.43209 11.7823C6.26525 11.7145 6.11365 11.6152 5.98595 11.4901C5.85826 11.3649 5.75696 11.2163 5.68785 11.0528C5.61874 10.8892 5.58317 10.7139 5.58317 10.5369C5.58317 10.3599 5.61874 10.1846 5.68785 10.021C5.75696 9.85747 5.85826 9.70886 5.98595 9.5837C6.11365 9.45853 6.26525 9.35924 6.43209 9.29151C6.59893 9.22378 6.77775 9.18893 6.95833 9.18895C7.32298 9.189 7.67267 9.33103 7.9305 9.58381C8.18832 9.83659 8.33317 10.1794 8.33317 10.5369C8.33317 10.8943 8.18832 11.2372 7.9305 11.49C7.67267 11.7427 7.32298 11.8848 6.95833 11.8848ZM12 11.8848C11.8194 11.8848 11.6406 11.85 11.4738 11.7823C11.3069 11.7145 11.1553 11.6152 11.0276 11.4901C10.8999 11.3649 10.7986 11.2163 10.7295 11.0528C10.6604 10.8892 10.6248 10.7139 10.6248 10.5369C10.6248 10.3599 10.6604 10.1846 10.7295 10.021C10.7986 9.85747 10.8999 9.70886 11.0276 9.5837C11.1553 9.45853 11.3069 9.35924 11.4738 9.29151C11.6406 9.22378 11.8194 9.18893 12 9.18895C12.3646 9.189 12.7143 9.33103 12.9722 9.58381C13.23 9.83659 13.3748 10.1794 13.3748 10.5369C13.3748 10.8943 13.23 11.2372 12.9722 11.49C12.7143 11.7427 12.3646 11.8848 12 11.8848ZM17.0417 11.8848C16.8611 11.8848 16.6823 11.85 16.5154 11.7823C16.3486 11.7145 16.197 11.6152 16.0693 11.4901C15.9416 11.3649 15.8403 11.2163 15.7712 11.0528C15.7021 10.8892 15.6665 10.7139 15.6665 10.5369C15.6665 10.3599 15.7021 10.1846 15.7712 10.021C15.8403 9.85747 15.9416 9.70886 16.0693 9.5837C16.197 9.45853 16.3486 9.35924 16.5154 9.29151C16.6823 9.22378 16.8611 9.18893 17.0417 9.18895C17.4063 9.189 17.756 9.33103 18.0138 9.58381C18.2717 9.83659 18.4165 10.1794 18.4165 10.5369C18.4165 10.8943 18.2717 11.2372 18.0138 11.49C17.756 11.7427 17.4063 11.8848 17.0417 11.8848Z" fill="#2C65FF"/>
</svg>
