<?xml version="1.0" standalone="no"?><!DOCTYPE svg PUBLIC "-//W3C//DTD SVG 1.1//EN" "http://www.w3.org/Graphics/SVG/1.1/DTD/svg11.dtd"><svg t="1634129702684" class="icon" viewBox="0 0 1109 1024" version="1.1" xmlns="http://www.w3.org/2000/svg" p-id="4944" xmlns:xlink="http://www.w3.org/1999/xlink" width="216.6015625" height="200"><defs><style type="text/css"></style></defs><path d="M1108.317376 984.953126v0.085255c0 27.707934-17.477312 38.961619-46.208309 38.961619H46.208309C17.477312 1024 0 1012.746316 0 985.038381v-0.085255s0-182.446091 138.369162-248.689368c87.471818-41.94555 53.710765-7.928732 161.21755-50.812089 107.42153-42.883357 132.998085-57.888269 132.998085-57.888269l0.937807-98.810757s-40.240446-29.668804-52.772958-122.596952c-25.150279 6.990925-33.505287-28.475231-34.954625-51.15311-1.364083-21.740072-14.578636-89.944218 16.198485-83.805845-6.308884-45.526268-10.827408-86.619266-8.610774-108.274082 7.672966-76.388644 83.976355-156.187495 201.543253-161.984847 138.369162 5.797352 193.188244 85.510948 200.775955 161.899592 2.30189 21.740072-2.642911 62.83307-8.951794 108.274082 30.691866-6.053118 17.392057 61.980518 15.857464 83.805845-1.278828 22.592623-9.804346 57.973524-34.954625 50.982599-12.532512 92.928149-52.858213 122.426442-52.858214 122.426442l1.023063 98.299226s25.4913 13.98185 132.91283 56.865207 73.745733 10.827408 161.302805 52.858213C1108.317376 802.507035 1108.317376 984.867871 1108.317376 984.867871z" fill="#84AFFF" p-id="4945"></path></svg>