<?xml version="1.0" encoding="UTF-8"?>
<svg width="13px" height="13px" viewBox="0 0 13 13" version="1.1" xmlns="http://www.w3.org/2000/svg" xmlns:xlink="http://www.w3.org/1999/xlink">
    <title>形状</title>
    <g id="缓存管理" stroke="none" stroke-width="1" fill="none" fill-rule="evenodd" fill-opacity="0.65">
        <g id="缓存管理-查看" transform="translate(-1152.000000, -261.000000)" fill="#000000" fill-rule="nonzero">
            <path d="M1158.09375,266.84375 L1158.09375,264.1875 L1159.15625,264.1875 L1159.15625,266.84375 L1161.8125,266.84375 L1161.8125,267.90625 L1159.15625,267.90625 L1159.15625,270.5625 L1158.09375,270.5625 L1158.09375,267.90625 L1155.4375,267.90625 L1155.4375,266.84375 L1158.09375,266.84375 L1158.09375,266.84375 Z M1153.3125,261 L1163.9375,261 C1164.5243,261 1165,261.475697 1165,262.0625 L1165,272.6875 C1165,272.969293 1164.88806,273.239544 1164.6888,273.438801 C1164.48954,273.638058 1164.21929,273.75 1163.9375,273.75 L1153.3125,273.75 C1153.03071,273.75 1152.76046,273.638058 1152.5612,273.438801 C1152.36194,273.239544 1152.25,272.969293 1152.25,272.6875 L1152.25,262.0625 C1152.25,261.475697 1152.7257,261 1153.3125,261 Z M1153.17847,261.954814 L1153.17847,272.821535 L1164.04519,272.821535 L1164.04519,261.954814 L1153.17847,261.954814 Z" id="形状"></path>
        </g>
    </g>
</svg>