<?xml version="1.0" encoding="UTF-8"?>
<svg width="16px" height="16px" viewBox="0 0 16 16" version="1.1" xmlns="http://www.w3.org/2000/svg" xmlns:xlink="http://www.w3.org/1999/xlink">
    <title>编组 9</title>
    <g id="数据管道" stroke="none" stroke-width="1" fill="none" fill-rule="evenodd">
        <g id="数据复制-点击名称（全量+增量）" transform="translate(-1152.000000, -784.000000)" fill-rule="nonzero">
            <g id="编组-9" transform="translate(1152.766205, 784.938991)">
                <g id="shichang" fill="#000000" fill-opacity="0.65">
                    <path d="M7.25,0 C3.24593556,0 0,3.24593556 0,7.25 C0,11.2540644 3.24593556,14.5 7.25,14.5 C11.2540644,14.5 14.5,11.2540644 14.5,7.25 C14.5,3.24593556 11.2540644,0 7.25,0 Z M7.25,13.5706818 C3.75918382,13.5706818 0.929318182,10.7408162 0.929318182,7.25 C0.929318182,3.75918382 3.75918382,0.929318182 7.25,0.929318182 C10.7408162,0.929318182 13.5706818,3.75918382 13.5706818,7.25 C13.5706818,8.92634905 12.9047548,10.5340392 11.719397,11.719397 C10.5340392,12.9047548 8.92634905,13.5706818 7.25,13.5706818 Z" id="形状"></path>
                </g>
                <path d="M9.77496553,3.55062195 C9.77496553,3.33085692 9.62845551,3.18434688 9.40869048,3.18434688 L5.15989984,3.18434688 C4.94013482,3.18434688 4.79362479,3.3308569 4.79362479,3.55062195 L4.79362479,5.2354872 C4.79362479,6.07791983 5.23315486,6.81046993 5.92907746,7.25 C5.26978236,7.68953007 4.79362479,8.42208017 4.79362479,9.2645128 L4.79362479,10.9493781 C4.79362479,11.1691431 4.94013482,11.3156531 5.15989984,11.3156531 L9.44531799,11.3156531 C9.66508302,11.3156531 9.81159304,11.1691431 9.81159304,10.9493781 L9.81159304,9.2645128 C9.81159304,8.42208017 9.37206297,7.68953007 8.67614038,7.25 C9.33543548,6.81046993 9.77496555,6.07791983 9.77496553,5.2354872 L9.77496553,3.55062195 Z M8.97149399,10.5063298 L5.63372384,10.5063298 L5.63372384,9.26756973 C5.63372384,8.4073197 6.32192388,7.71911966 7.18217391,7.71911966 L7.42304392,7.71911966 C8.28329395,7.71911966 8.97149399,8.4073197 8.97149399,9.26756973 L8.97149399,10.5063298 L8.97149399,10.5063298 Z M8.93486648,5.13406519 C8.93486648,5.99431523 8.24666644,6.68251526 7.38641641,6.68251526 L7.1455464,6.68251526 C6.28529637,6.68251526 5.59709634,5.99431523 5.59709634,5.13406519 L5.59709634,3.89530515 L8.93486648,3.89530515 L8.93486648,5.13406519 L8.93486648,5.13406519 Z" id="形状" fill="#4E5969"></path>
            </g>
        </g>
    </g>
</svg>