<?xml version="1.0" standalone="no"?><!DOCTYPE svg PUBLIC "-//W3C//DTD SVG 1.1//EN" "http://www.w3.org/Graphics/SVG/1.1/DTD/svg11.dtd"><svg class="icon" width="200px" height="200.00px" viewBox="0 0 1024 1024" version="1.1" xmlns="http://www.w3.org/2000/svg"><path d="M754.102857 721.188571c8.630857-8.777143 22.820571-8.777143 31.524572 0l158.061714 158.061715a22.381714 22.381714 0 1 1-31.597714 31.597714l-157.988572-157.988571a22.381714 22.381714 0 0 1 0-31.670858zM81.188571 48.347429c8.777143-8.777143 22.893714-8.777143 31.597715 0l158.061714 158.061714a22.381714 22.381714 0 0 1-31.597714 31.597714l-157.988572-157.988571a22.381714 22.381714 0 0 1 0-31.670857z" fill="#010101" fill-opacity=".5" /><path d="M323.949714 504.32L537.161143 291.108571l165.449143 165.449143-213.211429 213.211429z" fill="#9B9B9B" /><path d="M351.378286 531.236571a73.142857 73.142857 0 0 1-103.424 0l-72.265143-72.265142-3.437714-3.876572-5.997715-5.558857c-70.948571-70.948571-63.341714-194.56 15.286857-281.6l9.362286-9.874286C278.235429 70.729143 408.722286 59.757714 482.377143 133.412571l5.632 5.851429a61.001143 61.001143 0 0 1 3.803428 3.584l72.265143 72.265143a73.142857 73.142857 0 0 1 0 103.424L351.378286 531.236571zM678.107429 432.566857a73.142857 73.142857 0 0 1 103.424 0l72.338285 72.338286 3.437715 3.803428 5.924571 5.558858c70.948571 70.948571 63.341714 194.56-15.213714 281.6l-9.435429 9.874285c-87.259429 87.332571-217.746286 98.377143-291.474286 24.649143a162.011429 162.011429 0 0 1-5.558857-5.851428 61.001143 61.001143 0 0 1-3.803428-3.510858l-72.338286-72.338285a73.142857 73.142857 0 0 1 0-103.424l212.699429-212.699429z" fill="#666666" /></svg>