<svg width="21" height="20" viewBox="0 0 21 20" fill="none" xmlns="http://www.w3.org/2000/svg">
<path d="M3.84619 9C4.23864 8.8659 4.6535 8.79404 5.08262 8.79404H5.6936C6.28419 6.08912 8.36718 4.09047 10.8462 4.09047C13.3252 4.09047 15.4082 6.08912 15.9988 8.79404H16.6097C17.0389 8.79404 17.4537 8.8659 17.8462 9C17.2944 5.0296 14.3705 2 10.8462 2C7.32189 2 4.39791 5.0296 3.84619 9Z" fill="#3B47E5"/>
<path d="M2.51318 11.2497C2.51318 9.63884 3.81902 8.33301 5.42985 8.33301H6.67985V14.1663H5.42985C3.81902 14.1663 2.51318 12.8605 2.51318 11.2497Z" fill="#3B47E5"/>
<path d="M19.1795 11.2497C19.1795 9.63884 17.8737 8.33301 16.2629 8.33301H15.0129V14.1663H16.0545V14.9997C16.0545 15.575 15.5882 16.0413 15.0129 16.0413H13.225C12.9778 15.4305 12.379 14.9997 11.6795 14.9997H10.0129C9.0924 14.9997 8.34619 15.7459 8.34619 16.6663C8.34619 17.5868 9.0924 18.333 10.0129 18.333H11.6795C12.379 18.333 12.9778 17.9021 13.225 17.2913H15.0129C16.2785 17.2913 17.3045 16.2653 17.3045 14.9997V13.9748C18.4009 13.5555 19.1795 12.4935 19.1795 11.2497Z" fill="#3B47E5"/>
</svg>
