<?xml version="1.0" encoding="UTF-8"?><svg version="1.1" width="25px" height="24px" viewBox="0 0 25.0 24.0" xmlns="http://www.w3.org/2000/svg" xmlns:xlink="http://www.w3.org/1999/xlink"><defs><clipPath id="i0"><path d="M10.6838922,0 C12.4485981,0 13.8768554,1.50608696 13.8768554,3.36695652 C13.8768554,5.06086957 12.6893898,6.44521739 11.148983,6.68521739 L11.148983,9.98956522 C12.3694338,10.1217391 13.4414513,10.7478261 14.1902144,11.6834783 L16.3375481,10.7478261 C16.100055,9.73217391 16.3045629,8.61913043 16.9939527,7.76347826 C18.1352391,6.34434783 20.1473337,6.17043478 21.4931281,7.37391304 C22.8389225,8.5773913 23.0038483,10.6991304 21.8625618,12.1182609 C20.7212754,13.5373913 18.7091809,13.7113043 17.3633865,12.5078261 C17.0830126,12.2608696 16.8686091,11.9652174 16.6937878,11.6521739 L14.7212754,12.5113043 C15.0709181,13.1930435 15.2853216,13.9617391 15.2853216,14.7930435 C15.2853216,15.5234783 15.1203958,16.2086957 14.846619,16.8313043 L18.2242991,18.6643478 C18.8048378,17.8191304 19.7416163,17.2626087 20.8070368,17.2626087 C22.5717427,17.2626087 24,18.7721739 24,20.6330435 C24,22.493913 22.5717427,24 20.8070368,24 C19.042331,24 17.6140737,22.493913 17.6140737,20.6330435 C17.6140737,20.2469565 17.6899395,19.8852174 17.8020891,19.5408696 L14.3650357,17.6765217 C13.5272128,18.866087 12.1946124,19.6486957 10.6805937,19.6486957 C9.6415613,19.6486957 8.69158879,19.2730435 7.91973612,18.6573913 L6.21440352,19.5826087 C6.31335899,19.906087 6.3793293,20.2469565 6.3793293,20.6052174 C6.3793293,22.4626087 4.95766905,23.9721739 3.19296317,23.9721739 C1.42825728,23.9721739 0,22.466087 0,20.6052174 C0,18.7443478 1.42825728,17.2382609 3.19296317,17.2382609 C4.28147334,17.2382609 5.2413414,17.8156522 5.81858164,18.6956522 L7.20725673,17.9408696 C6.51456844,17.0921739 6.08246289,16 6.08246289,14.7930435 C6.08246289,12.2817391 7.89994502,10.24 10.2188015,9.98956522 L10.2188015,6.68521739 C8.67839472,6.44521739 7.49092908,5.0573913 7.49092908,3.36695652 C7.49092908,1.50608696 8.91918637,0 10.6838922,0 Z"></path></clipPath></defs><g transform="translate(0.6000000000000227 0.0)"><g clip-path="url(#i0)"><polygon points="0,0 24,0 24,24 0,24 0,0" stroke="none" fill="#2C65FF"></polygon></g></g></svg>