<?xml version="1.0" standalone="no"?><!DOCTYPE svg PUBLIC "-//W3C//DTD SVG 1.1//EN" "http://www.w3.org/Graphics/SVG/1.1/DTD/svg11.dtd"><svg class="icon" width="200px" height="200.00px" viewBox="0 0 1024 1024" version="1.1" xmlns="http://www.w3.org/2000/svg"><path fill="#333333" d="M476.180894 51.767136C212.313484 59.357375 0.895478 274.101441 0.895478 537.798284c0 268.984426 218.837678 486.116432 489.527775 486.116432 265.658366 0 481.852253-209.968185 489.527776-471.874073a13.815941 13.815941 0 0 0-13.901225-14.242359H504.324477a13.901224 13.901224 0 0 1-13.901224-13.81594V65.497793A13.815941 13.815941 0 0 0 476.180894 51.767136z m423.432998 559.460315a413.625385 413.625385 0 0 1-115.132839 218.240693 415.331057 415.331057 0 0 1-293.801949 120.846839 415.331057 415.331057 0 0 1-382.838011-252.012992 407.484967 407.484967 0 0 1-32.663613-160.58899c0-55.775464 11.086866-109.845257 32.663613-160.674274a414.819355 414.819355 0 0 1 308.556009-245.616723v465.904222c0 7.675523 6.225702 13.815941 13.901224 13.815941h469.315566v0.085284zM533.320896 14.327642V472.471059c0 7.675523 6.225702 13.815941 13.901224 13.81594h461.384193a13.815941 13.815941 0 0 0 13.901224-14.242358C1015.002582 214.914633 806.484218 8.101941 547.648538 0.596985a13.815941 13.815941 0 0 0-14.327642 13.730657z m74.111435 66.180062a414.989923 414.989923 0 0 1 308.641293 245.360873c11.939702 27.973016 20.723911 57.140002 26.011493 86.818689H607.432331V80.507704z" /></svg>