<?xml version="1.0" standalone="no"?><!DOCTYPE svg PUBLIC "-//W3C//DTD SVG 1.1//EN" "http://www.w3.org/Graphics/SVG/1.1/DTD/svg11.dtd"><svg t="1631534304602" class="icon" viewBox="0 0 1024 1024" version="1.1" xmlns="http://www.w3.org/2000/svg" p-id="3621" xmlns:xlink="http://www.w3.org/1999/xlink" width="64" height="64"><defs><style type="text/css"></style></defs><path d="M512 658.213833a328.082299 328.082299 0 0 1-232.787775-96.31841 326.180797 326.180797 0 0 1-70.501858-104.655767A326.400201 326.400201 0 0 1 182.893815 329.107648a328.082299 328.082299 0 0 1 96.31841-232.787775A326.180797 326.180797 0 0 1 383.867992 25.818015 326.400201 326.400201 0 0 1 512 0.001463a328.082299 328.082299 0 0 1 232.787775 96.31841c30.204634 30.204634 53.90028 65.455564 70.501858 104.655767 17.186656 40.589763 25.816552 83.666106 25.816552 128.132008a328.082299 328.082299 0 0 1-96.31841 232.787775A328.082299 328.082299 0 0 1 512 658.213833z m0-598.168775A269.355129 269.355129 0 0 0 243.083679 329.107648 269.281994 269.281994 0 0 0 512 598.023969 269.281994 269.281994 0 0 0 780.916321 329.107648 269.355129 269.355129 0 0 0 512 60.045058z" fill="#000000" fill-opacity=".6" p-id="3622"></path><path d="M66.46336 1023.887373a29.253883 29.253883 0 0 1-9.507512-1.462695 28.449401 28.449401 0 0 1-18.79562-36.347949c16.455309-47.171887 40.370359-91.418385 71.086936-131.642475a490.441351 490.441351 0 0 1 108.093098-103.705015A508.798162 508.798162 0 0 1 512 658.213833c106.776673 0 208.653321 31.959867 294.659738 92.515406a492.489123 492.489123 0 0 1 108.093098 103.77815c30.716577 40.224089 54.631627 84.470588 71.086936 131.642474a28.376267 28.376267 0 0 1-18.79562 36.201681 29.98523 29.98523 0 0 1-37.664374-18.064273C869.189913 831.543091 701.418893 715.551444 512 715.551444c-189.418893 0-357.189913 115.991647-417.379778 288.882096A29.765826 29.765826 0 0 1 66.46336 1023.887373z" fill="#000000" fill-opacity=".6" p-id="3623"></path></svg>