<svg width="47" height="45" viewBox="0 0 47 45" fill="none" xmlns="http://www.w3.org/2000/svg">
<g clip-path="url(#clip0_322_1787)">
<path d="M42.2749 7.50011H41.6846V4.87222C41.6846 2.32799 39.6759 0.256836 37.2084 0.256836H9.7917C7.3242 0.256836 5.31551 2.32799 5.31551 4.87222V7.50011H4.72521C2.25771 7.50011 0.249023 9.57126 0.249023 12.1155V40.3847C0.249023 42.929 2.25771 45.0001 4.72521 45.0001H42.2749C44.7424 45.0001 46.751 42.929 46.751 40.3847V12.1155C46.751 9.57126 44.7424 7.50011 42.2749 7.50011ZM7.55361 4.87222C7.55361 3.60011 8.55795 2.56453 9.7917 2.56453H37.2084C38.4421 2.56453 39.4465 3.60011 39.4465 4.87222V7.50011H7.55361V4.87222ZM44.513 40.3847C44.513 41.6568 43.5086 42.6924 42.2749 42.6924H4.72521C3.49146 42.6924 2.48712 41.6568 2.48712 40.3847V12.1155C2.48712 10.8434 3.49146 9.8078 4.72521 9.8078H42.2749C43.5086 9.8078 44.513 10.8434 44.513 12.1155V40.3847Z" fill="#2C65FF"/>
<path d="M15.1463 41.599C14.3602 41.599 13.658 41.1144 13.3559 40.3615C13.2047 39.9908 13.1642 39.582 13.2395 39.1874C13.3147 38.7928 13.5023 38.4303 13.7783 38.1461L15.345 36.5307L13.7503 34.8865L12.1837 36.5019C11.9086 36.7863 11.5575 36.9797 11.1752 37.0573C10.793 37.1349 10.397 37.0932 10.0379 36.9375C9.67799 36.7828 9.37101 36.5209 9.15622 36.1854C8.94143 35.8498 8.82858 35.4558 8.83211 35.0538C8.8461 33.3403 9.50074 31.7278 10.6757 30.5163C12.3823 28.7567 14.8918 28.1769 17.1354 28.9557L25.9004 19.9182C25.1842 17.6942 25.6794 15.1817 27.2348 13.4452C28.421 12.124 30.0996 11.3625 31.8397 11.3567H31.8453C32.6315 11.3567 33.3337 11.8413 33.6358 12.5942C33.9435 13.3586 33.7785 14.2269 33.2134 14.8096L31.6467 16.425L33.2413 18.0692L34.808 16.4538C35.0831 16.1694 35.4342 15.976 35.8164 15.8984C36.1987 15.8208 36.5947 15.8625 36.9538 16.0182C37.3137 16.1726 37.6206 16.4345 37.835 16.7701C38.0493 17.1058 38.1614 17.5 38.1568 17.9019C38.1468 19.6059 37.4842 21.2369 36.3131 22.4394C34.6094 24.199 32.0943 24.7788 29.8534 24L21.0941 33.0375C21.8103 35.2615 21.3151 37.774 19.7596 39.5105C19.1717 40.1653 18.4596 40.6885 17.6675 41.0478C16.8754 41.4071 16.0201 41.5947 15.1547 41.599H15.1463ZM13.7503 32.4605C14.2539 32.4605 14.7547 32.6567 15.1379 33.0519L17.1243 35.1C17.888 35.8875 17.888 37.1711 17.1243 37.9586L15.9073 39.2134C16.7494 39.0461 17.5159 38.6105 18.1146 37.9413C19.2365 36.6923 19.4994 34.8115 18.7721 33.2625L18.4251 32.524L29.3666 21.2423L30.0856 21.6028C31.6439 22.3875 33.5127 22.0702 34.7381 20.8067C35.3172 20.2096 35.7004 19.4596 35.8543 18.6461L34.6346 19.9038C34.2653 20.2846 33.7729 20.4952 33.2469 20.4952C32.721 20.4952 32.2314 20.2846 31.8593 19.9038L29.873 17.8557C29.6904 17.6682 29.5457 17.4452 29.4472 17.1996C29.3488 16.954 29.2986 16.6907 29.2995 16.425C29.2991 16.1593 29.3496 15.8962 29.448 15.6507C29.5464 15.4051 29.6908 15.1821 29.873 14.9942L31.09 13.7394C30.2479 13.9067 29.4813 14.3423 28.8798 15.0115C27.758 16.2605 27.495 18.1413 28.2224 19.6903L28.5693 20.4288L17.6278 31.7105L16.9088 31.3471C16.1494 30.9643 15.2931 30.8353 14.4591 30.978C13.6252 31.1207 12.8552 31.528 12.2564 32.1432C11.6835 32.7324 11.2947 33.4849 11.1401 34.3038L12.3571 33.049C12.7295 32.6733 13.2293 32.4622 13.7503 32.4605Z" fill="#2C65FF"/>
</g>
<defs>
<clipPath id="clip0_322_1787">
<rect width="47" height="45" fill="white"/>
</clipPath>
</defs>
</svg>
