<svg width="17" height="16" viewBox="0 0 17 16" fill="none" xmlns="http://www.w3.org/2000/svg">
<g clip-path="url(#clip0_10762_1413)">
<path d="M6.57134 10.8464L7.06422 10.7623L6.9933 10.3464H6.57134V10.8464ZM8.67848 14.1284V14.6284H10.2936L8.96097 13.7159L8.67848 14.1284ZM6.56282 9.20522V9.70522H6.9893L7.05656 9.28408L6.56282 9.20522ZM8.60458 5.92317L8.89445 6.33058L10.1698 5.42317H8.60458V5.92317ZM2.29397 1.5H13.2341V0.5H2.29397V1.5ZM1.69995 2.09402C1.69995 1.80642 1.77151 1.68255 1.82701 1.62706C1.88251 1.57156 2.00637 1.5 2.29397 1.5V0.5C1.85222 0.5 1.42908 0.610775 1.1199 0.919951C0.810726 1.22913 0.699951 1.65227 0.699951 2.09402H1.69995ZM1.69995 3.18803V2.09402H0.699951V3.18803H1.69995ZM2.29397 3.78205C2.00637 3.78205 1.88251 3.71049 1.82701 3.65499C1.77151 3.5995 1.69995 3.47563 1.69995 3.18803H0.699951C0.699951 3.62978 0.810726 4.05292 1.1199 4.3621C1.42908 4.67128 1.85222 4.78205 2.29397 4.78205V3.78205ZM13.2341 3.78205H2.29397V4.78205H13.2341V3.78205ZM13.8282 3.18803C13.8282 3.47563 13.7566 3.5995 13.7011 3.65499C13.6456 3.71049 13.5217 3.78205 13.2341 3.78205V4.78205C13.6759 4.78205 14.099 4.67128 14.4082 4.3621C14.7174 4.05292 14.8282 3.62978 14.8282 3.18803H13.8282ZM13.8282 2.09402V3.18803H14.8282V2.09402H13.8282ZM13.2341 1.5C13.5217 1.5 13.6456 1.57156 13.7011 1.62706C13.7566 1.68255 13.8282 1.80642 13.8282 2.09402H14.8282C14.8282 1.65227 14.7174 1.22913 14.4082 0.919951C14.099 0.610775 13.6759 0.5 13.2341 0.5V1.5ZM2.29405 11.3464H6.57134V10.3464H2.29405V11.3464ZM1.70003 11.9404C1.70003 11.6528 1.77159 11.5289 1.82709 11.4734C1.88259 11.4179 2.00645 11.3464 2.29405 11.3464V10.3464C1.8523 10.3464 1.42916 10.4571 1.11998 10.7663C0.810807 11.0755 0.700033 11.4986 0.700033 11.9404H1.70003ZM1.70003 13.0344V11.9404H0.700033V13.0344H1.70003ZM2.29405 13.6284C2.00645 13.6284 1.88259 13.5568 1.82709 13.5014C1.77159 13.4459 1.70003 13.322 1.70003 13.0344H0.700033C0.700033 13.4761 0.810807 13.8993 1.11998 14.2085C1.42916 14.5176 1.8523 14.6284 2.29405 14.6284V13.6284ZM8.67848 13.6284H2.29405V14.6284H8.67848V13.6284ZM8.96097 13.7159C7.97523 13.0409 7.27267 11.9849 7.06422 10.7623L6.07845 10.9304C6.33376 12.4279 7.19353 13.7176 8.39598 14.541L8.96097 13.7159ZM2.29405 9.70522H6.56282V8.70522H2.29405V9.70522ZM0.700033 8.11121C0.700033 8.55295 0.810807 8.9761 1.11998 9.28527C1.42916 9.59445 1.8523 9.70522 2.29405 9.70522V8.70522C2.00645 8.70522 1.88259 8.63366 1.82709 8.57817C1.77159 8.52267 1.70003 8.39881 1.70003 8.11121H0.700033ZM0.700033 7.01719V8.11121H1.70003V7.01719H0.700033ZM2.29405 5.42317C1.8523 5.42317 1.42916 5.53395 1.11998 5.84312C0.810807 6.1523 0.700033 6.57544 0.700033 7.01719H1.70003C1.70003 6.72959 1.77159 6.60573 1.82709 6.55023C1.88259 6.49473 2.00645 6.42317 2.29405 6.42317V5.42317ZM8.60458 5.42317H2.29405V6.42317H8.60458V5.42317ZM7.05656 9.28408C7.25055 8.06956 7.93133 7.01583 8.89445 6.33058L8.31471 5.51577C7.13993 6.35162 6.30668 7.63879 6.06908 9.12636L7.05656 9.28408Z" fill="currentColor"/>
<path d="M15.7188 9.99998C15.7188 12.0538 14.0538 13.7187 12 13.7187C9.94619 13.7187 8.28125 12.0538 8.28125 9.99998C8.28125 7.94618 9.94619 6.28125 12 6.28125C14.0538 6.28125 15.7188 7.94618 15.7188 9.99998Z" stroke="currentColor" stroke-width="0.562499" fill="none"/>
<path fill-rule="evenodd" clip-rule="evenodd" d="M12.5 7.7777C12.5 7.53224 12.301 7.33325 12.0555 7.33325C11.8101 7.33325 11.6111 7.53224 11.6111 7.7777V10.6726L11.0456 10.1395C10.867 9.97109 10.5774 9.97109 10.3988 10.1395C10.2202 10.3079 10.2202 10.5809 10.3988 10.7492L11.7322 12.0063C11.9108 12.1747 12.2003 12.1747 12.3789 12.0063L13.7123 10.7492C13.8909 10.5809 13.8909 10.3079 13.7123 10.1395C13.5337 9.97109 13.2441 9.97109 13.0655 10.1395L12.5 10.6726V7.7777Z" fill="currentColor"/>
</g>
<defs>
<clipPath id="clip0_10762_1413">
<rect width="16" height="16" fill="white" transform="translate(0.5)"/>
</clipPath>
</defs>
</svg>
