<svg width="24" height="24" viewBox="0 0 24 24" fill="none" xmlns="http://www.w3.org/2000/svg">
<path d="M19.1949 20.8173H4.82773C3.56211 20.8173 2.5332 19.6923 2.5332 18.3118V9.92588C2.5332 9.67041 2.69961 9.36572 2.91758 9.22978C3.22227 9.0376 5.40898 7.60791 5.40898 7.60791L6.22227 8.8501C6.22227 8.8501 4.71523 9.83447 4.0168 10.2868V18.3095C4.0168 18.8626 4.38711 19.3313 4.82773 19.3313H19.1949C19.6355 19.3313 20.0059 18.8626 20.0059 18.3095V10.3876L17.7371 9.0001C17.3879 8.78682 17.2777 8.32979 17.491 7.98057C17.7043 7.63135 18.1613 7.52119 18.5105 7.73447L21.1355 9.33994C21.3559 9.47588 21.4918 9.71494 21.4918 9.97275V18.3095C21.4895 19.6923 20.4605 20.8173 19.1949 20.8173Z" fill="#2C65FF"/>
<path d="M11.6441 17.1024C11.4847 17.1024 11.323 17.0508 11.1917 16.9477L2.83391 10.5C2.50813 10.2492 2.44954 9.78284 2.70032 9.4594C2.9511 9.13362 3.41751 9.07502 3.74094 9.32581L11.6652 15.4383L20.2011 9.44299C20.5363 9.20627 21.0003 9.28831 21.2347 9.62346C21.4714 9.95862 21.3894 10.4227 21.0542 10.6571L12.0706 16.9688C11.9417 17.0578 11.7917 17.1024 11.6441 17.1024Z" fill="#2C65FF"/>
<path d="M17.9555 12.4546C17.5453 12.4546 17.2125 12.1218 17.2125 11.7116V4.76006C17.2031 4.73897 17.1211 4.66865 16.9852 4.66865H7.03594C6.9 4.66865 6.81562 4.73896 6.80625 4.76709V11.5593C6.80625 11.9694 6.47344 12.3022 6.06328 12.3022C5.65313 12.3022 5.32031 11.9694 5.32031 11.5593V4.7624C5.32031 3.89287 6.08906 3.18506 7.03359 3.18506H16.9828C17.9273 3.18506 18.6961 3.89287 18.6961 4.7624V11.7163C18.6984 12.1218 18.3656 12.4546 17.9555 12.4546Z" fill="#2C65FF"/>
<path d="M14.916 7.78818H9.1082C8.69805 7.78818 8.36523 7.45537 8.36523 7.04522C8.36523 6.63506 8.69805 6.30225 9.1082 6.30225H14.9137C15.3238 6.30225 15.6566 6.63506 15.6566 7.04522C15.6566 7.45537 15.3238 7.78818 14.916 7.78818Z" fill="#2C65FF"/>
<path d="M14.916 10.3102H9.1082C8.69805 10.3102 8.36523 9.97734 8.36523 9.56719C8.36523 9.15703 8.69805 8.82422 9.1082 8.82422H14.9137C15.3238 8.82422 15.6566 9.15703 15.6566 9.56719C15.6566 9.97969 15.3238 10.3102 14.916 10.3102Z" fill="#2C65FF"/>
</svg>
