<!-- Generated by IcoMoon.io -->
<svg version="1.1" xmlns="http://www.w3.org/2000/svg" width="32" height="32" viewBox="0 0 32 32">
<title>zhankai2</title>
<path d="M27.475 28.45h-22.375c-1.075 0-1.6-0.6-1.6-1.775s0.525-1.775 1.6-1.775h22.375c1.075 0 1.6 0.6 1.6 1.775-0.025 1.175-0.55 1.775-1.6 1.775zM15.6 21.325h-10.6c-1 0-1.525-0.6-1.525-1.775s0.5-1.775 1.525-1.775h10.6c1 0 1.525 0.6 1.525 1.775 0 1.2-0.5 1.775-1.525 1.775zM28.025 17.025l-6.95 4.175c-0.475 0.275-1.075 0.125-1.35-0.35-0.1-0.15-0.15-0.325-0.15-0.5v-8.35c0-0.55 0.45-0.975 0.975-0.975 0.175 0 0.35 0.050 0.5 0.15l6.975 4.15c0.475 0.275 0.625 0.875 0.35 1.35-0.1 0.15-0.225 0.25-0.35 0.35zM15.6 14.225h-10.6c-1 0-1.525-0.6-1.525-1.775s0.5-1.775 1.525-1.775h10.6c1 0 1.525 0.6 1.525 1.775s-0.5 1.775-1.525 1.775zM27.475 7.1h-22.375c-1.075 0-1.6-0.6-1.6-1.775s0.525-1.775 1.6-1.775h22.375c1.075 0 1.6 0.6 1.6 1.775-0.025 1.2-0.55 1.775-1.6 1.775z"></path>
</svg>
