<svg width="25" height="27" viewBox="0 0 25 27" fill="none" xmlns="http://www.w3.org/2000/svg">
<path d="M24.934 12.8504C24.934 5.93636 19.6374 0.298639 13.0074 0.0391732C12.8496 0.0333497 12.6919 0.0307617 12.531 0.0307617C12.3701 0.0307617 12.2124 0.0336733 12.0546 0.0391732C5.42462 0.298639 0.128021 5.93636 0.128021 12.8504C0.128021 19.7644 5.42462 25.4021 12.0546 25.6616C12.2124 25.6674 12.3701 25.67 12.531 25.67C12.6919 25.67 12.8496 25.6671 13.0074 25.6616C13.4481 25.6445 13.8816 25.5992 14.3091 25.5348C15.3032 26.3782 16.574 26.8855 17.9575 26.8855C21.1338 26.8855 23.7176 24.2145 23.7176 20.9317C23.7176 20.2578 23.6037 19.6124 23.4031 19.008C24.3749 17.1791 24.934 15.0834 24.934 12.8504ZM12.5341 2.9965C13.6418 4.48827 15.5502 7.60025 15.8688 11.6847H9.19378C9.51241 7.61772 11.4264 4.49442 12.5341 2.9965ZM9.96063 2.69951C8.7008 4.66621 7.18963 7.78045 6.9336 11.6847H2.44861C2.91091 7.33205 5.95516 3.78331 9.96063 2.69951ZM2.44861 14.0157H6.93328C7.18963 17.9171 8.69767 21.0317 9.95781 22.9984C5.95234 21.9175 2.91091 18.3684 2.44861 14.0157ZM12.1973 20.9314C12.1973 21.4949 12.2784 22.0385 12.4208 22.5555C11.3015 21.0129 9.50239 17.9734 9.19378 14.0157H15.8685C15.8294 14.5146 15.7627 14.996 15.6798 15.4648C13.6337 16.3794 12.1973 18.4846 12.1973 20.9314ZM17.9575 25.5047C15.518 25.5047 13.5332 23.4529 13.5332 20.9314C13.5332 20.229 13.6916 19.5661 13.9664 18.9708L15.5755 24.2135H17.0285L17.8986 20.668H17.9184L18.8279 24.2135H20.2712L21.8828 18.9307H20.4396L19.5003 22.5069H19.4802L18.6101 18.9307H17.246L16.3959 22.5173H16.3759L15.4366 18.9307H13.9846C14.7042 17.4101 16.2119 16.358 17.9569 16.358C20.3964 16.358 22.3814 18.4098 22.3814 20.9314C22.3814 23.4529 20.397 25.5047 17.9575 25.5047ZM21.973 16.6709C20.952 15.6424 19.5654 15.0028 18.0354 14.9814C18.0742 14.6644 18.108 14.3441 18.1296 14.0154H22.6143C22.5154 14.9442 22.291 15.832 21.973 16.6709ZM18.1293 11.6851C17.873 7.78077 16.3618 4.66621 15.1023 2.69983C19.1078 3.78364 22.152 7.33237 22.6143 11.6851H18.1293Z" fill="#2C65FF"/>
</svg>
