<?xml version="1.0" standalone="no"?><!DOCTYPE svg PUBLIC "-//W3C//DTD SVG 1.1//EN" "http://www.w3.org/Graphics/SVG/1.1/DTD/svg11.dtd"><svg t="1634110378145" class="icon" viewBox="0 0 1024 1024" version="1.1" xmlns="http://www.w3.org/2000/svg" p-id="3159" xmlns:xlink="http://www.w3.org/1999/xlink" width="200" height="200"><defs><style type="text/css"></style></defs><path d="M816.19181 1023.99936H144.00023C82.176269 1023.99936 32.0003 974.399391 32.0003 913.279429V174.719891C32.0003 113.663929 82.176269 63.99996 144.00023 63.99996h522.687673a37.119977 37.119977 0 0 1 37.311977 36.927977 37.119977 37.119977 0 0 1-37.311977 36.927977H144.00023c-20.479987 0-37.311977 16.63999-37.311977 36.927977v738.431538c0 20.479987 16.831989 36.927977 37.311977 36.927977h671.99958a37.119977 37.119977 0 0 0 37.311977-36.927977V322.239799c0-20.479987 16.63999-36.927977 37.375976-36.927977a37.119977 37.119977 0 0 1 37.311977 36.927977v590.78363A111.42393 111.42393 0 0 1 816.19181 1023.99936z" fill="#8a8a8a" fill-opacity=".45" p-id="3160"></path><path d="M581.631956 447.99972a37.247977 37.247977 0 0 1-26.559983-11.071993 37.375977 37.375977 0 0 1 0-53.119967L927.93574 11.135993c14.719991-14.719991 38.271976-14.719991 52.991967 0 14.719991 14.719991 14.719991 38.271976 0 53.055967L608.06394 437.119727a37.439977 37.439977 0 0 1-26.431984 10.879993zM440.000045 447.99972h-239.99985C177.856209 447.99972 160.00022 433.727729 160.00022 415.99974s17.855989-31.99998 39.999975-31.99998h239.99985c22.143986 0 39.999975 14.271991 39.999975 31.99998s-17.855989 31.99998-39.999975 31.99998zM635.647923 639.9996h-439.039726C176.25621 639.9996 160.00022 625.727609 160.00022 607.99962s16.31999-31.99998 36.543977-31.99998H635.519923c20.223987 0 36.543977 14.271991 36.543977 31.99998s-16.31999 31.99998-36.351977 31.99998z" fill="#8a8a8a" fill-opacity=".45" p-id="3161"></path></svg>