<!-- Generated by IcoMoon.io -->
<svg version="1.1" xmlns="http://www.w3.org/2000/svg" width="1024" height="1024" viewBox="0 0 1024 1024">
<title>shangyibu</title>
<g id="icomoon-ignore">
</g>
<path d="M368.896 192h-144.896c-17.673 0-32 14.327-32 32v0 137.888c0 17.673 14.327 32 32 32s32-14.327 32-32v0-105.888h112.896c17.673 0 32-14.327 32-32s-14.327-32-32-32v0zM784.864 192h-144.864c-17.673 0-32 14.327-32 32s14.327 32 32 32v0h112.864v105.888c0 17.673 14.327 32 32 32s32-14.327 32-32v0-137.888c0-17.673-14.327-32-32-32v0zM368.896 777.92h-112.896v-105.92c0-17.673-14.327-32-32-32s-32 14.327-32 32v0 137.92c0 17.673 14.327 32 32 32v0h144.896c17.673 0 32-14.327 32-32s-14.327-32-32-32v0zM784.864 640c-17.673 0-32 14.327-32 32v0 105.92h-112.864c-17.673 0-32 14.327-32 32s14.327 32 32 32v0h144.864c17.673 0 32-14.327 32-32v0-137.92c0-17.673-14.327-32-32-32v0zM912 48h-800c-35.296 0-64 28.704-64 64v800c0 35.296 28.704 64 64 64h800c35.296 0 64-28.704 64-64v-800c0-35.296-28.704-64-64-64zM112 912v-800h800l0.064 800h-800.064z"></path>
</svg>
