<?xml version="1.0" standalone="no"?><!DOCTYPE svg PUBLIC "-//W3C//DTD SVG 1.1//EN" "http://www.w3.org/Graphics/SVG/1.1/DTD/svg11.dtd"><svg t="1650087066585" class="icon" viewBox="0 0 1024 1024" version="1.1" xmlns="http://www.w3.org/2000/svg" p-id="3024" width="16" height="16" xmlns:xlink="http://www.w3.org/1999/xlink"><defs><style type="text/css">@font-face { font-family: feedback-iconfont; src: url("//at.alicdn.com/t/font_1031158_u69w8yhxdu.woff2?t=1630033759944") format("woff2"), url("//at.alicdn.com/t/font_1031158_u69w8yhxdu.woff?t=1630033759944") format("woff"), url("//at.alicdn.com/t/font_1031158_u69w8yhxdu.ttf?t=1630033759944") format("truetype"); }
</style></defs><path d="M270.942442 214.183052A365.793474 365.793474 0 1 1 572.26439 867.085174a366.134593 366.134593 0 0 1-431.402065-224.342718 73.454331 73.454331 0 0 0-114.388633-30.928139c-26.379884 20.467151-32.292616 57.762849-20.012326 88.690988A512.019899 512.019899 0 0 0 988.429797 434.318633 511.451367 511.451367 0 0 0 178.840261 100.36295L135.177006 46.466118a31.496672 31.496672 0 0 0-54.57907 10.574695L14.761933 267.85247a40.934302 40.934302 0 0 0 42.867311 52.759768l220.021875-20.467151a31.610378 31.610378 0 0 0 21.604215-51.167878l-28.312892-34.794157z" fill="#2C65FF" p-id="3025"></path></svg>