<?xml version="1.0" encoding="UTF-8"?>
<svg width="15px" height="12px" viewBox="0 0 15 12" version="1.1" xmlns="http://www.w3.org/2000/svg" xmlns:xlink="http://www.w3.org/1999/xlink">
    <title>anzhuangmulu</title>
    <g id="agent管理" stroke="none" stroke-width="1" fill="none" fill-rule="evenodd" fill-opacity="0.6">
        <g id="实例详情" transform="translate(-1149.000000, -687.000000)" fill="#000000" fill-rule="nonzero">
            <g id="anzhuangmulu" transform="translate(1149.888413, 687.500000)">
                <path d="M13.1624348,2.27528172 C13.1263369,2.2417051 13.0870719,2.21170364 13.0451895,2.18569751 L9.50142685,0.0820402748 C9.37820927,0.00801542915 9.22905942,0 9.16996528,0 L4.14413404,0 C4.0840969,0 3.93164658,0.00832975971 3.80748601,0.0851835804 L0.400928623,2.18381153 L0.397942483,2.18569751 C0.356156449,2.21164224 0.316994838,2.24159245 0.281011516,2.27512456 C0.11255211,2.33636923 0.000299865411,2.49633495 0,2.67558168 L0,10.5734512 C0.000259850277,10.8089187 0.191079119,10.9997379 0.426546563,11 L13.0165854,11 C13.2514819,11.0004326 13.442352,10.8105471 13.443132,10.5756515 L13.443132,2.67558168 C13.4428144,2.49647318 13.3307164,2.33661103 13.1624348,2.27528172 L13.1624348,2.27528172 Z M4.18028205,0.827160855 L9.13601758,0.827160855 L11.5309021,2.24903512 L1.87230995,2.24903512 L4.18028205,0.827160855 Z M12.6153425,10.1726798 L0.827946682,10.1726798 L0.827946682,3.07635314 L12.6153425,3.07635314 L12.6153425,10.1726798 Z" id="形状"></path>
                <polygon id="路径" points="9.23047391 6.6065996 8.61800083 6.05039169 7.1353036 7.68286742 7.1353036 4.06130794 6.30798558 4.06130794 6.30798558 7.68286742 4.82528835 6.05039169 4.21281526 6.6065996 6.72164459 9.36862219 9.23047391 6.6065996"></polygon>
            </g>
        </g>
    </g>
</svg>