<svg width="27" height="27" viewBox="0 0 27 27" fill="none" xmlns="http://www.w3.org/2000/svg">
<path d="M26.9156 12.8346C26.9156 10.3034 25.3106 8.15376 23.0708 7.30809C22.3479 3.21015 18.7811 0.0825195 14.4799 0.0825195C11.0608 0.0825195 8.12494 2.073 6.68864 4.93792C3.02217 5.1105 0.0843811 8.12307 0.0843811 11.8317C0.0843811 15.2681 2.60796 18.1062 5.89475 18.645V18.831C5.89475 22.8772 8.84212 26.5245 12.871 26.885C13.9347 26.982 15.007 26.8563 16.0194 26.5159C17.0318 26.1755 17.9622 25.628 18.7513 24.9082C19.5404 24.1883 20.1709 23.312 20.6026 22.335C21.0343 21.358 21.2578 20.3018 21.2587 19.2337V18.7313C22.779 18.6647 24.2153 18.0148 25.2688 16.9166C26.3223 15.8184 26.9122 14.3565 26.9156 12.8346ZM7.81236 18.9499V12.4761C7.81236 12.2218 7.91338 11.9779 8.09319 11.7981C8.273 11.6183 8.51688 11.5173 8.77117 11.5173H18.1119L8.37998 21.5272C8.01284 20.7172 7.81948 19.8392 7.81236 18.9499ZM12.4798 24.8984C11.3104 24.67 10.248 24.0644 9.45576 23.1744L19.3391 13.0053V19.2356C19.3379 20.0852 19.1493 20.924 18.7866 21.6922C18.4239 22.4604 17.8962 23.1392 17.2411 23.68C16.586 24.2208 15.8196 24.6105 14.9966 24.8211C14.1736 25.0317 13.3142 25.0581 12.4798 24.8984ZM21.2568 16.7926V11.5153C21.2568 11.0067 21.0547 10.519 20.6951 10.1594C20.3355 9.79975 19.8477 9.59772 19.3391 9.59772H7.81236C7.30378 9.59772 6.81603 9.79975 6.45641 10.1594C6.09678 10.519 5.89475 11.0067 5.89475 11.5153V16.6871C4.79529 16.4346 3.81375 15.8172 3.11001 14.9355C2.40627 14.0538 2.02181 12.9598 2.01925 11.8317C2.02059 11.0956 2.18466 10.3689 2.4997 9.70366C2.81475 9.03839 3.27298 8.45099 3.8416 7.98353C4.41021 7.51607 5.07515 7.1801 5.78879 6.99968C6.50244 6.81926 7.24715 6.79885 7.96961 6.93991C8.1537 6.30518 8.41066 5.70304 8.76158 5.16036C9.37532 4.19926 10.2208 3.40789 11.2204 2.85901C12.22 2.31014 13.3415 2.02139 14.4818 2.01931C17.5673 2.01931 20.1503 4.09608 20.9825 6.91498C21.1628 7.5267 21.2894 8.15951 21.2894 8.82876C21.2894 8.84601 21.2836 8.86135 21.2836 8.87861C22.2866 8.94579 23.2266 9.39195 23.9128 10.1266C24.599 10.8612 24.9801 11.8294 24.9788 12.8346C24.9761 13.8434 24.5901 14.8134 23.899 15.5483C23.2079 16.2831 22.2634 16.7279 21.2568 16.7926Z" fill="#2C65FF"/>
</svg>
