<svg width="16" height="16" viewBox="0 0 16 16" fill="none" xmlns="http://www.w3.org/2000/svg">
<path d="M15.0945 0.905579C14.5105 0.321594 13.7314 0 12.9007 0C12.07 0 11.2909 0.321594 10.7069 0.905579L6.28141 5.33108C5.69742 5.91503 5.37582 6.69413 5.37582 7.52484C5.37582 8.35554 5.69742 9.13464 6.28137 9.71859C6.73171 10.1689 7.30208 10.4656 7.93077 10.5766C7.96204 10.5821 7.99315 10.5848 8.02382 10.5848C8.27709 10.5848 8.50156 10.4032 8.54706 10.1451C8.59811 9.85581 8.40497 9.57988 8.11564 9.52884C7.70303 9.45605 7.32892 9.26152 7.0337 8.9663C6.65065 8.58325 6.43974 8.07135 6.43974 7.52484C6.43974 6.97833 6.65065 6.46642 7.0337 6.08338L7.3149 5.80218C7.31017 5.82206 7.30641 5.84237 7.30393 5.86316C7.26926 6.15491 7.47764 6.4195 7.7694 6.4542C8.22783 6.50867 8.64173 6.70906 8.96635 7.03368C9.34937 7.4167 9.56032 7.92863 9.56032 8.47515C9.56032 9.02166 9.34937 9.5336 8.96635 9.91661L4.54082 14.3421C4.15777 14.7251 3.64587 14.9361 3.09936 14.9361C2.55284 14.9361 2.04094 14.7251 1.65789 14.3421C1.27484 13.959 1.06393 13.4471 1.06393 12.9006C1.06393 12.3541 1.27484 11.8422 1.65789 11.4592L4.66121 8.45583C4.86896 8.24811 4.86896 7.91126 4.66121 7.70354C4.45348 7.49582 4.11663 7.49582 3.90891 7.70354L0.905581 10.7069C0.321595 11.2908 0 12.0699 0 12.9006C0 13.7313 0.321595 14.5104 0.905581 15.0944C1.48953 15.6784 2.26863 16 3.09934 16C3.93004 16 4.70915 15.6784 5.2931 15.0944L9.71865 10.6689C10.3026 10.0849 10.6242 9.30583 10.6242 8.47513C10.6242 7.64442 10.3026 6.86532 9.71865 6.28138C9.23059 5.79329 8.58292 5.47948 7.89497 5.39769C7.83083 5.39009 7.76804 5.39421 7.7087 5.40835L11.4592 1.65787C11.8422 1.27482 12.3541 1.06391 12.9007 1.06391C13.4472 1.06391 13.9591 1.27482 14.3421 1.65787C14.7252 2.04092 14.9361 2.55282 14.9361 3.09933C14.9361 3.64584 14.7252 4.15775 14.3421 4.54079L11.6801 7.20283C11.4724 7.41055 11.4724 7.7474 11.6801 7.95512C11.8878 8.16284 12.2247 8.16284 12.4324 7.95512L15.0944 5.29308C15.6784 4.70914 16 3.93004 16 3.09933C16 2.26863 15.6784 1.48953 15.0945 0.905579Z" fill="#4E5969"/>
</svg>
