<?xml version="1.0" encoding="UTF-8"?>
<svg width="14px" height="15px" viewBox="0 0 14 15" version="1.1" xmlns="http://www.w3.org/2000/svg" xmlns:xlink="http://www.w3.org/1999/xlink">
    <title>agentID</title>
    <g id="agent管理" stroke="none" stroke-width="1" fill="none" fill-rule="evenodd">
        <g id="实例详情" transform="translate(-1151.000000, -280.000000)" fill="#666666">
            <g id="agentID" transform="translate(1151.011908, 280.397523)">
                <path d="M12.9888657,0 C13.5411504,-1.01453063e-16 13.9888657,0.44771525 13.9888657,1 L13.9888657,13.091863 C13.9888657,13.6441477 13.5411504,14.091863 12.9888657,14.091863 L1,14.091863 C0.44771525,14.091863 6.76353751e-17,13.6441477 0,13.091863 L0,1 C-1.78657678e-16,0.44771525 0.44771525,1.01453063e-16 1,0 L12.9888657,0 Z M12.9763264,0.988983095 L1.01253927,0.988983095 L1.01253927,13.1053004 L12.9763264,13.1053004 L12.9763264,0.988983095 Z" id="形状结合"></path>
                <rect id="矩形" x="0.995129671" y="4.46946676" width="11.9986063" height="1.00024921"></rect>
                <rect id="矩形" x="0.995129671" y="8.60568763" width="11.9986063" height="1.00024921"></rect>
                <path d="M3.13436101,2.1440013 C3.5480427,2.1440013 3.88339798,2.47935658 3.88339798,2.89303827 C3.88339798,3.30671997 3.5480427,3.64207524 3.13436101,3.64207524 C2.72067931,3.64207524 2.38532404,3.30671997 2.38532404,2.89303827 C2.38532404,2.47935658 2.72067931,2.1440013 3.13436101,2.1440013 Z M3.13436101,2.64046657 C2.99486951,2.64046657 2.8817893,2.75354677 2.8817893,2.89303827 C2.8817893,3.03252977 2.99486951,3.14560998 3.13436101,3.14560998 C3.27385251,3.14560998 3.38693271,3.03252977 3.38693271,2.89303827 C3.38693271,2.75354677 3.27385251,2.64046657 3.13436101,2.64046657 Z" id="形状结合"></path>
                <path d="M3.13436101,6.29710749 C3.5480427,6.29710749 3.88339798,6.63246276 3.88339798,7.04614445 C3.88339798,7.45982615 3.5480427,7.79518142 3.13436101,7.79518142 C2.72067931,7.79518142 2.38532404,7.45982615 2.38532404,7.04614445 C2.38532404,6.63246276 2.72067931,6.29710749 3.13436101,6.29710749 Z M3.13436101,6.79357275 C2.99486951,6.79357275 2.8817893,6.90665295 2.8817893,7.04614445 C2.8817893,7.18563595 2.99486951,7.29871616 3.13436101,7.29871616 C3.27385251,7.29871616 3.38693271,7.18563595 3.38693271,7.04614445 C3.38693271,6.90665295 3.27385251,6.79357275 3.13436101,6.79357275 Z" id="形状结合"></path>
                <path d="M3.13436101,10.4333284 C3.5480427,10.4333284 3.88339798,10.7686836 3.88339798,11.1823653 C3.88339798,11.596047 3.5480427,11.9314023 3.13436101,11.9314023 C2.72067931,11.9314023 2.38532404,11.596047 2.38532404,11.1823653 C2.38532404,10.7686836 2.72067931,10.4333284 3.13436101,10.4333284 Z M3.13436101,10.9297936 C2.99486951,10.9297936 2.8817893,11.0428738 2.8817893,11.1823653 C2.8817893,11.3218568 2.99486951,11.434937 3.13436101,11.434937 C3.27385251,11.434937 3.38693271,11.3218568 3.38693271,11.1823653 C3.38693271,11.0428738 3.27385251,10.9297936 3.13436101,10.9297936 Z" id="形状结合"></path>
            </g>
        </g>
    </g>
</svg>