<?xml version="1.0" encoding="UTF-8"?>
<svg width="13px" height="15px" viewBox="0 0 13 15" version="1.1" xmlns="http://www.w3.org/2000/svg" xmlns:xlink="http://www.w3.org/1999/xlink">
    <title>qingdan</title>
    <g id="DAG复制任务" stroke="none" stroke-width="1" fill="none" fill-rule="evenodd">
        <g id="DAG（任务校验）" transform="translate(-1076.000000, -17.000000)" fill="#4E5969" fill-rule="nonzero">
            <g id="qingdan" transform="translate(1076.000000, 17.000000)">
                <path d="M10.968745,15 L2.03125497,15 C1.49109739,14.9985738 0.973633405,14.7838977 0.592700147,14.4031985 C0.211766889,14.0224992 -0.00143127001,13.506962 0,12.97 L0,3.03 C-0.00143127001,2.49303804 0.211766889,1.97750079 0.592700147,1.59680152 C0.973633405,1.21610226 1.49109739,1.00142619 2.03125497,1 L3.25000362,1 L3.25000362,2.07692307 L2.03125497,2.07692307 C1.50536644,2.08136395 1.08183055,2.50720595 1.08333936,3.03 L1.08333936,12.97 C1.08183055,13.4927941 1.50536644,13.9186361 2.03125497,13.9230769 L10.968745,13.9230769 C11.4946336,13.9186361 11.9181694,13.4927941 11.9166606,12.97 L11.9166606,3.03 C11.9181694,2.50720595 11.4946336,2.08136395 10.968745,2.07692307 L9.70124644,2.07692307 L9.70124644,1 L10.968745,1 C11.5089026,1.00142619 12.0263666,1.21610226 12.4072999,1.59680152 C12.7882331,1.97750079 13.0014313,2.49303804 13,3.03 L13,12.97 C13.0014313,13.506962 12.7882331,14.0224992 12.4072999,14.4031985 C12.0263666,14.7838977 11.5089026,14.9985738 10.968745,15 L10.968745,15 Z" id="路径"></path>
                <path d="M9.31255813,1.02827763 L9.31255813,2.05655527 L3.68744187,2.05655527 L3.68744187,1.02827763 L9.31255813,1.02827763 M9.31255813,0 L3.68744187,0 C3.06610868,0 2.56241862,0.460375578 2.56241862,1.02827763 L2.56241862,2.05655527 C2.56241862,2.32927145 2.68094751,2.5908179 2.89193029,2.78365736 C3.10291308,2.97649683 3.38906715,3.08483291 3.68744187,3.08483291 L9.31255813,3.08483291 C9.61093285,3.08483291 9.89708692,2.97649683 10.1080697,2.78365736 C10.3190525,2.5908179 10.4375814,2.32927145 10.4375814,2.05655527 L10.4375814,1.02827763 C10.4375814,0.460375578 9.93389132,0 9.31255813,0 L9.31255813,0 Z M5.93748837,5.63496144 L2.56241862,5.63496144 C2.25178835,5.63491449 2,5.40474045 2,5.12082262 C2,4.83690479 2.25178835,4.60673075 2.56241862,4.60668381 L5.93748837,4.60668381 C6.24811863,4.60673075 6.49990698,4.83690479 6.49990698,5.12082262 C6.49990698,5.40474045 6.24811863,5.63491449 5.93748837,5.63496144 L5.93748837,5.63496144 Z M10.4375814,8.31362468 L2.56241862,8.31362468 C2.25178835,8.31357773 2,8.0834037 2,7.79948587 C2,7.51556803 2.25178835,7.285394 2.56241862,7.28534705 L10.4375814,7.28534705 C10.7482117,7.285394 11,7.51556803 11,7.79948587 C11,8.0834037 10.7482117,8.31357773 10.4375814,8.31362468 Z M10.4375814,11 L2.56241862,11 C2.25178835,10.9999531 2,10.769779 2,10.4858612 C2,10.2019434 2.25178835,9.97176932 2.56241862,9.97172237 L10.4375814,9.97172237 C10.7482117,9.97176932 11,10.2019434 11,10.4858612 C11,10.769779 10.7482117,10.9999531 10.4375814,11 Z" id="形状"></path>
            </g>
        </g>
    </g>
</svg>
