<?xml version="1.0" standalone="no"?><!DOCTYPE svg PUBLIC "-//W3C//DTD SVG 1.1//EN" "http://www.w3.org/Graphics/SVG/1.1/DTD/svg11.dtd"><svg t="1659603505764" class="icon" viewBox="0 0 1280 1024" version="1.1" xmlns="http://www.w3.org/2000/svg" p-id="3506" xmlns:xlink="http://www.w3.org/1999/xlink" width="250" height="200"><defs><style type="text/css">@font-face { font-family: feedback-iconfont; src: url("//at.alicdn.com/t/font_1031158_u69w8yhxdu.woff2?t=1630033759944") format("woff2"), url("//at.alicdn.com/t/font_1031158_u69w8yhxdu.woff?t=1630033759944") format("woff"), url("//at.alicdn.com/t/font_1031158_u69w8yhxdu.ttf?t=1630033759944") format("truetype"); }
</style></defs><path d="M85.333333 0C34.133333 0 0 34.133333 0 85.333333s34.133333 85.333333 85.333333 85.333334 85.333333-34.133333 85.333334-85.333334-34.133333-85.333333-85.333334-85.333333zM85.333333 426.666667c-51.2 0-85.333333 34.133333-85.333333 85.333333s34.133333 85.333333 85.333333 85.333333 85.333333-34.133333 85.333334-85.333333-34.133333-85.333333-85.333334-85.333333zM85.333333 853.333333c-51.2 0-85.333333 34.133333-85.333333 85.333334s34.133333 85.333333 85.333333 85.333333 85.333333-34.133333 85.333334-85.333333-34.133333-85.333333-85.333334-85.333334zM308.565333 127.317333h918.869334c29.013333 0 52.565333-28.501333 52.565333-63.658666S1256.533333 0 1227.434667 0H308.565333C279.552 0 256 28.501333 256 63.658667s23.552 63.658667 52.565333 63.658666z m918.869334 318.378667H308.565333c-29.013333 0-52.565333 28.501333-52.565333 63.658667s23.466667 63.658667 52.565333 63.658666h918.869334c29.013333 0 52.565333-28.501333 52.565333-63.658666s-23.637333-63.658667-52.565333-63.658667z m0 450.986667H308.565333c-29.013333 0-52.565333 28.501333-52.565333 63.658666s23.552 63.658667 52.565333 63.658667h918.869334c29.013333 0 52.565333-28.501333 52.565333-63.658667s-23.466667-63.658667-52.565333-63.658666z" fill="#4E5969" p-id="3507"></path></svg>