<svg width="12" height="13" viewBox="0 0 12 13" fill="none" xmlns="http://www.w3.org/2000/svg">
<path d="M7.48355 2.43669C7.72283 2.43669 7.93619 2.49285 8.12363 2.60518C8.31106 2.71751 8.47258 2.85577 8.60817 3.01994C8.74376 3.18411 8.84745 3.36125 8.91924 3.55135C8.99102 3.74144 9.02692 3.90994 9.02692 4.05683V11.3799C9.02692 11.6304 8.98105 11.8551 8.88933 12.0538C8.7976 12.2526 8.67796 12.4211 8.53041 12.5593C8.38285 12.6976 8.21734 12.8056 8.03389 12.8834C7.85044 12.9611 7.667 13 7.48355 13H1.58524C1.43369 13 1.26819 12.9525 1.08873 12.8574C0.909268 12.7624 0.74177 12.6371 0.586237 12.4816C0.430704 12.326 0.301092 12.1467 0.197404 11.9437C0.0937146 11.7406 0.0418701 11.5354 0.0418701 11.328V4.10867C0.0418701 3.92722 0.0817505 3.73928 0.161511 3.54487C0.241272 3.35045 0.344961 3.17115 0.472578 3.00698C0.600195 2.8428 0.747752 2.70671 0.91525 2.5987C1.08275 2.49069 1.25822 2.43669 1.44167 2.43669H7.48355ZM6.77766 10.5374C6.98504 10.5374 7.16251 10.4596 7.31007 10.3041C7.45762 10.1486 7.5314 9.95846 7.5314 9.7338C7.5314 9.50914 7.45762 9.31688 7.31007 9.15703C7.16251 8.99718 6.98504 8.91725 6.77766 8.91725H2.29112C2.08374 8.91725 1.90628 8.99718 1.75872 9.15703C1.61116 9.31688 1.53738 9.50914 1.53738 9.7338C1.53738 9.95846 1.61116 10.1486 1.75872 10.3041C1.90628 10.4596 2.08374 10.5374 2.29112 10.5374H6.77766ZM6.77766 7.29711C6.98504 7.29711 7.16251 7.21934 7.31007 7.06381C7.45762 6.90828 7.5314 6.71818 7.5314 6.49352C7.5314 6.26886 7.45762 6.0766 7.31007 5.91675C7.16251 5.7569 6.98504 5.67697 6.77766 5.67697H2.29112C2.08374 5.67697 1.90628 5.7569 1.75872 5.91675C1.61116 6.0766 1.53738 6.26886 1.53738 6.49352C1.53738 6.71818 1.61116 6.90828 1.75872 7.06381C1.90628 7.21934 2.08374 7.29711 2.29112 7.29711H6.77766ZM8.89531 0C9.23828 0 9.55334 0.110169 9.84048 0.330508C10.1276 0.550847 10.3769 0.823031 10.5882 1.14706C10.7996 1.47109 10.9651 1.82104 11.0847 2.19691C11.2044 2.57278 11.2642 2.91625 11.2642 3.22732V10.1097C11.2642 10.2911 11.2144 10.4575 11.1147 10.6087C11.015 10.7599 10.8933 10.8895 10.7497 10.9975C10.6062 11.1055 10.4506 11.1919 10.2831 11.2567C10.1156 11.3215 9.96012 11.3539 9.81655 11.3539H9.76869V3.61615C9.70488 3.01994 9.5334 2.56198 9.25423 2.24227C8.97507 1.92257 8.60418 1.71519 8.14157 1.62014H2.30309C2.31106 1.60286 2.31505 1.57262 2.31505 1.52941C2.31505 1.3566 2.36291 1.17946 2.45862 0.998006C2.55433 0.81655 2.67996 0.652376 2.83549 0.505484C2.99102 0.358591 3.1645 0.23762 3.35593 0.142572C3.54735 0.0475241 3.73878 1.26953e-08 3.93021 1.26953e-08H8.89531V0Z" fill="#4E5969"/>
</svg>
