<?xml version="1.0" encoding="UTF-8"?>
<svg width="17px" height="17px" viewBox="0 0 17 17" version="1.1" xmlns="http://www.w3.org/2000/svg" xmlns:xlink="http://www.w3.org/1999/xlink">
    <title>navigation_general</title>
    <g id="48迭代" stroke="none" stroke-width="1" fill="none" fill-rule="evenodd">
        <g id="用户中心" transform="translate(-968.000000, -27.000000)" fill="#8A8A8A" fill-rule="nonzero">
            <g id="navigation_general" transform="translate(968.000000, 27.000000)">
                <path d="M9.82830357,6.93946429 L8.49598214,5.48553571 L9.22991071,4.75 L12.2513393,8.01035714 L11.1783036,8.01142857 L11.1783036,8.01678571 L4.74973214,8.01678571 L4.74973214,6.94 L9.82830357,6.94 L9.82830357,6.93946429 Z M7.163125,10.1376786 L8.479375,11.5841071 L7.684375,12.25 L4.74866071,9.06678571 L5.98508929,9.06089286 L5.98508929,9.05982143 L12.2497321,9.05982143 L12.2497321,10.1376786 L7.163125,10.1376786 Z M8.5,0 C3.8059082,0 0,3.8059082 0,8.5 C0,13.1940918 3.8059082,17 8.5,17 C13.1940918,17 17,13.1940918 17,8.5 C17,3.8059082 13.1940918,0 8.5,0 Z M13.7772217,13.7772217 C12.3681641,15.1862793 10.4942627,15.9624023 8.5,15.9624023 C6.5057373,15.9624023 4.63183594,15.1862793 3.22277832,13.7772217 C1.8137207,12.3681641 1.03759766,10.4942627 1.03759766,8.5 C1.03759766,6.5057373 1.8137207,4.63183594 3.22277832,3.22277832 C4.63183594,1.8137207 6.5057373,1.03759766 8.5,1.03759766 C10.4921875,1.03759766 12.3660889,1.8137207 13.7772217,3.22277832 C15.1883545,4.63183594 15.9624023,6.5078125 15.9624023,8.5 C15.9624023,10.4942627 15.1862793,12.3681641 13.7772217,13.7772217 Z" id="形状"></path>
            </g>
        </g>
    </g>
</svg>