<?xml version="1.0" standalone="no"?><!DOCTYPE svg PUBLIC "-//W3C//DTD SVG 1.1//EN" "http://www.w3.org/Graphics/SVG/1.1/DTD/svg11.dtd"><svg t="1645155108908" class="icon" viewBox="0 0 1024 1024" version="1.1" xmlns="http://www.w3.org/2000/svg" p-id="1256" xmlns:xlink="http://www.w3.org/1999/xlink" width="200" height="200"><defs><style type="text/css"></style></defs><path d="M512 921.6a410.0608 410.0608 0 0 1-409.6-409.6 410.0608 410.0608 0 0 1 409.6-409.6 410.0608 410.0608 0 0 1 409.6 409.6 410.0608 410.0608 0 0 1-409.6 409.6z m-54.1184-294.0928l-32.5632 69.376a202.2912 202.2912 0 0 0 86.7328 19.9168 205.056 205.056 0 0 0 204.8-204.8 204.8 204.8 0 0 0-204.8-204.8 204.8 204.8 0 0 0-198.3488 153.6h-47.0528a25.1904 25.1904 0 0 0-23.6544 15.8208 25.1904 25.1904 0 0 0 5.5296 27.904l91.8016 91.8016a25.6 25.6 0 0 0 18.1248 7.4752 25.6 25.6 0 0 0 18.1248-7.4752l91.8016-91.8016a25.1904 25.1904 0 0 0 5.5296-27.904A25.1904 25.1904 0 0 0 450.2528 460.8H394.7008A128 128 0 0 1 512 384a128 128 0 0 1 128 128 128 128 0 0 1-128 128 125.7984 125.7984 0 0 1-54.1696-12.4928z" p-id="1257"></path></svg>