<svg width="44" height="45" viewBox="0 0 44 45" fill="none" xmlns="http://www.w3.org/2000/svg">
<g clip-path="url(#clip0_322_1790)">
<path d="M1.32206 43.211C0.995696 43.211 0.677777 43.0689 0.459207 42.8077C0.305677 42.6245 0.214488 42.3962 0.199103 42.1565C0.183719 41.9169 0.244953 41.6786 0.373767 41.4768L6.6631 31.6064C6.68049 31.5788 6.69936 31.5522 6.71923 31.5266C7.33421 30.724 8.26213 30.2534 9.26507 30.2359C10.6609 30.1947 12.7796 31.1861 13.9305 32.8625C14.8262 34.1663 14.9871 35.7127 14.3836 37.2174C14.1869 37.7086 13.8063 38.1058 13.3116 38.3338L1.75075 43.1261C1.61465 43.1823 1.46905 43.2111 1.32206 43.211ZM8.52839 32.8686L4.19178 39.6743L12.325 36.3033C12.6186 35.5173 12.5381 34.8097 12.0787 34.1407C11.3276 33.0473 9.89644 32.4894 9.3212 32.4894H9.3058C9.00428 32.4954 8.72312 32.6325 8.52839 32.8686Z" fill="#2C65FF"/>
<path d="M16.567 44.9743C16.2203 44.9743 15.8885 44.813 15.6729 44.5308C15.4156 44.1923 15.3699 43.7373 15.5552 43.3541L19.8803 34.4279C20.1337 33.7805 19.9916 33.0392 19.5152 32.531L12.9492 25.5374C12.592 25.1582 12.0352 25.0316 11.5504 25.2185L2.43602 29.6411C2.04707 29.8305 1.58211 29.7777 1.24283 29.506C1.07741 29.3735 0.95274 29.1961 0.883418 28.9945C0.814096 28.793 0.802988 28.5757 0.851394 28.368C3.03013 19.0877 11.988 13.9343 13.5845 13.081C26.2193 -2.85481 42.0015 0.322314 42.6697 0.46545C43.1451 0.567403 43.5017 0.964669 43.5529 1.44983C45.6412 21.3387 33.8608 29.1946 31.5127 30.5517C26.2541 43.0402 17.1621 44.8824 16.7742 44.9552C16.7046 44.9677 16.6356 44.9743 16.567 44.9743ZM12.0039 22.8801C12.9626 22.8801 13.9084 23.2688 14.587 23.992L21.1525 30.9861C22.2404 32.1447 22.5528 33.8443 21.9488 35.3153C21.9399 35.3369 21.9309 35.3575 21.9205 35.3786L18.7761 41.868C21.6299 40.5099 26.3813 37.1761 29.5838 29.3272C29.6896 29.0686 29.8868 28.8586 30.1387 28.7376C30.6732 28.4774 43.0899 22.1835 41.3975 2.54017C38.107 2.10725 25.5492 1.4659 15.202 14.6666C15.0993 14.7971 14.9696 14.9034 14.8219 14.978C14.734 15.0221 6.86205 19.0606 3.81947 26.465L10.606 23.1719C10.6264 23.1618 10.6468 23.1528 10.6676 23.1442C11.0988 22.966 11.5528 22.8801 12.0039 22.8801Z" fill="#2C65FF"/>
<path d="M28.3756 21.8618C25.2749 21.8618 22.7524 19.333 22.7524 16.2247C22.7524 13.1164 25.2754 10.5876 28.3756 10.5876C31.4758 10.5876 33.9988 13.1164 33.9988 16.2247C33.9988 19.333 31.4763 21.8618 28.3756 21.8618ZM28.3756 12.8427C26.5153 12.8427 25.0017 14.3599 25.0017 16.2252C25.0017 18.0905 26.5153 19.6077 28.3756 19.6077C30.236 19.6077 31.7496 18.0905 31.7496 16.2252C31.7496 14.3599 30.2365 12.8427 28.3756 12.8427Z" fill="#2C65FF"/>
</g>
<defs>
<clipPath id="clip0_322_1790">
<rect width="44" height="45" fill="white"/>
</clipPath>
</defs>
</svg>
