<!-- Generated by IcoMoon.io -->
<svg version="1.1" xmlns="http://www.w3.org/2000/svg" width="39" height="32" viewBox="0 0 39 32">
<title>shuaxin</title>
<path d="M4.496 14.591v0.894c0 8.041 6.415 14.518 14.378 14.518 2.654 0 5.309-0.67 7.521-2.234 0.442-0.223 0.664-0.67 0.664-1.34 0-0.894-0.664-1.34-1.327-1.34-0.221 0-0.664 0-0.885 0.223-1.77 1.34-3.761 2.011-5.973 2.011-6.415 0-11.724-5.36-11.724-11.837v-0.894h3.097l-4.424-6.7-4.645 6.703h3.318zM32.147 22.855l4.424-6.477h-3.318v-0.894c0-8.041-6.415-14.518-14.378-14.518-2.654 0-5.309 0.67-7.521 2.234-0.442 0-0.885 0.67-0.885 1.117 0 0.894 0.664 1.341 1.327 1.341 0.221 0 0.664 0 0.885-0.223 1.991-1.117 3.982-1.787 6.194-1.787 6.415 0 11.724 5.36 11.724 11.837v0.894h-3.097l4.645 6.477z"></path>
</svg>
