<?xml version="1.0" encoding="UTF-8"?>
<svg width="13px" height="11px" viewBox="0 0 13 11" version="1.1" xmlns="http://www.w3.org/2000/svg" xmlns:xlink="http://www.w3.org/1999/xlink">
    <title>shujuxiaoyan</title>
    <g id="连接管理" stroke="none" stroke-width="1" fill="none" fill-rule="evenodd">
        <g transform="translate(-23.000000, -406.000000)" fill-rule="nonzero" id="shujuxiaoyan">
            <g transform="translate(22.999801, 406.000000)">
                <path d="M0.366776149,8.8 L6.23344283,8.8 C6.47788727,8.8 6.60010949,8.92222222 6.60010949,9.16666666 L6.60010949,10.6333333 C6.60010949,10.8777778 6.47788727,11 6.23344283,11 L0.366776149,11 C0.122331708,11 0.000109487938,10.8777778 0.000109487938,10.6333333 L0.000109487938,9.16666666 C0.000109487938,8.92222222 0.122331708,8.8 0.366776149,8.8 Z" id="路径" fill="#666666"></path>
                <path d="M0.366776149,0 L8.43344283,0 C8.67788727,0 8.80010949,0.12222222 8.80010949,0.366666661 L8.80010949,1.83333334 C8.80010949,2.07777778 8.67788727,2.2 8.43344283,2.2 L0.366776149,2.2 C0.122331708,2.2 0.000109487938,2.07777778 0.000109487938,1.83333334 L0.000109487938,0.366666661 C0.000109487938,0.12222222 0.122331708,0 0.366776149,0 L0.366776149,0 Z" id="路径" fill="#D8D8D8"></path>
                <path d="M11.6234428,3.3 L0.476776149,3.3 C0.348572994,3.30144753 0.226225413,3.35389575 0.136778406,3.44575095 C0.0473313987,3.53760614 -0.00184866749,3.66130363 5.31759865e-05,3.7895 L5.31759865e-05,7.2105 C-0.00184866749,7.33869637 0.0473313987,7.46239386 0.136778406,7.55424905 C0.226225413,7.64610425 0.348572994,7.69855247 0.476776149,7.7 L11.6234428,7.7 C11.751646,7.69855247 11.8739936,7.64610425 11.9634406,7.55424905 C12.0528876,7.46239386 12.1020676,7.33869637 12.1001658,7.2105 L12.1001658,3.7895 C12.1020676,3.66130363 12.0528876,3.53760614 11.9634406,3.44575095 C11.8739936,3.35389575 11.751646,3.30144753 11.6234428,3.3 Z M11.3851095,6.38 L10.8167761,6.96666666 L9.95510949,6.08666666 L9.09710949,6.96666666 L8.52510949,6.38 L9.38310949,5.5 L8.52510949,4.62 L9.09710949,4.03333334 L9.95510949,4.91333334 L10.8167761,4.03333334 L11.3887761,4.62 L10.5271095,5.5 L11.3851095,6.38 Z" id="形状" fill="#666666"></path>
            </g>
        </g>
    </g>
</svg>