<?xml version="1.0" encoding="UTF-8"?>
<svg width="6px" height="10px" viewBox="0 0 6 10" version="1.1" xmlns="http://www.w3.org/2000/svg" xmlns:xlink="http://www.w3.org/1999/xlink">
    <title>tingzhi</title>
    <g id="agent管理" stroke="none" stroke-width="1" fill="none" fill-rule="evenodd">
        <g id="实例详情" transform="translate(-1270.000000, -179.000000)" fill="#FFFFFF" fill-rule="nonzero">
            <g id="分组" transform="translate(1247.000000, 170.000000)">
                <g id="tingzhi" transform="translate(26.000000, 14.000000) scale(-1, 1) translate(-26.000000, -14.000000) translate(23.000000, 9.000000)">
                    <path d="M1.3043498,0.657896096 L1.3043498,9.3421039 C1.3043498,9.70541915 1.01233069,10 0.652174902,10 C0.292019119,10 0,9.70541915 0,9.3421039 L0,0.657896096 C0,0.294580852 0.29201913,0 0.652174913,0 C1.0123307,0 1.3043498,0.294580852 1.3043498,0.657896096 Z M5.3478251,0 C4.98766931,0 4.6956502,0.294580852 4.6956502,0.657896096 L4.6956502,9.3421039 C4.6956502,9.70541915 4.98766931,10 5.3478251,10 C5.70798088,10 6,9.70541915 6,9.3421039 L6,0.657896096 C6,0.294580852 5.70798087,0 5.3478251,0 Z" id="形状"></path>
                </g>
            </g>
        </g>
    </g>
</svg>