<!-- Generated by IcoMoon.io -->
<svg version="1.1" xmlns="http://www.w3.org/2000/svg" width="1024" height="1024" viewBox="0 0 1024 1024">
<title></title>
<g id="icomoon-ignore">
</g>
<path d="M486 571v207q0 24-19 31t-35-7l-61-61-5-7-155 156q-8 8-14 8t-13-8q-25-24-50-50-14-14 0-26l148-147 9-8-16-14-53-53q-16-18-9-35 9-19 32-19h206q35 1 35 33zM888 211q14-13 0-27l-48-48q-8-8-14.5-8t-14.5 8l-145 146q-5 4-7 9-4-4-8-6l-62-63q-15-14-33-6.5t-18 29.5v213q0 13 8.5 21.5t21.5 8.5h213q11-1 19-6 11-9 11.5-22t-9.5-23l-69-69 9-8q73-76 146-149z"></path>
</svg>
