<?xml version="1.0" standalone="no"?><!DOCTYPE svg PUBLIC "-//W3C//DTD SVG 1.1//EN" "http://www.w3.org/Graphics/SVG/1.1/DTD/svg11.dtd"><svg class="icon" width="200px" height="200.00px" viewBox="0 0 1024 1024" version="1.1" xmlns="http://www.w3.org/2000/svg"><path d="M800 160c16.954 0 32.986 6.696 45.145 18.855C857.304 191.014 864 207.046 864 224v576c0 16.954-6.696 32.986-18.855 45.145C832.986 857.304 816.954 864 800 864H224c-16.954 0-32.986-6.696-45.145-18.855C166.696 832.986 160 816.954 160 800V224c0-16.954 6.696-32.986 18.855-45.145C191.014 166.696 207.046 160 224 160h576m0-64H224c-70.4 0-128 57.6-128 128v576c0 70.4 57.6 128 128 128h576c70.4 0 128-57.6 128-128V224c0-70.4-57.6-128-128-128z"  /><path d="M128 288h768v64H128zM128 480h768v64H128zM128 672h768v64H128z"  /><path d="M352 320h64v576h-64zM608 320h64v576h-64z"  /></svg>
