<svg width="14" height="13" viewBox="0 0 14 13" fill="none" xmlns="http://www.w3.org/2000/svg">
<g clip-path="url(#clip0_86_898)">
<path d="M7.05889 5.43594e-05C7.62021 5.43594e-05 8.16892 0.167983 8.63564 0.482605C9.10236 0.797227 9.46613 1.24441 9.68094 1.76761C9.89574 2.29081 9.95195 2.86652 9.84244 3.42194C9.73293 3.97736 9.46263 4.48755 9.06572 4.88799C8.6688 5.28843 8.1631 5.56113 7.61257 5.67161C7.06204 5.78209 6.49139 5.72539 5.9728 5.50867C5.45421 5.29196 5.01096 4.92496 4.69911 4.4541C4.38725 3.98323 4.2208 3.42965 4.2208 2.86334C4.2208 2.10395 4.51982 1.37566 5.05206 0.838692C5.5843 0.301721 6.30618 5.43594e-05 7.05889 5.43594e-05Z" fill="#4E5969"/>
<path d="M11.1619 7.22699C11.7232 7.22699 12.2719 7.39492 12.7387 7.70954C13.2054 8.02416 13.5692 8.47135 13.784 8.99455C13.9988 9.51774 14.055 10.0935 13.9455 10.6489C13.836 11.2043 13.5657 11.7145 13.1687 12.1149C12.7718 12.5154 12.2661 12.7881 11.7156 12.8985C11.1651 13.009 10.5944 12.9523 10.0758 12.7356C9.55724 12.5189 9.11399 12.1519 8.80213 11.681C8.49028 11.2102 8.32383 10.6566 8.32383 10.0903C8.32383 9.71427 8.39724 9.34194 8.53987 8.99455C8.68249 8.64716 8.89155 8.33151 9.15509 8.06563C9.41863 7.79975 9.73149 7.58884 10.0758 7.44495C10.4202 7.30105 10.7892 7.22699 11.1619 7.22699Z" fill="#4E5969"/>
<path d="M2.90068 7.22699C3.462 7.22699 4.01072 7.39492 4.47744 7.70954C4.94416 8.02416 5.30792 8.47135 5.52273 8.99455C5.73754 9.51774 5.79374 10.0935 5.68424 10.6489C5.57473 11.2043 5.30443 11.7145 4.90751 12.1149C4.5106 12.5154 4.0049 12.7881 3.45437 12.8985C2.90383 13.009 2.33319 12.9523 1.8146 12.7356C1.296 12.5189 0.852757 12.1519 0.540905 11.681C0.229052 11.2102 0.0626006 10.6566 0.0626006 10.0903C0.0626006 9.71427 0.13601 9.34194 0.278637 8.99455C0.421264 8.64716 0.630316 8.33151 0.893856 8.06563C1.1574 7.79975 1.47026 7.58884 1.8146 7.44495C2.15893 7.30105 2.52798 7.22699 2.90068 7.22699Z" fill="#4E5969"/>
<path d="M5.21977 10.7006H8.83062C8.99192 10.7006 9.1466 10.6359 9.26066 10.5209C9.37471 10.4058 9.43878 10.2497 9.43878 10.087C9.43878 9.92428 9.37471 9.76822 9.26066 9.65315C9.1466 9.53809 8.99192 9.47344 8.83062 9.47344H5.21977C5.05847 9.47344 4.90378 9.53809 4.78973 9.65315C4.67568 9.76822 4.61161 9.92428 4.61161 10.087C4.61161 10.2497 4.67568 10.4058 4.78973 10.5209C4.90378 10.6359 5.05847 10.7006 5.21977 10.7006V10.7006Z" fill="#4E5969"/>
<path d="M10.0226 8.51465C10.1293 8.51468 10.2342 8.48633 10.3266 8.43245C10.4191 8.37857 10.4958 8.30106 10.5491 8.20774C10.6023 8.11442 10.6303 8.00858 10.6301 7.90089C10.6299 7.7932 10.6016 7.68745 10.5481 7.59431L8.76412 4.47251C8.72418 4.40268 8.67101 4.34147 8.60763 4.29237C8.54425 4.24327 8.4719 4.20725 8.39472 4.18636C8.31754 4.16547 8.23704 4.16012 8.15781 4.17061C8.07858 4.18111 8.00218 4.20725 7.93296 4.24754C7.86375 4.28782 7.80307 4.34147 7.75441 4.40541C7.70574 4.46936 7.67003 4.54235 7.64933 4.62021C7.62862 4.69808 7.62332 4.77929 7.63372 4.85923C7.64413 4.93916 7.67004 5.01624 7.70997 5.08607L9.49391 8.20787C9.54739 8.3015 9.62447 8.37919 9.71732 8.43307C9.81017 8.48695 9.91549 8.51509 10.0226 8.51465V8.51465Z" fill="#4E5969"/>
</g>
<defs>
<clipPath id="clip0_86_898">
<rect width="14" height="13" fill="white" transform="matrix(-1 0 0 1 14 0)"/>
</clipPath>
</defs>
</svg>
