<?xml version="1.0" standalone="no"?><!DOCTYPE svg PUBLIC "-//W3C//DTD SVG 1.1//EN" "http://www.w3.org/Graphics/SVG/1.1/DTD/svg11.dtd"><svg class="icon" width="200px" height="185.17px" viewBox="0 0 1106 1024" version="1.1" xmlns="http://www.w3.org/2000/svg"><path d="M53.376652 0m85.130227 0l255.39068 0q85.130227 0 85.130227 85.130227l0 851.302268q0 85.130227-85.130227 85.130227l-255.39068 0q-85.130227 0-85.130227-85.130227l0-851.302268q0-85.130227 85.130227-85.130227Z" fill="#2C65FF" fill-opacity=".423" /><path d="M649.28824 0m85.130227 0l255.39068 0q85.130227 0 85.130227 85.130227l0 255.39068q0 85.130227-85.130227 85.130227l-255.39068 0q-85.130227 0-85.130227-85.130227l0-255.39068q0-85.130227 85.130227-85.130227Z" fill="#2C65FF" /><path d="M649.28824 595.911588m85.130227 0l255.39068 0q85.130227 0 85.130227 85.130226l0 255.390681q0 85.130227-85.130227 85.130227l-255.39068 0q-85.130227 0-85.130227-85.130227l0-255.390681q0-85.130227 85.130227-85.130226Z" fill="#2C65FF" fill-opacity=".43" /></svg>