<svg width="17" height="16" viewBox="0 0 17 16" fill="none" xmlns="http://www.w3.org/2000/svg">
<path d="M11.5 6.5H5.5C5.36739 6.5 5.24021 6.55268 5.14645 6.64645C5.05268 6.74021 5 6.86739 5 7C5 7.13261 5.05268 7.25979 5.14645 7.35355C5.24021 7.44732 5.36739 7.5 5.5 7.5H11.5C11.6326 7.5 11.7598 7.44732 11.8536 7.35355C11.9473 7.25979 12 7.13261 12 7C12 6.86739 11.9473 6.74021 11.8536 6.64645C11.7598 6.55268 11.6326 6.5 11.5 6.5ZM11.5 9.5H5.5C5.36739 9.5 5.24021 9.55268 5.14645 9.64645C5.05268 9.74021 5 9.86739 5 10C5 10.1326 5.05268 10.2598 5.14645 10.3536C5.24021 10.4473 5.36739 10.5 5.5 10.5H11.5C11.6326 10.5 11.7598 10.4473 11.8536 10.3536C11.9473 10.2598 12 10.1326 12 10C12 9.86739 11.9473 9.74021 11.8536 9.64645C11.7598 9.55268 11.6326 9.5 11.5 9.5Z" fill="white"/>
<path d="M13.5 0.5H3.5C2.673 0.5 2 1.173 2 2V14C2 14.827 2.673 15.5 3.5 15.5H13.5C14.327 15.5 15 14.827 15 14V2C15 1.173 14.327 0.5 13.5 0.5ZM5.5 1.5H11.5V3H5.5V1.5ZM14 14C14 14.1326 13.9473 14.2598 13.8536 14.3536C13.7598 14.4473 13.6326 14.5 13.5 14.5H3.5C3.2245 14.5 3 14.276 3 14V2C3 1.7245 3.2245 1.5 3.5 1.5H4.5V3C4.5 3.5515 4.9485 4 5.5 4H11.5C12.0515 4 12.5 3.5515 12.5 3V1.5H13.5C13.776 1.5 14 1.7245 14 2V14Z" fill="white"/>
</svg>
