<?xml version="1.0" encoding="UTF-8"?>
<svg width="29px" height="29px" viewBox="0 0 29 29" version="1.1" xmlns="http://www.w3.org/2000/svg" xmlns:xlink="http://www.w3.org/1999/xlink">
    <title>Console_icon_arrow1</title>
    <g id="控制台" stroke="none" stroke-width="1" fill="none" fill-rule="evenodd">
        <g id="控制台-新建" transform="translate(-662.000000, -300.000000)">
            <g id="Console_icon_arrow1" transform="translate(662.166667, 300.000000)">
                <circle id="椭圆形" fill="#2C65FF" cx="14.25" cy="14.25" r="14.25"></circle>
                <g id="xiayibu" transform="translate(5.657185, 7.000000)" fill="#FFFFFF" fill-rule="nonzero">
                    <path d="M14.2181934,8.05550833 L8.84236015,13.1268363 C8.68282451,13.2733833 8.59233367,13.4803081 8.59304894,13.6969348 C8.59376422,13.9135614 8.68561956,14.1198842 8.84611947,14.2653744 C9.18284749,14.5795465 9.72687536,14.5779354 10.0614552,14.2621521 L16.7219031,7.97924776 C17.0115334,7.84351633 17.1934243,7.54928719 17.185374,7.22953116 C17.1901315,7.00695867 17.0992038,6.79303401 16.9356475,6.64200254 L10.1457714,0.237725688 C9.80286026,-0.0777940873 9.27583021,-0.079425043 8.93097278,0.233966352 C8.77029505,0.37946692 8.67832323,0.585908551 8.67760783,0.802673946 C8.67689243,1.01943934 8.76749962,1.22648354 8.92721346,1.37304151 L14.3030467,6.44436951 L0.805462609,6.44436951 C0.36060062,6.44442849 0,6.80507693 0,7.24993892 C0,7.69480091 0.36060062,8.05544935 0.805462609,8.05550833 L14.2181934,8.05550833 Z" id="路径"></path>
                </g>
            </g>
        </g>
    </g>
</svg>