<?xml version="1.0" encoding="UTF-8"?>
<svg width="15px" height="12px" viewBox="0 0 15 12" version="1.1" xmlns="http://www.w3.org/2000/svg" xmlns:xlink="http://www.w3.org/1999/xlink">
    <title>Console_icon_data source</title>
    <g id="控制台" stroke="none" stroke-width="1" fill="none" fill-rule="evenodd">
        <g id="控制台-新建" transform="translate(-416.000000, -480.000000)" fill="#2C65FF" fill-rule="nonzero">
            <g id="Console_icon_data-source" transform="translate(416.000000, 480.000000)">
                <path d="M13.6551136,8.33333333 C14.5029545,8.71133333 15,9.171 15,9.66666667 C15,10.9553333 11.6420455,12 7.5,12 C3.35795454,12 0,10.9553333 0,9.66666667 C0,9.171 0.497045455,8.71133334 1.34488636,8.33333333 C2.7,8.938 4.95170454,9.33333333 7.5,9.33333333 C10.0339773,9.33333333 12.2744318,8.94233333 13.6322727,8.34366667 L13.6551136,8.33333333 Z M13.6551136,4.66666667 C14.5029545,5.04466667 15,5.50433333 15,6 C15,7.28866667 11.6420455,8.33333333 7.5,8.33333333 C3.35795454,8.33333333 0,7.28866667 0,6 C0,5.50433333 0.497045455,5.04466667 1.34488636,4.66666667 C2.7,5.27133333 4.95170454,5.66666667 7.5,5.66666667 C10.0339773,5.66666667 12.2744318,5.27566667 13.6322727,4.677 L13.6551136,4.66666667 L13.6551136,4.66666667 Z M7.5,0 C11.6420455,0 15,1.04466667 15,2.33333333 C15,3.62199998 11.6420455,4.66666667 7.5,4.66666667 C3.35795454,4.66666667 0,3.622 0,2.33333333 C0,1.04466666 3.35795454,0 7.5,0 Z" id="形状"></path>
            </g>
        </g>
    </g>
</svg>