<?xml version="1.0" encoding="UTF-8"?>
<svg width="16px" height="15px" viewBox="0 0 16 15" version="1.1" xmlns="http://www.w3.org/2000/svg" xmlns:xlink="http://www.w3.org/1999/xlink">
    <title>Console_icon_data verification</title>
    <g id="控制台" stroke="none" stroke-width="1" fill="none" fill-rule="evenodd">
        <g id="控制台-新建" transform="translate(-857.000000, -479.000000)" fill="#2C65FF">
            <g id="Console_icon_data-verification" transform="translate(857.000000, 479.000000)">
                <path d="M5.00062236,1.99992617 L5.00062236,14.0000738 C2.18783256,13.6665826 0,11.107483 0,8 C0,4.89251702 2.18783256,2.33341737 5.00062236,1.99992617 Z" id="形状结合"></path>
                <g id="yanjing" transform="translate(4.000000, 8.000000)" fill-rule="nonzero">
                    <path d="M5,0 C6.8333608,0 8.46897312,1.07986667 9.90321201,3.18943333 C10.0322627,3.37896008 10.0322627,3.62103992 9.90321201,3.81056667 C8.46897312,5.92013333 6.8333608,7 5,7 C3.1666392,7 1.53102688,5.92013333 0.0967879857,3.81056667 C-0.0322626619,3.62103992 -0.0322626619,3.37896008 0.0967879857,3.18943333 C1.53102688,1.07986667 3.1666392,0 5,0 Z M5,1.4 C3.75738463,1.4 2.75001743,2.34021667 2.75001743,3.5 C2.75001743,4.65978333 3.75738463,5.6 5,5.6 C6.24261537,5.6 7.24998257,4.65978333 7.24998257,3.5 C7.24998257,2.34021667 6.24261537,1.4 5,1.4 Z M5,4.9 C5.82836858,4.9 6.49998838,4.27315 6.49998838,3.5 C6.49998838,2.72685 5.82836858,2.1 5,2.1 C4.17163142,2.1 3.50001162,2.72685 3.50001162,3.5 C3.50001162,4.27315 4.17163142,4.9 5,4.9 Z" id="形状"></path>
                </g>
                <path d="M14.1484005,3.97900049 C14.2467562,4.06714803 14.245243,4.22216611 14.1484005,4.31031365 L13.6097142,4.80120425 L9.54686949,8.50036124 C9.52265887,8.52315802 9.48331661,8.52163823 9.46061915,8.49580188 L6.3011332,4.92582663 L5.81692079,4.37870398 L5.65652543,4.19632977 L5.33422155,3.83158134 C5.24645805,3.7327953 5.26461602,3.57777722 5.37205064,3.50026818 C6.52508144,2.66894572 7.9383764,2.17805512 9.46515864,2.17805512 C11.2643104,2.17957491 12.9060931,2.86043864 14.1484005,3.97900049 Z" id="路径" fill-rule="nonzero" transform="translate(9.750019, 5.347223) rotate(-318.000000) translate(-9.750019, -5.347223) "></path>
            </g>
        </g>
    </g>
</svg>