<?xml version="1.0" encoding="UTF-8"?>
<svg width="15px" height="15px" viewBox="0 0 15 15" version="1.1" xmlns="http://www.w3.org/2000/svg" xmlns:xlink="http://www.w3.org/1999/xlink">
    <title>Console_icon_api-fill</title>
    <g id="控制台" stroke="none" stroke-width="1" fill="none" fill-rule="evenodd">
        <g id="控制台-新建" transform="translate(-637.000000, -480.000000)" fill="#2C65FF" fill-rule="nonzero">
            <g id="Console_icon_api-fill" transform="translate(637.000000, 480.000000)">
                <path d="M14.9572584,0.82199338 L14.1777989,0.0422949614 C14.1483853,0.0128723796 14.1116184,0 14.0730131,0 C14.0344077,0 13.9976408,0.0147112909 13.9682272,0.0422949614 L12.5692444,1.44170651 C11.9497212,1.02059581 11.2290888,0.810959912 10.5084564,0.810959912 C9.56722226,0.810959912 8.62598811,1.16954763 7.90719407,1.88856197 L6.03391752,3.76241265 C5.97692873,3.8194189 5.97692873,3.91320338 6.03391752,3.97020964 L11.0287089,8.96653181 C11.0581224,8.99595439 11.0948894,9.00882677 11.1334947,9.00882677 C11.1702617,9.00882677 11.208867,8.99411548 11.2382805,8.96653181 L13.1115571,7.09268113 C14.3781788,5.82383229 14.527085,3.86171387 13.5582756,2.43104082 L14.9572584,1.03162928 C15.0142472,0.972784112 15.0142472,0.878999632 14.9572584,0.82199338 Z M8.7289356,8.1390217 C8.67194681,8.08201545 8.57819107,8.08201545 8.52120228,8.1390217 L7.29686255,9.36373667 L5.63683436,7.70319971 L6.86301244,6.47664583 C6.92000123,6.41963957 6.92000123,6.32585509 6.86301244,6.26884884 L6.19385379,5.5994851 C6.136865,5.54247885 6.04310926,5.54247885 5.98612047,5.5994851 L4.7599424,6.82603898 L3.96945279,6.0353071 C3.94003922,6.00588452 3.90327226,5.99301214 3.86466695,5.99301214 C3.82789999,5.99301214 3.78929469,6.00772343 3.75988112,6.0353071 L1.88844292,7.90915778 C0.62182119,9.17616771 0.472915007,11.140125 1.44172437,12.5707981 L0.0427415896,13.9702096 C-0.0142471965,14.0272159 -0.0142471965,14.1210004 0.0427415896,14.1780066 L0.822201115,14.957705 C0.851614682,14.9871276 0.888381641,15 0.926986948,15 C0.965592254,15 1.00235921,14.9852887 1.03177278,14.957705 L2.43075556,13.5582935 C3.05027882,13.9794042 3.77091121,14.1890401 4.4915436,14.1890401 C5.43277774,14.1890401 6.37401189,13.8304524 7.09280593,13.111438 L8.96608248,11.2375873 C9.02307127,11.1805811 9.02307127,11.0867966 8.96608248,11.0297904 L8.17559287,10.2390585 L9.40177094,9.0125046 C9.45875973,8.95549834 9.45875973,8.86171387 9.40177094,8.80470761 L8.7289356,8.1390217 L8.7289356,8.1390217 Z" id="形状"></path>
            </g>
        </g>
    </g>
</svg>