<?xml version="1.0" encoding="utf-8"?>
<svg version="1.1" xmlns:xlink="http://www.w3.org/1999/xlink" width="48px" height="48px" xmlns="http://www.w3.org/2000/svg">
  <g transform="matrix(1 0 0 1 -659 -690 )">
    <path d="M 24 0  C 37.2548082061106 0  48 10.7452236925826  48 24.0000712475546  C 48 37.2549188025265  37.2548082061106 47.9999999999999  24 47.9999999999999  C 10.745096797432 47.9999999999999  0 37.2547763074173  0 23.9999287524454  C 0 10.7450811974735  10.745096797432 0  24 0  Z M 32.4852735700065 30.3644253043606  C 32.4852735700065 30.3644253043606  26.1298680736697 24.0078609801882  26.1297730772123 24.0079559769276  C 26.1297730772123 24.0079559769276  32.5752827134155 17.5625222030139  32.5752827134155 17.5625222030139  C 33.1660181839052 16.971689982099  33.1660181839052 16.0145978322931  32.5752827134155 15.4238606081176  C 31.9853547128139 14.833978354597  31.0282654042693 14.833978354597  30.4375299337795 15.4238606081176  C 30.4375299337795 15.4238606081176  23.991260325917 21.8701493526862  23.991260325917 21.8701493526862  C 23.991260325917 21.8701493526862  17.6357123348942 15.5145824942779  17.6357123348942 15.5145824942779  C 17.0497266872756 14.928785100553  16.1005695829259 14.928785100553  15.5145839353074 15.5145824942779  C 14.9286932841462 16.1005698814816  14.9286932841462 17.0498248002841  15.5145839353074 17.6357171907485  C 15.5145839353074 17.6357171907485  21.8701319263303 23.9912840491568  21.8701319263303 23.9912840491568  C 21.8701319263303 23.9912840491568  15.4717405330092 30.3905969060749  15.4717405330092 30.3905969060749  C 14.8809100660621 30.9805266579652  14.8809100660621 31.9376188077711  15.4717405330092 32.5283560319466  C 16.0615735371534 33.1190932561221  17.0185678492406 33.1190932561221  17.6093983161878 32.5283560319466  C 17.6093983161878 32.5283560319466  24.0077897095088 26.1299456440531  24.0077897095088 26.1299456440531  C 24.0077897095088 26.1299456440531  30.3643351633345 32.4853700073523  30.3643351633345 32.4853700073523  C 30.9493233481502 33.0713573945561  31.8994779153028 33.0713573945561  32.4852735700065 32.4853700073523  C 33.071259217625 31.8995726136275  33.071259217625 30.9494152258003  32.4852735700065 30.3644253043606  Z " fill-rule="nonzero" fill="#f04134" stroke="none" transform="matrix(1 0 0 1 659 690 )" />
  </g>
</svg>