<?xml version="1.0" standalone="no"?><!DOCTYPE svg PUBLIC "-//W3C//DTD SVG 1.1//EN" "http://www.w3.org/Graphics/SVG/1.1/DTD/svg11.dtd"><svg t="1584444034133" class="icon" viewBox="0 0 3498 1024" version="1.1" xmlns="http://www.w3.org/2000/svg" p-id="3974" width="81.984375" height="24" xmlns:xlink="http://www.w3.org/1999/xlink"><defs><style type="text/css"></style></defs><path d="M607.957333 0c152.832 0 281.898667 100.565333 329.429334 242.730667h67.925333c203.776 0 360.021333 162.986667 360.021333 367.573333 0 153.770667-92.117333 285.994667-222.933333 342.186667l-2.730667 15.914666a409.6 409.6 0 0 1-98.688 12.928h-89.429333c-74.666667 37.034667-168.362667 26.069333-226.773333-38.144a1872.725333 1872.725333 0 0 1-53.034667-65.877333c-16 17.493333-29.653333 32.853333-40.96 46.08-32.554667 31.872-75.306667 49.578667-119.424 53.418667a11.946667 11.946667 0 0 1-8.576 4.522666 12.16 12.16 0 0 1-7.978667-3.754666 206.293333 206.293333 0 0 1-16.298666-0.426667c-2.304 2.773333-4.608 4.181333-6.826667 4.181333a11.818667 11.818667 0 0 1-9.514667-5.845333 297.429333 297.429333 0 0 1-14.336-2.688c-1.664 1.408-4.096 2.133333-7.338666 2.133333-5.717333 0-9.088-2.261333-10.069334-6.698666a175.530667 175.530667 0 0 1-10.88-3.626667c-2.133333 2.090667-4.906667 3.84-6.698666 3.84-6.912 0-10.410667-3.2-10.410667-9.642667l0.128-1.365333a197.034667 197.034667 0 0 1-20.906667-11.52l0.085334-2.773333a12.032 12.032 0 0 1-6.954667 2.773333c-6.912 0-10.368-3.242667-10.368-9.685333 0-6.4 3.413333-9.642667 10.368-9.642667 6.912 0 10.368 3.2 10.368 9.642667 0 2.773333-1.28 4.949333-2.986667 6.528l2.986667-0.085334c3.456 0 6.912 3.242667 10.368 0 0 0 3.456-3.2 3.456-6.4v-9.685333h10.410667c3.413333 0 6.912-3.2 6.912-6.442667v-9.642666H426.666667c3.456 0 6.912-3.242667 6.912-6.442667 3.456-3.242667 0-3.242667 0-6.442667v-3.242666h3.456c41.514667 19.328 93.44 12.885333 124.586666-19.328 17.28-16.085333 38.016-38.613333 58.794667-64.384-27.392-34.261333-53.76-66.986667-74.026667-88.832-41.984-45.653333-115.456-42.197333-157.44 0-10.496 10.538667-17.493333 21.077333-24.490666 35.114666H269.994667c0-3.498667 3.498667-10.538667 3.498666-14.08l48.981334-207.274666 24.490666-87.850667h265.856l-24.490666 87.850667H409.941333l-20.992 77.312c73.472-28.16 157.44-14.08 209.92 45.653333 45.44 52.736 132.906667 168.661333 178.389334 221.397333 17.834667 19.370667 41.386667 29.909333 65.706666 32.384l-0.682666-17.706666 74.154666 0.042666c6.528-4.224 12.672-9.130667 18.261334-14.72 10.496-10.581333 17.493333-21.12 24.490666-35.157333h-108.458666l24.490666-87.850667h181.930667a209.578667 209.578667 0 0 1-16.213333 134.912c134.613333-19.626667 239.488-139.008 239.488-281.6 0-155.989333-125.653333-284.288-278.485334-284.288h-135.850666c-3.413333-27.733333-13.610667-55.466667-23.808-83.242666a258.432 258.432 0 0 0-237.738667-156.032c-108.672 0-200.362667 69.333333-241.152 166.4-10.154667 27.776-20.352 55.509333-20.352 86.741333-27.178667 0-57.728 3.413333-84.906667 13.866667-98.517333 38.144-173.226667 135.253333-173.226666 253.141333a267.648 267.648 0 0 0 169.813333 249.642667l-23.765333 86.698666C98.474667 894.634667 0 762.88 0 606.848c0-169.941333 115.456-312.106667 271.701333-346.794667C312.448 110.976 448.341333 0 607.914667 0z m1193.088 612.394667l-3.456 365.44h-41.472l-3.456-361.941334c10.368 0 48.384-3.498667 48.384-3.498666z m3.456-179.2v45.653333h-69.162666v73.813333l69.162666 3.498667v42.197333h-69.12l-6.954666 379.477334h-110.634667l10.368-383.018667-86.442667-3.498667v-38.656h86.442667v-73.813333h-89.898667l3.456-45.653333h262.826667z m-193.621333 179.2l-13.824 361.898666h-93.354667l58.794667-361.898666h48.384z m397.653333-210.816l-24.234666 42.154666h186.709333v38.656c-48.426667 52.693333-76.074667 80.810667-89.898667 94.848-10.368 14.08-34.56 35.157333-69.12 66.773334l-34.602666 21.077333-6.912 7.04h58.752l-17.28 24.576h155.605333v35.157333c-62.250667 98.389333-134.826667 182.698667-214.357333 242.432l-148.693334-3.498666c51.882667-38.656 89.898667-73.813333 110.634667-98.389334l-93.354667-94.848 86.442667 3.498667 58.794667 52.693333c31.104-42.154667 48.384-66.773333 48.384-70.272 0-7.04 3.456-10.538667 3.456-17.578666l-24.192-3.498667h-13.824l-34.56 28.117333h-145.237334c44.970667-35.157333 79.530667-66.773333 103.722667-94.890666l-100.266667-3.498667 76.074667-52.693333c-27.648-42.197333-48.426667-66.773333-58.794667-80.810667h117.546667c6.954667 6.997333 10.410667 17.536 17.322667 28.074667 31.104-28.074667 55.296-52.693333 76.032-80.810667l-69.12-3.498667-13.824 17.578667h-124.501334l72.618667-98.389333h110.634667z m681.088 17.578666l-3.456 70.272h141.738667l-13.824 477.866667h-110.634667l-62.250666-35.157333-6.912 35.157333h-121.002667c31.146667-144.085333 51.882667-288.128 55.338667-435.712h-58.794667v-38.656h62.250667v-3.498667l3.413333-70.272h114.133333z m-165.973333 165.12v45.653334h-134.826667c-3.456 17.578667-20.736 112.469333-58.794666 277.632h76.074666l-17.28-91.392h93.354667l24.192 147.626666h-342.272l124.458667-337.365333h-72.618667v-42.154667h307.712zM3498.666667 615.893333v45.653334h-297.344L3083.776 921.6l252.373333-3.498667-31.104-108.928h134.826667l48.426667 151.04H2945.450667v-35.114666l124.501333-267.008h-159.061333v-42.197334H3498.666667z m-3106.56 291.413334c6.869333 0 10.325333 3.2 10.325333 9.642666 0 6.4-3.413333 9.642667-10.368 9.642667-6.912 0-10.368-3.2-10.368-9.642667 3.456-6.442667 6.912-9.685333 10.368-9.685333z m-41.557334 0c3.456 0 10.368 3.2 10.368 9.642666 0 6.4-3.413333 9.642667-10.368 9.642667-6.912 0-10.368-3.2-10.368-9.642667 0-6.442667 3.456-9.685333 10.368-9.685333z m2359.808-379.264h-27.648c-3.456 77.312-6.912 154.624-13.824 228.394666-6.912 45.696-10.368 91.392-20.736 137.045334l51.84 24.618666 10.368-390.058666zM412.842667 887.936c6.912 0 10.368 3.242667 10.368 9.685333 0 6.4-3.456 9.642667-10.368 9.642667-6.912 0-10.410667-3.2-10.410667-9.642667 0-6.442667 3.498667-9.685333 10.410667-9.685333z m-83.029334-3.2c6.912 0 10.368 6.4 10.368 9.642667 0 6.442667-3.456 9.685333-10.368 9.685333-6.912 0-10.410667-3.242667-10.410666-9.685333 0-6.4 3.498667-9.642667 10.410666-9.642667z m38.058667 0c6.912 0 10.368 3.2 10.368 9.642667 0 6.442667-3.456 9.685333-10.368 9.685333-3.456 0-6.954667-3.242667-10.410667-9.685333 0-6.4 3.456-9.642667 10.410667-9.642667z m17.28-22.528c6.912 0 10.368 6.4 10.368 9.642667 0 6.4-6.912 9.642667-10.368 9.642666-3.456 0-6.912-3.2-10.368-9.642666 0-6.442667 6.912-9.642667 10.368-9.642667z m-31.146667 0c6.912 0 10.410667 6.4 10.410667 9.642667 0 6.4-6.954667 9.642667-10.410667 9.642666-6.912 0-10.368-6.4-10.368-9.642666 0-6.442667 3.456-9.642667 10.368-9.642667z m-38.058666 0c6.954667 0 10.410667 6.4 10.410666 9.642667 0 3.2-3.456 9.642667-10.410666 6.4-3.413333 0-6.912-3.2-10.368-6.4 0-6.442667 6.912-9.642667 10.368-9.642667z m27.733333-25.770667c3.413333 0 6.869333 6.4 6.869333 9.642667 0 3.242667-6.912 6.442667-10.368 6.442667-6.912 0-10.368-3.2-6.912-9.642667 0-3.242667 6.912-6.442667 10.368-6.442667z m-34.645333-3.242666c3.456 0 6.912 6.442667 6.912 9.685333 0 6.4-3.413333 9.642667-10.368 6.4-3.413333 0-6.912-6.4-6.912-9.642667 0-3.2 6.912-6.4 10.368-6.4z m427.946666-169.813334c65.237333-77.568 173.909333-85.333333 253.610667-31.061333v3.882667h-10.88c-3.626667 0-7.253333 3.84-7.253333 7.765333 0 3.84 0 7.765333 3.626666 11.605333v7.765334c-3.626667 3.882667-3.626667 3.882667-7.253333 3.882666h-7.253333c-3.584 0-7.253333 3.84-7.253334 7.765334 0 3.84 0 7.722667 3.669334 11.605333v7.765333c-3.626667 3.84-3.626667 3.84-3.626667 0h-3.626667c-3.626667 0-7.253333 3.84-7.253333 7.765334 0 3.84 0 7.765333 3.626667 11.605333v3.882667h-3.626667a109.653333 109.653333 0 0 0-22.570667-12.373334 3.413333 3.413333 0 0 1-1.322666-0.426666c-40.021333-15.701333-87.381333-6.997333-117.376 28.330666-18.133333 19.370667-39.850667 46.506667-61.610667 77.525334-7.253333-7.765333-14.506667-19.370667-21.717333-27.136-10.88-15.530667-25.344-34.901333-36.224-50.389334 21.76-27.136 39.850667-50.432 54.357333-69.802666z m318.805334 69.76c3.626667 0 7.253333 3.84 10.88 11.605334 0 7.765333-7.253333 11.648-10.88 11.648-7.253333 0-10.837333-7.765333-10.837334-11.648 0-7.722667 7.253333-11.605333 10.837334-11.605334z m-39.850667 0c7.253333 0 10.88 3.84 7.253333 7.722667 0 3.882667-3.626667 7.765333-7.253333 7.765333s-7.253333-3.84-7.253333-7.765333c0-3.84 3.626667-7.722667 7.253333-7.722667z m-57.941333-27.136c7.253333 0 10.88 3.84 10.88 11.605334 0 7.765333-7.253333 11.648-10.88 11.648-7.253333 0-10.88-3.882667-10.88-11.648 0-7.722667 7.253333-11.605333 10.88-11.605334z m79.701333-3.882666c3.626667 0 10.837333 3.84 10.837333 11.605333 0 7.765333-7.253333 11.648-10.837333 11.648-7.253333 0-10.88-7.765333-10.88-11.648 0-7.722667 7.253333-11.605333 10.88-11.605333z m-39.850667 0c7.253333 0 10.88 3.84 10.88 11.605333 0 7.765333-3.626667 11.648-10.88 11.648-7.253333 0-10.88-3.84-10.88-11.648 0-7.722667 7.253333-11.605333 10.88-11.605333z m-21.76-23.253334c3.626667 0 10.88 3.84 10.88 11.605334 0 7.765333-3.626667 11.648-10.88 11.648-7.253333 0-10.837333-3.882667-10.837333-11.648 0-7.765333 3.626667-11.605333 10.837333-11.605334z m39.850667-3.882666c7.253333 0 10.88 3.84 10.88 11.605333 0 7.765333-3.626667 11.648-10.88 11.648-7.253333 0-10.837333-3.882667-10.837333-11.648 0-7.722667 3.626667-11.605333 10.837333-11.605333z m-25.344-23.253334c7.253333 0 10.88 3.84 10.88 11.605334 0 7.765333-3.626667 11.648-10.88 11.648-7.253333 0-10.88-3.882667-10.88-11.648 0-7.765333 7.253333-11.605333 10.88-11.605334z m1495.04-183.424l-3.456 42.197334h-266.24l3.456-42.197334h266.24zM3467.52 443.733333v42.154667H2914.346667V443.733333h553.216z" fill="#FFFFFF" p-id="3975"></path></svg>