<?xml version="1.0" encoding="UTF-8"?>
<svg width="48px" height="48px" viewBox="0 0 48 48" version="1.1" xmlns="http://www.w3.org/2000/svg" xmlns:xlink="http://www.w3.org/1999/xlink">
    <title>Combined Shape Copy</title>
    <g id="订购页" stroke="none" stroke-width="1" fill="none" fill-rule="evenodd">
        <g id="订购审核中" transform="translate(-659.000000, -230.000000)" fill="#337DFF" fill-rule="nonzero">
            <path d="M683.161074,230 C696.369128,230 707,240.630872 707,254.161074 C707,267.369128 696.369128,278 683.161074,278 C669.95302,278 659,267.369128 659,254.161074 C659,240.95302 669.630872,230 683.161074,230 Z M682.5,241 C681.671573,241 681,241.671573 681,242.5 L681,242.5 L681,257 C681,257.552285 681.447715,258 682,258 L682,258 L696.5,258 C697.328427,258 698,257.328427 698,256.5 C698,255.671573 697.328427,255 696.5,255 L696.5,255 L685,255 C684.447715,255 684,254.552285 684,254 L684,254 L684,242.5 C684,241.671573 683.328427,241 682.5,241 Z" id="Combined-Shape-Copy"></path>
        </g>
    </g>
</svg>