<?xml version="1.0" standalone="no"?><!DOCTYPE svg PUBLIC "-//W3C//DTD SVG 1.1//EN" "http://www.w3.org/Graphics/SVG/1.1/DTD/svg11.dtd"><svg class="icon" width="200px" height="200.00px" viewBox="0 0 1024 1024" version="1.1" xmlns="http://www.w3.org/2000/svg"><path fill="#333333" d="M1024 511.488C1024 229.12 794.624 0 512 0S0 229.12 0 511.488c0 155.52 70.656 295.68 181.248 389.76 1.024 1.024 2.048 1.024 2.048 2.048 9.216 7.168 18.432 14.336 28.672 21.504 5.12 3.072 9.216 7.104 14.336 11.2A510.72 510.72 0 0 0 513.024 1024a510.72 510.72 0 0 0 286.72-88c5.12-3.072 9.216-7.104 14.336-10.24 9.216-7.104 19.456-14.272 28.672-21.44 1.024-1.024 2.048-1.024 2.048-2.048 108.544-95.168 179.2-235.264 179.2-390.784z m-512 448.064c-96.256 0-184.32-30.72-257.024-81.856 1.024-8.192 3.072-16.32 5.12-24.512 6.144-22.528 15.36-44.032 26.624-63.424 11.264-19.456 24.576-36.864 40.96-52.224 15.36-15.36 33.792-29.632 52.224-40.896 19.456-11.264 39.936-19.456 62.464-25.6A265.6 265.6 0 0 1 512 661.888a267.84 267.84 0 0 1 187.392 74.624c23.552 23.552 41.984 51.2 55.296 82.88 7.168 18.432 12.288 37.888 15.36 58.304A449.92 449.92 0 0 1 512 959.552z m-156.672-473.6a159.36 159.36 0 0 1-13.312-65.536c0-22.464 4.096-44.992 13.312-65.472 9.216-20.48 21.504-38.848 36.864-54.208 15.36-15.36 33.792-27.584 54.272-36.8 20.48-9.216 43.008-13.312 65.536-13.312 23.552 0 45.056 4.096 65.536 13.312 20.48 9.216 38.912 21.504 54.272 36.8 15.36 15.36 27.648 33.792 36.864 54.208 9.216 20.48 13.312 43.008 13.312 65.472 0 23.552-4.096 45.056-13.312 65.472-9.216 20.48-21.504 38.912-36.864 54.272a181.76 181.76 0 0 1-54.272 36.8 173.76 173.76 0 0 1-132.096 0 181.76 181.76 0 0 1-54.272-36.8 161.664 161.664 0 0 1-35.84-54.272z m475.136 339.584c0-2.048-1.024-3.072-1.024-5.12a334.08 334.08 0 0 0-44.032-89.984 312.512 312.512 0 0 0-69.632-72.64 333.248 333.248 0 0 0-66.56-38.912 180.48 180.48 0 0 0 29.696-24.512c15.36-15.36 28.672-31.744 39.936-50.176a231.936 231.936 0 0 0 33.792-123.776 237.44 237.44 0 0 0-18.432-94.08 243.136 243.136 0 0 0-52.224-76.736 246.08 246.08 0 0 0-76.8-51.2 238.08 238.08 0 0 0-94.208-18.368 238.08 238.08 0 0 0-94.208 18.432 232.384 232.384 0 0 0-76.8 52.16 245.76 245.76 0 0 0-51.2 76.736 237.44 237.44 0 0 0-18.432 94.08c0 22.528 3.072 44.032 9.216 64.448 6.144 21.504 14.336 40.96 25.6 59.328 10.24 18.432 24.576 34.816 39.936 50.176 9.216 9.216 19.456 17.344 30.72 24.512a327.68 327.68 0 0 0-66.56 39.936c-26.624 20.48-50.176 44.992-69.632 71.616a319.936 319.936 0 0 0-44.032 89.984c-1.024 2.048-1.024 4.096-1.024 5.12C113.664 744.704 63.488 634.24 63.488 511.488 63.488 264.96 265.216 63.424 512 63.424s448.512 201.536 448.512 448.064a445.44 445.44 0 0 1-130.048 314.048z" /></svg>