<?xml version="1.0" standalone="no"?><!DOCTYPE svg PUBLIC "-//W3C//DTD SVG 1.1//EN" "http://www.w3.org/Graphics/SVG/1.1/DTD/svg11.dtd"><svg class="icon" width="200px" height="200.00px" viewBox="0 0 1024 1024" version="1.1" xmlns="http://www.w3.org/2000/svg"><path fill="#333333" d="M982.187445 214.187195c23.209992 0 41.812985 18.516993 41.812985 41.812985v684.202759c0 46.591984-37.204987 83.796971-88.404969 83.796971H256.0007a41.727985 41.727985 0 0 1-41.812985-41.812985c0-23.381992 18.516993-41.983985 41.812985-41.983986h637.695776a41.662985 41.662985 0 0 0 41.812985-41.813985V256.00018c4.693998-23.295992 23.295992-41.812985 46.591984-41.812985zM809.813505 0.00027c23.381992 0 41.983985 18.602993 41.983986 41.812985v767.99973c0 23.381992-18.601993 41.983985-41.897986 41.983986h-767.99973A41.727985 41.727985 0 0 1 0.00079 809.812985v-767.99973A41.662985 41.662985 0 0 1 41.813775 0.00027h767.99973zM479.488621 190.805203a42.495985 42.495985 0 0 0-55.80798 0h-4.692998a33.279988 33.279988 0 0 0 4.692998 51.199982l176.724938 176.981938-176.809938 176.809938H418.900643a33.279988 33.279988 0 0 0 4.693998 51.199982c13.908995 13.909995 41.812985 13.909995 55.80798 0l232.703919-228.09592-232.703919-228.09592zM204.800718 372.395139a46.676984 46.676984 0 0 0 0 93.012967 46.676984 46.676984 0 0 0 46.506984-46.506983c4.692998-23.295992-18.602993-46.505984-46.506984-46.505984z m158.292944 0a46.676984 46.676984 0 0 0 0 93.012967 46.676984 46.676984 0 0 0 0-93.012967z"  /></svg>