<?xml version="1.0" standalone="no"?>
        <!DOCTYPE svg PUBLIC "-//W3C//DTD SVG 1.1//EN" "http://www.w3.org/Graphics/SVG/1.1/DTD/svg11.dtd">
        <svg class="icon" width="200px" height="200px" viewBox="0 0 1024 1024" version="1.1" xmlns="http://www.w3.org/2000/svg"><g fill="#666666" transform="matrix(1 0 0 1 0 0) scale(0.8, -0.8) translate(0, -900)"><path d="M642.1 56c0-67.1-57.1-119.3-128.4-119.3-71.3 0-128.4 52.2-128.4 119.3h256.8m-42.8 696.2c0 44.8-37.1 79.6-85.6 79.6-48.5 0-85.6-34.8-85.6-79.6v-12.4c-117-37.3-214-156.6-214-295.9v-109.4s0-156.6-42.8-159.1c-25.7 0-42.8-17.4-42.8-39.8s20-39.8 42.8-39.8h684.8c22.8 0 42.8 17.4 42.8 39.8s-20 39.8-42.8 39.8c-42.8 0-42.8 159.1-42.8 159.1V443.9c0 139.2-91.3 256.1-214 295.9v12.4" /></g></svg>