<?xml version="1.0" standalone="no"?><!DOCTYPE svg PUBLIC "-//W3C//DTD SVG 1.1//EN" "http://www.w3.org/Graphics/SVG/1.1/DTD/svg11.dtd"><svg class="icon" width="200px" height="200.00px" viewBox="0 0 1024 1024" version="1.1" xmlns="http://www.w3.org/2000/svg"><path fill="#333333" d="M215.296 208.725333H33.877333c-18.602667 0-33.877333-19.2-33.877333-42.666666s15.274667-42.666667 33.877333-42.666667h181.418667c18.688 0 33.962667 19.2 33.962667 42.666667s-15.36 42.666667-33.962667 42.666666z m774.826667 0H489.984c-18.688 0-33.962667-19.2-33.962667-42.666666s15.36-42.666667 33.962667-42.666667h500.053333c18.773333 0 33.962667 19.2 33.962667 42.666667s-15.274667 42.666667-33.877333 42.666666zM478.037333 269.653333H189.269333c-19.626667 0-35.669333-14.848-35.669333-33.109333V59.050667c0-18.261333 16.042667-33.109333 35.669333-33.109334H476.16c19.626667 0 35.584 14.848 35.584 33.109334v177.493333c1.792 18.261333-14.250667 33.194667-33.792 33.194667z m-253.098666-66.304h215.637333V92.245333H224.938667v111.104zM990.122667 550.058667H808.704c-18.688 0-33.962667-19.2-33.962667-42.666667s15.36-42.666667 33.962667-42.666667h181.418667c18.602667 0 33.877333 19.2 33.877333 42.666667s-15.274667 42.666667-33.877333 42.666667z m-456.106667 0H33.962667c-18.773333 0-33.962667-19.2-33.962667-42.666667s15.274667-42.666667 33.877333-42.666667h500.138667c18.688 0 33.962667 19.2 33.962667 42.666667s-15.36 42.666667-33.962667 42.666667zM836.437333 610.986667H547.669333c-19.626667 0-35.669333-14.848-35.669333-33.109334v-177.493333c0-18.261333 16.042667-33.109333 35.669333-33.109333H834.56c19.626667 0 35.584 14.848 35.584 33.109333v177.493333c1.792 18.261333-14.250667 33.194667-33.792 33.194667z m-253.098666-66.304h215.637333V433.578667H583.338667v111.104zM215.296 940.202667H33.877333c-18.602667 0-33.877333-19.2-33.877333-42.666667s15.274667-42.666667 33.877333-42.666667h181.418667c18.688 0 33.962667 19.2 33.962667 42.666667s-15.36 42.666667-33.962667 42.666667z m774.826667 0H489.984c-18.688 0-33.962667-19.2-33.962667-42.666667s15.36-42.666667 33.962667-42.666667h500.053333c18.773333 0 33.962667 19.2 33.962667 42.666667s-15.274667 42.666667-33.877333 42.666667zM478.037333 1001.130667H189.269333c-19.626667 0-35.669333-14.933333-35.669333-33.194667v-177.493333c0-18.176 16.042667-33.109333 35.669333-33.109334H476.16c19.626667 0 35.584 14.933333 35.584 33.194667v177.493333c1.792 18.176-14.250667 33.109333-33.792 33.109334z m-253.098666-66.304h215.637333V823.637333H224.938667v111.189334z" /></svg>