<?xml version="1.0" standalone="no"?><!DOCTYPE svg PUBLIC "-//W3C//DTD SVG 1.1//EN" "http://www.w3.org/Graphics/SVG/1.1/DTD/svg11.dtd"><svg t="1631534295010" class="icon" viewBox="0 0 1024 1024" version="1.1" xmlns="http://www.w3.org/2000/svg" p-id="3349" xmlns:xlink="http://www.w3.org/1999/xlink" width="64" height="64"><defs><style type="text/css"></style></defs><path d="M870.4 57.563429C780.8 19.163429 652.8 0 512 0 371.2 0 243.2 19.163429 153.6 57.563429 51.2 102.4 0 153.6 0 211.163429v595.236571c0 57.636571 51.2 115.2 153.6 153.6C243.2 1004.836571 371.2 1024 512 1024c140.8 0 268.8-19.236571 358.4-57.636571 95.963429-38.4 153.6-95.963429 153.6-153.6V211.236571c0-57.636571-51.2-108.836571-153.6-153.6z m-57.563429 262.436571C729.6 351.963429 614.4 364.763429 512 364.763429c-108.763429 0-217.6-12.8-300.836571-44.763429C115.2 294.4 70.363429 256 70.363429 211.163429c0-38.4 51.2-76.8 140.8-108.763429C294.4 76.8 403.236571 64 512 64c102.4 0 217.6 19.163429 300.836571 44.763429 89.526857 32.036571 140.8 70.436571 140.8 108.836571s-44.836571 76.8-140.8 102.4z m6.363429 185.563429c-83.163429 25.6-198.363429 44.836571-307.2 44.836571-108.763429 0-217.6-19.163429-307.2-44.836571C115.2 473.6 64 435.2 64 396.8v-70.436571c64 25.6 108.836571 57.636571 179.2 70.436571 83.236571 19.236571 172.836571 31.963429 268.8 31.963429 95.963429 0 185.636571-12.8 268.8-31.963429 70.363429-12.8 115.2-44.836571 179.2-70.436571v76.8c0 32.036571-51.2 70.436571-140.8 102.4z m0 204.8c-83.163429 25.6-198.363429 44.836571-307.2 44.836571-108.763429 0-217.6-19.163429-307.2-44.763429S64 646.363429 64 601.6V505.563429c64 32.036571 108.836571 57.636571 179.2 76.8C326.436571 601.673143 416.036571 614.4 512 614.4c95.963429 0 185.636571-12.8 268.8-31.963429 70.363429-19.236571 115.2-44.836571 179.2-76.8v95.963429c0 44.763429-51.2 83.236571-140.8 108.836571zM512 960.073143c-108.763429 0-217.6-19.163429-307.2-44.763429s-140.8-64-140.8-102.4V716.8c64 32.036571 108.836571 57.563429 179.2 76.8 76.8 19.236571 172.836571 32.036571 262.363429 32.036571 96.036571 0 185.636571-12.873143 268.8-32.036571 76.8-19.236571 121.636571-44.763429 185.636571-76.8v96.036571c0 38.4-51.2 76.8-140.8 108.763429-83.163429 25.6-204.8 38.4-307.2 38.4z" fill="#000000" fill-opacity=".6" p-id="3350"></path></svg>