<?xml version="1.0" encoding="UTF-8"?>
<svg width="11px" height="11px" viewBox="0 0 11 11" version="1.1" xmlns="http://www.w3.org/2000/svg" xmlns:xlink="http://www.w3.org/1999/xlink">
    <title>shanchu1</title>
    <g id="agent管理" stroke="none" stroke-width="1" fill="none" fill-rule="evenodd">
        <g id="实例详情" transform="translate(-1364.000000, -178.000000)" fill="#000000" fill-rule="nonzero">
            <g id="分组" transform="translate(1343.000000, 170.000000)">
                <g id="shanchu1" transform="translate(21.000000, 8.000000)">
                    <path d="M8.58455053,9.48493068 C8.58455053,9.86397428 8.28369768,10.1722925 7.9149103,10.1722925 L3.0850897,10.1722925 C2.715224,10.1711875 2.41544947,9.86397428 2.41437114,9.48493068 L2.41437114,2.19359052 L8.58455053,2.19359052 L8.58455053,9.48493068 L8.58455053,9.48493068 Z M3.75472993,0.96031746 C3.75472993,0.880751457 3.81511617,0.818866787 3.89275561,0.818866787 L7.11479267,0.818866787 C7.19243211,0.818866787 7.25174003,0.880751457 7.25174003,0.96031746 L7.25174003,1.37472373 L3.75472993,1.37472373 L3.75472993,0.96031746 L3.75472993,0.96031746 Z M10.5945496,1.37472373 L8.05185766,1.37472373 L8.05185766,0.96031746 C8.05185766,0.432087603 7.63131066,0 7.11479267,0 L3.89275561,0 C3.37623762,0.00110508338 2.95676894,0.429877436 2.95569062,0.96031746 L2.95569062,1.37472373 L0.40437212,1.37472373 C0.180080384,1.37472373 0,1.55927265 0,1.78802491 C0,2.01677718 0.180080384,2.20243118 0.40437212,2.20243118 L1.60670522,2.20243118 L1.60670522,9.48493068 C1.60670522,10.3214788 2.26879718,11 3.0850897,11 L7.91383198,11 C8.7301245,11 9.39221645,10.3214788 9.39221645,9.48493068 L9.39221645,2.19359052 L10.5956279,2.19359052 C10.8188413,2.19359052 11,2.00904159 11,1.77918425 C11,1.5493269 10.8188413,1.37472373 10.5945496,1.37472373 Z M5.49946084,8.93017882 C5.72267425,8.93017882 5.90383296,8.7456299 5.90383296,8.51577255 L5.90383296,4.11312035 C5.90383296,3.88436809 5.72375257,3.69871408 5.49946084,3.69871408 C5.27624743,3.69871408 5.09508872,3.88326301 5.09508872,4.11312035 L5.09508872,8.51577255 C5.09508872,8.74452481 5.27624743,8.93017882 5.49946084,8.93017882 M3.61778257,8.93017882 C3.84099598,8.93017882 4.02215469,8.7456299 4.02215469,8.51577255 L4.02215469,4.11312035 C4.02215469,3.88436809 3.84207431,3.69871408 3.61778257,3.69871408 C3.39456916,3.69871408 3.21341045,3.88326301 3.21341045,4.11312035 L3.21341045,8.51577255 C3.22203706,8.74452481 3.40319577,8.93017882 3.61778257,8.93017882 M7.3811391,8.93017882 C7.60435251,8.93017882 7.78551122,8.7456299 7.78551122,8.51577255 L7.78551122,4.11312035 C7.78551122,3.88436809 7.60543084,3.69871408 7.3811391,3.69871408 C7.15792569,3.69871408 6.97676698,3.88326301 6.97676698,4.11312035 L6.97676698,8.51577255 C6.97784531,8.74452481 7.15792569,8.93017882 7.3811391,8.93017882" id="形状"></path>
                </g>
            </g>
        </g>
    </g>
</svg>