<?xml version="1.0" standalone="no"?>
        <!DOCTYPE svg PUBLIC "-//W3C//DTD SVG 1.1//EN" "http://www.w3.org/Graphics/SVG/1.1/DTD/svg11.dtd">
        <svg class="icon" width="200px" height="200px" viewBox="0 0 1024 1024" version="1.1" xmlns="http://www.w3.org/2000/svg"><g fill="#666666" transform="matrix(1 0 0 1 0 0) scale(0.8, -0.8) translate(0, -900)"><path d="M571.07692344 376.61538469000004L689.23076937 494.76923063c14.76923062 14.76923062 14.76923062 44.30769188 1e-8 59.07692343-14.76923062 14.76923062-44.30769188 14.76923062-59.07692344 0L512 435.69230812 393.84615406 553.84615406c-14.76923062 14.76923062-44.30769188 14.76923062-59.07692344 0-14.76923062-14.76923062-14.76923062-44.30769188 0-59.07692343l118.15384594-118.15384594L327.38461531 258.46153875000005c-14.76923062-14.76923062-14.76923062-44.30769188 0-59.07692344s44.30769188-14.76923062 59.07692344 0l118.15384594 118.15384594L622.76923063 199.38461530999996c14.76923062-14.76923062 44.30769188-14.76923062 59.07692343 0 14.76923062 14.76923062 14.76923062 44.30769188 0 59.07692344L571.07692344 376.61538469000004zM674.46153875 797.53846125c51.69230812-22.15384594 103.38461531-51.69230812 147.69230719-96 44.30769188-44.30769188 73.84615406-88.61538469 96-147.69230719 22.15384594-51.69230812 29.53846125-110.76923063 29.53846218-169.84615406 0-59.07692344-7.38461531-110.76923063-29.53846218-169.84615406-22.15384594-51.69230812-51.69230812-103.38461531-96-147.69230719-44.30769188-44.30769188-88.61538469-73.84615406-147.69230719-96-51.69230812-22.15384594-110.76923063-29.53846125-169.84615406-29.53846219-59.07692344 0-110.76923063 7.38461531-169.84615407 29.53846219-51.69230812 22.15384594-103.38461531 51.69230812-147.69230718 96-44.30769188 44.30769188-73.84615406 88.61538469-96 147.69230719C68.92307656 265.84615406 61.53846125 324.92307656 61.53846125 384c0 59.07692344 7.38461531 110.76923063 29.53846219 169.84615406 22.15384594 51.69230812 51.69230812 103.38461531 96 147.69230719 44.30769188 44.30769188 88.61538469 73.84615406 147.69230719 96S445.53846125 827.07692344 504.61538469 827.07692344 622.76923063 819.69230813 674.46153875 797.53846125z" /></g></svg>