<?xml version="1.0" standalone="no"?><!DOCTYPE svg PUBLIC "-//W3C//DTD SVG 1.1//EN" "http://www.w3.org/Graphics/SVG/1.1/DTD/svg11.dtd"><svg t="1628838758579" class="icon" viewBox="0 0 1024 1024" version="1.1" xmlns="http://www.w3.org/2000/svg" p-id="8200" xmlns:xlink="http://www.w3.org/1999/xlink" width="200" height="200"><defs><style type="text/css"></style></defs><path d="M891.53536 446.464h-651.264l-98.304 393.216h651.264l98.304-393.216z m-47.104-65.536v-65.536h-354.304l-131.072-131.072h-235.52v458.752l59.392-237.568c2.048-7.508992 5.972992-13.483008 11.776-17.92s12.459008-6.656 19.968-6.656h629.76z m-25.6 524.288h-728.064c-9.556992 0-17.408-3.072-23.552-9.216s-9.216-13.995008-9.216-23.552V151.552c0-9.556992 3.072-17.408 9.216-23.552s13.995008-9.216 23.552-9.216h294.912l131.072 131.072h360.448c9.556992 0 17.408 3.072 23.552 9.216s9.216 13.995008 9.216 23.552v98.304h23.552c10.24 0 18.603008 4.267008 25.088 12.8 6.484992 8.532992 8.704 17.92 6.656 28.16l-114.688 458.752c-2.048 7.508992-5.972992 13.483008-11.776 17.92s-12.459008 6.656-19.968 6.656z" p-id="8201" fill="#8a8a8a"></path></svg>