<!-- Generated by IcoMoon.io -->
<svg version="1.1" xmlns="http://www.w3.org/2000/svg" width="32" height="32" viewBox="0 0 32 32">
<title>info</title>
<path fill="#8a8a8a" d="M16 2q5.938 0.156 9.891 4.109t4.109 9.891q-0.156 5.938-4.109 9.891t-9.891 4.109q-5.938-0.156-9.891-4.109t-4.109-9.891q0.156-5.938 4.109-9.891t9.891-4.109zM18.094 10.594q0.813 0 1.344-0.484t0.531-1.297-0.531-1.297-1.328-0.484-1.328 0.484-0.531 1.297 0.531 1.297 1.313 0.484zM18.469 21.844q0-0.188 0.031-0.5t0-0.594l-1.656 1.906q-0.25 0.281-0.516 0.438t-0.453 0.094q-0.281-0.125-0.25-0.438l2.75-8.656q0.156-0.875-0.281-1.5t-1.406-0.75q-1.094 0.031-2.391 0.922t-2.266 2.266v0.469q-0.031 0.313 0 0.594l1.656-1.906q0.25-0.281 0.516-0.438t0.422-0.094q0.313 0.156 0.219 0.5l-2.719 8.625q-0.219 0.781 0.219 1.391t1.531 0.828q1.563-0.031 2.625-0.906t1.969-2.25z"></path>
</svg>
