<?xml version="1.0" standalone="no"?><!DOCTYPE svg PUBLIC "-//W3C//DTD SVG 1.1//EN" "http://www.w3.org/Graphics/SVG/1.1/DTD/svg11.dtd"><svg t="1618214030740" class="icon" viewBox="0 0 1024 1024" version="1.1" xmlns="http://www.w3.org/2000/svg" p-id="37381" xmlns:xlink="http://www.w3.org/1999/xlink" width="200" height="200"><defs><style type="text/css"></style></defs><path d="M850.60266667 752.29866667c49.152-70.99733333 76.45866667-158.37866667 76.45866666-245.76 0-234.83733333-191.14666667-431.44533333-431.44533333-431.44533334-21.84533333 0-49.152 0-70.99733333 5.46133334-10.92266667 5.46133333-27.30666667 21.84533333-21.84533334 43.69066666s21.84533333 32.768 38.22933334 27.30666667c21.84533333-5.46133333 38.22933333-5.46133333 60.07466666-5.46133333 196.608 0 360.448 163.84 360.448 360.448 0 70.99733333-21.84533333 136.53333333-54.61333333 196.608l-60.07466667-65.536h-5.46133333c-5.46133333 0-10.92266667 0-10.92266667 5.46133333l-32.768 196.608c0 5.46133333 5.46133333 5.46133333 10.92266667 5.46133333l202.06933333-21.84533333h5.46133334c5.46133333-5.46133333 5.46133333-10.92266667 0-10.92266667l-65.536-60.07466666zM555.69066667 861.52533333c-16.384 5.46133333-38.22933333 5.46133333-60.07466667 5.46133334-196.608 0-360.448-163.84-360.448-360.448 0-70.99733333 21.84533333-136.53333333 54.61333333-196.608l65.536 65.536h5.46133334c5.46133333 0 10.92266667 0 10.92266666-5.46133334l27.30666667-202.06933333c0-5.46133333-5.46133333-5.46133333-10.92266667-5.46133333l-196.608 27.30666666h-5.46133333c-5.46133333 5.46133333-5.46133333 10.92266667 0 10.92266667l60.07466667 60.07466667c-49.152 70.99733333-76.45866667 158.37866667-76.45866667 245.76 0 234.83733333 191.14666667 431.44533333 431.44533333 431.44533333 21.84533333 0 43.69066667 0 70.99733334-5.46133333 16.384-5.46133333 32.768-21.84533333 27.30666666-38.22933334-5.46133333-21.84533333-21.84533333-32.768-43.69066666-32.768z" fill="#666666" p-id="37382"></path><path d="M288.08533333 632.14933333l212.992 125.61066667 212.992-125.61066667V380.928L501.07733333 260.77866667 288.08533333 380.928v251.22133333z m360.448-43.69066666l-103.76533333 60.07466666v-131.072L648.53333333 457.38666667v131.072zM501.07733333 337.23733333l109.22666667 60.07466667-109.22666667 65.536-109.22666666-65.536 109.22666666-60.07466667zM353.62133333 457.38666667l109.22666667 65.536v136.53333333l-109.22666667-60.07466667V457.38666667z" fill="#666666" p-id="37383"></path></svg>
