<?xml version="1.0" standalone="no"?><!DOCTYPE svg PUBLIC "-//W3C//DTD SVG 1.1//EN" "http://www.w3.org/Graphics/SVG/1.1/DTD/svg11.dtd"><svg t="1628839825573" class="icon" viewBox="0 0 1024 1024" version="1.1" xmlns="http://www.w3.org/2000/svg" p-id="10474" xmlns:xlink="http://www.w3.org/1999/xlink" width="200" height="200"><defs><style type="text/css"></style></defs><path d="M479.232 479.232V118.784c0-9.556992 3.072-17.408 9.216-23.552s13.995008-9.216 23.552-9.216 17.408 3.072 23.552 9.216 9.216 13.995008 9.216 23.552v360.448h360.448c9.556992 0 17.408 3.072 23.552 9.216s9.216 13.995008 9.216 23.552-3.072 17.408-9.216 23.552-13.995008 9.216-23.552 9.216H544.768v360.448c0 9.556992-3.072 17.408-9.216 23.552s-13.995008 9.216-23.552 9.216-17.408-3.072-23.552-9.216-9.216-13.995008-9.216-23.552V544.768H118.784c-9.556992 0-17.408-3.072-23.552-9.216s-9.216-13.995008-9.216-23.552 3.072-17.408 9.216-23.552 13.995008-9.216 23.552-9.216h360.448z" p-id="10475" fill="#8a8a8a"></path></svg>