<?xml version="1.0" encoding="utf-8"?>
<svg version="1.1" xmlns:xlink="http://www.w3.org/1999/xlink" width="14px" height="14px" xmlns="http://www.w3.org/2000/svg">
  <g>
    <path d="M 6.99999999999972 0.0311111111110627  C 10.8328888888886 0.0311111111110627  13.9688888888886 3.16711111111106  13.9688888888886 6.99999999999995  C 13.9688888888886 10.8328888888888  10.8328888888886 13.9688888888888  6.99999999999972 13.9688888888888  C 3.16711111111084 13.9688888888888  0.0311111111108353 10.8328888888888  0.0311111111108353 6.99999999999995  C 0.0311111111108353 3.16711111111106  3.16711111111084 0.0311111111110627  6.99999999999972 0.0311111111110627  Z M 6.99999999999973 1.02666666666662  C 3.71466666666639 1.02666666666662  1.02666666666639 3.71466666666662  1.02666666666639 6.99999999999995  C 1.02666666666639 10.2853333333333  3.71466666666639 12.9733333333333  6.99999999999973 12.9733333333333  C 10.2853333333331 12.9733333333333  12.9733333333331 10.2853333333333  12.9733333333331 6.99999999999995  C 12.9733333333331 3.71466666666662  10.2853333333331 1.02666666666662  6.99999999999973 1.02666666666662  Z M 7.49777777777794 10.6337777777777  L 6.60177777777794 10.6337777777777  L 6.60177777777794 9.68799999999991  L 7.49777777777794 9.68799999999991  L 7.49777777777794 10.6337777777777  Z M 5.40711111111084 3.96355555555555  C 5.60622222222195 3.76444444444444  5.85511111111084 3.6151111111111  6.1537777777775 3.51555555555555  C 6.45244444444417 3.41599999999999  6.75111111111084 3.36622222222222  7.04977777777751 3.36622222222222  C 7.69688888888862 3.36622222222222  8.1946666666664 3.56533333333333  8.64266666666639 3.81422222222222  C 9.04088888888861 4.21244444444444  9.23999999999972 4.71022222222222  9.23999999999972 5.30755555555555  C 9.23999999999972 5.55644444444444  9.19022222222194 5.85511111111111  9.09066666666639 6.05422222222222  C 8.99111111111084 6.25333333333333  8.79199999999972 6.552  8.44355555555528 6.85066666666666  C 8.14488888888862 7.19911111111111  7.89599999999972 7.39822222222222  7.79644444444417 7.54755555555555  C 7.69688888888862 7.69688888888888  7.59733333333306 7.84622222222222  7.54755555555528 8.04533333333333  C 7.48118518518491 8.17807407407407  7.45906172839479 8.33293827160493  7.45168724279808 8.52467489711934  C 7.45168724279808 8.52467489711934  7.44799999999973 8.84177777777777  7.44799999999973 8.84177777777777  C 7.44799999999973 8.84177777777777  6.65155555555528 8.84177777777777  6.65155555555528 8.84177777777777  C 6.65155555555528 8.44355555555555  6.70133333333306 8.14488888888888  6.75111111111084 7.89599999999999  C 6.80088888888862 7.69688888888888  6.90044444444417 7.44799999999999  6.99999999999973 7.29866666666666  C 7.12799999999973 7.17066666666666  7.29257142857116 6.96952380952381  7.52506122448952 6.7265850340136  C 7.52506122448952 6.7265850340136  7.7690158730156 6.47697052154194  7.7690158730156 6.47697052154194  C 8.00063492063465 6.23403174603174  8.15911111111084 6.03288888888888  8.24444444444417 5.90488888888888  C 8.34399999999973 5.75555555555555  8.39377777777751 5.50666666666666  8.39377777777751 5.20799999999999  C 8.39377777777751 4.90933333333333  8.29422222222195 4.66044444444444  8.04533333333306 4.41155555555555  C 7.79644444444417 4.16266666666666  7.4977777777775 4.06311111111111  7.04977777777751 4.06311111111111  C 6.10661988304066 4.06311111111111  5.6102209910739 4.5992219144352  5.56058110187723 5.6714435210834  C 5.56058110187723 5.6714435210834  5.55644444444417 5.8551111111111  5.55644444444417 5.8551111111111  C 5.55644444444417 5.8551111111111  4.75999999999973 5.8551111111111  4.75999999999973 5.8551111111111  C 4.75999999999973 5.30755555555555  4.8097777777775 4.90933333333333  4.90933333333306 4.66044444444444  C 5.00888888888861 4.41155555555555  5.20799999999973 4.16266666666666  5.40711111111084 3.96355555555555  Z " fill-rule="nonzero" fill="#666666" stroke="none" />
  </g>
</svg>