<!-- Generated by IcoMoon.io -->
<svg version="1.1" xmlns="http://www.w3.org/2000/svg" width="32" height="32" viewBox="0 0 32 32">
<title>baocun</title>
<path fill="#8a8a8a" d="M28.914 11.154l-8.068-8.068c-0.362-0.362-0.862-0.586-1.414-0.586h-14.932c-1.105 0-2 0.895-2 2v0 23c0 1.105 0.895 2 2 2v0h23c1.105 0 2-0.895 2-2v0-14.932c-0-0.552-0.224-1.052-0.586-1.414v0zM9 4.5h6v3.5h-6v-3.5zM23 27.5h-14v-4.5h14v4.5zM27.5 27.5h-2.5v-5.5c0-0.552-0.448-1-1-1v0h-16c-0.552 0-1 0.448-1 1v0 5.5h-2.5v-23h2.5v4.5c0 0.552 0.448 1 1 1v0h8c0.552 0 1-0.448 1-1v0-4.5h2.432l8.068 8.068v14.932z"></path>
</svg>
