<?xml version="1.0" standalone="no"?>
        <!DOCTYPE svg PUBLIC "-//W3C//DTD SVG 1.1//EN" "http://www.w3.org/Graphics/SVG/1.1/DTD/svg11.dtd">
        <svg class="icon" width="200px" height="200px" viewBox="0 0 1024 1024" version="1.1" xmlns="http://www.w3.org/2000/svg"><g fill="#666666" transform="matrix(1 0 0 1 0 0) scale(0.8, -0.8) translate(0, -900)"><path d="M925.248 539.072l-258.176 258.176a64 64 0 0 1-45.248 18.752H144a64 64 0 0 1-64-64v-736a64 64 0 0 1 64-64h736a64 64 0 0 1 64 64V493.824a64 64 0 0 1-18.752 45.248zM288 752h192V640H288V752z m448-736H288V160h448v-144z m144 0H800V192a32 32 0 0 1-32 32H256a32 32 0 0 1-32-32v-176H144v736H224V608a32 32 0 0 1 32-32h256a32 32 0 0 1 32 32V752h77.824l258.176-258.176V16z" /></g></svg>