<?xml version="1.0" standalone="no"?>
        <!DOCTYPE svg PUBLIC "-//W3C//DTD SVG 1.1//EN" "http://www.w3.org/Graphics/SVG/1.1/DTD/svg11.dtd">
        <svg class="icon" width="200px" height="200px" viewBox="0 0 1024 1024" version="1.1" xmlns="http://www.w3.org/2000/svg"><g fill="#666666" transform="matrix(1 0 0 1 0 0) scale(0.8, -0.8) translate(0, -900)"><path d="M944.872727-114.036364l-139.636363 139.636364c-18.618182 18.618182-18.618182 46.545455 0 65.163636 18.618182 18.618182 46.545455 18.618182 65.163636 0l139.636364-139.636363c18.618182-18.618182 18.618182-46.545455 0-65.163637-18.618182-18.618182-46.545455-18.618182-65.163637 0zM512 896C228.072727 896 0 663.272727 0 384s228.072727-512 512-512 512 228.072727 512 512S791.272727 896 512 896z m0-926.254545c-228.072727 0-418.909091 186.181818-418.909091 418.90909C93.090909 616.727273 279.272727 802.909091 512 802.909091s418.909091-186.181818 418.909091-418.909091c0-228.072727-190.836364-414.254545-418.909091-414.254545z" /></g></svg>