<!-- Generated by IcoMoon.io -->
<svg version="1.1" xmlns="http://www.w3.org/2000/svg" width="32" height="32" viewBox="0 0 32 32">
<title>setting</title>
<path d="M15.090 3.5l-0.54 2.834-0.645 0.141c-1.18 0.263-2.223 0.707-3.156 1.307l0.038-0.023-0.584 0.37-2.29-1.72-1.395 1.395 1.622 2.388-0.356 0.555c-0.581 0.893-1.030 1.933-1.286 3.047l-0.013 0.065-0.15 0.675-2.835 0.403v1.972l2.834 0.541 0.141 0.645c0.264 1.18 0.707 2.223 1.307 3.157l-0.023-0.038 0.37 0.584-1.72 2.29 1.395 1.395 2.388-1.622 0.555 0.356c0.893 0.581 1.933 1.030 3.047 1.286l0.065 0.013 0.675 0.15 0.403 2.835h1.972l0.541-2.834 0.645-0.141c1.18-0.264 2.223-0.707 3.157-1.307l-0.038 0.023 0.584-0.37 2.29 1.72 1.395-1.395-1.622-2.388 0.356-0.555c0.581-0.893 1.030-1.933 1.286-3.047l0.013-0.065 0.15-0.675 2.835-0.403v-1.973l-2.834-0.541-0.141-0.645c-0.264-1.18-0.707-2.223-1.307-3.156l0.023 0.039-0.37-0.584 1.72-2.29-1.395-1.395-2.388 1.622-0.555-0.356c-0.893-0.581-1.933-1.030-3.047-1.286l-0.065-0.013-0.675-0.15-0.403-2.835h-1.973zM12.83 4.683l0.607-3.183h5.362l0.457 3.207c0.875 0.252 1.714 0.604 2.504 1.049l2.681-1.822 3.792 3.792-1.946 2.59c0.44 0.794 0.786 1.636 1.030 2.513l3.184 0.607v5.362l-3.207 0.457c-0.279 0.956-0.636 1.786-1.079 2.561l0.030-0.057 1.822 2.681-3.792 3.792-2.59-1.946c-0.794 0.44-1.636 0.786-2.513 1.030l-0.607 3.184h-5.362l-0.457-3.207c-0.956-0.279-1.786-0.636-2.561-1.079l0.057 0.030-2.682 1.822-3.792-3.792 1.946-2.59c-0.407-0.72-0.758-1.554-1.010-2.431l-0.020-0.082-3.184-0.607v-5.362l3.207-0.457c0.252-0.874 0.604-1.714 1.049-2.504l-1.822-2.681 3.792-3.792 2.59 1.946c0.72-0.407 1.554-0.758 2.431-1.010l0.082-0.020zM16 22c-3.314 0-6-2.686-6-6s2.686-6 6-6v0c3.314 0 6 2.686 6 6s-2.686 6-6 6v0zM16 20c2.209 0 4-1.791 4-4s-1.791-4-4-4v0c-2.209 0-4 1.791-4 4s1.791 4 4 4v0z"></path>
</svg>
