<?xml version="1.0" encoding="UTF-8"?>
<svg width="58px" height="58px" viewBox="0 0 58 58" version="1.1" xmlns="http://www.w3.org/2000/svg" xmlns:xlink="http://www.w3.org/1999/xlink">
    <title>形状结合</title>
    <g id="新手引导" stroke="none" stroke-width="1" fill="none" fill-rule="evenodd">
        <g id="新手引导-安装Agent（已启用" transform="translate(-1311.000000, -433.000000)" fill="#8ACD54">
            <path d="M1340,433.5 C1355.74012,433.5 1368.5,446.259885 1368.5,462 C1368.5,477.740115 1355.74012,490.5 1340,490.5 C1324.25988,490.5 1311.5,477.740115 1311.5,462 C1311.5,446.259885 1324.25988,433.5 1340,433.5 Z M1340,435.5 C1325.36445,435.5 1313.5,447.364454 1313.5,462 C1313.5,476.635546 1325.36445,488.5 1340,488.5 C1354.63555,488.5 1366.5,476.635546 1366.5,462 C1366.5,447.364454 1354.63555,435.5 1340,435.5 Z M1351,456.705995 L1336.76215,470 L1328,461.84024 L1329.82481,460.127991 L1336.75959,466.586759 L1349.17519,455 L1351,456.705995 Z" id="形状结合"></path>
        </g>
    </g>
</svg>