<?xml version="1.0" standalone="no"?><!DOCTYPE svg PUBLIC "-//W3C//DTD SVG 1.1//EN" "http://www.w3.org/Graphics/SVG/1.1/DTD/svg11.dtd"><svg class="icon" width="200px" height="200.00px" viewBox="0 0 1024 1024" version="1.1" xmlns="http://www.w3.org/2000/svg"><path fill="#333333" d="M690.176 584.448a145.749333 145.749333 0 0 0-17.493333-36.096c8.533333-9.898667 37.802667-46.677333 16.64-64.853333l-10.752-9.813334c-18.005333-15.530667-64 8.704-75.264 15.018667a199.082667 199.082667 0 0 0-42.410667-15.104c-2.389333-12.288-12.885333-55.381333-42.581333-55.381333h-11.861334c-25.429333 0-40.106667 44.544-43.264 55.722666a198.826667 198.826667 0 0 0-41.813333 15.104c-10.325333-6.570667-54.442667-32.853333-75.946667-14.250666l-11.434666 8.277333c-18.773333 16.128 12.373333 58.709333 18.090666 66.218667-7.168 11.093333-12.970667 22.954667-16.981333 35.498666-12.373333 1.706667-65.450667 10.496-65.450667 36.778667v10.24c0 22.784 55.637333 35.498667 65.792 37.546667 4.010667 12.458667 9.813333 24.234667 17.066667 35.242666-5.973333 8.106667-35.925333 50.517333-17.322667 66.56l10.752 7.68c24.490667 21.077333 75.605333-13.482667 75.605334-13.482666l-2.389334-2.218667c13.653333 6.997333 28.416 12.458667 43.690667 16.213333 2.56 8.874667 17.237333 56.576 43.605333 56.576h11.946667c34.56 0 43.093333-55.637333 43.093333-55.637333h-3.157333a200.533333 200.533333 0 0 0 44.373333-15.36c10.752 6.144 55.978667 30.634667 74.069334 15.018667l11.946666-10.325334c24.234667-20.821333-15.018667-63.317333-16.213333-64.512a146.773333 146.773333 0 0 0 17.578667-36.096c13.568-2.901333 64.256-15.445333 64.256-37.205333v-10.24c0-28.842667-60.416-36.693333-64.170667-37.12z m-178.090667 127.146667c-54.186667 0-98.133333-37.802667-98.133333-84.48 0-46.677333 43.946667-84.48 98.133333-84.48 54.186667 0 98.133333 37.802667 98.133334 84.48 0 46.677333-43.946667 84.48-98.133334 84.48z m391.253334-569.856v-55.125334C903.338667 32.426667 863.573333 0 797.098667 0c-66.56 0-106.24 32.426667-106.24 86.613333v55.125334h-72.021334v-55.125334C618.837333 32.426667 579.157333 0 512.682667 0c-66.56 0-106.24 32.426667-106.24 86.613333v55.125334h-72.021334v-55.125334C334.421333 32.426667 294.741333 0 228.181333 0 161.706667 0 122.026667 32.426667 122.026667 86.613333v55.125334H0V1024h1024V141.653333h-120.661333z m-155.562667-55.125334c0-26.709333 14.250667-37.546667 49.322667-37.546666 35.157333 0 49.322667 10.837333 49.322666 37.546666v147.370667c0 26.709333-14.165333 37.546667-49.322666 37.546667-35.072 0-49.322667-10.837333-49.322667-37.546667V86.613333z m-284.416 0c0-26.709333 14.165333-37.546667 49.322667-37.546666 35.072 0 49.322667 10.837333 49.322666 37.546666v147.370667c0 26.709333-14.250667 37.546667-49.322666 37.546667-35.157333 0-49.322667-10.837333-49.322667-37.546667V86.613333z m-284.501333 0c0-26.709333 14.250667-37.546667 49.322666-37.546666 35.072 0 49.408 10.837333 49.408 37.546666v147.370667c0 26.709333-14.336 37.546667-49.408 37.546667-35.072 0-49.322667-10.837333-49.322666-37.546667V86.613333zM938.666667 950.613333H85.333333v-612.693333h853.333334v612.693333z" /></svg>