<?xml version="1.0" standalone="no"?><!DOCTYPE svg PUBLIC "-//W3C//DTD SVG 1.1//EN" "http://www.w3.org/Graphics/SVG/1.1/DTD/svg11.dtd"><svg class="icon" width="200px" height="200.00px" viewBox="0 0 1024 1024" version="1.1" xmlns="http://www.w3.org/2000/svg"><path d="M183.532308 138.003692a118.153846 118.153846 0 0 0 104.448 141.154462l11.342769 0.551384h425.353846a118.153846 118.153846 0 0 0 115.790769-141.784615H905.846154a78.769231 78.769231 0 0 1 78.769231 78.769231v693.169231a78.769231 78.769231 0 0 1-78.769231 78.76923H118.153846a78.769231 78.769231 0 0 1-78.769231-78.76923v-693.169231a78.769231 78.769231 0 0 1 78.769231-78.769231h65.378462zM748.307692 704.984615H275.692308a47.261538 47.261538 0 1 0 0 94.523077h472.615384a47.261538 47.261538 0 1 0 0-94.523077z m0-189.046153H275.692308a47.261538 47.261538 0 1 0 0 94.523076h472.615384a47.261538 47.261538 0 1 0 0-94.523076z" fill="#666666" /><path d="M579.111385 43.323077l98.934153 70.892308a65.220923 65.220923 0 0 1-37.966769 118.153846H385.024a65.142154 65.142154 0 0 1-37.809231-118.153846l99.721846-70.892308h132.17477zM512 90.584615a47.261538 47.261538 0 1 0 0 94.523077 47.261538 47.261538 0 0 0 0-94.523077z" fill="#9B9B9B" /></svg>