<?xml version="1.0" standalone="no"?><!DOCTYPE svg PUBLIC "-//W3C//DTD SVG 1.1//EN" "http://www.w3.org/Graphics/SVG/1.1/DTD/svg11.dtd"><svg t="1634815537825" class="icon" viewBox="0 0 1433 1024" version="1.1" xmlns="http://www.w3.org/2000/svg" p-id="3555" xmlns:xlink="http://www.w3.org/1999/xlink" width="89.5625" height="64"><defs><style type="text/css"></style></defs><path d="M108.1344 921.6l93.3888-245.76h403.0464L697.9584 921.6h109.3632L462.0288 44.2368h-116.736L0 921.6h108.1344z m464.4864-330.5472H233.472l168.3456-438.6816h4.9152l165.888 438.6816z m497.664 347.7504A322.56 322.56 0 0 0 1228.8 899.4816c39.3216-22.1184 72.4992-50.3808 97.0752-84.7872V921.6h92.16V513.6384c0-73.728-19.6608-131.4816-56.5248-173.2608-44.2368-47.9232-110.592-71.2704-201.5232-71.2704-76.1856 0-136.3968 14.7456-183.0912 44.2368-51.6096 31.9488-84.7872 82.3296-98.304 148.6848l97.0752 7.3728c9.8304-40.5504 30.72-71.2704 63.8976-90.9312 29.4912-19.6608 67.584-28.2624 114.2784-28.2624 110.592 0 165.888 52.8384 165.888 159.744v33.1776l-152.3712 2.4576c-95.8464 1.2288-169.5744 19.6608-221.184 54.0672-58.9824 36.864-87.2448 90.9312-87.2448 163.4304 0 51.6096 19.6608 94.6176 58.9824 127.7952 38.0928 31.9488 88.4736 47.9232 152.3712 47.9232z m20.8896-77.4144c-39.3216 0-71.2704-9.8304-95.8464-28.2624a87.3472 87.3472 0 0 1-35.6352-72.4992c0-92.16 71.2704-138.8544 213.8112-141.312l146.2272-2.4576v54.0672c0 49.152-23.3472 93.3888-68.8128 131.4816a240.3328 240.3328 0 0 1-159.744 58.9824z" fill="#2C65FF" p-id="3556"></path></svg>