<?xml version="1.0" standalone="no"?><!DOCTYPE svg PUBLIC "-//W3C//DTD SVG 1.1//EN" "http://www.w3.org/Graphics/SVG/1.1/DTD/svg11.dtd"><svg t="1628835835386" class="icon" viewBox="0 0 1024 1024" version="1.1" xmlns="http://www.w3.org/2000/svg" p-id="2562" xmlns:xlink="http://www.w3.org/1999/xlink" width="200" height="200"><defs><style type="text/css"></style></defs><path d="M515.434022 0C797.22567 0 1023.99872 226.77305 1023.99872 515.434022A507.412699 507.412699 0 0 1 515.434022 1023.99872C233.663708 1023.99872 0 797.22567 0 515.434022 0 233.663708 226.77305 0 515.434022 0zM501.332707 234.666373a31.99996 31.99996 0 0 0-31.99996 31.99996V575.99928a21.333307 21.333307 0 0 0 21.333306 21.333307h309.332947a31.99996 31.99996 0 0 0 0-63.99992H554.665973a21.333307 21.333307 0 0 1-21.333306-21.333307V266.666333a31.99996 31.99996 0 0 0-31.99996-31.99996z" fill="#8a8a8a" p-id="2563"></path></svg>