<?xml version="1.0" standalone="no"?><!DOCTYPE svg PUBLIC "-//W3C//DTD SVG 1.1//EN" "http://www.w3.org/Graphics/SVG/1.1/DTD/svg11.dtd"><svg t="1628839038064" class="icon" viewBox="0 0 1024 1024" version="1.1" xmlns="http://www.w3.org/2000/svg" p-id="8565" xmlns:xlink="http://www.w3.org/1999/xlink" width="200" height="200"><defs><style type="text/css"></style></defs><path d="M512 53.248c129.707008 3.412992 237.739008 48.299008 324.096 134.656S967.339008 382.292992 970.752 512c-3.412992 129.707008-48.299008 237.739008-134.656 324.096S641.707008 967.339008 512 970.752c-129.707008-3.412992-237.739008-48.299008-324.096-134.656S56.660992 641.707008 53.248 512c3.412992-129.707008 48.299008-237.739008 134.656-324.096S382.292992 56.660992 512 53.248z m0 851.968c111.275008-2.731008 203.947008-41.131008 278.016-115.2S902.484992 623.275008 905.216 512c-2.731008-111.275008-41.131008-203.947008-115.2-278.016S623.275008 121.515008 512 118.784c-111.275008 2.731008-203.947008 41.131008-278.016 115.2S121.515008 400.724992 118.784 512c2.731008 111.275008 41.131008 203.947008 115.2 278.016S400.724992 902.484992 512 905.216z m49.152-180.224c-0.683008 13.652992-5.632 25.088-14.848 34.304S525.652992 773.12 512 773.12c-13.652992 0-25.088-4.608-34.304-13.824S463.872 738.644992 463.872 724.992c0-13.652992 4.608-25.088 13.824-34.304S498.347008 676.864 512 676.864c13.652992 0 25.088 4.608 34.304 13.824s14.164992 20.651008 14.848 34.304z m-49.152-475.136c9.556992 0 17.408 3.072 23.552 9.216s9.216 13.995008 9.216 23.552v294.912c0 9.556992-3.072 17.408-9.216 23.552s-13.995008 9.216-23.552 9.216-17.408-3.072-23.552-9.216-9.216-13.995008-9.216-23.552V282.624c0-9.556992 3.072-17.408 9.216-23.552s13.995008-9.216 23.552-9.216z" p-id="8566" fill="#8a8a8a"></path></svg>