<!-- Generated by IcoMoon.io -->
<svg version="1.1" xmlns="http://www.w3.org/2000/svg" width="32" height="32" viewBox="0 0 32 32">
<title>warning-outline</title>
<path fill="#8a8a8a" d="M16 2q5.938 0.156 9.891 4.109t4.109 9.891q-0.156 5.938-4.109 9.891t-9.891 4.109q-5.938-0.156-9.891-4.109t-4.109-9.891q0.156-5.938 4.109-9.891t9.891-4.109zM16 28q5.094-0.125 8.484-3.516t3.516-8.484q-0.125-5.094-3.516-8.484t-8.484-3.516q-5.094 0.125-8.484 3.516t-3.516 8.484q0.125 5.094 3.516 8.484t8.484 3.516zM17.5 22.5q-0.031 0.625-0.453 1.047t-1.047 0.422-1.047-0.422-0.422-1.047 0.422-1.047 1.047-0.422 1.047 0.422 0.453 1.047zM16 8q0.438 0 0.719 0.281t0.281 0.719v9q0 0.438-0.281 0.719t-0.719 0.281-0.719-0.281-0.281-0.719v-9q0-0.438 0.281-0.719t0.719-0.281z"></path>
</svg>
