<?xml version="1.0" standalone="no"?><!DOCTYPE svg PUBLIC "-//W3C//DTD SVG 1.1//EN" "http://www.w3.org/Graphics/SVG/1.1/DTD/svg11.dtd"><svg class="icon" width="200px" height="200.00px" viewBox="0 0 1024 1024" version="1.1" xmlns="http://www.w3.org/2000/svg"><path fill="#333333" d="M953.344 81.578667v672.170666H70.656V81.749333h882.688zM0 753.749333c0 44.629333 31.573333 80.981333 70.656 80.981334h882.688c39.082667 0 70.656-36.266667 70.656-80.981334V81.664c0-44.629333-31.573333-80.981333-70.656-80.981333H70.656C31.573333 0.682667 0 36.949333 0 81.664v672.085333zM840.789333 1024c19.456 0 35.242667-18.090667 35.242667-40.448v-1.877333c0-22.357333-15.786667-40.448-35.242667-40.448H183.210667c-19.456 0-35.242667 18.090667-35.242667 40.448v1.877333c0 22.357333 15.786667 40.448 35.242667 40.448h657.578666z m-364.885333-81.834667h70.570667V834.730667h-68.949334l-1.706666 107.349333z" /></svg>