<?xml version="1.0" encoding="UTF-8"?>
<svg width="24px" height="24px" viewBox="0 0 24 24" version="1.1" xmlns="http://www.w3.org/2000/svg" xmlns:xlink="http://www.w3.org/1999/xlink">
    <title>Ag</title>
    <g id="任务管理" stroke="none" stroke-width="1" fill="none" fill-rule="evenodd">
        <g id="JS/java脚本设置" transform="translate(-161.000000, -681.000000)">
            <g id="Ag" transform="translate(161.000000, 681.000000)">
                <rect id="矩形" fill-opacity="0" fill="#D8D8D8" x="0" y="0" width="24" height="24"></rect>
                <path d="M2.408,18 L3.624,14.8 L8.872,14.8 L10.088,18 L11.512,18 L7.016,6.576 L5.496,6.576 L1,18 L2.408,18 Z M8.456,13.696 L4.04,13.696 L6.232,7.984 L6.296,7.984 L8.456,13.696 Z M16.7333333,21.392 C19.2453333,21.392 20.5093333,20.064 20.5093333,17.424 L20.5093333,9.728 L19.2293333,9.728 L19.2293333,11.152 C18.6213333,10.048 17.6933333,9.504 16.4453333,9.504 C15.2933333,9.504 14.3813333,9.904 13.7093333,10.72 C13.0373333,11.488 12.7173333,12.464 12.7173333,13.68 C12.7173333,14.88 13.0373333,15.856 13.7093333,16.624 C14.3813333,17.408 15.2933333,17.808 16.4453333,17.808 C17.6933333,17.808 18.6213333,17.248 19.2293333,16.144 L19.2293333,17.6 C19.2293333,19.424 18.3973333,20.352 16.7333333,20.352 C15.9813333,20.352 15.4213333,20.208 15.0533333,19.936 C14.6853333,19.68 14.4453333,19.264 14.3493333,18.704 L13.0693333,18.704 C13.2133333,19.6 13.5813333,20.272 14.1733333,20.72 C14.7493333,21.168 15.6133333,21.392 16.7333333,21.392 Z M16.6213333,16.736 C15.7253333,16.736 15.0693333,16.416 14.6213333,15.808 C14.2213333,15.264 14.0293333,14.544 14.0293333,13.68 C14.0293333,12.752 14.2533333,12 14.7013333,11.456 C15.1653333,10.848 15.8053333,10.56 16.6373333,10.56 C17.4533333,10.56 18.0933333,10.848 18.5733333,11.456 C19.0213333,12 19.2453333,12.752 19.2453333,13.68 C19.2453333,14.576 19.0213333,15.312 18.5733333,15.872 C18.0933333,16.448 17.4533333,16.736 16.6213333,16.736 Z" fill="#2C65FF" fill-rule="nonzero"></path>
            </g>
        </g>
    </g>
</svg>
