<?xml version="1.0" standalone="no"?>
<!DOCTYPE svg PUBLIC "-//W3C//DTD SVG 1.1//EN" "http://www.w3.org/Graphics/SVG/1.1/DTD/svg11.dtd" >
<!--
2013-9-30: Created.
-->
<svg>
<metadata>
Created by iconfont
</metadata>
<defs>

<font id="iconfont" horiz-adv-x="1024" >
  <font-face
    font-family="iconfont"
    font-weight="500"
    font-stretch="normal"
    units-per-em="1024"
    ascent="896"
    descent="-128"
  />
    <missing-glyph />
    
    <glyph glyph-name="tishi1" unicode="&#58923;" d="M935.39733333 384c0 232.9952-188.88 421.8752-421.8752 421.8752s-421.8752-188.88-421.8752-421.8752 188.88-421.8752 421.8752-421.8752 421.8752 188.88 421.8752 421.8752zM853.72053333 527.68746667c19.23733333-45.4816 28.99306667-93.82506667 28.99306667-143.68746667s-9.75146667-98.20586667-28.99306667-143.68746667c-18.592-43.95733333-45.21706667-83.4432-79.14133333-117.36746666-33.92426667-33.92426667-73.4112-60.54933333-117.36746667-79.14133334-45.4816-19.23733333-93.82506667-28.99306667-143.68746666-28.99306666s-98.20586667 9.75146667-143.68746667 28.99306666c-43.95733333 18.592-83.4432 45.21706667-117.36746667 79.14133334-33.92426667 33.92426667-60.54933333 73.4112-79.14133333 117.36746666-19.23733333 45.4816-28.99306667 93.82506667-28.99306667 143.68746667s9.75253333 98.20586667 28.99306667 143.68746667c18.58666667 43.95733333 45.2128 83.4432 79.13706667 117.36746666 33.92426667 33.92426667 73.4112 60.54933333 117.36746666 79.14133334 45.4816 19.23733333 93.82293333 28.99306667 143.68746667 28.99306666s98.20586667-9.75146667 143.68746667-28.99306666c43.95733333-18.592 83.4432-45.21706667 117.36746666-79.14133334 33.92426667-33.92426667 60.54933333-73.4112 79.1456-117.36746666zM481.93066667 562.09173333c0-17.64586667 14.30506667-31.95093333 31.94986666-31.95093333s31.95093333 14.30506667 31.95093334 31.95093333c0 17.64586667-14.30506667 31.94986667-31.95093334 31.94986667-17.64586667 0-31.94986667-14.30506667-31.94986666-31.94986667zM514.47146667 480.82666667c0 0 0 0 0 0 15.15413333 0 27.44-12.28373333 27.44-27.44v-243.96693334c0-15.15413333-12.28373333-27.44-27.44-27.44-15.15413333 0-27.44 12.28373333-27.44 27.44v243.96693334c0 15.15413333 12.28373333 27.44 27.44 27.44 0 0 0 0 0 0z"  horiz-adv-x="1031" />

    
    <glyph glyph-name="zanwushuju1" unicode="&#58904;" d="M350.840717-18.533317h7.784298l2.310963 6.203112 6.203112-1.581186-1.581185-4.621926h27.974819v-6.203113h-30.407412l-2.310964-8.514075h10.946669v7.05452h6.203112v-7.05452h15.568595v-6.203112h-15.568595v-6.203112h15.568595v-6.203112h-15.568595v-7.054519h-6.203112v7.054519h-20.190522v6.203112h20.190522v6.203112h-19.460744l4.621927 14.838817h-5.473334c-0.608148-0.851408-0.608148 6.081482-0.608149 6.081483z m15.568595-80.883716c-5.473334 0-10.095261 4.621927-10.09526 10.095261v15.568595c0 5.473334 4.621927 10.095261 10.09526 10.09526h56.071268c5.473334 0 10.095261-4.621927 10.09526-10.09526v-15.568595c0-5.473334-4.621927-10.095261-10.09526-10.095261h-56.071268z m-3.040741 21.771707h63.004157v4.621927c0 2.310963-1.581185 3.892149-3.892148 3.892148h-56.071268c-2.310963 0-3.892149-1.581185-3.892148-3.892148l0.851407-4.621927z m59.112009-14.838817c2.310963 0 3.892149 1.581185 3.892148 3.892149v4.621926h-63.855564v-4.621926c0-2.310963 1.581185-3.892149 3.892148-3.892149h56.071268z m14.838817 72.49127h-26.515263c-3.162371 0-5.473334-2.310963-5.473335-5.473334v-4.621927h32.718375v-6.203112h-6.203112V-61.225324h-6.203112v24.934078h-20.190521l-0.729778-23.352892h-6.203112l0.729778 35.029338c0 6.203112 5.473334 11.676446 11.676446 11.676446h26.515263v-7.054519z m16.298372 4.621926h73.221048v-6.203112h-34.299561c-0.729778-8.514075-1.581185-16.298373-3.16237-22.623114h41.23245v-6.203112h-28.826226v-36.610524c0-3.162371 2.310963-5.473334 5.473334-5.473334h25.663855v-6.203112h-25.663855c-6.203112 0-11.676446 5.473334-11.676446 11.676446v36.610524h-7.784298c-7.05452-22.623114-19.460744-36.610524-37.340301-49.016748l-3.892149 5.473334c16.298373 10.946668 27.974819 23.352892 34.29956 43.543414h-31.137189V-44.197173h32.718375c1.581185 7.05452 3.162371 13.987409 3.892148 22.623114h-32.718375v6.203112z m107.398979-43.543413l-1.581186-4.621927H586.802233v-6.203112h-5.473334c-1.581185-7.05452-5.473334-13.257632-10.946668-17.14978l13.257631-5.473334-2.310963-6.203112-17.879558 7.054519c-6.203112-3.162371-13.257632-5.473334-21.771707-7.054519l-0.729778 6.203112c5.473334 0.729778 10.095261 2.310963 14.838817 3.892148l-1.581185 0.729778c-4.621927 1.581185-7.05452 5.473334-7.05452 10.095261 0 1.581185 0 3.892149 0.729778 5.473334l0.729778 2.310963h-8.514075V-63.657917h10.946668l2.310963 7.05452c1.459556-0.851408 7.662668-2.310963 7.662668-2.310963z m5.473334 46.705784v-17.879558h18.730966v-6.203112h-18.730966v-20.190521h-6.203112v20.190521h-18.730966v6.203112h18.730966v17.879558h6.203112z m-24.08267-42.813636l5.473334 17.149781 6.203112-2.310964-5.473334-17.14978-6.203112 2.310963z m6.203112 41.232451l5.473334-13.257632-6.203112-2.310963-5.473334 13.257631 6.203112 2.310964z m8.514075-68.477492l6.203112-3.16237c5.473334 3.892149 9.365483 8.514075 10.946668 14.838816H556.394821l-1.581185-4.621926c-0.729778-1.581185-0.729778-2.310963-0.729778-3.162371 0.729778-1.581185 1.581185-3.162371 3.040741-3.892149z m21.041929 25.663856l-5.473334 17.14978 6.203112 2.310963 5.473334-17.14978-6.203112-2.310963z m6.203112 40.502672l-5.473334-13.257631-6.203112 2.310963 5.473334 13.257632 6.203112-2.310964z m11.676446-21.893336l12.406224-22.623114c3.162371 8.514075 6.203112 19.460744 8.514076 31.866967h-27.245041l2.310963 15.568595 6.203112-0.729778-1.581186-8.514075h29.556005v-6.203112h-3.892149c-3.162371-15.568595-7.05452-28.826226-10.946668-38.921487l15.568595-27.974819-5.473334-3.162371-13.257632 24.08267c-4.621927-10.095261-10.946668-17.879558-17.14978-24.08267l-4.621927 4.621927c6.203112 7.05452 12.406224 15.568595 17.879558 27.245041l-14.838817 26.515263c1.216296-0.729778 6.568001 2.310963 6.568001 2.310963z m43.665044-55.21986h4.621926c3.162371 0 5.473334 2.310963 5.473334 5.473334v17.879558l-10.09526-5.473334-3.162371 5.473334 13.257631 7.784298v30.407412h-11.676446v6.203112h11.676446v12.406224h6.203112v-12.406224h7.05452v-6.203112h-7.05452v-26.515263l7.784298 4.621926 3.162371-5.473334-10.946669-6.203112v-21.771707c0-6.203112-5.473334-11.676446-11.676446-11.676446h-4.621926v5.473334z m26.393633-6.203112l2.310963 75.532011c0 5.473334 4.621927 10.095261 10.095261 10.095261h34.299561c5.473334 0 10.095261-4.621927 10.09526-10.095261v-6.203112c0-5.473334-4.621927-10.095261-10.09526-10.095261h-38.921488l-2.310963-59.112008h-5.473334z m8.635705 65.315121h38.921487c2.310963 0 3.892149 1.581185 3.892149 3.892148v6.203112c0 2.310963-1.581185 3.892149-3.892149 3.892149h-34.29956c-2.310963 0-3.892149-1.581185-3.892149-3.892149l-0.729778-10.09526z m29.556004-8.514076v-10.09526H723.027438v-6.203112h-18.730966v-10.095261h8.514076c4.621927 0 8.514075-3.892149 8.514075-8.514075V-91.632735c0-4.621927-3.892149-8.514075-8.514075-8.514076h-24.082671c-4.621927 0-8.514075 3.892149-8.514075 8.514076v13.987409c0 4.621927 3.892149 8.514075 8.514075 8.514075h8.514076v10.095261h-19.460744V-52.711248h19.460744v10.09526h7.054519z m10.946669-35.029338c0 0.729778-0.729778 2.310963-2.310964 2.310963h-24.08267c-0.729778 0-2.310963-0.729778-2.310963-2.310963V-91.632735c0-0.729778 0.729778-2.310963 2.310963-2.310964h24.08267c0.729778 0 2.310963 0.729778 2.310964 2.310964v13.987409z m0 0M367.26072 200.278418c-10.946668 0-20.190521 8.514075-20.190522 19.460743V679.742487c0 10.946668 9.365483 19.460744 20.190522 19.460744h356.496496c10.946668 0 20.190521-8.514075 20.190521-19.460744v-366.591757c0-1.581185 0-1.581185-18.730965-20.190521L631.075425 200.278418H367.26072z m0 0M712.810548 715.623233c8.514075 0 15.568595-7.05452 15.568594-14.838817V325.556955l-112.142534-110.56135H347.799976c-8.514075 0-15.568595 7.05452-15.568595 14.838817V700.784416c0 8.514075 7.05452 14.838817 15.568595 14.838817h365.010572m0 9.243853H347.799976c-13.987409 0-24.934078-10.946668-24.934077-24.08267V230.68583c0-13.257632 10.946668-24.08267 24.934077-24.08267h271.720632l3.162371 3.16237 56.071267 55.21986 38.921487 38.191709 12.406224 12.406224c7.05452 7.05452 7.784297 7.784297 7.784298 10.946669V700.784416c-0.12163 13.257632-11.798076 24.08267-25.055707 24.08267z m0 0M661.482836 640.091222H431.116285c-3.162371 0-6.203112-2.310963-6.203112-6.203112v-3.162371c0-3.162371 2.310963-6.203112 6.203112-6.203112h230.366551c3.162371 0 6.203112 2.310963 6.203112 6.203112v3.162371c0 3.892149-3.040741 6.203112-6.203112 6.203112z m0-99.614681H431.116285c-3.162371 0-6.203112-2.310963-6.203112-6.203112v-2.310963c0-3.162371 2.310963-6.203112 6.203112-6.203112h230.366551c3.162371 0 6.203112 2.310963 6.203112 6.203112v3.162371c0 3.040741-3.040741 5.351704-6.203112 5.351704z m0 0M619.398979 208.062715v114.453498h117.494239l-117.494239-114.453498z m0 0M619.398979 203.440789h-1.581186c-1.581185 0.729778-3.162371 2.310963-3.162371 3.892148v115.183276c0 2.310963 2.310963 4.621927 4.621927 4.621927h117.494239c1.581185 0 3.892149-0.729778 3.892149-3.162371 0.729778-1.581185 0-3.892149-0.729778-4.621927l-116.764461-114.453498c-1.337926-0.729778-2.189334-1.459556-3.770519-1.459555z m4.743556 115.183276v-99.614681l101.925644 99.614681h-101.925644z m-161.159283 109.709941c0-8.514075 4.621927-15.568595 11.676446-20.190521 7.05452-3.892149 16.298373-3.892149 23.352893 0 7.05452 3.892149 11.676446 11.676446 11.676446 20.190521 0 8.514075-4.621927 15.568595-11.676446 20.190522-7.05452 3.892149-16.298373 3.892149-23.352893 0-7.05452-4.621927-11.676446-12.406224-11.676446-20.190522z m117.494239 0c0-8.514075 4.621927-15.568595 11.676447-20.190521 7.05452-3.892149 16.298373-3.892149 23.352892 0 7.05452 3.892149 11.676446 11.676446 11.676446 20.190521 0 8.514075-4.621927 15.568595-11.676446 20.190522-7.05452 3.892149-16.298373 3.892149-23.352892 0-6.93289-4.621927-11.676446-12.406224-11.676447-20.190522zM545.448153 318.624065c-12.406224 0-24.08267 4.986816-37.340302 14.230668-2.310963 1.459556-2.310963 4.986816-0.729778 7.05452 2.310963 2.189334 5.473334 2.189334 7.784298 0.729778 19.704003-14.717187 40.989191-14.717187 59.963416 0 2.310963 1.459556 5.473334 1.459556 7.784297-0.729778 1.581185-2.189334 1.581185-4.986816-0.729778-7.05452-12.527854-9.973631-24.2043-14.230669-36.732153-14.230668m298.965673-170.524766H234.076256c-2.310963 0-4.621927 2.310963-4.621927 4.621927s2.310963 4.621927 4.621927 4.621926h610.33757c2.310963 0 4.621927-2.310963 4.621926-4.621926s-2.310963-4.621927-4.621926-4.621927z m144.009502 0h-121.386388c-2.310963 0-4.621927 2.310963-4.621926 4.621927s2.310963 4.621927 4.621926 4.621926h121.386388c2.310963 0 4.621927-2.310963 4.621927-4.621926s-2.310963-4.621927-4.621927-4.621927z m-775.267371 0h-91.100606c-2.310963 0-4.621927 2.310963-4.621927 4.621927s2.310963 4.621927 4.621927 4.621926h91.100606c2.310963 0 4.621927-2.310963 4.621926-4.621926s-2.310963-4.621927-4.621926-4.621927z m580.659936-41.23245H338.434493c-2.310963 0-4.621927 2.310963-4.621926 4.621926s2.310963 4.621927 4.621926 4.621927h455.3814c2.310963 0 4.621927-2.310963 4.621926-4.621927 0-3.040741-2.310963-4.621927-4.621926-4.621926z m-477.153106 0H255.969593c-2.310963 0-4.621927 2.310963-4.621927 4.621926s2.310963 4.621927 4.621927 4.621927h60.693194c2.310963 0 4.621927-2.310963 4.621926-4.621927 0-3.040741-2.310963-4.621927-4.621926-4.621926zM100.283644 148.099299h-45.124599c-2.310963 0-4.621927 2.310963-4.621927 4.621927s2.310963 4.621927 4.621927 4.621926h45.976007c2.310963 0 4.621927-2.310963 4.621926-4.621926-0.12163-2.310963-2.432593-4.621927-5.473334-4.621927z m0 0M142.245872 270.337095c0-9.365483 4.621927-17.14978 13.257632-21.771707 7.784297-4.621927 17.879558-4.621927 25.663856 0 7.784297 4.621927 13.257632 13.257632 13.257631 21.771707 0 9.365483-4.621927 17.14978-13.257631 21.771707-7.784297 4.621927-17.879558 4.621927-25.663856 0-7.784297-4.621927-13.257632-13.257632-13.257632-21.771707z m0 0M167.909728 239.929683c-17.14978 0-30.407412 13.257632-30.407412 29.556004s13.987409 29.556004 30.407412 29.556004c17.14978 0 30.407412-13.257632 30.407412-29.556004s-13.257632-29.556004-30.407412-29.556004z m0 50.597933c-11.676446 0-21.041929-9.365483-21.041929-21.041929 0-11.676446 9.365483-21.041929 21.041929-21.041929 11.676446 0 21.041929 9.365483 21.041929 21.041929 0.851408 11.798076-8.514075 21.041929-21.041929 21.041929z m0 0M142.245872 710.879677c0-11.676446 9.365483-21.041929 21.041929-21.041929 11.676446 0 21.041929 9.365483 21.041929 21.041929 0 7.784297-3.892149 13.987409-10.946668 17.879558-6.203112 3.892149-14.838817 3.892149-21.041929 0-6.203112-3.892149-10.095261-10.825039-10.095261-17.879558z m0 0M164.017579 685.215821c-13.987409 0-25.663856 11.676446-25.663855 25.663856 0 13.987409 11.676446 25.663856 25.663855 25.663855 13.987409 0 25.663856-11.676446 25.663856-25.663855 0.12163-13.987409-11.554816-25.663856-25.663856-25.663856z m0 42.083858c-9.365483 0-16.298373-7.05452-16.298372-16.298372 0-9.365483 7.784297-16.298373 16.298372-16.298373 9.365483 0 16.298373 7.05452 16.298373 16.298373 0.12163 8.514075-7.662668 16.298373-16.298373 16.298372z m0 0M631.926832 840.90177c0-11.676446 9.365483-21.041929 21.041929-21.041929 11.676446 0 21.041929 9.365483 21.041929 21.041929 0 11.676446-9.365483 21.041929-21.041929 21.041929-11.676446 0-21.041929-9.365483-21.041929-21.041929z m0 0M652.968761 815.237914c-13.987409 0-25.663856 11.676446-25.663855 25.663856 0 13.987409 11.676446 25.663856 25.663855 25.663855 13.987409 0 25.663856-11.676446 25.663856-25.663855 0-13.987409-11.676446-25.663856-25.663856-25.663856z m0 41.962229c-9.365483 0-16.298373-7.05452-16.298373-16.298373 0-9.365483 7.784297-16.298373 16.298373-16.298373s16.298373 7.05452 16.298373 16.298373c0 8.635705-7.05452 16.298373-16.298373 16.298373z m0 0M232.6167 671.95819c0-4.621927 2.310963-9.365483 7.05452-11.676446 3.892149-2.310963 9.365483-2.310963 13.257631 0s7.05452 7.05452 7.05452 11.676446-2.310963 9.365483-7.05452 11.676446c-3.892149 2.310963-9.365483 2.310963-13.257631 0-4.743556-2.310963-7.05452-6.93289-7.05452-11.676446z m0 0M245.752702 656.389595c-8.514075 0-15.568595 7.05452-15.568595 15.568595 0 8.514075 7.05452 15.568595 15.568595 15.568595 8.514075 0 15.568595-7.05452 15.568595-15.568595 0-8.514075-6.93289-15.568595-15.568595-15.568595z m0 26.515263c-6.203112 0-10.946668-4.621927-10.946668-10.946668 0-6.203112 4.621927-10.946668 10.946668-10.946668 6.203112 0 10.946668 4.621927 10.946668 10.946668s-4.621927 10.946668-10.946668 10.946668z m501.357406-422.663024c0-4.621927 2.310963-9.365483 7.05452-11.676446 3.892149-2.310963 9.365483-2.310963 13.257631 0s7.05452 7.05452 7.05452 11.676446-2.310963 9.365483-7.05452 11.676446c-3.892149 2.310963-9.365483 2.310963-13.257631 0-4.743556-2.310963-7.05452-7.05452-7.05452-11.676446z m0 0M417.858653 851.848438c0-4.621927 2.310963-9.365483 7.05452-11.676446 3.892149-2.310963 9.365483-2.310963 13.257631 0 3.892149 3.162371 6.203112 7.05452 6.203112 11.676446s-2.310963 9.365483-7.054519 11.676446c-3.892149 2.310963-9.365483 2.310963-13.257632 0-3.892149-2.432593-6.203112-7.05452-6.203112-11.676446z m0 0M431.116285 837.009621c-8.514075 0-15.568595 7.05452-15.568595 15.568595 0 8.514075 7.05452 15.568595 15.568595 15.568595 8.514075 0 15.568595-7.05452 15.568594-15.568595 0-8.514075-7.05452-15.568595-15.568594-15.568595z m0 25.663856c-6.203112 0-10.946668-4.621927-10.946669-10.946669 0-6.203112 4.621927-10.946668 10.946669-10.946668 6.203112 0 10.946668 4.621927 10.946668 10.946668-0.12163 6.324742-4.743556 10.946668-10.946668 10.946669z m0 0M818.74997 548.260839c0-4.621927 2.310963-9.365483 7.05452-11.676447 3.892149-2.310963 9.365483-2.310963 13.257631 0s7.05452 7.05452 7.05452 11.676447-2.310963 9.365483-7.05452 11.676446c-3.892149 2.310963-9.365483 2.310963-13.257631 0-4.743556-2.310963-7.05452-7.05452-7.05452-11.676446z m0 0M832.007602 532.692244c-8.514075 0-15.568595 7.05452-15.568595 15.568595 0 8.514075 7.05452 15.568595 15.568595 15.568594 8.514075 0 15.568595-7.05452 15.568595-15.568594 0-8.635705-7.05452-15.568595-15.568595-15.568595z m0 26.393633c-6.203112 0-10.946668-4.621927-10.946668-10.946668 0-6.203112 4.621927-10.946668 10.946668-10.946668 6.203112 0 10.946668 4.621927 10.946668 10.946668 0.729778 6.324742-4.743556 10.946668-10.946668 10.946668zM906.688205 282.743319c0-3.892149 2.310963-7.05452 5.473334-9.365483 3.162371-2.310963 7.05452-1.581185 10.946669 0s5.473334 5.473334 5.473334 9.365483-2.310963 7.05452-5.473334 9.365483c-3.162371 1.581185-7.05452 1.581185-10.946669 0-3.162371-2.310963-5.473334-6.203112-5.473334-9.365483z m0 0M497.282813 808.183395c0-3.892149 2.310963-7.784297 5.473334-9.365483 3.892149-2.310963 7.784297-2.310963 11.676446 0 3.162371 1.581185 5.473334 5.473334 5.473334 9.365483s-2.310963 7.784297-5.473334 9.365483c-3.892149 2.310963-7.784297 2.310963-11.676446 0-4.013778-1.581185-5.473334-5.473334-5.473334-9.365483z m0 0M508.107851 795.047393c-7.784297 0-13.987409 6.203112-13.987409 13.257631 0 7.05452 6.203112 13.257632 13.987409 13.257632s13.987409-6.203112 13.98741-13.257632c0-7.05452-6.203112-13.257632-13.98741-13.257631z m0 22.501485c-4.621927 0-9.365483-3.892149-9.365483-8.514076s3.892149-8.514075 9.365483-8.514075c4.621927 0 9.365483 3.892149 9.365483 8.514075 0 3.892149-3.892149 8.514075-9.365483 8.514076z m0 0M939.40658 417.508968c0-2.310963 1.581185-5.473334 3.892149-6.203112 2.310963-1.581185 5.473334-1.581185 7.784297 0 2.310963 1.581185 3.892149 3.892149 3.892149 6.203112 0 2.310963-1.581185 5.473334-3.892149 6.203112-2.310963 1.581185-5.473334 1.581185-7.784297 0-2.310963-1.581185-3.892149-3.892149-3.892149-6.203112z m0 0M947.190878 408.143485c-4.621927 0-9.365483 3.892149-9.365483 8.514075s3.892149 8.514075 9.365483 8.514076 9.365483-3.892149 9.365483-8.514076-4.743556-8.514075-9.365483-8.514075z m0 14.717187c-3.162371 0-6.203112-2.310963-6.203112-6.203112 0-3.162371 2.310963-6.203112 6.203112-6.203112 3.892149 0 6.203112 2.310963 6.203112 6.203112 0 3.892149-3.162371 6.203112-6.203112 6.203112z m0 0M32.535931 345.869106c0-3.892149 3.162371-7.784297 7.784297-7.784298 3.892149 0 7.784297 3.162371 7.784297 7.784298 0 3.892149-3.162371 7.784297-7.784297 7.784297s-7.784297-3.892149-7.784297-7.784297z m0 0M40.320228 337.233401c-4.621927 0-9.365483 3.892149-9.365483 8.514075s3.892149 8.514075 9.365483 8.514075c4.621927 0 9.365483-3.892149 9.365483-8.514075s-4.743556-8.514075-9.365483-8.514075z m0 14.838817c-3.162371 0-6.203112-2.310963-6.203112-6.203112 0-3.162371 3.162371-6.203112 6.203112-6.203112 3.162371 0 6.203112 2.310963 6.203112 6.203112 0 3.040741-3.162371 6.203112-6.203112 6.203112z m0 0M90.918161 580.979214c0-3.892149 3.162371-7.784297 7.784298-7.784298 3.892149 0 7.784297 3.162371 7.784297 7.784298 0 3.892149-3.162371 7.784297-7.784297 7.784297s-7.784297-3.162371-7.784298-7.784297z m0 0M98.702459 572.343509c-4.621927 0-9.365483 3.892149-9.365483 8.514075s3.892149 8.514075 9.365483 8.514075c4.621927 0 9.365483-3.892149 9.365483-8.514075-0.851408-4.621927-4.743556-8.514075-9.365483-8.514075z m0 14.838817c-3.162371 0-6.203112-2.310963-6.203112-6.203112 0-3.162371 3.162371-6.203112 6.203112-6.203112 3.162371 0 6.203112 2.310963 6.203112 6.203112-0.729778 3.040741-3.162371 6.203112-6.203112 6.203112zM324.447084 791.155244h-30.407412c-1.581185 0-3.162371 1.581185-3.162371 3.162371s1.581185 3.162371 3.162371 3.162371h30.407412c1.581185 0 3.162371-1.581185 3.162371-3.162371-0.12163-1.702815-1.581185-3.162371-3.162371-3.162371z m0 0M308.878489 774.005464c-1.581185 0-3.162371 1.581185-3.162371 3.162371V810.615988c0 1.581185 1.581185 3.162371 3.162371 3.16237s3.162371-1.581185 3.162371-3.16237v-33.448153c-0.12163-1.581185-1.581185-3.162371-3.162371-3.162371z m522.277705-102.047274h-35.029338c-0.729778 0-1.581185 0-2.310963 0.729778-0.729778 0.729778-0.729778 1.581185-0.729778 2.310963 0 1.581185 1.581185 3.162371 3.162371 3.162371H831.277824c1.581185 0 3.162371-1.581185 3.162371-3.162371-0.12163-1.459556-1.702815-3.040741-3.284001-3.040741z m0 0M813.276636 654.930039c-1.581185 0-3.162371 1.581185-3.162371 3.162371v33.448153c0 1.581185 1.581185 3.162371 3.162371 3.162371s3.162371-1.581185 3.162371-3.162371v-33.448153c0-1.702815-1.581185-3.162371-3.162371-3.162371z m-554.99608-274.883003H223.251217c-0.729778 0-1.581185 0-2.310963 0.729778-0.729778 0.729778-0.729778 1.581185-0.729778 2.310964 0 1.581185 1.581185 3.162371 3.162371 3.16237H258.402186c1.581185 0 3.162371-1.581185 3.16237-3.16237-0.243259-1.459556-1.702815-3.040741-3.284-3.040742z m0 0M240.400998 363.018886c-1.581185 0-3.162371 1.581185-3.162371 3.162371v33.448153c0 1.581185 1.581185 3.162371 3.162371 3.16237s3.162371-1.581185 3.162371-3.16237v-33.448153c-0.12163-1.702815-1.702815-3.162371-3.162371-3.162371z m0 0"  horiz-adv-x="1024" />

    
    <glyph glyph-name="rizhi" unicode="&#58993;" d="M568.889-14.222h-512V782.222h739.555V384h-56.888V725.333H113.778v-682.666H512zM711.111 384c108.089 0 199.111-91.022 199.111-199.111S819.2-14.222 711.112-14.222 512 76.8 512 184.888 603.022 384 711.111 384m0 56.889c-142.222 0-256-113.778-256-256s113.778-256 256-256 256 113.778 256 256-113.778 256-256 256zM227.556 839.11h56.888v-170.667h-56.888z m341.333 0h56.889v-170.667h-56.89zM170.667 554.667h512v-56.89h-512z m0-170.667H455.11v-56.889H170.667z m0-170.667h227.555v-56.889H170.667zM853.333 99.556H682.667V327.11h56.889v-170.667h113.777z"  horiz-adv-x="1024" />

    
    <glyph glyph-name="jiqunzhuangtai" unicode="&#59377;" d="M83.2 300.8l198.4 115.2 198.4-115.2v-224l-198.4-115.2-198.4 115.2V300.8z m339.2-198.4V268.8L281.6 345.6 140.8 268.8v-160l140.8-83.2 140.8 76.8z m288 595.2v-224L512 358.4 313.6 467.2V697.6L512 812.8l198.4-115.2z m-57.6-198.4V665.6L512 742.4 371.2 665.6v-160L512 422.4l140.8 76.8zM428.8 633.6L512 678.4l83.2-51.2v-96L512 486.4l-83.2 44.8V633.6z m-230.4-499.2v96l83.2 51.2 83.2-51.2v-96l-83.2-51.2-83.2 51.2z m454.4 102.4l83.2 51.2 83.2-51.2v-96l-83.2-51.2-83.2 51.2v96z m89.6 172.8l198.4-115.2v-224l-198.4-115.2-198.4 115.2V300.8l198.4 108.8z m140.8-307.2V268.8l-140.8 83.2-140.8-83.2v-160l140.8-83.2 140.8 76.8z"  horiz-adv-x="1024" />

    
    <glyph glyph-name="add" unicode="&#59052;" d="M512.277-58.412000000000035c-118.89 0-230.659 46.078-314.73 129.73S67.12 266.33399999999995 67.12 384.778s46.327 229.744 130.398 313.427 195.82 129.73 314.73 129.73 230.659-46.078 314.72-129.73S957.397 503.19 957.397 384.817 911.078 155.03999999999996 826.97 71.35799999999995s-195.8-129.77-314.692-129.77z m0 822.784c-101.972 0-197.809-39.494-269.865-111.222s-111.7-166.997-111.7-268.373 39.653-196.695 111.67-268.335S410.246 5.220000000000027 512.248 5.220000000000027s197.809 39.484 269.865 111.222 111.7 166.998 111.67 268.374c-0.03 101.375-39.654 196.665-111.67 268.303S614.22 764.3720000000001 512.277 764.3720000000001z m222.585-347.8H544.073V607.36c-0.76 17.561-15.613 31.18-33.173 30.419-16.495-0.714-29.704-13.924-30.419-30.419v-190.787H289.703c-17.56-0.761-31.179-15.614-30.419-33.174 0.715-16.494 13.924-29.703 30.42-30.418H480.48v-190.788c0.761-17.56 15.614-31.179 33.174-30.419 16.494 0.715 29.703 13.925 30.418 30.42V352.98h190.788c17.56-0.762 32.413 12.857 33.173 30.418 0.762 17.561-12.858 32.414-30.419 33.174a31.683 31.683 0 0 1-2.753 0z"  horiz-adv-x="1028" />

    
    <glyph glyph-name="zhengque" unicode="&#58907;" d="M510.567 832.147c-246.304 0-446.663-200.359-446.663-446.663 0-246.305 200.359-446.664 446.663-446.664 246.305 0 446.766 200.36 446.766 446.664-0.102 246.304-200.461 446.663-446.766 446.663zM787.98 509.915L454.594 176.427c-7.982-7.982-20.978-7.982-28.96 0l-43.693 43.694-144.795 144.795c-7.982 7.981-7.982 20.977 0 28.959l43.694 43.694c7.982 7.982 20.978 7.982 28.96 0l130.263-130.162 275.263 275.264c7.982 7.981 20.978 7.981 29.062 0l43.592-43.797c8.084-7.982 8.084-20.977 0-28.959z"  horiz-adv-x="1024" />

    
    <glyph glyph-name="2014082601545126easyiconnet" unicode="&#58912;" d="M616.85025723-48.415674360000025l418.35311703 418.37515627c5.98339889 5.98339889 8.98060813 12.85934969 8.98060813 20.63887207s-2.99720925 14.66649124-8.98060812 20.64989013L616.85025723 829.60135956c-5.9944185 5.9944185-12.87036929 8.98060812-20.6498901 8.98060815s-14.66649124-2.99720925-20.64989013-8.98060814l-44.88100602-44.88100603c-5.98339889-5.98339889-8.96959007-12.87036929-8.96959005-20.64989013s2.98618961-14.66649124 8.96959005-20.64989013L883.49169183 390.59835243l-352.83324048-352.83324051c-5.98339889-5.98339889-8.95857044-12.87036929-8.95857042-20.63887209 0-7.79054043 2.98618961-14.67751087 8.95857042-20.6609097l44.8920241-44.88100602c5.98339889-5.98339889 12.87036929-8.95857044 20.64989008-8.95857046S610.86685678-54.399074799999994 616.85025723-48.415674360000025z"  horiz-adv-x="1515" />

    
    <glyph glyph-name="jiantou2" unicode="&#58897;" d="M872.523053 71.55391799999995l-718.53082 0c-39.763632 0-71.922053 31.909757-71.922053 71.675436 0 18.485003 7.095605 35.205826 18.486026 47.872311L455.885981 665.2270560100001c23.810289 31.400151 68.641333 37.993313 100.29731 14.18302399 5.570879-4.052293 10.384511-8.873088 14.18302399-14.190187L929.764755 186.04141600000003c23.547299-31.407314 17.217127-76.479859-14.436804-100.041484-12.922311-9.881045-27.864628-14.43885-42.804898-14.43884999l0 0L872.523053 71.55391799999995zM872.523053 71.55391799999995"  horiz-adv-x="1024" />

    
    <glyph glyph-name="arrow-b" unicode="&#59217;" d="M461.18867188 144.03925780999998c-127.61015625 131.99150391-255.21503906 263.98212891-382.69511719 395.97011719-52.59550781 54.34804687 32.80693359 135.37001953 85.5290039 80.77060547 113.58105469-117.46318359 227.03730469-234.928125 340.61835938-352.32539063 117.46230469 118.02568359 235.05117187 236.05136719 352.51435547 354.14121094 53.47265625 53.72138672 138.87685547-27.29882813 85.46835937-80.83388672-131.92822266-132.61816406-263.91708984-265.16865234-395.90683594-397.72353515-21.91376953-21.91464844-63.86660156-22.47802734-85.52724609 0z"  horiz-adv-x="1024" />

    
    <glyph glyph-name="jiantouzuo" unicode="&#58886;" d="M711.111111 867.555556c17.066667 0 28.444444-5.688889 39.82222201-17.066667 22.755556-22.755556 17.066667-56.888889-5.68888901-79.644445l-364.088888-329.955555c-11.377778-11.377778-17.066667-22.755556-17.066667-34.133333 0-11.377778 5.688889-22.755556 17.066667-34.133334L750.933333 59.733333000000016c22.755556-22.755556 28.444444-56.88888901 5.688889-79.644444-22.755556-22.755556-56.88888901-28.444444-79.64444401-5.688889l-364.08888899 312.888889c-34.133333 28.444444-56.888889 73.955556-56.888889 119.466667s17.066667 85.333333 51.2 119.466666l364.088889 329.955556c11.377778 5.688889 28.444444 11.377778 39.822222 11.377778z"  horiz-adv-x="1024" />

    
    <glyph glyph-name="jiantou" unicode="&#58888;" d="M512.69 541.4a61.19 61.19 0 0 0 43.25-17.78999999l237.12-237.20000002a35 35 0 0 0-49.55-49.54999999l-230.89 230.9-230.9-230.89a35 35 0 1 0-49.55 49.55L469.3 523.54a61.41 61.41 0 0 0 43.39 17.86z"  horiz-adv-x="1024" />

    
    <glyph glyph-name="houtai" unicode="&#58926;" d="M836.266667 76.8H187.733333C85.333333 76.8 0 162.133333 0 256V716.8C0 819.2 85.333333 896 187.733333 896h657.066667C938.666667 896 1024 819.2 1024 716.8v-460.8c0-93.866667-85.333333-179.2-187.733333-179.2zM187.733333 802.133333c-51.2 0-85.333333-42.666667-85.333333-85.333333v-460.8c0-51.2 42.666667-85.333333 85.333333-85.333333h657.066667c51.2 0 85.333333 42.666667 85.333333 85.333333V716.8c0 51.2-42.666667 85.333333-85.333333 85.333333H187.733333zM972.8-128H51.2c-25.6 0-51.2 17.066667-51.2 42.666667s25.6 42.666667 51.2 42.666666h930.133333c25.6 0 51.2-17.066667 51.2-42.666666-8.533333-25.6-34.133333-42.666667-59.733333-42.666667zM546.133333 315.733333c-17.066667 0-25.6 8.533333-34.133333 17.066667L409.6 460.8l-76.8-102.4c-17.066667-17.066667-42.666667-17.066667-59.733333 0s-17.066667 51.2 0 76.8l110.933333 136.533333c17.066667 17.066667 42.666667 17.066667 59.733333 0l102.4-119.466666 145.066667 179.2c17.066667 17.066667 42.666667 17.066667 59.733333 0s17.066667-51.2 0-76.8L571.733333 332.8c-8.533333-8.533333-17.066667-17.066667-25.6-17.066667z"  horiz-adv-x="1032" />

    
    <glyph glyph-name="kongyemian_zanwuwendang" unicode="&#58982;" d="M722.223543 184.685714a5.485714 5.485714 0 0 0 0 10.971429h192.365714a5.485714 5.485714 0 0 0 0-10.971429h-192.365714zM38.191543 184.685714a5.485714 5.485714 0 0 0 0 10.971429h219.146971a5.485714 5.485714 0 0 0 0-10.971429H38.191543zM281.998629 184.685714a5.485714 5.485714 0 0 0 0 10.971429h28.7744a5.485714 5.485714 0 0 0 0-10.971429h-28.7744zM951.994514 184.685714a5.485714 5.485714 0 0 0 0 10.971429H994.742857a5.485714 5.485714 0 0 0 0-10.971429h-42.748343zM691.880229 240.201143a5.485714 5.485714 0 0 0 10.971428 0v-31.7696a23.197257 23.197257 0 0 0-23.197257-23.197257c-12.993829 0-24.927086 10.536229-24.927086 23.226514v175.5648a5.485714 5.485714 0 0 0 10.971429 0V208.457143c0-6.304914 6.736457-12.255086 13.955657-12.255086a12.225829 12.225829 0 0 1 12.225829 12.225829v31.773257zM116.779886 405.946514v13.450972a4.571429 4.571429 0 0 0 4.578743 4.586057c2.527086 0 4.578743-2.062629 4.578742-4.586057v-13.450972h13.450972a4.571429 4.571429 0 0 0 4.586057-4.578743c0-2.527086-2.062629-4.578743-4.586057-4.578742h-13.454629v-13.450972a4.571429 4.571429 0 0 0-4.578743-4.586057 4.589714 4.589714 0 0 0-4.578742 4.586057v13.450972h-13.447315A4.571429 4.571429 0 0 0 98.742857 401.367771c0 2.527086 2.062629 4.578743 4.586057 4.578743h13.450972zM440.685714 460.251429h-10.971428V623.195429c0 14.383543 12.053943 25.947429 26.810514 25.947428h260.992c14.756571 0 26.810514-11.563886 26.810514-25.947428v-327.866515c0-14.383543-12.053943-25.947429-26.810514-25.947428h-40.484571v10.971428h40.484571c8.795429 0 15.839086 6.7584 15.839086 14.976V623.195429c0 8.2176-7.043657 14.976-15.839086 14.976h-260.992c-8.799086 0-15.839086-6.7584-15.839086-14.976v-162.944zM487.786057 574.804114a5.485714 5.485714 0 0 0 0 10.971429h201.040457a5.485714 5.485714 0 0 0 0-10.971429h-201.040457zM487.786057 530.9184a5.485714 5.485714 0 0 0 0 10.971429h201.040457a5.485714 5.485714 0 0 0 0-10.971429h-201.040457zM487.786057 487.032686a5.485714 5.485714 0 0 0 0 10.971428h89.706057a5.485714 5.485714 0 0 0 0-10.971428h-89.706057zM654.595657 213.277257v195.722972c0 9.903543-8.045714 18.2784-17.5872 18.2784h-142.774857l-35.536457 23.105828h-110.116572a17.601829 17.601829 0 0 1-17.5872-17.620114v-219.487086c0-9.234286 7.354514-15.791543 17.5872-15.791543h307.3024c-1.071543 3.620571-1.287314 7.749486-1.287314 15.791543z m18.388114-16.874057v-5.485714l-1.152 5.365028 0.599772 0.128c0.175543-0.007314 0.362057-0.007314 0.552228-0.007314z m3.869258 0.958171l1.152-5.365028v-5.485714H348.580571c-16.032914 0-28.558629 11.176229-28.558628 26.762971v219.490743c0 15.787886 12.785371 28.591543 28.558628 28.591543h113.367772l35.536457-23.105829h139.523657c15.703771 0 28.558629-13.381486 28.558629-29.249828v-195.722972c0-14.178743 0.874057-16.731429 6.8608-16.866743l4.425143 0.950857zM919.771429 374.857143a25.6 25.6 0 1 0 0 51.2 25.6 25.6 0 0 0 0-51.2z m0 10.971428a14.628571 14.628571 0 1 1 0 29.257143 14.628571 14.628571 0 0 1 0-29.257143zM842.971429 254.171429a18.285714 18.285714 0 1 0 0.003657 36.575085 18.285714 18.285714 0 0 0-0.003657-36.575085z m0 10.971428a7.314286 7.314286 0 1 1 0.003657 14.624914 7.314286 7.314286 0 0 1-0.003657-14.624914zM246.857143 224.914286a25.6 25.6 0 1 0 0 51.2 25.6 25.6 0 0 0 0-51.2z m0 10.971428a14.628571 14.628571 0 1 1 0 29.257143 14.628571 14.628571 0 0 1 0-29.257143zM294.4 780.8a25.6 25.6 0 1 0 0 51.2 25.6 25.6 0 0 0 0-51.2z m0 10.971429a14.628571 14.628571 0 1 1 0 29.257142 14.628571 14.628571 0 0 1 0-29.257142zM742.1696 689.616457a3.657143 3.657143 0 0 0 7.314286 0v-19.017143a3.657143 3.657143 0 0 0-7.314286 0v19.017143zM780.8256 684.141714a3.657143 3.657143 0 1 0 5.430857-4.896914l-17.144686-19.017143a3.657143 3.657143 0 1 0-5.4272 4.896914l17.141029 19.017143zM797.257143 652.068571a3.657143 3.657143 0 0 0 0-7.314285h-24.001829a3.657143 3.657143 0 0 0 0 7.314285H797.257143zM373.130971 17.437257v-6.0416c-4.8128-0.4096-9.8304-0.9216-15.0528-1.4336v-7.8848h-6.7584v7.3728c-6.7584-0.4096-13.9264-0.9216-21.2992-1.3312l-0.9216 6.5536c7.7824 0.4096 15.2576 0.7168 22.2208 1.1264v8.4992h-19.0464l-1.6384 5.8368c2.8672 3.2768 5.632 7.168 8.0896 11.776h-10.9568v6.5536h14.2336c0.9216 2.2528 1.8432 4.5056 2.6624 6.7584l7.3728-1.2288a125.330286 125.330286 0 0 0-2.2528-5.5296h24.9856v-6.5536h-28.0576a82.998857 82.998857 0 0 0-7.2704-11.5712h11.8784v6.7584h6.7584v-6.7584h15.9744v-6.0416h-15.9744v-8.0896c5.3248 0.4096 10.3424 0.8192 15.0528 1.2288z m14.336 6.7584c-1.1264-8.6016-3.8912-16.0768-8.2944-22.4256l-5.12 5.3248c4.5056 6.656 6.9632 14.5408 7.168 23.7568v16.0768c12.6976 1.2288 22.7328 3.4816 29.9008 6.7584l4.7104-5.5296c-7.5776-3.2768-16.7936-5.632-27.8528-6.8608v-10.6496h30.72v-6.4512h-10.8544v-22.2208h-7.0656v22.2208h-13.312z m19.7632-25.1904V-39.497143h-7.5776v3.9936H347.633371v-3.9936h-7.5776v38.5024h67.1744z m-59.5968-28.16h52.0192v7.9872H347.633371v-7.9872z m0 13.9264h52.0192v7.9872H347.633371v-7.9872z m90.2144 64.1024h73.5232v-7.168h-36.6592v-6.8608c-0.2048-6.3488-0.6144-12.3904-1.3312-17.92h46.2848v-7.0656h-31.744v-35.7376c0-3.2768 1.6384-5.0176 4.9152-5.0176h13.0048c2.4576 0 4.3008 0.7168 5.4272 2.048 1.4336 1.6384 2.3552 6.3488 2.8672 14.336l6.9632-2.2528c-0.8192-10.0352-2.3552-16.0768-4.608-18.3296-1.9456-1.8432-5.0176-2.7648-9.3184-2.7648h-16.5888c-6.7584 0-10.0352 3.4816-10.0352 10.4448v37.2736h-8.2944c-1.6384-8.9088-4.1984-16.5888-7.68-23.1424-6.3488-11.0592-16.5888-19.7632-30.8224-25.9072l-4.096 6.5536c14.1312 6.3488 23.8592 14.6432 29.3888 25.088 2.4576 5.12 4.3008 10.9568 5.632 17.408h-33.6896v7.0656h34.9184c0.8192 5.5296 1.2288 11.5712 1.3312 17.92v6.8608h-29.3888v7.168z m95.3344-11.776h42.3936a78.690743 78.690743 0 0 1-10.24 15.36l7.3728 2.6624c3.8912-4.9152 7.3728-10.9568 10.6496-18.0224h39.1168v-7.3728h-15.9744c-5.0176-16.1792-12.5952-29.7984-22.6304-40.6528 10.8544-9.216 24.4736-16.7936 40.8576-22.8352l-3.9936-6.144c-16.9984 6.3488-30.9248 14.2336-41.984 23.7568-11.6736-10.752-26.2144-18.6368-43.6224-23.6544l-3.8912 6.4512c17.2032 4.608 31.3344 11.8784 42.3936 21.9136-11.8784 11.6736-20.0704 25.3952-24.6784 41.1648h-15.7696v7.3728z m23.04-7.3728c4.4032-13.824 11.8784-25.8048 22.528-36.0448 9.1136 9.9328 15.7696 21.9136 20.0704 36.0448h-42.5984z m115.0976-10.8544h22.8352v35.5328h7.4752v-35.5328h21.0944v-58.368h-7.3728v4.3008H669.476571v7.168h45.8752v16.5888h-41.472v6.9632h41.472V11.702857h-44.032v7.168z m47.7184 30.3104l6.5536-3.072c-2.8672-7.5776-6.5536-14.848-11.0592-22.016l-6.3488 3.2768c4.5056 7.3728 8.192 14.6432 10.8544 21.8112z m-42.5984-0.7168c3.6864-6.3488 7.168-13.4144 10.4448-20.992l-6.3488-3.1744a160.223086 160.223086 0 0 1-10.5472 20.992l6.4512 3.1744z m-20.1728-35.328v-52.224h-7.4752V12.214857c-3.3792-9.8304-7.68-18.6368-13.0048-26.624l-3.1744 7.8848c7.5776 9.9328 12.9024 21.1968 16.0768 33.792h-13.824v7.0656h13.9264v19.968h7.4752v-19.968h12.1856v-7.0656h-12.1856v-5.9392c4.7104-5.0176 9.4208-10.752 14.2336-17.1008l-4.1984-6.144c-3.8912 6.2464-7.168 11.264-10.0352 15.0528z"  horiz-adv-x="1024" />

    
    <glyph glyph-name="exit-door" unicode="&#58914;" d="M640.014 223.992v0-166.378c0-14.156-11.442-25.598-25.606-25.598l-230.378-0c0 0 0 528.81 0 539.346 0 16.15-8.372 40.738-35.894 54.586-15.348 7.748-220.126 110.082-220.126 110.082h486.4c14.166 0 25.608-11.478 25.608-25.6v-230.42h64.036l0 281.62c-0.004 21.208-17.232 38.37-38.44 38.37h-627.214c-21.206 0-38.4-17.162-38.4-38.37v-755.222c0-14.858 8.476-27.694 20.79-34.112 0.104-0.066 0.17-0.14 0.28-0.14 16.81-8.996 248.694-135.96 333.904-180.886 18.102-9.488 29.058 1.046 29.058 11.3 0 10.258 0 165.402 0 165.402h281.584c21.21 0 38.438 17.234 38.438 38.438v217.582h-64.040zM960 352l-191.978 192.016v-128.010h-319.992v-128.006h319.992v-127.976z"  horiz-adv-x="1024" />

    
    <glyph glyph-name="shuaxin" unicode="&#59074;" d="M841.140212 383.986743c0-181.498884-147.641328-329.140212-329.140212-329.140212s-329.140212 147.641328-329.140212 329.140212c0 175.391505 137.999348 318.746696 311.068586 328.211305l0-99.641714c0-3.249345 1.749929-6.286578 4.571392-7.928622 1.428103-0.821022 3.000662-1.214162 4.571392-1.214162s3.143289 0.39314 4.571392 1.214162l237.569748 137.141755c2.821463 1.642044 4.571392 4.679277 4.571392 7.928622s-1.749929 6.286578-4.571392 7.928622l-237.569748 137.141755c-2.856206 1.642044-6.286578 1.642044-9.142784 0-2.821463-1.642044-4.571392-4.679277-4.571392-7.928622l0-101.499527C280.537631 775.804394 109.717518 599.699752 109.717518 383.986743c0-221.820389 180.462093-402.282482 402.282482-402.282482s402.282482 180.462093 402.282482 402.282482L841.140212 383.986743z"  horiz-adv-x="1024" />

    
    <glyph glyph-name="gezi" unicode="&#59173;" d="M376.784953 866.064354 121.23244 866.064354C68.309635 866.064354 25.399896 823.139155 25.399896 770.200888L25.399896 514.648374C25.399896 461.739623 68.308228 418.846753 121.23244 418.846753L376.784953 418.846753C429.70776 418.846753 472.617498 461.74103 472.617498 514.648374L472.617497 770.200888C472.617497 823.139155 429.709166 866.064354 376.784953 866.064354L376.784953 866.064354ZM408.730073 551.178365C408.730073 513.369333 378.079457 482.703256 340.27183 482.703256L157.746969 482.703256C119.939343 482.703256 89.288728 513.367927 89.288728 551.178365L89.288728 733.701819C89.288728 771.509446 119.939343 802.175523 157.746969 802.175523L340.271828 802.175523C378.079456 802.175523 408.730071 771.510851 408.730071 733.701819L408.730073 551.178365 408.730073 551.178365ZM887.89279 866.064354 632.341684 866.064354C579.418879 866.064354 536.509139 823.139155 536.509139 770.200888L536.509139 514.648374C536.509139 461.739623 579.417471 418.846753 632.341684 418.846753L887.892792 418.846753C940.815597 418.846753 983.725334 461.74103 983.725334 514.648374L983.725334 770.200888C983.725334 823.139155 940.817003 866.064354 887.89279 866.064354L887.89279 866.064354ZM919.837908 551.178365C919.837908 513.369333 889.188698 482.703256 851.379667 482.703256L668.839346 482.703256C631.04718 482.703256 600.397969 513.367927 600.397969 551.178365L600.397969 733.701819C600.397969 771.509446 631.048584 802.175523 668.839346 802.175523L851.379667 802.175523C889.188699 802.175523 919.837908 771.510851 919.837908 733.701819L919.837908 551.178365 919.837908 551.178365ZM887.89279 354.955109 632.341684 354.955109C579.418879 354.955109 536.509139 312.02991 536.509139 259.091643L536.509139 3.53913C536.509139-49.369622 579.417471-92.262496 632.341684-92.262496L887.892792-92.262496C940.815597-92.262496 983.725334-49.368215 983.725334 3.53913L983.725334 259.091643C983.725334 312.02991 940.817003 354.955109 887.89279 354.955109L887.89279 354.955109ZM919.837908 40.06912C919.837908 2.260088 889.188698-28.405989 851.379667-28.405989L668.839346-28.405989C631.04718-28.405989 600.397969 2.258682 600.397969 40.06912L600.397969 222.592574C600.397969 260.400201 631.048584 291.066278 668.839346 291.066278L851.379667 291.066278C889.188699 291.066278 919.837908 260.401607 919.837908 222.592574L919.837908 40.06912 919.837908 40.06912ZM376.784953 354.924189 121.23244 354.924189C68.309635 354.924189 25.399896 312.029911 25.399896 259.091645L25.399896 3.570053C25.399896-49.368215 68.308228-92.262496 121.23244-92.262496L376.784953-92.262496C429.70776-92.262496 472.617498-49.368215 472.617498 3.570053L472.617497 259.091645C472.617497 312.029911 429.709166 354.924189 376.784953 354.924189L376.784953 354.924189ZM408.730073 40.069122C408.730073 2.260089 378.079457-28.37366 340.27183-28.37366L157.746969-28.373659C119.939343-28.373659 89.288728 2.26009 89.288728 40.069123L89.288728 222.592577C89.288728 260.401609 119.939343 291.035359 157.746969 291.035359L340.271828 291.035359C378.079456 291.035359 408.730071 260.401609 408.730071 222.592577L408.730073 40.069122 408.730073 40.069122Z"  horiz-adv-x="1024" />

    
    <glyph glyph-name="jia" unicode="&#58945;" d="M906.212134 330.267014 565.732986 330.267014 565.732986-10.212134C565.732986-30.013685 541.666486-63.972 511.97312-63.972 482.297674-63.972 458.213254-30.013685 458.213254-10.212134L458.213254 330.267014 117.734106 330.267014C97.950475 330.267014 63.97424 354.333514 63.97424 384.02688 63.97424 413.720246 97.950475 437.786746 117.734106 437.786746L458.213254 437.786746 458.213254 778.265894C458.213254 798.049525 482.297674 832.02576 511.97312 832.02576 541.666486 832.02576 565.732986 798.049525 565.732986 778.265894L565.732986 437.786746 906.212134 437.786746C925.995765 437.786746 959.972 413.720246 959.972 384.02688 959.972 354.333514 925.995765 330.267014 906.212134 330.267014Z"  horiz-adv-x="1024" />

    
    <glyph glyph-name="iconset0212" unicode="&#58991;" d="M384 42.666667c12.8 0 21.333333 10.666667 21.333333 21.333333l-32 512c0 12.8-10.666667 21.333333-21.333333 21.333333-12.8 0-21.333333-10.666667-21.333333-21.333333L362.666667 64C362.666667 51.2 373.333333 42.666667 384 42.666667zM874.666667 725.333333 661.333333 725.333333 661.333333 810.666667c0 23.466667-19.2 42.666667-42.666667 42.666667L405.333333 853.333333c-23.466667 0-42.666667-19.2-42.666667-42.666667l0-85.333333L149.333333 725.333333C136.533333 725.333333 128 716.8 128 704c0-12.8 8.533333-21.333333 21.333333-21.333333l42.666667 0 42.666667-682.666667c6.4-46.933333 38.4-85.333333 85.333333-85.333333l384 0c46.933333 0 76.8 38.4 85.333333 85.333333l42.666667 682.666667 42.666667 0c12.8 0 21.333333 8.533333 21.333333 21.333333C896 716.8 887.466667 725.333333 874.666667 725.333333zM405.333333 810.666667l213.333333 0 0-85.333333L405.333333 725.333333 405.333333 810.666667zM746.666667 0c-2.133333-23.466667-19.2-42.666667-42.666667-42.666667L320-42.666667c-23.466667 0-38.4 19.2-42.666667 42.666667l-42.666667 682.666667 554.666667 0L746.666667 0zM640 42.666667c12.8 0 21.333333 8.533333 21.333333 21.333333l32 512c0 12.8-8.533333 21.333333-21.333333 21.333333-12.8 0-21.333333-8.533333-21.333333-21.333333L618.666667 64C618.666667 53.333333 627.2 42.666667 640 42.666667zM512 42.666667c12.8 0 21.333333 8.533333 21.333333 21.333333L533.333333 576c0 12.8-8.533333 21.333333-21.333333 21.333333s-21.333333-8.533333-21.333333-21.333333l0-512C490.666667 51.2 499.2 42.666667 512 42.666667z"  horiz-adv-x="1024" />

    
    <glyph glyph-name="yunxingzhong" unicode="&#58992;" d="M512-128c-281.6 0-512 230.4-512 512s230.4 512 512 512 512-230.4 512-512-230.4-512-512-512v0zM512 844.8c-256 0-460.8-204.8-460.8-460.8s204.8-460.8 460.8-460.8 460.8 204.8 460.8 460.8-204.8 460.8-460.8 460.8v0zM806.4 416c0 0-422.4 236.8-428.8 236.8-38.4 12.8-51.2-19.2-51.2-44.8v0c0 0 0-467.2 6.4-467.2 12.8-32 44.8-32 70.4-19.2v0c0 0 390.4 224 396.8 230.4 19.2 12.8 38.4 38.4 6.4 64v0z"  horiz-adv-x="1024" />

    
    <glyph glyph-name="zanting" unicode="&#59066;" d="M512-128c-282.304 0-512 229.696-512 512s229.696 512 512 512c282.304 0 512-229.696 512-512 0-282.304-229.696-512-512-512v0zM512 847.232c-255.424 0-463.232-207.808-463.232-463.232s207.808-463.168 463.232-463.168c255.424 0 463.168 207.744 463.168 463.168 0 255.424-207.744 463.232-463.168 463.232v0zM384 712c33.984 0 64-27.648 64-61.632v-506.112c0-33.984-30.016-61.632-63.936-61.632v0c-34.048 0-64.064 27.648-64.064 61.632v506.112c0 34.048 29.888 61.632 64 61.632v0 0zM640 712c33.984 0 64-27.648 64-61.632v-506.112c0-33.984-30.016-61.632-64-61.632v0c-33.984 0-64 27.648-64 61.632v506.112c0 34.048 29.888 61.632 64 61.632v0 0zM642.688 712z"  horiz-adv-x="1024" />

    
    <glyph glyph-name="bangzhu" unicode="&#58924;" d="M511.488-127.488C226.816-127.488 0 99.328 0 384.512S226.816 896 511.488 896s511.488-226.816 511.488-511.488S796.672-127.488 511.488-127.488L511.488-127.488zM444.928 6.144 578.56 6.144l0 133.632L444.928 139.776l0-89.088L444.928 6.144zM266.752 451.072l133.632 0c0 57.856 13.312 133.632 89.088 133.632s115.712-17.92 115.712-66.56c0-62.464-4.608-66.56-66.56-111.104-57.856-39.936-97.792-66.56-97.792-133.632L440.832 184.32l133.632 0c0 102.4 31.232 111.104 102.4 182.272 35.84 35.84 57.856 62.464 57.856 173.568 0 84.48-102.4 164.864-208.896 168.96C413.696 709.12 266.752 669.184 266.752 451.072z"  horiz-adv-x="1024" />

    
    <glyph glyph-name="jiantouyou" unicode="&#58951;" d="M288-76.088l-0.512 896 512.512-448-512-448z"  horiz-adv-x="1024" />

    
    <glyph glyph-name="1000" unicode="&#58885;" d="M702.273 148.407c-52.885-37.518-114.764-56.327-178.021-55.461-8.364 0.088-16.671 0.527-24.875 1.259-3.354 0.321-6.709 0.876-10.078 1.302-6.46 0.866-12.935 1.743-19.221 2.975-3.897 0.747-7.705 1.758-11.513 2.652-6.168 1.466-12.308 2.945-18.327 4.761-2.901 0.908-5.727 1.949-8.599 2.93-6.944 2.358-13.859 4.789-20.597 7.646-1.523 0.617-2.988 1.346-4.512 2.037-7.852 3.502-15.646 7.177-23.147 11.308-0.366 0.192-0.674 0.352-1.039 0.541-25.446 14.153-48.739 31.819-69.16 52.461-0.308 0.321-0.645 0.703-0.981 1.069-6.344 6.447-12.394 13.185-18.151 20.216-1.201 1.495-2.374 3.106-3.589 4.644-41.56 52.648-66.625 119.274-66.625 191.761h70.498c1.821 0 3.583 0.976 4.507 2.691 0.925 1.715 0.77 3.723-0.231 5.245l-118.505 179.972c-0.916 1.39-2.489 2.304-4.276 2.304s-3.362-0.915-4.276-2.304l-118.505-179.967c-1.002-1.522-1.155-3.53-0.231-5.245 0.925-1.715 2.686-2.691 4.508-2.691h70.513c0-85.216 26.237-164.204 70.815-229.512 0.543-0.91 0.938-1.877 1.538-2.786 4.614-6.678 9.742-12.846 14.693-19.16 1.846-2.388 3.575-4.848 5.494-7.191 7.296-8.966 15.045-17.39 23.014-25.622 0.762-0.82 1.465-1.625 2.213-2.358 26.75-27.115 57.001-49.97 89.903-68.237 0.85-0.514 1.7-1.042 2.637-1.525 9.478-5.155 19.219-9.814 29.094-14.224 2.462-1.068 4.864-2.27 7.369-3.326 8.439-3.545 17.11-6.65 25.856-9.61 4.131-1.421 8.233-2.871 12.422-4.174 7.633-2.286 15.441-4.205 23.322-6.094 5.215-1.231 10.4-2.564 15.719-3.589 2.212-0.455 4.292-1.144 6.461-1.48 7.412-1.333 14.883-2.080 22.31-2.988 2.681-0.324 5.318-0.778 8-1.069 13.346-1.334 26.646-2.212 39.935-2.212 81.319 0 160.661 25.181 228.72 73.452 21.683 15.424 26.972 45.69 11.78 67.679-15.237 22.032-45.179 27.35-66.86 11.924M927.917 400.51c-0.044 84.951-26.12 163.781-70.478 228.955-0.645 1.113-1.085 2.241-1.816 3.282-5.508 7.969-11.531 15.397-17.521 22.838-0.688 0.908-1.332 1.861-2.065 2.755-40.596 49.867-91.559 88.38-149.322 113.562-1.598 0.703-3.164 1.48-4.775 2.183-9.216 3.838-18.665 7.237-28.156 10.445-3.428 1.143-6.783 2.402-10.284 3.443-8.277 2.534-16.672 4.6-25.14 6.578-4.673 1.099-9.345 2.3-14.078 3.237-2.343 0.455-4.555 1.157-6.869 1.582-6.314 1.099-12.658 1.582-18.986 2.417-4.395 0.557-8.673 1.245-13.097 1.7-10.635 0.996-21.184 1.42-31.731 1.611-1.934 0-3.794 0.308-5.713 0.308-0.351 0-0.673-0.103-1.025-0.132-81.217-0.059-160.383-24.89-228.356-73.101-21.74-15.381-27.029-45.677-11.822-67.68 15.177-22.004 45.164-27.336 66.859-11.909 52.504 37.223 113.753 56.063 176.57 55.492 9.039-0.058 17.931-0.512 26.721-1.348 2.71-0.308 5.391-0.718 8.086-1.055 7.223-0.894 14.386-1.933 21.446-3.34 3.121-0.615 6.198-1.42 9.243-2.125 6.93-1.581 13.846-3.281 20.613-5.347 2.138-0.688 4.246-1.464 6.386-2.168 7.721-2.563 15.323-5.318 22.796-8.467 0.76-0.322 1.538-0.718 2.27-1.025 44.739-19.484 83.985-49.472 114.603-87.003 0.192-0.219 0.38-0.513 0.557-0.732 43.098-53.119 69.043-121.018 69.072-194.954h-70.528c-1.821 0-3.583-0.976-4.507-2.691s-0.77-3.723 0.232-5.245l118.532-179.954c0.915-1.389 2.489-2.304 4.277-2.304 1.787 0.001 3.361 0.917 4.275 2.305l118.477 179.954c1.003 1.522 1.156 3.529 0.231 5.245-0.924 1.715-2.686 2.691-4.507 2.691l-70.472-0.001z"  horiz-adv-x="1024" />

    
    <glyph glyph-name="500" unicode="&#58985;" d="M931.2 244c-8.8-8.8-19-15.6-31-20.8-11.8-5-24.6-7.6-38.2-7.6l-86.4 0c-13.6 0-26.2 2.6-38.2 7.6-11.8 5-22.2 12-31 20.8-4.2 4.2-7.8 8.6-11 13.4l105.6 154 0-55c0-5 1.6-9.4 5-12.8 3.4-3.4 7.6-5 12.8-5 5 0 9.4 1.6 12.8 5 3.4 3.4 5 7.6 5 12.8l0 107 97.6 142.4c7.2-8 13.2-17 17.6-27.4 5-11.8 7.6-24.6 7.6-38.2l0-227.2c0-6.8-0.6-13.4-2-19.8 13.2 43 20.4 88.6 20.4 135.8C978 683.8 771.4 890.6 516.4 890.6c-179.6 0-335.2-102.6-411.4-252.4l146.6 0L63 399l0 116.6c-5.4-28-8.2-57-8.2-86.6 0-31.4 3.2-62 9.2-91.4l107.2 0c0-4.6 1.2-8.4 3.8-11.8s6.4-5 11.4-5c5 0 8.8 1.6 11.4 5 2.6 3.4 3.8 7.4 3.8 11.8l0 53.2c0 4.4-1.2 8.6-3.8 12.2-2.6 3.6-6.4 5.4-11.4 5.4-5 0-8.8-1.8-11.4-5.4-2.6-3.6-3.8-7.8-3.8-12.2L64.6 390.8l106.4 135.2 0-12.8c1.6 0 4 0.4 6.8 1.2 2.8 0.8 5.6 1.2 8.4 1.2 16.8 0 33-3.2 48.2-9.8 15.2-6.4 28.2-15.4 39.2-27 11-11.6 19.8-25 26.2-40.2 6.4-15.2 9.8-31.2 9.8-48.2l0-53.2c0-16.8-3.2-32.8-9.8-47.8-6.4-15-15.2-27.8-26.2-38.8-11-11-24-19.8-39.2-26.2-15.2-6.4-31.2-9.8-48.2-9.8-16.8 0-33 3.2-48.2 9.8-15.2 6.4-28.2 15.2-39.2 26.2-6.4 6.4-11.8 13.4-16.6 21 51.6-142.6 171.4-252.4 320-290.2-10.4-26.2-40.4-89.2-90.6-100.4-62.2-14 168.6-3.4 333.2 104.4 141.8 41 255.6 148.2 305.6 286C945.4 261.2 939.2 251.8 931.2 244zM309.6 530.8 175.2 530.8l84.6 107.2 50 0L309.8 530.8zM360.8 274.8c-5 11.8-7.6 24.6-7.6 38.2L353.2 540.2c0 13.6 2.6 26.2 7.6 38.2 5 11.8 12 22.2 20.8 31 8.8 8.8 19 15.6 31 20.8 11.8 5 24.6 7.6 38.2 7.6l86.4 0c13.6 0 26.2-2.6 38.2-7.6 11.4-4.8 21.4-11.6 29.8-19.8L511.6 474l0 23c0 5-1.6 9.4-5 12.8-3.4 3.4-7.6 5-12.8 5-5 0-9.4-1.6-12.8-5-3.4-3.4-5-7.6-5-12.8L476 422l-109-159C364.8 266.8 362.6 270.6 360.8 274.8zM634.6 313c0-13.6-2.6-26.2-7.6-38.2-5-11.8-12-22.2-20.8-31-8.8-8.8-19-15.6-31-20.8-11.8-5-24.6-7.6-38.2-7.6l-86.4 0c-13.6 0-26.2 2.6-38.2 7.6-11.8 5-22.2 12-31 20.8-4.2 4.2-7.8 8.6-11 13.4l105.6 154 0-55c0-5 1.6-9.4 5-12.8 3.4-3.4 7.6-5 12.8-5 5 0 9.4 1.6 12.8 5 3.4 3.4 5 7.6 5 12.8l0 107 97.6 142.4c7.2-8 13.2-17 17.6-27.4 5-11.8 7.6-24.6 7.6-38.2L634.4 313zM685.8 274.8c-5 11.8-7.6 24.6-7.6 38.2L678.2 540.2c0 13.6 2.6 26.2 7.6 38.2 5 11.8 12 22.2 20.8 31 8.8 8.8 19 15.6 31 20.8 11.8 5 24.6 7.6 38.2 7.6l86.4 0c13.6 0 26.2-2.6 38.2-7.6 11.4-4.8 21.4-11.6 29.8-19.8L836.6 474l0 23c0 5-1.6 9.4-5 12.8-3.4 3.4-7.6 5-12.8 5-5 0-9.4-1.6-12.8-5-3.4-3.4-5-7.6-5-12.8L801 422 692 263C689.8 266.8 687.6 270.6 685.8 274.8z"  horiz-adv-x="1024" />

    
    <glyph glyph-name="tuichu" unicode="&#59016;" d="M513.335-66c248.368 0 448.665 200.296 448.665 448.665 0 165.579-88.131 309.792-218.991 387.24-42.729 24.036-66.765-26.707-29.377-50.742 114.837-66.765 192.284-192.284 192.284-336.499 0-216.321-176.261-392.582-392.582-392.582-216.321 0-392.582 176.261-392.582 392.582 0 144.214 77.449 269.733 192.284 336.499 34.718 24.036 13.353 74.777-29.377 50.742-133.531-77.449-221.662-221.662-221.662-387.24 0-248.368 202.968-448.665 451.335-448.665zM513.335 834c18.694 0 37.388-16.024 37.388-34.717v-504.748c0-18.694-18.695-34.717-37.388-34.717-21.366 0-37.388 16.024-37.388 34.718v504.748c0 18.694 16.024 34.717 37.388 34.717z"  horiz-adv-x="1024" />

    
    <glyph glyph-name="th" unicode="&#59334;" d="M292.571429 182.857143l0-109.714286q0-22.857143-16-38.857143t-38.857143-16l-182.857143 0q-22.857143 0-38.857143 16t-16 38.857143l0 109.714286q0 22.857143 16 38.857143t38.857143 16l182.857143 0q22.857143 0 38.857143-16t16-38.857143zm0 292.571429l0-109.714286q0-22.857143-16-38.857143t-38.857143-16l-182.857143 0q-22.857143 0-38.857143 16t-16 38.857143l0 109.714286q0 22.857143 16 38.857143t38.857143 16l182.857143 0q22.857143 0 38.857143-16t16-38.857143zm365.714286-292.571429l0-109.714286q0-22.857143-16-38.857143t-38.857143-16l-182.857143 0q-22.857143 0-38.857143 16t-16 38.857143l0 109.714286q0 22.857143 16 38.857143t38.857143 16l182.857143 0q22.857143 0 38.857143-16t16-38.857143zm-365.714286 585.142857l0-109.714286q0-22.857143-16-38.857143t-38.857143-16l-182.857143 0q-22.857143 0-38.857143 16t-16 38.857143l0 109.714286q0 22.857143 16 38.857143t38.857143 16l182.857143 0q22.857143 0 38.857143-16t16-38.857143zm365.714286-292.571429l0-109.714286q0-22.857143-16-38.857143t-38.857143-16l-182.857143 0q-22.857143 0-38.857143 16t-16 38.857143l0 109.714286q0 22.857143 16 38.857143t38.857143 16l182.857143 0q22.857143 0 38.857143-16t16-38.857143zm365.714286-292.571429l0-109.714286q0-22.857143-16-38.857143t-38.857143-16l-182.857143 0q-22.857143 0-38.857143 16t-16 38.857143l0 109.714286q0 22.857143 16 38.857143t38.857143 16l182.857143 0q22.857143 0 38.857143-16t16-38.857143zm-365.714286 585.142857l0-109.714286q0-22.857143-16-38.857143t-38.857143-16l-182.857143 0q-22.857143 0-38.857143 16t-16 38.857143l0 109.714286q0 22.857143 16 38.857143t38.857143 16l182.857143 0q22.857143 0 38.857143-16t16-38.857143zm365.714286-292.571429l0-109.714286q0-22.857143-16-38.857143t-38.857143-16l-182.857143 0q-22.857143 0-38.857143 16t-16 38.857143l0 109.714286q0 22.857143 16 38.857143t38.857143 16l182.857143 0q22.857143 0 38.857143-16t16-38.857143zm0 292.571429l0-109.714286q0-22.857143-16-38.857143t-38.857143-16l-182.857143 0q-22.857143 0-38.857143 16t-16 38.857143l0 109.714286q0 22.857143 16 38.857143t38.857143 16l182.857143 0q22.857143 0 38.857143-16t16-38.857143z"  horiz-adv-x="1025" />

    
    <glyph glyph-name="xinjianwenjian" unicode="&#58934;" d="M837.333624 192.114938 727.103036 192.114938C686.40219 192.114938 653.496907 160.203755 653.496907 120.497634L653.496907-22.84147C653.496907-36.028082 664.465336-46.727837 678.018277-46.727837 691.550205-46.727837 702.539643-36.028082 702.539643-22.84147L702.539643 120.497634C702.539643 133.767837 713.445036 144.342203 727.124049 144.342203L837.354638 144.342203C850.907579 144.342203 861.876004 155.041961 861.876004 168.228572 861.833981 181.436082 850.865553 192.114938 837.333624 192.114938L837.333624 192.114938ZM523.294118 673.882353l0-512-52.705882 0 0 512 52.705882 0ZM240.941176 444.235294l512 0 0-52.705882-512 0 0 52.705882ZM825.062436 884.736 65.131163 884.736 65.131163 1.044899C65.131163-64.804572 120.036334-118.366039 187.674966-118.366039L774.233651-118.366039 781.461886-111.051755 940.79825 50.238693 947.648262 57.176817 947.648262 765.471347C947.648262 831.362612 892.743093 884.736 825.062436 884.736L825.062436 884.736ZM898.605526 76.444735 753.347415-70.593307 187.653953-70.593307C147.100192-70.593307 114.131874-38.431346 114.131874 1.044899L114.131874 836.963265 825.041423 836.963265C865.679234 836.963265 898.584516 804.947592 898.584516 765.471347L898.584516 76.444735 898.605526 76.444735Z"  horiz-adv-x="1024" />

    
    <glyph glyph-name="reduce" unicode="&#59060;" d="M101.979626 447.144132c-21.592784 0-39.102576-17.009396-39.102576-37.984103l0-48.372707c0-20.955264 17.505699-37.984103 39.102576-37.984103l818.485323 0c21.592784 0 39.102576 17.005302 39.102576 37.984103l0 48.372707c0 20.958334-17.505699 37.984103-39.102576 37.984103L101.979626 447.144132 101.979626 447.144132z"  horiz-adv-x="1024" />

    
    <glyph glyph-name="chakan" unicode="&#58987;" d="M511.872 609.37216c55.86944 0 114.36544-13.20448 173.8752-39.2448 48.93184-21.41696 98.61632-51.47136 147.66592-89.33888 50.93376-39.32672 90.71104-79.10912 114.5088-104.8064-23.45472-25.34912-62.4896-64.39936-112.83968-103.47008-49.2288-38.1952-99.11808-68.52608-148.26496-90.15808-59.88352-26.35264-118.74304-39.71584-174.94528-39.71584-55.86432 0-114.36032 13.20448-173.87008 39.24992-48.93696 21.41696-98.61632 51.47136-147.66592 89.33888-50.93376 39.3216-90.71104 79.104-114.51392 104.8064 23.45472 25.344 62.49472 64.39424 112.84992 103.46496 49.23392 38.1952 99.11296 68.53632 148.26496 90.1632C396.81024 596.00896 455.67488 609.37216 511.872 609.37216L511.872 609.37216zM511.872 654.85312C237.65504 654.85312 15.36 376.00256 15.36 376.00256s222.29504-278.85568 496.512-278.85568c274.21696 0 496.512 278.85568 496.512 278.85568S786.08896 654.85312 511.872 654.85312L511.872 654.85312M511.104 482.69824c55.80288 0 101.20192-45.39904 101.20192-101.20192 0-55.79776-45.39392-101.1968-101.20192-101.1968-55.79776 0-101.1968 45.39904-101.1968 101.1968C409.9072 437.2992 455.30624 482.69824 511.104 482.69824L511.104 482.69824zM511.104 528.18432c-81.00864 0-146.67776-65.66912-146.67776-146.68288 0-81.00864 65.66912-146.67776 146.67776-146.67776s146.68288 65.66912 146.68288 146.67776C657.792 462.50496 592.11264 528.18432 511.104 528.18432L511.104 528.18432"  horiz-adv-x="1024" />

    
    <glyph glyph-name="wendang" unicode="&#58911;" d="M992 592.32V94.592c0-49.152-37.376-89.024-83.456-89.024h-83.52v44.48h83.52c23.04 0 41.728 19.968 41.728 44.48v467.52H783.296c-46.144 0-83.456 39.872-83.456 89.024V851.392H324.16c-23.04 0-41.728-19.968-41.728-44.48h-41.728c0 49.152 37.376 89.024 83.52 89.024H728.32L985.92 600M741.568 814.464v-163.328c0-24.576 18.688-44.48 41.792-44.48h140.992L741.568 814.464z m41.728-355.712V-38.848c0-49.152-37.376-89.088-83.456-89.088H115.456c-46.08 0-83.456 39.872-83.456 89.088v712.32c0 49.152 37.376 89.024 83.456 89.024h404.096l257.664-295.872M532.864 680.96v-163.392c0-24.576 18.688-44.48 41.728-44.48h140.992L532.864 680.96z m-459.136-7.552v-712.32c0-24.64 18.688-44.544 41.728-44.544H699.84c23.04 0 41.728 19.968 41.728 44.544V428.544H574.656c-46.08 0-83.456 39.872-83.456 89.024v200.32H115.52c-23.104 0-41.792-19.904-41.792-44.48z m104.384-267.136h208.704v-44.48H178.112v44.48z m0 133.568h208.704v-44.48H178.112v44.48z m459.136-311.68H178.112v44.48h459.136v-44.48z m0-133.568H178.112v44.544h459.136v-44.544z"  horiz-adv-x="1024" />

    
    <glyph glyph-name="liebiao" unicode="&#58925;" d="M419.037 608.047h413.124c17.673 0 32 14.327 32 32s-14.327 32-32 32H419.037c-17.673 0-32-14.327-32-32s14.327-32 32-32zM419.028 352.83h411.608c17.673 0 32 14.327 32 32s-14.327 32-32 32H419.028c-17.673 0-32-14.327-32-32s14.327-32 32-32zM832.161 160.198H419.037c-17.673 0-32-14.327-32-32s14.327-32 32-32h413.124c17.673 0 32 14.327 32 32s-14.327 32-32 32zM256.037 640.047m-64 0a64 64 0 1 1 128 0 64 64 0 1 1-128 0ZM256.037 385.213m-64 0a64 64 0 1 1 128 0 64 64 0 1 1-128 0ZM256.037 128.379m-64 0a64 64 0 1 1 128 0 64 64 0 1 1-128 0Z"  horiz-adv-x="1024" />

    
    <glyph glyph-name="baocun" unicode="&#58881;" d="M819.712-72.192H204.288c-84.48 0-153.088 68.608-153.088 153.088V687.104c0 84.48 68.608 153.088 153.088 153.088h615.424c84.48 0 153.088-68.608 153.088-153.088v-606.208c0-84.48-68.608-153.088-153.088-153.088zM204.288 780.288c-51.712 0-93.184-41.984-93.184-93.184v-606.208c0-51.712 41.984-93.184 93.184-93.184h615.424c51.712 0 93.184 41.984 93.184 93.184V687.104c0 51.712-41.984 93.184-93.184 93.184H204.288z m602.624-397.824H217.088V840.192h590.336l-0.512-457.728zM276.48 442.368h471.04v337.92H276.48v-337.92z m323.584 250.368h59.904v-199.168h-59.904V692.736z"  horiz-adv-x="1024" />

    
    <glyph glyph-name="panel" unicode="&#58948;" d="M960 282.6v-80h-40v80c0 55.1-10.8 108.5-32 158.8-20.5 48.6-50 92.2-87.5 129.7s-81.1 66.9-129.7 87.5c-50.3 21.3-103.7 32-158.8 32s-108.5-10.8-158.8-32c-48.6-20.5-92.2-50-129.7-87.5s-66.9-81.1-87.5-129.7c-21.3-50.3-32-103.7-32-158.8v-80h-40v80c0 247.4 200.6 448 448 448s448-200.6 448-448zM492 622.4h40v60h-40v-60zM215.1 551.2l42.4-42.4 28.3 28.3-42.4 42.4-28.3-28.3zM112.1 262.6h60v40h-60v-40zM851.9 302.6v-40h60v40h-60zM738.2 537l28.3-28.3 42.4 42.4-28.3 28.3-42.4-42.4zM514.3 207.4c-11 0-20-9-20-20s9-20 20-20 20 9 20 20-9 20-20 20M514.3 247.4c33.1 0 60-26.9 60-60s-26.9-60-60-60-60 26.9-60 60 26.9 60 60 60zM442.9 325.5l54.2-154.2 32.7-13.3 7.9 34.3-94.8 133.2M311.3 579.3l269.4-378.4-22.4-97.6-93 37.8-154 438.2zM792 77.4h-560v-40h560v40z"  horiz-adv-x="1024" />

    
    <glyph glyph-name="cuowu" unicode="&#59302;" d="M480 832C217.6 832 0 614.4 0 352s217.6-480 480-480 480 217.6 480 480S742.4 832 480 832z m204.8-614.4c19.2-19.2 19.2-44.8 0-64-19.2-19.2-44.8-19.2-64 0L486.4 288 345.6 147.20000000000005c-19.2-19.2-51.2-19.2-70.4 0-19.2 19.2-19.2 51.2 0 70.4L416 358.4 281.6 492.8c-19.2 19.2-19.2 44.8 0 64 19.2 19.2 44.8 19.2 64 0L480 422.4l140.8 140.8c19.2 19.2 51.2 19.2 70.4 0 19.2-19.2 19.2-51.2 0-70.4L550.4 352l134.4-134.4z"  horiz-adv-x="1024" />

    
    <glyph glyph-name="arrow-left-copy-copy" unicode="&#58889;" d="M982.682 626.579c0 0-410.944-535.178-410.944-535.178-28.559-37.198-90.475-37.197-119.034 0 0 0-410.944 535.178-410.944 535.178-26.477 34.479 6.639 77.596 59.598 77.598 0 0 821.807 0 821.807 0 52.877 0 85.998-43.12 59.517-77.596 0 0 0 0 0 0z"  horiz-adv-x="1024" />

    
    <glyph glyph-name="config-rule" unicode="&#59208;" d="M147 782h680v-315.6h50v365.6h-780v-896h307.6v50h-257.6zM237 294.8h107.6v-50h-107.6zM237 615h500v-50h-500zM927 170.1v50h-81.8c-4.2 29.6-15.9 56.9-33.1 79.8l57.8 57.8-35.4 35.4-57.8-57.8c-22.9 17.2-50.2 28.8-79.8 33.1v81.8h-50v-81.8c-29.6-4.2-56.9-15.9-79.8-33.1l-57.8 57.8-35.3-35.3 57.8-57.8c-17.2-22.9-28.8-50.2-33.1-79.8h-81.7v-50h81.8c4.2-29.6 15.9-56.9 33.1-79.8l-57.9-57.9 35.4-35.4 57.8 57.8c22.9-17.2 50.2-28.8 79.8-33.1v-81.8h50v81.8c29.6 4.2 56.9 15.9 79.8 33.1l57.8-57.8 35.4 35.4-57.8 57.8c17.2 22.9 28.8 50.2 33.1 79.8h81.7zM795.7 177.2c-2.9-20.6-11.1-40.2-23.6-56.9l-10.8-14.5-14.5-10.8c-16.7-12.5-36.3-20.6-56.9-23.6l-17.9-2.6-17.9 2.6c-20.6 2.9-40.2 11.1-56.9 23.6l-14.5 10.8-10.8 14.5c-12.5 16.7-20.6 36.3-23.6 56.9l-2.6 17.9 2.6 17.9c2.9 20.6 11.1 40.2 23.6 56.9l10.8 14.5 14.5 10.8c16.7 12.5 36.3 20.6 56.9 23.6l17.9 2.6 17.9-2.6c20.6-2.9 40.2-11.1 56.9-23.6l14.5-10.8 10.8-14.5c12.5-16.7 20.6-36.3 23.6-56.9l2.6-17.9-2.6-17.9zM237 454.9h167.6v-50h-167.6z"  horiz-adv-x="1024" />

    
    <glyph glyph-name="wenjianjia1" unicode="&#58898;" d="M861.39904 56.07936c0-30.90944-25.06752-55.87456-55.92576-55.87456H106.77248l97.8432 461.12768c0 30.87872 24.91904 55.90528 55.77728 55.90528h642.92352c30.85312 0 55.82848-25.02656 55.82848-55.90528l-97.74592-405.25312zM218.5216 559.18592h628.86912V614.07744c0 30.87872-25.07264 55.90528-55.87968 55.90528h-335.36V720.64c0 30.82752-25.03168 55.87456-55.87968 55.87456H120.7296c-30.85312 0-55.87968-25.05216-55.87968-55.87456v-664.56064l97.75104 447.17568c0 30.87872 25.06752 55.93088 55.92064 55.93088z"  horiz-adv-x="1024" />

    
    <glyph glyph-name="biaoge" unicode="&#59086;" d="M953.346153656006 760.4423073120117h-817.7884609680175c-25.96153820800781 0-45.43269268798828-19.47115365600586-45.43269268798828-45.43269186401367v-707.4519227600098c0-25.96153820800781 19.47115365600586-45.43269268798828 45.43269268798828-45.43269268798828h817.7884609680175c25.96153820800781 0 45.43269268798828 19.47115365600586 45.43269268798828 45.43269268798828v707.4519227600098c0 25.96153820800781-19.47115365600586 45.43269268798828-45.43269268798828 45.43269186401367z m-577.6442308959961-739.9038455200196h-227.1634609680176v155.7692308959961h227.1634609680176v-155.7692308959961z m0 207.69230731201174h-227.1634609680176v155.7692308959961h227.1634609680176v-155.7692308959961z m0 207.69230813598634h-227.1634609680176v155.76923007202146h227.1634609680176v-155.76923007202146z m279.0865390319824-415.38461544799804h-227.16346179199223v155.7692308959961h227.16346179199223v-155.7692308959961z m0 207.69230731201174h-227.16346179199223v155.7692308959961h227.16346179199223v-155.7692308959961z m0 207.69230813598634h-227.16346179199223v155.76923007202146h227.16346179199223v-155.76923007202146z m285.5769227600098-415.38461544799804h-227.16346179199223v155.7692308959961h227.16346179199223v-155.7692308959961z m0 207.69230731201174h-227.16346179199223v155.7692308959961h227.16346179199223v-155.7692308959961z m0 207.69230813598634h-227.16346179199223v155.76923007202146h227.16346179199223v-155.76923007202146z"  horiz-adv-x="1102" />

    
    <glyph glyph-name="fuzhi" unicode="&#58880;" d="M96.1 320.3a32.2 32.1 0 1 1 64.4 0 32.2 32.1 0 1 1-64.4 0ZM742.1 445.3l-269.5 2.1c-14.3 0.1-26-13.8-26-31s11.7-31.3 26-31.4l269.5-2.1c14.3-0.1 26 13.8 26 31s-11.7 31.3-26 31.4zM742.1 318.3l-269.5 2.1c-14.3 0.1-26-13.8-26-31s11.7-31.3 26-31.4l269.5-2.1c14.3-0.2 26 13.8 26 31s-11.7 31.3-26 31.4zM736.1 832.1H417c-70.4 0-128-57.6-128-128h-64.9c-70.4 0-128-57.6-128-128v-128c-0.1-17.7 14.4-32 32.2-32 17.8 0 32.2 14.4 32.2 32.1V576c0 35.2 28.8 64 64 64H289v-447.8c0-70.4 57.6-128 128-128h255.1c-0.1-35.2-28.8-63.8-64-63.8H224.5c-35.2 0-64 28.8-64 64V192.5c0 17.7-14.4 32.1-32.2 32.1-17.8 0-32.3-14.4-32.3-32.1v-128.3c0-70.4 57.6-128 128-128h384.1c70.4 0 128 57.6 128 128h65c70.4 0 128 57.6 128 128V640.1l-193 192z m0.1-63.4l127.7-128.3H800c-35.2 0-64 28.8-64 64v64.3h0.2z m64-641H416.1c-35.2 0-64 28.8-64 64v513c0 35.2 28.8 64 64 64H671V705c0-70.4 57.6-128 128-128h65.2v-385.3c0-35.2-28.8-64-64-64z"  horiz-adv-x="1024" />

    
    <glyph glyph-name="download" unicode="&#58887;" d="M512 832a448 448 0 1 0-448-448 448 448 0 0 0 448 448m0 64a512 512 0 1 1 512-512 512 512 0 0 1-512 512zM739.84 329.6a31.36 31.36 0 0 1-45.44 44.16l-134.4-139.52V576a32 32 0 0 1-64 0v-346.24L348.16 373.12a32 32 0 0 1-44.8-45.44l223.36-219.52 15.36 16 28.8 28.8 167.68 173.44z"  horiz-adv-x="1024" />

    
    <glyph glyph-name="edit" unicode="&#58890;" d="M759.656537-127.99869100000001H156.380631A155.726319 155.726319 0 0 0 0 26.419002999999975V634.275095a155.726319 155.726319 0 0 0 156.380631 153.763382h339.588064a32.715613 32.715613 0 0 0 0-65.431227H156.380631A90.295092 90.295092 0 0 1 65.431226 634.275095v-607.856092a90.295092 90.295092 0 0 1 90.949405-88.986468h602.621594a90.295092 90.295092 0 0 1 91.603717 88.986468V388.907996a32.715613 32.715613 0 0 0 65.431226 0v-362.488993a155.726319 155.726319 0 0 0-156.380631-154.417694zM567.288732 233.83599000000004H361.180369V437.981416L776.014344 854.778327a149.183196 149.183196 0 0 0 205.45405 0 145.911635 145.911635 0 0 0 0-206.108362z m-140.677137 65.431226h113.196022l395.858919 395.858919a80.480408 80.480408 0 0 1 0 113.196022 81.789033 81.789033 0 0 1-113.196022 0L426.611595 412.463238z"  horiz-adv-x="1024" />

    
    <glyph glyph-name="bianji1" unicode="&#59247;" d="M710.4 787.2s51.2 48 54.4 51.2c3.2 3.2 70.4 60.8 153.6-6.4 19.2-19.2 105.6-99.2 64-176-9.6-16-19.2-22.4-67.2-73.6-12.8 9.6-204.8 204.8-204.8 204.8zM627.2 704l201.6-204.8-457.6-464-41.6-38.4s-16-16-57.6-35.2c-44.8-16-105.6-41.6-182.4-57.6-22.4-3.2-60.8-9.6-54.4 38.4 3.2 48 35.2 134.4 54.4 188.8 22.4 51.2 38.4 67.2 70.4 99.2C188.8 265.6 627.2 704 627.2 704z m67.2-704h96v-96h-96v96z m-198.4 0h96v-96h-96v96z m396.8 0h96v-96h-96v96z"  horiz-adv-x="1024" />

    
    <glyph glyph-name="jiankong" unicode="&#59038;" d="M64 832V256H896V832H64zM0 896h960v-704H0V896zM192 0H768v-64H192zM448 256H512v-256h-64zM479.232 334.395733l309.9904 348.330667-47.803733 42.5472-259.566934-291.669333L303.957333 655.991467 163.208533 457.3952l52.224-37.009067 91.6224 129.28z"  horiz-adv-x="1024" />

    
    <glyph glyph-name="arrow-left-copy" unicode="&#58915;" d="M324.613 747.591c0 0 413.412-317.444 413.412-317.444 28.734-22.06 28.734-69.89 0-91.951 0 0-413.412-317.444-413.412-317.444-26.633-20.453-59.941 5.128-59.942 46.038 0 0 0 634.826 0 634.826 0 40.847 33.308 66.43 59.941 45.976 0 0 0 0 0 0z"  horiz-adv-x="1024" />

    
    <glyph glyph-name="bangzhu1" unicode="&#58900;" d="M512.1-63.8h-1.9c-119.6 0.5-231.9 47.5-316.1 132.4S63.7 266.2 64.2 385.8c1 246.3 201.7 446 447.8 446h1.8c246.9-1 447-202.7 446-449.6-0.5-119.6-47.5-231.9-132.4-316.1-84.5-83.8-196.4-129.9-315.3-129.9z m-0.1 853.2c-222.8 0-404.5-180.8-405.4-403.8-0.4-108.3 41.3-210.2 117.6-287.1 76.3-76.9 177.9-119.4 286.2-119.9h1.7c107.7 0 209 41.7 285.5 117.6 76.9 76.3 119.4 177.9 119.9 286.2 0.9 223.5-180.2 406.1-403.8 407H512zM512 131.6m-43.9 0a43.9 43.9 0 1 1 87.8 0 43.9 43.9 0 1 1-87.8 0ZM512 84.2c-26.1 0-47.4 21.3-47.4 47.4 0 26.1 21.3 47.4 47.4 47.4 26.1 0 47.4-21.3 47.4-47.4 0-26.1-21.3-47.4-47.4-47.4z m0 87.7c-22.2 0-40.3-18.1-40.3-40.3 0-22.2 18.1-40.3 40.3-40.3s40.3 18.1 40.3 40.3c0 22.2-18.1 40.3-40.3 40.3zM606.7 395c-49.6-36.1-71.9-79.7-67.3-130.8 0.3-1.7 0.5-3.4 0.5-5.1 0-17.8-14.5-32.3-32.3-32.3-17.8 0-32.3 14.5-32.3 32.3 0 0.8 0.2 1.5 0.2 2.2h-0.1c-1.9 36.8 2 65 11.8 84.4 5.8 17.5 25.3 42.7 58.3 75.7l5.8 5.8c40.8 34.9 59.3 66.9 55.5 96-5.7 56.3-35.8 85.5-90.1 87.6-67.7-1.9-100.7-41.3-99.2-118.3 0-0.6 0.2-1.1 0.2-1.6 0-18.5-15-33.6-33.6-33.6-18.5 0-33.6 15-33.6 33.6 0 0.2 0.1 0.5 0.1 0.7-1.8 64.1 18.6 110.6 61.4 139.7 29.2 23.3 65.1 34.9 107.8 34.8 97-7.9 148.5-56.5 154.1-145.8 1.8-40.9-20.6-82.7-67.2-125.3zM507.6 223.3c-19.8 0-35.8 16.1-35.8 35.8 0 0.6 0.1 1.2 0.1 1.8v0.2c-1.9 37.2 2.2 66.1 12.1 85.9 6.1 18.1 25.5 43.2 59.1 76.8l4.6 4.6 1.4 1.4c39.7 33.9 57.9 65.2 54.3 92.8-5.6 54.8-33.9 82.4-86.6 84.5-65.9-1.9-97.2-39.4-95.7-114.6v-0.3c0.1-0.5 0.1-0.9 0.1-1.4 0-20.5-16.6-37.1-37.1-37.1S347 470.3 347 490.8v0.6c-1.9 65 19.3 113 62.8 142.6 29.6 23.6 66.5 35.5 109.5 35.5h0.7c98.7-8.1 151.6-58.2 157.4-149.1 1.9-41.8-21.1-84.8-68.3-128l-0.3-0.2c-48.1-35-70.3-77.9-65.9-127.5 0.3-1.8 0.5-3.6 0.5-5.6 0-19.8-16-35.8-35.8-35.8z m-28.8 41.5h0.4l-0.2-3.8c0-0.4-0.1-0.8-0.1-1.1 0-0.3-0.1-0.5-0.1-0.8 0-15.9 12.9-28.8 28.8-28.8s28.8 12.9 28.8 28.8c0 1.5-0.2 3-0.5 4.6v0.2c-4.7 52.2 18.4 97.2 68.6 133.9 45.5 41.6 67.7 82.7 65.9 122.2-5.6 87.9-54.9 134.6-150.7 142.4h-0.2c-41.5 0-76.9-11.5-105.2-34l-0.2-0.2c-40.7-27.7-60.8-72.5-59.9-133.2h0.1v-3.6c0-0.3 0-0.6-0.1-0.8 0-16.4 13.5-29.9 30.1-29.9s30 13.5 30 30c0 0.1 0 0.3-0.1 0.4 0 0.3-0.1 0.7-0.1 1-1.6 79 33 120 102.7 122h0.2c56.2-2.2 87.6-32.7 93.5-90.8 4-30.1-15-63.4-56.6-99l-1.1-1.1c-1.5-1.5-3.1-3-4.6-4.5-32.6-32.5-51.9-57.5-57.5-74.3l-0.2-0.5c-9.2-17.9-13.1-44.6-11.7-79.1z"  horiz-adv-x="1024" />

    
    <glyph glyph-name="tishi" unicode="&#58884;" d="M512 832C262.4 832 64 633.6 64 384s198.4-448 448-448 448 198.4 448 448S761.6 832 512 832z m51.2-716.8c0-32-19.2-51.2-51.2-51.2s-51.2 19.2-51.2 51.2V409.6c0 32 19.2 51.2 51.2 51.2s51.2-19.2 51.2-51.2v-294.4z m25.6 486.4c0-44.8-38.4-76.8-76.8-76.8s-76.8 32-76.8 76.8 32 83.2 76.8 83.2 76.8-38.4 76.8-83.2z"  horiz-adv-x="1024" />

    
    <glyph glyph-name="jiantou1" unicode="&#58891;" d="M824.446082 744.523053l0-718.53082c0-39.763632-31.909757-71.922053-71.675436-71.922053-18.485003 0-35.205826 7.095605-47.872311 18.486026L230.77294399 327.885981c-31.400151 23.810289-37.993313 68.641333-14.18302399 100.29731 4.052293 5.570879 8.873088 10.384511 14.190187 14.18302399L709.958584 801.764755c31.407314 23.547299 76.479859 17.217127 100.041484-14.436804 9.881045-12.922311 14.43885-27.864628 14.43884999-42.804898l0 0L824.446082 744.523053zM824.446082 744.523053"  horiz-adv-x="1024" />

    
    <glyph glyph-name="sousuo" unicode="&#58892;" d="M356.511 246.73c-171.9 0-311.735 139.449-311.735 310.85S184.611 868.43 356.511 868.43c171.891 0 311.735-139.449 311.735-310.85S528.401 246.73 356.511 246.73z m0 534.177c-123.496 0-223.977-100.179-223.977-223.327 0-123.147 100.48-223.327 223.977-223.327s223.978 100.18 223.978 223.327c-0.001 123.148-100.482 223.327-223.978 223.327zM968.841-77.681c-25.662-25.425-66.42-26.057-91.026-1.393l-334.11 334.629c-24.626 24.653-23.77 65.232 1.883 90.658 25.672 25.426 66.409 26.057 91.036 1.403l334.109-334.638c24.616-24.653 23.76-65.241-1.892-90.659z"  horiz-adv-x="1024" />

    
    <glyph glyph-name="monitoring" unicode="&#59530;" d="M512 707.2c-179.2 0-323.2-145.6-323.2-323.2S334.4 59.200000000000045 512 59.200000000000045 836.8 204.79999999999995 836.8 384 691.2 707.2 512 707.2z m0-608c-156.8 0-284.8 128-284.8 284.8s128 284.8 284.8 284.8 284.8-128 284.8-284.8-128-284.8-284.8-284.8zM652.8 502.4l-70.4-225.6-49.6 302.4-40 1.6-43.2-177.6H416l-17.6-12.8-11.2-33.6-32 112-36.8 1.6-27.2-67.2H272v-40h32l19.2 12.8 9.6 25.6 32-118.4 38.4-1.6 27.2 81.6H464l19.2 16 25.6 97.6 48-288 38.4-3.2 76.8 240 12.8-48 19.2-14.4h48v40h-32l-28.8 97.6z"  horiz-adv-x="1024" />

    
    <glyph glyph-name="daochu" unicode="&#58932;" d="M894.6 363.7c-17.5 0-31.7-14.2-31.7-31.7v-251c0-23.3-19-42.3-42.3-42.3H203.7c-23.3 0-42.3 19-42.3 42.3V662.3c0 23.3 19 42.3 42.3 42.3h270.7c17.5 0 31.7 14.2 31.7 31.7S492 768 474.4 768H203.7C145.4 768 98 720.6 98 662.3V81c0-58.3 47.4-105.7 105.7-105.7h616.9c58.3 0 105.7 47.4 105.7 105.7V332c0 17.5-14.2 31.7-31.7 31.7zM253.1 207.1c98.5 93.2 197.9 237.3 373.7 228 12.4-0.7 22.1-10.4 22.1-22.9v-61c-0.1-19.2 22.2-29.9 37.1-17.8l227.9 184.3c11.3 9.1 11.3 26.4-0.1 35.5L687 757.2c-14.9 12-38.1 1.4-38.2-17.7v-61.8c0-11.6-7.9-20-19.3-22.6-302.5-69-379-423.6-376.4-448z"  horiz-adv-x="1024" />

    
    <glyph glyph-name="xiangxi" unicode="&#58899;" d="M1024 353.88235299999997h-60.235294V775.529412c0 36.141176-24.094118 60.235294-60.235294 60.235294H120.470588c-36.141176 0-60.235294-24.094118-60.235294-60.235294v-783.058824c0-36.141176 24.094118-60.235294 60.235294-60.235294h542.117647v-60.235294H120.470588c-66.258824 0-120.470588 54.211765-120.470588 120.470588V775.529412C0 841.788235 54.211765 896 120.470588 896h783.058824c66.258824 0 120.470588-54.211765 120.470588-120.470588v-421.647059zM901.963294 9.33647099999996l42.646588 42.586353 127.698824-127.698824-42.526118-42.646588zM180.705882 715.294118h487.905883v-60.235294H180.705882zM180.705882 534.5882349999999h301.176471v-60.235294H180.705882zM180.705882 353.88235299999997h301.176471v-60.235294H180.705882zM783.058824-37.64705900000001c-114.447059 0-210.823529 96.376471-210.82353 210.82353s96.376471 210.823529 210.82353 210.823529 210.823529-96.376471 210.823529-210.823529-96.376471-210.823529-210.823529-210.82353z m0 361.411765c-84.329412 0-150.588235-66.258824-150.588236-150.588235s66.258824-150.588235 150.588236-150.588236 150.588235 66.258824 150.588235 150.588236-66.258824 150.588235-150.588235 150.588235z"  horiz-adv-x="1084" />

    
    <glyph glyph-name="wenjianjia" unicode="&#58893;" d="M974.99592797 121.22599136999997H49.00407203V675.63358183h857.08789887c38.11120672 0 69.04204115-30.93083443 69.04204115-69.04204115v-485.36554931h-0.13808408zM627.71446098 675.63358183c0 63.9329301-51.78153086 115.71446098-115.71446098 115.71446098H49.00407203v-115.71446098h578.71038895M164.718533 275.74207947V622.88546238h694.562934v-347.14338291h-694.562934zM974.99592797 47.90334367000003V497.50511565c0 31.89742302-25.95980747 57.85723049-57.85723049 57.85723048H106.86130252c-31.89742302 0-57.85723049-25.95980747-57.85723049-57.85723048v-449.4636879c0-39.35396347 31.89742302-71.38947055 71.38947055-71.38947056h783.35099891c39.35396347-0.13808409 71.25138647 31.89742302 71.25138648 71.25138648z"  horiz-adv-x="1024" />

    
    <glyph glyph-name="icon-test" unicode="&#58984;" d="M679.098182 23.337891h-91.769018v-142.848H410.847418V23.337891H0V197.306182L344.492218 887.510109h200.480582L200.480582 197.306182h210.366836V385.414982h176.481746v-188.1088h91.769018v-173.968291z m833.601163 148.507927c0-192.353745-141.190982-299.845818-304.965818-299.845818-163.774836 0-306.362182 107.492073-306.362182 299.845818V596.154182c0 192.353745 142.587345 299.845818 306.362182 299.845818 163.774836 0 304.965818-107.492073 304.965818-299.845818v-424.308364z m-183.547345 1.414982V593.324218c0 84.861673-49.412655 137.197382-121.418473 137.197382-72.005818 0-122.824145-52.335709-122.824145-137.197382v-420.063418c0-84.861673 50.827636-135.7824 122.824145-135.7824 72.005818 0 121.418473 50.920727 121.418473 135.7824z m895.720727-292.770909h-183.538036V689.505745l-204.716218-178.213236v198.004364L2041.325382 887.519418H2224.872727v-1007.020218z"  horiz-adv-x="2224" />

    
    <glyph glyph-name="suoyou" unicode="&#59365;" d="M56.197069 487.424l321.536-196.096c74.24-45.056 195.584-45.056 269.824 0l321.536 196.096c74.24 45.056 74.24 119.296 0 164.352L647.045069 847.872C572.805069 892.928 451.461069 892.928 377.221069 847.872L56.197069 651.776c-74.24-45.056-74.24-119.296 0-164.352zM968.581069 404.992l-321.536-196.096c-74.24-45.056-195.584-45.056-269.824 0L56.197069 404.992c-14.848 9.216-27.136 19.456-35.84 30.72-35.328-43.52-23.552-97.792 35.84-133.632l321.536-196.096c74.24-45.056 195.584-45.056 269.824 0l321.536 196.096c58.88 35.84 71.168 90.624 35.84 133.632-9.216-11.264-21.504-21.504-36.352-30.72zM968.581069 219.136l-321.536-196.096c-74.24-45.056-195.584-45.056-269.824 0l-321.536 196.096c-14.848 9.216-27.136 19.456-35.84 30.72-35.328-43.52-23.552-97.792 35.84-133.632l321.536-196.096c74.24-45.056 195.584-45.056 269.824 0l321.536 196.096c58.88 35.84 71.168 90.624 35.84 133.632-8.704-11.264-20.992-21.504-35.84-30.72z"  horiz-adv-x="1024" />

    
    <glyph glyph-name="jiantou11" unicode="&#58894;" d="M398.499 659.5l274.256-274.256-274.256-274.256z"  horiz-adv-x="1024" />

    
    <glyph glyph-name="xiangqing" unicode="&#58968;" d="M822.784 654.336L631.296 845.824C614.4 862.72 591.872 872.96 566.272 872.96l-423.936 1.536C74.752 872.96 20.48 818.688 20.48 751.104V15.36c0-68.096 55.296-123.392 123.392-123.392h430.08c-22.016 16.896-41.984 36.352-58.88 57.856H142.336c-36.352 0-65.536 29.696-66.048 66.048V751.104c0 36.352 29.696 66.048 64 66.048 3.072 0 348.672 0 437.248-1.536l6.656-5.12V683.52c0-40.96 33.28-74.24 74.24-74.24h128.512l5.12-5.12v-161.792c19.968-2.048 38.912-6.144 57.856-12.288V588.8c0 26.112-10.24 49.152-27.136 65.536zM234.496 198.144c-16.384 0-31.232-13.312-31.232-31.232 0-16.384 13.312-31.232 31.232-31.232H450.56v2.048c0 20.48 2.048 40.96 6.144 60.416H234.496zM757.76 212.48c-37.888 0-66.56-31.232-66.56-73.216 0-41.472 28.672-73.216 66.56-73.216s66.56 31.232 66.56 73.216c1.536 39.936-28.672 73.216-66.56 73.216zM757.76 321.536c-111.104 0-207.872-76.288-245.76-184.32 37.888-107.52 133.12-184.32 245.76-184.32s207.872 78.336 245.76 185.856c-38.4 106.496-133.12 182.784-245.76 182.784z m0-305.664c-61.952 0-111.104 53.76-111.104 121.856s49.152 121.856 111.104 121.856 111.104-53.76 111.104-121.856c1.536-68.096-47.616-121.856-111.104-121.856z m-90.624 489.984c-1.536 16.384-14.848 31.232-32.768 31.232h-399.36c-16.384 0-31.232-13.312-31.232-31.232 0-16.384 13.312-31.232 31.232-31.232h400.896c16.384 0 31.232 12.8 31.232 31.232z m-112.128-138.24h-320c-16.384 0-31.232-13.312-31.232-31.232s13.312-31.232 31.232-31.232h265.728s25.6 40.96 54.272 62.464z"  horiz-adv-x="1024" />

    
    <glyph glyph-name="icon-test1" unicode="&#59084;" d="M598.6304 777.8304c0-48.3328-39.1168-87.4496-87.4496-87.4496S423.936 729.7024 423.936 777.8304 463.0528 865.28 511.3856 865.28s87.2448-39.1168 87.2448-87.4496z m-87.2448 64.3072c-35.4304 0-64.1024-28.672-64.1024-64.1024s28.672-64.1024 64.1024-64.1024S575.488 742.4 575.488 777.8304s-28.672 64.3072-64.1024 64.3072z m296.1408-269.1072l-202.752 157.0816 19.6608 24.576 231.424-181.6576h-48.3328z m-649.8304 0L395.264 754.688l14.336-24.576-204.8-157.0816H157.696zM981.6064-82.944H40.96c-22.528 0-40.96 18.432-40.96 40.96V519.168c0 22.528 18.432 40.96 40.96 40.96h940.6464c22.528 0 40.96-18.432 40.96-40.96v-561.152c0-22.528-18.432-40.96-40.96-40.96z m14.9504 67.7888V494.592c0 22.528-18.432 40.96-40.96 40.96H66.9696c-22.528 0-40.96-18.432-40.96-40.96v-509.7472c0-22.528 18.432-40.96 40.96-40.96h888.4224c22.7328 0 41.1648 18.432 41.1648 40.96z m1.2288 419.6352H26.2144v-24.576h971.3664v24.576zM183.0912 456.4992v23.1424c0 9.4208-7.7824 17.2032-17.2032 17.2032H101.9904c-9.4208 0-17.2032-7.7824-17.2032-17.2032v-23.1424c0-9.4208 7.7824-17.2032 17.2032-17.2032H165.888c9.6256 0 17.2032 7.7824 17.2032 17.2032z m128.4096 0v23.1424c0 9.4208-7.7824 17.2032-17.2032 17.2032h-64.1024c-9.4208 0-17.2032-7.7824-17.2032-17.2032v-23.1424c0-9.4208 7.7824-17.2032 17.2032-17.2032h64.1024c9.4208 0 17.2032 7.7824 17.2032 17.2032z m128.4096 0v23.1424c0 9.4208-7.7824 17.2032-17.2032 17.2032h-64.1024c-9.4208 0-17.2032-7.7824-17.2032-17.2032v-23.1424c0-9.4208 7.7824-17.2032 17.2032-17.2032h64.1024c9.4208 0 17.2032 7.7824 17.2032 17.2032z m-155.648-412.8768v85.1968H170.8032v28.2624l113.4592 141.9264h56.9344v-141.9264h28.2624v-28.2624h-28.2624v-85.1968h-56.9344z m0 113.4592v106.496l-85.1968-106.496h85.1968z m198.656 141.9264h56.9344c15.36 0 28.672-5.5296 39.7312-16.7936 11.0592-11.264 16.5888-24.576 16.5888-39.936v-141.5168c0-15.36-5.5296-28.672-16.5888-39.936-11.0592-11.264-24.3712-16.7936-39.7312-16.7936h-56.9344c-15.36 0-28.672 5.5296-39.936 16.5888-11.264 11.0592-16.7936 24.576-16.7936 40.1408v141.5168c0 15.5648 5.5296 29.0816 16.7936 40.1408 11.264 11.0592 24.576 16.5888 39.936 16.5888z m56.5248-51.8144c-4.096 15.5648-13.5168 23.552-28.2624 23.552-7.7824 0-14.336-2.8672-19.8656-8.3968-5.5296-5.5296-8.3968-12.288-8.3968-20.2752v-96.256l56.5248 101.376z m-55.7056-151.3472c1.4336-7.7824 4.3008-13.5168 9.0112-17.6128 4.7104-4.096 10.8544-6.144 18.6368-6.144 7.9872 0 14.7456 2.8672 20.2752 8.6016 5.5296 5.7344 8.3968 12.288 8.3968 20.0704v96.256l-56.32-101.1712z m254.5664-52.224v85.1968h-113.4592v28.2624l113.4592 141.9264h56.9344v-141.9264H823.296v-28.2624h-28.2624v-85.1968h-56.7296z m0 113.4592v106.496l-85.1968-106.496h85.1968zM104.2432 219.5456v7.3728c0 4.7104-3.8912 8.6016-8.6016 8.6016h-7.3728c-4.7104 0-8.6016-3.8912-8.6016-8.6016v-7.3728c0-4.7104 3.8912-8.6016 8.6016-8.6016h7.3728c4.7104 0 8.6016 3.8912 8.6016 8.6016z m0-111.2064V115.712c0 4.7104-3.8912 8.6016-8.6016 8.6016h-7.3728c-4.7104 0-8.6016-3.8912-8.6016-8.6016v-7.3728c0-4.7104 3.8912-8.6016 8.6016-8.6016h7.3728c4.7104 0 8.6016 3.8912 8.6016 8.6016z m814.2848 111.2064v7.3728c0 4.7104-3.8912 8.6016-8.6016 8.6016h-7.3728c-4.7104 0-8.6016-3.8912-8.6016-8.6016v-7.3728c0-4.7104 3.8912-8.6016 8.6016-8.6016h7.3728c4.7104 0 8.6016 3.8912 8.6016 8.6016z m0-111.2064V115.712c0 4.7104-3.8912 8.6016-8.6016 8.6016h-7.3728c-4.7104 0-8.6016-3.8912-8.6016-8.6016v-7.3728c0-4.7104 3.8912-8.6016 8.6016-8.6016h7.3728c4.7104 0 8.6016 3.8912 8.6016 8.6016z"  horiz-adv-x="1024" />

    
    <glyph glyph-name="weibiaoti--" unicode="&#58895;" d="M121.3 219.6m-40.9 0a40.9 40.9 0 1 1 81.8 0 40.9 40.9 0 1 1-81.8 0ZM266.5 44.4m-40.9 0a40.9 40.9 0 1 1 81.8 0 40.9 40.9 0 1 1-81.8 0ZM512 864.4C252.8 864.4 42.6 654.3 42.6 395c0-69 14.9-134.6 41.7-193.6l74.2 35.4c-21.7 48.3-33.7 101.8-33.7 158.2 0 213.8 173.3 387.2 387.2 387.2S899.2 608.9 899.2 395 725.8 7.9 512 7.9c-81.9 0-157.9 25.4-220.4 68.8l-51.2-57.2c1.5-0.7 2.5-2.1 2.5-3.6s0.3-3.2-1.2-3.9c76.7-54.5 169.2-86.2 270.4-86.2 259.2 0 469.4 210.1 469.4 469.4S771.2 864.4 512 864.4zM379.9 547.2c11.3 19.6 36.4 26.3 55.9 15l226.6-130.9c19.6-11.3 26.3-36.4 15-55.9-11.3-19.6-36.4-26.3-55.9-15L394.9 491.3c-19.6 11.3-26.3 36.3-15 55.9zM416.2 567.7c22.6 0 41-18.3 41-41V265c0-22.6-18.3-41-41-41-22.6 0-41 18.3-41 41V526.8c0 22.6 18.4 40.9 41 40.9zM677.5 417.4c11.5-19.5 5.1-44.6-14.4-56.1L437.8 228.1c-19.5-11.5-44.6-5.1-56.1 14.4s-5.1 44.6 14.4 56.1l225.3 133.2c19.5 11.5 44.6 5 56.1-14.4z"  horiz-adv-x="1024" />

    
    <glyph glyph-name="chaxun" unicode="&#58967;" d="M872 804H152c-33.09 0-60-26.91-60-60v-720c0-33.09 26.91-60 60-60h555a30 30 0 1 1 0 60H152V744h720v-555a30 30 0 1 1 60 0V744c0 33.09-26.91 60-60 60zM774.26 164.15999999999997A193.83 193.83 0 0 1 812 279c0 107.52-87.48 195-195 195S422 386.52 422 279s87.48-195 195-195a193.83 193.83 0 0 1 114.84 37.74l103.95-103.95a29.91 29.91 0 0 1 42.42 0 29.97 29.97 0 0 1 0 42.42l-103.95 103.95zM482 279c0 74.43 60.57 135 135 135s135-60.57 135-135-60.57-135-135-135-135 60.57-135 135zM782 616.5a30 30 0 0 1-30 30H272a30 30 0 0 1 0-60h480a30 30 0 0 1 30 30zM272 467.76a30 30 0 0 1 0-60h90a30 30 0 0 1 0 60H272z"  horiz-adv-x="1024" />

    
    <glyph glyph-name="fabu1" unicode="&#59012;" d="M720.7 117.6c-4.4 0-8.8 0.7-13.2 2-13.4 4.1-242.4 74.9-252.2 77.9-0.1 0-0.1 0-0.2 0.1-13 4.2-22.8 14.2-26.4 26.8-3.7 13.2-0.3 27.2 9.4 38.4L533 374.7 374.2 239.8c-7.1-6-19.3-12.2-36.9-7.3-0.2 0-0.3 0.1-0.5 0.1-1.9 0.6-187.8 56.7-218 66-29.5 9.1-34.1 29-34.7 37.1-1.3 17.4 9.8 34.4 28.4 43.4 19.8 9.6 722.1 349.6 736.6 356.7 24.3 12.3 39.9 2.9 45.5-1.7 11.5-9.4 15.4-25.3 10.6-42.5L764.7 154.9c-3.7-14.3-12-25.6-23.2-31.8-6.4-3.6-13.5-5.5-20.8-5.5zM467.6 235.5c12.5-3.9 238.4-73.7 251.4-77.7 1.9-0.6 2.7-0.1 3 0.1 1.2 0.7 2.9 2.9 4 7.1l139.8 534.6c-26.8-13-716.4-346.8-735.9-356.4-2.5-1.2-4.2-2.7-5.2-3.8 1.1-0.7 3-1.6 5.8-2.5 29.6-9.2 209.1-63.3 217.4-65.9 0.4-0.1 0.6-0.2 0.9-0.2l343.9 292c7.9 6.7 19.7 6.3 27.1-1.1 7.4-7.4 7.9-19.1 1.1-27.1L468.6 236.8c0-0.1-0.1-0.1-0.1-0.2-0.4-0.4-0.7-0.7-0.9-1.1zM857.9 718zM432.9 14.3c-3.3 0-6.4 0.5-9.2 1.4-12.3 4-20.6 15.9-20.6 29.5V162.4c0 10.7 4.6 20.3 12.7 26.2 7.8 5.8 17.9 7.3 27.6 4.4l69.2-20c0.2-0.1 0.4-0.1 0.5-0.2 10.3-3.3 18.1-10.7 21.4-20.2 3.3-9.6 1.7-20.2-4.4-28.9-0.1-0.1-0.2-0.3-0.3-0.4L462 30.7c-8.9-12.1-19.7-16.4-29.1-16.4z m10.2 137.1v-78.9l47.6 65.1-47.6 13.8z"  horiz-adv-x="1024" />

    
    <glyph glyph-name="quxiaofabu" unicode="&#59013;" d="M720.7 127.1c-4.4 0-8.8 0.7-13.2 2C694.1 133.2 465 204 455.3 207c-0.1 0-0.1 0-0.2 0.1-13 4.2-22.8 14.2-26.4 26.8-3.7 13.2-0.3 27.2 9.4 38.4L533 384.2 374.2 249.3c-7.1-6-19.3-12.2-36.9-7.3-0.2 0-0.3 0.1-0.5 0.1-1.9 0.6-187.8 56.7-218 66-29.5 9.1-34.1 29-34.7 37.1-1.3 17.4 9.8 34.4 28.4 43.4 19.8 9.6 722.1 349.6 736.6 356.7 24.3 12.3 39.9 2.9 45.5-1.7 11.5-9.4 15.4-25.3 10.6-42.5L764.7 164.4c-3.7-14.3-12-25.6-23.2-31.8-6.4-3.6-13.5-5.5-20.8-5.5zM467.6 245c12.5-3.9 238.4-73.7 251.4-77.7 1.9-0.6 2.7-0.1 3 0.1 1.2 0.7 2.9 2.9 4 7.1l139.8 534.6c-26.8-13-716.4-346.8-735.9-356.4-2.5-1.2-4.2-2.7-5.2-3.8 1.1-0.7 3-1.6 5.8-2.5 29.6-9.2 209.1-63.4 217.4-65.9 0.4-0.1 0.6-0.2 0.9-0.2l343.9 292c7.9 6.7 19.7 6.3 27.1-1.1 7.4-7.4 7.9-19.1 1.1-27.1L468.6 246.3c0-0.1-0.1-0.1-0.1-0.2-0.4-0.4-0.7-0.7-0.9-1.1z m390.3 482.5zM432.9 23.8c-3.3 0-6.4 0.5-9.2 1.4-12.3 4-20.6 15.9-20.6 29.5V171.9c0 10.7 4.6 20.3 12.7 26.2 7.8 5.8 17.9 7.3 27.6 4.4l69.2-20c0.2-0.1 0.4-0.1 0.5-0.2 10.3-3.3 18.1-10.7 21.4-20.2 3.3-9.6 1.7-20.2-4.4-28.9-0.1-0.1-0.2-0.3-0.3-0.4L462 40.2c-8.9-12.1-19.7-16.4-29.1-16.4z m10.2 137.1V82l47.6 65.2-47.6 13.7zM826.3 9.8c-8.4 0-16.8 3.5-22.7 10.4L203.7 715.8c-10.8 12.5-9.4 31.5 3.1 42.3 12.5 10.8 31.5 9.4 42.3-3.1L849 59.4c10.8-12.5 9.4-31.5-3.1-42.3-5.7-4.9-12.6-7.3-19.6-7.3z"  horiz-adv-x="1024" />

    
    <glyph glyph-name="chaxun1" unicode="&#60101;" d="M992.844255-53.095489L739.633021 200.181106c97.759319 121.028085 83.706553 297.395745-31.961872 401.386213-115.690213 104.034043-292.515404 99.349787-402.519149-10.675745-110.025532-109.981957-114.688-286.828936-10.675745-402.497361 104.012255-115.690213 280.358128-129.721191 401.386213-31.98366l249.46383-249.507404c-23.813447-14.205277-53.00834-25.83966-87.606468-34.903149H166.301957A166.301957 166.301957 0 0 0 0 38.301957V729.698043A166.301957 166.301957 0 0 0 166.301957 896h691.396086A166.301957 166.301957 0 0 0 1024 729.698043v-691.396086c0-35.404255-10.370723-65.862809-31.155745-91.397446z m-480.844255 217.654468c-121.180596 0-219.419234 98.260426-219.419234 219.441021 0 121.180596 98.238638 219.419234 219.419234 219.419234 121.180596 0 219.419234-98.238638 219.419234-219.419234 0-121.180596-98.238638-219.419234-219.419234-219.419234z"  horiz-adv-x="1024" />

    
    <glyph glyph-name="js" unicode="&#58882;" d="M707.072 247.55200000000002c-15.36-8.704-36.864-13.312-63.488-13.312-30.208 0-52.224 5.632-66.56 15.872-15.872 11.776-25.6 31.744-29.696 59.392h-59.392c2.56-46.592 19.456-80.384 50.176-101.888 25.088-17.408 60.416-26.112 105.472-26.112 46.592 0 82.944 9.728 108.544 28.16 25.6 18.944 38.4 45.056 38.4 77.824 0 33.792-15.872 59.904-47.616 78.848-14.336 8.192-46.08 20.48-95.744 35.84-33.792 10.752-54.784 18.432-62.464 22.528-17.408 9.216-25.6 22.016-25.6 37.376 0 17.408 7.168 30.208 22.528 37.888 12.288 6.656 29.696 9.728 52.736 9.728 26.624 0 47.104-4.608 60.416-14.848 13.312-9.728 23.04-26.112 28.16-48.64h59.392c-3.584 39.936-18.432 69.632-44.032 88.576-24.064 17.92-57.856 26.624-100.864 26.624-39.424 0-71.68-8.704-97.28-26.624-27.648-18.432-40.96-44.032-40.96-76.288s13.824-56.832 41.984-73.728c10.752-6.144 38.912-16.384 83.968-30.72 40.448-12.288 64-20.48 71.168-24.064 22.528-11.264 34.304-26.624 34.304-46.08 0-15.36-8.192-27.136-23.552-36.352zM884.864 672.16L557.984 861.44a101.088 101.088 0 0 1-101.056 0L130.24 672.1279999999999A101.12 101.12 0 0 1 80 584.928v-401.312c0-36.384 19.712-70.016 51.424-87.872l117.792-66.176c1.28-0.704 2.688-0.768 4.032-1.312 15.648-7.616 34.272-11.52 57.472-11.52 42.496 0 75.36 15.52 94.816 37.024 17.408 20.48 26.112 51.2 26.112 93.184V554.24h-59.904v-405.248c0-26.112-4.608-45.056-13.824-56.832-9.216-11.776-24.064-17.92-44.032-17.92-2.688 0-18.656 4.096-31.2 9.408l-0.16 0.032c-0.736 0.48-1.184 1.248-1.952 1.664l-117.76 66.176a36.96 36.96 0 0 0-18.816 32.128V584.928c0 13.088 7.04 25.28 18.336 31.84l326.656 189.28a36.8 36.8 0 0 0 36.896 0l326.88-189.28c11.328-6.592 18.368-18.784 18.368-31.872V182.39999999999998c0-12.864-6.88-24.96-17.92-31.552l-315.744-188.672a36.8 36.8 0 0 0-36.896-0.512l-67.168 37.76a32 32 0 1 1-31.392-55.808l67.2-37.76a100.832 100.832 0 0 1 101.056 1.376l315.744 188.672a101.216 101.216 0 0 1 49.088 86.496V584.928a100.992 100.992 0 0 1-50.24 87.232z"  horiz-adv-x="1024" />

    
    <glyph glyph-name="chuangjiandingdan" unicode="&#58883;" d="M741.888 298.66666667000004h-49.664v-164.864h-165.376v-50.176h165.376v-164.864h49.664v164.864h164.864v50.176h-164.864zM699.904 762.0266666699999c0 26.112-20.992 47.104-47.104 47.104H604.16c-17.408 34.304-52.736 56.832-92.16 56.832s-75.264-22.528-92.16-56.832h-48.64c-26.112 0-47.104-20.992-47.104-47.104v-122.368h374.784l1.024 122.368z m-37.888-88.064h-300.544v84.992c0 5.12 4.608 9.728 9.728 9.728h74.752l4.608 12.8c8.704 26.112 33.792 44.032 61.952 44.032s52.736-17.92 61.952-44.032l4.608-12.8h74.752c5.12 0 9.728-4.608 9.728-9.728v-84.992zM166.912-31.57333332999997V688.81066667h155.648c4.096 3.072 9.216 5.12 15.36 5.12h2.048c-2.048 6.656-1.536 13.824 1.536 19.456-4.608 4.096-6.656 10.24-7.168 16.384-4.096 2.048-7.168 5.12-9.728 9.216h-207.36v-820.224h378.88v50.176h-329.216zM692.224 738.47466667v1.536c-1.024-1.536-2.56-2.56-4.096-4.096 2.56-11.264 1.536-20.992 1.024-32.256 0-1.536-0.512-3.072-0.512-4.608 2.048-3.072 3.584-6.656 4.608-10.752h164.864V326.31466666999995h50.176v411.648h-216.064zM287.232 348.84266666999997h280.064v-50.176h-280.064zM287.232 499.37066667H737.28v-50.176h-450.048z"  horiz-adv-x="1024" />

    
    <glyph glyph-name="biaoge-xiazai" unicode="&#59151;" d="M911.784-60.782H111.57c-26.097 0-47.328 20.66-47.328 46.054V318.026c0 19.01 15.41 34.42 34.42 34.42s34.42-15.41 34.42-34.42V8.06H890.27V317.057c0 19.01 15.41 34.42 34.42 34.42s34.42-15.41 34.42-34.42v-331.784c0-25.395-21.23-46.055-47.327-46.055zM511.57 828.796c-19.01 0-34.42-15.41-34.42-34.42v-550.562c0-19.01 15.41-34.42 34.42-34.42s34.42 15.41 34.42 34.42V794.375c0 19.01-15.412 34.42-34.42 34.42zM284.073 431.132c-8.686 0-17.375-3.266-24.073-9.82-13.585-13.296-13.82-35.09-0.525-48.675L486.97 140.184c13.296-13.586 35.088-13.821 48.675-0.525 13.586 13.296 13.821 35.089 0.524 48.674L308.675 420.786c-6.741 6.889-15.67 10.346-24.602 10.346z m456.608 0c-8.934 0-17.86-3.456-24.602-10.346L488.584 188.333c-13.296-13.586-13.062-35.378 0.524-48.674 13.587-13.296 35.379-13.062 48.675 0.525l227.496 232.453c13.296 13.586 13.061 35.379-0.525 48.674-6.697 6.554-15.388 9.82-24.073 9.82z"  horiz-adv-x="1024" />

    
    <glyph glyph-name="tongbu" unicode="&#58917;" d="M190.098 383.389c-17.59 0-31.87-14.2-32-31.75v0.25c0 8.7 3.53 16.57 9.23 22.27 5.7 5.7 13.57 9.23 22.27 9.23h0.5zM878.468 352.591v-0.25a31.903 31.903 0 0 1-9.37 22.38c-5.79 5.79-13.79 9.37-22.63 9.37h0.5c17.4 0 31.5-14.11 31.5-31.5zM297.686 65.59l-83.045-83.362-0.317 166.407 166.407 0.318zM731.214 698.748l-83.362-83.045 166.407-0.317 0.318 166.407zM520.728 800.809c-229.58 0-416.01-186.43-416-416.01 0-50.225 8.901-98.373 25.211-142.952 6.489-17.735 26.974-25.865 43.835-17.36l0.785 0.396c14.34 7.234 20.849 24.055 15.349 39.146-13.917 38.186-21.179 78.928-21.179 120.78 0 93.04 36.81 182.26 102.42 248.22 66.57 66.92 155.24 103.78 249.58 103.78 72.39 0 141.44-21.7 199.72-62.04l45.86 45.86c-68.831 50.41-153.731 80.18-245.581 80.18z m346.8-255.413l-0.694-0.35c-14.368-7.249-20.882-24.107-15.361-39.223 13.973-38.254 21.255-79.073 21.255-121.014 0-94.02-36.61-182.42-103.1-248.9-66.48-66.49-154.87-103.1-248.9-103.1-72.32 0-141.3 21.66-199.55 61.92l-45.86-45.86c68.8-50.34 153.64-80.06 245.41-80.06 229.59 0 416.07 186.55 416 416.14-0.016 50.281-8.953 98.473-25.307 143.083-6.507 17.749-27.015 25.88-43.893 17.364zM691.207 433.92H350.252c-17.642 0-31.944 14.302-31.944 31.944s14.302 31.944 31.944 31.944h340.955c17.642 0 31.944-14.302 31.944-31.944s-14.302-31.944-31.944-31.944zM691.207 271.809H350.252c-17.642 0-31.944 14.302-31.944 31.944s14.302 31.944 31.944 31.944h340.955c17.642 0 31.944-14.302 31.944-31.944s-14.302-31.944-31.944-31.944z"  horiz-adv-x="1024" />

    
    <glyph glyph-name="close" unicode="&#58908;" d="M572.16 384l183.466667 183.04a42.666667 42.666667 0 1 1-60.586667 60.586667L512 444.16l-183.04 183.466667a42.666667 42.666667 0 0 1-60.586667-60.586667l183.466667-183.04-183.466667-183.04a42.666667 42.666667 0 0 1 0-60.586667 42.666667 42.666667 0 0 1 60.586667 0l183.04 183.466667 183.04-183.466667a42.666667 42.666667 0 0 1 60.586667 0 42.666667 42.666667 0 0 1 0 60.586667z"  horiz-adv-x="1024" />

    
    <glyph glyph-name="API" unicode="&#59257;" d="M546.148615 89.366109l-23.540747-23.468091a244.126272 244.126272 0 0 0-345.336956 345.336956l35.674405 35.601748a279.146767 279.146767 0 0 0 23.104808 368.587077l49.406507 49.333851 98.595045-98.667702L458.088782 840.054396a34.875182 34.875182 0 0 0 49.33385-49.333851L433.385528 716.756097l98.667701-98.667701 74.037105 73.964448a34.875182 34.875182 0 0 0 49.333851-49.333851L581.38708 568.754545l98.667702-98.667702-49.333851-49.406507a279.146767 279.146767 0 0 0-368.369107-23.104808l-35.747061-35.674405a174.375909 174.375909 0 1 1 246.669254-246.669254l37.999417 37.999417 71.566779 73.383195a206.780765 206.780765 0 0 0 271.445164 21.651675 156.211752 156.211752 0 0 0 17.292278-235.916073l-54.419815-54.347158a237.078579 237.078579 0 0 0-21.942302-19.39932l-58.488586-58.343273a28.118115 28.118115 0 0 0-45.047109 7.33832l-4.940651 9.881301a36.328314 36.328314 0 0 0 8.500825 43.521321l15.911802 14.022729-1.671102 1.380476 99.103641 86.243418a109.784166 109.784166 0 0 1 6.68441 159.26333 106.805244 106.805244 0 0 1-151.053131 2.034386l-117.849052-114.724817-0.21797 0.145313zM285.311319 766.089948a209.25109 209.25109 0 1 1 296.003105-296.003105L285.383975 766.089948z"  horiz-adv-x="1024" />

    
    <glyph glyph-name="icon-test2" unicode="&#58910;" d="M1860.266667-7.68c0-51.2-403.626667-77.653333-911.36-77.653333S17.066667-58.88 17.066667-7.68 431.786667 119.466667 939.52 119.466667 1860.266667 43.52 1860.266667-7.68zM808.96 614.4v-477.866667c0-18.773333 15.36-34.133333 34.133333-34.133333h341.333334c18.773333 0 34.133333 15.36 34.133333 34.133333V614.4c0 18.773333-15.36 34.133333-34.133333 34.133333h-341.333334c-19.626667 0-34.133333-15.36-34.133333-34.133333z m341.333333-443.733333h-273.066666V580.266667h273.066666v-409.6zM255.146667 162.133333h255.146666v-136.533333c0-18.773333 15.36-34.133333 34.133334-34.133333s34.133333 15.36 34.133333 34.133333V162.133333h68.266667c18.773333 0 34.133333 15.36 34.133333 34.133334s-15.36 34.133333-34.133333 34.133333h-68.266667V691.2c0 18.773333-15.36 34.133333-34.133333 34.133333s-29.866667-17.066667-29.866667-17.066666l-290.133333-494.08c-9.386667-16.213333-4.266667-36.693333 11.946666-46.933334 9.386667-5.12 18.773333-5.12 18.773334-5.12z m58.026666 68.266667l197.12 335.36V230.4H313.173333zM1450.666667-8.533333c-23.893333 0-42.666667 18.773333-42.666667 42.666666V682.666667c0 23.893333 18.773333 42.666667 42.666667 42.666666s42.666667-18.773333 42.666666-42.666666v-648.533334c0-23.893333-18.773333-42.666667-42.666666-42.666666zM1235.626667 93.866667l-221.866667-162.133334-253.44 165.546667 253.44 13.653333zM1227.093333 332.8l-213.333333-93.866667v-281.6l213.333333 136.533334zM800.426667 332.8v-238.933333l213.333333-136.533334V238.933333l-213.333333 93.866667zM921.6 79.36l-3.413333 8.533333-2.56 1.706667-2.56-3.413333s-2.56 4.266667-3.413334 6.826666l-1.706666 0.853334c0-1.706667-0.853333-4.266667-0.853334-4.266667l-1.706666 5.973333-7.68 4.266667-5.973334-2.56-1.706666 6.826667-1.706667-6.826667-3.413333 9.386667-1.706667 0.853333-0.853333-3.413333v-6.826667l-1.706667 3.413333-3.413333 9.386667-2.56 0.853333v-62.293333l51.2-34.133333v67.413333l-2.56 1.706667-1.706667-4.266667zM1227.093333 332.8l-213.333333 51.2-213.333333-51.2 213.333333-93.866667zM883.2 233.813333l1.706667-5.12 1.706666 3.413334 0.853334-4.266667s0.853333 0.853333 2.56 1.706667v-3.413334c1.706667 0.853333 2.56 2.56 2.56 2.56l-0.853334-3.413333 16.213334-10.24 5.12-1.706667 3.413333-2.56 2.56-1.706666 2.56-1.706667 1.706667-0.853333 0.853333 1.706666 1.706667-2.56h1.706666l0.853334-1.706666 2.56-0.853334-0.853334 72.533334-50.346666 22.186666V230.4h1.706666l1.706667 3.413333zM933.546667 364.373333l202.24-71.68-4.266667-1.706666-199.68 73.386666zM879.786667 297.813333l203.093333 69.973334 52.053333-12.8-204.8-79.36zM1013.76 238.933333v-5.12l213.333333 96.426667V332.8zM954.026667 369.493333l204.8-66.56-51.2-23.04-205.653334 76.8zM1158.826667 50.346667V302.933333l-51.2-23.04V17.066667z"  horiz-adv-x="1877" />

    
    </font>
</defs>
</svg>
