<svg width="30" height="14" viewBox="0 0 30 14" fill="none" xmlns="http://www.w3.org/2000/svg">
<rect width="30" height="14" rx="7" fill="url(#paint0_linear_1316_55546)"/>
<path d="M4.99246 3.86V11H8.16246C8.89246 11 9.47246 10.85 9.89246 10.57C10.3825 10.23 10.6325 9.71 10.6325 9.01C10.6325 8.53 10.4925 8.15 10.2325 7.85C9.97246 7.55 9.61246 7.35 9.14246 7.27C9.50246 7.15 9.79246 6.96 10.0125 6.7C10.2225 6.41 10.3325 6.06 10.3325 5.66C10.3325 5.1 10.1425 4.66 9.76246 4.34C9.37246 4.02 8.84246 3.86 8.18246 3.86H4.99246ZM5.81246 4.55H7.99246C8.49246 4.55 8.87246 4.64 9.13246 4.84C9.39246 5.04 9.52246 5.34 9.52246 5.74C9.52246 6.15 9.38246 6.46 9.12246 6.67C8.86246 6.87 8.48246 6.98 7.98246 6.98H5.81246V4.55ZM5.81246 7.66H8.09246C8.64246 7.66 9.06246 7.76 9.35246 7.98C9.65246 8.2 9.81246 8.54 9.81246 9C9.81246 9.46 9.63246 9.81 9.28246 10.03C8.98246 10.21 8.59246 10.31 8.09246 10.31H5.81246V7.66ZM13.79 5.69C13.04 5.69 12.45 5.96 12.01 6.5C11.57 7.01 11.36 7.65 11.36 8.41C11.36 9.25 11.58 9.91 12.04 10.41C12.48 10.89 13.08 11.14 13.82 11.14C14.49 11.14 15.04 10.94 15.47 10.56C15.82 10.24 16.05 9.84 16.17 9.34H15.37C15.24 9.7 15.07 9.97 14.85 10.15C14.59 10.36 14.24 10.47 13.82 10.47C13.33 10.47 12.94 10.31 12.66 9.99C12.38 9.67 12.23 9.22 12.19 8.64H16.27C16.25 7.74 16.05 7.03 15.67 6.53C15.25 5.97 14.62 5.69 13.79 5.69ZM13.81 6.36C14.79 6.36 15.34 6.91 15.44 8.02H12.21C12.26 7.51 12.42 7.11 12.7 6.81C12.98 6.51 13.35 6.36 13.81 6.36ZM18.5869 4.16L17.7969 4.49V5.83H16.7569V6.5H17.7969V9.79C17.7969 10.18 17.8769 10.47 18.0469 10.67C18.2269 10.89 18.5369 11 18.9569 11H19.7369V10.33H19.0769C18.8969 10.33 18.7669 10.28 18.6969 10.2C18.6169 10.12 18.5869 9.98 18.5869 9.79V6.5H19.8669V5.83H18.5869V4.16ZM23.0116 5.69C22.3916 5.69 21.9016 5.81 21.5216 6.05C21.1016 6.31 20.8316 6.72 20.7216 7.26L21.5116 7.32C21.5916 6.99 21.7616 6.74 22.0316 6.58C22.2716 6.42 22.5816 6.35 22.9616 6.35C23.8616 6.35 24.3116 6.78 24.3116 7.65V7.92L23.0716 7.94C22.2916 7.95 21.6916 8.1 21.2716 8.38C20.7916 8.68 20.5616 9.12 20.5616 9.71C20.5616 10.13 20.7216 10.48 21.0416 10.75C21.3516 11.01 21.7616 11.14 22.2816 11.14C22.7616 11.14 23.1916 11.03 23.5716 10.82C23.8916 10.64 24.1616 10.41 24.3616 10.13V11H25.1116V7.68C25.1116 7.08 24.9516 6.61 24.6516 6.27C24.2916 5.88 23.7516 5.69 23.0116 5.69ZM24.3116 8.52V8.96C24.3116 9.36 24.1216 9.72 23.7516 10.03C23.3716 10.35 22.9416 10.51 22.4516 10.51C22.1316 10.51 21.8716 10.43 21.6716 10.28C21.4716 10.12 21.3816 9.93 21.3816 9.69C21.3816 8.94 21.9616 8.56 23.1216 8.54L24.3116 8.52Z" fill="#4F341C"/>
<defs>
<linearGradient id="paint0_linear_1316_55546" x1="27" y1="2.5" x2="2.5" y2="11" gradientUnits="userSpaceOnUse">
<stop stop-color="#CAAB98"/>
<stop offset="1" stop-color="#F2E6D9"/>
</linearGradient>
</defs>
</svg>
