<svg width="15" height="14" viewBox="0 0 15 14" fill="none" xmlns="http://www.w3.org/2000/svg">
<path d="M9.57627 2.01434H5.45108C4.98048 2.01434 4.52916 2.20572 4.19638 2.5464L1.35454 5.4555C1.09015 5.72618 1.09015 6.16497 1.35454 6.43565L6.87937 12.0913C7.22969 12.4499 7.79764 12.4499 8.14796 12.0913L13.6728 6.43565C13.9372 6.16497 13.9372 5.72618 13.6728 5.4555L10.8309 2.5464C10.4982 2.20572 10.0469 2.01434 9.57627 2.01434Z" fill="#FFA820"/>
<path d="M1.35454 5.45573C1.09015 5.7264 1.09015 6.1652 1.35454 6.43588L1.47303 6.55719C1.50154 6.02907 1.60093 5.51982 1.76188 5.03875L1.35454 5.45573ZM13.6728 5.45573L12.2758 4.02563C12.7527 4.8663 13.0251 5.83822 13.0251 6.8738C13.0251 6.95073 13.0236 7.02731 13.0206 7.10352L13.6728 6.43588C13.9372 6.1652 13.9372 5.7264 13.6728 5.45573Z" fill="#FEAC33"/>
<path d="M2.68756 4.09085L1.76187 5.03846C1.60092 5.51953 1.50154 6.02878 1.47302 6.5569L2.03872 7.136C2.01982 6.95856 2.01035 6.78024 2.01035 6.6018C2.01035 5.68625 2.25708 4.82835 2.68756 4.09085ZM12.2757 4.02535L10.8309 2.54634C10.4982 2.20567 10.0468 2.01428 9.57625 2.01428H8.96075C10.7402 2.77638 11.9869 4.54346 11.9869 6.60178C11.9869 7.30377 11.8419 7.97183 11.5802 8.57775L13.0206 7.10323C13.0236 7.02702 13.0251 6.95044 13.0251 6.87351C13.0251 5.83792 12.7527 4.866 12.2757 4.02535ZM6.3487 11.548L6.87936 12.0913C7.22967 12.4499 7.79763 12.4499 8.14795 12.0913L9.08143 11.1357C8.44758 11.4273 7.74212 11.5901 6.99865 11.5901C6.78132 11.5901 6.56422 11.5761 6.3487 11.548Z" fill="#FEB133"/>
<path d="M8.96079 2.01434H5.45109C4.98049 2.01434 4.52917 2.20572 4.19639 2.5464L2.68758 4.09091C2.2571 4.82841 2.01038 5.68631 2.01038 6.60185C2.01038 6.78231 2.02006 6.96053 2.03875 7.13605L2.91775 8.03587C2.68558 7.51468 2.55632 6.93753 2.55632 6.33013C2.55632 4.01261 4.43504 2.13389 6.75256 2.13389C9.07008 2.13389 10.9488 4.01261 10.9488 6.33013C10.9488 8.64765 9.07008 10.5264 6.75257 10.5264C6.1102 10.5264 5.50167 10.3818 4.95738 10.1238L6.34874 11.5481C6.56425 11.5761 6.78135 11.5902 6.99868 11.5901C7.74216 11.5901 8.44761 11.4274 9.08147 11.1357L11.5802 8.57781C11.8419 7.97189 11.987 7.30381 11.987 6.60185C11.987 4.5435 10.7403 2.77643 8.96079 2.01434Z" fill="#FEB633"/>
<path d="M10.9488 6.33058C10.9488 4.01306 9.07008 2.13434 6.75256 2.13434C4.43504 2.13434 2.55634 4.01306 2.55634 6.33058C2.55634 6.93798 2.68558 7.51514 2.91777 8.03632L4.95738 10.1242C5.50165 10.3823 6.1102 10.5268 6.75258 10.5268C9.07008 10.5268 10.9488 8.6481 10.9488 6.33058ZM3.10228 6.05885C3.10228 4.17878 4.62638 2.65468 6.50645 2.65468C8.38653 2.65468 9.91064 4.17878 9.91064 6.05885C9.91064 7.93892 8.38653 9.46304 6.50645 9.46304C4.62638 9.46304 3.10228 7.93894 3.10228 6.05885Z" fill="#FFBC34"/>
<path d="M9.9106 6.05804C9.9106 4.17797 8.3865 2.65387 6.50642 2.65387C4.62635 2.65387 3.10223 4.17797 3.10223 6.05804C3.10223 7.93812 4.62633 9.46222 6.50641 9.46222C8.38648 9.46222 9.9106 7.93813 9.9106 6.05804ZM6.2603 8.39845C4.81767 8.39845 3.64818 7.22896 3.64818 5.78633C3.64818 4.3437 4.81767 3.17421 6.2603 3.17421C7.70293 3.17421 8.87242 4.3437 8.87242 5.78633C8.87242 7.22896 7.70294 8.39845 6.2603 8.39845Z" fill="#FFC134"/>
<path d="M6.26031 3.17493C4.81769 3.17493 3.64819 4.34442 3.64819 5.78705C3.64819 7.22968 4.81769 8.39917 6.26031 8.39917C7.70294 8.39917 8.87244 7.22968 8.87244 5.78705C8.87244 4.34442 7.70296 3.17493 6.26031 3.17493ZM6.01421 7.33539C5.00901 7.33539 4.19414 6.52052 4.19414 5.51532C4.19414 4.51012 5.00901 3.69525 6.01421 3.69525C7.0194 3.69525 7.83428 4.51012 7.83428 5.51532C7.83428 6.52052 7.0194 7.33539 6.01421 7.33539Z" fill="#FFC634"/>
<path d="M4.19415 5.51453C4.19415 5.99724 4.38591 6.46018 4.72724 6.80151C5.06857 7.14284 5.53151 7.33459 6.01422 7.33459C6.49693 7.33459 6.95988 7.14284 7.3012 6.80151C7.64253 6.46018 7.83429 5.99724 7.83429 5.51453C7.83429 5.03181 7.64253 4.56887 7.3012 4.22754C6.95988 3.88621 6.49693 3.69446 6.01422 3.69446C5.53151 3.69446 5.06857 3.88621 4.72724 4.22754C4.38591 4.56887 4.19415 5.03181 4.19415 5.51453Z" fill="#FFD048"/>
<path d="M9.57626 2.26044C9.77726 2.26044 9.9734 2.30039 10.1592 2.37919C10.3454 2.45815 10.5122 2.57227 10.6549 2.71836L13.4968 5.62745C13.6681 5.80286 13.6681 6.08827 13.4968 6.26367L7.97192 11.9194C7.84919 12.045 7.68644 12.1142 7.51367 12.1142C7.34088 12.1142 7.17813 12.045 7.05541 11.9194L1.53058 6.26367C1.35924 6.08826 1.35924 5.80285 1.53057 5.62745L4.3724 2.71835C4.51512 2.57225 4.68189 2.45813 4.8681 2.37918C5.05392 2.30039 5.25005 2.26042 5.45106 2.26042L9.57626 2.26044ZM9.57626 2.01434H5.45107C4.98047 2.01434 4.52915 2.20572 4.19638 2.54638L1.35454 5.45549C1.09015 5.72616 1.09015 6.16496 1.35454 6.43564L6.87937 12.0913C7.05452 12.2706 7.2841 12.3603 7.51367 12.3603C7.74323 12.3603 7.97281 12.2706 8.14796 12.0913L13.6728 6.43564C13.9372 6.16496 13.9372 5.72616 13.6728 5.45549L10.8309 2.54638C10.4982 2.20572 10.0469 2.01434 9.57626 2.01434Z" fill="#FF7D00"/>
<path d="M8.505 4.09247H6.52242C6.29624 4.09247 6.07935 4.18388 5.91941 4.34655L4.55361 5.73601C4.42655 5.86526 4.42655 6.07484 4.55361 6.20409L7.20887 8.90532C7.24855 8.94598 7.29596 8.97829 7.34831 9.00035C7.40066 9.02241 7.45689 9.03378 7.5137 9.03378C7.57051 9.03378 7.62675 9.02241 7.6791 9.00035C7.73145 8.97829 7.77886 8.94598 7.81854 8.90532L10.4738 6.20409C10.6009 6.07484 10.6009 5.86526 10.4738 5.73601L9.10803 4.34655C8.94809 4.18388 8.73118 4.09247 8.505 4.09247Z" fill="#FFF9E2"/>
<path d="M3.53532 4.7411C3.47037 4.74119 3.40804 4.71551 3.362 4.6697C3.26552 4.57399 3.2649 4.41817 3.36062 4.32167L4.5558 3.11702C4.65153 3.02053 4.80733 3.01992 4.90383 3.11565C5.00031 3.21137 5.00093 3.36718 4.90521 3.46368L3.71003 4.66834C3.68718 4.69143 3.65996 4.70975 3.62997 4.72224C3.59998 4.73473 3.5678 4.74114 3.53532 4.7411ZM2.85663 5.42517C2.79168 5.42526 2.72935 5.39958 2.68331 5.35378C2.58682 5.25806 2.5862 5.10224 2.68193 5.00574L2.78349 4.90338C2.87922 4.80689 3.03503 4.80627 3.13152 4.902C3.22801 4.99772 3.22863 5.15354 3.1329 5.25003L3.03134 5.3524C3.00849 5.37549 2.98128 5.39381 2.95129 5.40631C2.92129 5.4188 2.88912 5.42521 2.85663 5.42517Z" fill="white"/>
</svg>
