<svg width="20" height="20" viewBox="0 0 20 20" fill="none" xmlns="http://www.w3.org/2000/svg">
<rect width="20" height="20" rx="4" fill="#635BFF"/>
<path d="M13.5749 7.57663V4.65263C13.3995 4.51618 12.4872 4.1965 10.2416 4.00935C6.90823 3.83391 6.03097 6.17311 5.85553 7.28423C5.68009 8.39536 6.26489 10.2082 7.96082 10.6761C9.65675 11.1439 11.2942 12.0211 10.7679 12.6644C9.97254 13.6001 7.27855 12.7034 6.03097 12.1381V15.2375C6.03097 15.2375 8.3117 15.9393 9.89067 15.9978C11.4696 16.0563 13.9843 15.0036 14.1597 12.5474C14.3352 10.0913 12.9316 9.79888 12.1129 9.21408C11.2942 8.62928 9.07194 8.45384 9.1889 7.28423C9.28247 6.34855 12.1519 7.0893 13.5749 7.57663Z" fill="white"/>
</svg>
