<svg width="50" height="33" viewBox="0 0 50 33" fill="none" xmlns="http://www.w3.org/2000/svg">
<g clip-path="url(#clip0_743_2036)">
<path d="M0 25.9033L22.6589 9.58069L48.6925 21.4086L36.1578 33C36.1578 33 20.9715 29.6882 16.1505 29.9248C16.1505 29.9248 9.64207 25.4302 0 25.9033Z" fill="#E6E3E6"/>
<path d="M0.361572 24.1291C0.361572 24.1291 10.4857 25.5484 16.9941 28.8603L33.1446 11.1183L17.1147 4.54199L0.361572 24.1291Z" fill="#4B62AC" stroke="white" stroke-miterlimit="10"/>
<path d="M16.5121 28.8602C16.5121 28.8602 34.1088 28.387 36.0373 31.9354L48.813 16.7956C48.813 16.7956 42.0636 10.6451 30.252 12.0645L16.5121 28.8602Z" fill="#4B62AC" stroke="white" stroke-miterlimit="10"/>
<path d="M0.843689 21.5269L17.9584 2.12903L32.9036 9.93548L16.7531 27.6774C16.7531 27.6774 9.2805 22.7097 0.843689 21.5269Z" fill="url(#paint0_linear_743_2036)"/>
<path d="M18.1994 2.12903L4.21841 16.7957C4.21841 16.7957 11.45 18.9247 16.7531 27.6774L31.4862 11.492C31.4862 11.492 25.431 2.12903 18.1994 2.12903Z" fill="url(#paint1_linear_743_2036)"/>
<path d="M16.7531 27.6774C16.7531 27.6774 14.3426 17.9785 8.07523 15.6129L24.4668 0C24.4668 0 30.252 2.12903 32.9036 9.93548L16.7531 27.6774Z" fill="#FFFFFE"/>
<path d="M16.7531 27.9139C16.7531 27.9139 29.2878 26.7311 36.2783 29.8064L49.0541 14.6666C49.0541 14.6666 44.4741 10.4086 32.9036 10.4086L16.7531 27.9139Z" fill="#EBEBED"/>
<path d="M16.7531 27.914C16.7531 27.914 30.9752 23.8925 34.832 25.3118L47.3667 10.172C47.3667 10.172 45.9204 7.33334 32.1804 10.172L16.7531 27.914Z" fill="url(#paint2_linear_743_2036)"/>
<path d="M16.5121 27.9139C16.5121 27.9139 29.0468 19.3978 34.832 22L46.1614 8.04297C46.1614 8.04297 37.2425 5.91393 32.4215 9.93544L16.5121 27.9139Z" fill="#F7F7F7"/>
<path opacity="0.8" d="M25.4165 20.7628C26.9134 20.143 30.657 18.8963 35.384 19.5185C35.4997 19.5351 35.6178 19.483 35.6709 19.386C35.7745 19.2015 35.8661 18.8656 35.5552 18.4398C35.073 17.7774 24.7078 19.1022 24.4668 20.2045C24.4668 20.2045 24.4668 20.2069 24.4668 20.2116C24.4716 20.6516 24.9754 20.9449 25.4165 20.7628Z" fill="#D7D8EB"/>
<path opacity="0.8" d="M28.3284 17.1741C29.5819 16.6892 32.689 15.7595 36.4687 16.5993C36.5627 16.6206 36.6592 16.5804 36.7098 16.4952C36.8062 16.332 36.9026 16.0292 36.6785 15.6199C36.3337 14.986 27.8656 15.6081 27.598 16.6064C27.598 16.6064 27.598 16.6088 27.598 16.6135C27.5715 17.0204 27.9596 17.3184 28.3284 17.1741Z" fill="#D7D8EB"/>
<path opacity="0.8" d="M33.54 11.3265C34.967 10.9101 38.5225 10.1058 42.9241 10.8179C43.0326 10.8344 43.1435 10.8013 43.1989 10.728C43.3026 10.5884 43.4038 10.3282 43.129 9.97809C42.7048 9.43637 32.947 9.98756 32.6746 10.8415C32.6746 10.8415 32.6746 10.8439 32.6746 10.8463C32.6601 11.1964 33.1181 11.4495 33.54 11.3265Z" fill="#D7D8EB"/>
<path opacity="0.8" d="M30.9776 14.598C32.1804 14.1628 35.167 13.3301 38.7997 14.1155C38.8889 14.1344 38.9829 14.0989 39.0311 14.0208C39.1227 13.8742 39.2143 13.5974 38.9998 13.2213C38.6671 12.6417 30.5292 13.1692 30.2737 14.0776C30.2737 14.0776 30.2737 14.08 30.2737 14.0847C30.2496 14.4537 30.6232 14.7258 30.9776 14.598Z" fill="#D7D8EB"/>
<path opacity="0.8" d="M17.7149 21.2288C16.9604 19.8852 14.8898 16.7507 10.9462 14.4325C10.8497 14.3757 10.7919 14.2692 10.8088 14.1652C10.8425 13.9664 10.9751 13.6636 11.4692 13.5264C12.2334 13.3159 19.2552 20.4056 18.7707 21.3684C18.7707 21.3684 18.7683 21.3707 18.7659 21.3731C18.4935 21.7043 17.9367 21.6239 17.7149 21.2288Z" fill="#D7D8EB"/>
<path opacity="0.8" d="M18.5827 18.2245C18.156 17.3895 16.9652 15.4734 14.5523 14.2669C14.492 14.2362 14.4607 14.1699 14.4752 14.0989C14.5041 13.9641 14.6005 13.7488 14.9187 13.614C15.4105 13.4082 19.5903 17.5385 19.2456 18.2269C19.2456 18.2269 19.2456 18.2293 19.2432 18.2316C19.06 18.4729 18.7105 18.4682 18.5827 18.2245Z" fill="#D7D8EB"/>
<path opacity="0.8" d="M20.3665 17.1955C19.841 16.2563 18.3971 14.0965 15.5936 12.7127C15.5237 12.6795 15.4852 12.6038 15.4996 12.5258C15.5261 12.3744 15.625 12.1355 15.9817 11.9888C16.5337 11.7641 21.4825 16.4432 21.121 17.2073C21.121 17.2073 21.121 17.2097 21.1185 17.212C20.9209 17.4817 20.5207 17.4722 20.3665 17.1955Z" fill="#D7D8EB"/>
<path opacity="0.8" d="M23.0855 16.9636C22.4974 15.7146 20.8558 12.7718 17.5365 10.321C17.4546 10.2595 17.4112 10.1625 17.4304 10.075C17.469 9.90704 17.6016 9.65866 18.0403 9.59715C18.7177 9.50253 24.4716 16.4266 23.9967 17.2049C23.9967 17.2049 23.9943 17.2073 23.9919 17.2096C23.7412 17.4627 23.2591 17.3303 23.0855 16.9636Z" fill="#D7D8EB"/>
<path opacity="0.8" d="M23.9702 13.6353C23.5339 12.7577 22.3118 10.754 19.7928 9.56884C19.7301 9.54045 19.6988 9.46949 19.7156 9.39379C19.747 9.24712 19.853 9.01056 20.1905 8.85207C20.7136 8.60605 25.0453 12.8546 24.6693 13.6093C24.6693 13.6093 24.6693 13.6116 24.6669 13.614C24.4668 13.8837 24.098 13.8955 23.9702 13.6353Z" fill="#D7D8EB"/>
<path opacity="0.8" d="M26.6604 13.2118C26.0722 11.9627 24.4306 9.01994 21.1113 6.56919C21.0294 6.50769 20.986 6.4107 21.0053 6.32317C21.0438 6.15521 21.1764 5.90683 21.6151 5.84532C22.2925 5.7507 28.0464 12.6748 27.5715 13.4531C27.5715 13.4531 27.5691 13.4554 27.5667 13.4578C27.3136 13.7085 26.8339 13.5784 26.6604 13.2118Z" fill="#D7D8EB"/>
<path d="M42.2877 10.1507L32.624 14.8937L37.3052 4.96533L42.2877 10.1507Z" fill="url(#paint3_linear_743_2036)"/>
<path d="M37.4619 4.80685L47.1257 0.0638428L42.4444 9.99223L37.4619 4.80685Z" fill="url(#paint4_linear_743_2036)"/>
<path d="M40.1809 9.90705L35.1984 12.3507L37.6113 7.23157L40.1809 9.90705Z" fill="#F7F6FA"/>
</g>
<defs>
<linearGradient id="paint0_linear_743_2036" x1="0.843689" y1="14.9032" x2="32.9036" y2="14.9032" gradientUnits="userSpaceOnUse">
<stop offset="0.0154" stop-color="#DFDFDD"/>
<stop offset="0.9976" stop-color="#AAA9A9"/>
</linearGradient>
<linearGradient id="paint1_linear_743_2036" x1="7.18952" y1="21.3567" x2="28.7585" y2="7.30633" gradientUnits="userSpaceOnUse">
<stop offset="0.0154" stop-color="#DDDDDD"/>
<stop offset="0.9148" stop-color="white"/>
</linearGradient>
<linearGradient id="paint2_linear_743_2036" x1="16.9095" y1="28.1541" x2="46.5175" y2="8.86694" gradientUnits="userSpaceOnUse">
<stop offset="0.4946" stop-color="#EBEBED"/>
<stop offset="1" stop-color="#DDDDDD"/>
</linearGradient>
<linearGradient id="paint3_linear_743_2036" x1="37.5739" y1="14.6264" x2="37.0546" y2="4.97867" gradientUnits="userSpaceOnUse">
<stop offset="0.0154" stop-color="#333434"/>
<stop offset="0.9957" stop-color="#242424"/>
</linearGradient>
<linearGradient id="paint4_linear_743_2036" x1="42.1764" y1="0.331202" x2="42.6957" y2="9.97894" gradientUnits="userSpaceOnUse">
<stop offset="0.0154" stop-color="#333434"/>
<stop offset="0.9957" stop-color="#242424"/>
</linearGradient>
<clipPath id="clip0_743_2036">
<rect width="49.0541" height="33" fill="white"/>
</clipPath>
</defs>
</svg>
