<?xml version="1.0" standalone="no"?><!DOCTYPE svg PUBLIC "-//W3C//DTD SVG 1.1//EN" "http://www.w3.org/Graphics/SVG/1.1/DTD/svg11.dtd"><svg t="1628754052552" class="icon" viewBox="0 0 1024 1024" version="1.1" xmlns="http://www.w3.org/2000/svg" p-id="4255" xmlns:xlink="http://www.w3.org/1999/xlink" width="200" height="200"><defs><style type="text/css"></style></defs><path d="M614.6816 703.9232c2.9952 0 20.8896-14.9248 26.8544-17.92 11.9296-5.9392 20.8896-11.904 29.824-14.8992 62.6688-26.8544 116.3776-8.96 187.9808 77.568 44.7488 53.7088 56.6784 98.4576 41.7536 140.2368-11.9296 29.824-38.784 53.7088-80.5376 77.568-2.9952 2.9952-26.88 17.92-35.8144 20.8896-101.4272 62.6432-337.152-80.5632-507.1872-331.1872C107.4944 408.576 62.72 143.0272 167.1424 77.3632l14.9248-8.9344 14.9248-8.96C250.7008 26.7008 283.52 11.776 322.304 17.7408c38.784 5.9648 74.5728 35.8144 101.4272 89.4976 59.6736 113.3824 47.744 167.0912-29.824 217.8048-5.9648 2.9952-26.88 14.9248-26.88 17.92-17.8688 11.904 11.9552 92.4672 89.5232 199.8848 74.5984 113.3568 137.2416 176.0256 158.1312 161.1008z" fill="#2C65FF" p-id="4256"></path></svg>