<svg width="24" height="24" viewBox="0 0 24 24" fill="none" xmlns="http://www.w3.org/2000/svg">
<path d="M16.1903 8.1556C16.4633 8.1556 16.7334 8.1756 17.0013 8.20547C16.2725 4.81214 12.6448 2.29102 8.50379 2.29102C3.87432 2.29102 0.0820312 5.44664 0.0820312 9.45368C0.0820312 11.7666 1.34368 13.666 3.45203 15.1392L2.60971 17.6726L5.55382 16.1962C6.60726 16.4048 7.45248 16.6192 8.50376 16.6192C8.76803 16.6192 9.03016 16.6061 9.29003 16.5857C9.1255 16.0226 9.03014 15.4329 9.03014 14.821C9.03016 11.1416 12.1898 8.1556 16.1903 8.1556ZM11.662 5.87214C12.2961 5.87214 12.7161 6.28931 12.7161 6.92307C12.7161 7.55424 12.2961 7.97723 11.662 7.97723C11.0308 7.97723 10.3974 7.5543 10.3974 6.92307C10.3974 6.28934 11.0308 5.87214 11.662 5.87214H11.662ZM5.76787 7.97726C5.13667 7.97726 4.49966 7.55432 4.49966 6.9231C4.49966 6.28934 5.13664 5.87216 5.76787 5.87216C6.39907 5.87216 6.81912 6.28934 6.81912 6.9231C6.81912 7.5543 6.39904 7.97726 5.76787 7.97726Z" fill="#3ABF11"/>
<path d="M23.8771 14.7196C23.8771 11.3525 20.5078 8.60791 16.7235 8.60791C12.7165 8.60791 9.56055 11.3526 9.56055 14.7196C9.56055 18.0926 12.7165 20.8314 16.7235 20.8314C17.5622 20.8314 18.4082 20.6199 19.2505 20.4088L21.5605 21.6737L20.9271 19.569C22.6176 18.3008 23.8771 16.619 23.8771 14.7196ZM14.4011 13.6658C13.9818 13.6658 13.5588 13.2487 13.5588 12.8231C13.5588 12.4035 13.9818 11.9808 14.4011 11.9808C15.0382 11.9808 15.4553 12.4035 15.4553 12.8231C15.4553 13.2487 15.0382 13.6658 14.4011 13.6658ZM19.0336 13.6658C18.6171 13.6658 18.1971 13.2487 18.1971 12.8231C18.1971 12.4035 18.6171 11.9808 19.0336 11.9808C19.6647 11.9808 20.0877 12.4035 20.0877 12.8231C20.0877 13.2487 19.6647 13.6658 19.0336 13.6658Z" fill="#3ABF11"/>
</svg>
