<?xml version="1.0" standalone="no"?><!DOCTYPE svg PUBLIC "-//W3C//DTD SVG 1.1//EN" "http://www.w3.org/Graphics/SVG/1.1/DTD/svg11.dtd"><svg t="1628754056200" class="icon" viewBox="0 0 1251 1024" version="1.1" xmlns="http://www.w3.org/2000/svg" p-id="4397" xmlns:xlink="http://www.w3.org/1999/xlink" width="244.3359375" height="200"><defs><style type="text/css"></style></defs><path d="M845.795556 316.103111c13.795556 0 27.591111 1.137778 41.386666 2.275556C849.237333 141.312 664.092444 10.211556 452.465778 10.211556 215.552 10.183111 21.191111 174.648889 21.191111 384c0 119.608889 64.426667 218.510222 172.515556 295.566222l-42.552889 132.266667 149.504-77.084445c54.044444 10.353778 97.763556 21.902222 151.808 21.902223 12.657778 0 26.453333 0 40.248889-1.137778a312.917333 312.917333 0 0 1-13.795556-92.074667c0-192.028444 162.161778-347.306667 366.876445-347.306666z m-232.334223-119.580444c32.227556 0 54.072889 21.845333 54.072889 55.182222 0 33.365333-21.845333 55.182222-54.044444 55.182222s-64.426667-21.816889-64.426667-55.182222c0-33.336889 32.227556-55.182222 64.398222-55.182222z m-301.312 110.364444c-32.170667 0-64.398222-21.816889-64.398222-55.182222 0-33.336889 32.227556-55.182222 64.398222-55.182222 32.227556 0 54.072889 21.845333 54.072889 55.182222 0 33.365333-21.845333 55.182222-54.044444 55.182222z" fill="#2C65FF" p-id="4398"></path><path d="M1237.959111 657.664c0-174.791111-171.349333-318.549333-365.710222-318.549333-204.714667 0-365.738667 143.758222-365.738667 318.577777 0 175.928889 161.024 318.577778 365.738667 318.577778 43.690667 0 86.243556-11.548444 129.934222-21.902222l117.333333 65.592889-32.227555-109.255111c86.272-66.702222 150.670222-154.083556 150.670222-253.041778zM753.777778 602.481778c-21.845333 0-42.524444-20.679111-42.524445-43.690667 0-21.902222 20.679111-43.719111 42.524445-43.719111 32.199111 0 54.044444 21.845333 54.044444 43.719111 0 23.011556-21.845333 43.690667-54.044444 43.690667z m236.942222 0c-21.873778 0-42.552889-20.679111-42.552889-43.690667 0-21.902222 20.679111-43.719111 42.524445-43.719111 32.199111 0 54.044444 21.845333 54.044444 43.719111 0 23.011556-21.845333 43.690667-54.044444 43.690667z" fill="#2C65FF" p-id="4399"></path></svg>