<?xml version="1.0" standalone="no"?><!DOCTYPE svg PUBLIC "-//W3C//DTD SVG 1.1//EN" "http://www.w3.org/Graphics/SVG/1.1/DTD/svg11.dtd"><svg t="1631534324156" class="icon" viewBox="0 0 1024 1024" version="1.1" xmlns="http://www.w3.org/2000/svg" p-id="3894" xmlns:xlink="http://www.w3.org/1999/xlink" width="64" height="64"><defs><style type="text/css"></style></defs><path d="M972.8 0a51.2 51.2 0 0 1 51.2 51.2v921.6a51.2 51.2 0 0 1-51.2 51.2H51.2a51.2 51.2 0 0 1-51.2-51.2V51.2A51.2 51.2 0 0 1 51.2 0h921.6z m0 51.2H51.2v921.6h921.6V51.2z" fill="#000000" fill-opacity=".6" p-id="3895"></path><path d="M326.104615 804.233846a25.915077 25.915077 0 0 1-20.40123 25.757539l-4.411077 0.472615a25.284923 25.284923 0 0 1-24.497231-21.582769l-0.393846-4.726154v-472.615385c0-13.548308 9.767385-24.891077 22.606769-26.151384a25.206154 25.206154 0 0 1 26.781538 21.504l0.315077 4.726154v472.615384z m223.940923-367.616a25.915077 25.915077 0 0 1-20.48 25.836308l-4.411076 0.393846a25.206154 25.206154 0 0 1-24.497231-21.504l-0.393846-4.726154V226.619077c0-13.627077 9.767385-24.969846 22.606769-26.230154a25.206154 25.206154 0 0 1 26.781538 21.504l0.393846 4.726154v209.998769z m0 367.537231a25.915077 25.915077 0 0 1-20.48 25.836308l-4.411076 0.472615a25.206154 25.206154 0 0 1-24.497231-21.582769l-0.393846-4.726154V594.156308c0-13.627077 9.767385-24.969846 22.606769-26.230154a25.206154 25.206154 0 0 1 26.781538 21.504l0.393846 4.726154v209.998769z m198.971077-131.229539a25.915077 25.915077 0 0 1-20.48 25.836308l-4.411077 0.393846a25.284923 25.284923 0 0 1-24.418461-21.504l-0.472615-4.726154V226.619077c0-13.627077 9.846154-24.969846 22.685538-26.230154a25.206154 25.206154 0 0 1 26.702769 21.504l0.393846 4.726154v446.306461z" fill="#000000" fill-opacity=".6" p-id="3896"></path><path d="M302.710154 193.536c39.699692 0 71.916308 35.288615 71.916308 78.769231 0 43.559385-32.216615 78.769231-71.916308 78.769231s-71.916308-35.209846-71.916308-78.769231c0-43.480615 32.216615-78.769231 71.916308-78.769231z m0 52.539077c-13.233231 0-23.945846 11.815385-23.945846 26.230154 0 14.493538 10.712615 26.308923 23.945846 26.308923 13.233231 0 24.024615-11.815385 24.024615-26.308923 0-14.493538-10.791385-26.230154-24.024615-26.230154z m418.579692 426.456615c39.699692 0 71.916308 35.288615 71.916308 78.769231s-32.216615 78.769231-71.916308 78.769231-71.916308-35.288615-71.916308-78.769231 32.216615-78.769231 71.916308-78.769231z m0 52.539077c-13.233231 0-24.024615 11.736615-24.024615 26.230154 0 14.493538 10.791385 26.230154 24.024615 26.230154 13.233231 0 23.945846-11.736615 23.945846-26.230154 0-14.493538-10.712615-26.230154-23.945846-26.230154zM533.267692 440.083692c39.699692 0 71.916308 35.209846 71.916308 78.769231 0 43.480615-32.216615 78.769231-71.916308 78.769231-39.778462 0-71.916308-35.288615-71.916307-78.769231 0-43.559385 32.137846-78.769231 71.916307-78.769231z m0 52.460308c-13.233231 0-24.024615 11.815385-24.024615 26.308923 0 14.493538 10.791385 26.230154 24.024615 26.230154 13.233231 0 23.945846-11.815385 23.945846-26.230154 0-14.493538-10.712615-26.308923-23.945846-26.308923z" fill="#000000" fill-opacity=".6" p-id="3897"></path></svg>