<?xml version="1.0" standalone="no"?><!DOCTYPE svg PUBLIC "-//W3C//DTD SVG 1.1//EN" "http://www.w3.org/Graphics/SVG/1.1/DTD/svg11.dtd"><svg class="icon" width="200px" height="200.00px" viewBox="0 0 1024 1024" version="1.1" xmlns="http://www.w3.org/2000/svg"><path d="M842.46749619 90.12546884A91.21859775 91.21859775 0 0 1 933.87359348 180.50031823V301.06261701a91.0310982 91.0310982 0 0 1-91.40609729 90.37484939H391.53074774v90.42172449h270.93704864a30.23432446 30.23432446 0 0 1 30.46869911 30.09370001v120.56229877h149.5310007A90.42172448 90.42172448 0 0 1 933.87359348 722.93691416v120.56229876A91.07797329 91.07797329 0 0 1 842.46749619 933.87406231H181.53109729A91.21859775 91.21859775 0 0 1 90.125 843.49921292V722.93691416a91.0310982 91.0310982 0 0 1 91.40609729-90.37484939h450.93674844V542.18721536H361.53079792a30.28119955 30.28119955 0 0 1-30.4686991-30.1405751V391.48434149H181.53109729A90.42172448 90.42172448 0 0 1 90.125 301.06261701V180.50031823A91.07797329 91.07797329 0 0 1 181.53109729 90.12546884h660.9363989z m0.46874927 602.7177453H181.06234885a30.14057511 30.14057511 0 0 0-30.46869992 30.09370002v120.56229876a30.46869909 30.46869909 0 0 0 8.90623525 21.3749643 29.7655752 29.7655752 0 0 0 21.56246467 8.71873571h661.87389661a30.18744937 30.18744937 0 0 0 30.46869909-30.09370001V722.93691416a30.37494973 30.37494973 0 0 0-8.90623525-21.3749643 29.39057612 29.39057612 0 0 0-21.56246384-8.71873572z m-180.46844908 60.23427429a30.04682492 30.04682492 0 0 1 27.18745423 14.71872602 30.37494973 30.37494973 0 0 1 0 30.89057327 29.90620047 29.90620047 0 0 1-27.18745423 14.67185092H361.06204864a30.18744937 30.18744937 0 0 1 0-60.28115021h301.40574774z m180.46844908-602.67087021H181.06234885a30.18744937 30.18744937 0 0 0-30.46869992 30.09370001V301.06261701a30.32807464 30.32807464 0 0 0 8.90623525 21.37496429 29.39057612 29.39057612 0 0 0 21.56246467 8.71873571h661.87389661a30.14057511 30.14057511 0 0 0 30.46869909-30.0937V180.50031823a30.46869909 30.46869909 0 0 0-8.90623525-21.37496429 29.7655752 29.7655752 0 0 0-21.56246384-8.71873572z m-180.46844908 60.28114939a30.14057511 30.14057511 0 0 1 0 60.28114939H361.06204864a29.7187001 29.7187001 0 0 1-26.71870577-14.7187252 28.40620249 28.40620249 0 0 1 0-30.89057327 29.67182584 29.67182584 0 0 1 26.71870577-14.67185092h301.40574774z m0 0" /></svg>