<svg width="17" height="16" viewBox="0 0 17 16" fill="none" xmlns="http://www.w3.org/2000/svg">
<path d="M6.85915 10.3394L3.91611 7.39633C3.65064 7.13087 3.30205 7.04398 2.94454 7.14304C2.59165 7.24082 2.33512 7.48925 2.24217 7.85241C2.15055 8.21039 2.24999 8.54688 2.49325 8.80871C2.49742 8.8132 2.50167 8.81761 2.506 8.82194L6.506 12.8219C6.70126 13.0172 7.01785 13.0172 7.21311 12.8219L15.2131 4.82194C15.2195 4.8156 15.2256 4.80908 15.2316 4.80241C15.4085 4.60536 15.5022 4.36036 15.4922 4.09043C15.4824 3.82379 15.3744 3.58804 15.189 3.40324C15.0041 3.21896 14.7655 3.10889 14.4921 3.10889C14.2286 3.10889 13.9948 3.20832 13.8065 3.37733C13.7997 3.38344 13.7931 3.38975 13.7866 3.39623L6.85915 10.3394Z" fill="currentColor" stroke="currentColor" stroke-linejoin="round"/>
</svg>
