<svg width="18" height="13" viewBox="0 0 18 13" fill="none" xmlns="http://www.w3.org/2000/svg">
<path d="M10.3774 12.0085H13.6792C15.566 11.8249 16.9811 10.2642 16.9811 8.3362C16.9811 6.31642 15.283 4.66388 13.2075 4.66388H13.1132C12.6415 2.5523 10.7547 0.991566 8.49057 0.991566C5.84906 0.991566 3.77359 3.01134 3.77359 5.58196C2.16981 5.76558 0.943396 7.1427 0.943396 8.79524C0.943396 10.5396 2.45283 12.0085 4.24528 12.0085H10.3774ZM13.6792 12.9266H4.24528C1.88679 12.9266 0 11.0904 0 8.79524C0 6.95908 1.22642 5.39835 2.83019 4.8475C3.20755 2.18507 5.56604 0.0734863 8.49057 0.0734863C10.9434 0.0734863 13.1132 1.63422 13.8679 3.7458C16.1321 4.02123 17.9245 5.94919 17.9245 8.3362C17.9245 10.7232 16.0377 12.6512 13.6792 12.9266Z" fill="#2C65FF"/>
</svg>
