<?xml version="1.0" standalone="no"?><!DOCTYPE svg PUBLIC "-//W3C//DTD SVG 1.1//EN" "http://www.w3.org/Graphics/SVG/1.1/DTD/svg11.dtd"><svg t="1638962648149" class="icon" viewBox="0 0 1024 1024" version="1.1" xmlns="http://www.w3.org/2000/svg" p-id="18375" xmlns:xlink="http://www.w3.org/1999/xlink" width="200" height="200"><defs><style type="text/css"></style></defs><path d="M388.25 371.375h61.875c16.875 0 28.125-11.25 28.125-28.125s-11.25-28.125-28.125-28.125H388.25C292.625 315.125 213.875 399.5 213.875 512c0 106.875 78.75 196.875 174.375 196.875h61.875c16.875 0 28.125-11.25 28.125-28.125s-11.25-28.125-28.125-28.125H388.25c-67.5 0-118.125-61.875-118.125-140.625s56.25-140.625 118.125-140.625zM782 315.125c-16.875 0-28.125 11.25-28.125 28.125v241.875L590.75 337.625c-5.625-11.25-16.875-16.875-28.125-16.875h-5.625c-16.875-5.625-28.125 11.25-28.125 22.5v337.5c0 16.875 11.25 28.125 28.125 28.125s28.125-11.25 28.125-28.125V422l168.75 264.375c5.625 11.25 11.25 22.5 28.125 22.5 5.625 0 11.25 0 16.875-5.625 5.625-5.625 11.25-11.25 11.25-22.5V343.25c0-11.25-11.25-28.125-28.125-28.125z" fill="#666666" p-id="18376"></path><path d="M737 118.25c95.625 0 168.75 73.125 168.75 168.75v450c0 95.625-73.125 168.75-168.75 168.75H287c-95.625 0-168.75-73.125-168.75-168.75V287c0-95.625 73.125-168.75 168.75-168.75h450m0-56.25H287C163.25 62 62 163.25 62 287v450c0 123.75 101.25 225 225 225h450c123.75 0 225-101.25 225-225V287c0-123.75-101.25-225-225-225z" fill="#666666" p-id="18377"></path></svg>