<?xml version="1.0" encoding="UTF-8"?>
<svg width="18px" height="18px" viewBox="0 0 18 18" version="1.1" xmlns="http://www.w3.org/2000/svg" xmlns:xlink="http://www.w3.org/1999/xlink">
    <title>agent</title>
    <g id="agent管理" stroke="none" stroke-width="1" fill="none" fill-rule="evenodd" fill-opacity="0.6">
        <g id="实例详情" transform="translate(-1151.000000, -95.000000)" fill="#000000" fill-rule="nonzero">
            <g id="agent" transform="translate(1151.735849, 95.500000)">
                <path d="M14.6818182,13.6641509 L2.31818182,13.6641509 C1.03854545,13.6641509 0,12.5864151 0,11.2584906 L0,2.40566038 C0,1.07773585 1.03854545,0 2.31818182,0 L14.6818182,0 C15.9614545,0 17,1.07773585 17,2.40566038 L17,11.2584906 C17,12.5864151 15.9614545,13.6641509 14.6818182,13.6641509 Z M2.31818182,0.962264151 C1.55163636,0.962264151 0.927272727,1.61018868 0.927272727,2.40566038 L0.927272727,11.2584906 C0.927272727,12.0539623 1.55163636,12.7018868 2.31818182,12.7018868 L14.6818182,12.7018868 C15.4483636,12.7018868 16.0727273,12.0539623 16.0727273,11.2584906 L16.0727273,2.40566038 C16.0727273,1.61018868 15.4483636,0.962264151 14.6818182,0.962264151 L2.31818182,0.962264151 Z" id="形状"></path>
                <path d="M0.618181818,10.3218868 L16.3818182,10.3218868 L16.3818182,11.2841509 L0.618181818,11.2841509 L0.618181818,10.3218868 Z M6.8,17 C6.54345455,17 6.33636364,16.7850943 6.33636364,16.5188679 L6.33636364,13.3433962 C6.33636364,13.0771698 6.54345455,12.8622642 6.8,12.8622642 C7.05654545,12.8622642 7.26363636,13.0771698 7.26363636,13.3433962 L7.26363636,16.5188679 C7.26363636,16.7850943 7.05654545,17 6.8,17 Z" id="形状"></path>
                <path d="M13.2909091,17 L3.70909091,17 C3.45254545,17 3.24545455,16.7850943 3.24545455,16.5188679 C3.24545455,16.2526415 3.45254545,16.0377358 3.70909091,16.0377358 L13.2909091,16.0377358 C13.5474545,16.0377358 13.7545455,16.2526415 13.7545455,16.5188679 C13.7545455,16.7850943 13.5474545,17 13.2909091,17 Z" id="路径"></path>
                <path d="M10.2,17 C9.94345455,17 9.73636364,16.7850943 9.73636364,16.5188679 L9.73636364,13.3433962 C9.73636364,13.0771698 9.94345455,12.8622642 10.2,12.8622642 C10.4565455,12.8622642 10.6636364,13.0771698 10.6636364,13.3433962 L10.6636364,16.5188679 C10.6636364,16.7850943 10.4565455,17 10.2,17 Z" id="路径"></path>
                <path d="M3.09090909,5.56830189 C2.83436364,5.56830189 2.62727273,5.35339623 2.62727273,5.08716981 L2.62727273,3.81698113 C2.62727273,3.02792453 3.25163636,2.38320755 4.01818182,2.38320755 L5.17727273,2.38320755 C5.43381818,2.38320755 5.64090909,2.59811321 5.64090909,2.86433962 C5.64090909,3.13056604 5.43381818,3.3454717 5.17727273,3.3454717 L4.01818182,3.3454717 C3.76163636,3.3454717 3.55454545,3.55716981 3.55454545,3.81698113 L3.55454545,5.08716981 C3.55454545,5.35339623 3.34745455,5.56830189 3.09090909,5.56830189 Z" id="路径"></path>
            </g>
        </g>
    </g>
</svg>