<svg width="16" height="16" viewBox="0 0 16 16" fill="none" xmlns="http://www.w3.org/2000/svg">
<g clip-path="url(#clip0_1713_41568)">
<path d="M15.7645 1.14551H0.281201C0.0978679 1.14551 -0.0500488 1.29342 -0.0500488 1.47676V11.8018C-0.0500488 11.9872 0.0999512 12.1372 0.285368 12.1372H7.39162V13.8351H5.37703C5.19162 13.8351 5.04162 13.9851 5.04162 14.1705V14.9663C5.04162 15.1518 5.19162 15.3018 5.37703 15.3018H10.877C11.0625 15.3018 11.2125 15.1518 11.2125 14.9663V14.1705C11.2125 13.9851 11.0625 13.8351 10.877 13.8351H8.86245V12.1372H15.7583C15.9437 12.1372 16.0937 11.9872 16.0937 11.8018V1.47676C16.0937 1.29342 15.9458 1.14551 15.7645 1.14551ZM13.9479 4.65592L10.1645 9.13092C10.052 9.26426 9.8562 9.28718 9.71453 9.18509L6.12495 6.57467C5.98537 6.47259 5.79162 6.49551 5.67912 6.62467L3.14995 9.52051C3.02912 9.65801 2.8187 9.67259 2.6812 9.55176L2.07495 9.02259C1.93745 8.90176 1.92287 8.69134 2.0437 8.55384L5.4562 4.64551C5.5687 4.51634 5.76245 4.49342 5.90203 4.59551L9.47495 7.19134C9.61662 7.29342 9.81245 7.27051 9.92495 7.13717L12.827 3.70592C12.9458 3.56634 13.1541 3.54759 13.2958 3.66634L13.9104 4.18509C14.0479 4.30592 14.0666 4.51426 13.9479 4.65592Z" fill="#231815"/>
</g>
<defs>
<clipPath id="clip0_1713_41568">
<rect width="16" height="16" fill="white"/>
</clipPath>
</defs>
</svg>
