<?xml version="1.0" encoding="UTF-8"?>
<svg width="16px" height="16px" viewBox="0 0 16 16" version="1.1" xmlns="http://www.w3.org/2000/svg" xmlns:xlink="http://www.w3.org/1999/xlink">
    <title>assignment_icon_connect_schema</title>
    <g id="数据管理" stroke="none" stroke-width="1" fill="none" fill-rule="evenodd" fill-opacity="0.6">
        <g id="数据同步" transform="translate(-1151.000000, -633.000000)" fill="#000000" fill-rule="nonzero">
            <g id="assignment_icon_connect_schema" transform="translate(1151.370665, 633.500000)">
                <path d="M14.7784615,2.5004709 C14.7,2.43266152 14.5996154,2.40440761 14.4969231,2.39536636 L7.61884615,0.0186475796 C7.53346154,-0.00621585986 7.44461538,-0.00621585986 7.35807692,0.0186475796 L0.48,2.39536636 C0.384230769,2.40440761 0.290769231,2.43379167 0.213461538,2.5004709 C0.0888461538,2.60783575 0,2.77283858 0,2.94688265 L0,12.1113204 C0,12.3701262 0.171923077,12.5950273 0.396923077,12.6583161 L7.29115385,14.9536636 C7.31307692,14.9627048 7.33153846,14.9694858 7.35346154,14.9751366 L7.37423077,14.9819175 C7.41576923,14.9943492 7.45730769,15 7.5,15 C7.54269231,15 7.59230769,14.9943492 7.63384615,14.9819175 L7.66153846,14.9728762 C7.67307692,14.9683556 7.68346154,14.9649652 7.695,14.9604445 L14.6019231,12.6583161 C14.8280769,12.5961575 15,12.3701262 15,12.1124506 L15,2.94688265 C15,2.77283858 14.9019231,2.60783575 14.7784615,2.5004709 Z M7.45085504,1.00709265 L12.9108606,2.95900587 L7.46191265,4.81946077 L3.94313316,3.62087533 L2.08913936,2.97826025 L7.45085504,1.00709265 Z M1.01680551,3.63931292 L4.47621562,4.81525371 L6.9957376,5.71016654 L6.9957376,13.8023898 L1.01680551,11.7303845 L1.01680551,3.63931292 Z M8.01652672,13.8023898 L8.01652672,5.71749645 L11.0801315,4.63007484 L13.9954588,3.63931292 L13.9954588,11.7322613 L8.01652672,13.8023898 Z" id="形状"></path>
            </g>
        </g>
    </g>
</svg>