<?xml version="1.0" encoding="UTF-8"?>
<svg width="13px" height="15px" viewBox="0 0 13 15" version="1.1" xmlns="http://www.w3.org/2000/svg" xmlns:xlink="http://www.w3.org/1999/xlink">
    <title>assignment_icon_connect_journal</title>
    <g id="数据管理" stroke="none" stroke-width="1" fill="none" fill-rule="evenodd" fill-opacity="0.6">
        <g id="数据同步" transform="translate(-1111.000000, -644.000000)" fill="#000000" fill-rule="nonzero">
            <g id="assignment_icon_connect_journal" transform="translate(1111.000000, 644.000000)">
                <path d="M10.6696824,5 L2.32998792,5 C2.14768691,5 2,5.22377621 2,5.5 C2,5.77622376 2.14768689,6 2.32998792,6 L10.6696824,6 C10.8526428,6 11,5.77572427 11,5.5 C11,5.22427571 10.8526428,5 10.6696824,5 Z" id="路径"></path>
                <path d="M2.30865122,8 L8.69104044,8 C8.86217073,8 9,7.775337 9,7.49975038 C9,7.22416376 8.86217073,7 8.69104044,7 L2.30865122,7 C2.13813762,7 2,7.22366449 2,7.49975038 C2,7.77583626 2.13813762,8 2.30865122,8 Z" id="路径"></path>
                <path d="M10.6696824,9 L2.32998792,9 C2.14768691,9 2,9.22355289 2,9.5 C2,9.77694611 2.14768689,10 2.32998792,10 L10.6696824,10 C10.8526428,10 11,9.77694611 11,9.5 C11,9.2240519 10.8526428,9 10.6696824,9 Z" id="路径"></path>
                <path d="M8.69104044,12 L2.30865122,12 C2.13813762,12 2,12.2236645 2,12.5002496 C2,12.777334 2.1381376,13 2.30865122,13 L8.69104044,13 C8.86217073,13 9,12.777334 9,12.5002496 C9,12.2236645 8.86217073,12 8.69104044,12 Z" id="路径"></path>
                <path d="M10.5009,1.796875 L9.98184889,1.796875 C9.79048636,1.3740625 9.36253016,1.0778125 8.86435499,1.0778125 L7.87211657,1.0778125 C7.72788301,0.461562495 7.1667638,0 6.50031613,0 C5.83260325,0 5.27243295,0.461562495 5.12819938,1.0778125 L4.13596095,1.0778125 C3.63746949,1.0778125 3.20951329,1.3740625 3.01783447,1.796875 L2.66547438,1.796875 C1.24559608,1.796875 0,2.95062501 0,4.26593751 L0,12.53125 C0,13.8459375 1.24559608,15 2.66547438,15 L10.5009,15 C11.8783939,15 13.000316,13.8921875 13,12.53125 L13,4.2659375 C13.000316,2.904375 11.8790264,1.796875 10.5009,1.796875 Z M4.52202893,2.0352709 L5.59506299,2.0352709 C5.7421854,2.0352709 5.86185562,1.92130062 5.86185562,1.78061854 C5.86185562,1.43743569 6.15476779,1.15785234 6.5143115,1.15785234 C6.87412173,1.15785234 7.16650086,1.4371813 7.16650086,1.78061854 C7.16650086,1.9213006 7.28563803,2.0352709 7.43302695,2.0352709 L8.50632754,2.0352709 C8.78111595,2.0352709 9.00553091,2.24896518 9.00553091,2.51201267 C9.00553091,2.77480575 8.78111593,2.98875444 8.50632754,2.98875444 L4.52176241,2.98875444 C4.24617442,2.98875444 4.0222925,2.77480577 4.0222925,2.51201267 C4.02255903,2.24896518 4.246974,2.0352709 4.52202893,2.0352709 Z M12.0516,12.3279478 C12.0516,13.266862 11.260397,14.0305238 10.2882878,14.0305238 L2.88070197,14.0305238 C1.85746058,14.0305238 0.959806971,13.2348142 0.959806971,12.3279478 L0.959806971,4.69161908 C0.959806971,3.784464 1.85746058,2.98875444 2.88070195,2.98875444 L3.12440205,2.98875444 C3.18899005,3.5474257 3.67549318,3.98483498 4.27054005,3.98483498 L8.74086695,3.98483498 C9.3359138,3.98483498 9.82211792,3.5474257 9.88670592,2.98875444 L10.2879888,2.98875444 C11.260397,2.98875444 12.051301,3.75270491 12.051301,4.69161908 L12.051301,12.3279478 L12.0516,12.3279478 Z" id="形状"></path>
            </g>
        </g>
    </g>
</svg>