<svg width="20" height="20" viewBox="0 0 20 20" fill="none" xmlns="http://www.w3.org/2000/svg">
<g id="Frame 3035">
<g id="Group 2897">
<path id="Subtract" fill-rule="evenodd" clip-rule="evenodd" d="M12.5 2C13.1904 2 13.75 2.55964 13.75 3.25V5.75H7.5C6.80964 5.75 6.25 6.30964 6.25 7V12H2.91667C2.6462 12 2.38304 12.0877 2.16667 12.25L0 13.875V3.25C0 2.55964 0.559644 2 1.25 2H12.5Z" fill="#3B47E5"/>
<path id="Subtract_2" fill-rule="evenodd" clip-rule="evenodd" d="M8.125 6.375C7.43464 6.375 6.875 6.93464 6.875 7.625V15.125C6.875 15.8154 7.43464 16.375 8.125 16.375H17.1813C17.4614 16.375 17.7334 16.4691 17.9536 16.6421L20 18.25V7.625C20 6.93464 19.4404 6.375 18.75 6.375H8.125ZM10.3125 12C10.8303 12 11.25 11.5803 11.25 11.0625C11.25 10.5447 10.8303 10.125 10.3125 10.125C9.79473 10.125 9.375 10.5447 9.375 11.0625C9.375 11.5803 9.79473 12 10.3125 12ZM14.375 11.0625C14.375 11.5803 13.9553 12 13.4375 12C12.9197 12 12.5 11.5803 12.5 11.0625C12.5 10.5447 12.9197 10.125 13.4375 10.125C13.9553 10.125 14.375 10.5447 14.375 11.0625ZM16.5625 12C17.0803 12 17.5 11.5803 17.5 11.0625C17.5 10.5447 17.0803 10.125 16.5625 10.125C16.0447 10.125 15.625 10.5447 15.625 11.0625C15.625 11.5803 16.0447 12 16.5625 12Z" fill="#3B47E5"/>
</g>
</g>
</svg>
