<svg width="17" height="16" viewBox="0 0 17 16" fill="none" xmlns="http://www.w3.org/2000/svg">
<g id="icon_Contact Us">
<path id="Vector" d="M12.6923 1.5769C13.2446 1.5769 13.6923 2.02462 13.6923 2.5769V6.19229H15C15.5523 6.19229 16 6.64 16 7.19229V12.6923C16 13.2446 15.5523 13.6923 15 13.6923H13.6923V15.4231L10.2308 13.6923H7.19231C6.64002 13.6923 6.19231 13.2446 6.19231 12.6923V11.3846L2.73077 13.1154V11.3846H2C1.44771 11.3846 1 10.9369 1 10.3846V2.5769C1 2.02462 1.44772 1.5769 2 1.5769H12.6923ZM14.8462 7.84614C14.8462 7.56999 14.6223 7.34614 14.3462 7.34614H13.6923V10.3846C13.6923 10.9369 13.2446 11.3846 12.6923 11.3846H7.34615V12.0384C7.34615 12.3146 7.57001 12.5384 7.84615 12.5384H10.5031L12.5385 13.5561V12.5384H14.3462C14.6223 12.5384 14.8462 12.3146 14.8462 12.0384V7.84614ZM12.5385 3.23075C12.5385 2.95461 12.3146 2.73075 12.0385 2.73075H2.65385C2.3777 2.73075 2.15385 2.95461 2.15385 3.23075V9.73075C2.15385 10.0069 2.3777 10.2308 2.65385 10.2308H3.88462V11.2484L5.92 10.2308H12.0385C12.3146 10.2308 12.5385 10.0069 12.5385 9.73075V3.23075ZM5.03846 5.61537V7.34614H3.88462V5.61537H5.03846ZM7.92308 5.61537V7.34614H6.76923V5.61537H7.92308ZM10.8077 5.61537V7.34614H9.65385V5.61537H10.8077Z" fill="#535F72"/>
</g>
</svg>
