<?xml version="1.0" standalone="no"?><!DOCTYPE svg PUBLIC "-//W3C//DTD SVG 1.1//EN" "http://www.w3.org/Graphics/SVG/1.1/DTD/svg11.dtd"><svg t="1627550097990" class="icon" viewBox="0 0 1024 1024" version="1.1" xmlns="http://www.w3.org/2000/svg" p-id="1927" xmlns:xlink="http://www.w3.org/1999/xlink" width="48" height="48"><defs><style type="text/css">@font-face { font-family: feedback-iconfont; src: url("//at.alicdn.com/t/font_1031158_1uhr8ri0pk5.eot?#iefix") format("embedded-opentype"), url("//at.alicdn.com/t/font_1031158_1uhr8ri0pk5.woff2") format("woff2"), url("//at.alicdn.com/t/font_1031158_1uhr8ri0pk5.woff") format("woff"), url("//at.alicdn.com/t/font_1031158_1uhr8ri0pk5.ttf") format("truetype"), url("//at.alicdn.com/t/font_1031158_1uhr8ri0pk5.svg#iconfont") format("svg"); }
</style></defs><path d="M848 927.6h-73.6v-201c0-31.4-8-62.2-23.7-91.5-14.6-27.1-35-51.7-60.8-73.1-26.6-22-57-39.2-88.8-50.5 31.9-11.4 62.3-28.5 88.8-50.5 25.8-21.4 46.3-46 60.8-73.1 15.7-29.3 23.7-60.1 23.7-91.5V96H848c8.8 0 16-7.2 16-16s-7.2-16-16-16H176c-8.8 0-16 7.2-16 16s7.2 16 16 16h72.2v200.1c0 31.4 8 62.2 23.7 91.5 14.6 27.1 35 51.7 60.8 73.1 26.6 22 57 39.2 88.8 50.5-31.9 11.4-62.3 28.5-88.8 50.5-25.8 21.4-46.3 46-60.8 73.1-15.7 29.3-23.7 60.1-23.7 91.5v201H176c-8.8 0-16 7.2-16 16s7.2 16 16 16h672c8.8 0 16-7.2 16-16s-7.1-15.7-16-15.7zM428 479.5c-27-10.2-52.9-25.2-74.8-43.3-47.1-39.1-73-88.8-73-140V96h462.2v200.1c0 51.2-25.9 101-73 140-21.9 18.2-47.7 33.1-74.8 43.3-27.4 10.3-56.2 15.8-83.3 15.8-27.1 0.1-55.9-5.3-83.3-15.7z m-147.8 247c0-51.2 25.9-101 73-140 21.9-18.2 47.7-33.1 74.8-43.3 27.4-10.3 56.2-15.8 83.3-15.8 27.1 0 55.9 5.5 83.3 15.8 27 10.2 52.9 25.2 74.8 43.3 47.1 39.1 73 88.8 73 140v200.1H280.2V726.5z" fill="#eeb173" p-id="1928"></path><path d="M328.2 295.7v0.4c0 49.5 34.9 85.9 55.7 103.1 36.3 30.1 83.9 48.1 127.4 48.1s91.1-18 127.4-48.1c17.6-14.6 31.9-31.7 41.5-49.4 9.4-17.6 14.2-35.6 14.2-53.7v-0.4H328.2zM511.3 685.4c-88.9 0-183.1 193.3-183.1 193.3h366.2c0-0.1-94.2-193.3-183.1-193.3z" fill="#eeb173" p-id="1929"></path></svg>