<?xml version="1.0" encoding="UTF-8"?>
<svg width="13px" height="14px" viewBox="0 0 13 14" version="1.1" xmlns="http://www.w3.org/2000/svg" xmlns:xlink="http://www.w3.org/1999/xlink">
    <title>形状</title>
    <g id="缓存管理" stroke="none" stroke-width="1" fill="none" fill-rule="evenodd" fill-opacity="0.65">
        <g id="缓存管理-查看" transform="translate(-1153.000000, -202.000000)" fill="#000000" fill-rule="nonzero">
            <path d="M1163.14369,210.111049 C1163.45919,210.111049 1163.71496,210.374706 1163.71496,210.699944 L1163.71496,212.466629 L1165.42874,212.466629 C1165.74424,212.466629 1166,212.730287 1166,213.055524 C1166,213.380762 1165.74424,213.644419 1165.42874,213.64442 L1163.71496,213.64442 L1163.71496,215.411105 C1163.71496,215.736343 1163.45919,216 1163.14369,216 C1162.8282,216 1162.57243,215.736343 1162.57243,215.411105 L1162.57243,213.64442 L1160.85865,213.64442 C1160.54315,213.64442 1160.28739,213.380762 1160.28739,213.055524 C1160.28739,212.730287 1160.54315,212.466629 1160.85865,212.466629 L1162.57243,212.466629 L1162.57243,210.699944 C1162.57243,210.543759 1162.63262,210.393971 1162.73975,210.283532 C1162.84688,210.173093 1162.99219,210.111049 1163.14369,210.111049 L1163.14369,210.111049 Z M1159.27816,202 C1160.5878,202 1161.798,202.720123 1162.45284,203.889305 C1163.10769,205.058486 1163.10769,206.499001 1162.45284,207.668183 C1161.798,208.837364 1160.5878,209.557571 1159.27816,209.557487 L1159.45525,209.554543 C1159.39976,209.572309 1159.34197,209.581245 1159.28387,209.581043 C1156.44438,209.581043 1154.14252,211.953959 1154.14252,214.881099 C1154.14252,215.206337 1153.88676,215.469994 1153.57126,215.469994 C1153.25576,215.469994 1153,215.206337 1153,214.881099 C1153,212.17603 1154.62993,209.755525 1157.08833,208.809591 C1155.82168,207.836461 1155.30228,206.136259 1155.79943,204.590522 C1156.29658,203.044785 1157.69844,202.001251 1159.27816,202.000981 L1159.27816,202 Z M1159.27816,203.17779 C1158.37671,203.177721 1157.54371,203.673445 1157.09296,204.478211 C1156.64222,205.282977 1156.64222,206.27451 1157.09296,207.079276 C1157.54371,207.884042 1158.37671,208.379766 1159.27816,208.379697 C1160.67154,208.37959 1161.80104,207.215135 1161.80104,205.778744 C1161.80104,204.342352 1160.67154,203.177897 1159.27816,203.17779 L1159.27816,203.17779 Z" id="形状"></path>
        </g>
    </g>
</svg>