<!-- Generated by IcoMoon.io -->
<svg version="1.1" xmlns="http://www.w3.org/2000/svg" width="32" height="32" viewBox="0 0 32 32">
<title>d-arrow-right</title>
<path d="M14.156 4.656q0.281-0.25 0.656-0.25t0.656 0.25l10.344 10.656q0.281 0.281 0.281 0.688t-0.281 0.688l-10.344 10.656q-0.281 0.25-0.656 0.25t-0.656-0.281-0.281-0.656 0.281-0.656l9.75-10-9.75-10q-0.281-0.281-0.281-0.656t0.281-0.688zM6.156 4.656q0.281-0.25 0.656-0.25t0.656 0.25l10.344 10.656q0.281 0.281 0.281 0.688t-0.281 0.688l-10.344 10.656q-0.281 0.25-0.656 0.25t-0.656-0.281-0.281-0.656 0.281-0.656l9.75-10-9.75-10q-0.281-0.281-0.281-0.656t0.281-0.688z"></path>
</svg>
