<svg width="18" height="18" viewBox="0 0 18 18" fill="none" xmlns="http://www.w3.org/2000/svg">
<path fill-rule="evenodd" clip-rule="evenodd" d="M3.63828 1.65401C5.04502 1.03856 6.94119 0.674805 9 0.674805C11.0588 0.674805 12.955 1.03856 14.3617 1.65401C15.0641 1.9613 15.6749 2.34462 16.1195 2.80452C16.5125 3.21106 16.7977 3.70294 16.8615 4.26231C16.7595 5.06964 16.076 5.92676 14.7314 6.63447C13.2992 7.38824 11.274 7.8748 9 7.8748C6.72601 7.8748 4.70079 7.38824 3.26862 6.63447C1.92397 5.92676 1.24051 5.06964 1.13848 4.26231C1.20231 3.70294 1.48749 3.21106 1.88052 2.80452C2.32513 2.34462 2.93591 1.9613 3.63828 1.65401ZM1.125 11.2846V13.4998C1.125 14.1581 1.43277 14.732 1.88052 15.1951C2.32513 15.655 2.93591 16.0383 3.63828 16.3456C5.04502 16.961 6.94119 17.3248 9 17.3248C9.16626 17.3248 9.33147 17.3224 9.49544 17.3177C9.18697 16.9658 9 16.5048 9 16V13.7248C6.55195 13.7248 4.30218 13.204 2.63986 12.3291C2.07587 12.0323 1.55939 11.6823 1.125 11.2846ZM16.7676 9.15264C16.8396 8.94957 16.875 8.74761 16.875 8.5498V6.78456C16.4406 7.18231 15.9241 7.53227 15.3601 7.8291C14.3418 8.36508 13.103 8.76816 11.7332 9.00002H16C16.272 9.00002 16.5313 9.05431 16.7676 9.15264ZM10.1577 9.18553C9.474 9.50345 9 10.1964 9 11V12.3748C6.72601 12.3748 4.70079 11.8882 3.26862 11.1345C1.80527 10.3643 1.125 9.41716 1.125 8.5498V6.78456C1.55939 7.18231 2.07587 7.53227 2.63986 7.8291C4.30218 8.70401 6.55195 9.2248 9 9.2248C9.39149 9.2248 9.77791 9.21149 10.1577 9.18553Z" fill="#535F72"/>
<path fill-rule="evenodd" clip-rule="evenodd" d="M11 11C10.4477 11 10 11.4477 10 12C10 12.5523 10.4477 13 11 13H16C16.5523 13 17 12.5523 17 12C17 11.4477 16.5523 11 16 11H11ZM11.5 12.5C11.7761 12.5 12 12.2761 12 12C12 11.7239 11.7761 11.5 11.5 11.5C11.2239 11.5 11 11.7239 11 12C11 12.2761 11.2239 12.5 11.5 12.5ZM15.75 12C15.75 12.1381 15.6381 12.25 15.5 12.25C15.3619 12.25 15.25 12.1381 15.25 12C15.25 11.8619 15.3619 11.75 15.5 11.75C15.6381 11.75 15.75 11.8619 15.75 12ZM14.5 12.25C14.6381 12.25 14.75 12.1381 14.75 12C14.75 11.8619 14.6381 11.75 14.5 11.75C14.3619 11.75 14.25 11.8619 14.25 12C14.25 12.1381 14.3619 12.25 14.5 12.25Z" fill="#535F72"/>
<path fill-rule="evenodd" clip-rule="evenodd" d="M11 14C10.4477 14 10 14.4477 10 15C10 15.5523 10.4477 16 11 16H16C16.5523 16 17 15.5523 17 15C17 14.4477 16.5523 14 16 14H11ZM11.5 15.5C11.7761 15.5 12 15.2761 12 15C12 14.7239 11.7761 14.5 11.5 14.5C11.2239 14.5 11 14.7239 11 15C11 15.2761 11.2239 15.5 11.5 15.5ZM15.75 15C15.75 15.1381 15.6381 15.25 15.5 15.25C15.3619 15.25 15.25 15.1381 15.25 15C15.25 14.8619 15.3619 14.75 15.5 14.75C15.6381 14.75 15.75 14.8619 15.75 15ZM14.5 15.25C14.6381 15.25 14.75 15.1381 14.75 15C14.75 14.8619 14.6381 14.75 14.5 14.75C14.3619 14.75 14.25 14.8619 14.25 15C14.25 15.1381 14.3619 15.25 14.5 15.25Z" fill="#535F72"/>
</svg>
