<svg width="14" height="14" viewBox="0 0 14 14" fill="none" xmlns="http://www.w3.org/2000/svg">
<path d="M12.337 5.112C12.881 5.112 13.323 5.553 13.323 6.097V12.666C13.3227 12.9273 13.2187 13.1779 13.0339 13.3626C12.849 13.5473 12.5983 13.651 12.337 13.651H11.024C10.7627 13.651 10.512 13.5473 10.3271 13.3626C10.1423 13.1779 10.0383 12.9273 10.038 12.666V6.096C10.038 5.552 10.479 5.11 11.024 5.11H12.337V5.112ZM3.14 6.425C3.684 6.425 4.126 6.866 4.126 7.41V12.664C4.126 12.7935 4.1005 12.9217 4.05094 13.0413C4.00139 13.161 3.92877 13.2696 3.83721 13.3612C3.74565 13.4528 3.63695 13.5254 3.51733 13.5749C3.3977 13.6245 3.26948 13.65 3.14 13.65H1.828C1.5665 13.65 1.3157 13.5461 1.13079 13.3612C0.945882 13.1763 0.842 12.9255 0.842 12.664V7.41C0.842 6.866 1.283 6.424 1.828 6.424H3.14V6.426V6.425ZM7.738 7.738C8.282 7.738 8.724 8.179 8.724 8.724V12.664C8.724 12.7935 8.6985 12.9217 8.64895 13.0413C8.59939 13.161 8.52677 13.2696 8.43521 13.3612C8.34365 13.4528 8.23495 13.5254 8.11533 13.5749C7.9957 13.6245 7.86748 13.65 7.738 13.65H6.426C6.1645 13.65 5.9137 13.5461 5.72879 13.3612C5.54388 13.1763 5.44 12.9255 5.44 12.664V8.724C5.44 8.179 5.881 7.738 6.426 7.738H7.739H7.738ZM11.138 1.342L10.363 1.347C10.2983 1.34752 10.2342 1.3353 10.1742 1.31104C10.1143 1.28677 10.0597 1.25094 10.0136 1.20558C9.92047 1.11397 9.86756 0.989117 9.8665 0.858498C9.86544 0.727879 9.91631 0.602188 10.0079 0.509077C10.0995 0.415965 10.2244 0.363059 10.355 0.361998L12.332 0.347998C12.3971 0.3472 12.4617 0.359384 12.5221 0.383839C12.5824 0.408295 12.6373 0.444531 12.6834 0.49043C12.7296 0.536329 12.7662 0.590971 12.791 0.651163C12.8158 0.711355 12.8284 0.775891 12.828 0.840998V2.821C12.82 2.94606 12.7647 3.0634 12.6733 3.14914C12.5819 3.23489 12.4613 3.28261 12.336 3.28261C12.2107 3.28261 12.0901 3.23489 11.9987 3.14914C11.9073 3.0634 11.852 2.94606 11.844 2.821V2.031L7.43 6.444C7.35965 6.51438 7.26958 6.56173 7.17172 6.57977C7.07385 6.5978 6.97282 6.58568 6.882 6.545L0.97 3.92C0.859113 3.86162 0.774555 3.76329 0.733449 3.64491C0.692343 3.52653 0.697763 3.39696 0.74861 3.28242C0.799458 3.16789 0.891932 3.07696 1.00731 3.02805C1.12268 2.97914 1.25233 2.9759 1.37 3.019L6.973 5.509L11.139 1.343L11.138 1.342Z" fill="#2C65FF"/>
</svg>
