<svg width="16" height="16" viewBox="0 0 16 16" fill="none" xmlns="http://www.w3.org/2000/svg">
<g clip-path="url(#clip0_2591_11088)">
<path d="M8.72739 0.725586L8.72739 15.2725C8.72739 15.674 8.40083 15.999 7.99927 15.999C7.5977 15.999 7.27271 15.674 7.27271 15.2725L7.2727 0.727148C7.2727 0.325585 7.5977 0.000585284 7.99927 0.000585267C8.40083 -0.000976869 8.72739 0.324023 8.72739 0.725586ZM14.618 2.18027L14.618 13.8178C14.618 14.2193 14.293 14.5443 13.8915 14.5443L10.8352 14.5443C10.4336 14.5443 10.1086 14.2193 10.1086 13.8178C10.1086 13.4162 10.4336 13.0912 10.8352 13.0912L13.1618 13.0912L13.1618 2.90996L10.8352 2.90996C10.4336 2.90996 10.1086 2.58496 10.1086 2.1834C10.1086 1.78184 10.4336 1.45684 10.8352 1.45684L13.8899 1.45684C14.2915 1.45371 14.618 1.77871 14.618 2.18027ZM5.88989 2.18027C5.88989 2.58184 5.56489 2.90684 5.16333 2.90684L2.8352 2.90684L2.8352 13.0896L5.16177 13.0896C5.56333 13.0896 5.88833 13.4146 5.88833 13.8162C5.88833 14.2178 5.56333 14.5428 5.16177 14.5428L2.10864 14.5428C1.70708 14.5428 1.38208 14.2178 1.38208 13.8162L1.38208 2.18027C1.38208 1.77871 1.70708 1.45371 2.10864 1.45371L5.16333 1.45371C5.56489 1.45371 5.88989 1.77871 5.88989 2.18027Z" fill="currentColor"/>
</g>
<defs>
<clipPath id="clip0_2591_11088">
<rect width="16" height="16" fill="currentColor" transform="translate(0 16) rotate(-90)"/>
</clipPath>
</defs>
</svg>
