<?xml version="1.0" standalone="no"?><!DOCTYPE svg PUBLIC "-//W3C//DTD SVG 1.1//EN" "http://www.w3.org/Graphics/SVG/1.1/DTD/svg11.dtd"><svg t="1618208783329" class="icon" viewBox="0 0 1024 1024" version="1.1" xmlns="http://www.w3.org/2000/svg" p-id="30741" xmlns:xlink="http://www.w3.org/1999/xlink" width="200" height="200"><defs><style type="text/css"></style></defs><path d="M328.576 192A63.68 63.68 0 0 1 320 160v-16C320 99.84 355.84 64 400 64h224c44.16 0 80 35.84 80 80v16a63.68 63.68 0 0 1-8.576 32H928a32 32 0 1 1 0 64h-832a32 32 0 0 1 0-64h232.576zM384 192h256v-32a32 32 0 0 0-32-32h-192a32 32 0 0 0-32 32V192z m32 224A32 32 0 0 1 448 448v224a32 32 0 1 1-64 0V448a32 32 0 0 1 32-32z m192 0a32 32 0 0 1 32 32v224a32 32 0 1 1-64 0V448a32 32 0 0 1 32-32z m192.192-99.328a32 32 0 1 1 63.616 6.656l-57.984 550.72A96 96 0 0 1 710.4 960H313.6a96 96 0 0 1-95.424-85.952l-57.984-550.72a32 32 0 0 1 63.616-6.656l57.984 550.656A32 32 0 0 0 313.6 896h396.8a32 32 0 0 0 31.808-28.672l57.984-550.656z" p-id="30742"></path></svg>
