<?xml version="1.0" encoding="UTF-8"?>
<svg width="12px" height="12px" viewBox="0 0 12 12" version="1.1" xmlns="http://www.w3.org/2000/svg" xmlns:xlink="http://www.w3.org/1999/xlink">
    <title>bushu</title>
    <g id="agent管理" stroke="none" stroke-width="1" fill="none" fill-rule="evenodd">
        <g id="实例详情" transform="translate(-1171.000000, -178.000000)" fill="#FFFFFF" fill-rule="nonzero">
            <g id="分组" transform="translate(1151.000000, 170.500000)">
                <g id="bushu" transform="translate(19.999734, 7.750000)">
                    <path d="M11.4743582,2.09536624 C11.3996125,1.51285054 11.1809424,1.03529149 10.8241023,0.678451359 C10.4673872,0.32167378 9.99101662,0.103128748 9.40737504,0.0283205459 C8.87389748,-0.0406706305 8.27524422,0.0167490431 7.62949181,0.196639001 C6.32059847,0.562048296 4.97423848,1.38769066 3.83923042,2.521135 C3.72144478,2.63887101 3.60632604,2.75924517 3.4939618,2.88216589 C2.4308847,2.87359672 1.46569627,3.25038987 0.763837712,3.9537496 C0.457361741,4.26028391 0.209214303,4.62002139 0.0315179546,5.01538807 C-0.0183941087,5.12673884 -0.00855073124,5.25578607 0.0576727059,5.35827833 C0.123896143,5.46077059 0.237497982,5.52277626 0.359523148,5.52303303 C0.404271231,5.52276028 0.448608963,5.5144774 0.490437502,5.4985765 C0.95498643,5.31580931 1.4972208,5.27565306 2.07410713,5.37773248 C1.94175415,6.07527518 2.05534253,6.74848646 2.41499734,7.4043092 C2.4717628,7.52571987 2.591319,7.60550423 2.7252179,7.61133109 C2.85911681,7.61715795 2.98515185,7.54806095 3.05224957,7.43204041 C3.11934729,7.31601987 3.11637981,7.17231732 3.04454965,7.05916567 C2.75970303,6.53988666 2.52082968,5.7934309 3.05599605,4.71878231 C3.05755977,4.71596762 3.05893584,4.714529 3.06037446,4.71158921 C3.06456522,4.70220691 3.06938147,4.69301226 3.07476065,4.6841929 L3.09633994,4.64115942 L3.12204744,4.59362243 C3.12342351,4.59224636 3.12342351,4.59080774 3.12486213,4.58786796 C3.31757457,4.23403016 3.58378168,3.86443011 3.91904252,3.48288326 L3.92041859,3.48150719 C4.05739456,3.32634405 4.1993714,3.17566837 4.3461248,3.02971819 C5.10996908,2.26593645 6.00034931,1.64207608 6.88653878,1.23457153 L10.2655427,4.613638 C9.858476,5.50014022 9.23424034,6.38989496 8.4705837,7.1538018 C7.76559771,7.85872524 7.09682739,8.33465802 6.47684503,8.57496999 C6.47553151,8.57640861 6.47252918,8.57640861 6.47109056,8.57784723 C6.45082479,8.58497778 6.43068412,8.59367204 6.4107311,8.60099024 L6.39778352,8.60511845 C6.37614169,8.61231154 6.35600102,8.61950464 6.33442173,8.62676029 C6.3286047,8.62807381 6.32297532,8.63095105 6.31728339,8.63263986 C6.23034114,8.66103896 6.14201296,8.68500511 6.05264,8.70444573 C5.43272019,8.83967594 4.85158055,8.72608756 4.27957302,8.35629986 C4.11241852,8.25300145 3.89332441,8.30263718 3.78701012,8.4678899 C3.68069583,8.63314262 3.72634811,8.85310126 3.88964465,8.96239642 C4.42474847,9.30772759 4.98430881,9.48017426 5.56125769,9.48017426 C5.7500542,9.47944555 5.93836334,9.4609539 6.12369528,9.42494379 C6.22658783,10.0030811 6.18561845,10.5454406 6.00435243,11.0099895 C5.95158498,11.1458917 5.98604667,11.3002037 6.09161778,11.400745 C6.19718888,11.5012863 6.35299821,11.5281801 6.48616479,11.4688465 C6.88156924,11.2912172 7.24131821,11.0430618 7.54780326,10.7365267 C8.25122553,10.0332295 8.62808123,9.06941718 8.61944952,8.00646518 C8.74198071,7.89372815 8.86232588,7.77863805 8.98041786,7.66125911 C10.1154259,6.52625105 10.9410683,5.18151733 11.3049139,3.87099772 C11.4858046,3.22730942 11.5419733,2.63047006 11.4743582,2.09536624 L11.4743582,2.09536624 Z M2.28427064,4.68594426 C2.01617483,4.63226927 1.74348955,4.60482687 1.47007468,4.60400551 C1.35576925,4.60348178 1.24151142,4.60878445 1.12774584,4.61989287 C1.17392852,4.56558221 1.22242778,4.51328481 1.27310893,4.46314592 C1.69887769,4.03737716 2.24955613,3.7596611 2.86828751,3.65176465 C2.61602875,4.00410127 2.42331632,4.34649266 2.28427064,4.68594426 L2.28427064,4.68594426 Z M7.03959536,10.2294447 C6.98947705,10.2801471 6.93717872,10.3286472 6.88284841,10.3748078 C6.91731273,10.0051452 6.89435737,9.61527937 6.81667193,9.21534321 C7.15612352,9.07729831 7.50001608,8.88308471 7.85078899,8.63289005 C7.74458136,9.25287241 7.46680274,9.80380104 7.03959536,10.2294447 L7.03959536,10.2294447 Z M10.614189,3.68047449 C10.5954244,3.74802704 10.5753462,3.8157047 10.553767,3.8833198 L7.620735,0.950287853 C7.68797352,0.928991667 7.75557804,0.908868792 7.82351777,0.889928392 C8.91392863,0.586442275 9.82288581,0.694401269 10.3162071,1.18778513 C10.8095284,1.68110644 10.9191137,2.58987598 10.614189,3.68047449 L10.614189,3.68047449 Z" id="形状"></path>
                    <path d="M4.79428597,6.79101955 C4.72680036,6.72344352 4.63521594,6.68547209 4.53971291,6.68547209 C4.44420988,6.68547209 4.35262546,6.72344352 4.28513985,6.79101955 L1.9793459,9.09675095 C1.83875005,9.23741133 1.83872205,9.4653898 1.97928335,9.60608472 C2.11993955,9.74665612 2.34789838,9.74665612 2.48855457,9.60608472 L4.79428597,7.30035332 C4.93377079,7.15922461 4.93377079,6.93214826 4.79428597,6.79101955 L4.79428597,6.79101955 Z" id="路径"></path>
                </g>
            </g>
        </g>
    </g>
</svg>