<svg width="15" height="15" viewBox="0 0 15 15" fill="none" xmlns="http://www.w3.org/2000/svg">
<g clip-path="url(#clip0_1403_45199)">
<path d="M7.5 9.73183C7.4145 9.73183 7.3305 9.70783 7.254 9.66133L0.2235 5.27083C0.084 5.18533 0 5.03083 0 4.86583C0 4.70083 0.084 4.54633 0.2235 4.46083L7.254 0.0703257C7.404 -0.0241743 7.5945 -0.0241743 7.7445 0.0703257L14.775 4.46083C14.9145 4.54783 14.9985 4.70083 14.9985 4.86583C14.9985 5.03083 14.9145 5.18533 14.775 5.27083L7.746 9.66133C7.6695 9.70783 7.5855 9.73183 7.5 9.73183ZM1.3635 4.86583L7.5 8.69683L13.6365 4.86583L7.5 1.03483L1.3635 4.86583Z" fill="#4E5969"/>
<path d="M7.50004 12.366C7.41454 12.366 7.33054 12.342 7.25404 12.2955L0.223539 7.90651C0.0030385 7.76851 -0.0659615 7.47601 0.0690385 7.25101C0.204039 7.02751 0.493539 6.95701 0.714038 7.09501L7.50004 11.331L14.286 7.09501C14.5065 6.95701 14.7945 7.02751 14.931 7.25101C15.066 7.47451 14.997 7.76851 14.7765 7.90651L7.74604 12.2955C7.66954 12.342 7.58554 12.366 7.50004 12.366Z" fill="#4E5969"/>
<path d="M7.50004 15C7.41454 15 7.33054 14.976 7.25404 14.9295L0.223539 10.539C0.0030385 10.401 -0.0659615 10.1085 0.0690385 9.88352C0.204039 9.66002 0.493539 9.58952 0.714038 9.72752L7.50004 13.965L14.286 9.72902C14.5065 9.59102 14.7945 9.66152 14.931 9.88502C15.066 10.1085 14.997 10.4025 14.7765 10.5405L7.74604 14.9295C7.66954 14.976 7.58554 15 7.50004 15Z" fill="#4E5969"/>
</g>
<defs>
<clipPath id="clip0_1403_45199">
<rect width="15" height="15" fill="white"/>
</clipPath>
</defs>
</svg>
