<svg width="14" height="14" viewBox="0 0 14 14" fill="none" xmlns="http://www.w3.org/2000/svg">
<path d="M7 12.8337C5.84627 12.8337 4.71846 12.4916 3.75917 11.8506C2.79988 11.2096 2.05221 10.2986 1.6107 9.23265C1.16918 8.16675 1.05366 6.99386 1.27875 5.8623C1.50383 4.73075 2.0594 3.69135 2.8752 2.87554C3.69101 2.05973 4.73041 1.50416 5.86197 1.27908C6.99353 1.054 8.16642 1.16952 9.23232 1.61103C10.2982 2.05254 11.2093 2.80022 11.8502 3.7595C12.4912 4.71879 12.8333 5.84661 12.8333 7.00033C12.8333 7.76638 12.6825 8.52492 12.3893 9.23265C12.0961 9.94039 11.6665 10.5835 11.1248 11.1251C10.5831 11.6668 9.94005 12.0965 9.23232 12.3896C8.52459 12.6828 7.76604 12.8337 7 12.8337ZM2.2575 7.00033C2.25702 7.89453 2.50964 8.7706 2.98614 9.52726C3.46264 10.2839 4.14357 10.8903 4.9502 11.2762C5.75683 11.6621 6.65622 11.8119 7.54438 11.7081C8.43254 11.6044 9.27319 11.2514 9.96916 10.6899L3.26666 4.09183C2.61324 4.92052 2.25777 5.94502 2.2575 7.00033ZM7 2.26074C5.91923 2.26038 4.8711 2.63104 4.03083 3.31074L10.7333 9.90824C11.385 9.07899 11.7385 8.05443 11.7367 6.99974C11.7357 5.74357 11.2365 4.53908 10.3484 3.65061C9.46041 2.76215 8.25617 2.26229 7 2.26074Z" fill="white"/>
</svg>
