<?xml version="1.0" standalone="no"?><!DOCTYPE svg PUBLIC "-//W3C//DTD SVG 1.1//EN" "http://www.w3.org/Graphics/SVG/1.1/DTD/svg11.dtd"><svg t="1634129731368" class="icon" viewBox="0 0 1024 1024" version="1.1" xmlns="http://www.w3.org/2000/svg" p-id="5618" xmlns:xlink="http://www.w3.org/1999/xlink" width="200" height="200"><defs><style type="text/css"></style></defs><path d="M774.144 544.170667H246.954667c-26.112-0.426667-46.933333-20.224-46.933334-44.629334v-0.682666c0-24.746667 20.992-45.226667 46.933334-45.226667h527.189333a46.08 46.08 0 0 1 46.848 45.909333c0 24.405333-20.821333 44.117333-46.848 44.714667v-0.085333z m0 222.122666H246.954667c-26.112-0.512-46.933333-20.309333-46.933334-44.629333V721.066667c0-24.917333 20.992-45.226667 46.933334-45.226667h527.189333a46.08 46.08 0 0 1 46.848 45.909333c0 24.234667-20.821333 44.117333-46.848 44.629334zM199.936 276.821333c0-24.746667 21.077333-45.312 46.933333-45.312H579.413333a46.336 46.336 0 0 1 46.933334 46.08c0 24.32-20.906667 44.032-46.933334 44.544H246.954667c-26.112-0.512-46.933333-20.224-46.933334-44.544v-0.853333zM930.56 0h-837.12C42.154667 0 0 40.704 0 90.282667v843.349333C0 983.296 42.069333 1024 93.44 1024h837.12c51.370667 0 93.44-40.704 93.44-90.453333V90.368C1024 40.704 981.930667 0 930.56 0z" fill="#84AFFF" p-id="5619"></path></svg>