<!-- Generated by IcoMoon.io -->
<svg version="1.1" xmlns="http://www.w3.org/2000/svg" width="32" height="32" viewBox="0 0 32 32">
<title>import1</title>
<path d="M14.908 23.251c0.206 0.206 0.49 0.333 0.804 0.334h0.577c0.313-0.004 0.597-0.13 0.804-0.334l-0 0 7.782-7.798c0.139-0.137 0.224-0.328 0.224-0.539s-0.086-0.401-0.224-0.538l-1.077-1.077c-0.135-0.138-0.323-0.223-0.531-0.223s-0.396 0.085-0.531 0.223l-0 0-5.219 5.234v-15.428c0-0.419-0.34-0.759-0.759-0.759h-1.517c-0.419 0-0.759 0.34-0.759 0.759v0 15.428l-5.219-5.234c-0.137-0.139-0.328-0.224-0.539-0.224s-0.401 0.086-0.538 0.224l-0 0-1.062 1.077c-0.139 0.137-0.224 0.328-0.224 0.539s0.086 0.401 0.224 0.539l0 0zM29.653 26.619v-5.31c0-0.419-0.34-0.759-0.759-0.759h-1.517c-0.419 0-0.759 0.34-0.759 0.759v5.31h-21.239v-5.31c0-0.419-0.34-0.759-0.759-0.759h-1.517c-0.419 0-0.759 0.34-0.759 0.759v5.31c0 1.676 1.358 3.034 3.034 3.034h21.239c1.676 0 3.034-1.358 3.034-3.034v0z"></path>
</svg>
