<?xml version="1.0" standalone="no"?><!DOCTYPE svg PUBLIC "-//W3C//DTD SVG 1.1//EN" "http://www.w3.org/Graphics/SVG/1.1/DTD/svg11.dtd"><svg t="1690252555359" class="icon" viewBox="0 0 1024 1024" version="1.1" xmlns="http://www.w3.org/2000/svg" p-id="1047" xmlns:xlink="http://www.w3.org/1999/xlink" width="200" height="200"><path d="M298.666667 725.333333c46.933333 0 85.333333 38.4 85.333333 85.333334s-38.4 85.333333-85.333333 85.333333-85.333333-38.4-85.333334-85.333333 38.4-85.333333 85.333334-85.333334z m426.666666 0c46.933333 0 85.333333 38.4 85.333334 85.333334s-38.4 85.333333-85.333334 85.333333-85.333333-38.4-85.333333-85.333333 38.4-85.333333 85.333333-85.333334zM298.666667 426.666667c46.933333 0 85.333333 38.4 85.333333 85.333333s-38.4 85.333333-85.333333 85.333333-85.333333-38.4-85.333334-85.333333 38.4-85.333333 85.333334-85.333333z m426.666666 0c46.933333 0 85.333333 38.4 85.333334 85.333333s-38.4 85.333333-85.333334 85.333333-85.333333-38.4-85.333333-85.333333 38.4-85.333333 85.333333-85.333333zM298.666667 128c46.933333 0 85.333333 38.4 85.333333 85.333333s-38.4 85.333333-85.333333 85.333334-85.333333-38.4-85.333334-85.333334 38.4-85.333333 85.333334-85.333333z m426.666666 0c46.933333 0 85.333333 38.4 85.333334 85.333333s-38.4 85.333333-85.333334 85.333334-85.333333-38.4-85.333333-85.333334 38.4-85.333333 85.333333-85.333333z" fill="#000000" p-id="1048"></path></svg>