<?xml version="1.0" encoding="UTF-8"?>
<svg width="10px" height="11px" viewBox="0 0 10 11" version="1.1" xmlns="http://www.w3.org/2000/svg" xmlns:xlink="http://www.w3.org/1999/xlink">
    <title>bianji</title>
    <g id="agent管理" stroke="none" stroke-width="1" fill="none" fill-rule="evenodd">
        <g id="实例详情" transform="translate(-1374.000000, -93.000000)" fill="#2C65FF" fill-rule="nonzero">
            <g id="bianji" transform="translate(1374.000000, 93.500000)">
                <path d="M8.90383635,10 L1.10173733,10 C0.494657575,10 0,9.53699422 0,8.97514451 L0,2.02485549 C0,1.45780347 0.494657575,1 1.10173733,1 L5.31756893,1 C5.54803439,1 5.73915209,1.17687861 5.73915209,1.39017341 C5.73915209,1.60346821 5.54803439,1.78034682 5.31756893,1.78034682 L1.10173733,1.78034682 C0.955588497,1.78034682 0.843166321,1.88959538 0.843166321,2.02485549 L0.843166321,8.9699422 C0.843166321,9.10520231 0.961209605,9.21445087 1.10173733,9.21445087 L8.89821524,9.21445087 C9.04436407,9.21445087 9.15678624,9.10520231 9.15678624,8.9699422 L9.15678624,5.14624277 C9.15678624,4.93294798 9.34790394,4.75606936 9.5783694,4.75606936 C9.80883486,4.75606936 10,4.93294798 10,5.14624277 L10,8.97514451 C10.0055737,9.53699422 9.5109161,10 8.90383635,10 Z" id="路径"></path>
                <path d="M3.4255795,7 C3.31740545,7 3.20353802,6.9598936 3.12383083,6.8739513 C2.95872306,6.70779619 2.95872306,6.43278085 3.12383083,6.26662574 L9.27267182,0.124616329 C9.43777959,-0.0415387763 9.71106141,-0.0415387763 9.87616917,0.124616329 C10.0412769,0.290771434 10.0412769,0.565786781 9.87616917,0.731941887 L3.72732818,6.8739513 C3.64762098,6.9598936 3.53375356,7 3.4255795,7 L3.4255795,7 Z" id="路径"></path>
            </g>
        </g>
    </g>
</svg>