<?xml version="1.0" standalone="no"?><!DOCTYPE svg PUBLIC "-//W3C//DTD SVG 1.1//EN" "http://www.w3.org/Graphics/SVG/1.1/DTD/svg11.dtd"><svg t="1638962655540" class="icon" viewBox="0 0 1024 1024" version="1.1" xmlns="http://www.w3.org/2000/svg" p-id="18503" xmlns:xlink="http://www.w3.org/1999/xlink" width="200" height="200"><defs><style type="text/css"></style></defs><path d="M422 377c16.875 0 28.125-11.25 28.125-28.125s-11.25-28.125-28.125-28.125H258.875c-16.875 0-28.125 11.25-28.125 28.125V680.75c0 16.875 11.25 28.125 28.125 28.125h163.125c16.875 0 28.125-11.25 28.125-28.125s-11.25-28.125-28.125-28.125H287v-112.5h135c16.875 0 28.125-11.25 28.125-28.125s-11.25-28.125-28.125-28.125H287v-112.5h135zM765.125 315.125c-16.875 0-28.125 11.25-28.125 28.125v258.75L562.625 343.25c0-5.625-5.625-5.625-11.25-11.25 0-5.625-11.25-11.25-16.875-11.25-16.875 0-28.125 11.25-28.125 28.125V680.75c0 16.875 11.25 28.125 28.125 28.125s28.125-11.25 28.125-28.125V433.25l168.75 253.125 16.875 16.875c5.625 5.625 11.25 5.625 16.875 5.625 16.875 0 28.125-11.25 28.125-28.125V343.25c0-16.875-11.25-28.125-28.125-28.125z" fill="#666666" p-id="18504"></path><path d="M737 118.25c95.625 0 168.75 73.125 168.75 168.75v450c0 95.625-73.125 168.75-168.75 168.75H287c-95.625 0-168.75-73.125-168.75-168.75V287c0-95.625 73.125-168.75 168.75-168.75h450m0-56.25H287C163.25 62 62 163.25 62 287v450c0 123.75 101.25 225 225 225h450c123.75 0 225-101.25 225-225V287c0-123.75-101.25-225-225-225z" fill="#666666" p-id="18505"></path></svg>