<?xml version="1.0" standalone="no"?><!DOCTYPE svg PUBLIC "-//W3C//DTD SVG 1.1//EN" "http://www.w3.org/Graphics/SVG/1.1/DTD/svg11.dtd"><svg t="1659595298511" class="icon" viewBox="0 0 1024 1024" version="1.1" xmlns="http://www.w3.org/2000/svg" p-id="3356" xmlns:xlink="http://www.w3.org/1999/xlink" width="200" height="200"><defs><style type="text/css">@font-face { font-family: feedback-iconfont; src: url("//at.alicdn.com/t/font_1031158_u69w8yhxdu.woff2?t=1630033759944") format("woff2"), url("//at.alicdn.com/t/font_1031158_u69w8yhxdu.woff?t=1630033759944") format("woff"), url("//at.alicdn.com/t/font_1031158_u69w8yhxdu.ttf?t=1630033759944") format("truetype"); }
</style></defs><path d="M46.557867 372.394667c27.921067 0 46.557867-18.6368 46.557866-46.557867v-232.789333h232.721067c27.921067 0 46.557867-18.568533 46.557867-46.4896 0-27.989333-18.6368-46.557867-46.557867-46.557867H46.557867C18.568533 0 0 18.6368 0 46.557867v279.210666c0 27.989333 18.6368 46.626133 46.557867 46.626134z m930.884266 279.210666c-27.921067 0-46.557867 18.6368-46.557866 46.557867v232.789333h-232.721067c-27.921067 0-46.557867 18.568533-46.557867 46.4896 0 27.989333 18.6368 46.557867 46.557867 46.557867h279.278933c27.989333 0 46.557867-18.6368 46.557867-46.557867v-279.210666c0-27.989333-18.6368-46.626133-46.557867-46.626134zM1019.357867 27.989333a56.1152 56.1152 0 0 0-23.278934-23.210666C991.4368 0 982.084267 0 977.442133 0h-279.210666c-27.989333 0-46.626133 18.6368-46.626134 46.557867 0 27.921067 18.6368 46.557867 46.557867 46.557866h167.594667L619.042133 339.7632a45.056 45.056 0 0 0 0 65.194667 42.257067 42.257067 0 0 0 32.5632 13.9264c13.994667 0 23.278933-4.642133 32.631467-13.9264l246.647467-246.715734v167.594667c0 27.921067 18.6368 46.557867 46.557866 46.557867 27.989333 0 46.557867-18.6368 46.557867-46.557867V46.557867c0-4.642133 0-13.994667-4.642133-18.6368zM339.7632 619.178667l-246.647467 246.647466v-167.594666c0-27.921067-18.6368-46.557867-46.557866-46.557867-27.989333 0-46.557867 18.6368-46.557867 46.557867v279.278933c0 4.642133 0 13.994667 4.642133 18.6368a56.1152 56.1152 0 0 0 23.278934 23.210667C32.5632 1024 41.915733 1024 46.557867 1024h279.210666c27.989333 0 46.626133-18.6368 46.626134-46.557867 0-27.921067-18.6368-46.557867-46.557867-46.557866H158.242133l246.715734-246.647467a45.056 45.056 0 0 0 0-65.194667 45.056 45.056 0 0 0-65.194667 0z" fill="#4E5969" p-id="3357"></path></svg>
