<?xml version="1.0" encoding="UTF-8"?>
<svg width="12px" height="17px" viewBox="0 0 12 17" version="1.1" xmlns="http://www.w3.org/2000/svg" xmlns:xlink="http://www.w3.org/1999/xlink">
    <title>形状</title>
    <g id="数据管道" stroke="none" stroke-width="1" fill="none" fill-rule="evenodd">
        <g id="数据复制-点击名称（全量+增量）" transform="translate(-1154.000000, -726.000000)" fill="#4E5969" fill-rule="nonzero">
            <path d="M1157.59368,731.384079 C1157.59368,730.641221 1157.13653,730.01265 1156.45082,729.784079 L1156.45082,726.81265 C1156.45082,726.469793 1156.22225,726.241221 1155.87939,726.241221 C1155.53653,726.241221 1155.30796,726.469793 1155.30796,726.81265 L1155.30796,729.784079 C1154.62225,730.01265 1154.1651,730.641221 1154.1651,731.384079 C1154.1651,732.126936 1154.62225,732.755507 1155.30796,732.984079 L1155.30796,735.441221 C1154.62225,735.669793 1154.1651,736.298364 1154.1651,737.041221 C1154.1651,737.784079 1154.62225,738.41265 1155.30796,738.641221 L1155.30796,741.669793 C1155.30796,742.01265 1155.53653,742.241221 1155.87939,742.241221 C1156.22225,742.241221 1156.45082,742.01265 1156.45082,741.669793 L1156.45082,738.698364 C1157.13653,738.469793 1157.59368,737.841221 1157.59368,737.098364 C1157.59368,736.355507 1157.13653,735.726936 1156.45082,735.498364 L1156.45082,733.041221 C1157.13653,732.755507 1157.59368,732.126936 1157.59368,731.384079 Z M1155.87939,737.669793 C1155.53653,737.669793 1155.30796,737.441221 1155.30796,737.098364 C1155.30796,736.755507 1155.53653,736.526936 1155.87939,736.526936 C1156.22225,736.526936 1156.45082,736.755507 1156.45082,737.098364 C1156.45082,737.441221 1156.22225,737.669793 1155.87939,737.669793 Z M1155.87939,731.955507 C1155.53653,731.955507 1155.30796,731.726936 1155.30796,731.384079 C1155.30796,731.041221 1155.53653,730.81265 1155.87939,730.81265 C1156.22225,730.81265 1156.45082,731.041221 1156.45082,731.384079 C1156.45082,731.726936 1156.22225,731.955507 1155.87939,731.955507 Z M1163.87939,737.669793 L1159.30796,737.669793 C1159.02225,737.669793 1158.73653,737.898364 1158.73653,738.241221 C1158.73653,738.584079 1158.9651,738.81265 1159.30796,738.81265 L1163.87939,738.81265 C1164.1651,738.81265 1164.45082,738.584079 1164.45082,738.241221 C1164.45082,737.898364 1164.22225,737.669793 1163.87939,737.669793 Z M1165.02225,729.669793 L1159.30796,729.669793 C1159.02225,729.669793 1158.73653,729.898364 1158.73653,730.241221 C1158.73653,730.584079 1158.9651,730.81265 1159.30796,730.81265 L1165.02225,730.81265 C1165.30796,730.81265 1165.59368,730.584079 1165.59368,730.241221 C1165.59368,729.898364 1165.3651,729.669793 1165.02225,729.669793 Z M1163.87939,733.098364 C1164.1651,733.098364 1164.45082,732.869793 1164.45082,732.526936 C1164.45082,732.184079 1164.22225,731.955507 1163.87939,731.955507 L1159.30796,731.955507 C1159.02225,731.955507 1158.73653,732.184079 1158.73653,732.526936 C1158.73653,732.869793 1158.9651,733.098364 1159.30796,733.098364 L1163.87939,733.098364 Z M1165.02225,735.384079 L1159.30796,735.384079 C1159.02225,735.384079 1158.73653,735.61265 1158.73653,735.955507 C1158.73653,736.298364 1158.9651,736.526936 1159.30796,736.526936 L1165.02225,736.526936 C1165.30796,736.526936 1165.59368,736.298364 1165.59368,735.955507 C1165.59368,735.61265 1165.3651,735.384079 1165.02225,735.384079 Z" id="形状"></path>
        </g>
    </g>
</svg>