<svg width="1em" height="1em" viewBox="0 0 24 24" fill="none" xmlns="http://www.w3.org/2000/svg" data-icon="SideExpandOutlined"><path d="M22 4a1 1 0 0 0-1-1H3a1 1 0 0 0 0 2h18a1 1 0 0 0 1-1Zm-11.111 7c.614 0 1.111.448 1.111 1s-.498 1-1.111 1H3.11C2.497 13 2 12.552 2 12s.497-1 1.111-1h7.778ZM12 20c0-.552-.498-1-1.111-1H3.11C2.497 19 2 19.448 2 20s.497 1 1.111 1h7.778c.614 0 1.111-.448 1.111-1Zm3.41-3.136a1.117 1.117 0 0 1 0-1.729l4.951-3.917c.675-.534 1.639-.026 1.639.865v7.834c0 .89-.964 1.4-1.639.865l-4.951-3.918Z" fill="currentColor"></path></svg>