<svg version="1.1" xmlns="http://www.w3.org/2000/svg" width="24" height="24" viewBox="0 0 24 24" fill="none">
    <path d="M11 6.1a.9.9 0 100 1.8V6.1zm8 1.8a.9.9 0 100-1.8v1.8zm-8 0h8V6.1h-8v1.8zM11 11.1a.9.9 0 100 1.8v-1.8zm8 1.8a.9.9 0 100-1.8v1.8zm-8 0h8v-1.8h-8v1.8zM11 16.1a.9.9 0 100 1.8v-1.8zm8 1.8a.9.9 0 100-1.8v1.8zm-8 0h8v-1.8h-8v1.8z"
          fill="currentColor"></path>
    <path d="M8 9l-3 3 3 3" fill="none" stroke="currentColor" stroke-width="1.5" stroke-linecap="round"
          stroke-linejoin="round"></path>
</svg>
