<!-- Generated by IcoMoon.io -->
<svg version="1.1" xmlns="http://www.w3.org/2000/svg" width="1024" height="1024" viewBox="0 0 1024 1024">
<title></title>
<g id="icomoon-ignore">
</g>
<path d="M480 595q14 14 0 26l-147 147-10 8 16 14 53 53q17 18 10 35-9 20-32 20h-207q-34-4-35-36v-206q0-24 19-31.5t35 7.5l61 61 5 6 155-155q8-8 14-8t13 8zM896 158q0-12-8.5-21t-21.5-9h-213q-11 1-19 6-11 9-12 22t10 23l69 69-10 8-147 146q-14 13 0 27l48 48q8 8 14.5 8t14.5-8l145-146q5-5 7-9 4 4 8 6l62 62q15 14 33 7t18-29q2-51 2-104v-106z"></path>
</svg>
