<?xml version="1.0" encoding="UTF-8"?>
<svg width="17px" height="35px" viewBox="0 0 17 35" version="1.1" xmlns="http://www.w3.org/2000/svg" xmlns:xlink="http://www.w3.org/1999/xlink">
    <title>datareplication_icon_table1</title>
    <g id="DAG复制任务" stroke="none" stroke-width="1" fill="none" fill-rule="evenodd">
        <g id="DAG（目标点设置）" transform="translate(-832.000000, -457.000000)">
            <g id="编组-14" transform="translate(817.000000, 339.000000)">
                <g id="编组-2" transform="translate(0.000000, 48.000000)">
                    <g id="datareplication_icon_table1" transform="translate(15.564326, 70.100000)">
                        <g transform="translate(7.435674, 0.000000)" fill="#4E5969">
                            <g id="形状结合">
                                <path d="M7,0 C8.1045695,-2.02906125e-16 9,0.8954305 9,2 L9,7 C9,8.1045695 8.1045695,9 7,9 L2,9 C0.8954305,9 1.3527075e-16,8.1045695 0,7 L0,2 C-1.3527075e-16,0.8954305 0.8954305,2.02906125e-16 2,0 L7,0 Z M6.99845784,0.801542116 L2.00154216,0.801542116 C1.33880044,0.801542116 0.801542116,1.33880044 0.801542116,2.00154216 L0.801542116,2.00154216 L0.801542116,6.99845784 C0.801542116,7.66119956 1.33880044,8.19845788 2.00154216,8.19845788 L2.00154216,8.19845788 L6.99845784,8.19845788 C7.66119956,8.19845788 8.19845788,7.66119956 8.19845788,6.99845784 L8.19845788,6.99845784 L8.19845788,2.00154216 C8.19845788,1.33880044 7.66119956,0.801542116 6.99845784,0.801542116 L6.99845784,0.801542116 Z"></path>
                            </g>
                            <rect id="矩形" x="0.357713399" y="2.12865279" width="8" height="1"></rect>
                            <rect id="矩形" x="0.357713399" y="4.06432639" width="8" height="1"></rect>
                            <rect id="矩形" x="0.357713399" y="6" width="8" height="1"></rect>
                            <rect id="矩形" transform="translate(3.114928, 5.649689) rotate(-90.000000) translate(-3.114928, -5.649689) " x="-0.235383615" y="5.21401495" width="6.70062289" height="1"></rect>
                            <rect id="矩形" transform="translate(5.600499, 5.649689) rotate(-90.000000) translate(-5.600499, -5.649689) " x="2.25018752" y="5.21401495" width="6.70062289" height="1"></rect>
                        </g>
                        <g id="DAG_icon_error" transform="translate(7.435674, 12.488981)" fill="#FF7474" fill-rule="nonzero">
                            <path d="M4.5,0 C2.01477273,0 0,2.01477273 0,4.5 C0,6.98522727 2.01477273,9 4.5,9 C6.98522727,9 9,6.98522727 9,4.5 C9,2.01477273 6.98625,0 4.5,0 Z M4.50715909,7.22863636 C4.25863636,7.22863636 4.05715909,7.02715909 4.05715909,6.77863636 C4.05715909,6.53011364 4.25863636,6.32863636 4.50715909,6.32863636 C4.75568182,6.32863636 4.95715909,6.53011364 4.95715909,6.77863636 C4.95715909,7.02715909 4.75568182,7.22863636 4.50715909,7.22863636 L4.50715909,7.22863636 Z M5.21590909,2.36352273 L5.21590909,2.36556818 C5.21488636,2.42795455 5.20568182,2.48829545 5.19034091,2.54556818 L4.78738636,5.33659091 C4.78738636,5.49511364 4.65954545,5.62295455 4.50102273,5.62295455 C4.3425,5.62295455 4.21465909,5.49511364 4.21465909,5.33659091 L3.81170455,2.54556818 C3.79534091,2.48829545 3.78715909,2.42795455 3.78613636,2.36556818 L3.78613636,2.36352273 L3.78613636,2.35329545 C3.78613636,1.9575 4.10625,1.63738636 4.50204545,1.63738636 C4.89784091,1.63738636 5.21795455,1.9575 5.21795455,2.35329545 C5.21590909,2.35636364 5.21590909,2.35943182 5.21590909,2.36352273 Z" id="形状"></path>
                        </g>
                        <g id="datareplication_icon_table2" transform="translate(7.435674, 25.000000)">
                            <g id="datareplication_icon_table1" fill="#FD945D">
                                <path d="M7,0 C8.1045695,-2.02906125e-16 9,0.8954305 9,2 L9,7 C9,8.1045695 8.1045695,9 7,9 L2,9 C0.8954305,9 1.3527075e-16,8.1045695 0,7 L0,2 C-1.3527075e-16,0.8954305 0.8954305,2.02906125e-16 2,0 L7,0 Z M6.99845784,0.801542116 L2.00154216,0.801542116 C1.33880044,0.801542116 0.801542116,1.33880044 0.801542116,2.00154216 L0.801542116,2.00154216 L0.801542116,6.99845784 C0.801542116,7.66119956 1.33880044,8.19845788 2.00154216,8.19845788 L2.00154216,8.19845788 L6.99845784,8.19845788 C7.66119956,8.19845788 8.19845788,7.66119956 8.19845788,6.99845784 L8.19845788,6.99845784 L8.19845788,2.00154216 C8.19845788,1.33880044 7.66119956,0.801542116 6.99845784,0.801542116 L6.99845784,0.801542116 Z" id="形状结合"></path>
                            </g>
                            <rect id="矩形" fill="#EF9868" x="0.357713399" y="2.12865279" width="8" height="1"></rect>
                            <rect id="矩形" fill="#EF9868" x="0.357713399" y="4.06432639" width="8" height="1"></rect>
                            <rect id="矩形" fill="#EF9868" x="0.357713399" y="6" width="8" height="1"></rect>
                            <rect id="矩形" fill="#EF9868" transform="translate(3.114928, 5.649689) rotate(-90.000000) translate(-3.114928, -5.649689) " x="-0.235383615" y="5.21401495" width="6.70062289" height="1"></rect>
                            <rect id="矩形" fill="#EF9868" transform="translate(5.600499, 5.649689) rotate(-90.000000) translate(-5.600499, -5.649689) " x="2.25018752" y="5.21401495" width="6.70062289" height="1"></rect>
                        </g>
                        <g id="编组-7" transform="translate(0.000000, 2.477961)" fill="#4E5969">
                            <rect id="矩形" transform="translate(0.435674, 13.515393) rotate(-90.000000) translate(-0.435674, -13.515393) " x="-13.079719" y="13.079719" width="27.0307852" height="1"></rect>
                            <rect id="矩形" transform="translate(3.217837, 0.435674) rotate(-180.000000) translate(-3.217837, -0.435674) " x="2.27373675e-13" y="0" width="6.43567361" height="1"></rect>
                            <rect id="矩形" transform="translate(3.217837, 26.522039) rotate(-180.000000) translate(-3.217837, -26.522039) " x="2.27373675e-13" y="26.0863654" width="6.43567361" height="1"></rect>
                            <polygon id="三角形" transform="translate(5.551442, 26.522039) rotate(-270.000000) translate(-5.551442, -26.522039) " points="5.55144238 25.022039 8.05144238 28.022039 3.05144238 28.022039"></polygon>
                        </g>
                    </g>
                </g>
            </g>
        </g>
    </g>
</svg>