<svg width="16" height="16" viewBox="0 0 16 16" fill="none" xmlns="http://www.w3.org/2000/svg">
<rect width="16" height="16" rx="2" fill="#E8F3FF"/>
<path d="M11.8418 4.20418C11.7741 4.0794 11.6294 4 11.4701 4H3.41123C3.25054 4 3.1045 4.08111 3.03754 4.20788C2.97053 4.33438 2.9945 4.48327 3.09931 4.58892L5.96266 7.4769V10.7337C5.96266 10.869 6.05101 10.9927 6.19081 11.053L8.30693 11.963C8.3646 11.988 8.42745 12 8.48975 12C8.56295 12 8.63622 11.9831 8.70153 11.9495C8.82146 11.8869 8.89654 11.7757 8.90081 11.6543L9.04579 7.47704L11.7881 4.58278C11.8888 4.47638 11.9099 4.32895 11.8418 4.20418ZM8.09817 11.0772L6.7847 10.5123V7.70131H8.21537L8.09817 11.0772ZM8.43386 6.99968C8.41189 6.99652 8.39177 6.98819 8.36886 6.98819H6.56237L4.30678 4.71313H10.6001L8.43386 6.99968ZM9.94087 8.12643H13V8.75559H9.94087V8.12643ZM9.94087 9.49612H13V10.1253H9.94087V9.49612ZM9.94087 10.7544H13V11.3835H9.94087V10.7544Z" fill="#2C65FF"/>
</svg>
