<!-- Generated by IcoMoon.io -->
<svg version="1.1" xmlns="http://www.w3.org/2000/svg" width="32" height="32" viewBox="0 0 32 32">
<title>Folder-closed</title>
<path d="M18.859 1.997h-15.716c-0.631 0-1.141 0.512-1.141 1.141v3.716c0 0.631 0.513 1.141 1.141 1.141h15.716c0.631 0 1.141-0.513 1.141-1.141v-3.712c0.003-0.631-0.509-1.144-1.141-1.144zM28.841 5.997h-25.688c-0.631 0-1.141 0.513-1.141 1.141v21.747c0 0.631 0.513 1.141 1.141 1.141h25.688c0.631 0 1.141-0.512 1.141-1.141v-21.744c0-0.631-0.509-1.144-1.141-1.144zM27.078 12.041c0 0.481-0.394 0.875-0.875 0.875h-20.234c-0.481 0-0.875-0.394-0.875-0.875v-2.244c0-0.481 0.394-0.875 0.875-0.875h20.234c0.481 0 0.875 0.394 0.875 0.875v2.244z"></path>
</svg>
