<svg viewBox="0 0 24 24" focusable="false" data-icon="folder" width="1em" height="1em" fill="currentColor" aria-hidden="true"><path clip-rule="evenodd" d="M1.78 3.45c.6-.6 1.43-.95 2.3-.95h5.37a2.5 2.5 0 011.77.73l2.1 2.1.02.02c.1.1.22.15.36.15h5.37a3.25 3.25 0 013.25 3.25v9A3.25 3.25 0 0119.07 21h-15a3.25 3.25 0 01-3.25-3.25v-12c0-.86.35-1.69.96-2.3zm1.04 8.3v6A1.25 1.25 0 004.07 19h15a1.25 1.25 0 001.25-1.25v-6a1.25 1.25 0 00-1.25-1.25h-15a1.25 1.25 0 00-1.25 1.25zm17.5-3c-.39-.16-.81-.25-1.25-.25h-15c-.43 0-.85.09-1.25.25v-3A1.25 1.25 0 014.07 4.5h5.38a.5.5 0 01.36.15l2.12 2.12.03.03c.47.45 1.09.7 1.73.7h5.38a1.25 1.25 0 011.25 1.25z" fill-rule="evenodd"></path></svg>