<svg viewBox="0 0 24 24" focusable="false" data-icon="folder-open" width="1em" height="1em" fill="currentColor" aria-hidden="true"><path clip-rule="evenodd" d="M22.13 9.81a3.26 3.26 0 00-1.27-1 3.25 3.25 0 00-.95-2.3 3.24 3.24 0 00-2.3-1h-3.88a.52.52 0 01-.35-.14l-2.12-2.12a2.5 2.5 0 00-1.77-.74H5.6a3.18 3.18 0 00-2.3 1 3.18 3.18 0 00-1 2.3v3A3.2 3.2 0 00.45 12.2l.87 6a3.23 3.23 0 003.2 2.78h14.1a3.26 3.26 0 003.23-2.79l.86-6c.13-.83-.08-1.69-.57-2.38zM4.36 5.74a1.23 1.23 0 01.37-.88 1.23 1.23 0 01.88-.37h3.88c.13 0 .25.06.35.15l2.13 2.12a2.48 2.48 0 001.76.73h3.88a1.26 1.26 0 011.23 1H4.36V5.74zM19.9 17.92A1.23 1.23 0 0118.66 19H4.56c-.3 0-.6-.1-.82-.3-.23-.2-.37-.47-.41-.77l-.86-6a1.25 1.25 0 011.03-1.4h16.18a1.25 1.25 0 011.03 1.41l-.81 6z" fill-rule="evenodd"></path></svg>