<svg width="24" height="24" viewBox="0 0 24 24" fill="none" xmlns="http://www.w3.org/2000/svg">
    <path d="M11.5645 8.21273C11.7924 8.45324 12.1722 8.46344 12.4127 8.2355C12.6532 8.00755 12.6634 7.62779 12.4355 7.38727L11.5645 8.21273ZM5.6 9V8H4.4V9H5.6ZM7 6.6H9.43407V5.4H7V6.6ZM10.4502 7.03697L11.5645 8.21273L12.4355 7.38727L11.3212 6.21152L10.4502 7.03697ZM9.43407 6.6C9.81841 6.6 10.1858 6.75801 10.4502 7.03697L11.3212 6.21152C10.8302 5.69344 10.1478 5.4 9.43407 5.4V6.6ZM5.6 8C5.6 7.2268 6.2268 6.6 7 6.6V5.4C5.56406 5.4 4.4 6.56406 4.4 8H5.6Z" fill="currentColor"/>
    <path d="M5 9.50769C5 9.1068 5 8.90636 5.05271 8.74414C5.15924 8.41628 5.41628 8.15924 5.74414 8.05271C5.90636 8 6.1068 8 6.50769 8H16.2C16.9445 8 17.3168 8 17.618 8.09789C18.2269 8.29572 18.7043 8.77309 18.9021 9.38197C19 9.68323 19 10.0555 19 10.8V15.2C19 15.9445 19 16.3168 18.9021 16.618C18.7043 17.2269 18.2269 17.7043 17.618 17.9021C17.3168 18 16.9445 18 16.2 18H7.8C7.05549 18 6.68323 18 6.38197 17.9021C5.77309 17.7043 5.29572 17.2269 5.09789 16.618C5 16.3168 5 15.9445 5 15.2V9.50769Z" stroke="currentColor" stroke-width="1.2" fill="none"/>
</svg>
