<?xml version="1.0" encoding="UTF-8"?><svg version="1.1" width="182px" height="170px" viewBox="0 0 182.0 170.0" xmlns="http://www.w3.org/2000/svg" xmlns:xlink="http://www.w3.org/1999/xlink"><defs><clipPath id="i0"><path d="M53.33125,3.37450886e-06 C57.9443787,-0.00337942099 62.183601,2.53678949 64.35625,6.60625676 L74.19375,25.0000034 L168.75,25.0000034 C175.64375,25.0000034 181.25,30.6062568 181.25,37.5000034 L181.25,156.250007 C181.25,163.143757 175.64375,168.750007 168.75,168.750007 L12.5,168.750007 C5.60625,168.750007 0,163.143757 0,156.250007 L0,12.5000034 C0,5.60625676 5.60625,3.37450886e-06 12.5,3.37450886e-06 Z M12.74375,69.1125068 L12.5,137.500007 L12.5,156.250007 L168.7625,156.250007 L168.7625,137.500007 L168.75,137.500007 L168.75,69.3500068 L12.74375,69.1125068 Z M53.33125,12.5000068 L12.5,12.5000068 L12.5,56.6375068 C12.5875,56.6375068 12.6625,56.6125068 12.74375,56.6125068 L168.5125,56.6125068 C168.59375,56.6125068 168.66875,56.6375068 168.75,56.6375068 L168.75,37.5000068 L66.7,37.5000068 L53.33125,12.5000068 Z"></path></clipPath><clipPath id="i1"><path d="M24,0 C26.6509668,0 28.8,2.1490332 28.8,4.8 L28.8,19.2 L43.2,19.2 C45.8509668,19.2 48,21.3490332 48,24 C48,26.6509668 45.8509668,28.8 43.2,28.8 L28.8,28.8 L28.8,43.2 C28.8,45.8509668 26.6509668,48 24,48 C21.3490332,48 19.2,45.8509668 19.2,43.2 L19.2,28.8 L4.8,28.8 C2.1490332,28.8 0,26.6509668 0,24 C0,21.3490332 2.1490332,19.2 4.8,19.2 L19.2,19.2 L19.2,4.8 C19.2,2.1490332 21.3490332,0 24,0 Z"></path></clipPath></defs><g transform="translate(0.375 0.6249932442372028)"><g clip-path="url(#i0)"><polygon points="0,1.77635684e-15 181.25,1.77635684e-15 181.25,168.750007 0,168.750007 0,1.77635684e-15" stroke="none" fill="#020202"></polygon></g><g transform="translate(67.0 84.0)"><g clip-path="url(#i1)"><polygon points="0,0 48,0 48,48 0,48 0,0" stroke="none" fill="#000000"></polygon></g></g></g></svg>