<svg width="24" height="26" viewBox="0 0 24 26" fill="none" xmlns="http://www.w3.org/2000/svg">
      <path d="M16.8105 16.2954L15.3924 12.9865C15.3463 12.9954 15.2987 13 15.25 13H10.75C10.7012 13 10.6535 12.9953 10.6073 12.9864L9.18919 16.2954C9.02602 16.6762 8.58511 16.8525 8.20439 16.6894C7.82366 16.5262 7.6473 16.0853 7.81047 15.7046L11.9658 6.00881C12.3554 5.09969 13.6442 5.09968 14.0339 6.00881L18.1892 15.7046C18.3524 16.0853 18.176 16.5262 17.7953 16.6894C17.4145 16.8525 16.9736 16.6762 16.8105 16.2954ZM12.9998 7.40394L11.2444 11.5H14.7553L12.9998 7.40394Z" fill="#2B2F36"></path>
      <rect x="6" y="19" width="14" height="3" rx="1.5" fill="#2B2F36" style="fill: rgb(52, 199, 36);"></rect>
    </svg>