<?xml version="1.0" encoding="UTF-8"?>
<svg width="15px" height="15px" viewBox="0 0 15 15" version="1.1" xmlns="http://www.w3.org/2000/svg" xmlns:xlink="http://www.w3.org/1999/xlink">
    <title>suzhuji</title>
    <g id="agent管理" stroke="none" stroke-width="1" fill="none" fill-rule="evenodd">
        <g id="实例详情" transform="translate(-1166.000000, -397.000000)">
            <g id="编组-2" transform="translate(1132.240157, 71.865896)">
                <g id="suzhuji" transform="translate(34.127240, 325.391399)">
                    <path d="M12.4855652,0 C13.3139924,-1.52179594e-16 13.9855652,0.671572875 13.9855652,1.5 L13.9855652,8.19925322 C13.9855652,9.02768035 13.3139924,9.69925322 12.4855652,9.69925322 L1.5,9.69925322 C0.671572875,9.69925322 1.01453063e-16,9.02768035 0,8.19925322 L0,1.5 C-1.01453063e-16,0.671572875 0.671572875,-6.98650109e-17 1.5,0 L12.4855652,0 Z M12,1.03551149 L1.98556525,1.03551149 C1.4332805,1.03551149 0.985565248,1.48322674 0.985565248,2.03551149 L0.985565248,2.03551149 L0.985565248,7.59489811 C0.985565248,8.14718286 1.4332805,8.59489811 1.98556525,8.59489811 L1.98556525,8.59489811 L12,8.59489811 C12.5522847,8.59489811 13,8.14718286 13,7.59489811 L13,7.59489811 L13,2.03551149 C13,1.48322674 12.5522847,1.03551149 12,1.03551149 L12,1.03551149 Z" id="形状结合" fill-opacity="0.6" fill="#000000"></path>
                    <rect id="矩形" fill="#666666" x="6.49629035" y="9.69925322" width="1" height="3.32497144"></rect>
                    <rect id="矩形" fill="#666666" x="0" y="12.163515" width="13.9855652" height="1"></rect>
                    <path d="M7.86554482,11.1642444 C8.1416872,11.1642444 8.36554482,11.388102 8.36554482,11.6642444 L8.36554482,13.4097688 C8.36554482,13.6859112 8.1416872,13.9097688 7.86554482,13.9097688 L6.12002043,13.9097688 C5.84387805,13.9097688 5.62002043,13.6859112 5.62002043,13.4097688 L5.62002043,11.6642444 C5.62002043,11.388102 5.84387805,11.1642444 6.12002043,11.1642444 L7.86554482,11.1642444 Z M7.37357423,12.156482 L6.61199102,12.156482 L6.61199102,12.9180652 L7.37357423,12.9180652 L7.37357423,12.156482 Z" id="形状结合" fill="#666666" transform="translate(6.992783, 12.537007) rotate(-45.000000) translate(-6.992783, -12.537007) "></path>
                    <rect id="矩形" fill="#666666" x="0.971222772" y="4.33425369" width="12.0501352" height="1"></rect>
                    <rect id="矩形" fill-opacity="0.6" fill="#000000" x="2.07179972" y="1.91610636" width="1" height="1.31836858"></rect>
                    <rect id="矩形" fill-opacity="0.6" fill="#000000" x="3.88345074" y="1.91610636" width="1" height="1.31836858"></rect>
                    <rect id="矩形" fill-opacity="0.6" fill="#000000" x="9.29957566" y="2.25023433" width="2.62120532" height="1"></rect>
                    <rect id="矩形" fill-opacity="0.6" fill="#000000" x="2.07179972" y="5.93424968" width="1" height="1.31836858"></rect>
                    <rect id="矩形" fill-opacity="0.6" fill="#000000" x="3.88345074" y="5.93424968" width="1" height="1.31836858"></rect>
                    <rect id="矩形" fill-opacity="0.6" fill="#000000" x="9.29957566" y="6.26837766" width="2.62120532" height="1"></rect>
                    <rect id="矩形" fill="#FFFFFF" transform="translate(6.992783, 12.663515) rotate(-45.000000) translate(-6.992783, -12.663515) " x="6.61199102" y="12.2827234" width="1" height="1"></rect>
                </g>
            </g>
        </g>
    </g>
</svg>