<?xml version="1.0" standalone="no"?><!DOCTYPE svg PUBLIC "-//W3C//DTD SVG 1.1//EN" "http://www.w3.org/Graphics/SVG/1.1/DTD/svg11.dtd"><svg t="1681802677775" class="icon" viewBox="0 0 1024 1024" version="1.1" xmlns="http://www.w3.org/2000/svg" p-id="3210" xmlns:xlink="http://www.w3.org/1999/xlink" width="200" height="200"><path d="M512 113.9712L395.4688 230.6048h-164.864v164.864L113.9712 512l116.5312 116.5312v164.864h164.864L512 910.0288l116.5312-116.5312h164.864v-164.864L910.0288 512 793.3952 395.4688v-164.864h-164.864L512 113.9712z m-140.1856 59.6992L471.7568 73.728c22.2208-22.2208 58.2656-22.2208 80.4864 0l99.9424 99.9424h141.312c31.4368 0 56.9344 25.4976 56.9344 56.9344v141.312l99.9424 99.9424c22.2208 22.2208 22.2208 58.2656 0 80.4864L850.432 652.288v141.312c0 31.4368-25.4976 56.9344-56.9344 56.9344h-141.312L552.2432 950.272c-22.2208 22.2208-58.2656 22.2208-80.4864 0l-99.9424-99.9424h-141.312c-31.4368 0-56.9344-25.4976-56.9344-56.9344v-141.312L73.728 552.2432c-22.2208-22.2208-22.2208-58.2656 0-80.4864l99.9424-99.9424v-141.312c0-31.4368 25.4976-56.9344 56.9344-56.9344l141.2096 0.1024zM284.672 429.4656h44.544v57.7536H377.856v-57.7536h44.7488v165.0688H377.856v-66.7648h-48.64v66.7648H284.672V429.4656z m161.792 82.6368c0-26.9312 6.5536-47.9232 19.6608-62.976 13.1072-15.0528 31.3344-22.528 54.784-22.528 23.9616 0 42.496 7.3728 55.3984 22.1184 13.0048 14.7456 19.456 35.4304 19.456 61.952 0 19.2512-2.8672 35.1232-8.4992 47.4112-5.632 12.3904-13.824 21.9136-24.576 28.7744-10.752 6.8608-24.064 10.3424-40.0384 10.3424-16.2816 0-29.696-2.9696-40.3456-8.9088s-19.2512-15.36-25.9072-28.16-9.9328-28.7744-9.9328-48.0256z m44.544 0.2048c0 16.6912 2.6624 28.672 8.0896 35.9424 5.4272 7.2704 12.8 10.9568 22.016 10.9568 9.5232 0 16.9984-3.584 22.2208-10.6496 5.2224-7.168 7.8848-19.968 7.8848-38.4 0-15.5648-2.7648-26.9312-8.192-34.0992-5.4272-7.168-12.9024-10.752-22.2208-10.752-9.0112 0-16.1792 3.6864-21.6064 10.9568-5.4272 7.168-8.192 19.2512-8.192 36.0448z m113.4592-82.8416h135.3728v40.7552h-45.3632v124.3136h-44.544V470.2208h-45.3632l-0.1024-40.7552z" fill="#323233" p-id="3211"></path></svg>