<svg width="16" height="16" viewBox="0 0 16 16" fill="none" xmlns="http://www.w3.org/2000/svg">
<path d="M14 2.88841C14 2.0965 13.5317 1.42642 12.8878 1.12183C12.6829 1.06092 12.4488 1 12.2146 1H3.8439C2.81951 1 2 1.85283 2 2.88841V13.762C2 14.7062 3.02439 15.3154 3.81463 14.7976L7.82439 12.3C7.91219 12.2391 8 12.2391 8.05854 12.3L12.2146 14.828C13.0049 15.3154 14 14.7062 14 13.762V2.88841C14 2.91887 14 2.91887 14 2.88841ZM5.92195 7.67036C5.5122 7.67036 5.19024 7.33532 5.19024 6.9089C5.19024 6.48249 5.5122 6.14745 5.92195 6.14745H7.26829V4.74637C7.26829 4.31995 7.59024 3.98491 8 3.98491C8.40976 3.98491 8.73171 4.31995 8.73171 4.74637V6.14745H10.078C10.4878 6.14745 10.8098 6.48249 10.8098 6.9089C10.8098 7.33532 10.4878 7.67036 10.078 7.67036H8.73171V9.07144C8.73171 9.49785 8.40976 9.8329 8 9.8329C7.59024 9.8329 7.26829 9.49785 7.26829 9.07144V7.67036H5.92195Z" fill="#535F72"/>
</svg>
