<?xml version="1.0" encoding="UTF-8"?>
<svg width="16px" height="16px" viewBox="0 0 16 16" version="1.1" xmlns="http://www.w3.org/2000/svg" xmlns:xlink="http://www.w3.org/1999/xlink">
    <title>编组 4</title>
    <g id="数据管道" stroke="none" stroke-width="1" fill="none" fill-rule="evenodd">
        <g id="数据复制-点击名称（全量+增量）" transform="translate(-1152.000000, -495.000000)">
            <g id="编组-4" transform="translate(1152.500000, 495.741221)">
                <path d="M7.37939677,0 C3.30739265,0 0,3.30739265 0,7.37939677 C0,11.4514009 3.30739265,14.7587786 7.37939677,14.7587786 C11.4514009,14.7587786 14.7587786,11.451386 14.7587786,7.37938184 C14.7587786,3.30737772 11.451386,0 7.37938184,0 L7.37939677,0 Z M7.37940379,13.6733868 C3.9133964,13.6733868 1.0853991,10.8454039 1.0853991,7.37939655 C1.0853991,3.91338916 3.91338192,1.08539186 7.37940379,1.08539186 C10.8454257,1.08539186 13.6733795,3.91337468 13.6733795,7.37939655 C13.6733795,10.8454184 10.8454112,13.6733868 7.37940379,13.6733868 L7.37940379,13.6733868 Z" id="形状" fill-opacity="0.65" fill="#000000" fill-rule="nonzero"></path>
                <text id="全" font-family="FZLTZHK--GBK1-0, FZLanTingHei-DB-GBK" font-size="6" font-weight="normal" fill="#4E5969">
                    <tspan x="4.37938931" y="9.37938931">全</tspan>
                </text>
            </g>
        </g>
    </g>
</svg>