<?xml version="1.0" standalone="no"?><!DOCTYPE svg PUBLIC "-//W3C//DTD SVG 1.1//EN" "http://www.w3.org/Graphics/SVG/1.1/DTD/svg11.dtd"><svg t="1634815558826" class="icon" viewBox="0 0 1152 1024" version="1.1" xmlns="http://www.w3.org/2000/svg" p-id="3963" xmlns:xlink="http://www.w3.org/1999/xlink" width="72" height="64"><defs><style type="text/css"></style></defs><path d="M1132.992 563.264l-226.624 226.432a35.712 35.712 0 1 1-50.688-50.56l201.344-201.152-201.344-201.024a35.712 35.712 0 1 1 50.688-50.56l226.624 226.304a35.712 35.712 0 0 1 0 50.56zM390.016 1005.184a37.12 37.12 0 0 1-50.944 13.76 37.76 37.76 0 0 1-13.696-51.392l447.872-894.464a37.12 37.12 0 0 1 51.008-13.76 37.76 37.76 0 0 1 13.696 51.328L390.016 1005.184z m-82.368-215.488a35.904 35.904 0 0 1-50.688 0L30.272 563.2a35.712 35.712 0 0 1 0-50.56l226.688-226.368a35.84 35.84 0 0 1 50.688 50.56L106.304 538.048l201.344 201.088a35.712 35.712 0 0 1 0 50.56z" fill="#2C65FF" p-id="3964"></path></svg>