<!-- Generated by IcoMoon.io -->
<svg version="1.1" xmlns="http://www.w3.org/2000/svg" width="32" height="32" viewBox="0 0 32 32">
<title>yuechi1</title>
<path fill="#8a8a8a" d="M11.788 1.938c-5.284 0-9.569 4.285-9.569 9.569s4.285 9.569 9.569 9.569 9.569-4.281 9.569-9.565c0-5.289-4.285-9.574-9.569-9.574zM9.624 10.582c-0.681 0-1.234-0.552-1.234-1.234s0.552-1.234 1.234-1.234 1.234 0.552 1.234 1.234-0.548 1.234-1.234 1.234zM22.816 16.777c-0.304-0.304-0.81-0.226-1.008 0.157-0.354 0.69-0.948 1.675-1.689 2.292-0.621 0.52-1.247 0.985-1.712 1.321-0.419 0.304-0.525 0.879-0.239 1.312l0.304 0.456v2.099c0 0.773 0.626 1.399 1.399 1.399h2.034c0.718 0 1.303 0.585 1.303 1.303v1.915c0 0.829 0.686 1.496 1.514 1.468l4.179-0.12c0.842-0.023 1.51-0.713 1.51-1.556v-3.567c0-0.571-0.226-1.118-0.631-1.524l-6.964-6.955z"></path>
</svg>
