<svg width="20" height="20" viewBox="0 0 20 20" fill="none" xmlns="http://www.w3.org/2000/svg">
<path d="M9.94318 0C4.45224 0 0 4.45224 0 9.94318C0 15.4341 4.45224 19.8864 9.94318 19.8864C15.4341 19.8864 19.8864 15.4341 19.8864 9.94318C19.8864 4.45224 15.4341 0 9.94318 0ZM9.94318 4.97159C9.28844 4.97159 8.64924 4.91389 8.03001 4.80513C8.61151 2.47026 9.48597 1.2429 9.94318 1.2429C10.4004 1.2429 11.2749 2.47026 11.8564 4.80513C11.2371 4.91167 10.5979 4.97159 9.94318 4.97159ZM13.066 4.51882C12.7641 3.28258 12.3602 2.24165 11.8874 1.46928C13.299 1.79332 14.5796 2.46138 15.6383 3.38024C14.8548 3.86408 13.9893 4.24805 13.066 4.51882ZM6.8204 4.51882C5.89711 4.24805 5.03374 3.86186 4.25027 3.38024C5.30895 2.46138 6.58736 1.79554 7.99893 1.4715C7.52619 2.24166 7.12447 3.28258 6.8204 4.51882ZM13.6608 9.32173C13.6319 8.04554 13.5121 6.83816 13.319 5.73952C14.4842 5.40661 15.5673 4.91167 16.5328 4.27912C17.718 5.65518 18.4748 7.4019 18.6124 9.32173H13.6608ZM1.27397 9.32173C1.41158 7.40412 2.16619 5.6574 3.34917 4.28134C4.31463 4.91389 5.39995 5.40439 6.56738 5.7373C6.37429 6.83816 6.25444 8.04554 6.22559 9.32173H1.27397V9.32173ZM7.46848 9.32173C7.49734 8.08549 7.61053 6.98242 7.77699 6.0214C8.47834 6.14569 9.19966 6.21449 9.94318 6.21449C10.6845 6.21449 11.408 6.14791 12.1094 6.02362C12.2758 6.98464 12.3868 8.08771 12.4179 9.32173H7.46848ZM16.5328 15.6072C15.5673 14.9747 14.4842 14.4798 13.319 14.1468C13.5121 13.046 13.6319 11.8386 13.6608 10.5646H18.6124C18.4748 12.4845 17.718 14.2312 16.5328 15.6072V15.6072ZM7.77699 13.865C7.61053 12.9039 7.49956 11.8009 7.46848 10.5646H12.4157C12.3868 11.7987 12.2758 12.9017 12.1072 13.8627C11.408 13.7385 10.6845 13.6719 9.94318 13.6719C9.20188 13.6719 8.47834 13.7407 7.77699 13.865ZM3.35139 15.605C2.16841 14.229 1.41158 12.4822 1.27619 10.5646H6.22781C6.25666 11.8408 6.37651 13.0482 6.5696 14.1491C5.40217 14.482 4.31685 14.9725 3.35139 15.605ZM9.94318 18.6435C9.48597 18.6435 8.61151 17.4161 8.03001 15.0812C8.64924 14.9747 9.28844 14.9148 9.94318 14.9148C10.5979 14.9148 11.2371 14.9747 11.8564 15.0812C11.2749 17.4161 10.4004 18.6435 9.94318 18.6435ZM11.8874 18.4171C12.3602 17.6447 12.7641 16.6038 13.066 15.3675C13.9915 15.6383 14.8548 16.0223 15.6383 16.5039C14.5796 17.425 13.299 18.093 11.8874 18.4171V18.4171ZM7.99893 18.4171C6.58736 18.093 5.30895 17.4272 4.25027 16.5083C5.03152 16.0245 5.89489 15.6405 6.8204 15.3698C7.12447 16.6038 7.52619 17.6447 7.99893 18.4171Z" fill="white"/>
</svg>
