<?xml version="1.0" encoding="UTF-8"?>
<svg width="25px" height="19px" viewBox="0 0 25 19" version="1.1" xmlns="http://www.w3.org/2000/svg" xmlns:xlink="http://www.w3.org/1999/xlink">
    <title>language-中文</title>
    <g id="图标" stroke="none" stroke-width="1" fill="none" fill-rule="evenodd">
        <g id="ICON" transform="translate(-891.000000, -1494.000000)" fill="#4E5969" fill-rule="nonzero">
            <g id="language-中文" transform="translate(891.000000, 1494.000000)">
                <path d="M11.4285714,15.7142857 L2.85714285,15.7142857 C2.47826215,15.7142857 2.11489941,15.5637759 1.8469903,15.2958668 C1.57908119,15.0279577 1.42857142,14.664595 1.42857143,14.2857143 L1.42857143,2.85714285 C1.42857143,2.06816464 2.06816464,1.42857143 2.85714285,1.42857143 L14.2857143,1.42857143 C14.664595,1.42857142 15.0279577,1.57908119 15.2958668,1.8469903 C15.5637759,2.11489941 15.7142857,2.47826215 15.7142857,2.85714285 L15.7142857,8.68571428 C15.7143509,9.08015726 16.0341284,9.39988189 16.4285714,9.39988189 C16.8230144,9.39988189 17.1428571,9.08015726 17.1428571,8.68571428 L17.1428571,2.85714285 C17.1428571,2.09938145 16.8418376,1.37265598 16.3060194,0.836837759 C15.7702011,0.301019536 15.0434757,0 14.2857143,0 L2.85714285,0 C1.27918643,0 0,1.27918643 0,2.85714285 L0,14.2857143 C0,15.0434757 0.301019536,15.7702011 0.836837759,16.3060194 C1.37265598,16.8418376 2.09938145,17.1428571 2.85714285,17.1428571 L11.4285714,17.1428571 C11.8230144,17.1428571 12.142739,16.8230144 12.142739,16.4285714 C12.142739,16.0341284 11.8230144,15.7143509 11.4285714,15.7142857 Z M13.0714286,18.2142857 C12.9355127,18.0833242 12.858242,17.9030259 12.8571429,17.7142857 L12.8571429,12 C12.864743,11.6087022 13.1801308,11.2933144 13.5714286,11.2857143 L17.8571429,11.2857143 C18.251632,11.2857143 18.5714286,11.6055109 18.5714286,12 C18.5714286,12.3944891 18.251632,12.7142857 17.8571429,12.7142857 L14.2857143,12.7142857 L14.2857143,14.1428571 L17.8571429,14.1428571 C18.2515858,14.1429224 18.5713105,14.4626999 18.5713105,14.8571429 C18.5713105,15.2515858 18.2515858,15.5713633 17.8571429,15.5714286 L14.2857143,15.5714286 L14.2857143,17 L17.8571429,17 C18.2515858,17.0000652 18.5713105,17.3198427 18.5713105,17.7142857 C18.5713105,18.1087287 18.2515858,18.4285714 17.8571429,18.4285714 L13.5714286,18.4285714 C13.3826884,18.4274723 13.2023901,18.3502016 13.0714286,18.2142857 L13.0714286,18.2142857 Z M20,17.7571429 L20,14.3142857 C20,13.8571429 20.2428571,13.6 20.6714286,13.5857143 C20.8254177,13.5779616 20.976005,13.6327661 21.0889902,13.7376809 C21.2019754,13.8425957 21.267769,13.9887164 21.2714286,14.1428571 C21.5578406,13.7607554 22.0256245,13.5594995 22.5,13.6142857 C22.9613197,13.5783833 23.4166399,13.7369926 23.7558109,14.0517432 C24.0949818,14.3664939 24.2871092,14.808716 24.2857143,15.2714286 L24.2857143,17.7571429 C24.2953007,17.945677 24.2215345,18.1288959 24.0839859,18.2581916 C23.9464372,18.3874874 23.75901,18.4497903 23.5714286,18.4285714 C23.3849603,18.4449093 23.2003739,18.3809523 23.0639874,18.252749 C22.9276009,18.1245457 22.8523593,17.9442644 22.8571429,17.7571429 L22.8571429,15.5714286 C22.8571429,15.0142857 22.6857143,14.7 22.1428571,14.6571429 C21.6,14.6142857 21.4285714,14.9285714 21.4285714,15.5714286 L21.4285714,17.7571429 C21.433355,17.9442644 21.3581134,18.1245457 21.2217269,18.252749 C21.0853404,18.3809523 20.900754,18.4449093 20.7142857,18.4285714 C20.5267043,18.4497903 20.3392771,18.3874874 20.2017284,18.2581916 C20.0641797,18.1288959 19.9904136,17.945677 20,17.7571429 L20,17.7571429 Z M8.42857143,3 C8.82306054,3 9.14285715,3.31979661 9.14285715,3.71428572 L9.14285715,12.2857143 C9.14285715,12.6802034 8.82306054,13 8.42857143,13 C8.03408232,13 7.71428572,12.6802034 7.71428572,12.2857143 L7.71428572,3.71428572 C7.71428572,3.31979662 8.03408232,3 8.42857143,3 L8.42857143,3 Z M5.71428572,5.85714285 L11.1428571,5.85714285 C11.3701856,5.85714285 11.5882032,5.94744872 11.7489487,6.10819419 C11.9096941,6.26893966 12,6.4869573 12,6.71428572 L12,9.28571428 C12,9.5130427 11.9096941,9.73106034 11.7489487,9.89180581 C11.5882032,10.0525513 11.3701856,10.1428571 11.1428571,10.1428571 L5.71428572,10.1428571 C5.4869573,10.1428571 5.26893965,10.0525513 5.10819418,9.89180582 C4.94744871,9.73106035 4.85714285,9.5130427 4.85714285,9.28571428 L4.85714285,6.71428572 C4.85714285,6.4869573 4.94744871,6.26893965 5.10819418,6.10819418 C5.26893965,5.94744871 5.4869573,5.85714285 5.71428572,5.85714285 L5.71428572,5.85714285 Z M6.57142857,7.28571428 C6.49565243,7.28571428 6.42297988,7.31581623 6.36939805,7.36939805 C6.31581623,7.42297988 6.28571428,7.49565243 6.28571428,7.57142857 L6.28571428,8.42857143 C6.28571428,8.50434757 6.31581623,8.57702012 6.36939805,8.63060195 C6.42297988,8.68418377 6.49565243,8.71428572 6.57142857,8.71428572 L10.2857143,8.71428572 C10.3614904,8.71428572 10.434163,8.68418377 10.4877448,8.63060195 C10.5413266,8.57702012 10.5714286,8.50434757 10.5714286,8.42857143 L10.5714286,7.57142857 C10.5714286,7.49565243 10.5413266,7.42297988 10.4877448,7.36939805 C10.434163,7.31581623 10.3614904,7.28571428 10.2857143,7.28571428 L6.57142857,7.28571428 Z" id="形状"></path>
            </g>
        </g>
    </g>
</svg>