<?xml version="1.0" standalone="no"?>
<!--<!DOCTYPE svg PUBLIC "-//W3C//DTD SVG 1.1//EN" "http://www.w3.org/Graphics/SVG/1.1/DTD/svg11.dtd">-->
  <svg  class="icon" viewBox="0 0 1024 1024" version="1.1" xmlns="http://www.w3.org/2000/svg" xmlns:xlink="http://www.w3.org/1999/xlink" width="200" height="200">
    <defs>
<!--      <style type="text/css">@font-face { font-family: feedback-iconfont; src: url("//at.alicdn.com/t/font_1031158_1uhr8ri0pk5.eot?#iefix") format("embedded-opentype"), url("//at.alicdn.com/t/font_1031158_1uhr8ri0pk5.woff2") format("woff2"), url("//at.alicdn.com/t/font_1031158_1uhr8ri0pk5.woff") format("woff"), url("//at.alicdn.com/t/font_1031158_1uhr8ri0pk5.ttf") format("truetype"), url("//at.alicdn.com/t/font_1031158_1uhr8ri0pk5.svg#iconfont") format("svg"); }-->
<!--      </style>-->
    </defs>
    <path d="M864.654 864.2H150.756c-36.182 0-65.48-26.739-65.48-59.734v-65.593c0-15.929 6.258-31.175 16.953-41.927l82.205-103.88V398.963c0-88.576 31.744-170.78 89.315-231.254a303.16 303.16 0 0 1 94.208-67.015 40.562 40.562 0 0 0 21.675-21.902C406.926 32.881 453.177 0 507.62 0h0.227C562.29 0 608.54 32.882 625.892 78.848a40.562 40.562 0 0 0 21.617 21.902 303.104 303.104 0 0 1 94.095 66.958c57.628 60.473 89.315 142.678 89.315 231.254v194.105l82.261 103.879c10.639 10.752 16.953 25.941 16.953 41.927v65.65c0 32.995-29.297 59.733-65.479 59.733z m-0.74-125.327l-82.26-103.822a59.449 59.449 0 0 1-16.954-41.984V398.962c0-72.704-25.6-139.72-72.02-188.644a241.607 241.607 0 0 0-91.478-60.302c-18.546-6.827-33.735-21.618-37.149-40.164a54.215 54.215 0 0 0-2.332-8.704 56.036 56.036 0 0 0-40.96-34.986c-0.569-0.114-1.024 0-1.593-0.17v0.113a64.398 64.398 0 0 0-11.435-1.138 64.398 64.398 0 0 0-11.377 1.138v-0.114l-1.707 0.17a56.036 56.036 0 0 0-40.903 34.987 53.988 53.988 0 0 0-2.333 8.704c-3.413 18.546-18.602 33.337-37.148 40.164a241.607 241.607 0 0 0-91.477 60.302c-46.479 48.925-72.022 115.94-72.022 188.644v194.105c0 16.1-6.258 31.402-16.953 41.984l-82.261 103.822-0.626 64.967 356.807 0.341 356.807-0.341-0.625-64.967zM448.91 913.237c13.71 11.435 31.29 17.75 49.38 19.343 3.129 0.34 6.258 0.227 9.443 0.227 3.186 0 6.315 0.114 9.444-0.17 18.09-1.707 35.67-7.965 49.38-19.343 9.33-7.794 16.383-17.18 21.219-27.534l68.324 0.057c-6.94 27.42-22.642 52.395-45.568 71.566a158.436 158.436 0 0 1-91.364 35.499c-3.812 0.284-7.566 1.024-11.378 1.024h-0.114c-3.811 0-7.566-0.74-11.377-0.967a158.492 158.492 0 0 1-91.364-35.556 137.387 137.387 0 0 1-45.568-71.566h68.267c4.892 10.297 11.946 19.683 21.276 27.42z" p-id="19092" fill="#707070"/>
  </svg>
