<svg width="18" height="18" viewBox="0 0 18 18" fill="none" xmlns="http://www.w3.org/2000/svg">
<g clip-path="url(#clip0_1215_12487)">
<path d="M5.85 1.8C5.96935 1.8 6.08381 1.84741 6.1682 1.9318C6.25259 2.01619 6.3 2.13065 6.3 2.25V5.85C6.3 5.96935 6.25259 6.08381 6.1682 6.1682C6.08381 6.25259 5.96935 6.3 5.85 6.3H2.25C2.13065 6.3 2.01619 6.25259 1.9318 6.1682C1.84741 6.08381 1.8 5.96935 1.8 5.85V2.25C1.8 2.13065 1.84741 2.01619 1.9318 1.9318C2.01619 1.84741 2.13065 1.8 2.25 1.8H5.85ZM5.85 0H2.25C1.65326 0 1.08097 0.237053 0.65901 0.65901C0.237053 1.08097 0 1.65326 0 2.25L0 5.85C0 6.44674 0.237053 7.01903 0.65901 7.44099C1.08097 7.86295 1.65326 8.1 2.25 8.1H5.85C6.44674 8.1 7.01903 7.86295 7.44099 7.44099C7.86295 7.01903 8.1 6.44674 8.1 5.85V2.25C8.1 1.65326 7.86295 1.08097 7.44099 0.65901C7.01903 0.237053 6.44674 0 5.85 0ZM5.85 11.7C5.96935 11.7 6.08381 11.7474 6.1682 11.8318C6.25259 11.9162 6.3 12.0307 6.3 12.15V15.75C6.3 15.8693 6.25259 15.9838 6.1682 16.0682C6.08381 16.1526 5.96935 16.2 5.85 16.2H2.25C2.13065 16.2 2.01619 16.1526 1.9318 16.0682C1.84741 15.9838 1.8 15.8693 1.8 15.75V12.15C1.8 12.0307 1.84741 11.9162 1.9318 11.8318C2.01619 11.7474 2.13065 11.7 2.25 11.7H5.85ZM5.85 9.9H2.25C1.65326 9.9 1.08097 10.1371 0.65901 10.559C0.237053 10.981 0 11.5533 0 12.15L0 15.75C0 16.3467 0.237053 16.919 0.65901 17.341C1.08097 17.7629 1.65326 18 2.25 18H5.85C6.44674 18 7.01903 17.7629 7.44099 17.341C7.86295 16.919 8.1 16.3467 8.1 15.75V12.15C8.1 11.5533 7.86295 10.981 7.44099 10.559C7.01903 10.1371 6.44674 9.9 5.85 9.9Z" fill="#4E5969"/>
<path d="M10.8 1.50732H17.1C17.7 1.50732 18 1.80732 18 2.40732C18 3.00732 17.7 3.30732 17.1 3.30732H10.8C10.2 3.30732 9.90002 3.00732 9.90002 2.40732C9.90002 1.80732 10.2 1.50732 10.8 1.50732Z" fill="#4E5969"/>
<path d="M10.8 5.35059H17.1C17.7 5.35059 18 5.65059 18 6.25059C18 6.85059 17.7 7.15059 17.1 7.15059H10.8C10.2 7.15059 9.90002 6.85059 9.90002 6.25059C9.90002 5.65059 10.2 5.35059 10.8 5.35059Z" fill="#4E5969"/>
<path d="M10.8 10.8452H17.1C17.7 10.8452 18 11.1452 18 11.7452C18 12.3452 17.7 12.6452 17.1 12.6452H10.8C10.2 12.6452 9.90002 12.3452 9.90002 11.7452C9.90002 11.1452 10.2 10.8452 10.8 10.8452Z" fill="#4E5969"/>
<path d="M10.8 14.688H17.1C17.7 14.688 18 14.988 18 15.588C18 16.188 17.7 16.488 17.1 16.488H10.8C10.2 16.488 9.90002 16.188 9.90002 15.588C9.90002 14.988 10.2 14.688 10.8 14.688Z" fill="#4E5969"/>
</g>
<defs>
<clipPath id="clip0_1215_12487">
<rect width="18" height="18" fill="white"/>
</clipPath>
</defs>
</svg>
