<?xml version="1.0" encoding="UTF-8"?>
<svg width="11px" height="11px" viewBox="0 0 11 11" version="1.1" xmlns="http://www.w3.org/2000/svg" xmlns:xlink="http://www.w3.org/1999/xlink">
    <title>jiazai</title>
    <g id="40迭代" stroke="none" stroke-width="1" fill="none" fill-rule="evenodd" fill-opacity="0.298350087">
        <g id="任务管理-加载中" transform="translate(-373.000000, -383.000000)" fill="#000000" fill-rule="nonzero">
            <g id="编组-3" transform="translate(373.000000, 380.000000)">
                <g id="jiazai" transform="translate(0.000000, 3.000000)">
                    <path d="M8.04625598,2.39017177 C8.04625598,2.71384929 8.30864845,2.97624175 8.63232596,2.97624175 C8.95600347,2.97624175 9.21839594,2.71384929 9.21839594,2.39017177 C9.21839594,2.06649426 8.95600347,1.80410179 8.63232596,1.80410179 C8.30864845,1.80410179 8.04625598,2.06649426 8.04625598,2.39017177 L8.04625598,2.39017177 Z" id="路径"></path>
                    <path d="M9.13489347,5.55739952 C9.13486192,5.81586665 9.27273437,6.05471363 9.49656821,6.18395631 C9.72040206,6.31319898 9.99618584,6.31319898 10.2200197,6.18395631 C10.4438535,6.05471363 10.581726,5.81586665 10.5816944,5.55739952 C10.581726,5.29893238 10.4438535,5.0600854 10.2200197,4.93084273 C9.99618584,4.80160005 9.72040206,4.80160005 9.49656821,4.93084273 C9.27273437,5.0600854 9.13486192,5.29893238 9.13489347,5.55739952 Z" id="路径"></path>
                    <path d="M7.80817044,8.74049962 C7.80817044,9.21081819 8.18943898,9.59208672 8.65975755,9.59208672 C9.13007612,9.59208672 9.51134466,9.21081819 9.51134466,8.74049962 C9.51134466,8.43625684 9.34903309,8.15512491 9.08555111,8.00300352 C8.82206914,7.85088212 8.49744596,7.85088212 8.23396399,8.00300352 C7.97048201,8.15512491 7.80817044,8.43625684 7.80817044,8.74049962 L7.80817044,8.74049962 Z" id="路径"></path>
                    <path d="M4.49308814,10.0133946 C4.49305129,10.3658625 4.6810695,10.691572 4.98630949,10.8678166 C5.29154948,11.0440611 5.66763129,11.0440611 5.97287128,10.8678166 C6.27811127,10.691572 6.46612948,10.3658625 6.46609263,10.0133946 C6.46612948,9.66092674 6.27811127,9.33521723 5.97287128,9.15897266 C5.66763129,8.98272808 5.29154948,8.98272808 4.98630949,9.15897266 C4.6810695,9.33521723 4.49305129,9.66092674 4.49308814,10.0133946 L4.49308814,10.0133946 Z" id="路径"></path>
                    <path d="M1.24235794,8.69046715 C1.24235794,9.08303649 1.45179117,9.44578551 1.79176619,9.64207018 C2.1317412,9.83835485 2.55060769,9.83835485 2.89058271,9.64207018 C3.23055772,9.44578551 3.43999096,9.08303649 3.43999096,8.69046715 C3.43999096,8.08360755 2.94803405,7.59165064 2.34117445,7.59165064 C1.73431484,7.59165064 1.24235794,8.08360755 1.24235794,8.69046715 Z" id="路径"></path>
                    <path d="M4.33591717,1.16299611 C4.33591717,1.80530112 4.85660826,2.3259922 5.49891326,2.3259922 C6.14121827,2.3259922 6.66190935,1.80530112 6.66190935,1.16299611 C6.66190935,0.747497625 6.44024356,0.363561183 6.08041132,0.155811936 C5.72057907,-0.0519373119 5.27724746,-0.0519373119 4.91741521,0.155811936 C4.55758297,0.363561183 4.33591717,0.747497625 4.33591717,1.16299611 Z" id="路径"></path>
                    <path d="M1.17817836,2.41760338 C1.17817836,2.83310186 1.39984415,3.2170383 1.7596764,3.42478755 C2.11950864,3.63253679 2.56284025,3.63253679 2.9226725,3.42478755 C3.28250474,3.2170383 3.50417054,2.83310186 3.50417054,2.41760338 C3.50417054,1.77529837 2.98347945,1.25460729 2.34117445,1.25460729 C1.69886944,1.25460729 1.17817836,1.77529837 1.17817836,2.41760338 L1.17817836,2.41760338 Z" id="路径"></path>
                    <path d="M0,5.52082406 C0,5.91672181 0.211208931,6.28254643 0.554066446,6.48049531 C0.896923961,6.67844419 1.31934184,6.67844419 1.66219936,6.48049531 C2.00505687,6.28254643 2.2162658,5.91672181 2.2162658,5.52082406 C2.2162658,4.90881915 1.7201378,4.41269116 1.1081329,4.41269116 C0.496127999,4.41269116 0,4.90881915 0,5.52082406 L0,5.52082406 Z" id="路径"></path>
                </g>
            </g>
        </g>
    </g>
</svg>