<svg width="14" height="14" viewBox="0 0 14 14" fill="none" xmlns="http://www.w3.org/2000/svg">
<path d="M10.6925 12.3277C10.8414 12.5791 10.7581 12.9152 10.4971 13.0573C10.2416 13.2062 9.91648 13.1188 9.77165 12.8619C9.6159 12.6105 9.70607 12.2812 9.95883 12.1323C10.2239 11.9848 10.5436 12.0749 10.6925 12.3277ZM7.54329 13.4658C7.54329 13.7568 7.30283 14 7.00089 14C6.70988 14 6.46668 13.7623 6.46668 13.4658V13.0914C6.46668 12.7936 6.71124 12.5559 7.00089 12.5559C7.29873 12.5559 7.54329 12.7936 7.54329 13.0914V13.4658ZM4.24652 12.8619C4.09487 13.1256 3.7656 13.2089 3.51284 13.06C3.25326 12.9138 3.16172 12.5873 3.31474 12.3263L3.71232 11.6309C3.86534 11.3754 4.19324 11.2866 4.45283 11.4328C4.70422 11.5817 4.79712 11.9137 4.6441 12.1665L4.24652 12.8619ZM1.68753 10.7019C1.42794 10.8467 1.09594 10.7592 0.953852 10.5038C0.802197 10.2524 0.888271 9.91899 1.14513 9.77007L2.21354 9.15116C2.46903 9.00907 2.80103 9.08968 2.94722 9.34927C3.09204 9.60066 3.00323 9.93402 2.74911 10.0829L1.68753 10.7019ZM0.550807 7.54445C0.252963 7.54445 0.0166016 7.30398 0.0166016 7.01024C0.0166016 6.7124 0.252963 6.47194 0.550807 6.47194H2.2149C2.51275 6.47194 2.74911 6.7124 2.74911 7.00614C2.74911 7.30398 2.51275 7.54445 2.2149 7.54445H0.550807ZM1.14649 4.24221C0.886905 4.09739 0.802197 3.76949 0.955218 3.51263C1.09731 3.25304 1.42794 3.1656 1.6889 3.31452L3.49782 4.36517C3.7533 4.51136 3.83801 4.8379 3.69592 5.09065C3.54427 5.35024 3.215 5.43358 2.96361 5.28876L1.14649 4.24221ZM3.31474 1.68458L4.57442 3.87196C4.72744 4.12744 5.05534 4.21898 5.31083 4.06733C5.56632 3.92251 5.65103 3.59051 5.50211 3.33365L4.23696 1.15038C4.09214 0.897621 3.76424 0.806082 3.51148 0.955004C3.25189 1.10393 3.16855 1.43319 3.31474 1.68458ZM6.46805 0.554692C6.46805 0.26368 6.71261 0.0163879 7.00226 0.0163879C7.3001 0.0163879 7.54466 0.258215 7.54466 0.554692V3.07406C7.54466 3.37191 7.3042 3.61237 7.00226 3.61647C6.71124 3.61647 6.46805 3.3801 6.46805 3.07406V0.554692ZM9.76482 1.15038C9.91784 0.89079 10.2416 0.806083 10.4985 0.952272C10.7581 1.09709 10.8496 1.425 10.6966 1.68595L9.43419 3.87332C9.2921 4.12881 8.956 4.21898 8.70051 4.07143C8.44502 3.92251 8.36031 3.59051 8.50514 3.33365L9.76482 1.15038ZM12.3306 3.31452L10.1405 4.57694C9.88505 4.72177 9.79624 5.04967 9.94243 5.31062C10.0941 5.56201 10.4234 5.64672 10.6761 5.50599L12.8676 4.24358C13.119 4.09875 13.2119 3.77085 13.0589 3.514C12.9113 3.25441 12.582 3.1615 12.3306 3.31452ZM13.4564 6.47194C13.757 6.47194 13.9947 6.7124 13.9906 7.01024C13.9906 7.30398 13.7584 7.54445 13.4564 7.54445H10.9343C10.6433 7.54445 10.3988 7.30398 10.3988 7.00614C10.3988 6.7124 10.6433 6.47194 10.9343 6.47194H13.4564Z" fill="#2C65FF"/>
</svg>
