<?xml version="1.0" standalone="no"?><!DOCTYPE svg PUBLIC "-//W3C//DTD SVG 1.1//EN" "http://www.w3.org/Graphics/SVG/1.1/DTD/svg11.dtd"><svg t="1631179454222" class="icon" viewBox="0 0 1024 1024" version="1.1" xmlns="http://www.w3.org/2000/svg" p-id="13961" xmlns:xlink="http://www.w3.org/1999/xlink" width="200" height="200"><defs><style type="text/css"></style></defs><path d="M727.58916779 661.44635221l205.10340664 205.10340779a42.47703666 42.47703666 0 0 1-60.07466666 60.05039445l-204.39950222-204.37523A362.55971555 362.55971555 0 0 1 439.18222222 803.27111111c-201.07415666 0-364.08888889-163.01473223-364.08888889-364.08888889 0-201.07415666 163.01473223-364.08888889 364.08888889-364.08888889 201.07415666 0 364.08888889 163.01473223 364.08888889 364.08888889 0 83.69189888-28.22902557 160.78165333-75.68194332 222.26412999zM439.18222222 730.45333333c160.85447111 0 291.27111111-130.41664 291.27111111-291.27111111S600.03669333 147.91111111 439.18222222 147.91111111 147.91111111 278.32775111 147.91111111 439.18222222s130.41664 291.27111111 291.27111111 291.27111111z" p-id="13962"></path></svg>
