<svg width="16" height="16" viewBox="0 0 16 16" fill="none" xmlns="http://www.w3.org/2000/svg">
<path d="M8 15.1666C7.9 15.1666 7.83334 15.1333 7.73334 15.1L1.96667 11.7666C1.83334 11.6666 1.73334 11.5 1.73334 11.3333V4.66662C1.73334 4.49995 1.83334 4.33328 2 4.23328L7.76667 0.899951C7.93334 0.799951 8.1 0.799951 8.26667 0.899951L14.0333 4.23328C14.2 4.33328 14.3 4.49995 14.3 4.66662V11.3333C14.3 11.5 14.2 11.6666 14.0333 11.7666L8.26667 15.1C8.16667 15.1333 8.1 15.1666 8 15.1666ZM2.73334 11.0333L8 14.1L13.2667 11.0666V4.96662L8 1.89995L2.73334 4.96662V11.0333Z" fill="#1D2129"/>
<path d="M11.4667 10.5001C11.3667 10.5001 11.3 10.4667 11.2333 10.4334L8 8.56675L4.8 10.4334C4.56667 10.5667 4.26667 10.5001 4.13334 10.2667C4 10.0334 4.06667 9.73341 4.3 9.60008L7.5 7.73341V3.66675C7.5 3.40008 7.73334 3.16675 8 3.16675C8.26667 3.16675 8.5 3.40008 8.5 3.66675V7.70008L11.7 9.56675C11.8667 9.66675 11.9667 9.83341 11.9667 10.0001C11.9667 10.1001 11.9333 10.1667 11.9 10.2334C11.8 10.4001 11.6333 10.5001 11.4667 10.5001ZM8 12.8334C7.9 12.8334 7.83334 12.8001 7.73334 12.7667L6.8 12.2334C6.56667 12.1001 6.46667 11.8001 6.63334 11.5667C6.8 11.3334 7.06667 11.2334 7.3 11.4001L8 11.8001L8.7 11.4001C8.93334 11.2667 9.23334 11.3334 9.36667 11.5667C9.5 11.8001 9.43334 12.1001 9.2 12.2334L8.26667 12.7667C8.16667 12.8001 8.1 12.8334 8 12.8334ZM11.7667 7.40008C11.5 7.40008 11.2667 7.16675 11.2667 6.90008V6.10008L10.5667 5.70008C10.3333 5.56675 10.2333 5.26675 10.4 5.03341C10.5667 4.80008 10.8333 4.70008 11.0667 4.86675L12 5.40008C12.1667 5.50008 12.2667 5.66675 12.2667 5.83341V6.90008C12.2667 7.20008 12.0333 7.40008 11.7667 7.40008ZM4.23334 7.40008C3.96667 7.40008 3.73334 7.16675 3.73334 6.90008V5.83341C3.73334 5.66675 3.83334 5.50008 4 5.40008L4.93334 4.86675C5.16667 4.73341 5.46667 4.80008 5.6 5.03341C5.73334 5.26675 5.66667 5.56675 5.43334 5.70008L4.73334 6.10008V6.90008C4.73334 7.20008 4.53334 7.40008 4.23334 7.40008Z" fill="#1D2129"/>
</svg>
