<?xml version="1.0" standalone="no"?><!DOCTYPE svg PUBLIC "-//W3C//DTD SVG 1.1//EN" "http://www.w3.org/Graphics/SVG/1.1/DTD/svg11.dtd"><svg t="1650279526982" class="icon" viewBox="0 0 1365 1024" version="1.1" xmlns="http://www.w3.org/2000/svg" p-id="2926" xmlns:xlink="http://www.w3.org/1999/xlink" width="266.6015625" height="200"><defs><style type="text/css"></style></defs><path d="M1267.825778 0c25.827556 0 50.631111 9.784889 68.949333 27.306667A91.022222 91.022222 0 0 1 1365.333333 93.070222v837.859556c0 51.427556-43.690667 93.070222-97.507555 93.070222H97.507556C43.690667 1024 0 982.357333 0 930.929778V93.070222C0 41.642667 43.690667 0 97.507556 0h1170.318222zM1137.777778 585.159111a74.524444 74.524444 0 0 0-75.889778 73.159111c0 40.391111 34.019556 73.159111 75.889778 73.159111a74.524444 74.524444 0 0 0 75.889778-73.159111 74.524444 74.524444 0 0 0-75.889778-73.159111zM982.812444 300.259556l-7.168 5.006222-267.605333 232.448-166.570667-144.611556-7.054222-5.006222a57.002667 57.002667 0 0 0-57.457778 0l-7.054222 5.006222L166.456889 656.497778l-5.802667 6.144a39.253333 39.253333 0 0 0 0 49.834666l5.688889 6.144 7.168 5.006223a57.002667 57.002667 0 0 0 57.457778 0l7.054222-5.006223 267.719111-232.448 166.456889 144.725334 7.054222 5.006222a57.002667 57.002667 0 0 0 57.457778 0l7.168-5.006222 303.445333-263.509334 5.688889-6.144a39.708444 39.708444 0 0 0-5.916444-55.751111 56.433778 56.433778 0 0 0-64.284445-5.233777z" fill="#4E5969" p-id="2927"></path></svg>