<?xml version="1.0" standalone="no"?><!DOCTYPE svg PUBLIC "-//W3C//DTD SVG 1.1//EN" "http://www.w3.org/Graphics/SVG/1.1/DTD/svg11.dtd"><svg t="1631534315590" class="icon" viewBox="0 0 1024 1024" version="1.1" xmlns="http://www.w3.org/2000/svg" p-id="3758" xmlns:xlink="http://www.w3.org/1999/xlink" width="64" height="64"><defs><style type="text/css"></style></defs><path d="M973.458286 1017.197714a21.942857 21.942857 0 0 1 1.170285 6.802286h-67.218285L511.561143 687.250286 115.785143 1024h-67.291429c0.073143-2.56 0.438857-5.046857 1.389715-7.460571A44.909714 44.909714 0 0 1 36.571429 985.380571V270.994286c0-27.209143 25.819429-49.298286 57.636571-49.298286h835.584c31.817143 0 57.636571 22.089143 57.636571 49.298286v714.386285a45.056 45.056 0 0 1-13.970285 31.817143z m-43.666286-721.554285c0-13.604571-12.873143-24.649143-28.818286-24.649143H123.026286c-15.945143 0-28.818286 10.971429-28.818286 24.649143v679.350857l397.604571-338.285715a31.597714 31.597714 0 0 1 39.570286 0l398.409143 338.944V295.643429z m0-123.172572H94.208C62.390857 172.470857 36.571429 150.381714 36.571429 123.172571V49.298286C36.571429 21.942857 62.390857 0 94.208 0h835.584c31.817143 0 57.636571 22.016 57.636571 49.298286v73.874285c0 27.209143-25.819429 49.298286-57.636571 49.298286z m0-98.596571c0-13.604571-12.873143-24.576-28.818286-24.576H123.026286c-15.945143 0-28.818286 10.971429-28.818286 24.576v24.649143c0 13.604571 12.873143 24.649143 28.818286 24.649142h777.947428c15.945143 0 28.818286-10.971429 28.818286-24.649142V73.874286z" fill="#000000" fill-opacity=".6" p-id="3759"></path></svg>