<svg width="12" height="12" viewBox="0 0 12 12" fill="none" xmlns="http://www.w3.org/2000/svg">
<path fill-rule="evenodd" clip-rule="evenodd" d="M9.46125 2.91474C9.46125 1.30497 7.9116 0 6 0C4.0884 0 2.53875 1.30497 2.53875 2.91474V4.25684C2.53875 5.86661 4.0884 7.17158 6 7.17158C7.9116 7.17158 9.46125 5.86661 9.46125 4.25684V2.91474ZM12 9.49326C12 8.20547 11.0573 7.35411 9.6285 6.89305C9.38618 6.81485 9.11182 6.86577 8.931 7.02253C8.871 7.07432 8.8185 7.11726 8.7735 7.15137C8.01212 7.72794 7.02395 8.04635 6 8.04505C5.0076 8.04621 4.04776 7.74697 3.2955 7.20189C3.2325 7.15642 3.15825 7.09642 3.072 7.02189C2.89022 6.86471 2.61474 6.81379 2.3715 6.89242C0.94275 7.35347 0 8.20421 0 9.49263V10.8341C0 11.478 0.619862 12 1.3845 12H10.6155C11.3798 12 12 11.4783 12 10.8341V9.49326Z" fill="#4E5969"/>
</svg>
