<svg width="17" height="17" viewBox="0 0 17 17" fill="none" xmlns="http://www.w3.org/2000/svg">
<path d="M16.5847 0.0307617H0.416214C0.185235 0.0307617 0.03125 0.184747 0.03125 0.415725V16.5842C0.03125 16.8152 0.185235 16.9692 0.416214 16.9692H16.5847C16.8157 16.9692 16.9697 16.8152 16.9697 16.5842V0.415725C16.9697 0.184747 16.8157 0.0307617 16.5847 0.0307617ZM16.1997 16.1992H0.801178V11.5797H16.1997V16.1992ZM16.1997 10.8097H0.801178V6.19018H16.1997V10.8097ZM16.1997 5.42026H0.801178V0.800689H16.1997V5.42026ZM4.65082 13.1195H3.88089V14.6594H4.65082V13.1195ZM3.11096 13.1195H2.34103V14.6594H3.11096V13.1195ZM15.0448 13.5045H11.9651V14.2744H15.0448V13.5045ZM4.65082 7.73004H3.88089V9.26989H4.65082V7.73004ZM3.11096 7.73004H2.34103V9.26989H3.11096V7.73004ZM15.0448 8.115H11.9651V8.88493H15.0448V8.115ZM4.65082 2.34054H3.88089V3.8804H4.65082V2.34054ZM3.11096 2.34054H2.34103V3.8804H3.11096V2.34054ZM15.0448 2.72551H11.9651V3.49544H15.0448V2.72551Z" fill="#2C65FF"/>
</svg>
