<svg width="10" height="12" viewBox="0 0 10 12" fill="none" xmlns="http://www.w3.org/2000/svg">
<path d="M8.58035 0.3974H7.17908V0.882407C7.17908 1.18046 6.93658 1.4216 6.6364 1.4216H3.37639C3.07621 1.4216 2.83371 1.18046 2.83371 0.882407V0.3974H1.43244C0.662985 0.3974 0.0403442 1.01653 0.0403442 1.77926V10.0515C0.0403442 10.8142 0.664296 11.4333 1.43244 11.4333H8.57904C9.34849 11.4333 9.97113 10.8142 9.97113 10.0515V1.77926C9.97244 1.01653 9.34849 0.3974 8.58035 0.3974ZM8.21987 8.42169H2.07474C1.88074 8.42169 1.72344 8.2659 1.72344 8.07352C1.72344 7.88114 1.88074 7.72534 2.07474 7.72534H8.22118C8.41519 7.72534 8.57248 7.88114 8.57248 8.07352C8.57248 8.2659 8.41388 8.42169 8.21987 8.42169ZM8.21987 6.13756H2.07474C1.88074 6.13756 1.72344 5.98176 1.72344 5.78938C1.72344 5.597 1.88074 5.4412 2.07474 5.4412H8.22118C8.41519 5.4412 8.57248 5.597 8.57248 5.78938C8.57248 5.98176 8.41388 6.13756 8.21987 6.13756ZM8.21987 3.85341H2.07474C1.88074 3.85341 1.72344 3.69762 1.72344 3.50524C1.72344 3.31286 1.88074 3.15706 2.07474 3.15706H8.22118C8.41519 3.15706 8.57248 3.31286 8.57248 3.50524C8.57248 3.69762 8.41388 3.85341 8.21987 3.85341Z" fill="#4E5969"/>
</svg>
