<?xml version="1.0" standalone="no"?><!DOCTYPE svg PUBLIC "-//W3C//DTD SVG 1.1//EN" "http://www.w3.org/Graphics/SVG/1.1/DTD/svg11.dtd"><svg t="1631534290457" class="icon" viewBox="0 0 1024 1024" version="1.1" xmlns="http://www.w3.org/2000/svg" p-id="3213" xmlns:xlink="http://www.w3.org/1999/xlink" width="64" height="64"><defs><style type="text/css"></style></defs><path d="M930.65703 1023.998425h-289.870324c-51.514998 0-93.262626-65.693437-93.262625-117.208435V641.495628c0-51.514998 41.747628-93.341395 93.341395-93.341394h289.870323c51.514998 0 93.262626 41.747628 93.262626 93.341394v289.082633A93.341395 93.341395 0 0 1 930.65703 1023.998425z m45.371007-379.115725a47.576542 47.576542 0 0 0-47.576542-47.655311H642.755934a47.576542 47.576542 0 0 0-47.576542 47.655311v285.931868c0 26.308883 21.26766 47.73408 47.576542 47.73408h285.695561a47.655311 47.655311 0 0 0 47.576542-47.73408v-285.931868z m-45.371007-168.95974h-289.870324c-51.514998 0-93.262626-65.693437-93.262625-117.287204V93.420164A93.341395 93.341395 0 0 1 640.865476 0h289.870323A93.341395 93.341395 0 0 1 1023.998425 93.420164v289.082632c0 51.593767-41.747628 93.420164-93.341395 93.420164z m45.371007-379.115724a47.576542 47.576542 0 0 0-47.576542-47.655312H642.755934a47.576542 47.576542 0 0 0-47.576542 47.655312v285.931867a47.576542 47.576542 0 0 0 47.576542 47.655312h285.695561a47.576542 47.576542 0 0 0 47.576542-47.655312v-285.931867zM383.132949 1023.998425H93.341395C41.747628 1023.998425 0 958.304987 0 906.78999V641.495628C0 589.980631 41.747628 548.233003 93.341395 548.233003h289.870323c51.514998 0 93.262626 41.747628 93.262626 93.341395v289.082632c0 51.593767-41.747628 93.420164-93.341395 93.420164z m45.371007-379.115725a47.576542 47.576542 0 0 0-47.655311-47.655311H95.310623a47.655311 47.655311 0 0 0-47.655312 47.655311v285.931868c0 26.308883 21.425198 47.73408 47.655312 47.73408h285.616791a47.73408 47.73408 0 0 0 47.655311-47.73408v-285.931868z m-45.371007-168.95974H93.341395C41.747628 475.92296 0 410.229523 0 358.635756V93.420164A93.341395 93.341395 0 0 1 93.341395 0h289.870323c51.514998 0 93.262626 41.826397 93.262626 93.420164v289.082632c0 51.593767-41.747628 93.420164-93.341395 93.420164z m45.371007-379.115724a47.576542 47.576542 0 0 0-47.655311-47.655312H95.310623a47.655311 47.655311 0 0 0-47.655312 47.655312v285.931867c0 26.308883 21.425198 47.655311 47.655312 47.655312h285.616791a47.576542 47.576542 0 0 0 47.655311-47.655312v-285.931867z" fill="#000000" fill-opacity=".6" p-id="3214"></path></svg>