<?xml version="1.0" encoding="UTF-8"?>
<svg viewBox="0 0 1024 1024" width="24px" height="24px" version="1.1" xmlns="http://www.w3.org/2000/svg" xmlns:xlink="http://www.w3.org/1999/xlink"><path d="M128 96h512a64 64 0 0 1 64 64v64a64 64 0 0 1-64 64H128a64 64 0 0 1-64-64V160a64 64 0 0 1 64-64z m32 64a32 32 0 1 0 0 64h448a32 32 0 0 0 0-64H160z m224 576h512a64 64 0 0 1 64 64v64a64 64 0 0 1-64 64H384a64 64 0 0 1-64-64v-64a64 64 0 0 1 64-64z m32 64a32 32 0 0 0 0 64h448a32 32 0 0 0 0-64H416z m-32-384h512a64 64 0 0 1 64 64v64a64 64 0 0 1-64 64H384a64 64 0 0 1-64-64v-64a64 64 0 0 1 64-64z m32 64a32 32 0 0 0 0 64h448a32 32 0 0 0 0-64H416z"></path></svg>
