<svg width="20" height="20" viewBox="0 0 20 20" fill="none" xmlns="http://www.w3.org/2000/svg">
<g id="Frame" clip-path="url(#clip0_13696_2463)">
<path id="Vector" d="M9.90475 0.750912C9.92619 0.887322 9.99036 1.01341 10.088 1.11103C10.1857 1.20865 10.3118 1.27276 10.4482 1.29413C12.4824 1.71517 14.3489 2.72218 15.8177 4.19104C17.2865 5.65991 18.2935 7.52644 18.7144 9.56059C18.744 9.72923 18.8393 9.87923 18.9795 9.97758C19.0489 10.0263 19.1272 10.0608 19.2099 10.0793C19.2927 10.0977 19.3783 10.0996 19.4618 10.085C19.5453 10.0704 19.6251 10.0394 19.6966 9.99396C19.7682 9.94848 19.83 9.88936 19.8787 9.81996C19.9274 9.75057 19.962 9.67226 19.9804 9.58951C19.9989 9.50676 20.0008 9.42119 19.9862 9.33769C19.5152 7.04274 18.3819 4.93619 16.7263 3.2786C15.0707 1.62102 12.9655 0.485116 10.6711 0.0114011C10.5687 -0.00800778 10.4631 -0.00257639 10.3631 0.02724C10.2632 0.0570565 10.1719 0.110389 10.0969 0.182768C10.0218 0.255147 9.96519 0.344463 9.93177 0.443231C9.89834 0.541998 9.88908 0.647339 9.90475 0.750424V0.750912Z" fill="#3B47E5"/>
<path id="Vector_2" d="M10.2906 3.5279C10.3057 3.65224 10.3562 3.76961 10.4362 3.86598C10.5162 3.96235 10.6223 4.03365 10.7417 4.07137C11.9522 4.46862 13.0528 5.14407 13.9551 6.04352C14.8574 6.94297 15.5363 8.04138 15.9374 9.25063C15.9931 9.41145 16.109 9.54436 16.2608 9.62135C16.4126 9.69834 16.5884 9.7134 16.751 9.66336C16.9137 9.61331 17.0506 9.50207 17.1329 9.35307C17.2151 9.20408 17.2363 9.02896 17.192 8.86464C16.7285 7.45089 15.9376 6.16661 14.8838 5.11644C13.8299 4.06626 12.5429 3.27988 11.1275 2.82135C11.0233 2.7896 10.9128 2.78445 10.8061 2.80638C10.6995 2.8283 10.6 2.87659 10.5167 2.94685C10.4335 3.01711 10.3692 3.1071 10.3297 3.2086C10.2902 3.31009 10.2767 3.41987 10.2906 3.5279ZM10.7037 6.53331C10.717 6.63094 10.7523 6.72427 10.8069 6.8063C10.8615 6.88833 10.9339 6.95693 11.0188 7.00695C11.8208 7.48982 12.4925 8.16153 12.9754 8.96352C13.0187 9.03753 13.0762 9.10226 13.1446 9.15398C13.213 9.2057 13.2909 9.24339 13.3739 9.26489C13.4569 9.28638 13.5433 9.29126 13.6282 9.27925C13.7131 9.26723 13.7948 9.23855 13.8686 9.19486C13.9424 9.15116 14.0068 9.09332 14.0581 9.02465C14.1095 8.95598 14.1467 8.87784 14.1678 8.79472C14.1888 8.7116 14.1932 8.62514 14.1808 8.54031C14.1683 8.45548 14.1391 8.37396 14.0951 8.30042C13.5023 7.30917 12.6734 6.48012 11.6822 5.88731C11.5769 5.82518 11.4562 5.7939 11.334 5.79703C11.2118 5.80015 11.0929 5.83756 10.9909 5.90498C10.889 5.9724 10.808 6.06713 10.7572 6.17835C10.7065 6.28958 10.688 6.41282 10.7039 6.53404L10.7037 6.53331ZM19.0343 17.1389C19.1564 16.7361 19.2418 16.4431 19.2863 16.1174C19.3336 15.7695 19.0609 15.4531 18.7633 15.2666L15.3941 12.9514C14.9388 12.6384 14.3883 12.4947 13.8381 12.5454C13.2879 12.596 12.7729 12.8378 12.3824 13.2287C11.9588 13.6505 11.3918 13.8972 10.7945 13.9193C10.1971 13.9415 9.61333 13.7376 9.15969 13.3483C8.70395 12.9733 8.27027 12.5722 7.86084 12.1471C7.43766 11.7087 7.02465 11.2594 6.62181 10.7995C6.2425 10.3584 6.04356 9.79053 6.06475 9.20921C6.08593 8.62788 6.32567 8.07595 6.73607 7.6637L6.77416 7.62561C7.16899 7.23589 7.41457 6.71999 7.46811 6.16781C7.52164 5.61562 7.37974 5.06215 7.06713 4.60384L5.27976 2.03887C5.02385 1.67472 4.66819 1.39226 4.25555 1.22547C3.84291 1.05867 3.39087 1.01464 2.9538 1.09867C2.25975 1.23166 1.62266 1.5729 1.12736 2.07696C-1.3507 4.53353 0.404453 10.3046 5.05124 14.9516C9.69802 19.5987 15.4698 21.3538 17.9371 18.8755C18.445 18.3818 18.8983 17.8342 19.0343 17.1392V17.1389Z" fill="#3B47E5"/>
</g>
<defs>
<clipPath id="clip0_13696_2463">
<rect width="20" height="20" fill="white"/>
</clipPath>
</defs>
</svg>
