<!-- Generated by IcoMoon.io -->
<svg version="1.1" xmlns="http://www.w3.org/2000/svg" width="32" height="32" viewBox="0 0 32 32">
<title>plus-circle</title>
<path d="M21.75 15h-4.75v-4.75c0-0.137-0.113-0.25-0.25-0.25h-1.5c-0.137 0-0.25 0.113-0.25 0.25v4.75h-4.75c-0.137 0-0.25 0.113-0.25 0.25v1.5c0 0.137 0.113 0.25 0.25 0.25h4.75v4.75c0 0.137 0.113 0.25 0.25 0.25h1.5c0.137 0 0.25-0.113 0.25-0.25v-4.75h4.75c0.137 0 0.25-0.113 0.25-0.25v-1.5c0-0.137-0.113-0.25-0.25-0.25zM16 2c-7.731 0-14 6.269-14 14s6.269 14 14 14 14-6.269 14-14-6.269-14-14-14zM16 27.625c-6.419 0-11.625-5.206-11.625-11.625s5.206-11.625 11.625-11.625 11.625 5.206 11.625 11.625-5.206 11.625-11.625 11.625z"></path>
</svg>
