
<svg width="14" height="14" viewBox="0 0 14 14" fill="none" xmlns="http://www.w3.org/2000/svg">
  <path d="M4.8125 6.5625H9.1875C9.30353 6.5625 9.41481 6.60859 9.49686 6.69064C9.57891 6.77269 9.625 6.88397 9.625 7C9.625 7.11603 9.57891 7.22731 9.49686 7.30936C9.41481 7.39141 9.30353 7.4375 9.1875 7.4375H4.8125C4.69647 7.4375 4.58519 7.39141 4.50314 7.30936C4.42109 7.22731 4.375 7.11603 4.375 7C4.375 6.88397 4.42109 6.77269 4.50314 6.69064C4.58519 6.60859 4.69647 6.5625 4.8125 6.5625Z" fill="#535F72"/>
  <path d="M6.5625 9.1875V4.8125C6.5625 4.69647 6.60859 4.58519 6.69064 4.50314C6.77269 4.42109 6.88397 4.375 7 4.375C7.11603 4.375 7.22731 4.42109 7.30936 4.50314C7.39141 4.58519 7.4375 4.69647 7.4375 4.8125V9.1875C7.4375 9.30353 7.39141 9.41481 7.30936 9.49686C7.22731 9.57891 7.11603 9.625 7 9.625C6.88397 9.625 6.77269 9.57891 6.69064 9.49686C6.60859 9.41481 6.5625 9.30353 6.5625 9.1875Z" fill="#535F72"/>
  <path d="M7 12.25C7.68944 12.25 8.37213 12.1142 9.00909 11.8504C9.64605 11.5865 10.2248 11.1998 10.7123 10.7123C11.1998 10.2248 11.5865 9.64605 11.8504 9.00909C12.1142 8.37213 12.25 7.68944 12.25 7C12.25 6.31056 12.1142 5.62787 11.8504 4.99091C11.5865 4.35395 11.1998 3.7752 10.7123 3.28769C10.2248 2.80018 9.64605 2.41347 9.00909 2.14963C8.37213 1.8858 7.68944 1.75 7 1.75C5.60761 1.75 4.27226 2.30312 3.28769 3.28769C2.30312 4.27226 1.75 5.60761 1.75 7C1.75 8.39239 2.30312 9.72774 3.28769 10.7123C4.27226 11.6969 5.60761 12.25 7 12.25ZM7 13.125C5.37555 13.125 3.81763 12.4797 2.66897 11.331C1.52031 10.1824 0.875 8.62445 0.875 7C0.875 5.37555 1.52031 3.81763 2.66897 2.66897C3.81763 1.52031 5.37555 0.875 7 0.875C8.62445 0.875 10.1824 1.52031 11.331 2.66897C12.4797 3.81763 13.125 5.37555 13.125 7C13.125 8.62445 12.4797 10.1824 11.331 11.331C10.1824 12.4797 8.62445 13.125 7 13.125Z" fill="#535F72"/>
</svg>
