<?xml version="1.0" encoding="UTF-8"?><svg version="1.1" width="160px" height="160px" viewBox="0 0 160.0 160.0" xmlns="http://www.w3.org/2000/svg" xmlns:xlink="http://www.w3.org/1999/xlink"><defs><clipPath id="i0"><path d="M33.3333332,0 C37.9166666,0 41.6666666,3.7499998 41.6666666,8.3333332 L41.6666666,32.9166666 L54.7684341,32.9164769 C55.4807692,32.9142011 55.8653847,32.8846153 56.25,32.5 L72.0833332,16.6666666 C75,14.1666666 78.75,12.5 82.5,12.5 L120.833333,12.5 L120.833333,8.3333332 C120.833333,3.75 124.583333,0 129.166667,0 L150,0 C154.583333,0 158.333333,3.7499998 158.333333,8.3333332 L158.333333,29.1666666 C158.333333,33.75 154.583333,37.5 150,37.5 L129.166667,37.5 C124.583333,37.5 120.833333,33.7499998 120.833333,29.5833332 L120.833333,25.4166666 L82.7315657,25.4168563 C82.0192308,25.4191321 81.6346153,25.4487179 81.25,25.8333332 L65.4166666,41.6666666 C62.5,44.1666666 58.75,45.8333332 55,45.8333332 L41.6666666,45.8333332 L41.6666666,70.8333332 L120.833333,70.8333332 L120.833333,66.6666666 C120.833333,62.0833332 124.583333,58.3333332 129.166667,58.3333332 L150,58.3333332 C154.583333,58.3333332 158.333333,62.0833332 158.333333,66.6666666 L158.333333,87.5 C158.333333,92.0833332 154.583333,95.8333332 150,95.8333332 L129.166667,95.8333332 C124.583333,95.8333334 120.833333,92.0833334 120.833333,87.5 L120.833333,83.3333332 L41.6666666,83.3333332 L41.6666666,110 L79.1666666,110 C83.75,110 87.5,112.083333 90.4166666,115.416667 L106.25,134.583333 C106.666667,135 107.5,135.416667 107.916667,135.416667 L120.833333,135.416667 L120.833333,129.166667 C120.833333,124.583333 124.583333,120.833333 129.166667,120.833333 L150,120.833333 C154.583333,120.833333 158.333333,124.583333 158.333333,129.166667 L158.333333,150 C158.333333,154.583333 154.583333,158.333333 150,158.333333 L129.166667,158.333333 C124.583333,158.333333 120.833333,154.583333 120.833333,150 L120.833333,148.333333 L108.333333,148.333333 C103.75,148.333333 100,146.25 97.0833332,142.916667 L81.25,123.75 C80.8333332,123.333333 80,122.916667 79.5833332,122.916667 L41.6666666,122.916667 L41.6666666,150 C41.6666666,154.583333 37.9166666,158.333333 33.3333332,158.333333 L8.3333332,158.333333 C3.75,158.333333 0,154.583333 0,150 L0,8.3333332 C0,3.75 3.7499998,0 8.3333332,0 Z"></path></clipPath></defs><g transform="translate(0.8333333984375031 0.8333333984375031)"><g clip-path="url(#i0)"><polygon points="0,0 158.333333,0 158.333333,158.333333 0,158.333333 0,0" stroke="none" fill="#000000"></polygon></g></g></svg>