<?xml version="1.0" standalone="no"?><!DOCTYPE svg PUBLIC "-//W3C//DTD SVG 1.1//EN" "http://www.w3.org/Graphics/SVG/1.1/DTD/svg11.dtd"><svg t="1634110386191" class="icon" viewBox="0 0 1024 1024" version="1.1" xmlns="http://www.w3.org/2000/svg" p-id="3302" xmlns:xlink="http://www.w3.org/1999/xlink" width="200" height="200"><defs><style type="text/css"></style></defs><path d="M943.294232 855.679676h-254.399523l-138.303741 152.063714a53.3759 53.3759 0 0 1-38.271928 16.25597 53.3759 53.3759 0 0 1-38.271929-16.319969l-138.943739-151.935716h-254.079524C36.287932 855.679676 0.128 828.927726 0.128 783.295811V82.689125C0.128 60.801166 8.639984 39.681206 23.807956 24.193235 38.975927 8.641264 59.519889-0.06272 80.959848 0.00128h862.334384C987.902148 0.00128 1024.12608 37.057211 1024.12608 82.689125V783.359811c0 45.695914-36.095932 72.447864-80.831848 72.447864z m-284.543467-36.799931l19.007964-18.367966h265.535503c14.975972 0 26.87995-1.983996 26.879949-17.215968V82.689125c0-15.167972-12.031977-27.519948-26.879949-27.519948H80.959848a27.135949 27.135949 0 0 0-26.879949 27.519948V783.359811c0 15.103972 12.031977 17.279968 26.879949 17.279968h265.919502l19.007964 18.303965s146.431725 149.951719 146.559725 149.75972l146.303726-149.75972z m-173.567674-156.351707c0-7.359986 2.815995-14.399973 7.871985-19.583964A26.55995 26.55995 0 0 1 512.12704 634.88009c14.847972 0 26.943949 12.223977 26.943949 27.583948v27.647948a27.839948 27.839948 0 0 1-7.871985 19.519963 26.55995 26.55995 0 0 1-19.071964 8.063985 27.199949 27.199949 0 0 1-26.943949-27.519948v-27.711948zM569.726932 512.768319c-5.37599 2.047996-10.62398 4.351992-15.80797 6.975986a26.87995 26.87995 0 0 0-15.359972 24.639954c-0.128 4.671991 0.064 9.599982-0.959998 14.079974a26.55995 26.55995 0 0 1-27.967947 21.11996 27.199949 27.199949 0 0 1-24.703954-26.879949c-1.471997-38.911927 14.335973-67.199874 48.767909-84.159843 4.671991-2.303996 9.407982-4.479992 14.271973-6.271988A110.079794 110.079794 0 0 0 618.68684 347.520628c-5.18399-50.367906-43.903918-91.327829-92.479826-97.855816-30.271943-4.095992-60.799886 5.11999-84.095843 25.343952a111.487791 111.487791 0 0 0-37.887929 80.959849 46.399913 46.399913 0 0 1-1.279997 10.751979 26.68795 26.68795 0 0 1-28.927946 19.647964 27.263949 27.263949 0 0 1-23.551956-28.095948c0.447999-40.575924 12.799976-76.991856 39.295926-107.199799 43.519918-49.663907 98.111816-68.479872 161.087698-52.159902 63.615881 16.511969 103.039807 60.031887 118.399778 125.695764 2.623995 11.199979 3.135994 22.911957 4.543992 34.431936-1.407997 68.927871-41.599922 128.703759-104.063805 153.599712z" fill="#8a8a8a" p-id="3303"></path></svg>