<?xml version="1.0" encoding="utf-8"?>
<svg version="1.1" xmlns:xlink="http://www.w3.org/1999/xlink" width="16px" height="14px" xmlns="http://www.w3.org/2000/svg">
  <g transform="matrix(1 0 0 1 -8 -9 )">
    <path d="M 1.5 6.59615384615385  L 1.5 7  C 1.5 10.6346153846154  4.4 13.5625  8 13.5625  C 9.2 13.5625  10.4 13.2596153846154  11.4 12.5528846153846  C 11.6 12.4519230769231  11.7 12.25  11.7 11.9471153846154  C 11.7 11.5432692307692  11.4 11.3413461538462  11.1 11.3413461538462  C 11 11.3413461538462  10.8 11.3413461538462  10.7 11.4423076923077  C 9.9 12.0480769230769  9 12.3509615384615  8 12.3509615384615  C 5.1 12.3509615384615  2.7 9.92788461538462  2.7 7  L 2.7 6.59615384615385  L 4.1 6.59615384615385  L 2.1 3.56730769230769  L 0 6.59615384615385  L 1.5 6.59615384615385  Z M 14 10.3317307692308  L 16 7.40384615384615  L 14.5 7.40384615384615  L 14.5 7.30288461538462  L 14.5 7  C 14.5 3.36538461538462  11.6 0.4375  8 0.4375  C 6.8 0.4375  5.6 0.740384615384615  4.6 1.44711538461538  C 4.4 1.44711538461538  4.2 1.75  4.2 1.95192307692308  C 4.2 2.35576923076923  4.5 2.55769230769231  4.8 2.55769230769231  C 4.9 2.55769230769231  5.1 2.55769230769231  5.2 2.45673076923077  C 6.1 1.95192307692308  7 1.64903846153846  8 1.64903846153846  C 10.9 1.64903846153846  13.3 4.07211538461539  13.3 7  L 13.3 7.40384615384615  L 11.9 7.40384615384615  L 14 10.3317307692308  Z " fill-rule="nonzero" fill="#555555" stroke="none" transform="matrix(1 0 0 1 8 9 )" />
  </g>
</svg>