<?xml version="1.0" encoding="UTF-8"?>
<svg width="18px" height="18px" viewBox="0 0 18 18" version="1.1" xmlns="http://www.w3.org/2000/svg" xmlns:xlink="http://www.w3.org/1999/xlink">
    <title>删除</title>
    <g id="43迭代" stroke="none" stroke-width="1" fill="none" fill-rule="evenodd">
        <g id="字段映射（字段类型再次打开）" transform="translate(-956.000000, -492.000000)" fill="#000000">
            <g id="删除" transform="translate(956.515883, 492.066810)">
                <path d="M8.48411724,0 C13.1697658,0 16.9682345,3.79846867 16.9682345,8.48411724 C16.9682345,13.1697658 13.1697658,16.9682345 8.48411724,16.9682345 C3.79846867,16.9682345 0,13.1697658 0,8.48411724 C0,3.79846867 3.79846867,0 8.48411724,0 Z M8.48411724,1.06051465 C4.38417474,1.06051465 1.06051465,4.38417474 1.06051465,8.48411724 C1.06051465,12.5840597 4.38417474,15.9077198 8.48411724,15.9077198 C12.5840597,15.9077198 15.9077198,12.5840597 15.9077198,8.48411724 C15.9077198,4.38417474 12.5840597,1.06051465 8.48411724,1.06051465 Z" id="形状结合"></path>
                <rect id="矩形" transform="translate(8.484117, 8.484117) rotate(-45.000000) translate(-8.484117, -8.484117) " x="3.48411724" y="7.98411724" width="10" height="1" rx="0.5"></rect>
                <rect id="矩形" transform="translate(8.484117, 8.484117) rotate(-135.000000) translate(-8.484117, -8.484117) " x="3.48411724" y="7.98411724" width="10" height="1" rx="0.5"></rect>
            </g>
        </g>
    </g>
</svg>