<?xml version="1.0" standalone="no"?><!DOCTYPE svg PUBLIC "-//W3C//DTD SVG 1.1//EN" "http://www.w3.org/Graphics/SVG/1.1/DTD/svg11.dtd"><svg t="1634546329135" class="icon" viewBox="0 0 1450 1024" version="1.1" xmlns="http://www.w3.org/2000/svg" p-id="3434" xmlns:xlink="http://www.w3.org/1999/xlink" width="90.625" height="64"><defs><style type="text/css"></style></defs><path d="M1045.49703 1023.993173H392.274718c-26.879821 0-48.725008-20.650529-48.725008-46.165025 0-25.599829 21.845188-46.250358 48.725008-46.250359h653.222312c169.641536 0 307.709949-130.815128 307.709949-291.582056 0-160.852261-138.068413-291.582056-307.709949-291.582056h-740.688395C277.758148 348.413677 255.998293 327.677815 255.998293 302.077986 255.998293 276.648822 277.843481 255.998293 304.723302 255.998293h740.688395a413.863908 413.863908 0 0 1 286.291425 112.724582C1408.417277 441.511723 1450.656996 537.767082 1450.656996 639.995733c0 102.228652-42.239718 198.569343-118.953874 271.272859A413.863908 413.863908 0 0 1 1045.49703 1023.993173z" fill="#2C65FF" p-id="3435"></path><path d="M26.026493 242.174386L348.584343 8.874608C383.314778-16.298558 426.663822 15.103899 426.663822 65.279565v466.770221c0 50.175665-43.349044 81.578123-78.079479 56.404958L26.026493 355.154966c-34.730435-25.087833-34.730435-87.892747 0-112.98058z" fill="#2C65FF" p-id="3436"></path></svg>