<?xml version="1.0" standalone="no"?><!DOCTYPE svg PUBLIC "-//W3C//DTD SVG 1.1//EN" "http://www.w3.org/Graphics/SVG/1.1/DTD/svg11.dtd"><svg t="1628736335249" class="icon" viewBox="0 0 1024 1024" version="1.1" xmlns="http://www.w3.org/2000/svg" p-id="3000" xmlns:xlink="http://www.w3.org/1999/xlink" width="200" height="200"><defs><style type="text/css"></style></defs><path fill="#8a8a8a"  d="M25.536 512c0 268.672 217.728 486.4 486.4 486.4s486.4-217.728 486.4-486.4S780.608 25.6 511.936 25.6A486.4 486.4 0 0 0 25.536 512z m576.128-202.496l184.32 184.384a25.344 25.344 0 0 1 0 36.224l-184.32 184.32a25.6 25.6 0 0 1-36.224-36.224l140.672-140.672H255.936a25.6 25.6 0 1 1 0-51.2h450.176L565.44 345.664a25.6 25.6 0 0 1 36.224-36.224z" p-id="3001"></path></svg>
