<!-- Generated by IcoMoon.io -->
<svg version="1.1" xmlns="http://www.w3.org/2000/svg" width="32" height="32" viewBox="0 0 32 32">
<title>you</title>
<path d="M15 32c8.286 0 15-6.714 15-15 0-8.284-6.714-15-15-15-8.284 0-15 6.716-15 15 0 8.286 6.716 15 15 15zM15 4c7.168 0 13 5.832 13 13s-5.832 13-13 13-13-5.832-13-13 5.832-13 13-13zM17.618 16.998l-5.318 5.318c-0.39 0.39-0.39 1.024 0 1.414s1.024 0.39 1.414 0l6.024-6.026c0.39-0.39 0.39-1.024 0-1.414l-5.984-5.986c-0.196-0.194-0.452-0.292-0.708-0.292s-0.51 0.098-0.706 0.292c-0.39 0.39-0.39 1.024 0 1.414l5.278 5.28z"></path>
</svg>
