<?xml version="1.0" standalone="no"?><!DOCTYPE svg PUBLIC "-//W3C//DTD SVG 1.1//EN" "http://www.w3.org/Graphics/SVG/1.1/DTD/svg11.dtd"><svg class="icon" width="200px" height="166.78px" viewBox="0 0 1228 1024" version="1.1" xmlns="http://www.w3.org/2000/svg"><path fill="#8a8a8a" d="M1016.6272 568.9344L632.2176 927.0272a54.0672 54.0672 0 0 0 0.3072 80.384 64.9216 64.9216 0 0 0 86.8352-0.2048l476.2624-443.6992A56.832 56.832 0 0 0 1228.8 510.5664a54.5792 54.5792 0 0 0-17.92-41.472L725.504 16.7936A64.9216 64.9216 0 0 0 638.464 16.384a54.1696 54.1696 0 0 0-0.3072 80.4864l384.4096 358.0928H57.5488A57.344 57.344 0 0 0 0 512a57.344 57.344 0 0 0 57.5488 56.9344h959.0784z"  /></svg>