<?xml version="1.0" standalone="no"?><!DOCTYPE svg PUBLIC "-//W3C//DTD SVG 1.1//EN" "http://www.w3.org/Graphics/SVG/1.1/DTD/svg11.dtd"><svg t="1618214160990" class="icon" viewBox="0 0 1024 1024" version="1.1" xmlns="http://www.w3.org/2000/svg" p-id="37896" xmlns:xlink="http://www.w3.org/1999/xlink" width="200" height="200"><defs><style type="text/css"></style></defs><path d="M303.6 384h419c31 0 46.6 10.7 46.6 32s-15.5 32-46.6 32h-419c-31 0-46.6-10.7-46.6-32s15.6-32 46.6-32z m-5.8 192h254.6c27.2 0 40.7 10.8 40.7 32.4 0 21.6-13.6 32.4-40.7 32.4H297.8c-27.2 0-40.7-10.8-40.7-32.4-0.1-21.5 13.5-32.4 40.7-32.4z m0 0" fill="#666666" p-id="37897"></path><path d="M880.3 129H146.9c-45 0-81.5 36.9-81.5 82.5v667.1c0 45.6 36.5 82.5 81.5 82.5h733.4c45 0 81.5-36.9 81.5-82.5V211.5c0-45.6-36.5-82.5-81.5-82.5z m17.3 731.4c0 20.2-16.2 36.6-36.3 36.6H164.9c-20 0-36.3-16.4-36.3-36.6V228.3c0-20.2 16.2-36.6 36.3-36.6h696.4c20 0 36.3 16.4 36.3 36.6v632.1z" fill="#666666" p-id="37898"></path><path d="M354.8 60c21.3 0 32 11.9 32 35.6v124.7c0 23.8-10.7 35.6-32 35.6s-32-11.9-32-35.6V95.6c0-23.7 10.7-35.6 32-35.6z m317.6 4.2c21.3 0 32 11.7 32 34.9v122.3c0 23.3-10.7 34.9-32 34.9s-32-11.7-32-34.9V99.2c0-23.3 10.7-35 32-35z" fill="#666666" p-id="37899"></path></svg>
