<?xml version="1.0" standalone="no"?><!DOCTYPE svg PUBLIC "-//W3C//DTD SVG 1.1//EN" "http://www.w3.org/Graphics/SVG/1.1/DTD/svg11.dtd"><svg t="1628842093297" class="icon" viewBox="0 0 1024 1024" version="1.1" xmlns="http://www.w3.org/2000/svg" p-id="14749" xmlns:xlink="http://www.w3.org/1999/xlink" width="200" height="200"><defs><style type="text/css"></style></defs><path d="M849.340051 799.881616c66.621327-77.68736 106.876146-178.648796 106.876146-289.01544 0-245.333568-198.88263-444.216197-444.216197-444.216197S67.783803 265.531586 67.783803 510.866177s198.88263 444.216197 444.216197 444.216197c110.366643 0 211.32808-40.254819 289.01544-106.876146l96.868211 96.868211c13.343913 13.343913 34.979676 13.343913 48.324612 0s13.343913-34.979676 0-48.324612L849.340051 799.881616zM512.313132 882.035708c-204.817806 0-370.855376-166.037571-370.855376-370.855376s166.037571-370.855376 370.855376-370.855376 370.855376 166.037571 370.855376 370.855376S717.130937 882.035708 512.313132 882.035708z" p-id="14750" fill="#8a8a8a"></path></svg>