<?xml version="1.0" standalone="no"?><!DOCTYPE svg PUBLIC "-//W3C//DTD SVG 1.1//EN" "http://www.w3.org/Graphics/SVG/1.1/DTD/svg11.dtd"><svg class="icon" width="200px" height="188.24px" viewBox="0 0 1088 1024" version="1.1" xmlns="http://www.w3.org/2000/svg"><path fill="#333333" d="M285.307 699.137c-2.751 0-5.502 0-8.254-0.512a78.896 78.896 0 0 1-53.941-29.434L17.202 410.939a76.657 76.657 0 0 1-13.31-72.498c7.678-24.507 27.514-44.151 52.853-51.19L1039.013 1.612a38.008 38.008 0 0 1 44.15 17.98 36.537 36.537 0 0 1-8.83 46.328L335.346 680.069c-13.757 13.117-31.353 19.068-50.102 19.068z m690.998-621.7l-903.5 262.604a23.483 23.483 0 0 0-15.996 15.293 23.483 23.483 0 0 0 3.84 22.331l205.974 258.317a23.483 23.483 0 0 0 33.593 3.199l676.09-561.808z m-428.33 946.499a78.064 78.064 0 0 1-61.108-28.858L343.152 819.56a27.259 27.259 0 0 1 3.84-38.136 27.898 27.898 0 0 1 38.52 3.839l143.715 175.453c4.99 6.014 12.157 9.278 20.348 8.702a23.867 23.867 0 0 0 18.748-11.39l426.73-734.573a27.323 27.323 0 0 1 37.433-9.79c13.181 7.615 17.596 23.931 9.918 37.049L616.249 984.648c-13.245 22.395-36.344 37.112-61.683 38.712-2.24 0-4.416 0.576-6.591 0.576z"  /></svg>