<svg width="1em" height="1em" fill="currentColor" aria-hidden="true" viewBox="0 0 1024 1024">
   <path d="M533.333333 277.333333c-38.4-4.266667-72.533333 4.266667-106.666666 21.333334-81.066667 46.933333-110.933333 153.6-64 234.666666 25.6 42.666667 64 68.266667 106.666666 81.066667v89.6c0 25.6 17.066667 42.666667 42.666667 42.666667s42.666667-17.066667 42.666667-42.666667v-89.6c12.8-4.266667 29.866667-8.533333 42.666666-17.066667 34.133333-17.066667 59.733333-46.933333 72.533334-81.066666 21.333333-46.933333 17.066667-102.4-8.533334-153.6-29.866667-46.933333-76.8-76.8-128-85.333334zM469.333333 375.466667c17.066667-8.533333 34.133333-12.8 51.2-12.8 25.6 4.266667 51.2 17.066667 64 42.666666 12.8 25.6 12.8 51.2 4.266667 76.8-8.533333 17.066667-17.066667 29.866667-34.133333 38.4-42.666667 25.6-93.866667 8.533333-115.2-29.866666-25.6-42.666667-12.8-93.866667 29.866666-115.2z"></path><path d="M371.2 76.8l-34.133333 12.8c-64 21.333333-110.933333 38.4-145.066667 51.2-21.333333 8.533333-34.133333 12.8-46.933333 21.333333-12.8 8.533333-25.6 17.066667-34.133334 29.866667-8.533333 12.8-12.8 29.866667-17.066666 42.666667-4.266667 12.8-4.266667 29.866667-8.533334 51.2V512c0 268.8 200.533333 392.533333 320 448 12.8 4.266667 29.866667 12.8 46.933334 17.066667 17.066667 4.266667 34.133333 4.266667 59.733333 4.266666s42.666667 0 59.733333-4.266666c17.066667-4.266667 29.866667-8.533333 46.933334-17.066667C738.133333 904.533333 938.666667 776.533333 938.666667 512v-68.266667-157.866666c0-21.333333-4.266667-38.4-4.266667-51.2-4.266667-12.8-8.533333-29.866667-17.066667-42.666667-8.533333-12.8-21.333333-21.333333-34.133333-29.866667-12.8-8.533333-29.866667-12.8-46.933333-21.333333-34.133333-12.8-85.333333-29.866667-145.066667-51.2l-34.133333-12.8C593.066667 55.466667 554.666667 42.666667 512 42.666667s-81.066667 12.8-140.8 34.133333z m21.333333 85.333333c68.266667-25.6 93.866667-34.133333 119.466667-34.133333s51.2 8.533333 119.466667 34.133333l25.6 8.533334c64 21.333333 110.933333 38.4 145.066666 51.2l34.133334 17.066666c4.266667 4.266667 8.533333 4.266667 8.533333 4.266667s0 4.266667 4.266667 8.533333c0 8.533333 4.266667 21.333333 4.266666 38.4V512c0 213.333333-157.866667 320-268.8 366.933333-17.066667 8.533333-25.6 8.533333-34.133333 12.8-8.533333 4.266667-17.066667 4.266667-38.4 4.266667s-29.866667 0-38.4-4.266667c-8.533333-4.266667-17.066667-4.266667-34.133333-12.8C328.533333 832 170.666667 725.333333 170.666667 512v-68.266667-153.6c0-17.066667 4.266667-29.866667 4.266666-38.4 0-4.266667 0-8.533333 4.266667-8.533333 0 0 4.266667-4.266667 8.533333-4.266667l34.133334-17.066666c34.133333-17.066667 81.066667-29.866667 145.066666-55.466667l25.6-4.266667z"></path>
</svg>