<?xml version="1.0" encoding="UTF-8"?>
<svg width="14px" height="14px" viewBox="0 0 14 14" version="1.1" xmlns="http://www.w3.org/2000/svg" xmlns:xlink="http://www.w3.org/1999/xlink">
    <title>renwu-2</title>
    <g id="数据管道" stroke="none" stroke-width="1" fill="none" fill-rule="evenodd">
        <g id="数据开发-点击任务名称详情" transform="translate(-1150.000000, -455.000000)" fill="#595959" fill-rule="nonzero">
            <g id="renwu-2" transform="translate(1150.000000, 455.000000)">
                <path d="M11.99975,0 L2.00024999,0 C0.895548386,0 0,0.895548386 0,2.00024999 L0,11.99975 C0,13.1044516 0.895548386,14 2.00024999,14 L11.99975,14 C13.1044516,14 14,13.1044516 14,11.99975 L14,2.00024999 C14,0.895548386 13.1044516,0 11.99975,0 Z M13.0008073,12.0024597 C13.0010171,12.2675371 12.895716,12.5217984 12.7081508,12.7091094 C12.5205856,12.8964204 12.2661818,13.0013766 12.0011049,13.0008088 L2.00256451,13.0008088 C1.73515322,13.0008088 1.48264515,12.8980645 1.29353227,12.7089516 C1.10441938,12.5198387 0.999193549,12.269871 0.999193549,12.0024597 L0.999193549,2.00120968 C1.00018958,1.44769563 1.44904962,0.99944168 2.00256451,0.999193549 L12.0011049,0.999193549 C12.2665607,0.99946287 12.521033,1.1051925 12.7085216,1.29311514 C12.8960101,1.48103778 13.001151,1.73575392 13.0008073,2.00120968 L13.0008073,12.0024597 Z" id="形状"></path>
                <path d="M11.4741225,4.96094137 L7.26318084,4.96094137 C6.97274672,4.96094137 6.73730335,5.17697807 6.73730335,5.44347284 C6.73730335,5.70996762 6.97274672,5.92600432 7.26318084,5.92600432 L11.4741225,5.92600432 C11.7645566,5.92600432 12,5.70996762 12,5.44347284 C12,5.17697807 11.7645566,4.96094137 11.4741225,4.96094137 L11.4741225,4.96094137 Z M11.4741225,8.82664552 L7.26318084,8.82664552 C6.97274672,8.82664552 6.73730335,9.04268222 6.73730335,9.30917699 C6.73730335,9.57567177 6.97274672,9.79170847 7.26318084,9.79170847 L11.4741225,9.79170847 C11.7645566,9.79170847 12,9.57567177 12,9.30917699 C12,9.04268222 11.7645566,8.82664552 11.4741225,8.82664552 Z M4.1050043,7.6195535 C3.08753535,7.6195535 2.26294757,8.37639186 2.26294757,9.30977674 C2.26294757,10.2431616 3.08777304,11 4.1050043,11 C5.12223556,11 5.94706101,10.2431616 5.94706101,9.30977674 C5.94706101,8.37639185 5.12247323,7.6195535 4.1050043,7.6195535 Z M4.66397938,9.82289581 C4.39726616,10.0673898 3.9794776,10.1049766 3.66609015,9.91267179 C3.3527027,9.72036704 3.23098728,9.35172308 3.37537249,9.0321646 C3.5197577,8.71260611 3.89003573,8.5311225 4.25978266,8.59869044 C4.6295296,8.66625838 4.89577977,8.96406181 4.8957245,9.30999484 C4.896252,9.50251992 4.81280172,9.68723469 4.66397938,9.82295035 L4.66397938,9.82289581 Z M5.3122645,4.13900217 L3.57859201,5.72972033 L2.89774408,5.1049375 C2.69237271,4.91649407 2.35939992,4.91649407 2.15402854,5.10493749 C1.94865716,5.29338091 1.94865715,5.59890807 2.15402853,5.78735149 L3.20673424,6.75334135 C3.3053559,6.84383706 3.43911757,6.89467728 3.57859201,6.89467728 C3.71806645,6.89467728 3.85182813,6.84383706 3.95044979,6.75334135 L6.05592062,4.82141617 C6.25891317,4.63261756 6.25779983,4.32888527 6.05342781,4.14134384 C5.84905579,3.95380242 5.51803919,3.95275659 5.3122645,4.13900217 L5.3122645,4.13900217 Z" id="形状"></path>
            </g>
        </g>
    </g>
</svg>