<svg width="16" height="16" viewBox="0 0 16 16" fill="none" xmlns="http://www.w3.org/2000/svg">
<g clip-path="url(#clip0_1713_41566)">
<path d="M7.6 11.843H15.1196C15.6 11.843 16 12.243 16 12.8037V14.243C16 14.7234 15.6 15.2037 15.1196 15.2037H7.6C7.11964 15.2037 6.71964 14.8037 6.71964 14.243V14.0823H1.68036C1.36071 14.0823 1.11964 13.843 1.11964 13.5216V4.16443H0.880357C0.4 4.16443 0 3.68407 0 3.20371V1.76443C0 1.20371 0.4 0.803711 0.880357 0.803711H2.4C2.88036 0.803711 3.28036 1.20371 3.28036 1.76443V3.20371C3.28036 3.68407 2.88036 4.16443 2.4 4.16443H2.16071V7.52514H6.64107V7.36443C6.64107 6.88407 7.04107 6.40371 7.52143 6.40371H15.0411C15.5214 6.40371 15.9214 6.80371 15.9214 7.36443V8.80371C15.9214 9.28407 15.5214 9.76443 15.0411 9.76443H7.51964C7.03929 9.76443 6.63929 9.36443 6.63929 8.80371V8.643H2.16071V13.043H6.64107V12.8037C6.63929 12.3234 7.03929 11.843 7.6 11.843ZM15.1196 4.16443H5.28036C4.71964 4.16443 4.31964 3.68407 4.31964 3.20371V1.76443C4.31964 1.20371 4.71964 0.803711 5.28036 0.803711H15.1196C15.6 0.803711 16 1.20371 16 1.76443V3.20371C16 3.68407 15.6 4.16443 15.1196 4.16443Z" fill="black"/>
</g>
<defs>
<clipPath id="clip0_1713_41566">
<rect width="16" height="16" fill="white"/>
</clipPath>
</defs>
</svg>
