<svg width="17" height="16" viewBox="0 0 17 16" fill="none" xmlns="http://www.w3.org/2000/svg">
<path fill-rule="evenodd" clip-rule="evenodd" d="M11.25 6H13.25V2H11.25V6ZM10.75 1C10.4739 1 10.25 1.22386 10.25 1.5V3.5H7.96429C7.68814 3.5 7.46429 3.72386 7.46429 4V7.5H6.25V5.5C6.25 5.22386 6.02614 5 5.75 5H2.75C2.47386 5 2.25 5.22386 2.25 5.5V10.5C2.25 10.7761 2.47386 11 2.75 11H5.75C6.02614 11 6.25 10.7761 6.25 10.5V8.5H7.46429V12C7.46429 12.2761 7.68814 12.5 7.96429 12.5H10.25V14.5C10.25 14.7761 10.4739 15 10.75 15H13.75C14.0261 15 14.25 14.7761 14.25 14.5V9.5C14.25 9.22386 14.0261 9 13.75 9H10.75C10.4739 9 10.25 9.22386 10.25 9.5V11.5H8.46429V8V4.5H10.25V6.5C10.25 6.77614 10.4739 7 10.75 7H13.75C14.0261 7 14.25 6.77614 14.25 6.5V1.5C14.25 1.22386 14.0261 1 13.75 1H10.75ZM3.25 6V10H5.25V6H3.25ZM13.25 14H11.25V10H13.25V14Z" fill="#535F72"/>
</svg>
