<?xml version="1.0" encoding="UTF-8"?>
<svg width="13px" height="15px" viewBox="0 0 13 15" version="1.1" xmlns="http://www.w3.org/2000/svg" xmlns:xlink="http://www.w3.org/1999/xlink">
    <title>tongburenwu</title>
    <g id="agent管理" stroke="none" stroke-width="1" fill="none" fill-rule="evenodd" fill-opacity="0.6">
        <g id="实例详情" transform="translate(-1151.000000, -221.000000)" fill="#000000" fill-rule="nonzero">
            <g id="tongburenwu" transform="translate(1151.000000, 221.500000)">
                <path d="M4.30567165,14 L1.657509,14 C0.74357739,14 0,13.226678 0,12.2760973 L0,1.72390272 C0,0.773322039 0.74357739,0 1.657509,0 L11.342491,0 C12.2564226,0 13,0.773322039 13,1.72390272 L13,6.40050378 C13,6.67622211 12.7756272,6.8998239 12.4989582,6.8998239 C12.2222891,6.8998239 11.9979163,6.67622211 11.9979163,6.40050378 L11.9979163,1.72390272 C11.9979163,1.32397851 11.7038674,0.998640244 11.342491,0.998640244 L1.657509,0.998640244 C1.29613258,0.998640244 1.00208366,1.32397851 1.00208366,1.72390272 L1.00208366,12.2759412 C1.00208366,12.6758655 1.29613258,13.0012037 1.657509,13.0012037 L4.30567165,13.0012037 C4.58234068,13.0012037 4.80671348,13.2248055 4.80671348,13.5005238 C4.80671348,13.7762422 4.58234068,14 4.30567165,14 Z" id="路径"></path>
                <path d="M6.90209609,7.66648149 L6.52890644,7.18681992 L6,7.82665948 L6,13.5820818 C6,13.812851 6.22390625,14 6.5,14 C6.77609375,14 7,13.812851 7,13.5820818 L6.90209609,7.66648149 Z" id="路径"></path>
                <path d="M5.01561369,8.78352495 C4.88075146,8.78352495 4.74605036,8.71708008 4.64502454,8.58480266 C4.44700103,8.32595471 4.4524793,7.9130209 4.65710896,7.66252946 L5.94998174,6.08049971 C6.27964496,5.6771453 6.80910407,5.68570563 7.13038875,6.09986235 L8.35236621,7.67435086 C8.55183985,7.93136445 8.54877846,8.34429827 8.34559893,8.59662406 C8.1424194,8.84894986 7.81597869,8.84507733 7.61650505,8.58806374 L6.52890644,7.18681992 L5.37411842,8.59988514 C5.27808936,8.71783313 5.14946338,8.78372011 5.01561369,8.78352495 L5.01561369,8.78352495 Z" id="路径"></path>
                <path d="M10.5,5.78352495 C10.2239063,5.78352495 10,5.97067396 10,6.20144319 L10,11.9910963 L10.4710936,12.596705 L11,11.9527101 L11,6.20144319 C11,5.97067396 10.7760938,5.78352495 10.5,5.78352495 Z" id="路径"></path>
                <path d="M12.3549755,11.1987223 C12.552999,11.4575702 12.5475207,11.870504 12.342891,12.1209955 L11.0500183,13.7030252 C10.720355,14.1063796 10.1908959,14.0978193 9.86961125,13.6836626 L8.64763379,12.1091741 C8.44816015,11.8521605 8.45122154,11.4392267 8.65440107,11.1869009 C8.8575806,10.9345751 9.18402131,10.9384476 9.38349495,11.1954612 L10.4710936,12.596705 L11.6258816,11.1836398 C11.7219106,11.0656918 11.8505366,10.9998048 11.9843863,10.9999996 C12.1192485,10.9999996 12.2539496,11.0664449 12.3549755,11.1987223 Z" id="路径"></path>
            </g>
        </g>
    </g>
</svg>