<?xml version="1.0" encoding="UTF-8"?>
<svg width="16px" height="15px" viewBox="0 0 16 15" version="1.1" xmlns="http://www.w3.org/2000/svg" xmlns:xlink="http://www.w3.org/1999/xlink">
    <title>形状</title>
    <g id="数据管道" stroke="none" stroke-width="1" fill="none" fill-rule="evenodd">
        <g id="数据复制-点击名称（全量+增量）" transform="translate(-1152.000000, -669.000000)" fill="#4E5969" fill-rule="nonzero">
            <path d="M1160.06843,669.543451 C1156.09322,669.543451 1152.87066,672.766003 1152.87066,676.741221 C1152.87066,680.71644 1156.09322,683.938991 1160.06843,683.938991 C1164.04365,683.938991 1167.2662,680.71644 1167.2662,676.741221 C1167.2662,672.766003 1164.04365,669.543451 1160.06843,669.543451 Z M1160.06843,683.016368 C1156.60277,683.016368 1153.79329,680.206889 1153.79329,676.741221 C1153.79329,673.275553 1156.60277,670.466075 1160.06843,670.466075 C1163.5341,670.466075 1166.34358,673.275553 1166.34358,676.741221 C1166.34358,678.405494 1165.68245,680.001602 1164.50563,681.17842 C1163.32882,682.355239 1161.73271,683.016368 1160.06843,683.016368 Z M1164.32166,677.127284 C1164.32166,676.802038 1164.058,676.538375 1163.73275,676.538375 L1159.61039,676.538375 L1159.61039,672.422559 C1159.61039,672.097314 1159.34673,671.833651 1159.02149,671.833651 C1158.69624,671.833651 1158.43258,672.097314 1158.43258,672.422559 L1158.43258,677.133827 C1158.43258,677.459072 1158.69624,677.722735 1159.02149,677.722735 L1163.73275,677.722735 C1164.058,677.722735 1164.32166,677.459072 1164.32166,677.133827 L1164.32166,677.127284 Z" id="形状"></path>
        </g>
    </g>
</svg>