<?xml version="1.0" encoding="UTF-8"?>
<svg width="15px" height="15px" viewBox="0 0 15 15" version="1.1" xmlns="http://www.w3.org/2000/svg" xmlns:xlink="http://www.w3.org/1999/xlink">
    <title>wancheng</title>
    <g id="数据管道" stroke="none" stroke-width="1" fill="none" fill-rule="evenodd">
        <g id="数据复制-点击名称（全量+增量）" transform="translate(-1153.000000, -611.000000)" fill="#333C4A" fill-rule="nonzero">
            <g id="wancheng" transform="translate(1153.130081, 611.120611)">
                <path d="M7.38763997,13.5888352 C10.8199141,13.5888352 13.6036864,10.8083631 13.6036864,7.37938931 C13.6036864,3.95041547 10.8215642,1.16994343 7.38763997,1.16994343 C3.95536587,1.16994343 1.17159356,3.95041547 1.17159356,7.37938931 C1.17324369,10.8083631 3.95536587,13.5888352 7.38763997,13.5888352 Z M7.38763997,14.7587786 C3.30851421,14.7587786 0,11.4552148 0,7.37938931 C0,3.30356382 3.30686408,0 7.38763997,0 C11.4667657,0 14.7736304,3.30356382 14.7736304,7.37938931 C14.7752799,11.4552148 11.4667657,14.7587786 7.38763997,14.7587786 Z" id="形状"></path>
                <path d="M10.5047389,5.18636418 C10.2687701,4.96029612 9.89088987,4.97019691 9.66482182,5.20616576 L6.75398936,8.26220981 L5.15336154,6.33650602 C4.9437948,6.08568599 4.56756476,6.05103323 4.31674473,6.25894983 C4.0659247,6.46851657 4.03127193,6.84474661 4.23918854,7.09556664 L6.26390023,9.53116115 C6.37775932,9.66812208 6.54112237,9.74072788 6.70613554,9.74402814 L6.75233923,9.74402814 C6.89920096,9.73742762 7.04441256,9.67637274 7.15497139,9.56086352 L10.5245405,6.02463112 C10.7506085,5.79031241 10.7423579,5.41243223 10.5047389,5.18636418 L10.5047389,5.18636418 Z" id="路径"></path>
            </g>
        </g>
    </g>
</svg>