<?xml version="1.0" standalone="no"?><!DOCTYPE svg PUBLIC "-//W3C//DTD SVG 1.1//EN" "http://www.w3.org/Graphics/SVG/1.1/DTD/svg11.dtd"><svg t="1657274517186" class="icon" viewBox="0 0 1109 1024" version="1.1" xmlns="http://www.w3.org/2000/svg" p-id="3027" xmlns:xlink="http://www.w3.org/1999/xlink" width="216.6015625" height="200"><defs><style type="text/css">@font-face { font-family: feedback-iconfont; src: url("//at.alicdn.com/t/font_1031158_u69w8yhxdu.woff2?t=1630033759944") format("woff2"), url("//at.alicdn.com/t/font_1031158_u69w8yhxdu.woff?t=1630033759944") format("woff"), url("//at.alicdn.com/t/font_1031158_u69w8yhxdu.ttf?t=1630033759944") format("truetype"); }
</style></defs><path d="M1040.037466 102.402901h-137.641978c0-56.490384-46.591767-102.399488-104.020813-102.399488h-17.32258a103.252817 103.252817 0 0 0-103.935481 102.399488H433.3205c0-28.245192-11.605275-53.845064-30.463848-72.447637A104.447478 104.447478 0 0 0 329.38502 0.003413h-17.32258a103.252817 103.252817 0 0 0-104.020814 102.399488H69.375653A68.778323 68.778323 0 0 0 0 170.669227v785.062741c0 37.631812 31.061178 68.266325 69.375653 68.266325h970.576481a68.863656 68.863656 0 0 0 69.375653-68.266325V170.669227c0-37.717145-31.061178-68.266325-69.375653-68.266326z m-293.545198 8.533291c0-23.551882 19.285237-42.666453 43.263783-42.666453 23.893214 0 43.349117 19.114571 43.349117 42.666453v85.332907c0 23.551882-19.455903 42.666453-43.349117 42.666453a42.666453 42.666453 0 0 1-43.349116-42.666453v-85.332907z m-469.160321 0c0-23.551882 19.37057-42.666453 43.349116-42.666453 23.893214 0 43.349117 19.114571 43.349117 42.666453v85.332907c0 23.551882-19.455903 42.666453-43.349117 42.666453a42.666453 42.666453 0 0 1-43.349116-42.666453v-85.332907z m762.705519 810.662613c0 18.858572-15.530589 34.133163-34.730493 34.133163H104.106146a34.389161 34.389161 0 0 1-34.730493-34.133163V443.734528h970.747146v477.864277z" fill="#707070" p-id="3028"></path></svg>