<!-- Generated by IcoMoon.io -->
<svg version="1.1" xmlns="http://www.w3.org/2000/svg" width="1031" height="1024" viewBox="0 0 1031 1024">
<title>you</title>
<g id="icomoon-ignore">
</g>
<path d="M935.397 512c0-232.995-188.88-421.875-421.875-421.875s-421.875 188.88-421.875 421.875 188.88 421.875 421.875 421.875 421.875-188.88 421.875-421.875zM853.721 368.313c19.237 45.482 28.993 93.825 28.993 143.687s-9.751 98.206-28.993 143.687c-18.592 43.957-45.217 83.443-79.141 117.367s-73.411 60.549-117.367 79.141c-45.482 19.237-93.825 28.993-143.687 28.993s-98.206-9.751-143.687-28.993c-43.957-18.592-83.443-45.217-117.367-79.141s-60.549-73.411-79.141-117.367c-19.237-45.482-28.993-93.825-28.993-143.687s9.753-98.206 28.993-143.687c18.587-43.957 45.213-83.443 79.137-117.367s73.411-60.549 117.367-79.141c45.482-19.237 93.823-28.993 143.687-28.993s98.206 9.751 143.687 28.993c43.957 18.592 83.443 45.217 117.367 79.141s60.549 73.411 79.146 117.367zM481.931 333.908c0 17.646 14.305 31.951 31.95 31.951s31.951-14.305 31.951-31.951c0-17.646-14.305-31.95-31.951-31.95s-31.95 14.305-31.95 31.95zM514.471 415.173c0 0 0 0 0 0 15.154 0 27.44 12.284 27.44 27.44v243.967c0 15.154-12.284 27.44-27.44 27.44-15.154 0-27.44-12.284-27.44-27.44v-243.967c0-15.154 12.284-27.44 27.44-27.44 0 0 0 0 0 0z"></path>
</svg>
