<?xml version="1.0" encoding="UTF-8"?>
<svg width="15px" height="15px" viewBox="0 0 15 15" version="1.1" xmlns="http://www.w3.org/2000/svg" xmlns:xlink="http://www.w3.org/1999/xlink">
    <title>形状</title>
    <g id="数据管道" stroke="none" stroke-width="1" fill="none" fill-rule="evenodd">
        <g id="数据复制-点击名称（全量+增量）" transform="translate(-1153.000000, -264.000000)" fill="#4E5969" fill-rule="nonzero">
            <path d="M1158.40729,264.70506 L1153.02267,264.70506 L1153.02267,270.089675 C1153.02267,270.684444 1153.50483,271.166599 1154.0996,271.166599 L1158.40729,271.166599 C1159.00206,271.166599 1159.48421,270.684444 1159.48421,270.089675 L1159.48421,265.781983 C1159.48421,265.187215 1159.00206,264.70506 1158.40729,264.70506 Z M1158.40729,270.089675 L1154.0996,270.089675 L1154.0996,265.781983 L1158.40729,265.781983 L1158.40729,270.089675 Z M1158.40729,272.243522 L1154.0996,272.243522 C1153.50483,272.243522 1153.02267,272.725677 1153.02267,273.320445 L1153.02267,278.70506 L1158.40729,278.70506 C1159.00206,278.70506 1159.48421,278.222905 1159.48421,277.628137 L1159.48421,273.320445 C1159.48421,272.725677 1159.00206,272.243522 1158.40729,272.243522 Z M1158.40729,277.628137 L1154.0996,277.628137 L1154.0996,273.320445 L1158.40729,273.320445 L1158.40729,277.628137 Z M1161.63806,264.70506 C1161.04329,264.70506 1160.56113,265.187215 1160.56113,265.781983 L1160.56113,270.089675 C1160.56113,270.684444 1161.04329,271.166599 1161.63806,271.166599 L1165.94575,271.166599 C1166.54052,271.166599 1167.02267,270.684444 1167.02267,270.089675 L1167.02267,264.70506 L1161.63806,264.70506 Z M1165.94575,270.089675 L1161.63806,270.089675 L1161.63806,265.781983 L1165.94575,265.781983 L1165.94575,270.089675 Z M1165.94575,272.243522 L1161.63806,272.243522 C1161.04329,272.243522 1160.56113,272.725677 1160.56113,273.320445 L1160.56113,277.628137 C1160.56113,278.222905 1161.04329,278.70506 1161.63806,278.70506 L1167.02267,278.70506 L1167.02267,273.320445 C1167.02267,272.725677 1166.54052,272.243522 1165.94575,272.243522 Z M1165.94575,277.628137 L1161.63806,277.628137 L1161.63806,273.320445 L1165.94575,273.320445 L1165.94575,277.628137 Z" id="形状"></path>
        </g>
    </g>
</svg>