<?xml version="1.0" standalone="no"?><!DOCTYPE svg PUBLIC "-//W3C//DTD SVG 1.1//EN" "http://www.w3.org/Graphics/SVG/1.1/DTD/svg11.dtd"><svg t="1648640518439" class="icon" viewBox="0 0 1024 1024" version="1.1" xmlns="http://www.w3.org/2000/svg" p-id="17698" xmlns:xlink="http://www.w3.org/1999/xlink" width="200" height="200"><defs><style type="text/css">@font-face { font-family: feedback-iconfont; src: url("//at.alicdn.com/t/font_1031158_u69w8yhxdu.woff2?t=1630033759944") format("woff2"), url("//at.alicdn.com/t/font_1031158_u69w8yhxdu.woff?t=1630033759944") format("woff"), url("//at.alicdn.com/t/font_1031158_u69w8yhxdu.ttf?t=1630033759944") format("truetype"); }
</style></defs><path d="M906.971429 936.228571H117.028571c-26.331429 0-43.885714-17.554286-43.885714-43.885714v-219.428571h87.771429v175.542857h702.171428V672.914286H950.857143v219.428571c0 26.331429-17.554286 43.885714-43.885714 43.885714z m-144.822858-557.348571l-219.428571-219.428571a42.422857 42.422857 0 0 0-61.44 0l-219.428571 219.428571a42.422857 42.422857 0 0 0 0 61.44c17.554286 17.554286 43.885714 17.554286 61.44 0L468.114286 295.497143V672.914286c0 26.331429 17.554286 43.885714 43.885714 43.885714s43.885714-17.554286 43.885714-43.885714V295.497143l144.822857 144.822857c13.165714 13.165714 26.331429 17.554286 43.885715 13.165714 13.165714-4.388571 26.331429-17.554286 30.72-30.72 4.388571-17.554286 0-35.108571-13.165715-43.885714z" p-id="17699" fill="#8a8a8a"></path></svg>