<?xml version="1.0" encoding="UTF-8"?>
<svg width="15px" height="15px" viewBox="0 0 15 15" version="1.1" xmlns="http://www.w3.org/2000/svg" xmlns:xlink="http://www.w3.org/1999/xlink">
    <title>xiaoyanrizhi</title>
    <g id="DAG复制任务" stroke="none" stroke-width="1" fill="none" fill-rule="evenodd">
        <g id="DAG（任务校验）" transform="translate(-1037.000000, -17.000000)" fill="#4E5969" fill-rule="nonzero">
            <g id="xiaoyanrizhi" transform="translate(1037.000000, 17.000000)">
                <path d="M13.2180552,1.11111111 L11.2289468,1.11111111 L11.2289468,0.555555556 C11.2289468,0.248263889 10.9880979,0 10.6899843,0 C10.3918706,0 10.1510218,0.248263889 10.1510218,0.555555556 L10.1510218,1.11111111 L4.76139681,1.11111111 L4.76139681,0.555555556 C4.76139681,0.248263889 4.52054795,0 4.22243431,0 C3.92432068,0 3.68347182,0.248263889 3.68347182,0.555555556 L3.68347182,1.11111111 L1.78194476,1.11111111 C0.800022457,1.11111111 0,1.95833333 0,2.99826389 L0,13.1128472 C0,14.1527778 0.800022457,15 1.78194476,15 L8.99225241,15 L8.99225241,13.8888889 L1.78194476,13.8888889 C1.39456546,13.8888889 1.07792499,13.5399306 1.07792499,13.1128472 L1.07792499,2.99826389 C1.07792499,2.57118056 1.39456546,2.22222222 1.78194476,2.22222222 L3.68347182,2.22222222 L3.68347182,3.33333333 C3.68347182,3.640625 3.92432068,3.88888889 4.22243431,3.88888889 C4.52054795,3.88888889 4.76139681,3.640625 4.76139681,3.33333333 L4.76139681,2.22222222 L10.1510218,2.22222222 L10.1510218,3.33333333 C10.1510218,3.640625 10.3918706,3.88888889 10.6899843,3.88888889 C10.9880979,3.88888889 11.2289468,3.640625 11.2289468,3.33333333 L11.2289468,2.22222222 L13.2180552,2.22222222 C13.6054345,2.22222222 13.922075,2.57118056 13.922075,2.99826389 L13.922075,7.52430556 L15,7.52430556 L15,2.99826389 C15,1.95833333 14.1999775,1.11111111 13.2180552,1.11111111 Z" id="路径"></path>
                <path d="M2,6 L4.36330067,6 L4.36330067,7.68782965 L2,7.68782965 L2,6 Z M2,9.93826919 L4.36330067,9.93826919 L4.36330067,11.6260988 L2,11.6260988 L2,9.93826919 Z M11.988638,7.75815589 C11.3756569,7.17444813 10.5595796,6.85270561 9.69180514,6.85270561 C8.82403068,6.85270561 8.00795342,7.17444813 7.39497231,7.75815589 C6.12839085,8.96425083 6.12839085,10.928111 7.39497231,12.1342059 C8.02826303,12.7372534 8.86095725,13.0396562 9.69180514,13.0396562 C10.3361738,13.0396562 10.9805425,12.8585661 11.5344411,12.496386 L14.1636131,15 L15,14.2035554 L12.3689817,11.6999414 C13.2404488,10.4956046 13.1130521,8.82887283 11.988638,7.75815589 L11.988638,7.75815589 Z M8.22951285,11.3395194 C7.42266723,10.5712053 7.42266723,9.32291463 8.22951285,8.55460051 C8.62093453,8.18187146 9.13975288,7.97792538 9.69180514,7.97792538 C10.2438574,7.97792538 10.7626758,8.18187146 11.1540974,8.55460051 C11.960943,9.32291463 11.960943,10.5712053 11.1540974,11.3395194 C10.7515978,11.7227974 10.2217015,11.9161946 9.69180514,11.9161946 C9.16190882,11.9144364 8.6320125,11.7227974 8.22951285,11.3395194 Z M8.49907684,6.19163899 L8.49907684,6 L6.13577617,6 L6.13577617,7.68782965 L6.61028263,7.68782965 C7.02939923,6.99687439 7.6977702,6.462395 8.49907684,6.19163899 Z" id="形状"></path>
            </g>
        </g>
    </g>
</svg>
