<svg width="1em" height="1em" fill="currentColor" viewBox="0 0 1024 1024"><path d="M601.6 85.333333c-93.866667 0-170.666667 76.8-170.666667 170.666667v512c0 93.866667 76.8 170.666667 170.666667 170.666667h170.666667c93.866667 0 170.666667-76.8 170.666666-170.666667V256c0-93.866667-76.8-170.666667-170.666666-170.666667h-170.666667z m-85.333333 170.666667c0-46.933333 38.4-85.333333 85.333333-85.333333h170.666667c46.933333 0 85.333333 38.4 85.333333 85.333333v512c0 46.933333-38.4 85.333333-85.333333 85.333333h-170.666667c-46.933333 0-85.333333-38.4-85.333333-85.333333V256zM230.4 285.866667c0-72.533333 46.933333-132.266667 115.2-153.6 21.333333-4.266667 42.666667 12.8 42.666667 38.4s-21.333333 42.666667-38.4 55.466666c-21.333333 12.8-34.133333 34.133333-34.133334 59.733334v452.266666c0 25.6 12.8 46.933333 34.133334 59.733334 17.066667 12.8 38.4 29.866667 38.4 55.466666s-21.333333 42.666667-42.666667 38.4c-68.266667-17.066667-115.2-81.066667-115.2-153.6V285.866667zM42.666667 358.4c0-68.266667 42.666667-123.733333 102.4-140.8 25.6-4.266667 42.666667 12.8 42.666666 38.4s-21.333333 42.666667-38.4 55.466667c-12.8 12.8-21.333333 29.866667-21.333333 46.933333v302.933333c0 17.066667 8.533333 34.133333 21.333333 46.933334 17.066667 17.066667 38.4 34.133333 38.4 59.733333s-21.333333 42.666667-42.666666 38.4C85.333333 785.066667 42.666667 729.6 42.666667 665.6V358.4z"></path></svg>