<svg width="18" height="19" viewBox="0 0 18 19" fill="none" xmlns="http://www.w3.org/2000/svg">
<path d="M3.63832 2.43209C5.04506 1.81664 6.94124 1.45288 9.00005 1.45288C11.0589 1.45288 12.955 1.81664 14.3618 2.43209C15.0641 2.73937 15.6749 3.1227 16.1195 3.58259C16.5126 3.98913 16.7977 4.48101 16.8616 5.04038C16.7595 5.84772 16.0761 6.70483 14.7314 7.41254C13.2993 8.16632 11.274 8.65288 9.00005 8.65288C6.72606 8.65288 4.70083 8.16632 3.26866 7.41254C1.92402 6.70483 1.24056 5.84772 1.13853 5.04038C1.20236 4.48101 1.48753 3.98913 1.88057 3.58259C2.32518 3.1227 2.93596 2.73937 3.63832 2.43209Z" fill="#535F72"/>
<path d="M15.3602 8.60718C15.9242 8.31034 16.4407 7.96038 16.875 7.56264V9.32788C16.875 9.38271 16.8723 9.43785 16.8669 9.49325C16.3676 9.14129 15.8108 8.8655 15.2134 8.68277C15.2628 8.65788 15.3117 8.63268 15.3602 8.60718Z" fill="#535F72"/>
<path d="M9.51493 9.99517C9.34438 10.0003 9.17271 10.0029 9.00005 10.0029C6.552 10.0029 4.30222 9.48209 2.6399 8.60718C2.07591 8.31034 1.55944 7.96038 1.12505 7.56264V9.32788C1.12505 10.1952 1.80532 11.1424 3.26866 11.9125C4.43633 12.5271 5.99823 12.964 7.76776 13.1045C8.01538 11.8884 8.64028 10.8094 9.51493 9.99517Z" fill="#535F72"/>
<path d="M7.65252 14.4495C5.73262 14.2961 3.99195 13.8188 2.6399 13.1072C2.07591 12.8103 1.55944 12.4604 1.12505 12.0626V14.2779C1.12505 14.9361 1.43281 15.51 1.88057 15.9732C2.32518 16.4331 2.93596 16.8164 3.63832 17.1237C5.04506 17.7391 6.94124 18.1029 9.00005 18.1029C9.02456 18.1029 9.04905 18.1028 9.07352 18.1027C8.2214 17.1174 7.69272 15.8447 7.65252 14.4495Z" fill="#535F72"/>
<path d="M15.8763 16.4805C15.7601 16.4385 15.6783 16.4133 15.6009 16.3839C15.3641 16.2956 15.136 16.1948 14.895 16.1149C14.8261 16.0939 14.7271 16.1023 14.6625 16.1359C14.4946 16.2158 14.3311 16.3082 14.1761 16.4133C14.1245 16.4469 14.0814 16.5225 14.0685 16.5856C14.0169 16.8629 13.9781 17.1444 13.9437 17.426C13.9222 17.5857 13.8447 17.6571 13.6768 17.6529C13.1818 17.6487 12.6868 17.6487 12.1918 17.6529C12.0283 17.6529 11.9422 17.5899 11.9206 17.4302C11.8819 17.1486 11.8346 16.8713 11.8001 16.5898C11.7872 16.4931 11.7528 16.4343 11.6581 16.3881C11.4988 16.3124 11.3568 16.2074 11.1975 16.1317C11.1416 16.1023 11.0555 16.0897 10.9952 16.1107C10.7154 16.2074 10.4443 16.3166 10.1688 16.4217C9.97077 16.4973 9.91482 16.4805 9.8029 16.2956C9.55755 15.888 9.31651 15.4804 9.07547 15.0728C8.96355 14.8837 8.96786 14.8375 9.14434 14.703C9.37677 14.5223 9.61351 14.35 9.84164 14.1651C9.88469 14.1315 9.91482 14.0559 9.91482 14.0012C9.92342 13.8458 9.88899 13.6819 9.91482 13.5306C9.94495 13.3667 9.87608 13.2827 9.75556 13.1944C9.54034 13.0431 9.34234 12.8751 9.13142 12.7238C9.0066 12.6313 8.97647 12.5347 9.05825 12.4002C9.32082 11.9674 9.57908 11.5304 9.83734 11.0933C9.91051 10.9715 10.0052 10.9463 10.1386 10.9967C10.4227 11.106 10.7068 11.2194 10.9952 11.3203C11.0555 11.3413 11.1502 11.3287 11.2104 11.2993C11.374 11.2194 11.5203 11.1144 11.6839 11.0345C11.77 10.9925 11.8001 10.9421 11.8087 10.858C11.8475 10.5723 11.8948 10.2865 11.9336 10.0008C11.9465 9.83691 12.0369 9.77808 12.1961 9.77808C12.6911 9.78228 13.1861 9.78228 13.6811 9.77808C13.8361 9.77808 13.9222 9.84111 13.9394 9.99239C13.9781 10.2739 14.0255 10.5513 14.0599 10.8328C14.0728 10.9379 14.1116 11.0009 14.2149 11.0471C14.3655 11.1144 14.5076 11.1984 14.6453 11.2908C14.7357 11.3539 14.8132 11.3539 14.9122 11.3119C15.179 11.2026 15.4502 11.106 15.7214 10.9967C15.872 10.9379 15.9753 10.9673 16.0571 11.1102C16.3025 11.5346 16.5607 11.9548 16.8104 12.375C16.9094 12.5431 16.8965 12.5977 16.7372 12.7196C16.5091 12.8919 16.281 13.0684 16.0485 13.2406C15.971 13.2995 15.9495 13.3541 15.9581 13.4508C15.9753 13.6272 15.9538 13.8079 15.9624 13.9844C15.9667 14.0475 15.9969 14.1231 16.0442 14.1609C16.2723 14.3458 16.5091 14.5181 16.7415 14.6946C16.9008 14.8165 16.9094 14.8711 16.8104 15.0392C16.5564 15.4678 16.3025 15.8922 16.0442 16.3166C16.0012 16.3923 15.928 16.4343 15.8763 16.4805ZM12.9236 15.1022C13.7026 15.1064 14.3483 14.4887 14.3526 13.7365C14.3569 12.9633 13.7285 12.3372 12.9451 12.333C12.1617 12.3288 11.516 12.9507 11.516 13.7155C11.5117 14.4719 12.1488 15.098 12.9236 15.1022Z" fill="#535F72"/>
</svg>
