<?xml version="1.0" encoding="UTF-8"?>
<svg width="17px" height="20px" viewBox="0 0 17 20" version="1.1" xmlns="http://www.w3.org/2000/svg" xmlns:xlink="http://www.w3.org/1999/xlink">
    <title>xiaoxi-2</title>
    <g id="控制台" stroke="none" stroke-width="1" fill="none" fill-rule="evenodd" fill-opacity="0.9">
        <g transform="translate(-1158.000000, -26.000000)" fill="#FFFFFF" fill-rule="nonzero" id="顶部栏">
            <g transform="translate(-1.000000, 0.000000)">
                <g id="xiaoxi-2" transform="translate(1159.000000, 26.000000)">
                    <path d="M15.845016,13.1788727 C15.5009046,13.0328594 15.2637308,12.7021105 15.2292062,12.3200997 L15.2292062,8.67787964 C15.2292062,5.23123717 12.2037049,2.9455228 10.9033836,2.22825105 C10.8319322,1.80053406 10.6454824,1.15420197 10.158888,0.656490351 C9.72296762,0.220632584 9.13509297,-0.0157254289 8.52807352,0.000813041363 L8.47165382,0.000813041363 C7.86458112,-0.0156683594 7.27667755,0.220765178 6.84075788,0.656700356 C6.35416344,1.15441198 6.16769328,1.80084907 6.09626227,2.22858706 C4.7963687,2.94596381 1.77074521,5.23165718 1.77074521,8.67787964 L1.77074521,12.3080454 C1.7406603,12.6946957 1.50266338,13.031225 1.15481319,13.1789777 C-0.036314612,13.7380948 -0.155508865,14.7959105 0.130133685,15.5998513 C0.269451642,15.9919934 0.584811282,16.3747694 2.72796549,16.3747694 L4.54920153,16.3747694 C4.66234645,18.3923285 6.37825893,20 8.47165382,20 C10.5650487,20 12.2810834,18.3923285 12.3942283,16.3746644 L14.2719655,16.3746644 C16.4150383,16.3746644 16.7304997,15.9918884 16.8697159,15.5997463 C17.1556639,14.7959105 17.036266,13.7376748 15.8449956,13.1788727 L15.845016,13.1788727 Z M8.47208155,18.6180207 C7.12179724,18.6180207 6.01159199,17.6294437 5.89781566,16.3746644 L11.0464696,16.3746644 C10.9322656,17.6294437 9.82203997,18.6180207 8.47165382,18.6180207 L8.47208155,18.6180207 Z M14.2723933,14.9926851 L2.72806734,14.9926851 C2.26369663,15.0016051 1.79944459,14.9692285 1.34046863,14.8959148 C1.33004015,14.6941841 1.44475341,14.561503 1.7122276,14.4359201 C2.53518838,14.0670529 3.08013347,13.2443498 3.11392105,12.3197847 L3.11392105,8.67787964 C3.11392105,5.62144728 6.37542776,3.57345846 6.97559486,3.32325862 L7.39544296,3.15304964 L7.39544296,2.68788878 C7.39815192,2.55415766 7.45227003,1.38309636 8.4728148,1.38309636 L8.5190097,1.38309636 C9.54393362,1.37603015 9.60157541,2.55361165 9.60430474,2.68349968 L9.60430474,3.14939556 L10.0241528,3.32401463 C10.6242996,3.57366846 13.8859285,5.62176228 13.8859285,8.67863566 L13.8859285,12.3205407 C13.9197019,13.2450686 14.4645931,14.067754 15.2874997,14.4366551 C15.555198,14.562238 15.6695039,14.6947091 15.6592791,14.8966288 C15.200383,14.9696774 14.7362342,15.0018081 14.2719859,14.9926641 L14.2723933,14.9926851 Z" id="形状"></path>
                </g>
            </g>
        </g>
    </g>
</svg>