<?xml version="1.0" standalone="no"?><!DOCTYPE svg PUBLIC "-//W3C//DTD SVG 1.1//EN" "http://www.w3.org/Graphics/SVG/1.1/DTD/svg11.dtd"><svg t="1618214123621" class="icon" viewBox="0 0 1024 1024" version="1.1" xmlns="http://www.w3.org/2000/svg" p-id="37762" xmlns:xlink="http://www.w3.org/1999/xlink" width="200" height="200"><defs><style type="text/css"></style></defs><path d="M202.5 126.3h62.4V63.9H190c-68.6 0-124.8 56.2-124.8 124.8v74.9h62.4v-60.2c0-42.5 33.7-77.1 74.9-77.1z m633.7-62.4h-74.9v62.4h62.4c41.2 0 74.9 34.6 74.9 77.1v60.2H961v-74.9c0-68.7-56.2-124.8-124.8-124.8zM961 832.1v-74.9h-62.4v60.2c0 42.4-33.7 77.1-74.9 77.1h-62.4v62.4h74.9c68.6 0 124.8-56.2 124.8-124.8z m-895.8 0c0 68.6 56.2 124.8 124.8 124.8h74.9v-62.4h-62.4c-41.2 0-74.9-34.6-74.9-77.1v-60.2H65.2v74.9z m447.9-396.9c-40.6 0-73.3 33.7-73.3 76.1 0 41.8 32.8 75.8 73.3 75.8 40.9 0 73.6-34 73.6-75.8 0-42-33-76.1-73.6-76.1z m0 0" fill="#666666" p-id="37763"></path><path d="M514 257.5c-192.6 0-348.9 148.8-348.9 255.6S321.4 767.8 514 767.8c193.5 0 349.8-151.4 349.8-254.7 0-103.4-156.4-255.6-349.8-255.6z m0 441.8c-147.6 0-268.6-104.6-268.6-186.7 0-81.7 120.5-187.1 268.6-187.1 148.5 0 269.9 106.3 269.9 187.1S662.5 699.3 514 699.3z m0 0" fill="#666666" p-id="37764"></path><path d="M65.2 263.6a31.2 31.2 0 1 0 62.4 0 31.2 31.2 0 1 0-62.4 0Z" fill="#666666" p-id="37765"></path><path d="M233.7 95.1a31.2 31.2 0 1 0 62.4 0 31.2 31.2 0 1 0-62.4 0Z" fill="#666666" p-id="37766"></path><path d="M730.5 95.1a31.2 31.2 0 1 0 62.4 0 31.2 31.2 0 1 0-62.4 0Z" fill="#666666" p-id="37767"></path><path d="M898.6 263.5a31.2 31.2 0 1 0 62.4 0 31.2 31.2 0 1 0-62.4 0Z" fill="#666666" p-id="37768"></path><path d="M730.4 925.7a31.2 31.2 0 1 0 62.4 0 31.2 31.2 0 1 0-62.4 0Z" fill="#666666" p-id="37769"></path><path d="M898.6 757.4a31.2 31.2 0 1 0 62.4 0 31.2 31.2 0 1 0-62.4 0Z" fill="#666666" p-id="37770"></path><path d="M65.2 757.2a31.2 31.2 0 1 0 62.4 0 31.2 31.2 0 1 0-62.4 0Z" fill="#666666" p-id="37771"></path><path d="M233.3 925.6a31.2 31.2 0 1 0 62.4 0 31.2 31.2 0 1 0-62.4 0Z" fill="#666666" p-id="37772"></path></svg>
