<?xml version="1.0" encoding="UTF-8"?>
<svg width="70px" height="25px" viewBox="0 0 70 25" version="1.1" xmlns="http://www.w3.org/2000/svg" xmlns:xlink="http://www.w3.org/1999/xlink">
    <title>error</title>
    <g id="控件" stroke="none" stroke-width="1" fill="none" fill-rule="evenodd">
        <g id="error">
            <rect id="矩形" fill="#FFECEC" x="0" y="0" width="70" height="25" rx="4"></rect>
            <circle id="椭圆形" fill="#DB5050" cx="12.5" cy="12.5" r="4.5"></circle>
            <g id="icon_wrong" transform="translate(10.275721, 10.311639)" fill="#FFFFFF" fill-rule="nonzero">
                <path d="M4.14493066,4.46017071 C3.93817896,4.54122038 3.70328501,4.49337856 3.54475036,4.33784575 L2.25302129,3.04761759 L0.961855054,4.33784575 C0.741782693,4.5577305 0.385126632,4.5577305 0.165054271,4.33784575 C-0.0550180903,4.11814862 -0.0550180903,3.76149256 0.165054271,3.54179543 L1.45659573,2.25137966 L0.165054271,0.961151498 C-0.0550180903,0.741266751 -0.0550180903,0.384798306 0.165054271,0.16491356 C0.385126632,-0.0549711866 0.741782693,-0.0549711866 0.961855054,0.16491356 L2.25302129,1.45570456 L3.54475036,0.16491356 C3.7657608,-0.0482170476 4.11716364,-0.0452152081 4.33442178,0.172042929 C4.55167991,0.389301065 4.55468175,0.740328677 4.3409883,0.961151498 L3.04982207,2.25137966 L4.3409883,3.54179543 C4.45168113,3.65305111 4.51021701,3.80595731 4.50196195,3.96280342 C4.49145551,4.1843767 4.35168235,4.37912104 4.14493066,4.46017071" id="路径"></path>
            </g>
            <text font-family="PingFangSC-Regular, PingFang SC" font-size="12" font-weight="normal" fill="#DB5050">
                <tspan x="27" y="17">error</tspan>
            </text>
        </g>
    </g>
</svg>