<?xml version="1.0" encoding="UTF-8"?>
<svg width="65px" height="25px" viewBox="0 0 65 25" version="1.1" xmlns="http://www.w3.org/2000/svg" xmlns:xlink="http://www.w3.org/1999/xlink">
    <title>finished</title>
    <g id="控件" stroke="none" stroke-width="1" fill="none" fill-rule="evenodd">
        <g id="finished">
            <rect id="矩形" fill="#F0FDF0" x="0" y="0" width="65" height="25" rx="4"></rect>
            <text font-family="PingFangSC-Regular, PingFang SC" font-size="12" font-weight="normal" fill="#78A674">
                <tspan x="17" y="17">finished</tspan>
            </text>
            <circle id="椭圆形" fill="#78A674" cx="10.5" cy="12.5" r="4.5"></circle>
            <g id="wancheng" transform="translate(8.000000, 10.500000)" fill="#FFFFFF" fill-rule="nonzero">
                <path d="M1.77107784,2.71502554 L4.23935262,0.0969929321 C4.36125223,-0.0323309774 4.55830562,-0.0323309774 4.68020524,0.0969929321 L4.90797389,0.338567835 C4.96688244,0.401057108 5,0.485985866 5,0.574565368 C5,0.663144871 4.96688244,0.748073629 4.90797389,0.810562901 L1.99712807,3.89809324 C1.98220809,3.91395864 1.96582645,3.92818197 1.94823124,3.94054782 C1.82425465,4.03226853 1.65648051,4.01643416 1.54955799,3.90292141 L0.0920261138,2.35690864 C0.0331175646,2.29441937 0,2.20949061 0,2.12091111 C0,2.03233161 0.0331175646,1.94740285 0.0920261138,1.88491358 L0.319794761,1.64333867 C0.441694378,1.51401476 0.638747767,1.51401476 0.760647385,1.64333867 L1.77107784,2.71502554 L1.77107784,2.71502554 Z" id="路径"></path>
            </g>
        </g>
    </g>
</svg>