<?xml version="1.0" standalone="no"?><!DOCTYPE svg PUBLIC "-//W3C//DTD SVG 1.1//EN" "http://www.w3.org/Graphics/SVG/1.1/DTD/svg11.dtd"><svg t="1624606878482" class="icon" viewBox="0 0 1024 1024" version="1.1" xmlns="http://www.w3.org/2000/svg" p-id="20462" xmlns:xlink="http://www.w3.org/1999/xlink" width="200" height="200"><defs><style type="text/css"></style></defs><path d="M592.128 245.8112c1.3312 0.4096 2.7136-0.2048 3.3792-1.3824 9.0624-16.8448 72.96-131.7888 160-187.2896 41.1648-23.5008 91.7504-37.632 121.1392 56.4736 29.3888 94.1056 7.6288 82.3296 21.76 117.0432s19.4048 68.1984 11.1616 98.2016c-8.2432 30.0032-12.9536 31.1808-1.1776 61.7472 11.776 30.5664 5.2736 84.6848-19.4048 122.88-24.6784 38.2464-17.0496 75.8784-9.4208 88.7808 6.1952 10.496-16.896-1.4336-28.7744-11.6224-2.048-1.7408-5.12-0.1024-4.864 2.56 1.7408 17.3056 1.8944 32.5632 8.9088 46.08 8.2432 10.5984-12.9536 7.6288-31.1808-4.096-10.1888-6.5536-14.7968-9.6256-17.4592-11.776a2.93888 2.93888 0 0 0-4.7616 1.8944c-3.072 19.0464-19.3536 46.7968-13.056 83.4048 7.0656 41.1648 16.4864 57.6512-8.2432 101.1712-23.04 40.6528-35.0208 57.7024-27.8016 95.1808 0.512 2.7136-2.6112 4.608-4.7616 2.8672-12.8-10.2912-21.6064-16.4864-27.392-25.6512a2.93376 2.93376 0 0 0-5.4272 1.3312c-2.3552 25.3952-8.3456 39.7824 0.512 59.8016 0.9728 2.2016-0.8704 4.6592-3.2768 4.1472-25.0368-4.9664-57.8048-16.0768-70.6048-27.8528a2.88768 2.88768 0 0 0-4.7616 1.4336c-5.7856 21.3504-21.2992 41.216-15.616 60.928 0.7168 2.4064-1.8432 4.5056-4.1472 3.4304-41.216-19.1488-56.7808-32.512-64.8704-43.776-1.536-2.1504-4.9152-1.2288-5.2736 1.4336-3.1232 22.528-22.7328 41.1136-37.12 50.7392-1.8432 1.2288-4.4544 0-4.5568-2.2528-1.0752-18.176-16.4352-44.0832-22.7328-54.0672a2.92352 2.92352 0 0 0-5.0176 0.0512c-7.2704 12.1344-21.248 26.368-67.5328 47.8208-2.304 1.0752-4.8128-1.024-4.1472-3.4304 5.6832-19.712-9.8304-39.5264-15.616-60.928-0.5632-2.0992-3.1744-2.9184-4.7616-1.4336-12.8 11.776-45.5168 22.8864-70.6048 27.8528a2.9696 2.9696 0 0 1-3.2768-4.1472c8.8576-20.0192 2.8672-34.4576 0.512-59.8016-0.256-2.816-3.9424-3.6864-5.4272-1.3312-5.7856 9.1648-14.592 15.3088-27.392 25.6512-2.1504 1.7408-5.3248-0.1536-4.7616-2.8672 7.2192-37.5296-4.7104-54.5792-27.8016-95.1808-24.6784-43.52-15.3088-60.0064-8.2432-101.1712 6.2976-36.608-9.984-64.3584-13.056-83.4048a2.95424 2.95424 0 0 0-4.7616-1.8944c-2.6624 2.1504-7.2704 5.2224-17.4592 11.776-18.2272 11.776-39.424 14.6944-31.1808 4.096 7.0144-13.5168 7.2192-28.7744 8.9088-46.08a2.95936 2.95936 0 0 0-4.864-2.56c-11.8272 10.1888-34.9184 22.1184-28.7744 11.6224 7.6288-12.9536 15.3088-50.5856-9.4208-88.7808s-31.1808-92.3136-19.4048-122.88c11.776-30.5664 7.0656-31.744-1.1776-61.7472-8.2432-30.0032-2.9184-63.488 11.1616-98.2016s-7.6288-22.9376 21.76-117.0432S230.0416 33.6384 271.2064 57.1392c87.296 55.6544 151.296 171.0592 160.1024 187.392 0.6144 1.1776 1.8944 1.7408 3.1744 1.4848 14.1312-2.816 96.0512-17.92 157.6448-0.2048z" fill="#211918" p-id="20463"></path><path d="M788.2752 794.0096c-4.4544-32.1536-24.6272-69.8368-29.5424-78.6432-0.512-0.8704 0.1536-1.9456 1.1776-1.8944 3.7888 0.2048 12.288 1.3312 24.6784 6.912 0.9728 0.4608 2.0992-0.4608 1.8432-1.4848-12.544-48.64-46.8992-78.4384-59.4432-87.9616-1.0752-0.8192-0.3584-2.56 1.024-2.304 6.3488 1.2288 16.8448 3.4816 24.6784 6.1952 1.024 0.3584 2.048-0.6656 1.6896-1.6896-20.2752-52.5824-75.8272-69.12-97.792-70.8608-22.3232-1.7408-35.584-2.3552-34.7136-11.1616 9.728-67.0208-42.3424-95.2832-60.4672-112.896-18.1248-17.664-30.4128-57.344-17.152-80.2816 29.3888-59.8528 15.4112-98.6112-0.2048-119.9104-23.6032-1.4848-46.9504-0.256-66.2016 1.6896-15.0528 21.6576-27.5968 59.9552 1.024 118.2208 13.2096 22.9376 0.9216 62.6176-17.152 80.2816-18.1248 17.664-70.144 45.8752-60.4672 112.896 0.8704 8.8064-12.3392 9.4208-34.7136 11.1616-21.9648 1.7408-77.5168 18.2784-97.792 70.8608-0.4096 1.024 0.6144 2.048 1.6896 1.6896 7.8336-2.7136 18.2784-4.9664 24.6784-6.1952 1.3312-0.256 2.0992 1.4848 1.024 2.304-12.4928 9.5232-46.8992 39.3216-59.4432 87.9616-0.256 1.024 0.8192 1.9456 1.8432 1.4848 12.4416-5.5296 20.8896-6.7072 24.6784-6.912 1.024-0.0512 1.6384 1.024 1.1776 1.8944-4.608 8.2432-22.4256 41.472-28.4672 71.9872 2.5088 6.7584 5.9392 14.1312 10.7008 22.528 23.04 40.6528 35.0208 57.7024 27.8016 95.1808-0.512 2.7136 2.6112 4.608 4.7616 2.8672 12.8-10.2912 21.6064-16.4864 27.392-25.6512 1.536-2.4064 5.1712-1.536 5.4272 1.3312 2.3552 25.3952 8.3456 39.7824-0.512 59.8016-0.9728 2.2016 0.8704 4.6592 3.2768 4.1472 25.0368-4.9664 57.8048-16.0768 70.6048-27.8528 1.5872-1.4848 4.1984-0.7168 4.7616 1.4336 5.7856 21.3504 21.2992 41.216 15.616 60.928-0.7168 2.4064 1.8432 4.5056 4.1472 3.4304 46.2848-21.504 60.2624-35.7376 67.5328-47.8208 1.1264-1.8944 3.84-1.9456 5.0176-0.0512 6.2976 9.984 21.6576 35.8912 22.7328 54.0672 0.1536 2.2528 2.7136 3.4816 4.5568 2.2528 14.336-9.6256 33.9968-28.2624 37.12-50.7392 0.3584-2.6624 3.7376-3.584 5.2736-1.4336 8.0384 11.264 23.6544 24.6272 64.8704 43.776 2.304 1.0752 4.8128-1.024 4.1472-3.4304-5.6832-19.712 9.8304-39.5264 15.616-60.928 0.5632-2.0992 3.1744-2.9184 4.7616-1.4336 12.8 11.776 45.5168 22.8864 70.5536 27.8528 2.4064 0.4608 4.2496-1.9456 3.2768-4.1472-8.8576-20.0192-2.8672-34.4576-0.512-59.8016 0.256-2.816 3.9424-3.6864 5.4272-1.3312 5.7856 9.1648 14.592 15.3088 27.392 25.6512 2.1504 1.7408 5.3248-0.1536 4.7616-2.8672-7.2192-37.5296 4.7104-54.5792 27.8016-95.1808a172.544 172.544 0 0 0 8.0384-15.9232z" fill="#ECE8E7" p-id="20464"></path><path d="M744.9088 632.4736c2.7136 0.7168 5.3248 1.536 7.7312 2.3552 1.024 0.3584 2.048-0.6656 1.6896-1.6896-6.144-15.872-15.5136-28.416-26.1632-38.2976 5.6832 10.9568 12.032 25.7536 16.7424 37.632zM788.2752 794.0096c-4.4544-32.1536-24.6272-69.8368-29.5424-78.6432a1.57696 1.57696 0 0 1-0.1536-0.6656c0-0.6656 0.5632-1.28 1.3312-1.2288 3.7888 0.2048 12.288 1.3312 24.6784 6.912 0.256 0.1024 0.512 0.1536 0.7168 0.1024 0.4608-0.0512 0.8704-0.4096 1.0752-0.8704a1.1264 1.1264 0 0 0 0.0512-0.7168c-11.3664-44.0832-40.6528-72.6528-55.3472-84.6848 8.1408 16.7424 27.5456 49.2544 29.0304 57.2416a4.25984 4.25984 0 0 1-5.0688 4.9664c-3.9424-0.8192-10.0864-1.792-19.2512-2.56-3.4816-0.3072-5.888 3.4816-4.096 6.4512 10.8032 17.9712 31.1296 62.9248 35.584 72.8064 0.5632 1.2288 0.512 2.6624-0.2048 3.84-1.3824 2.4576-4.3008 7.5264-9.728 16.7424-6.8096 11.6224-23.1936 45.6192-28.8768 57.5488-1.0752 2.2016-3.7376 3.1232-5.888 1.9456-3.584-1.9456-9.472-4.864-16.4864-7.168-1.7408-0.5632-3.6864 0-4.7104 1.4848-7.68 10.8544-14.9504 45.7216-17.5616 59.0848-0.512 2.7136-3.3792 4.1984-5.888 3.1232-9.1136-3.9424-29.5424-12.544-49.6128-19.712a4.2496 4.2496 0 0 0-5.12 1.8432c-5.5808 9.3696-16.7936 29.5936-22.8864 44.6976-1.024 2.56-4.1472 3.4816-6.4512 1.8944-9.5232-6.7584-32.256-23.2448-49.0496-38.4512a4.27008 4.27008 0 0 0-6.912 1.792c-2.9184 9.1136-10.8544 20.0192-16.5376 30.5152-1.6384 3.0208-5.888 2.9696-7.5776-0.0512-6.656-12.1344-20.1216-24.3712-32.512-34.1504a4.28032 4.28032 0 0 0-6.4512 1.3312c-6.656 12.4928-27.0336 29.9008-38.5024 39.6288-2.4064 2.048-5.9904 0.8704-6.912-2.1504-5.9904-20.736-23.6032-47.0016-34.6624-57.1904a4.3008 4.3008 0 0 0-5.9392 0.0512c-8.448 7.7824-27.5456 15.1552-38.0416 18.8928a4.26496 4.26496 0 0 1-5.6832-3.4816c-1.9456-17.7152-14.1312-46.0288-18.944-65.8944a4.26496 4.26496 0 0 0-7.4752-1.7408c-4.5568 5.5808-10.752 12.0832-16.2816 16.9472a4.25472 4.25472 0 0 1-6.912-1.9968c-6.912-22.9376-33.2288-67.7376-33.792-76.5952-0.6656-9.7792 4.5568-11.776 19.6096-47.7184 13.1584-31.488 0.256-22.8864-12.8-18.944-2.816 0.8192-5.6832-1.3312-5.5296-4.2496 0.5632-10.0864 3.7888-23.6544 6.0928-32.3584a4.11648 4.11648 0 0 0-1.2288-4.1984c-1.4336 1.7408-2.9184 3.584-4.352 5.5296-0.1024 0.1536-0.256 0.3072-0.3584 0.4608-1.3312 1.7408-2.6624 3.6352-3.9424 5.4784l-0.6656 0.9728c-1.1776 1.7408-2.3552 3.584-3.4816 5.4272-0.3072 0.512-0.6656 1.024-0.9728 1.536-1.024 1.7408-2.048 3.5328-3.072 5.3248-0.4096 0.6656-0.768 1.3312-1.1776 2.048-0.9216 1.7408-1.792 3.5328-2.7136 5.3248-0.4096 0.8192-0.8192 1.6384-1.2288 2.5088-0.8192 1.7408-1.5872 3.584-2.3552 5.4272-0.4096 0.9216-0.8192 1.8432-1.1776 2.816-0.768 1.9456-1.4848 3.9424-2.1504 5.9392-0.3072 0.9216-0.6656 1.792-0.9728 2.7136-0.9728 2.9696-1.8944 5.9904-2.6624 9.1136-0.0512 0.256-0.0512 0.512 0.0512 0.7168 0.1536 0.4608 0.5632 0.768 1.0752 0.8704 0.256 0.0512 0.512 0 0.7168-0.1024 5.4272-2.4064 10.0864-3.9936 13.9264-5.0176 4.9664-1.3312 8.6528-1.792 10.752-1.8944 0.512-0.0512 0.9216 0.2048 1.1264 0.6144 0.1024 0.2048 0.1536 0.4096 0.2048 0.6144 0 0.2048-0.0512 0.4608-0.1536 0.6656-1.9968 3.584-6.5536 11.9808-11.52 22.8352-2.8672 6.1952-5.8368 13.2096-8.5504 20.5824-3.4304 9.216-6.4512 19.0464-8.3456 28.5696 2.5088 6.7584 5.9392 14.1312 10.7008 22.528 7.2192 12.6976 13.312 23.0912 18.1248 32.512 0.9728 1.8944 1.8432 3.7376 2.7136 5.5808 8.4992 18.2272 11.4688 33.6384 6.9632 57.088a3.00544 3.00544 0 0 0 3.8912 3.4304c0.3072-0.1024 0.5632-0.256 0.8704-0.512 9.6256-7.7312 16.9472-13.1584 22.4768-19.2 1.8432-2.048 3.4816-4.1472 4.9152-6.4 0.5632-0.9216 1.4336-1.3312 2.304-1.3824 1.4848-0.1024 2.9696 0.9216 3.1232 2.7136 2.3552 25.3952 8.3456 39.7824-0.512 59.8016-0.7168 1.6896 0.1024 3.4304 1.5872 4.0448 0.512 0.2048 1.0752 0.256 1.6384 0.1536a259.05152 259.05152 0 0 0 44.6464-13.2096c10.9056-4.4544 20.3264-9.472 25.9072-14.592 0.4096-0.3584 0.8704-0.6144 1.3312-0.7168 0.7168-0.1536 1.4336 0.0512 2.048 0.4096 0.4096 0.256 0.768 0.5632 1.024 1.024 0.1024 0.2048 0.3072 0.4096 0.3584 0.6656 4.352 16.0256 14.1824 31.1808 16.384 46.08 0.3584 2.4576 0.512 4.9664 0.4096 7.424s-0.512 4.9152-1.1776 7.3728a2.93888 2.93888 0 0 0 3.2768 3.6864c0.3072-0.0512 0.5632-0.1024 0.8704-0.256 28.928-13.4144 45.2096-24.0128 55.1424-33.024 1.9968-1.792 3.7376-3.5328 5.2736-5.2224 3.072-3.3792 5.2736-6.5536 7.1168-9.5744 0.5632-0.9728 1.536-1.4336 2.5088-1.4336s1.9456 0.4608 2.56 1.3824c1.5872 2.5088 3.7376 5.9904 6.0928 10.0864 1.7408 3.072 3.6352 6.5536 5.4272 10.1888 5.4784 10.9056 10.5984 23.6032 11.2128 33.792a2.90304 2.90304 0 0 0 4.5568 2.2016c1.792-1.2288 3.6864-2.56 5.5808-4.0448 13.4144-10.3424 28.7744-27.0336 31.5392-46.7456 0.2048-1.6384 1.6384-2.6624 3.0208-2.6112 0.8192 0 1.6896 0.4096 2.2528 1.1776 8.0384 11.264 23.6544 24.6272 64.8704 43.776 0.3072 0.1536 0.5632 0.2048 0.8704 0.256 0.5632 0.1024 1.1264 0 1.6384-0.256 0.256-0.1024 0.4608-0.256 0.6656-0.4096a2.816 2.816 0 0 0 0.9216-3.0208c-1.4336-4.9152-1.536-9.8304-0.768-14.7968 0.3584-2.4576 0.9728-4.9664 1.6896-7.4752 2.9184-9.984 8.2944-20.1728 12.1344-30.6688 0.4608-1.3312 0.9216-2.6112 1.3824-3.9424 0.4096-1.3312 0.8192-2.6624 1.1776-3.9936 0.5632-2.0992 3.1744-2.9184 4.7616-1.4336 12.8 11.776 45.5168 22.8864 70.6048 27.8528 1.1776 0.256 2.2528-0.256 2.8672-1.0752 0.3072-0.4096 0.512-0.9216 0.6144-1.4336 0.0512-0.512 0-1.0752-0.256-1.6384-8.8576-20.0192-2.8672-34.4576-0.512-59.8016a2.9184 2.9184 0 0 1 1.4336-2.304c0.256-0.1536 0.512-0.256 0.8192-0.3072 0.3072-0.0512 0.5632-0.1024 0.8704-0.1024 0.3072 0 0.5632 0.0512 0.8704 0.2048 0.256 0.1024 0.5632 0.256 0.8192 0.4608 0.256 0.2048 0.4608 0.4608 0.6656 0.768 2.8672 4.5568 6.5536 8.3968 11.0592 12.3904 1.1264 0.9728 2.304 1.9968 3.584 3.0208 3.7376 3.072 7.9872 6.3488 12.8 10.24 0.5632 0.4096 1.1264 0.6656 1.7408 0.6656 0.6144 0 1.1776-0.1536 1.6896-0.4608a2.85696 2.85696 0 0 0 1.3824-3.1232c-3.1744-16.4352-2.6624-28.928 0.8704-41.1648 1.9968-7.0144 4.9664-13.9264 8.8064-21.504 4.8128-9.4208 10.9056-19.8144 18.1248-32.512 3.328-5.9904 5.9392-11.2128 8.0896-16.128z" fill="#D8D6D6" p-id="20465"></path><path d="M401.2032 551.1168s-2.816 38.0416 9.472 52.1216c12.288 14.1312 32.2048 24.2688 60.416 21.9136 8.8064-0.8704 9.3696 23.7056 42.2912 23.7056 23.9104 0 34.7136-12.1344 38.8096-18.7904 1.5872-2.56 4.3008-4.1472 7.3216-4.2496 11.4688-0.4096 38.912-3.1232 49.5104-19.6608 13.568-21.1456 12.7488-55.0912 12.7488-55.0912s40.0384 78.3872-47.7184 97.1264c-2.6112 0.5632-4.9664 1.9456-6.8096 3.8912-15.3088 16.0256-71.9872 26.0608-99.0208 2.2016-1.9456-1.7408-4.5056-2.6624-7.1168-2.9184-19.6608-1.9456-96.4096-15.36-59.904-100.2496z" fill="#D8D6D6" p-id="20466"></path><path d="M446.3616 417.536s-4.9152-36.864-42.8032-36.864c-37.0688 0-38.8096 26.9312-38.8608 31.5904-0.1024 10.5472 3.8912 39.5264 40.8064 39.5264s42.8544-26.368 40.8576-34.2528z" fill="#474646" p-id="20467"></path><path d="M398.8992 408.6272a13.9776 9.0624 0 1 0 27.9552 0 13.9776 9.0624 0 1 0-27.9552 0Z" fill="#FFFFFF" p-id="20468"></path><path d="M575.2832 416.768s4.9152-36.864 42.8032-36.864c37.0688 0 38.8096 26.9312 38.8608 31.5904 0.1024 10.5472-3.8912 39.5264-40.8064 39.5264s-42.9056-26.368-40.8576-34.2528z" fill="#474646" p-id="20469"></path><path d="M594.7904 407.8592a13.9776 9.0624 0 1 0 27.9552 0 13.9776 9.0624 0 1 0-27.9552 0Z" fill="#FFFFFF" p-id="20470"></path><path d="M561.92 500.0704c-8.192-12.0832-24.4736-18.176-48.4864-18.176-30.5664 0-44.1344 11.8272-50.176 21.76-6.8096 11.2128-6.4512 24.576-2.6112 32.0512 10.4448 20.0704 26.5728 31.1808 38.2464 36.9152 4.3008 2.1504 9.0112 3.1744 13.7216 3.1744 5.12 0 10.1888-1.2288 14.7968-3.7376 10.5472-5.6832 29.3376-17.8176 36.1472-34.9696 5.632-13.9776 5.0176-27.136-1.6384-37.0176z" fill="#1A1819" p-id="20471"></path><path d="M486.0928 515.4816a26.4704 14.4384 0 1 0 52.9408 0 26.4704 14.4384 0 1 0-52.9408 0Z" fill="#2D2D2D" p-id="20472"></path><path d="M391.2704 252.9792s-38.7584-133.888-154.0096-167.7312c-24.4736-5.2224-43.2128-11.52-44.6976 42.0352s-3.6352 49.8176-10.0864 55.5008c-17.8176 15.616-9.984 37.2224-4.0448 47.0016s3.3792 34.7136-11.776 54.272-0.4096 46.7968 2.56 66.2016c6.0928 39.3216-24.7808 49.2032-21.504 90.6752 1.2288 15.8208 9.8304 55.5008 26.624 44.288 9.7792-6.5024 4.9664-45.0048 15.6672-65.6896 13.5168-26.112 41.8816-35.4816 46.08-45.568 13.2096-31.9488-1.3312-66.9184 21.7088-69.12 22.9888-2.2016 41.4208-2.4576 45.4144-28.3648 3.9936-25.9072 39.0144-23.6544 54.7328-18.176 15.7696 5.4272 37.4272 6.5536 33.3312-5.3248zM631.0912 252.9792s38.7584-133.888 154.0096-167.7312c24.4736-5.2224 43.2128-11.52 44.6976 42.0352s3.6352 49.8176 10.0864 55.5008c17.8176 15.616 9.984 37.2224 4.0448 47.0016-5.9392 9.728-3.3792 34.7136 11.776 54.272 15.1552 19.5072 0.4096 46.7968-2.56 66.2016-6.0928 39.3216 24.7808 49.2032 21.504 90.6752-1.2288 15.8208-9.8304 55.5008-26.624 44.288-9.7792-6.5024-4.9664-45.0048-15.6672-65.6896-13.5168-26.112-41.8816-35.4816-46.08-45.568-13.2096-31.9488 1.3312-66.9184-21.7088-69.12-22.9888-2.2016-41.4208-2.4576-45.4144-28.3648s-39.0144-23.6544-54.7328-18.176-37.4272 6.5536-33.3312-5.3248z" fill="#262222" p-id="20473"></path><path d="M508.0576 1004.6464a13.14304 13.14304 0 0 1-13.1584-12.3392c-0.5632-9.1648-6.2464-23.6544-15.5648-39.8848-9.5232 11.264-26.7776 24.5248-65.2288 42.3936-4.7104 2.1504-10.2912 1.3824-14.2336-1.9456-3.8912-3.328-5.4784-8.704-4.0448-13.6192 2.816-9.6768-1.9456-20.6336-7.3728-33.3312-1.6896-3.9424-3.4304-7.936-5.0176-12.0832-17.1008 10.6496-44.9536 19.5072-66.7648 23.8592a13.056 13.056 0 0 1-12.8512-4.7104c-3.1232-3.8912-3.7888-9.1136-1.792-13.6704 5.4784-12.3392 4.0448-22.1184 1.8944-36.9152-0.0512-0.4608-0.1536-0.9216-0.2048-1.3824-3.84 3.4816-8.0896 6.8608-12.8512 10.6496l-5.4272 4.3008c-4.352 3.4816-10.2912 3.8912-15.104 1.024a13.08672 13.08672 0 0 1-6.144-13.824c5.9904-31.1296-2.1504-45.3632-21.8624-79.8208l-4.7616-8.3968c-4.9152-8.6528-8.6528-16.5376-11.4176-24.0128l-1.024-2.7136 0.5632-2.816c4.0448-20.5824 13.056-42.0352 20.3264-57.1904-1.1264 0.4608-2.304 0.9216-3.4816 1.4848-4.096 1.8432-8.7552 1.1776-12.1856-1.7408-3.4304-2.8672-4.8128-7.3728-3.7376-11.6736 8.1408-31.488 24.6272-55.4496 39.5264-71.7824-1.6896-0.5632-3.2768-1.5872-4.608-2.9184-3.1232-3.2256-4.096-7.9872-2.4576-12.1344 22.528-58.368 84.5312-75.6224 106.5472-77.3632l3.1744-0.256c7.8336-0.6144 17.3056-1.3312 21.76-2.5088-7.3216-59.648 30.6688-90.7776 53.504-109.5168 4.1472-3.4304 7.7824-6.4 10.3936-8.9088 15.4112-15.0016 25.7536-49.92 15.4624-67.84l-0.3072-0.6144c-30.72-62.5152-17.0496-104.448-0.256-128.6144l2.6624-3.84 4.6592-0.4608c24.2688-2.4576 47.1552-3.0208 67.8912-1.7408l4.7616 0.3072 2.816 3.8912c17.8176 24.32 32.4608 66.6624 1.1264 130.4576l-0.3072 0.6144c-10.2912 17.8688 0.0512 52.8384 15.4624 67.84 2.6112 2.56 6.1952 5.4784 10.3936 8.9088 22.784 18.688 60.6208 49.7152 53.504 109.5168 4.4544 1.1776 13.9264 1.8944 21.76 2.5088l3.1744 0.256c22.016 1.7408 84.0192 19.0464 106.5472 77.3632 1.5872 4.1472 0.6144 8.9088-2.4576 12.1344-1.28 1.3312-2.8672 2.304-4.608 2.9184 14.8992 16.3328 31.3856 40.2944 39.5264 71.7824 1.1264 4.3008-0.3072 8.8064-3.7376 11.6736-3.4304 2.9184-8.0896 3.584-12.1856 1.7408-1.2288-0.5632-2.4064-1.024-3.5328-1.4848 8.1408 16.9472 18.3808 41.728 21.5552 64.4096l0.4096 2.8672-1.1776 2.6624c-2.4064 5.4272-5.1712 10.9568-8.4992 16.7936l-4.7616 8.3968c-19.712 34.4576-27.8528 48.6912-21.8624 79.8208 1.0752 5.5296-1.3824 10.9568-6.144 13.824-4.8128 2.8672-10.7008 2.5088-15.104-1.024l-5.4272-4.352c-4.7104-3.7376-9.0112-7.168-12.8-10.5984-0.0512 0.4608-0.1536 0.9216-0.2048 1.3824-2.1504 14.848-3.584 24.6272 1.8944 36.9664 1.9968 4.5568 1.3312 9.7792-1.792 13.6704-3.072 3.84-7.9872 5.632-12.8512 4.7104-21.8112-4.3008-49.664-13.2096-66.7648-23.8592-1.5872 4.1472-3.2768 8.1408-5.0176 12.0832-5.4784 12.6976-10.1888 23.6544-7.424 33.3312 1.4336 4.9152-0.1536 10.24-4.0448 13.6192-3.9424 3.3792-9.5232 4.1472-14.2336 1.9968-32.5632-15.104-49.5616-26.9312-59.392-36.3008-9.1648 23.1424-30.5664 39.0144-37.8368 43.9296-2.1504 1.3312-4.7104 2.0992-7.2704 2.0992z m103.2192-19.7632s0 0.0512 0 0c0 0.0512 0 0 0 0z m-131.3792-58.9312c4.5568 0 8.704 2.304 11.1616 6.144 6.8096 10.752 17.4592 29.2352 22.0672 46.336 11.264-9.6256 21.6064-22.784 23.552-36.7104 0.768-5.4272 4.6592-9.7792 9.984-11.0592 5.2224-1.28 10.6496 0.7168 13.7728 5.0688 5.0688 7.0656 15.7184 18.176 49.2544 34.8672 0.6144-11.4176 5.2736-22.272 9.8816-32.8704 2.7648-6.3488 5.5808-12.9536 7.3216-19.3024 1.2288-4.4544 4.5568-7.936 9.0624-9.216 4.4544-1.28 9.1136-0.2048 12.544 2.9184 8.1408 7.4752 30.208 16.64 53.3504 22.5792-2.6112-12.1856-1.024-23.1424 0.768-35.328 0.768-5.2224 1.536-10.6496 2.0992-16.7424 0.512-5.632 4.5568-10.2912 10.0864-11.6224 5.5296-1.3312 11.2128 1.024 14.2336 5.7856 2.6624 4.1984 6.2976 7.8336 11.264 11.9296-1.1264-27.4944 9.472-46.08 26.4192-75.6736l4.7616-8.3456c2.4064-4.3008 4.5056-8.3456 6.3488-12.288-5.0176-30.1056-24.064-65.28-27.904-72.192-2.048-3.6352-1.9456-8.1408 0.256-11.7248s6.2464-5.5808 10.3936-5.376c2.304 0.1024 5.888 0.512 10.6496 1.6384-13.9776-35.2256-39.1168-57.2928-50.3296-65.8432a11.52 11.52 0 0 1-3.5328-13.9264c2.2016-4.9152 7.424-7.5776 12.6976-6.6048 1.8944 0.3584 3.9424 0.768 6.0928 1.28-22.784-34.9184-64.3072-46.0288-80.3328-47.3088l-3.1232-0.256c-19.3536-1.4848-30.976-2.4064-37.3248-9.984-2.816-3.3792-4.0448-7.5776-3.584-12.1344 7.3728-50.944-23.296-76.0832-45.7216-94.464-4.5568-3.7376-8.448-6.912-11.6736-10.0864-21.3504-20.7872-34.2528-65.5872-19.0976-92.416 24.9856-50.9952 16.3328-84.8896 3.2768-105.1648-16.9472-0.8192-35.328-0.3072-54.7328 1.4848-12.3392 20.1728-20.2752 53.6576 4.1984 103.68 15.1552 26.8288 2.2528 71.6288-19.0976 92.416-3.2256 3.1744-7.168 6.3488-11.6736 10.0864-22.4256 18.3808-53.0944 43.52-45.7728 94.0032 0.512 5.0176-0.7168 9.216-3.5328 12.5952-6.3488 7.5776-18.0224 8.4992-37.3248 10.0352l-3.1232 0.256c-16.0768 1.28-57.6 12.3904-80.3328 47.3088 2.2016-0.4608 4.2496-0.8704 6.0928-1.2288 5.2736-1.024 10.496 1.6896 12.6976 6.6048 2.2016 4.9152 0.768 10.6496-3.5328 13.8752-11.264 8.5504-36.352 30.6176-50.3296 65.8432 4.7616-1.1264 8.3456-1.536 10.6496-1.6384 4.1472-0.1536 8.1408 1.8432 10.3424 5.376 2.2016 3.584 2.304 8.0896 0.256 11.7248-3.4304 6.144-20.3776 37.376-26.7264 66.0992 2.2528 5.6832 5.2224 11.6736 9.0112 18.3296l4.7616 8.3456c16.896 29.5936 27.5456 48.1792 26.4192 75.6736 4.9152-4.1472 8.6016-7.7312 11.264-11.9808a13.2096 13.2096 0 0 1 14.2336-5.7856 13.312 13.312 0 0 1 10.0864 11.6224c0.5632 6.0928 1.3312 11.52 2.0992 16.7424 1.7408 12.1856 3.328 23.1936 0.768 35.328 23.1424-5.888 45.2096-15.0528 53.3504-22.528 3.4304-3.1232 8.0896-4.1984 12.544-2.9696 4.4544 1.28 7.8336 4.7616 9.0624 9.216 1.6896 6.3488 4.5568 12.9024 7.3216 19.3024 4.5568 10.5984 9.2672 21.4528 9.8816 32.8704 35.4816-17.664 46.0288-29.184 51.456-38.2464 2.4064-3.9936 6.5536-6.3488 11.1616-6.4-0.256 0.0512-0.2048 0.0512-0.1536 0.0512z m-6.144 17.152z m172.8512-19.3024s0 0.0512 0 0c0 0.0512 0 0 0 0z m107.4688-23.8592l0.0512 0.0512-0.0512-0.0512z m-481.3312 0c-0.0512 0-0.0512 0 0 0z m-17.4592-189.5936s0 0.0512 0 0c0 0.0512 0 0 0 0z m512.3584 0c0.0512 0 0.0512 0 0 0 0.0512 0 0.0512 0 0 0z" fill="#1A1819" p-id="20474"></path><path d="M539.904 603.136c-6.1952 0-12.5952-1.1776-18.3808-4.1472-2.8672-1.4848-5.9392-3.584-8.7552-6.656-0.6144 0.5632-1.28 1.1264-1.8944 1.5872-16.5888 12.9024-42.3424 7.0656-45.2608 6.3488a10.28096 10.28096 0 0 1-7.5264-12.3904 10.28096 10.28096 0 0 1 12.3904-7.5264c4.864 1.1776 20.3776 3.1744 27.8528-2.6624 1.1776-0.9216 4.7104-3.6864 4.8128-12.288l20.48-0.256c0.4096 12.0832 5.5808 14.7456 7.3216 15.616 7.3728 3.84 18.8416 0.9216 21.9648-1.0752 4.7616-3.1232 11.0592-1.792 14.1824 2.9696 3.1232 4.7104 1.792 11.0592-2.9696 14.1824-5.12 3.328-14.3872 6.2976-24.2176 6.2976z" fill="#1A1819" p-id="20475"></path><path d="M508.0576 1004.6464a13.14304 13.14304 0 0 1-13.1584-12.3392c-0.5632-9.1648-6.2464-23.6544-15.5648-39.8848-9.5232 11.264-26.7776 24.5248-65.2288 42.3936-4.7104 2.1504-10.2912 1.3824-14.2336-1.9456-3.8912-3.328-5.4784-8.704-4.0448-13.6192 2.816-9.6768-1.9456-20.6336-7.424-33.3312-1.6896-3.9424-3.4304-7.936-5.0176-12.0832-17.1008 10.6496-44.9536 19.5072-66.7648 23.8592a13.056 13.056 0 0 1-12.8512-4.7104c-3.1232-3.8912-3.7888-9.1136-1.792-13.6704 5.4784-12.3392 4.0448-22.1184 1.8944-36.9152-0.0512-0.4608-0.1536-0.9216-0.2048-1.3824-3.7888 3.4816-8.0896 6.8608-12.8 10.5984l-5.4272 4.352c-4.352 3.4816-10.2912 3.8912-15.104 1.024a13.08672 13.08672 0 0 1-6.144-13.824c5.9904-31.1296-2.1504-45.3632-21.8624-79.8208l-4.7616-8.3968c-22.7328-40.0896-18.7392-60.16-12.6976-90.624 1.0752-5.3248 2.2016-11.008 3.2768-17.3056 4.0448-23.5008-2.4064-43.5712-7.5776-59.6992-1.024-3.2256-2.048-6.3488-2.9184-9.4208-2.4576 1.5872-5.4272 3.5328-9.1648 5.9392-0.3072 0.2048-33.2288 21.1968-45.568 7.7824-1.1776-1.28-6.656-8.1408 0.1024-17.664 3.6864-7.4752 5.0688-16.0256 6.0416-25.6512-9.6256 6.0416-22.1184 11.52-29.184 5.5808-1.28-1.0752-7.424-6.9632-1.5872-16.7936 6.4-10.8544 12.6464-44.2368-9.1648-78.0288-25.0368-38.7072-33.9456-96.768-20.3776-132.1472 8.4992-22.0672 7.68-24.7296 2.4576-41.9328-1.1776-3.7888-2.5088-8.192-3.9424-13.4144-8.2944-30.2592-4.4032-65.4848 11.5712-104.7552 4.9152-12.0832 4.7616-16.7936 4.5056-25.344-0.4096-14.08-1.024-33.3824 16.9472-90.88 13.1584-42.0864 31.4368-67.1744 55.9104-76.8 29.0304-11.4176 59.648 2.816 80.0768 14.5408C359.8336 101.4784 421.0688 204.8 437.76 235.008c23.5008-4.3008 94.1568-15.0528 151.552-0.5632 17.0496-30.72 78.08-133.2736 160.7168-185.9584 20.8896-11.9808 51.456-26.2144 80.5376-14.7968 24.4736 9.6256 42.752 34.7136 55.9104 76.8 17.9712 57.4464 17.3568 76.7488 16.9472 90.88-0.256 8.5504-0.4096 13.2608 4.5056 25.344 15.9744 39.2704 19.8656 74.5472 11.5712 104.7552a408.3712 408.3712 0 0 1-3.9424 13.4144c-5.2224 17.2032-6.0416 19.8656 2.4064 41.9328 13.6192 35.3792 4.6592 93.3888-20.3776 132.1472-21.8112 33.792-15.616 67.1744-9.1648 78.0288 5.7856 9.8304-0.3072 15.7184-1.5872 16.7936-7.0656 5.9392-19.5584 0.4096-29.184-5.5808 0.9728 9.6256 2.304 18.176 6.0416 25.6512 6.7584 9.5232 1.28 16.3328 0.1024 17.664-12.288 13.4144-45.2608-7.5776-45.568-7.7824-3.7376-2.4064-6.7072-4.352-9.1648-5.9392-0.8704 3.0208-1.8944 6.1952-2.9184 9.3696-5.1712 16.128-11.6224 36.2496-7.5776 59.6992 1.0752 6.2976 2.2016 12.032 3.2768 17.3056 6.0416 30.4128 10.0352 50.5344-12.6976 90.624l-4.7616 8.3968c-19.712 34.4576-27.8528 48.6912-21.8624 79.8208 1.0752 5.5296-1.3312 10.9568-6.144 13.824-4.7616 2.8672-10.7008 2.5088-15.104-1.024l-5.4272-4.352c-4.7104-3.7376-9.0112-7.168-12.8-10.5984-0.0512 0.4608-0.1536 0.9216-0.2048 1.3824-2.1504 14.7968-3.584 24.6272 1.8944 36.9152 1.9968 4.5568 1.3312 9.7792-1.792 13.6704-3.072 3.84-7.9872 5.632-12.8512 4.7104-21.8112-4.3008-49.664-13.2096-66.7648-23.8592-1.5872 4.1472-3.2768 8.1408-5.0176 12.0832-5.4784 12.6976-10.1888 23.6544-7.424 33.3312 1.4336 4.9152-0.1536 10.24-4.0448 13.6192-3.9424 3.3792-9.5232 4.1472-14.2336 1.9968-32.5632-15.104-49.5616-26.9312-59.392-36.3008-9.1648 23.1424-30.5664 39.0144-37.8368 43.9296-2.2016 1.536-4.7616 2.304-7.3216 2.304z m103.2192-19.7632s0 0.0512 0 0c0 0.0512 0 0 0 0z m-131.3792-58.9312c4.5568 0 8.704 2.304 11.1616 6.144 6.8096 10.752 17.4592 29.2352 22.0672 46.336 11.264-9.6256 21.6064-22.784 23.552-36.7104 0.768-5.4272 4.6592-9.7792 9.984-11.0592 5.2224-1.28 10.6496 0.7168 13.7728 5.0688 5.0688 7.0656 15.6672 18.176 49.2544 34.8672 0.6144-11.4176 5.2736-22.272 9.8816-32.8704 2.7648-6.3488 5.5808-12.9536 7.3216-19.3024 1.2288-4.4544 4.608-7.936 9.0624-9.216s9.1136-0.2048 12.544 2.9184c8.1408 7.4752 30.208 16.64 53.3504 22.5792-2.56-12.1344-1.024-23.1424 0.768-35.328 0.768-5.2224 1.536-10.6496 2.0992-16.7424 0.512-5.632 4.5568-10.2912 10.0352-11.6224 5.4784-1.3312 11.2128 1.024 14.2336 5.7856 2.6624 4.2496 6.2976 7.8336 11.264 11.9808-1.1264-27.4944 9.472-46.08 26.4192-75.6736l4.7616-8.3456c18.9952-33.4336 16.128-47.8208 10.4448-76.4928-1.0752-5.4784-2.2528-11.3664-3.3792-17.8688-4.864-28.416 2.7136-52.1216 8.2432-69.4272 2.1504-6.7584 4.0448-12.5952 4.8128-17.3568 0.768-4.7104 3.9424-8.6528 8.3968-10.2912a13.056 13.056 0 0 1 12.9536 2.1504c2.2016 1.792 6.9632 4.9152 16.5376 11.1104 4.3008 2.7648 8.3968 4.7616 11.9808 6.1952-2.9696-9.728-3.84-19.8656-4.7616-30.4128-0.256-2.6624-0.4608-5.376-0.768-8.192-0.5632-5.4272 2.2016-10.5472 7.0656-13.056 4.8128-2.5088 10.5984-1.8432 14.6944 1.7408 1.9456 1.6896 4.096 3.2768 6.2976 4.8128-4.1472-20.9408-2.0992-50.8416 16.5888-79.7696 24.064-37.2736 28.3136-88.0128 18.432-113.664-10.496-27.3408-9.0624-35.0208-2.9184-55.2448 1.1264-3.6352 2.4064-7.8336 3.7888-12.9024 7.0656-25.8048 3.4304-56.6272-10.8032-91.648-6.5536-16.128-6.2976-24.2688-6.0416-33.6896 0.3584-12.6464 0.9216-29.952-16.0256-84.1216-11.008-35.2768-25.7536-56.7296-43.8272-63.8464-15.872-6.2464-35.7376-2.048-62.464 13.2096-85.1456 54.3232-149.0944 170.1888-156.0576 183.2448a13.06624 13.06624 0 0 1-15.2576 6.4c-58.9824-16.9472-137.6256-2.6112-152.832 0.4608-5.6832 1.1264-11.4176-1.536-14.1824-6.7072-7.0144-13.056-70.8608-128.9728-156.5696-183.6032-26.3168-15.0016-46.1312-19.2-62.0032-13.0048-18.0736 7.1168-32.8192 28.5696-43.8272 63.8464-16.9472 54.1696-16.384 71.4752-16.0256 84.1216 0.3072 9.4208 0.512 17.5616-6.0416 33.6896-14.2336 35.0208-17.8688 65.8432-10.8032 91.648 1.3824 5.0176 2.6624 9.216 3.7888 12.8512 6.144 20.224 7.6288 27.904-2.9184 55.2448-9.8816 25.6512-5.632 76.3904 18.432 113.664 18.7392 28.9792 20.736 58.88 16.64 79.7696 2.1504-1.4848 4.3008-3.1232 6.2464-4.7616 4.096-3.5328 9.8816-4.2496 14.6944-1.7408 4.8128 2.5088 7.5776 7.6288 7.0656 13.056l-0.768 8.1408c-0.9216 10.5472-1.792 20.6848-4.7616 30.4128 3.584-1.4336 7.7312-3.4304 11.9808-6.1952 9.5744-6.144 14.2848-9.2672 16.5376-11.1104 3.6352-2.9696 8.6016-3.7888 13.0048-2.1504 4.4032 1.6896 7.6288 5.632 8.3968 10.2912 0.768 4.7616 2.6112 10.5984 4.8128 17.3568 5.5296 17.3056 13.1072 41.0112 8.2432 69.4272-1.1264 6.5024-2.304 12.3904-3.3792 17.8688-5.6832 28.672-8.5504 43.0592 10.4448 76.4928l4.7616 8.3456c16.896 29.5936 27.5456 48.1792 26.4192 75.6736 4.9152-4.1472 8.6016-7.7312 11.264-11.9808a13.2096 13.2096 0 0 1 14.2336-5.7856 13.312 13.312 0 0 1 10.0864 11.6224c0.5632 6.0928 1.3312 11.52 2.0992 16.7424 1.7408 12.1856 3.328 23.1936 0.768 35.328 23.1424-5.888 45.2096-15.0528 53.3504-22.528a13.15328 13.15328 0 0 1 21.6064 6.2464c1.6896 6.2976 4.5568 12.9024 7.3216 19.2512 4.5568 10.5984 9.2672 21.504 9.8816 32.8704 35.4816-17.664 46.0288-29.184 51.456-38.2464 2.4064-3.9936 6.5536-6.3488 11.1616-6.4-0.1536 0.1024-0.1024 0.1024-0.0512 0.1024z m274.176-26.0096z m-481.3312 0c-0.0512 0-0.0512 0 0 0z m-102.1952-307.712z m685.6704-0.0512c0 0.0512 0 0.0512 0 0 0 0.0512 0 0.0512 0 0z m-261.2224-356.1984z" fill="#1A1819" p-id="20476"></path></svg>