<svg width="60" height="60" viewBox="0 0 60 60" fill="none" xmlns="http://www.w3.org/2000/svg">
    <path d="M1.5 16C1.5 13.175 1.50117 11.1464 1.63126 9.55417C1.75992 7.97941 2.00718 6.96394 2.42644 6.14108C3.24137 4.5417 4.5417 3.24137 6.14108 2.42644C6.96394 2.00718 7.97941 1.75992 9.55417 1.63126C11.1464 1.50117 13.175 1.5 16 1.5H44C46.825 1.5 48.8536 1.50117 50.4458 1.63126C52.0206 1.75992 53.0361 2.00718 53.8589 2.42644C55.4583 3.24137 56.7586 4.5417 57.5736 6.14108C57.9928 6.96394 58.2401 7.97941 58.3687 9.55417C58.4988 11.1464 58.5 13.175 58.5 16V44C58.5 46.825 58.4988 48.8536 58.3687 50.4458C58.2401 52.0206 57.9928 53.0361 57.5736 53.8589C56.7586 55.4583 55.4583 56.7586 53.8589 57.5736C53.0361 57.9928 52.0206 58.2401 50.4458 58.3687C48.8536 58.4988 46.825 58.5 44 58.5H16C13.175 58.5 11.1464 58.4988 9.55417 58.3687C7.97941 58.2401 6.96394 57.9928 6.14108 57.5736C4.5417 56.7586 3.24137 55.4583 2.42644 53.8589C2.00718 53.0361 1.75992 52.0206 1.63126 50.4458C1.50117 48.8536 1.5 46.825 1.5 44V16Z" fill="url(#paint0_linear_21262_9138)"/>
    <path d="M1.5 16C1.5 13.175 1.50117 11.1464 1.63126 9.55417C1.75992 7.97941 2.00718 6.96394 2.42644 6.14108C3.24137 4.5417 4.5417 3.24137 6.14108 2.42644C6.96394 2.00718 7.97941 1.75992 9.55417 1.63126C11.1464 1.50117 13.175 1.5 16 1.5H44C46.825 1.5 48.8536 1.50117 50.4458 1.63126C52.0206 1.75992 53.0361 2.00718 53.8589 2.42644C55.4583 3.24137 56.7586 4.5417 57.5736 6.14108C57.9928 6.96394 58.2401 7.97941 58.3687 9.55417C58.4988 11.1464 58.5 13.175 58.5 16V44C58.5 46.825 58.4988 48.8536 58.3687 50.4458C58.2401 52.0206 57.9928 53.0361 57.5736 53.8589C56.7586 55.4583 55.4583 56.7586 53.8589 57.5736C53.0361 57.9928 52.0206 58.2401 50.4458 58.3687C48.8536 58.4988 46.825 58.5 44 58.5H16C13.175 58.5 11.1464 58.4988 9.55417 58.3687C7.97941 58.2401 6.96394 57.9928 6.14108 57.5736C4.5417 56.7586 3.24137 55.4583 2.42644 53.8589C2.00718 53.0361 1.75992 52.0206 1.63126 50.4458C1.50117 48.8536 1.5 46.825 1.5 44V16Z" stroke="url(#paint1_linear_21262_9138)" stroke-width="3"/>
    <defs>
        <linearGradient id="paint0_linear_21262_9138" x1="30" y1="0" x2="30" y2="60" gradientUnits="userSpaceOnUse">
            <stop stop-color="#F4F4F4"/>
            <stop offset="1" stop-color="#FEFEFE"/>
        </linearGradient>
        <linearGradient id="paint1_linear_21262_9138" x1="30" y1="0" x2="30" y2="60" gradientUnits="userSpaceOnUse">
            <stop stop-color="white"/>
            <stop offset="1" stop-color="#ECECEC"/>
        </linearGradient>
    </defs>
</svg>
