<svg width="779" height="572" viewBox="0 0 779 572" fill="none" xmlns="http://www.w3.org/2000/svg">
<path d="M315 252C315 249.791 316.791 248 319 248H497C499.209 248 501 249.791 501 252V288C501 290.209 499.209 292 497 292H319C316.791 292 315 290.209 315 288V252Z" fill="#EEF1F7"/>
<path d="M0 256C0 253.791 1.79086 252 4 252H182C184.209 252 186 253.791 186 256V292C186 294.209 184.209 296 182 296H4C1.79086 296 0 294.209 0 292V256Z" fill="#2C65FF"/>
<path d="M315 475C315 472.791 316.791 471 319 471H497C499.209 471 501 472.791 501 475V511C501 513.209 499.209 515 497 515H319C316.791 515 315 513.209 315 511V475Z" fill="#EEF1F7"/>
<path d="M314 44C314 41.7909 315.791 40 318 40H496C498.209 40 500 41.7909 500 44V80C500 82.2091 498.209 84 496 84H318C315.791 84 314 82.2091 314 80V44Z" fill="#EEF1F7"/>
<path d="M337.392 55.436L335.908 55.688C336.062 55.968 336.202 56.262 336.328 56.584H330.77V57.816H343.216V56.584H337.77C337.644 56.164 337.518 55.786 337.392 55.436ZM340.948 68.4C342.04 68.4 342.6 67.924 342.6 66.986V62.016H331.4V68.442H332.66V63.164H341.34V66.706C341.34 67.07 341.074 67.266 340.556 67.266L339.478 67.21L339.786 68.4H340.948ZM332.968 58.474V61.386H341.046V58.474H332.968ZM339.772 60.378H334.242V59.482H339.772V60.378ZM334.158 63.836V66.776H339.856V63.836H334.158ZM338.68 65.796H335.348V64.816H338.68V65.796ZM348.872 65.292C347.626 65.768 346.17 66.16 344.518 66.44L344.686 67.728C346.254 67.434 347.64 67.042 348.872 66.552V65.292ZM346.996 55.478C346.464 56.962 345.834 58.32 345.12 59.552C344.952 59.79 344.77 59.944 344.56 60.028L344.896 61.246C345.624 61.162 346.338 61.064 347.038 60.966C346.352 62.03 345.778 62.772 345.33 63.206C345.162 63.374 344.966 63.5 344.728 63.584L345.078 64.788C346.45 64.62 347.892 64.312 349.404 63.864V62.66C348.48 62.94 347.584 63.178 346.702 63.346C347.514 62.38 348.536 60.84 349.754 58.74L348.592 58.306C348.312 58.824 348.032 59.314 347.766 59.762C347.234 59.846 346.688 59.902 346.142 59.958C346.87 58.936 347.57 57.606 348.27 55.982L346.996 55.478ZM350.832 57.242V57.844C350.804 62.296 349.908 65.516 348.158 67.532L349.152 68.4C350.468 66.888 351.35 64.76 351.798 62.044C352.19 63.22 352.736 64.298 353.422 65.278C352.666 66.062 351.728 66.72 350.608 67.252L351.35 68.47C352.498 67.938 353.492 67.238 354.318 66.384C354.99 67.14 355.788 67.826 356.712 68.442L357.566 67.322C356.642 66.762 355.83 66.118 355.13 65.404C356.054 64.116 356.67 62.506 356.978 60.602V59.86H355.242C355.452 59.006 355.662 57.998 355.886 56.822V55.996H349.558V57.242H350.832ZM354.206 64.354C353.142 62.968 352.428 61.358 352.064 59.524C352.092 58.992 352.12 58.432 352.12 57.844V57.242H354.528C354.22 58.894 353.954 60.154 353.716 61.022H355.648C355.382 62.268 354.906 63.374 354.206 64.354ZM367.338 58.824H369.144C369.088 60.504 368.836 61.988 368.374 63.276C367.884 62.184 367.478 60.91 367.17 59.454C367.226 59.258 367.282 59.048 367.338 58.824ZM367.772 64.634C367.156 65.74 366.33 66.636 365.294 67.336L365.98 68.442C366.96 67.742 367.786 66.874 368.444 65.852C369.116 66.93 369.9 67.798 370.81 68.456L371.552 67.378C370.6 66.734 369.788 65.824 369.088 64.662C369.844 63.052 370.264 61.106 370.348 58.824H371.16V57.55H367.604C367.716 56.976 367.8 56.374 367.884 55.73L366.582 55.506C366.302 58.11 365.77 60.182 364.986 61.722L365.826 62.758C366.078 62.338 366.302 61.862 366.526 61.358C366.876 62.576 367.296 63.668 367.772 64.634ZM361.136 62.016C361.052 62.268 360.954 62.548 360.842 62.828H358.868V63.962H360.338C360.072 64.494 359.764 65.04 359.428 65.628C360.072 65.88 360.688 66.118 361.262 66.356C360.506 66.748 359.596 67.056 358.546 67.308L359.162 68.4C360.548 68.036 361.71 67.56 362.634 66.958C363.404 67.308 364.062 67.644 364.608 67.98L365.322 66.944C364.79 66.664 364.23 66.384 363.656 66.132C364.3 65.488 364.748 64.746 365 63.906V62.828H362.144C362.228 62.604 362.298 62.394 362.382 62.17L361.136 62.016ZM362.438 65.628C361.976 65.432 361.5 65.264 361.01 65.096C361.234 64.732 361.444 64.354 361.64 63.962H363.81C363.502 64.578 363.054 65.138 362.438 65.628ZM360.17 55.73L359.12 56.08C359.442 56.598 359.75 57.2 360.03 57.872L360.982 57.438C360.744 56.822 360.478 56.262 360.17 55.73ZM364.188 55.716C363.936 56.276 363.586 56.85 363.138 57.438L364.062 57.914C364.496 57.34 364.846 56.752 365.126 56.164L364.188 55.716ZM358.896 58.11V59.272H360.66C360.24 59.916 359.554 60.518 358.574 61.078L359.232 62.156C360.31 61.4 361.08 60.518 361.542 59.51V61.876H362.76V60.308C363.194 60.588 363.712 60.98 364.328 61.47L365.028 60.42C364.258 60.014 363.502 59.65 362.76 59.342V59.272H365.196V58.11H362.76V55.534H361.542V58.11H358.896ZM374.31 68.316C375.178 68.316 375.626 67.854 375.626 66.93V63.052C376.018 62.87 376.41 62.674 376.816 62.478V61.176C376.424 61.386 376.018 61.582 375.626 61.764V59.37H376.858V58.096H375.626V55.562H374.338V58.096H372.77V59.37H374.338V62.268C373.736 62.478 373.134 62.66 372.518 62.8L372.854 64.116C373.344 63.948 373.834 63.78 374.338 63.598V66.608C374.338 66.972 374.17 67.154 373.862 67.154C373.526 67.154 373.19 67.112 372.84 67.056L373.12 68.316H374.31ZM378.664 62.24H381.184V63.682H378.944V68.442H380.176V67.84H383.494V68.442H384.726V63.682H382.472V62.24H385.356V61.022H382.472V59.622H385.02V55.996H377.446V60.56C377.432 63.402 376.956 65.726 376.018 67.532L377.054 68.456C377.95 66.664 378.482 64.592 378.664 62.24ZM381.184 59.622V61.022H378.72C378.72 60.868 378.734 60.714 378.734 60.56V59.622H381.184ZM380.176 66.664V64.858H383.494V66.664H380.176ZM383.732 57.214V58.432H378.734V57.214H383.732ZM389.99 57.606H398.586V56.472H390.578C390.69 56.192 390.788 55.912 390.886 55.618L389.584 55.38C389.08 56.892 388.128 58.18 386.728 59.23L387.526 60.28C388.016 59.902 388.478 59.496 388.898 59.048V62.968H390.536C389.808 63.85 388.716 64.578 387.232 65.166L387.918 66.3C388.576 65.992 389.192 65.642 389.752 65.264C390.424 65.81 391.166 66.286 391.964 66.706C390.592 67.056 388.954 67.266 387.064 67.336L387.596 68.484C389.92 68.344 391.908 67.98 393.56 67.392C395.142 67.966 396.934 68.302 398.936 68.4L399.244 67.182C397.76 67.126 396.402 66.958 395.17 66.664C396.164 66.118 396.976 65.446 397.606 64.662V63.724H391.46C391.656 63.486 391.838 63.234 392.02 62.968H397.55V58.348H389.486C389.654 58.11 389.822 57.858 389.99 57.606ZM393.574 66.188C392.566 65.824 391.656 65.348 390.844 64.788H395.94C395.31 65.348 394.526 65.81 393.574 66.188ZM396.262 61.932H390.2V61.134H396.262V61.932ZM390.2 60.154V59.37H396.262V60.154H390.2ZM402.31 58.432H403.99V59.93H400.714V61.176H403.99V62.352H401.26V67.574H402.548V63.584H403.99V68.442H405.306V63.584H406.748V65.81C406.748 66.118 406.552 66.286 406.174 66.286L405.558 66.23L405.894 67.476H406.58C407.532 67.476 408.008 67.014 408.008 66.09V62.352H405.306V61.176H408.218V59.93H405.306V58.432H407.812V57.214H405.306V55.562H403.99V57.214H402.716C402.8 56.892 402.87 56.528 402.94 56.136L401.694 55.94C401.512 57.228 401.092 58.222 400.42 58.95L401.498 59.72C401.806 59.384 402.086 58.95 402.31 58.432ZM408.876 56.822V65.39H410.164V56.822H408.876ZM411.578 68.316C412.502 68.316 412.978 67.84 412.978 66.888V55.562H411.662V66.552C411.662 66.93 411.48 67.126 411.116 67.126C410.5 67.126 409.87 67.098 409.198 67.042L409.492 68.316H411.578ZM417.052 55.464L416.38 61.806H424.276C424.276 64.298 424.108 65.796 423.8 66.328C423.506 66.818 422.61 67.07 421.126 67.07C420.846 67.07 420.342 67.028 419.628 66.958L419.978 68.176C420.468 68.204 420.944 68.232 421.392 68.232C423.142 68.232 424.276 67.938 424.808 67.35C425.34 66.734 425.62 64.466 425.62 60.56H417.864L418.06 58.586H426.432V57.312H418.186L418.368 55.576L417.052 55.464ZM414.672 63.752V65.026H422.568V63.752H414.672ZM431.22 55.52C430.758 58.278 429.862 60.476 428.532 62.114L429.442 63.248C429.82 62.8 430.184 62.282 430.52 61.722C430.842 62.814 431.206 63.752 431.612 64.55C430.828 65.586 429.848 66.426 428.686 67.07L429.4 68.33C430.562 67.686 431.57 66.86 432.41 65.838C432.676 66.188 432.97 66.482 433.292 66.734C434.58 67.714 436.694 68.204 439.634 68.204H441.188L441.454 66.818C440.614 66.874 439.802 66.916 439.004 66.916C436.736 66.888 435.084 66.496 434.048 65.754C433.74 65.53 433.446 65.208 433.166 64.788C434.202 63.164 434.888 61.162 435.224 58.754V57.564H432.144C432.284 56.99 432.41 56.388 432.522 55.744L431.22 55.52ZM431.29 60.154C431.458 59.734 431.626 59.3 431.78 58.838H433.922C433.614 60.574 433.11 62.086 432.382 63.374C431.99 62.506 431.626 61.442 431.29 60.154ZM436.792 55.59V65.964H438.122V60.532C438.85 61.148 439.732 62.002 440.768 63.066L441.566 61.876C440.39 60.854 439.242 59.944 438.122 59.132V55.59H436.792ZM447.698 55.996V62.688H450.596V64.088H447.53V65.32H450.596V66.776H446.984V68.05H455.454V66.776H451.912V65.32H454.964V64.088H451.912V62.688H454.782V55.996H447.698ZM453.508 61.512H451.912V59.916H453.508V61.512ZM450.596 61.512H448.972V59.916H450.596V61.512ZM448.972 58.768V57.172H450.596V58.768H448.972ZM451.912 57.172H453.508V58.768H451.912V57.172ZM442.868 60.602V61.876H444.254V65.082C443.694 65.222 443.12 65.348 442.532 65.446L442.854 66.72C444.324 66.37 445.696 65.936 446.984 65.432V64.144C446.536 64.34 446.074 64.508 445.598 64.676V61.876H447.012V60.602H445.598V57.606H447.18V56.346H442.658V57.606H444.254V60.602H442.868ZM458.688 63.724H461.572V64.746H458.688V63.724ZM461.572 62.632H458.688V61.554H461.572V62.632ZM458.688 65.852H461.572V66.636C461.572 67 461.404 67.182 461.082 67.182L460.088 67.126L460.41 68.372H461.502C462.398 68.372 462.86 67.882 462.86 66.916V60.392H457.4V68.47H458.688V65.852ZM467.634 61.722C468.138 61.722 468.516 61.61 468.768 61.4C469.02 61.162 469.216 60.462 469.328 59.3L468.082 58.894C468.054 59.678 467.97 60.154 467.858 60.322C467.76 60.462 467.606 60.532 467.382 60.532H465.716C465.38 60.532 465.212 60.294 465.212 59.846V58.446C466.71 58.222 468.026 57.97 469.174 57.704L468.74 56.528C467.83 56.78 466.654 57.004 465.212 57.228V55.576H463.896V60.126C463.896 61.19 464.372 61.722 465.352 61.722H467.634ZM465.212 64.956C466.612 64.816 467.942 64.592 469.174 64.256L468.74 63.066C467.704 63.374 466.528 63.612 465.212 63.752V62.212H463.896V66.958C463.896 67.798 464.372 68.232 465.324 68.232H467.648C468.166 68.232 468.544 68.12 468.782 67.91C469.034 67.686 469.216 66.986 469.328 65.81L468.124 65.418C468.082 66.202 467.998 66.678 467.886 66.846C467.788 66.972 467.62 67.042 467.396 67.042H465.702C465.366 67.042 465.212 66.916 465.212 66.664V64.956ZM461.852 56.5L460.83 57.144C461.11 57.55 461.376 57.942 461.628 58.334C460.494 58.474 459.43 58.586 458.45 58.642C459.178 57.942 459.836 57.032 460.424 55.884L459.15 55.506C458.702 56.458 458.044 57.41 457.19 58.362C457.022 58.502 456.826 58.614 456.588 58.698L456.952 59.804C458.996 59.692 460.746 59.524 462.202 59.3C462.37 59.594 462.524 59.888 462.664 60.168L463.756 59.384C463.308 58.572 462.678 57.606 461.852 56.5ZM475.684 55.562V57.046C475.67 57.452 475.656 57.858 475.628 58.278H471.582V59.566H475.516C475.348 61.078 475.04 62.394 474.606 63.486C473.934 65.04 472.688 66.314 470.84 67.322L471.554 68.442C473.43 67.518 474.788 66.188 475.628 64.466C476.23 63.15 476.636 61.512 476.86 59.566H480.962C480.892 62.702 480.738 64.76 480.5 65.726C480.276 66.636 479.786 67.098 479.044 67.098C478.526 67.098 477.98 67.084 477.392 67.056L477.756 68.344H479.702C480.444 68.288 480.976 67.98 481.312 67.406C481.648 66.804 481.886 65.754 482.026 64.256C482.166 62.73 482.25 60.742 482.306 58.278H476.972C477 57.872 477.014 57.466 477.028 57.046V55.562H475.684Z" fill="#1D2129"/>
<path d="M43.12 268.576V280H47.248C49.088 280 50.48 279.488 51.44 278.464C52.352 277.472 52.816 276.08 52.816 274.288C52.816 272.48 52.368 271.088 51.472 270.128C50.512 269.088 49.12 268.576 47.28 268.576H43.12ZM44.864 270.064H46.96C48.4 270.064 49.456 270.4 50.128 271.088C50.768 271.76 51.104 272.816 51.104 274.288C51.104 275.728 50.768 276.784 50.112 277.472C49.44 278.16 48.368 278.512 46.928 278.512H44.864V270.064ZM58.1568 271.504C57.1328 271.504 56.3008 271.68 55.6928 272.064C54.9888 272.48 54.5408 273.152 54.3648 274.048L56.0448 274.192C56.1408 273.728 56.3808 273.392 56.7648 273.168C57.0848 272.976 57.5168 272.88 58.0448 272.88C59.2928 272.88 59.9168 273.456 59.9168 274.608V274.944L58.0608 274.992C56.8448 275.024 55.8848 275.264 55.2128 275.744C54.4768 276.24 54.1088 276.96 54.1088 277.888C54.1088 278.576 54.3648 279.136 54.8928 279.568C55.3728 280 56.0448 280.224 56.9088 280.224C57.6448 280.224 58.2848 280.08 58.8288 279.824C59.3088 279.584 59.7088 279.248 60.0288 278.832V280H61.5968V274.72C61.5968 273.712 61.3408 272.944 60.8448 272.416C60.2688 271.808 59.3728 271.504 58.1568 271.504ZM59.9168 276.176V276.656C59.9168 277.296 59.6448 277.84 59.1328 278.272C58.6208 278.704 58.0128 278.928 57.2928 278.928C56.8608 278.928 56.5088 278.816 56.2528 278.608C55.9808 278.4 55.8528 278.144 55.8528 277.824C55.8528 276.8 56.6208 276.256 58.1727 276.224L59.9168 276.176ZM66.0501 269.056L64.3541 269.76V271.728H62.8181V273.136H64.3541V277.936C64.3541 278.592 64.4981 279.088 64.8181 279.44C65.1381 279.808 65.6661 280 66.3701 280H67.7301V278.592H66.6421C66.4341 278.592 66.2901 278.528 66.1941 278.432C66.0981 278.32 66.0501 278.16 66.0501 277.936V273.136H67.9381V271.728H66.0501V269.056ZM73.0318 271.504C72.0078 271.504 71.1758 271.68 70.5678 272.064C69.8638 272.48 69.4158 273.152 69.2398 274.048L70.9198 274.192C71.0158 273.728 71.2558 273.392 71.6398 273.168C71.9598 272.976 72.3918 272.88 72.9198 272.88C74.1678 272.88 74.7918 273.456 74.7918 274.608V274.944L72.9358 274.992C71.7198 275.024 70.7598 275.264 70.0878 275.744C69.3518 276.24 68.9838 276.96 68.9838 277.888C68.9838 278.576 69.2398 279.136 69.7678 279.568C70.2478 280 70.9198 280.224 71.7838 280.224C72.5198 280.224 73.1598 280.08 73.7038 279.824C74.1838 279.584 74.5838 279.248 74.9038 278.832V280H76.4718V274.72C76.4718 273.712 76.2158 272.944 75.7198 272.416C75.1438 271.808 74.2478 271.504 73.0318 271.504ZM74.7918 276.176V276.656C74.7918 277.296 74.5198 277.84 74.0078 278.272C73.4958 278.704 72.8878 278.928 72.1678 278.928C71.7358 278.928 71.3838 278.816 71.1278 278.608C70.8558 278.4 70.7278 278.144 70.7278 277.824C70.7278 276.8 71.4958 276.256 73.0477 276.224L74.7918 276.176ZM87.9013 268.352C86.6853 268.352 85.6773 268.624 84.8773 269.168C84.0293 269.744 83.6133 270.528 83.6133 271.536C83.6133 272.528 84.0453 273.296 84.9253 273.824C85.2773 274.016 86.1413 274.32 87.5493 274.768C88.8133 275.152 89.5653 275.408 89.8213 275.536C90.5413 275.904 90.9093 276.4 90.9093 277.04C90.9093 277.552 90.6533 277.952 90.1413 278.24C89.6293 278.528 88.9413 278.688 88.0773 278.688C87.1173 278.688 86.4133 278.512 85.9493 278.16C85.4373 277.776 85.1173 277.12 84.9893 276.224H83.2613C83.3573 277.664 83.8693 278.72 84.8133 279.392C85.5973 279.936 86.6853 280.224 88.0773 280.224C89.5173 280.224 90.6373 279.936 91.4373 279.36C92.2373 278.768 92.6373 277.968 92.6373 276.944C92.6373 275.888 92.1413 275.072 91.1653 274.48C90.7173 274.208 89.7093 273.84 88.1733 273.36C87.1013 273.04 86.4453 272.8 86.1893 272.656C85.6133 272.352 85.3413 271.952 85.3413 271.44C85.3413 270.864 85.5813 270.448 86.0773 270.192C86.4773 269.968 87.0533 269.856 87.8053 269.856C88.6693 269.856 89.3093 270.016 89.7573 270.352C90.2053 270.672 90.4933 271.216 90.6533 271.952H92.3813C92.2693 270.704 91.8212 269.792 91.0213 269.2C90.2693 268.624 89.2293 268.352 87.9013 268.352ZM97.6046 271.504C96.3886 271.504 95.4126 271.92 94.7086 272.768C93.9726 273.6 93.6206 274.624 93.6206 275.856C93.6206 277.216 94.0046 278.288 94.7726 279.088C95.4766 279.84 96.4526 280.224 97.6686 280.224C98.7726 280.224 99.6846 279.904 100.405 279.28C100.981 278.768 101.349 278.112 101.541 277.344H99.8446C99.6206 277.824 99.3806 278.192 99.0926 278.416C98.7246 278.688 98.2446 278.832 97.6526 278.832C96.9806 278.832 96.4526 278.608 96.0686 278.192C95.6846 277.76 95.4766 277.136 95.4126 276.336H101.685C101.669 274.864 101.333 273.712 100.693 272.88C99.9886 271.952 98.9486 271.504 97.6046 271.504ZM97.6526 272.896C98.9966 272.896 99.7486 273.616 99.9086 275.056H95.4446C95.5406 274.352 95.7806 273.824 96.1326 273.456C96.5166 273.072 97.0126 272.896 97.6526 272.896ZM106.972 271.504C106.46 271.504 106.012 271.648 105.628 271.968C105.308 272.192 105.036 272.528 104.828 272.976V271.728H103.132V280H104.828V275.616C104.828 274.896 105.036 274.304 105.468 273.856C105.868 273.44 106.332 273.232 106.844 273.232C107.228 273.232 107.628 273.28 108.044 273.408V271.712C107.756 271.568 107.388 271.504 106.972 271.504ZM108.205 271.728L111.277 280H112.973L116.045 271.728H114.205L112.125 277.888L110.045 271.728H108.205ZM118.285 268.416C117.949 268.416 117.677 268.512 117.453 268.736C117.229 268.944 117.117 269.216 117.117 269.552C117.117 269.872 117.229 270.16 117.453 270.384C117.677 270.592 117.949 270.704 118.285 270.704C118.605 270.704 118.893 270.592 119.117 270.384C119.341 270.16 119.469 269.888 119.469 269.552C119.469 269.216 119.357 268.944 119.133 268.736C118.909 268.512 118.621 268.416 118.285 268.416ZM117.437 271.728V280H119.133V271.728H117.437ZM125.109 271.504C123.829 271.504 122.837 271.936 122.117 272.8C121.445 273.6 121.109 274.624 121.109 275.872C121.109 277.152 121.445 278.176 122.133 278.976C122.837 279.808 123.813 280.224 125.077 280.224C126.133 280.224 126.997 279.952 127.637 279.424C128.277 278.88 128.709 278.048 128.901 276.944H127.221C127.061 278.192 126.357 278.832 125.093 278.832C124.357 278.832 123.813 278.56 123.445 278.048C123.045 277.52 122.853 276.784 122.853 275.856C122.853 274.928 123.045 274.192 123.461 273.68C123.861 273.152 124.405 272.896 125.109 272.896C125.685 272.896 126.149 273.024 126.501 273.296C126.853 273.552 127.077 273.968 127.189 274.528H128.869C128.709 273.504 128.293 272.736 127.653 272.224C127.013 271.744 126.165 271.504 125.109 271.504ZM133.855 271.504C132.639 271.504 131.663 271.92 130.959 272.768C130.223 273.6 129.871 274.624 129.871 275.856C129.871 277.216 130.255 278.288 131.023 279.088C131.727 279.84 132.703 280.224 133.919 280.224C135.023 280.224 135.935 279.904 136.655 279.28C137.231 278.768 137.599 278.112 137.791 277.344H136.095C135.871 277.824 135.631 278.192 135.343 278.416C134.975 278.688 134.495 278.832 133.903 278.832C133.231 278.832 132.703 278.608 132.319 278.192C131.935 277.76 131.727 277.136 131.663 276.336H137.935C137.919 274.864 137.583 273.712 136.943 272.88C136.239 271.952 135.199 271.504 133.855 271.504ZM133.903 272.896C135.247 272.896 135.999 273.616 136.159 275.056H131.695C131.791 274.352 132.031 273.824 132.383 273.456C132.767 273.072 133.263 272.896 133.903 272.896ZM142.47 271.504C141.478 271.504 140.662 271.712 140.038 272.144C139.414 272.56 139.11 273.152 139.11 273.904C139.11 274.608 139.43 275.168 140.07 275.568C140.454 275.824 141.142 276.064 142.118 276.288C142.966 276.48 143.526 276.64 143.782 276.768C144.262 276.992 144.518 277.312 144.518 277.712C144.518 278.448 143.846 278.832 142.534 278.832C141.894 278.832 141.446 278.72 141.158 278.512C140.87 278.288 140.662 277.888 140.566 277.328H138.902C139.094 279.248 140.31 280.224 142.582 280.224C145.03 280.224 146.262 279.344 146.262 277.6C146.262 276.864 145.926 276.288 145.27 275.872C144.822 275.584 144.118 275.312 143.174 275.088C142.342 274.88 141.798 274.72 141.51 274.592C141.062 274.384 140.838 274.144 140.838 273.856C140.838 273.536 140.982 273.28 141.286 273.12C141.542 272.96 141.926 272.896 142.438 272.896C143.014 272.896 143.462 272.992 143.75 273.184C144.022 273.36 144.214 273.664 144.342 274.112H145.99C145.798 272.368 144.614 271.504 142.47 271.504Z" fill="#F2F2F2"/>
<path d="M646.008 5.004V15H649.48C651.048 15 652.252 14.538 653.092 13.628C653.89 12.76 654.296 11.542 654.296 10.002C654.296 8.434 653.918 7.216 653.176 6.376C652.364 5.452 651.174 5.004 649.592 5.004H646.008ZM647.156 5.998H649.41C650.726 5.998 651.678 6.334 652.294 7.02C652.868 7.664 653.162 8.658 653.162 10.002C653.162 11.304 652.84 12.298 652.224 12.97C651.566 13.656 650.586 14.006 649.284 14.006H647.156V5.998ZM655.893 5.004V15H659.365C660.933 15 662.137 14.538 662.977 13.628C663.775 12.76 664.181 11.542 664.181 10.002C664.181 8.434 663.803 7.216 663.061 6.376C662.249 5.452 661.059 5.004 659.477 5.004H655.893ZM657.041 5.998H659.295C660.611 5.998 661.563 6.334 662.179 7.02C662.753 7.664 663.047 8.658 663.047 10.002C663.047 11.304 662.725 12.298 662.109 12.97C661.451 13.656 660.471 14.006 659.169 14.006H657.041V5.998ZM665.778 5.004V15H672.694V14.006H666.912V5.004H665.778ZM675.87 3.422C675.254 4.318 674.778 5.284 674.428 6.306C674.008 7.51 673.812 8.728 673.812 9.974C673.812 11.192 674.008 12.41 674.428 13.614C674.778 14.622 675.254 15.588 675.87 16.498H676.85C676.276 15.56 675.828 14.594 675.52 13.6C675.1 12.368 674.904 11.15 674.904 9.96C674.904 8.756 675.1 7.552 675.52 6.32C675.828 5.312 676.276 4.346 676.85 3.422H675.87ZM678.67 5.004V15H679.818V7.048H679.86L683.318 15H684.354L687.812 7.048H687.854V15H689.002V5.004H687.574L683.864 13.53H683.822L680.098 5.004H678.67ZM690.078 7.762L692.948 14.832L691.702 17.772H692.92L696.882 7.762H695.65L693.508 13.474L691.296 7.762H690.078ZM701.321 4.808C700.285 4.808 699.431 5.032 698.773 5.48C698.031 5.956 697.667 6.642 697.667 7.51C697.667 8.35 698.045 8.994 698.815 9.442C699.137 9.61 699.907 9.89 701.111 10.254C702.231 10.576 702.945 10.814 703.225 10.982C703.883 11.332 704.219 11.822 704.219 12.452C704.219 12.984 703.967 13.404 703.463 13.712C702.959 14.02 702.287 14.174 701.475 14.174C700.579 14.174 699.907 13.978 699.445 13.614C698.941 13.208 698.633 12.564 698.535 11.696H697.401C697.485 12.928 697.919 13.838 698.703 14.44C699.375 14.944 700.299 15.196 701.475 15.196C702.665 15.196 703.603 14.944 704.303 14.454C705.003 13.95 705.353 13.25 705.353 12.382C705.353 11.472 704.933 10.772 704.107 10.268C703.687 10.016 702.819 9.694 701.503 9.302C700.537 9.022 699.921 8.812 699.669 8.672C699.095 8.364 698.815 7.958 698.815 7.454C698.815 6.88 699.053 6.46 699.529 6.18C699.949 5.928 700.523 5.816 701.265 5.816C702.077 5.816 702.707 5.984 703.155 6.348C703.589 6.698 703.869 7.23 703.995 7.958H705.129C705.031 6.908 704.653 6.11 703.981 5.578C703.337 5.06 702.441 4.808 701.321 4.808ZM711.175 4.808C709.663 4.808 708.487 5.312 707.619 6.32C706.793 7.272 706.387 8.504 706.387 10.016C706.387 11.514 706.793 12.746 707.619 13.698C708.487 14.692 709.663 15.196 711.161 15.196C712.225 15.196 713.135 14.93 713.891 14.426C714.269 14.93 714.647 15.462 715.039 16.022L715.795 15.364C715.417 14.818 715.039 14.286 714.647 13.782C714.661 13.754 714.689 13.726 714.717 13.698C715.529 12.746 715.949 11.528 715.949 10.016C715.949 8.49 715.529 7.258 714.717 6.306C713.849 5.298 712.659 4.808 711.175 4.808ZM711.175 5.83C712.323 5.83 713.219 6.208 713.863 6.978C714.479 7.734 714.801 8.742 714.801 10.016C714.801 11.206 714.521 12.172 713.961 12.914C713.401 12.228 712.827 11.584 712.253 10.968L711.567 11.626C712.127 12.214 712.687 12.872 713.247 13.586C712.687 13.978 711.987 14.174 711.161 14.174C710.013 14.174 709.103 13.782 708.459 12.998C707.843 12.242 707.535 11.248 707.535 10.016C707.535 8.77 707.843 7.776 708.459 7.02C709.117 6.222 710.027 5.83 711.175 5.83ZM717.539 5.004V15H724.455V14.006H718.673V5.004H717.539ZM730.25 3.52L725.28 16.4H726.288L731.244 3.52H730.25ZM737.138 4.808C735.626 4.808 734.45 5.312 733.582 6.32C732.756 7.272 732.35 8.504 732.35 10.016C732.35 11.514 732.756 12.746 733.582 13.698C734.45 14.692 735.626 15.196 737.124 15.196C738.622 15.196 739.812 14.692 740.68 13.698C741.492 12.746 741.912 11.528 741.912 10.016C741.912 8.49 741.492 7.258 740.68 6.306C739.812 5.298 738.622 4.808 737.138 4.808ZM737.138 5.83C738.286 5.83 739.182 6.208 739.826 6.978C740.442 7.734 740.764 8.742 740.764 10.016C740.764 11.276 740.442 12.27 739.826 13.026C739.182 13.782 738.272 14.174 737.124 14.174C735.976 14.174 735.066 13.782 734.422 12.998C733.806 12.242 733.498 11.248 733.498 10.016C733.498 8.77 733.806 7.776 734.422 7.02C735.08 6.222 735.99 5.83 737.138 5.83ZM746.54 7.566C746.036 7.566 745.602 7.72 745.224 8.028C744.916 8.266 744.664 8.602 744.468 9.022V7.762H743.362V15H744.468V11.164C744.468 10.492 744.65 9.918 745.042 9.442C745.42 8.938 745.896 8.7 746.456 8.7C746.806 8.7 747.17 8.742 747.534 8.854V7.734C747.268 7.622 746.932 7.566 746.54 7.566ZM751.625 7.566C750.757 7.566 750.071 7.734 749.539 8.07C748.951 8.434 748.573 9.008 748.419 9.764L749.525 9.848C749.637 9.386 749.875 9.036 750.253 8.812C750.589 8.588 751.023 8.49 751.555 8.49C752.815 8.49 753.445 9.092 753.445 10.31V10.688L751.709 10.716C750.617 10.73 749.777 10.94 749.189 11.332C748.517 11.752 748.195 12.368 748.195 13.194C748.195 13.782 748.419 14.272 748.867 14.65C749.301 15.014 749.875 15.196 750.603 15.196C751.275 15.196 751.877 15.042 752.409 14.748C752.857 14.496 753.235 14.174 753.515 13.782V15H754.565V10.352C754.565 9.512 754.341 8.854 753.921 8.378C753.417 7.832 752.661 7.566 751.625 7.566ZM753.445 11.528V12.144C753.445 12.704 753.179 13.208 752.661 13.642C752.129 14.09 751.527 14.314 750.841 14.314C750.393 14.314 750.029 14.202 749.749 13.992C749.469 13.768 749.343 13.502 749.343 13.166C749.343 12.116 750.155 11.584 751.779 11.556L753.445 11.528ZM759.418 7.566C758.34 7.566 757.486 7.944 756.87 8.714C756.296 9.414 756.016 10.31 756.016 11.416C756.016 12.522 756.296 13.418 756.87 14.104C757.472 14.832 758.312 15.196 759.404 15.196C760.3 15.196 761.014 14.958 761.56 14.496C762.12 14.02 762.47 13.306 762.638 12.382H761.518C761.35 13.628 760.636 14.258 759.404 14.258C758.676 14.258 758.116 13.992 757.738 13.488C757.346 12.984 757.164 12.284 757.164 11.402C757.164 10.52 757.36 9.82 757.752 9.302C758.158 8.77 758.718 8.504 759.418 8.504C759.992 8.504 760.454 8.63 760.818 8.91C761.168 9.19 761.392 9.61 761.49 10.17H762.596C762.47 9.288 762.134 8.63 761.574 8.196C761.028 7.776 760.314 7.566 759.418 7.566ZM764.176 4.808V15H765.282V4.808H764.176ZM770.229 7.566C769.179 7.566 768.353 7.944 767.737 8.7C767.121 9.414 766.827 10.31 766.827 11.374C766.827 12.55 767.135 13.474 767.779 14.174C768.395 14.846 769.235 15.196 770.271 15.196C771.209 15.196 771.979 14.916 772.581 14.384C773.071 13.936 773.393 13.376 773.561 12.676H772.441C772.259 13.18 772.021 13.558 771.713 13.81C771.349 14.104 770.859 14.258 770.271 14.258C769.585 14.258 769.039 14.034 768.647 13.586C768.255 13.138 768.045 12.508 767.989 11.696H773.701C773.673 10.436 773.393 9.442 772.861 8.742C772.273 7.958 771.391 7.566 770.229 7.566ZM770.257 8.504C771.629 8.504 772.399 9.274 772.539 10.828H768.017C768.087 10.114 768.311 9.554 768.703 9.134C769.095 8.714 769.613 8.504 770.257 8.504ZM774.957 3.422C775.517 4.346 775.965 5.312 776.287 6.32C776.693 7.552 776.903 8.756 776.903 9.96C776.903 11.15 776.693 12.368 776.287 13.6C775.965 14.594 775.517 15.56 774.957 16.498H775.937C776.539 15.588 777.015 14.622 777.379 13.614C777.785 12.41 777.995 11.192 777.995 9.974C777.995 8.728 777.785 7.51 777.379 6.306C777.015 5.284 776.539 4.318 775.937 3.422H774.957Z" fill="#535F72"/>
<path d="M628 182H575C563.954 182 555 190.954 555 202V252" stroke="#C9CDD4"/>
<path d="M628 234H573C563.059 234 555 242.059 555 252V252" stroke="#C9CDD4"/>
<path d="M500 270H555" stroke="#C9CDD4"/>
<path d="M500 493H555" stroke="#C9CDD4"/>
<path d="M627 291H575C563.954 291 555 282.046 555 271V252" stroke="#C9CDD4"/>
<path d="M627 343H575C563.954 343 555 334.046 555 323V252" stroke="#C9CDD4"/>
<path d="M628 406H575C563.954 406 555 414.954 555 426V476" stroke="#C9CDD4"/>
<path d="M628 458H573C563.059 458 555 466.059 555 476V476" stroke="#C9CDD4"/>
<path d="M627 515H575C563.954 515 555 506.046 555 495V476" stroke="#C9CDD4"/>
<path d="M627 567H575C563.954 567 555 558.046 555 547V476" stroke="#C9CDD4"/>
<path d="M646.456 58.404V59.384H649.004V62.758H645.756V63.738H658.244V62.758H654.996V59.384H657.558V58.404H654.996V55.548H653.974V58.404H650.026V55.492H649.004V58.404H646.456ZM650.026 62.758V59.384H653.974V62.758H650.026ZM650.026 64.228C648.878 65.46 647.45 66.552 645.756 67.476L646.456 68.372C648.164 67.392 649.606 66.23 650.782 64.914L650.026 64.228ZM654.086 64.256L653.358 64.956C655.094 66.16 656.452 67.294 657.446 68.358L658.23 67.56C657.11 66.468 655.738 65.362 654.086 64.256ZM661.814 58.53V61.358H670.2V58.53H661.814ZM669.234 60.49H662.78V59.398H669.234V60.49ZM665.846 55.534L664.698 55.716C664.936 56.024 665.16 56.374 665.37 56.738H659.924V57.69H672.076V56.738H666.476C666.28 56.29 666.07 55.898 665.846 55.534ZM659.616 64.9V65.824H665.748V66.832C665.748 67.308 665.524 67.546 665.104 67.546C664.656 67.546 664.04 67.518 663.256 67.476L663.522 68.4H665.496C666.322 68.4 666.742 67.966 666.742 67.126V65.824H672.384V64.9H666.742V64.634C668.268 64.046 669.626 63.486 670.802 62.94V62.212H660.974V63.122H668.814C667.638 63.612 666.616 64.018 665.748 64.354V64.9H659.616ZM673.798 58.138V59.104H675.436V62.254C674.848 62.478 674.26 62.66 673.644 62.814L673.882 63.808C674.414 63.64 674.932 63.444 675.436 63.248V66.734C675.436 67.154 675.254 67.364 674.904 67.364C674.582 67.364 674.246 67.336 673.882 67.294L674.092 68.246H675.24C676.024 68.246 676.416 67.826 676.416 66.986V62.828C676.836 62.632 677.27 62.408 677.69 62.184V61.19C677.27 61.414 676.85 61.638 676.416 61.848V59.104H677.732V58.138H676.416V55.576H675.436V58.138H673.798ZM682.296 55.478L681.246 55.646C681.456 56.038 681.652 56.458 681.82 56.92H678.348V59.328H679.3V57.844H684.97V59.328H685.908V56.92H682.8C682.632 56.388 682.464 55.898 682.296 55.478ZM680.868 58.488C680.364 59.496 679.622 60.308 678.628 60.91L679.37 61.554C680.336 60.91 681.12 60 681.722 58.824L680.868 58.488ZM683.248 58.376L682.492 58.852C683.388 59.832 684.102 60.728 684.62 61.54L685.404 60.994C684.9 60.252 684.186 59.384 683.248 58.376ZM678.796 62.128V63.066H683.486C681.498 63.962 680.084 64.802 679.258 65.572C678.782 66.048 678.544 66.51 678.544 66.972C678.558 67.77 679.104 68.176 680.168 68.19H684.186C684.844 68.176 685.334 68.036 685.656 67.756C685.908 67.518 686.132 66.804 686.3 65.628L685.348 65.32C685.236 66.286 685.11 66.86 684.956 67.028C684.816 67.196 684.55 67.28 684.158 67.28H680.21C679.804 67.266 679.608 67.126 679.608 66.874C679.608 66.664 679.734 66.412 680 66.132C680.756 65.348 682.52 64.298 685.278 62.982V62.128H678.796ZM689.296 68.274C690.038 68.274 690.416 67.784 690.416 66.804V63.01C690.878 62.8 691.34 62.576 691.802 62.324V61.316C691.354 61.568 690.892 61.806 690.416 62.03V59.216H691.774V58.25H690.416V55.618H689.436V58.25H687.784V59.216H689.436V62.436C688.848 62.66 688.246 62.842 687.63 63.01L687.868 63.976C688.386 63.808 688.904 63.626 689.436 63.416V66.566C689.436 67.112 689.268 67.392 688.96 67.392C688.596 67.392 688.204 67.364 687.784 67.322L687.994 68.274H689.296ZM698.718 62.982H697.374V60.392H696.422V62.982H695.12V61.078H694.196V63.864H696.422V66.72H694.812V64.718H693.874V68.26H694.812V67.616H699.012V68.26H699.95V64.718H699.012V66.72H697.374V63.864H699.642V61.078H698.718V62.982ZM698.9 57.06V58.726H693.44V57.06H698.9ZM693.44 59.622H699.866V56.122H692.46V60.854C692.446 63.654 691.956 65.936 690.976 67.714L691.732 68.386C692.852 66.286 693.426 63.766 693.44 60.854V59.622Z" fill="#535F72"/>
<path d="M656.704 109.228H651.342C651.622 108.752 651.846 108.22 652 107.66L650.978 107.52C650.838 108.108 650.6 108.668 650.292 109.228H647.296V120.386H648.318V119.518H655.682V120.386H656.704V109.228ZM648.318 118.552V116.27H655.682V118.552H648.318ZM648.318 115.346V113.204H655.682V115.346H648.318ZM648.318 112.28V110.194H655.682V112.28H648.318ZM661.898 111.72V112.672H665.566V118.776C665.426 118.748 665.286 118.706 665.16 118.664C664.152 118.342 663.312 117.586 662.64 116.382C662.892 115.654 663.116 114.856 663.284 113.988L662.304 113.82C661.828 116.228 660.932 118.146 659.588 119.574L660.232 120.372C661.03 119.56 661.702 118.552 662.248 117.348C662.822 118.258 663.578 118.93 664.502 119.364C665.734 119.882 667.75 120.148 670.578 120.148H672.146L672.328 119.14C671.572 119.196 670.844 119.224 670.13 119.224C668.73 119.21 667.554 119.126 666.574 118.986V116.088H670.746V115.136H666.574V112.672H670.13V111.72H661.898ZM671.726 108.99H666.644C666.448 108.416 666.224 107.898 666 107.436L664.922 107.604C665.174 108.024 665.412 108.486 665.622 108.99H660.274V112.042H661.254V109.914H670.746V111.972H671.726V108.99ZM678.894 107.562L677.942 107.996C678.81 108.976 679.594 110.096 680.308 111.356L681.218 110.894C680.546 109.69 679.776 108.57 678.894 107.562ZM683.766 108.22C683.178 111.258 681.946 113.75 680.07 115.696C678.306 114.044 676.934 111.972 675.954 109.494L675.03 110.012C676.08 112.532 677.508 114.66 679.328 116.41C677.816 117.726 675.954 118.748 673.742 119.462L674.302 120.372C676.598 119.616 678.544 118.538 680.126 117.124C681.722 118.468 683.584 119.546 685.74 120.358L686.37 119.42C684.27 118.692 682.45 117.684 680.882 116.396C682.842 114.366 684.13 111.72 684.76 108.444L683.766 108.22ZM687.854 110.278V111.244H689.744C689.296 112.98 688.54 114.506 687.504 115.85L687.924 116.942C688.68 115.822 689.296 114.59 689.758 113.218V120.33H690.78V113.302C691.158 113.918 691.606 114.716 692.124 115.696L692.67 114.898L692.348 114.436L692.95 114.87C693.818 113.876 694.574 112.7 695.218 111.328L694.378 110.908C693.776 112.196 693.048 113.316 692.208 114.24C691.732 113.582 691.256 112.966 690.78 112.392V111.244H692.236V110.278H690.78V107.59H689.758V110.278H687.854ZM692.6 109.368V110.348H700.132V109.368H697.038C696.786 108.64 696.506 107.982 696.226 107.422L695.204 107.59C695.512 108.122 695.778 108.724 696.03 109.368H692.6ZM697.99 110.852L697.206 111.342C698.186 112.602 698.97 113.736 699.544 114.772L700.384 114.198C699.824 113.246 699.026 112.126 697.99 110.852ZM697.556 113.484C697.332 114.744 696.898 115.836 696.282 116.746C695.498 115.822 695.008 114.772 694.826 113.582L693.944 113.848C694.196 115.248 694.77 116.466 695.666 117.516C694.77 118.468 693.566 119.154 692.054 119.546L692.628 120.456C694.168 120.022 695.414 119.28 696.394 118.244C697.304 119.084 698.494 119.784 699.95 120.372L700.454 119.476C699.054 118.944 697.906 118.272 697.01 117.474C697.738 116.452 698.228 115.178 698.508 113.666L697.556 113.484ZM708.462 111.678V112.546H712.396V111.678C712.872 112.196 713.404 112.686 714.006 113.148L714.552 112.308C712.816 110.964 711.584 109.41 710.884 107.618H709.96C709.12 109.564 707.902 111.146 706.334 112.364L706.866 113.176C707.426 112.742 707.958 112.238 708.462 111.678ZM712.354 111.622H708.504C709.232 110.782 709.862 109.774 710.422 108.598C710.898 109.69 711.542 110.698 712.354 111.622ZM706.74 118.944V119.91H714.384V118.944H712.27C712.83 117.404 713.292 115.64 713.684 113.652L712.718 113.414C712.298 115.612 711.822 117.46 711.29 118.944H706.74ZM708.028 113.82L707.16 114.114C707.65 115.374 708.056 116.676 708.364 118.048L709.232 117.838C708.868 116.326 708.476 114.982 708.028 113.82ZM710.184 113.414L709.316 113.68C709.736 114.884 710.072 116.144 710.324 117.446L711.206 117.236C710.898 115.794 710.562 114.52 710.184 113.414ZM705.172 109.13L704.556 113.974H702.904L703.464 110.124L702.54 110.068L701.882 114.87H705.452C705.452 116.998 705.368 118.272 705.228 118.72C705.088 119.14 704.682 119.364 704.01 119.364C703.814 119.364 703.464 119.336 702.974 119.28L703.24 120.176C703.576 120.204 703.912 120.218 704.234 120.218C705.116 120.218 705.69 119.966 705.97 119.49C706.236 119 706.376 117.166 706.376 113.974H705.508L706.18 108.206H701.784V109.13H705.172ZM704.654 116.116C703.73 116.452 702.638 116.718 701.406 116.928L701.532 117.88C702.694 117.656 703.73 117.376 704.654 117.026V116.116Z" fill="#535F72"/>
<path d="M651.496 178.936V182.24H646.96V183.178H651.496V186.93H645.798V187.924H658.216V186.93H652.518V183.178H657.054V182.24H652.518V178.936H657.726V177.942H651.958L652.504 177.732C652.308 177.06 652.042 176.332 651.692 175.534L650.712 175.8C651.048 176.486 651.342 177.2 651.58 177.942H646.288V178.936H651.496ZM668.212 178.67H670.284C670.228 180.56 669.934 182.212 669.388 183.626C668.828 182.45 668.38 181.036 668.03 179.398L668.212 178.67ZM668.926 184.634C668.282 185.824 667.428 186.79 666.336 187.546L666.854 188.386C667.904 187.63 668.772 186.692 669.444 185.572C670.144 186.748 670.984 187.7 671.964 188.4L672.51 187.574C671.502 186.888 670.648 185.922 669.92 184.662C670.704 183.01 671.138 181.008 671.208 178.67H672.118V177.704H668.422C668.534 177.088 668.646 176.416 668.73 175.702L667.75 175.534C667.47 178.194 666.91 180.308 666.084 181.876L666.714 182.646C667.008 182.142 667.288 181.568 667.54 180.924C667.918 182.324 668.38 183.556 668.926 184.634ZM662.29 182.072C662.192 182.352 662.08 182.646 661.954 182.954H659.91V183.836H661.562C661.282 184.396 660.96 184.97 660.596 185.586C661.282 185.838 661.926 186.104 662.542 186.37C661.73 186.832 660.736 187.21 659.588 187.518L660.064 188.358C661.464 187.966 662.626 187.448 663.55 186.804C664.376 187.168 665.09 187.546 665.706 187.91L666.252 187.126C665.636 186.79 664.992 186.482 664.32 186.174C665.048 185.502 665.566 184.704 665.874 183.78V182.954H662.948C663.032 182.702 663.13 182.45 663.228 182.184L662.29 182.072ZM663.396 185.782C662.892 185.572 662.36 185.376 661.8 185.18C662.08 184.76 662.332 184.312 662.556 183.836H664.964C664.628 184.564 664.096 185.222 663.396 185.782ZM661.016 175.828L660.218 176.094C660.554 176.626 660.862 177.228 661.156 177.914L661.884 177.578C661.632 176.962 661.352 176.374 661.016 175.828ZM665.272 175.786C665.02 176.374 664.656 176.962 664.208 177.564L664.922 177.928C665.37 177.34 665.72 176.738 666 176.122L665.272 175.786ZM659.938 178.25V179.132H661.926C661.506 179.902 660.75 180.602 659.672 181.232L660.162 182.044C661.366 181.232 662.206 180.28 662.668 179.174V181.834H663.606V180.014C664.11 180.35 664.712 180.798 665.412 181.358L665.93 180.574C665.146 180.098 664.362 179.664 663.606 179.286V179.132H666.154V178.25H663.606V175.576H662.668V178.25H659.938ZM675.296 188.274C676.08 188.274 676.472 187.854 676.472 187.042V182.954C676.906 182.758 677.34 182.562 677.774 182.338V181.344C677.354 181.568 676.92 181.778 676.472 181.974V179.216H677.816V178.25H676.472V175.604H675.492V178.25H673.812V179.216H675.492V182.38C674.876 182.604 674.232 182.8 673.588 182.954L673.84 183.934C674.386 183.766 674.932 183.57 675.492 183.36V186.79C675.492 187.182 675.31 187.392 674.96 187.392C674.624 187.392 674.26 187.364 673.896 187.322L674.106 188.274H675.296ZM679.482 182.086H682.338V183.808H680V188.4H680.938V187.714H684.732V188.4H685.67V183.808H683.318V182.086H686.314V181.176H683.318V179.524H685.95V176.122H678.572V180.504C678.558 183.444 678.054 185.852 677.06 187.7L677.844 188.4C678.768 186.58 679.314 184.48 679.482 182.086ZM682.338 179.524V181.176H679.538C679.538 180.952 679.552 180.728 679.552 180.504V179.524H682.338ZM680.938 186.818V184.704H684.732V186.818H680.938ZM684.97 177.06V178.614H679.552V177.06H684.97ZM688.078 176.99V177.97H691.48C690.57 179.944 689.268 181.68 687.56 183.178L688.19 183.976C688.722 183.5 689.212 183.01 689.688 182.492V188.414H690.668V181.288C691.424 180.28 692.068 179.174 692.586 177.97H700.132V176.99H692.964C693.118 176.542 693.258 176.094 693.398 175.632L692.376 175.506C692.236 176.01 692.068 176.5 691.886 176.99H688.078ZM691.76 183.5V184.466H695.82V186.79C695.82 187.21 695.596 187.434 695.176 187.434C694.602 187.434 694.07 187.42 693.566 187.406L693.832 188.358H695.582C696.408 188.358 696.828 187.938 696.828 187.112V184.466H700.328V183.5H696.828V182.618C697.78 181.988 698.634 181.316 699.39 180.616V179.678H692.838V180.616H698.102C697.374 181.232 696.618 181.75 695.82 182.198V183.5H691.76ZM702.876 180.602V188.414H703.856V178.698C704.22 177.844 704.542 176.934 704.794 175.982L703.884 175.562C703.394 177.634 702.596 179.468 701.49 181.078L701.826 182.156C702.204 181.652 702.554 181.134 702.876 180.602ZM705.746 176.122L705.06 176.794C705.9 177.55 706.572 178.278 707.062 178.95L707.804 178.208C707.244 177.508 706.558 176.822 705.746 176.122ZM704.416 179.916V180.854H705.984V186.44C705.984 186.636 705.886 186.818 705.69 186.986L706.096 187.91C706.88 187.21 707.636 186.426 708.336 185.544L708.098 184.55C707.692 185.026 707.314 185.46 706.95 185.852V179.916H704.416ZM708.518 177.2V178.082H710.198V179.888H708.21V180.812H710.758C709.834 181.792 708.77 182.548 707.58 183.094L708.084 183.892C708.42 183.724 708.756 183.556 709.092 183.36V188.372H710.03V187.784H712.648V188.372H713.6V182.128H710.744C711.178 181.736 711.598 181.288 711.99 180.812H714.286V179.888H712.676C713.292 178.964 713.852 177.914 714.328 176.738L713.488 176.304C713.236 176.892 712.97 177.466 712.69 178.026V177.2H711.108V175.59H710.198V177.2H708.518ZM711.528 179.888H711.108V178.082H712.662C712.312 178.726 711.934 179.328 711.528 179.888ZM710.03 185.362H712.648V186.902H710.03V185.362ZM712.648 184.522H710.03V183.01H712.648V184.522Z" fill="#535F72"/>
<path d="M654.212 230.67H656.284C656.228 232.56 655.934 234.212 655.388 235.626C654.828 234.45 654.38 233.036 654.03 231.398L654.212 230.67ZM654.926 236.634C654.282 237.824 653.428 238.79 652.336 239.546L652.854 240.386C653.904 239.63 654.772 238.692 655.444 237.572C656.144 238.748 656.984 239.7 657.964 240.4L658.51 239.574C657.502 238.888 656.648 237.922 655.92 236.662C656.704 235.01 657.138 233.008 657.208 230.67H658.118V229.704H654.422C654.534 229.088 654.646 228.416 654.73 227.702L653.75 227.534C653.47 230.194 652.91 232.308 652.084 233.876L652.714 234.646C653.008 234.142 653.288 233.568 653.54 232.924C653.918 234.324 654.38 235.556 654.926 236.634ZM648.29 234.072C648.192 234.352 648.08 234.646 647.954 234.954H645.91V235.836H647.562C647.282 236.396 646.96 236.97 646.596 237.586C647.282 237.838 647.926 238.104 648.542 238.37C647.73 238.832 646.736 239.21 645.588 239.518L646.064 240.358C647.464 239.966 648.626 239.448 649.55 238.804C650.376 239.168 651.09 239.546 651.706 239.91L652.252 239.126C651.636 238.79 650.992 238.482 650.32 238.174C651.048 237.502 651.566 236.704 651.874 235.78V234.954H648.948C649.032 234.702 649.13 234.45 649.228 234.184L648.29 234.072ZM649.396 237.782C648.892 237.572 648.36 237.376 647.8 237.18C648.08 236.76 648.332 236.312 648.556 235.836H650.964C650.628 236.564 650.096 237.222 649.396 237.782ZM647.016 227.828L646.218 228.094C646.554 228.626 646.862 229.228 647.156 229.914L647.884 229.578C647.632 228.962 647.352 228.374 647.016 227.828ZM651.272 227.786C651.02 228.374 650.656 228.962 650.208 229.564L650.922 229.928C651.37 229.34 651.72 228.738 652 228.122L651.272 227.786ZM645.938 230.25V231.132H647.926C647.506 231.902 646.75 232.602 645.672 233.232L646.162 234.044C647.366 233.232 648.206 232.28 648.668 231.174V233.834H649.606V232.014C650.11 232.35 650.712 232.798 651.412 233.358L651.93 232.574C651.146 232.098 650.362 231.664 649.606 231.286V231.132H652.154V230.25H649.606V227.576H648.668V230.25H645.938ZM661.296 240.274C662.08 240.274 662.472 239.854 662.472 239.042V234.954C662.906 234.758 663.34 234.562 663.774 234.338V233.344C663.354 233.568 662.92 233.778 662.472 233.974V231.216H663.816V230.25H662.472V227.604H661.492V230.25H659.812V231.216H661.492V234.38C660.876 234.604 660.232 234.8 659.588 234.954L659.84 235.934C660.386 235.766 660.932 235.57 661.492 235.36V238.79C661.492 239.182 661.31 239.392 660.96 239.392C660.624 239.392 660.26 239.364 659.896 239.322L660.106 240.274H661.296ZM665.482 234.086H668.338V235.808H666V240.4H666.938V239.714H670.732V240.4H671.67V235.808H669.318V234.086H672.314V233.176H669.318V231.524H671.95V228.122H664.572V232.504C664.558 235.444 664.054 237.852 663.06 239.7L663.844 240.4C664.768 238.58 665.314 236.48 665.482 234.086ZM668.338 231.524V233.176H665.538C665.538 232.952 665.552 232.728 665.552 232.504V231.524H668.338ZM666.938 238.818V236.704H670.732V238.818H666.938ZM670.97 229.06V230.614H665.552V229.06H670.97ZM684.704 228.248H675.31V240.414H676.332V239.476H683.696V240.386H684.704V228.248ZM676.332 238.496V235.864H683.696V238.496H676.332ZM676.332 234.94V232.476H683.696V234.94H676.332ZM676.332 231.552V229.228H683.696V231.552H676.332ZM689.408 228.094V229.004H696.464V230.404H689.884V231.286H696.464V232.644H688.008V233.554H693.412V235.304C691.858 236.732 690.01 237.95 687.854 238.972L688.26 239.91C690.248 238.846 691.97 237.67 693.412 236.354V238.916C693.412 239.322 693.258 239.532 692.978 239.532C692.502 239.532 692.012 239.504 691.494 239.462L691.704 240.414H693.314C694.042 240.414 694.42 239.994 694.42 239.154V236.27C695.68 237.726 697.388 238.958 699.544 239.966L700.048 239.07C698.564 238.426 697.276 237.67 696.184 236.816C697.192 236.284 698.074 235.514 698.858 234.506L698.088 233.862C697.36 234.898 696.492 235.696 695.498 236.256C695.106 235.906 694.756 235.542 694.42 235.15V233.554H700.006V232.644H697.486V228.094H689.408ZM689.52 234.086L688.848 234.73C689.772 235.36 690.486 235.962 691.018 236.522L691.662 235.864C691.088 235.276 690.374 234.674 689.52 234.086Z" fill="#535F72"/>
<path d="M654.212 282.67H656.284C656.228 284.56 655.934 286.212 655.388 287.626C654.828 286.45 654.38 285.036 654.03 283.398L654.212 282.67ZM654.926 288.634C654.282 289.824 653.428 290.79 652.336 291.546L652.854 292.386C653.904 291.63 654.772 290.692 655.444 289.572C656.144 290.748 656.984 291.7 657.964 292.4L658.51 291.574C657.502 290.888 656.648 289.922 655.92 288.662C656.704 287.01 657.138 285.008 657.208 282.67H658.118V281.704H654.422C654.534 281.088 654.646 280.416 654.73 279.702L653.75 279.534C653.47 282.194 652.91 284.308 652.084 285.876L652.714 286.646C653.008 286.142 653.288 285.568 653.54 284.924C653.918 286.324 654.38 287.556 654.926 288.634ZM648.29 286.072C648.192 286.352 648.08 286.646 647.954 286.954H645.91V287.836H647.562C647.282 288.396 646.96 288.97 646.596 289.586C647.282 289.838 647.926 290.104 648.542 290.37C647.73 290.832 646.736 291.21 645.588 291.518L646.064 292.358C647.464 291.966 648.626 291.448 649.55 290.804C650.376 291.168 651.09 291.546 651.706 291.91L652.252 291.126C651.636 290.79 650.992 290.482 650.32 290.174C651.048 289.502 651.566 288.704 651.874 287.78V286.954H648.948C649.032 286.702 649.13 286.45 649.228 286.184L648.29 286.072ZM649.396 289.782C648.892 289.572 648.36 289.376 647.8 289.18C648.08 288.76 648.332 288.312 648.556 287.836H650.964C650.628 288.564 650.096 289.222 649.396 289.782ZM647.016 279.828L646.218 280.094C646.554 280.626 646.862 281.228 647.156 281.914L647.884 281.578C647.632 280.962 647.352 280.374 647.016 279.828ZM651.272 279.786C651.02 280.374 650.656 280.962 650.208 281.564L650.922 281.928C651.37 281.34 651.72 280.738 652 280.122L651.272 279.786ZM645.938 282.25V283.132H647.926C647.506 283.902 646.75 284.602 645.672 285.232L646.162 286.044C647.366 285.232 648.206 284.28 648.668 283.174V285.834H649.606V284.014C650.11 284.35 650.712 284.798 651.412 285.358L651.93 284.574C651.146 284.098 650.362 283.664 649.606 283.286V283.132H652.154V282.25H649.606V279.576H648.668V282.25H645.938ZM661.296 292.274C662.08 292.274 662.472 291.854 662.472 291.042V286.954C662.906 286.758 663.34 286.562 663.774 286.338V285.344C663.354 285.568 662.92 285.778 662.472 285.974V283.216H663.816V282.25H662.472V279.604H661.492V282.25H659.812V283.216H661.492V286.38C660.876 286.604 660.232 286.8 659.588 286.954L659.84 287.934C660.386 287.766 660.932 287.57 661.492 287.36V290.79C661.492 291.182 661.31 291.392 660.96 291.392C660.624 291.392 660.26 291.364 659.896 291.322L660.106 292.274H661.296ZM665.482 286.086H668.338V287.808H666V292.4H666.938V291.714H670.732V292.4H671.67V287.808H669.318V286.086H672.314V285.176H669.318V283.524H671.95V280.122H664.572V284.504C664.558 287.444 664.054 289.852 663.06 291.7L663.844 292.4C664.768 290.58 665.314 288.48 665.482 286.086ZM668.338 283.524V285.176H665.538C665.538 284.952 665.552 284.728 665.552 284.504V283.524H668.338ZM666.938 290.818V288.704H670.732V290.818H666.938ZM670.97 281.06V282.614H665.552V281.06H670.97ZM674.624 283.86H678.096C677.116 286.982 675.618 289.432 673.574 291.224L674.092 292.148C675.688 290.846 677.004 289.096 678.026 286.884C678.488 287.864 679.258 288.774 680.35 289.614C679.3 290.3 677.998 290.93 676.43 291.504L676.962 292.442C678.656 291.784 680.084 291.056 681.232 290.244C682.408 291.014 683.892 291.728 685.684 292.386L686.202 291.448C684.578 290.888 683.192 290.272 682.058 289.6C683.206 288.62 683.962 287.528 684.34 286.324V285.456H678.614C678.81 284.952 678.978 284.42 679.146 283.86H685.964V282.894H679.412C679.664 281.858 679.888 280.766 680.07 279.59L679.048 279.464C678.88 280.668 678.656 281.802 678.376 282.894H675.926L676.724 280.136L675.73 279.968L674.624 283.86ZM678.782 286.38H683.318C682.926 287.332 682.212 288.214 681.176 289.026C680.056 288.214 679.258 287.332 678.782 286.38ZM682.422 279.576L681.75 280.234C682.8 281.074 683.626 281.858 684.214 282.6L684.928 281.886C684.256 281.116 683.43 280.346 682.422 279.576ZM699.292 280.122H693.076V287.864H694.07V281.088H698.27V287.864H699.292V280.122ZM698.984 292.176C699.432 292.176 699.768 292.064 699.992 291.854C700.23 291.602 700.398 290.888 700.482 289.74L699.544 289.446C699.488 290.314 699.404 290.846 699.292 291.028C699.194 291.168 699.026 291.252 698.802 291.252H697.822C697.528 291.252 697.388 291.098 697.388 290.804V287.808H696.38V291.014C696.38 291.784 696.758 292.176 697.528 292.176H698.984ZM695.638 282.082V285.498C695.61 287.066 695.302 288.34 694.742 289.32C694.14 290.244 693.076 291 691.564 291.588L692.11 292.442C693.678 291.854 694.798 291.028 695.47 289.992C696.17 288.872 696.548 287.374 696.604 285.498V282.082H695.638ZM687.882 284.742V285.722H689.492V289.208C688.876 289.376 688.26 289.516 687.63 289.628L687.868 290.594C689.45 290.216 690.934 289.754 692.32 289.194V288.228C691.732 288.466 691.144 288.69 690.528 288.9V285.722H692.096V284.742H690.528V281.466H692.292V280.5H687.7V281.466H689.492V284.742H687.882ZM703.422 289.04L702.792 289.628C703.31 290.02 703.828 290.482 704.346 291.042C704.794 291.518 705.2 291.994 705.536 292.47L706.236 291.882C705.9 291.406 705.494 290.916 705.032 290.44C704.5 289.88 703.954 289.418 703.422 289.04ZM721.342 283.482H722.868V282.642H721.342V281.298C722.014 281.046 722.602 280.794 723.078 280.542L722.504 279.8C721.846 280.192 721.146 280.486 720.418 280.682V285.736H723.624V286.968H720.334V287.878H720.922C721.454 288.858 722.21 289.712 723.218 290.426C722.168 290.874 720.908 291.238 719.452 291.518L719.956 292.414C721.594 292.05 722.994 291.574 724.17 291.014C725.248 291.602 726.55 292.064 728.076 292.386L728.44 291.448C727.208 291.196 726.13 290.86 725.206 290.44C726.354 289.712 727.194 288.844 727.698 287.822V286.968H724.562V285.736H727.74V280.248H725.29V281.116H726.83V282.642H725.36V283.482H726.83V284.868H724.562V279.618H723.624V284.868H721.342V283.482ZM721.958 287.878H726.606C726.074 288.662 725.276 289.348 724.226 289.936C723.26 289.362 722.504 288.676 721.958 287.878ZM717.31 292.274C718.066 292.274 718.458 291.868 718.458 291.07V287.01C718.934 286.786 719.41 286.562 719.872 286.324V285.344C719.41 285.596 718.934 285.834 718.458 286.044V283.216H719.76V282.25H718.458V279.632H717.478V282.25H715.924V283.216H717.478V286.436C716.89 286.66 716.288 286.842 715.672 287.01L715.896 287.962C716.428 287.794 716.946 287.612 717.478 287.416V290.818C717.478 291.196 717.296 291.392 716.96 291.392C716.596 291.392 716.204 291.364 715.784 291.322L715.994 292.274H717.31ZM730.764 280.668V281.592H735.482V282.81H730.19V285.358H731.17V283.692H735.342C734.53 284.392 733.662 285.008 732.752 285.526C732.542 285.638 732.332 285.722 732.122 285.764L732.318 286.534C733.536 286.506 734.614 286.464 735.566 286.436C734.334 287.136 733.158 287.64 732.01 287.962C731.73 287.962 731.436 287.948 731.142 287.934L731.338 288.844C732.626 288.816 734.04 288.76 735.58 288.69V291.084C735.58 291.364 735.412 291.518 735.104 291.518C734.74 291.518 734.348 291.49 733.956 291.448L734.166 292.386H735.44C736.196 292.386 736.588 292.022 736.588 291.322V288.648C737.596 288.592 738.66 288.522 739.794 288.452C740.074 288.788 740.326 289.124 740.55 289.46L741.306 288.914C740.76 288.158 739.976 287.29 738.954 286.296L738.226 286.758C738.562 287.094 738.884 287.416 739.192 287.752C737.372 287.878 735.566 287.976 733.746 288.032C735.65 287.36 737.414 286.422 739.066 285.19L738.254 284.644C737.75 285.008 737.246 285.358 736.756 285.694C735.972 285.75 734.922 285.778 733.634 285.806C734.544 285.316 735.412 284.742 736.252 284.07L735.482 283.692H740.83V285.372H741.81V282.81H736.518V281.592H741.236V280.668H736.518V279.562H735.482V280.668H730.764ZM738.072 289.39L737.568 290.132C738.912 290.622 740.228 291.294 741.516 292.134L742.034 291.322C740.844 290.566 739.528 289.922 738.072 289.39ZM733.662 289.362C732.668 290.118 731.408 290.734 729.882 291.196L730.302 292.092C731.884 291.546 733.2 290.86 734.25 290.02L733.662 289.362Z" fill="#535F72"/>
<path d="M654.212 334.67H656.284C656.228 336.56 655.934 338.212 655.388 339.626C654.828 338.45 654.38 337.036 654.03 335.398L654.212 334.67ZM654.926 340.634C654.282 341.824 653.428 342.79 652.336 343.546L652.854 344.386C653.904 343.63 654.772 342.692 655.444 341.572C656.144 342.748 656.984 343.7 657.964 344.4L658.51 343.574C657.502 342.888 656.648 341.922 655.92 340.662C656.704 339.01 657.138 337.008 657.208 334.67H658.118V333.704H654.422C654.534 333.088 654.646 332.416 654.73 331.702L653.75 331.534C653.47 334.194 652.91 336.308 652.084 337.876L652.714 338.646C653.008 338.142 653.288 337.568 653.54 336.924C653.918 338.324 654.38 339.556 654.926 340.634ZM648.29 338.072C648.192 338.352 648.08 338.646 647.954 338.954H645.91V339.836H647.562C647.282 340.396 646.96 340.97 646.596 341.586C647.282 341.838 647.926 342.104 648.542 342.37C647.73 342.832 646.736 343.21 645.588 343.518L646.064 344.358C647.464 343.966 648.626 343.448 649.55 342.804C650.376 343.168 651.09 343.546 651.706 343.91L652.252 343.126C651.636 342.79 650.992 342.482 650.32 342.174C651.048 341.502 651.566 340.704 651.874 339.78V338.954H648.948C649.032 338.702 649.13 338.45 649.228 338.184L648.29 338.072ZM649.396 341.782C648.892 341.572 648.36 341.376 647.8 341.18C648.08 340.76 648.332 340.312 648.556 339.836H650.964C650.628 340.564 650.096 341.222 649.396 341.782ZM647.016 331.828L646.218 332.094C646.554 332.626 646.862 333.228 647.156 333.914L647.884 333.578C647.632 332.962 647.352 332.374 647.016 331.828ZM651.272 331.786C651.02 332.374 650.656 332.962 650.208 333.564L650.922 333.928C651.37 333.34 651.72 332.738 652 332.122L651.272 331.786ZM645.938 334.25V335.132H647.926C647.506 335.902 646.75 336.602 645.672 337.232L646.162 338.044C647.366 337.232 648.206 336.28 648.668 335.174V337.834H649.606V336.014C650.11 336.35 650.712 336.798 651.412 337.358L651.93 336.574C651.146 336.098 650.362 335.664 649.606 335.286V335.132H652.154V334.25H649.606V331.576H648.668V334.25H645.938ZM661.296 344.274C662.08 344.274 662.472 343.854 662.472 343.042V338.954C662.906 338.758 663.34 338.562 663.774 338.338V337.344C663.354 337.568 662.92 337.778 662.472 337.974V335.216H663.816V334.25H662.472V331.604H661.492V334.25H659.812V335.216H661.492V338.38C660.876 338.604 660.232 338.8 659.588 338.954L659.84 339.934C660.386 339.766 660.932 339.57 661.492 339.36V342.79C661.492 343.182 661.31 343.392 660.96 343.392C660.624 343.392 660.26 343.364 659.896 343.322L660.106 344.274H661.296ZM665.482 338.086H668.338V339.808H666V344.4H666.938V343.714H670.732V344.4H671.67V339.808H669.318V338.086H672.314V337.176H669.318V335.524H671.95V332.122H664.572V336.504C664.558 339.444 664.054 341.852 663.06 343.7L663.844 344.4C664.768 342.58 665.314 340.48 665.482 338.086ZM668.338 335.524V337.176H665.538C665.538 336.952 665.552 336.728 665.552 336.504V335.524H668.338ZM666.938 342.818V340.704H670.732V342.818H666.938ZM670.97 333.06V334.614H665.552V333.06H670.97ZM676.556 334.166V335.09H678.782V338.212C678.782 338.59 678.754 338.954 678.726 339.318H677.774V336H676.948V340.214H678.586C678.264 341.754 677.55 342.944 676.458 343.784L677.186 344.428C678.39 343.448 679.16 342.048 679.496 340.214H681.498V335.958H680.686V339.318H679.622C679.65 338.968 679.664 338.604 679.678 338.212V335.09H681.778V334.166H680.322C680.686 333.48 681.036 332.71 681.344 331.842L680.434 331.534C680.14 332.458 679.79 333.34 679.398 334.166H676.556ZM674.358 331.814L673.672 332.472C674.526 333.158 675.198 333.802 675.688 334.418L676.374 333.732C675.828 333.088 675.156 332.458 674.358 331.814ZM674.176 335.09L673.504 335.748C674.316 336.462 674.946 337.134 675.422 337.764L676.122 337.064C675.59 336.406 674.946 335.748 674.176 335.09ZM675.338 339.052C674.876 340.676 674.33 342.272 673.686 343.826L674.596 344.204C675.184 342.706 675.73 341.11 676.22 339.402L675.338 339.052ZM683.29 336.448H684.998V338.968H683.276C683.276 338.87 683.29 338.772 683.29 338.66V336.448ZM684.998 335.566H683.29V333.018H684.998V335.566ZM683.22 339.85H684.998V342.832C684.998 343.21 684.872 343.406 684.62 343.406C684.312 343.406 683.99 343.392 683.64 343.364L683.878 344.288H684.928C685.6 344.288 685.936 343.91 685.936 343.168V332.136H682.366V338.716C682.338 340.774 681.792 342.468 680.728 343.798L681.442 344.442C682.436 343.224 683.024 341.698 683.22 339.85ZM677.788 331.604L677.004 331.982C677.396 332.612 677.774 333.326 678.138 334.124L678.922 333.718C678.558 332.948 678.18 332.248 677.788 331.604ZM688.61 331.842L687.924 332.5C688.988 333.27 689.828 333.998 690.444 334.67L691.13 333.984C690.444 333.284 689.604 332.57 688.61 331.842ZM688.358 335.272L687.672 335.93C688.68 336.672 689.45 337.372 690.01 338.03L690.696 337.344C690.066 336.658 689.282 335.972 688.358 335.272ZM689.982 339.052C689.38 340.718 688.666 342.342 687.826 343.938L688.764 344.358C689.534 342.804 690.234 341.152 690.85 339.388L689.982 339.052ZM693.734 334.348V339.262H696.128V342.986C696.128 343.336 695.96 343.518 695.652 343.518C695.316 343.518 694.966 343.49 694.602 343.448L694.812 344.358H695.988C696.716 344.358 697.094 343.98 697.094 343.224V339.262H699.418V334.348H696.688C696.842 333.928 696.968 333.494 697.066 333.032H700.16V332.122H691.76V337.106C691.718 339.934 691.256 342.132 690.388 343.714L691.144 344.386C692.152 342.566 692.684 340.13 692.74 337.106V333.032H696.114C696.016 333.48 695.89 333.914 695.722 334.348H693.734ZM698.522 338.45H694.63V337.19H698.522V338.45ZM694.63 336.434V335.146H698.522V336.434H694.63ZM694.084 340.256C693.79 341.32 693.314 342.286 692.656 343.168L693.468 343.672C694.112 342.762 694.616 341.684 694.98 340.452L694.084 340.256ZM698.844 340.186L698.004 340.48C698.536 341.404 699.04 342.454 699.488 343.658L700.342 343.28C699.922 342.188 699.418 341.152 698.844 340.186Z" fill="#535F72"/>
<path d="M648.934 401.004L645 411H646.232L647.296 408.2H651.888L652.952 411H654.198L650.264 401.004H648.934ZM647.66 407.234L649.578 402.236H649.634L651.524 407.234H647.66ZM655.209 401.004V411H656.357V406.912H659.283C661.579 406.912 662.741 405.918 662.741 403.944C662.741 401.984 661.593 401.004 659.297 401.004H655.209ZM656.357 401.998H659.227C660.025 401.998 660.613 402.152 661.005 402.488C661.397 402.782 661.593 403.272 661.593 403.944C661.593 404.616 661.397 405.106 661.019 405.428C660.627 405.75 660.039 405.918 659.227 405.918H656.357V401.998ZM664.276 401.004V411H665.41V401.004H664.276ZM678.21 401.228H672.848C673.128 400.752 673.352 400.22 673.506 399.66L672.484 399.52C672.344 400.108 672.106 400.668 671.798 401.228H668.802V412.386H669.824V411.518H677.188V412.386H678.21V401.228ZM669.824 410.552V408.27H677.188V410.552H669.824ZM669.824 407.346V405.204H677.188V407.346H669.824ZM669.824 404.28V402.194H677.188V404.28H669.824ZM681.766 400.542V401.508H686.834V400.542H681.766ZM681.22 404.322V405.302H683.166C682.466 407.85 681.906 409.404 681.486 409.978C681.43 410.006 681.36 410.034 681.262 410.062L681.5 411.014C683.236 410.706 684.86 410.286 686.344 409.754C686.484 410.076 686.624 410.412 686.764 410.776L687.632 410.328C687.044 408.914 686.414 407.612 685.742 406.408L684.888 406.828C685.252 407.472 685.602 408.158 685.966 408.914C684.874 409.32 683.768 409.642 682.662 409.866C683.082 408.942 683.572 407.43 684.132 405.302H687.366V404.322H681.22ZM689.466 399.604V402.432H687.576V403.412H689.466V403.58C689.438 407.346 688.542 410.076 686.792 411.77L687.548 412.428C689.452 410.566 690.432 407.612 690.474 403.58V403.412H692.546C692.518 407.178 692.462 409.432 692.378 410.174C692.266 410.972 691.86 411.378 691.174 411.378C690.796 411.378 690.348 411.35 689.844 411.322L690.068 412.218C690.656 412.246 691.062 412.26 691.3 412.26C692.504 412.26 693.19 411.686 693.33 410.552C693.456 409.516 693.526 406.814 693.526 402.432H690.474V399.604H689.466ZM696.13 403.86H699.602C698.622 406.982 697.124 409.432 695.08 411.224L695.598 412.148C697.194 410.846 698.51 409.096 699.532 406.884C699.994 407.864 700.764 408.774 701.856 409.614C700.806 410.3 699.504 410.93 697.936 411.504L698.468 412.442C700.162 411.784 701.59 411.056 702.738 410.244C703.914 411.014 705.398 411.728 707.19 412.386L707.708 411.448C706.084 410.888 704.698 410.272 703.564 409.6C704.712 408.62 705.468 407.528 705.846 406.324V405.456H700.12C700.316 404.952 700.484 404.42 700.652 403.86H707.47V402.894H700.918C701.17 401.858 701.394 400.766 701.576 399.59L700.554 399.464C700.386 400.668 700.162 401.802 699.882 402.894H697.432L698.23 400.136L697.236 399.968L696.13 403.86ZM700.288 406.38H704.824C704.432 407.332 703.718 408.214 702.682 409.026C701.562 408.214 700.764 407.332 700.288 406.38ZM703.928 399.576L703.256 400.234C704.306 401.074 705.132 401.858 705.72 402.6L706.434 401.886C705.762 401.116 704.936 400.346 703.928 399.576ZM715.912 403.244V404.952H712.622C713.294 404.154 713.882 403.286 714.386 402.362H721.666V401.382H714.876C715.128 400.836 715.352 400.248 715.548 399.632L714.526 399.506C714.316 400.15 714.064 400.766 713.756 401.382H709.486V402.362H713.224C712.202 404.07 710.802 405.568 709.024 406.884L709.668 407.724C710.494 407.094 711.25 406.422 711.95 405.708V411.07H712.916V405.89H715.912V412.4H716.878V405.89H719.86V409.446C719.86 409.852 719.636 410.062 719.188 410.062L717.942 410.034L718.194 410.972H719.51C720.378 410.972 720.826 410.524 720.826 409.656V404.952H716.878V403.244H715.912Z" fill="#535F72"/>
<path d="M648.934 453.004L645 463H646.232L647.296 460.2H651.888L652.952 463H654.198L650.264 453.004H648.934ZM647.66 459.234L649.578 454.236H649.634L651.524 459.234H647.66ZM655.209 453.004V463H656.357V458.912H659.283C661.579 458.912 662.741 457.918 662.741 455.944C662.741 453.984 661.593 453.004 659.297 453.004H655.209ZM656.357 453.998H659.227C660.025 453.998 660.613 454.152 661.005 454.488C661.397 454.782 661.593 455.272 661.593 455.944C661.593 456.616 661.397 457.106 661.019 457.428C660.627 457.75 660.039 457.918 659.227 457.918H656.357V453.998ZM664.276 453.004V463H665.41V453.004H664.276ZM675.718 454.67H677.79C677.734 456.56 677.44 458.212 676.894 459.626C676.334 458.45 675.886 457.036 675.536 455.398L675.718 454.67ZM676.432 460.634C675.788 461.824 674.934 462.79 673.842 463.546L674.36 464.386C675.41 463.63 676.278 462.692 676.95 461.572C677.65 462.748 678.49 463.7 679.47 464.4L680.016 463.574C679.008 462.888 678.154 461.922 677.426 460.662C678.21 459.01 678.644 457.008 678.714 454.67H679.624V453.704H675.928C676.04 453.088 676.152 452.416 676.236 451.702L675.256 451.534C674.976 454.194 674.416 456.308 673.59 457.876L674.22 458.646C674.514 458.142 674.794 457.568 675.046 456.924C675.424 458.324 675.886 459.556 676.432 460.634ZM669.796 458.072C669.698 458.352 669.586 458.646 669.46 458.954H667.416V459.836H669.068C668.788 460.396 668.466 460.97 668.102 461.586C668.788 461.838 669.432 462.104 670.048 462.37C669.236 462.832 668.242 463.21 667.094 463.518L667.57 464.358C668.97 463.966 670.132 463.448 671.056 462.804C671.882 463.168 672.596 463.546 673.212 463.91L673.758 463.126C673.142 462.79 672.498 462.482 671.826 462.174C672.554 461.502 673.072 460.704 673.38 459.78V458.954H670.454C670.538 458.702 670.636 458.45 670.734 458.184L669.796 458.072ZM670.902 461.782C670.398 461.572 669.866 461.376 669.306 461.18C669.586 460.76 669.838 460.312 670.062 459.836H672.47C672.134 460.564 671.602 461.222 670.902 461.782ZM668.522 451.828L667.724 452.094C668.06 452.626 668.368 453.228 668.662 453.914L669.39 453.578C669.138 452.962 668.858 452.374 668.522 451.828ZM672.778 451.786C672.526 452.374 672.162 452.962 671.714 453.564L672.428 453.928C672.876 453.34 673.226 452.738 673.506 452.122L672.778 451.786ZM667.444 454.25V455.132H669.432C669.012 455.902 668.256 456.602 667.178 457.232L667.668 458.044C668.872 457.232 669.712 456.28 670.174 455.174V457.834H671.112V456.014C671.616 456.35 672.218 456.798 672.918 457.358L673.436 456.574C672.652 456.098 671.868 455.664 671.112 455.286V455.132H673.66V454.25H671.112V451.576H670.174V454.25H667.444ZM682.802 464.274C683.586 464.274 683.978 463.854 683.978 463.042V458.954C684.412 458.758 684.846 458.562 685.28 458.338V457.344C684.86 457.568 684.426 457.778 683.978 457.974V455.216H685.322V454.25H683.978V451.604H682.998V454.25H681.318V455.216H682.998V458.38C682.382 458.604 681.738 458.8 681.094 458.954L681.346 459.934C681.892 459.766 682.438 459.57 682.998 459.36V462.79C682.998 463.182 682.816 463.392 682.466 463.392C682.13 463.392 681.766 463.364 681.402 463.322L681.612 464.274H682.802ZM686.988 458.086H689.844V459.808H687.506V464.4H688.444V463.714H692.238V464.4H693.176V459.808H690.824V458.086H693.82V457.176H690.824V455.524H693.456V452.122H686.078V456.504C686.064 459.444 685.56 461.852 684.566 463.7L685.35 464.4C686.274 462.58 686.82 460.48 686.988 458.086ZM689.844 455.524V457.176H687.044C687.044 456.952 687.058 456.728 687.058 456.504V455.524H689.844ZM688.444 462.818V460.704H692.238V462.818H688.444ZM692.476 453.06V454.614H687.058V453.06H692.476ZM696.06 451.8L695.36 452.472C696.27 453.228 696.984 453.942 697.502 454.614L698.202 453.914C697.628 453.214 696.914 452.5 696.06 451.8ZM695.85 455.076L695.164 455.748C696.032 456.49 696.732 457.19 697.236 457.848L697.936 457.148C697.376 456.462 696.676 455.776 695.85 455.076ZM697.446 459.01C696.858 460.69 696.144 462.328 695.318 463.952L696.228 464.344C697.012 462.79 697.712 461.124 698.342 459.36L697.446 459.01ZM698.636 453.9V454.88H701.73C701.562 456.21 701.338 457.386 701.058 458.408C700.61 457.666 700.12 456.882 699.588 456.07L698.804 456.56C699.49 457.61 700.12 458.618 700.68 459.598C700.624 459.766 700.554 459.92 700.484 460.088C699.896 461.376 699 462.566 697.796 463.644L698.412 464.442C699.672 463.322 700.624 462.048 701.282 460.634C701.772 461.53 702.206 462.398 702.598 463.238L703.396 462.678C702.948 461.726 702.374 460.662 701.702 459.5C702.094 458.268 702.416 456.728 702.654 454.88H703.298V453.9H701.548C701.324 453.046 701.114 452.276 700.89 451.604L699.854 451.772C700.134 452.43 700.372 453.144 700.596 453.9H698.636ZM704.124 452.78V461.53H705.062V452.78H704.124ZM706.084 464.288C706.91 464.288 707.33 463.854 707.33 462.986V451.604H706.364V462.72C706.364 463.154 706.154 463.378 705.734 463.378C705.188 463.378 704.614 463.35 704.012 463.322L704.236 464.288H706.084ZM719.16 456.7H711.628V461.712H712.636V457.624H718.166V461.684H719.16V456.7ZM714.792 458.52V459.486C714.736 460.55 714.358 461.404 713.63 462.076C712.832 462.706 711.446 463.21 709.458 463.602L710.032 464.498C712.034 464.078 713.476 463.49 714.358 462.748C715.254 461.936 715.73 460.844 715.786 459.486V458.52H714.792ZM719.944 464.176C720.476 464.176 720.854 464.064 721.106 463.84C721.386 463.574 721.582 462.846 721.666 461.642L720.742 461.348C720.686 462.272 720.574 462.818 720.406 463.014C720.266 463.168 720.056 463.252 719.762 463.252H717.522C717.102 463.252 716.892 463.042 716.892 462.636V460.158H715.926V462.846C715.926 463.728 716.36 464.176 717.228 464.176H719.944ZM712.916 451.562V456.112H713.91V451.562H712.916ZM710.172 452.15V455.762H711.138V452.15H710.172ZM717.004 453.536H721.554V452.626H717.424C717.536 452.332 717.648 452.024 717.76 451.702L716.794 451.45C716.332 452.85 715.618 454.026 714.666 454.964L715.422 455.664C716.024 455.104 716.556 454.39 717.004 453.536ZM718.25 453.97L717.62 454.558C718.432 455.076 719.188 455.692 719.902 456.406L720.518 455.692C719.818 455.02 719.062 454.446 718.25 453.97Z" fill="#535F72"/>
<path d="M648.934 505.004L645 515H646.232L647.296 512.2H651.888L652.952 515H654.198L650.264 505.004H648.934ZM647.66 511.234L649.578 506.236H649.634L651.524 511.234H647.66ZM655.209 505.004V515H656.357V510.912H659.283C661.579 510.912 662.741 509.918 662.741 507.944C662.741 505.984 661.593 505.004 659.297 505.004H655.209ZM656.357 505.998H659.227C660.025 505.998 660.613 506.152 661.005 506.488C661.397 506.782 661.593 507.272 661.593 507.944C661.593 508.616 661.397 509.106 661.019 509.428C660.627 509.75 660.039 509.918 659.227 509.918H656.357V505.998ZM664.276 505.004V515H665.41V505.004H664.276ZM667.402 505.928V506.936H669.558C670.188 509.092 671.308 510.968 672.932 512.564C671.42 513.936 669.488 514.93 667.136 515.56L667.668 516.442C670.048 515.756 672.036 514.678 673.632 513.208C675.144 514.51 677.048 515.588 679.372 516.456L679.918 515.616C677.678 514.79 675.816 513.754 674.332 512.494C675.704 511.01 676.74 509.148 677.426 506.936H679.61V505.928H674.262C673.814 504.962 673.338 504.136 672.806 503.464L671.798 503.828C672.358 504.486 672.82 505.186 673.198 505.928H667.402ZM670.552 506.936H676.376C675.788 508.868 674.878 510.506 673.632 511.864C672.176 510.464 671.154 508.826 670.552 506.936ZM686.288 508.42V509.4H692.308V511.612H686.638V512.564H692.308V514.832H686.036V515.812H692.308V516.4H693.316V508.42H690.432V503.562H689.41V508.42H686.288ZM692.812 504.276C692.448 505.256 691.944 506.25 691.328 507.258L692.196 507.706C692.812 506.726 693.316 505.732 693.708 504.696L692.812 504.276ZM686.988 504.374L686.106 504.808C686.61 505.648 687.1 506.6 687.548 507.678L688.416 507.244C687.968 506.208 687.492 505.242 686.988 504.374ZM684.23 509.204C684.622 509.722 685.07 510.408 685.602 511.262L686.176 510.422C685.518 509.554 684.874 508.77 684.23 508.084V507.272H685.896V506.306H684.23V503.576H683.208V506.306H681.304V507.272H683.194C682.76 508.994 682.032 510.534 680.996 511.892L681.43 512.97C682.158 511.878 682.746 510.674 683.208 509.33V516.344H684.23V509.204ZM698.664 505.172V506.46C698.622 510.688 697.446 513.754 695.122 515.672L695.892 516.358C697.824 514.734 699.028 512.354 699.49 509.246C700.12 510.786 701.086 512.158 702.388 513.39C701.24 514.244 699.798 514.958 698.062 515.546L698.65 516.484C700.456 515.868 701.982 515.084 703.214 514.104C704.278 514.972 705.566 515.742 707.078 516.428L707.736 515.532C706.308 514.916 705.062 514.202 703.998 513.418C705.356 512.102 706.238 510.478 706.644 508.574V507.986H703.816C704.068 507.104 704.334 506.054 704.6 504.836V504.178H696.256V505.172H698.664ZM703.158 512.746C701.338 511.178 700.19 509.302 699.686 507.118C699.686 506.894 699.7 506.684 699.7 506.46V505.172H703.494C703.158 506.824 702.836 508.056 702.556 508.896H705.594C705.174 510.352 704.362 511.64 703.158 512.746ZM710.018 503.856L709.332 504.514C710.186 505.172 710.858 505.802 711.334 506.39L711.992 505.718C711.46 505.102 710.802 504.472 710.018 503.856ZM709.794 507.3L709.108 507.944C709.934 508.658 710.578 509.33 711.054 509.96L711.712 509.302C711.194 508.63 710.55 507.972 709.794 507.3ZM711.026 511.066C710.494 512.69 709.878 514.286 709.178 515.84L710.102 516.232C710.746 514.72 711.348 513.11 711.88 511.402L711.026 511.066ZM717.242 504.248H712.552V512.872H713.448V505.116H716.346V512.788H717.242V504.248ZM715.744 513.446L715.128 514.034C716.024 514.874 716.71 515.658 717.214 516.4L717.886 515.728C717.312 514.972 716.598 514.202 715.744 513.446ZM714.484 506.082V510.52C714.456 511.822 714.246 512.872 713.882 513.684C713.49 514.468 712.79 515.098 711.782 515.574L712.314 516.414C713.35 515.91 714.106 515.21 714.568 514.342C715.044 513.39 715.296 512.116 715.324 510.52V506.082H714.484ZM720.266 516.288C720.994 516.288 721.372 515.882 721.372 515.098V503.646H720.42V514.86C720.42 515.224 720.252 515.42 719.93 515.42C719.482 515.42 719.006 515.392 718.516 515.35L718.726 516.288H720.266ZM718.348 504.794V513.53H719.23V504.794H718.348ZM729.086 510.198V514.188C728.638 514.272 728.176 514.342 727.714 514.398L727.966 515.35C729.366 515.112 730.682 514.818 731.9 514.468V513.53C731.312 513.698 730.696 513.852 730.08 513.992V510.198H731.396V509.26H727.77V510.198H729.086ZM734.392 516.19C735.036 516.19 735.582 515.182 736.044 513.166L735.246 512.522C734.966 514.188 734.672 515.042 734.392 515.098C733.972 515.042 733.608 514.23 733.3 512.634C733.076 511.318 732.922 509.47 732.852 507.062H735.624V506.082H732.838C732.81 505.284 732.81 504.43 732.81 503.52H731.83C731.83 504.416 731.83 505.27 731.858 506.082H727.448V507.062H731.886C731.942 508.896 732.04 510.436 732.194 511.668C732.39 513.124 732.698 514.258 733.118 515.098C733.482 515.826 733.916 516.19 734.392 516.19ZM734.014 503.506L733.3 503.94C733.888 504.612 734.364 505.214 734.714 505.76L735.414 505.27C735.078 504.766 734.616 504.178 734.014 503.506ZM724.774 503.702L724.074 504.388C725.026 505.144 725.782 505.872 726.342 506.558L727.028 505.858C726.412 505.13 725.67 504.416 724.774 503.702ZM723.094 507.846V508.812H725.054V514.426C725.054 514.636 724.942 514.832 724.746 515L725.138 515.896C726.006 515.252 726.818 514.51 727.588 513.67L727.322 512.606C726.874 513.096 726.454 513.544 726.034 513.95V507.846H723.094Z" fill="#535F72"/>
<path d="M648.934 557.004L645 567H646.232L647.296 564.2H651.888L652.952 567H654.198L650.264 557.004H648.934ZM647.66 563.234L649.578 558.236H649.634L651.524 563.234H647.66ZM655.209 557.004V567H656.357V562.912H659.283C661.579 562.912 662.741 561.918 662.741 559.944C662.741 557.984 661.593 557.004 659.297 557.004H655.209ZM656.357 557.998H659.227C660.025 557.998 660.613 558.152 661.005 558.488C661.397 558.782 661.593 559.272 661.593 559.944C661.593 560.616 661.397 561.106 661.019 561.428C660.627 561.75 660.039 561.918 659.227 561.918H656.357V557.998ZM664.276 557.004V567H665.41V557.004H664.276ZM671.854 565.208C670.566 565.852 669.068 566.356 667.36 566.734L667.486 567.742C669.11 567.35 670.566 566.818 671.854 566.174V565.208ZM669.614 555.534C669.054 557.186 668.41 558.642 667.654 559.916C667.514 560.112 667.374 560.238 667.206 560.308L667.472 561.232C668.242 561.12 669.012 560.98 669.768 560.84C668.998 562.184 668.34 563.122 667.808 563.682C667.682 563.794 667.528 563.906 667.346 563.99L667.626 564.914C668.97 564.69 670.384 564.284 671.854 563.668V562.73C670.86 563.164 669.88 563.5 668.9 563.752C669.712 562.744 670.734 561.078 671.966 558.754L671.056 558.404C670.79 558.936 670.538 559.426 670.286 559.902C669.67 560.014 669.054 560.126 668.438 560.21C669.166 559.146 669.88 557.718 670.58 555.926L669.614 555.534ZM672.33 561.68C674.374 561.526 676.264 561.316 678 561.036C678.238 561.4 678.448 561.75 678.644 562.114L679.428 561.568C678.91 560.644 678.168 559.58 677.216 558.362L676.446 558.838C676.796 559.286 677.132 559.748 677.44 560.196C676.152 560.406 674.85 560.56 673.548 560.672C674.024 560.112 674.57 559.23 675.186 558.012H679.47V557.046H676.32C676.124 556.458 675.914 555.912 675.704 555.436L674.682 555.604C674.906 556.038 675.116 556.514 675.312 557.046H671.742V558.012H674.136C673.38 559.468 672.778 560.364 672.302 560.714C672.246 560.728 672.19 560.756 672.106 560.784L672.33 561.68ZM673.464 562.254C673.408 563.836 673.212 564.984 672.876 565.712C672.526 566.426 671.938 567.042 671.112 567.574L671.756 568.372C672.708 567.756 673.38 567.014 673.786 566.146C674.15 565.32 674.374 564.018 674.444 562.254H673.464ZM678.448 568.148C679.064 568.12 679.456 567.952 679.638 567.672C679.82 567.364 679.918 566.538 679.918 565.222L679.05 564.914C679.05 565.74 679.008 566.342 678.952 566.734C678.896 567.042 678.714 567.21 678.406 567.238H677.496C677.272 567.21 677.174 567.056 677.174 566.762V562.128H676.208V566.93C676.208 567.742 676.628 568.148 677.468 568.148H678.448ZM685.518 559.762V560.77H689.312V568.428H690.348V560.77H693.946V559.762H690.348V555.548H689.312V559.762H685.518ZM682.774 555.702L682.074 556.388C683.082 557.144 683.894 557.872 684.482 558.558L685.168 557.858C684.524 557.13 683.726 556.416 682.774 555.702ZM681.136 559.846V560.812H683.194V566.398C683.194 566.622 683.082 566.818 682.872 566.986L683.264 567.896C684.258 567.238 685.196 566.496 686.064 565.656L685.812 564.62C685.224 565.18 684.664 565.656 684.16 566.076V559.846H681.136Z" fill="#535F72"/>
<path d="M358.328 267.09V270.002H353.918V271.248H358.328V274.664H352.756V275.966H365.258V274.664H359.672V271.248H364.096V270.002H359.672V267.09H364.768V265.788H359.588L359.63 265.774C359.434 265.074 359.168 264.304 358.818 263.464L357.53 263.814C357.838 264.444 358.104 265.102 358.328 265.788H353.246V267.09H358.328ZM375.338 266.824H377.144C377.088 268.504 376.836 269.988 376.374 271.276C375.884 270.184 375.478 268.91 375.17 267.454C375.226 267.258 375.282 267.048 375.338 266.824ZM375.772 272.634C375.156 273.74 374.33 274.636 373.294 275.336L373.98 276.442C374.96 275.742 375.786 274.874 376.444 273.852C377.116 274.93 377.9 275.798 378.81 276.456L379.552 275.378C378.6 274.734 377.788 273.824 377.088 272.662C377.844 271.052 378.264 269.106 378.348 266.824H379.16V265.55H375.604C375.716 264.976 375.8 264.374 375.884 263.73L374.582 263.506C374.302 266.11 373.77 268.182 372.986 269.722L373.826 270.758C374.078 270.338 374.302 269.862 374.526 269.358C374.876 270.576 375.296 271.668 375.772 272.634ZM369.136 270.016C369.052 270.268 368.954 270.548 368.842 270.828H366.868V271.962H368.338C368.072 272.494 367.764 273.04 367.428 273.628C368.072 273.88 368.688 274.118 369.262 274.356C368.506 274.748 367.596 275.056 366.546 275.308L367.162 276.4C368.548 276.036 369.71 275.56 370.634 274.958C371.404 275.308 372.062 275.644 372.608 275.98L373.322 274.944C372.79 274.664 372.23 274.384 371.656 274.132C372.3 273.488 372.748 272.746 373 271.906V270.828H370.144C370.228 270.604 370.298 270.394 370.382 270.17L369.136 270.016ZM370.438 273.628C369.976 273.432 369.5 273.264 369.01 273.096C369.234 272.732 369.444 272.354 369.64 271.962H371.81C371.502 272.578 371.054 273.138 370.438 273.628ZM368.17 263.73L367.12 264.08C367.442 264.598 367.75 265.2 368.03 265.872L368.982 265.438C368.744 264.822 368.478 264.262 368.17 263.73ZM372.188 263.716C371.936 264.276 371.586 264.85 371.138 265.438L372.062 265.914C372.496 265.34 372.846 264.752 373.126 264.164L372.188 263.716ZM366.896 266.11V267.272H368.66C368.24 267.916 367.554 268.518 366.574 269.078L367.232 270.156C368.31 269.4 369.08 268.518 369.542 267.51V269.876H370.76V268.308C371.194 268.588 371.712 268.98 372.328 269.47L373.028 268.42C372.258 268.014 371.502 267.65 370.76 267.342V267.272H373.196V266.11H370.76V263.534H369.542V266.11H366.896ZM382.31 276.316C383.178 276.316 383.626 275.854 383.626 274.93V271.052C384.018 270.87 384.41 270.674 384.816 270.478V269.176C384.424 269.386 384.018 269.582 383.626 269.764V267.37H384.858V266.096H383.626V263.562H382.338V266.096H380.77V267.37H382.338V270.268C381.736 270.478 381.134 270.66 380.518 270.8L380.854 272.116C381.344 271.948 381.834 271.78 382.338 271.598V274.608C382.338 274.972 382.17 275.154 381.862 275.154C381.526 275.154 381.19 275.112 380.84 275.056L381.12 276.316H382.31ZM386.664 270.24H389.184V271.682H386.944V276.442H388.176V275.84H391.494V276.442H392.726V271.682H390.472V270.24H393.356V269.022H390.472V267.622H393.02V263.996H385.446V268.56C385.432 271.402 384.956 273.726 384.018 275.532L385.054 276.456C385.95 274.664 386.482 272.592 386.664 270.24ZM389.184 267.622V269.022H386.72C386.72 268.868 386.734 268.714 386.734 268.56V267.622H389.184ZM388.176 274.664V272.858H391.494V274.664H388.176ZM391.732 265.214V266.432H386.734V265.214H391.732ZM395.092 264.794V266.096H398.242C397.36 267.944 396.114 269.568 394.518 270.982L395.344 272.046C395.736 271.696 396.114 271.332 396.478 270.94V276.456H397.78V269.386C398.536 268.378 399.166 267.272 399.684 266.096H407.188V264.794H400.202C400.328 264.402 400.454 263.996 400.566 263.59L399.222 263.436C399.096 263.884 398.956 264.332 398.788 264.794H395.092ZM398.718 271.374V272.662H402.666V274.524C402.666 274.958 402.442 275.182 402.022 275.182C401.462 275.182 400.944 275.168 400.468 275.14L400.818 276.4H402.554C403.506 276.4 403.982 275.91 403.982 274.944V272.662H407.37V271.374H403.982V270.772C404.906 270.142 405.732 269.47 406.474 268.77V267.552H399.782V268.77H404.808C404.122 269.33 403.408 269.82 402.666 270.24V271.374H398.718ZM409.722 269.12V276.47H411.01V266.754C411.374 265.9 411.682 265.004 411.934 264.08L410.73 263.52C410.24 265.564 409.47 267.356 408.42 268.896L408.868 270.324C409.162 269.932 409.442 269.54 409.722 269.12ZM412.9 263.996L411.99 264.878C412.83 265.662 413.474 266.404 413.936 267.09L414.93 266.096C414.37 265.396 413.698 264.696 412.9 263.996ZM411.416 267.79V269.022H412.844V274.244C412.844 274.468 412.732 274.678 412.536 274.846L413.054 276.064C413.88 275.336 414.664 274.51 415.392 273.586L415.07 272.284C414.734 272.676 414.426 273.04 414.132 273.362V267.79H411.416ZM415.476 265.074V266.208H417.044V267.748H415.266V268.952H417.464C416.61 269.792 415.644 270.464 414.552 270.968L415.224 272.004C415.462 271.892 415.714 271.766 415.966 271.626V276.414H417.212V275.882H419.48V276.414H420.726V270.03H418.136C418.472 269.694 418.808 269.344 419.13 268.952H421.328V267.748H419.998C420.558 266.88 421.076 265.886 421.524 264.794L420.432 264.22C420.222 264.752 419.984 265.256 419.732 265.76V265.074H418.262V263.548H417.044V265.074H415.476ZM418.5 267.748H418.262V266.208H419.508C419.2 266.754 418.864 267.272 418.5 267.748ZM417.212 273.488H419.48V274.734H417.212V273.488ZM419.48 272.396H417.212V271.192H419.48V272.396ZM426.004 265.326V266.46C425.962 270.604 424.814 273.628 422.56 275.518L423.582 276.414C425.402 274.86 426.564 272.634 427.068 269.75C427.67 271.052 428.524 272.242 429.63 273.32C428.51 274.104 427.138 274.762 425.5 275.308L426.27 276.54C428.034 275.966 429.518 275.21 430.736 274.272C431.758 275.084 432.99 275.812 434.418 276.47L435.3 275.28C433.956 274.706 432.78 274.062 431.772 273.348C433.046 272.06 433.886 270.478 434.292 268.616V267.832H431.506C431.758 266.992 432.024 266.012 432.276 264.892V264.024H423.708V265.326H426.004ZM430.666 272.48C428.944 270.982 427.838 269.218 427.334 267.188C427.334 266.95 427.348 266.712 427.348 266.46V265.326H430.82C430.47 266.95 430.148 268.196 429.854 269.05H432.892C432.472 270.338 431.73 271.486 430.666 272.48ZM447.088 269.022H438.94V276.428H440.27V275.938H446.416V276.442H447.746V272.704H440.27V271.962H447.088V269.022ZM440.27 274.762V273.754H446.416V274.762H440.27ZM440.27 270.898V270.086H445.786V270.898H440.27ZM449.02 267.272H443.742C443.63 266.978 443.532 266.698 443.42 266.446L444.092 266.88C444.386 266.488 444.652 266.054 444.89 265.592H445.604C445.912 266.026 446.178 266.474 446.402 266.922L447.578 266.488C447.424 266.208 447.242 265.9 447.018 265.592H449.3V264.43H445.408C445.492 264.206 445.562 263.982 445.646 263.744L444.372 263.464C444.092 264.43 443.616 265.326 442.972 266.166L443.21 266.32L442.034 266.516C442.16 266.74 442.286 266.992 442.398 267.272H436.98V269.946H438.282V268.392H447.718V269.946H449.02V267.272ZM438.87 265.592H439.486C439.794 266.068 440.06 266.558 440.298 267.062L441.516 266.6C441.348 266.278 441.124 265.942 440.872 265.592H442.972V264.43H439.444C439.528 264.206 439.626 263.968 439.71 263.73L438.436 263.45C438.086 264.458 437.512 265.41 436.7 266.278L437.862 267.006C438.226 266.572 438.562 266.096 438.87 265.592ZM455.698 263.996V270.688H458.596V272.088H455.53V273.32H458.596V274.776H454.984V276.05H463.454V274.776H459.912V273.32H462.964V272.088H459.912V270.688H462.782V263.996H455.698ZM461.508 269.512H459.912V267.916H461.508V269.512ZM458.596 269.512H456.972V267.916H458.596V269.512ZM456.972 266.768V265.172H458.596V266.768H456.972ZM459.912 265.172H461.508V266.768H459.912V265.172ZM450.868 268.602V269.876H452.254V273.082C451.694 273.222 451.12 273.348 450.532 273.446L450.854 274.72C452.324 274.37 453.696 273.936 454.984 273.432V272.144C454.536 272.34 454.074 272.508 453.598 272.676V269.876H455.012V268.602H453.598V265.606H455.18V264.346H450.658V265.606H452.254V268.602H450.868Z" fill="#1D2129"/>
<path d="M340.338 489.824H342.144C342.088 491.504 341.836 492.988 341.374 494.276C340.884 493.184 340.478 491.91 340.17 490.454C340.226 490.258 340.282 490.048 340.338 489.824ZM340.772 495.634C340.156 496.74 339.33 497.636 338.294 498.336L338.98 499.442C339.96 498.742 340.786 497.874 341.444 496.852C342.116 497.93 342.9 498.798 343.81 499.456L344.552 498.378C343.6 497.734 342.788 496.824 342.088 495.662C342.844 494.052 343.264 492.106 343.348 489.824H344.16V488.55H340.604C340.716 487.976 340.8 487.374 340.884 486.73L339.582 486.506C339.302 489.11 338.77 491.182 337.986 492.722L338.826 493.758C339.078 493.338 339.302 492.862 339.526 492.358C339.876 493.576 340.296 494.668 340.772 495.634ZM334.136 493.016C334.052 493.268 333.954 493.548 333.842 493.828H331.868V494.962H333.338C333.072 495.494 332.764 496.04 332.428 496.628C333.072 496.88 333.688 497.118 334.262 497.356C333.506 497.748 332.596 498.056 331.546 498.308L332.162 499.4C333.548 499.036 334.71 498.56 335.634 497.958C336.404 498.308 337.062 498.644 337.608 498.98L338.322 497.944C337.79 497.664 337.23 497.384 336.656 497.132C337.3 496.488 337.748 495.746 338 494.906V493.828H335.144C335.228 493.604 335.298 493.394 335.382 493.17L334.136 493.016ZM335.438 496.628C334.976 496.432 334.5 496.264 334.01 496.096C334.234 495.732 334.444 495.354 334.64 494.962H336.81C336.502 495.578 336.054 496.138 335.438 496.628ZM333.17 486.73L332.12 487.08C332.442 487.598 332.75 488.2 333.03 488.872L333.982 488.438C333.744 487.822 333.478 487.262 333.17 486.73ZM337.188 486.716C336.936 487.276 336.586 487.85 336.138 488.438L337.062 488.914C337.496 488.34 337.846 487.752 338.126 487.164L337.188 486.716ZM331.896 489.11V490.272H333.66C333.24 490.916 332.554 491.518 331.574 492.078L332.232 493.156C333.31 492.4 334.08 491.518 334.542 490.51V492.876H335.76V491.308C336.194 491.588 336.712 491.98 337.328 492.47L338.028 491.42C337.258 491.014 336.502 490.65 335.76 490.342V490.272H338.196V489.11H335.76V486.534H334.542V489.11H331.896ZM347.31 499.316C348.178 499.316 348.626 498.854 348.626 497.93V494.052C349.018 493.87 349.41 493.674 349.816 493.478V492.176C349.424 492.386 349.018 492.582 348.626 492.764V490.37H349.858V489.096H348.626V486.562H347.338V489.096H345.77V490.37H347.338V493.268C346.736 493.478 346.134 493.66 345.518 493.8L345.854 495.116C346.344 494.948 346.834 494.78 347.338 494.598V497.608C347.338 497.972 347.17 498.154 346.862 498.154C346.526 498.154 346.19 498.112 345.84 498.056L346.12 499.316H347.31ZM351.664 493.24H354.184V494.682H351.944V499.442H353.176V498.84H356.494V499.442H357.726V494.682H355.472V493.24H358.356V492.022H355.472V490.622H358.02V486.996H350.446V491.56C350.432 494.402 349.956 496.726 349.018 498.532L350.054 499.456C350.95 497.664 351.482 495.592 351.664 493.24ZM354.184 490.622V492.022H351.72C351.72 491.868 351.734 491.714 351.734 491.56V490.622H354.184ZM353.176 497.664V495.858H356.494V497.664H353.176ZM356.732 488.214V489.432H351.734V488.214H356.732ZM361.688 491.49H363.648V493.534H361.688V491.49ZM363.648 490.3H361.688V488.228H363.648V490.3ZM361.66 494.738H363.648V497.552C363.648 498.042 363.494 498.294 363.2 498.294C362.864 498.294 362.514 498.266 362.122 498.224L362.444 499.4H363.564C364.418 499.4 364.852 498.924 364.852 497.972V487.024H360.498V493.898C360.484 495.788 360.204 497.342 359.644 498.56L360.652 499.47C361.226 498.224 361.562 496.642 361.66 494.738ZM367.05 493.352H367.232C367.54 494.654 368.1 495.83 368.912 496.866C368.394 497.454 367.778 497.958 367.05 498.35V493.352ZM367.05 498.392L367.736 499.428C368.52 499.008 369.206 498.476 369.78 497.832C370.368 498.406 371.068 498.938 371.866 499.414L372.524 498.294C371.768 497.846 371.096 497.356 370.522 496.81C371.11 495.844 371.53 494.668 371.782 493.296V492.176H367.05V488.228H370.41C370.382 489.166 370.326 489.754 370.242 489.992C370.158 490.188 370.046 490.314 369.906 490.356C369.766 490.398 369.542 490.426 369.248 490.426C368.856 490.426 368.548 490.412 368.324 490.412L368.674 491.532H369.85C370.746 491.532 371.278 491.238 371.446 490.65C371.614 490.048 371.698 488.844 371.698 487.024H365.804V499.456H367.05V498.392ZM368.366 493.352H370.606C370.382 494.276 370.06 495.102 369.64 495.83C369.066 495.088 368.646 494.262 368.366 493.352ZM377.634 486.464C377.06 487.822 375.954 488.97 374.316 489.908L375.128 490.972C375.702 490.622 376.22 490.244 376.696 489.838C377.27 490.314 377.886 490.762 378.558 491.154C377.102 491.7 375.422 492.092 373.546 492.33L374.162 493.576C376.374 493.24 378.334 492.694 380.014 491.938C381.75 492.764 383.71 493.296 385.88 493.548L386.482 492.302C384.634 492.134 382.968 491.756 381.47 491.196C382.66 490.496 383.682 489.656 384.522 488.69V487.612H378.53C378.698 487.318 378.852 486.996 378.992 486.66L377.634 486.464ZM380 490.538C379.118 490.09 378.306 489.558 377.578 488.956C377.592 488.928 377.62 488.9 377.662 488.858H382.576C381.82 489.502 380.966 490.062 380 490.538ZM378.992 492.792C378.992 493.296 378.936 493.772 378.852 494.22H374.512V495.41H378.446C378.362 495.592 378.25 495.774 378.138 495.956C377.438 496.922 375.94 497.734 373.658 498.406L374.54 499.484C377.13 498.658 378.768 497.622 379.468 496.362C379.636 496.068 379.776 495.746 379.902 495.41H383.696C383.654 496.642 383.542 497.412 383.36 497.706C383.178 497.986 382.73 498.14 382.016 498.154C381.568 498.126 380.98 498.098 380.252 498.07L380.588 499.274C381.26 499.316 381.848 499.344 382.324 499.344C383.304 499.344 384.004 499.092 384.396 498.616C384.788 498.14 384.998 496.67 385.026 494.22H380.196C380.266 493.772 380.308 493.296 380.308 492.792H378.992ZM391.004 488.326V489.46C390.962 493.604 389.814 496.628 387.56 498.518L388.582 499.414C390.402 497.86 391.564 495.634 392.068 492.75C392.67 494.052 393.524 495.242 394.63 496.32C393.51 497.104 392.138 497.762 390.5 498.308L391.27 499.54C393.034 498.966 394.518 498.21 395.736 497.272C396.758 498.084 397.99 498.812 399.418 499.47L400.3 498.28C398.956 497.706 397.78 497.062 396.772 496.348C398.046 495.06 398.886 493.478 399.292 491.616V490.832H396.506C396.758 489.992 397.024 489.012 397.276 487.892V487.024H388.708V488.326H391.004ZM395.666 495.48C393.944 493.982 392.838 492.218 392.334 490.188C392.334 489.95 392.348 489.712 392.348 489.46V488.326H395.82C395.47 489.95 395.148 491.196 394.854 492.05H397.892C397.472 493.338 396.73 494.486 395.666 495.48ZM410.338 489.824H412.144C412.088 491.504 411.836 492.988 411.374 494.276C410.884 493.184 410.478 491.91 410.17 490.454C410.226 490.258 410.282 490.048 410.338 489.824ZM410.772 495.634C410.156 496.74 409.33 497.636 408.294 498.336L408.98 499.442C409.96 498.742 410.786 497.874 411.444 496.852C412.116 497.93 412.9 498.798 413.81 499.456L414.552 498.378C413.6 497.734 412.788 496.824 412.088 495.662C412.844 494.052 413.264 492.106 413.348 489.824H414.16V488.55H410.604C410.716 487.976 410.8 487.374 410.884 486.73L409.582 486.506C409.302 489.11 408.77 491.182 407.986 492.722L408.826 493.758C409.078 493.338 409.302 492.862 409.526 492.358C409.876 493.576 410.296 494.668 410.772 495.634ZM404.136 493.016C404.052 493.268 403.954 493.548 403.842 493.828H401.868V494.962H403.338C403.072 495.494 402.764 496.04 402.428 496.628C403.072 496.88 403.688 497.118 404.262 497.356C403.506 497.748 402.596 498.056 401.546 498.308L402.162 499.4C403.548 499.036 404.71 498.56 405.634 497.958C406.404 498.308 407.062 498.644 407.608 498.98L408.322 497.944C407.79 497.664 407.23 497.384 406.656 497.132C407.3 496.488 407.748 495.746 408 494.906V493.828H405.144C405.228 493.604 405.298 493.394 405.382 493.17L404.136 493.016ZM405.438 496.628C404.976 496.432 404.5 496.264 404.01 496.096C404.234 495.732 404.444 495.354 404.64 494.962H406.81C406.502 495.578 406.054 496.138 405.438 496.628ZM403.17 486.73L402.12 487.08C402.442 487.598 402.75 488.2 403.03 488.872L403.982 488.438C403.744 487.822 403.478 487.262 403.17 486.73ZM407.188 486.716C406.936 487.276 406.586 487.85 406.138 488.438L407.062 488.914C407.496 488.34 407.846 487.752 408.126 487.164L407.188 486.716ZM401.896 489.11V490.272H403.66C403.24 490.916 402.554 491.518 401.574 492.078L402.232 493.156C403.31 492.4 404.08 491.518 404.542 490.51V492.876H405.76V491.308C406.194 491.588 406.712 491.98 407.328 492.47L408.028 491.42C407.258 491.014 406.502 490.65 405.76 490.342V490.272H408.196V489.11H405.76V486.534H404.542V489.11H401.896ZM417.31 499.316C418.178 499.316 418.626 498.854 418.626 497.93V494.052C419.018 493.87 419.41 493.674 419.816 493.478V492.176C419.424 492.386 419.018 492.582 418.626 492.764V490.37H419.858V489.096H418.626V486.562H417.338V489.096H415.77V490.37H417.338V493.268C416.736 493.478 416.134 493.66 415.518 493.8L415.854 495.116C416.344 494.948 416.834 494.78 417.338 494.598V497.608C417.338 497.972 417.17 498.154 416.862 498.154C416.526 498.154 416.19 498.112 415.84 498.056L416.12 499.316H417.31ZM421.664 493.24H424.184V494.682H421.944V499.442H423.176V498.84H426.494V499.442H427.726V494.682H425.472V493.24H428.356V492.022H425.472V490.622H428.02V486.996H420.446V491.56C420.432 494.402 419.956 496.726 419.018 498.532L420.054 499.456C420.95 497.664 421.482 495.592 421.664 493.24ZM424.184 490.622V492.022H421.72C421.72 491.868 421.734 491.714 421.734 491.56V490.622H424.184ZM423.176 497.664V495.858H426.494V497.664H423.176ZM426.732 488.214V489.432H421.734V488.214H426.732ZM436.364 492.946H438.534V494.5H436.364V492.946ZM436.364 495.732H438.534V497.468H436.364V495.732ZM436.364 498.742H442.286V497.468H439.85V495.732H441.852V494.5H439.85V492.946H441.852V491.7H439.85V490.09H442.132V488.816H439.99C439.822 488.116 439.57 487.346 439.262 486.492L437.988 486.828C438.268 487.472 438.52 488.144 438.744 488.816H436.602C436.882 488.172 437.12 487.5 437.316 486.8L436.028 486.548C435.58 488.312 434.796 489.922 433.69 491.406L434.138 492.806C434.46 492.414 434.768 492.022 435.048 491.616V499.372H436.364V498.742ZM438.534 490.09V491.7H436.364V490.09H438.534ZM433.928 492.176C433.536 492.372 433.144 492.554 432.738 492.722V490.272H434.04V488.984H432.738V486.52H431.408V488.984H429.728V490.272H431.408V493.212C430.764 493.408 430.12 493.576 429.462 493.716L429.798 495.06C430.33 494.906 430.876 494.738 431.408 494.556V497.524C431.408 497.86 431.226 498.028 430.862 498.028C430.512 498.028 430.148 498 429.77 497.944L430.064 499.232H431.324C432.262 499.232 432.738 498.77 432.738 497.86V494.052C433.13 493.884 433.536 493.716 433.928 493.534V492.176ZM444.904 486.66L443.98 487.542C444.988 488.354 445.772 489.096 446.318 489.796L447.284 488.844C446.64 488.116 445.842 487.388 444.904 486.66ZM452.94 499.204H456.132L456.454 497.888C456.076 497.916 455.53 497.944 454.83 497.958C454.13 497.972 453.43 497.986 452.744 497.986C451.652 497.986 450.714 497.972 449.916 497.958C449.09 497.93 448.474 497.804 448.054 497.608C447.704 497.426 447.368 497.146 447.046 496.768C446.976 496.684 446.906 496.614 446.836 496.558V491.266H443.714V492.498H445.59V496.46C445.03 496.74 444.4 497.454 443.7 498.588L444.68 499.498C445.394 498.238 445.898 497.608 446.192 497.608C446.36 497.608 446.528 497.72 446.724 497.958C447.144 498.434 447.634 498.77 448.194 498.938C448.782 499.078 449.524 499.162 450.434 499.176C451.33 499.19 452.17 499.204 452.94 499.204ZM447.942 491.924V493.184H450.91C450.448 494.416 449.412 495.424 447.816 496.208L448.656 497.272C450.672 496.18 451.89 494.808 452.31 493.184H456.048V491.924H452.562C452.618 491.406 452.66 490.818 452.674 490.16H455.572V488.928H453.976C454.326 488.312 454.648 487.626 454.942 486.856L453.682 486.422C453.374 487.318 453.024 488.144 452.632 488.928H450.504L451.288 488.536C450.91 487.808 450.504 487.15 450.084 486.548L448.894 487.122C449.314 487.654 449.706 488.256 450.07 488.928H448.418V490.16H451.372C451.358 490.818 451.316 491.406 451.232 491.924H447.942ZM453.01 493.842L452.226 494.724C453.234 495.452 454.2 496.32 455.124 497.314L456.048 496.306C455.138 495.424 454.13 494.598 453.01 493.842ZM459.688 491.49H461.648V493.534H459.688V491.49ZM461.648 490.3H459.688V488.228H461.648V490.3ZM459.66 494.738H461.648V497.552C461.648 498.042 461.494 498.294 461.2 498.294C460.864 498.294 460.514 498.266 460.122 498.224L460.444 499.4H461.564C462.418 499.4 462.852 498.924 462.852 497.972V487.024H458.498V493.898C458.484 495.788 458.204 497.342 457.644 498.56L458.652 499.47C459.226 498.224 459.562 496.642 459.66 494.738ZM465.05 493.352H465.232C465.54 494.654 466.1 495.83 466.912 496.866C466.394 497.454 465.778 497.958 465.05 498.35V493.352ZM465.05 498.392L465.736 499.428C466.52 499.008 467.206 498.476 467.78 497.832C468.368 498.406 469.068 498.938 469.866 499.414L470.524 498.294C469.768 497.846 469.096 497.356 468.522 496.81C469.11 495.844 469.53 494.668 469.782 493.296V492.176H465.05V488.228H468.41C468.382 489.166 468.326 489.754 468.242 489.992C468.158 490.188 468.046 490.314 467.906 490.356C467.766 490.398 467.542 490.426 467.248 490.426C466.856 490.426 466.548 490.412 466.324 490.412L466.674 491.532H467.85C468.746 491.532 469.278 491.238 469.446 490.65C469.614 490.048 469.698 488.844 469.698 487.024H463.804V499.456H465.05V498.392ZM466.366 493.352H468.606C468.382 494.276 468.06 495.102 467.64 495.83C467.066 495.088 466.646 494.262 466.366 493.352ZM475.634 486.464C475.06 487.822 473.954 488.97 472.316 489.908L473.128 490.972C473.702 490.622 474.22 490.244 474.696 489.838C475.27 490.314 475.886 490.762 476.558 491.154C475.102 491.7 473.422 492.092 471.546 492.33L472.162 493.576C474.374 493.24 476.334 492.694 478.014 491.938C479.75 492.764 481.71 493.296 483.88 493.548L484.482 492.302C482.634 492.134 480.968 491.756 479.47 491.196C480.66 490.496 481.682 489.656 482.522 488.69V487.612H476.53C476.698 487.318 476.852 486.996 476.992 486.66L475.634 486.464ZM478 490.538C477.118 490.09 476.306 489.558 475.578 488.956C475.592 488.928 475.62 488.9 475.662 488.858H480.576C479.82 489.502 478.966 490.062 478 490.538ZM476.992 492.792C476.992 493.296 476.936 493.772 476.852 494.22H472.512V495.41H476.446C476.362 495.592 476.25 495.774 476.138 495.956C475.438 496.922 473.94 497.734 471.658 498.406L472.54 499.484C475.13 498.658 476.768 497.622 477.468 496.362C477.636 496.068 477.776 495.746 477.902 495.41H481.696C481.654 496.642 481.542 497.412 481.36 497.706C481.178 497.986 480.73 498.14 480.016 498.154C479.568 498.126 478.98 498.098 478.252 498.07L478.588 499.274C479.26 499.316 479.848 499.344 480.324 499.344C481.304 499.344 482.004 499.092 482.396 498.616C482.788 498.14 482.998 496.67 483.026 494.22H478.196C478.266 493.772 478.308 493.296 478.308 492.792H476.992Z" fill="#1D2129"/>
<path d="M314 63H261C249.954 63 241 71.9543 241 83V279" stroke="#C9CDD4"/>
<path d="M186 272H315" stroke="#C9CDD4"/>
<path d="M313 493H261C249.954 493 241 484.046 241 473V277" stroke="#C9CDD4"/>
<path d="M628 10H575C563.954 10 555 18.9543 555 30V80" stroke="#C9CDD4"/>
<path d="M500 61.5H629" stroke="#C9CDD4"/>
<path d="M627 119H575C563.954 119 555 110.046 555 99V80" stroke="#C9CDD4"/>
</svg>
