<svg width="116" height="24" viewBox="0 0 116 24" fill="none" xmlns="http://www.w3.org/2000/svg">
<g id="logo" clip-path="url(#clip0_7118_5819)">
<g id="Group">
<path id="Vector" fill-rule="evenodd" clip-rule="evenodd" d="M5.81964 6.4932H2.40481L0 2.59741H11.2545C9.09018 3.31885 7.16633 4.71364 5.81964 6.4932ZM14.7655 7.07036V19.4792C13.2745 19.4792 11.9279 18.9501 10.8697 18.0844V8.46515C11.9279 7.59942 13.2745 7.07036 14.7655 7.07036Z" fill="#2C65FF"/>
<path id="Vector_2" fill-rule="evenodd" clip-rule="evenodd" d="M14.8136 2.59719C8.94589 2.59719 4.13627 7.35872 4.13627 13.2746C4.13627 19.1423 8.89779 23.9519 14.8136 23.9519C20.6814 23.9519 25.491 19.1904 25.491 13.2746V0C24.1924 2.11623 22.8938 4.37675 21.5952 6.49299V13.2746C21.5952 17.0261 18.5651 20.0561 14.8136 20.0561C11.0621 20.0561 8.03206 17.0261 8.03206 13.2746C8.03206 9.52305 11.0621 6.49299 14.8136 6.49299C16.8337 6.49299 18.8537 6.49299 20.8256 6.49299L23.2305 2.59719C20.4409 2.59719 17.6032 2.59719 14.8136 2.59719Z" fill="#F3961A"/>
</g>
<path id="Vector_3" d="M105.379 16.4012L107.014 14.1888H109.178C109.419 14.1888 109.707 14.1888 109.996 14.1888C110.285 14.1888 110.525 14.1888 110.717 14.2369C110.621 14.0926 110.429 13.9002 110.285 13.6597C110.092 13.4192 109.996 13.2269 109.852 12.9864L108.313 10.6778L104.273 16.4493H101.098L106.629 8.60963C106.822 8.36915 107.062 8.12867 107.303 7.93628C107.591 7.7439 107.928 7.64771 108.361 7.64771C108.794 7.64771 109.082 7.7439 109.371 7.93628C109.659 8.12867 109.852 8.36915 110.044 8.60963L115.431 16.4012H105.379ZM80.8497 11.9764C80.8497 12.6016 80.7054 13.1788 80.4649 13.7559C80.1763 14.3331 79.8397 14.7659 79.4068 15.1507C78.9739 15.5355 78.3968 15.8241 77.7234 16.0645C77.0982 16.2569 76.4248 16.4012 75.6553 16.4012H69.8837V11.0144H72.5771V14.1888H75.7034C76.0881 14.1888 76.4248 14.1407 76.7615 14.0445C77.0982 13.9483 77.3387 13.804 77.5791 13.6116C77.7715 13.4192 78.012 13.1788 78.1082 12.9383C78.2525 12.6978 78.3006 12.4092 78.3006 12.1207C78.3006 11.8321 78.2525 11.5435 78.1082 11.303C77.9639 11.0625 77.8196 10.8221 77.531 10.6297C77.2425 10.4373 77.002 10.293 76.7134 10.1968C76.4248 10.1006 76.0401 10.0044 75.7034 10.0044H69.9318L71.6152 7.7439H75.7034C76.4729 7.7439 77.1463 7.84009 77.7715 8.03248C78.3968 8.22486 78.9258 8.51344 79.4549 8.89821C79.8877 9.28298 80.2725 9.71584 80.513 10.2449C80.7535 10.774 80.8497 11.3992 80.8497 11.9764ZM84.6493 16.4012L86.2845 14.1888H88.4489C88.6894 14.1888 88.9779 14.1888 89.2665 14.1888C89.5551 14.1888 89.7956 14.1888 89.988 14.2369C89.8918 14.0926 89.6994 13.9002 89.5551 13.6597C89.3627 13.4192 89.2665 13.2269 89.1222 12.9864L87.5831 10.6778L83.5431 16.4493H80.3687L85.8998 8.60963C86.0922 8.36915 86.3326 8.12867 86.5731 7.93628C86.8617 7.7439 87.1984 7.64771 87.6312 7.64771C88.0641 7.64771 88.3527 7.7439 88.6413 7.93628C88.9298 8.12867 89.1222 8.36915 89.3146 8.60963L94.7495 16.4012H84.6493ZM103.647 7.7439L101.916 10.0044H98.8377V16.4012H96.1924V9.95632H92.1523L93.8837 7.6958H103.647V7.7439Z" fill="#F3961A"/>
<path id="Vector_4" d="M68.5371 10.9663C68.5371 11.4473 68.4409 11.8802 68.2485 12.2649C68.0561 12.6497 67.8156 12.9864 67.4309 13.275C67.0461 13.5635 66.6132 13.7559 66.0842 13.9483C65.5551 14.0926 64.978 14.1888 64.3046 14.1888H59.7836V16.4012H57.1383V11.9764H64.5932C65.0261 11.9764 65.3146 11.8802 65.5551 11.6878C65.7956 11.4954 65.8918 11.2549 65.8918 10.9663C65.8918 10.6778 65.7956 10.3892 65.5551 10.2449C65.3146 10.0525 64.978 9.95632 64.5932 9.95632H57.1383L58.9179 7.6958H64.3527C65.0261 7.6958 65.6513 7.7439 66.1323 7.93628C66.6613 8.12867 67.0942 8.32105 67.4309 8.60963C67.7675 8.89821 68.0561 9.23488 68.2485 9.61965C68.3928 10.0044 68.489 10.4373 68.5371 10.9663ZM44.3928 7.7439L42.6613 10.0044H39.5832V16.4012H36.9379V9.95632H32.8978L34.6293 7.6958H44.3928V7.7439ZM46.1243 16.4012L47.7595 14.1888H49.9239C50.1643 14.1888 50.4529 14.1888 50.7415 14.1888C51.0301 14.1888 51.2706 14.1888 51.4629 14.2369C51.3667 14.0926 51.1744 13.9002 51.0301 13.6597C50.8377 13.4192 50.7415 13.2269 50.5972 12.9864L49.0581 10.6778L45.0181 16.4493H41.8437L47.3748 8.60963C47.5672 8.36915 47.8076 8.12867 48.0481 7.93628C48.3367 7.7439 48.6734 7.64771 49.1062 7.64771C49.5391 7.64771 49.8277 7.7439 50.1162 7.93628C50.4048 8.12867 50.5972 8.36915 50.7896 8.60963L56.1764 16.4493L46.1243 16.4012Z" fill="#2C65FF"/>
</g>
<defs>
<clipPath id="clip0_7118_5819">
<rect width="115.431" height="24" fill="white"/>
</clipPath>
</defs>
</svg>
