<svg width="48" height="48" viewBox="0 0 48 48" fill="none" xmlns="http://www.w3.org/2000/svg">
<path d="M6.74063 2.90625H41.2594C43.3688 2.90625 45.0938 4.63125 45.0938 6.74063V33.5859C45.0938 35.6953 43.3688 37.4203 41.2594 37.4203H6.74063C4.63125 37.4203 2.90625 35.6953 2.90625 33.5859V6.74063C2.90625 4.63125 4.63125 2.90625 6.74063 2.90625ZM12.4922 12.4922C11.3438 12.4922 10.575 13.2609 10.575 14.4094V27.8344C10.575 28.9828 11.3438 29.7516 12.4922 29.7516C13.6406 29.7516 14.4094 28.9828 14.4094 27.8344V14.4141C14.4141 13.2609 13.6453 12.4922 12.4922 12.4922ZM20.1656 20.1656C19.0172 20.1656 18.2484 20.9344 18.2484 22.0828V27.8344C18.2484 28.9828 19.0172 29.7516 20.1656 29.7516C21.3141 29.7516 22.0828 28.9828 22.0828 27.8344V22.0828C22.0828 20.9297 21.3141 20.1656 20.1656 20.1656ZM27.8344 14.4141C26.6859 14.4141 25.9172 15.1828 25.9172 16.3312V27.8391C25.9172 28.9875 26.6859 29.7562 27.8344 29.7562C28.9828 29.7562 29.7516 28.9875 29.7516 27.8391V16.3312C29.7516 15.1781 28.9875 14.4141 27.8344 14.4141ZM35.5078 10.575C34.3594 10.575 33.5906 11.3438 33.5906 12.4922V27.8344C33.5906 28.9828 34.3594 29.7516 35.5078 29.7516C36.6563 29.7516 37.425 28.9828 37.425 27.8344V12.4922C37.425 11.3438 36.6563 10.575 35.5078 10.575ZM4.82344 41.2594H43.1766C44.325 41.2594 45.0938 42.0281 45.0938 43.1766C45.0938 44.325 44.325 45.0938 43.1766 45.0938H4.82344C3.675 45.0938 2.90625 44.325 2.90625 43.1766C2.90625 42.0281 3.675 41.2594 4.82344 41.2594Z" fill="#00B42A"/>
</svg>
