<svg width="36" height="36" viewBox="0 0 36 36" fill="none" xmlns="http://www.w3.org/2000/svg">
<path d="M0 0H31.5C33.7091 0 35.5 1.79086 35.5 4V36L0 0Z" fill="#2C65FF"/>
<path d="M23.8592 12.3394L20.9161 9.39633C20.6506 9.13087 20.302 9.04398 19.9445 9.14304C19.5916 9.24082 19.3351 9.48925 19.2422 9.85241C19.1505 10.2104 19.25 10.5469 19.4932 10.8087C19.4974 10.8132 19.5017 10.8176 19.506 10.8219L23.506 14.8219C23.7013 15.0172 24.0178 15.0172 24.2131 14.8219L32.2131 6.82194C32.2195 6.8156 32.2256 6.80908 32.2316 6.80241C32.4085 6.60536 32.5022 6.36036 32.4922 6.09043C32.4824 5.82379 32.3744 5.58804 32.189 5.40324C32.0041 5.21896 31.7655 5.10889 31.4921 5.10889C31.2286 5.10889 30.9948 5.20832 30.8065 5.37733C30.7997 5.38344 30.7931 5.38975 30.7866 5.39623L23.8592 12.3394Z" fill="white" stroke="white" stroke-linejoin="round"/>
</svg>
