<?xml version="1.0" encoding="UTF-8"?>
<svg width="24px" height="24px" viewBox="0 0 24 24" version="1.1" xmlns="http://www.w3.org/2000/svg" xmlns:xlink="http://www.w3.org/1999/xlink">
    <title>aggregator</title>
    <g id="页面-1" stroke="none" stroke-width="1" fill="none" fill-rule="evenodd">
        <g id="aggregator" fill="#333333" fill-rule="nonzero">
            <rect id="矩形" opacity="0" x="0" y="0" width="24" height="24"></rect>
            <g id="Ag">
                <path d="M4.23979592,16.3545918 L5.1122449,13.6377551 L9.42091837,13.6377551 L10.3086735,16.3545918 L13.0637755,16.3545918 L8.80867347,4.5 L5.83928571,4.5 L1.5,16.3545918 L4.23979592,16.3545918 Z M8.82397959,11.6862245 L5.66326531,11.6862245 L7.01785714,7.54591837 C7.125,7.2244898 7.19387755,6.89030612 7.2244898,6.54336735 L7.2244898,6.54336735 L7.29336735,6.54336735 C7.32908163,6.97193878 7.39030612,7.31632653 7.47704082,7.57653061 L7.47704082,7.57653061 L8.82397959,11.6862245 Z M17.2882653,20.3265306 C18.9719388,20.3265306 20.2614796,19.9017857 21.1568878,19.0522959 C22.0522959,18.2028061 22.5,16.9923469 22.5,15.4209184 L22.5,15.4209184 L22.5,7.89030612 L20.0357143,7.89030612 L20.0357143,8.9005102 L19.997449,8.9005102 C19.4770408,8.08928571 18.6964286,7.68367347 17.6556122,7.68367347 C16.5076531,7.68367347 15.5803571,8.10841837 14.8737245,8.95790816 C14.1670918,9.80739796 13.8137755,10.9438776 13.8137755,12.3673469 C13.8137755,13.6428571 14.1339286,14.6607143 14.7742347,15.4209184 C15.4145408,16.1811224 16.2678571,16.5612245 17.3341837,16.5612245 C18.5127551,16.5612245 19.4005102,16.0790816 19.997449,15.1147959 L19.997449,15.1147959 L20.0357143,15.1147959 L20.0357143,15.8188776 C20.0357143,16.6556122 19.7869898,17.309949 19.2895408,17.7818878 C18.7920918,18.2538265 18.1020408,18.4897959 17.2193878,18.4897959 C16.3265306,18.4897959 15.4413265,18.2346939 14.5637755,17.7244898 L14.5637755,17.7244898 L14.5637755,19.8367347 C15.2372449,20.1632653 16.1454082,20.3265306 17.2882653,20.3265306 Z M18.1607143,14.6632653 C17.6045918,14.6632653 17.1581633,14.4502551 16.8214286,14.0242347 C16.4846939,13.5982143 16.3163265,13.0153061 16.3163265,12.2755102 C16.3163265,11.4234694 16.4910714,10.7614796 16.8405612,10.2895408 C17.190051,9.81760204 17.6658163,9.58163265 18.2678571,9.58163265 C18.7831633,9.58163265 19.2104592,9.77423469 19.5497449,10.1594388 C19.8890306,10.5446429 20.0586735,11.0178571 20.0586735,11.5790816 L20.0586735,11.5790816 L20.0586735,12.3214286 C20.0586735,13.0153061 19.8826531,13.5790816 19.5306122,14.0127551 C19.1785714,14.4464286 18.7219388,14.6632653 18.1607143,14.6632653 Z" id="path-1"></path>
            </g>
        </g>
    </g>
</svg>
