<?xml version="1.0" standalone="no"?><!DOCTYPE svg PUBLIC "-//W3C//DTD SVG 1.1//EN" "http://www.w3.org/Graphics/SVG/1.1/DTD/svg11.dtd"><svg t="1628835484487" class="icon" viewBox="0 0 1024 1024" version="1.1" xmlns="http://www.w3.org/2000/svg" p-id="2052" xmlns:xlink="http://www.w3.org/1999/xlink" width="200" height="200"><defs><style type="text/css"></style></defs><path d="M512 0c282.773333 0 512 229.226667 512 512S794.773333 1024 512 1024 0 794.773333 0 512 229.226667 0 512 0z m181.013333 647.765333l-135.573333-135.594666 137.493333-137.493334a32.256 32.256 0 0 0-45.589333-45.653333L511.786667 466.56l-135.573334-135.573333a32 32 0 1 0-45.248 45.226666l135.573334 135.594667-136.490667 136.533333a32.213333 32.213333 0 1 0 45.589333 45.589334l136.512-136.490667 135.594667 135.573333a32 32 0 1 0 45.248-45.226666z" fill="#8a8a8a" p-id="2053"></path></svg>