<?xml version="1.0" encoding="UTF-8"?>
<svg width="24px" height="24px" viewBox="0 0 24 24" version="1.1" xmlns="http://www.w3.org/2000/svg" xmlns:xlink="http://www.w3.org/1999/xlink">
    <title>field-processor</title>
    <g id="页面-1" stroke="none" stroke-width="1" fill="none" fill-rule="evenodd">
        <g id="field-processor" fill="#333333" fill-rule="nonzero">
            <rect id="矩形" opacity="0" x="0" y="0" width="24" height="24"></rect>
            <g id="Fp">
                <path d="M4.58548531,17.483081 L4.58548531,11.7702582 L9.34461264,11.7702582 L9.34461264,9.24577026 L4.58548531,9.24577026 L4.58548531,5.52448798 L9.75601069,5.52448798 L9.75601069,3 L1.5,3 L1.5,17.483081 L4.58548531,17.483081 Z M14.9078362,22.2422084 L14.9078362,16.239537 L14.945236,16.239537 C15.5997329,17.2368655 16.5596616,17.7355298 17.8250223,17.7355298 C19.2212823,17.7355298 20.3495102,17.215049 21.2097061,16.1740873 C22.069902,15.1331256 22.5,13.7493321 22.5,12.022707 C22.5,10.4394479 22.1291184,9.1881122 21.3873553,8.26869991 C20.6455922,7.34928762 19.6170971,6.88958148 18.30187,6.88958148 C16.8557435,6.88958148 15.7368655,7.50044524 14.945236,8.72217275 L14.945236,8.72217275 L14.9078362,8.72217275 L14.9078362,7.14203028 L11.8878005,7.14203028 L11.8878005,22.2422084 L14.9078362,22.2422084 Z M17.0115761,15.4167409 C16.3757792,15.4167409 15.858415,15.182992 15.4594835,14.7154942 C15.0605521,14.2479964 14.8610864,13.6464826 14.8610864,12.9109528 L14.8610864,12.9109528 L14.8610864,12.0133571 C14.8610864,11.190561 15.0776937,10.5173642 15.5109083,9.9937667 C15.9441229,9.47016919 16.5035619,9.20837044 17.1892253,9.20837044 C18.6665183,9.20837044 19.4051647,10.1558326 19.4051647,12.0507569 C19.4051647,13.1228851 19.1947907,13.9519145 18.7740427,14.5378451 C18.3532947,15.1237756 17.7658059,15.4167409 17.0115761,15.4167409 Z" id="path-1"></path>
            </g>
        </g>
    </g>
</svg>
