<?xml version="1.0" encoding="UTF-8"?>
<svg width="24px" height="24px" viewBox="0 0 24 24" version="1.1" xmlns="http://www.w3.org/2000/svg" xmlns:xlink="http://www.w3.org/1999/xlink">
    <title>js</title>
    <g id="é¡µé¢-1" stroke="none" stroke-width="1" fill="none" fill-rule="evenodd">
        <g id="js" fill="#333333" fill-rule="nonzero">
            <rect id="çŸ©å½¢" opacity="0" x="0" y="0" width="24" height="24"></rect>
            <g id="Js">
                <path d="M3.92136026,20.5855473 C5.88522848,20.5855473 7.3934644,19.9755579 8.44606801,18.7555792 C9.49867163,17.5356004 10.0249734,15.7837407 10.0249734,13.5 L10.0249734,13.5 L10.0249734,3 L6.34272051,3 L6.34272051,13.3660999 C6.34272051,16.0515409 5.45749203,17.3942614 3.68703507,17.3942614 C2.86875664,17.3942614 2.13974495,17.1524973 1.5,16.6689692 L1.5,16.6689692 L1.5,20.1392136 C2.24388948,20.4367694 3.05100956,20.5855473 3.92136026,20.5855473 Z M16.8873539,20.5855473 C18.5908608,20.5855473 19.9521785,20.2340595 20.9713071,19.531084 C21.9904357,18.8281084 22.5,17.8405951 22.5,16.5685441 C22.5,15.9139214 22.3530818,15.337407 22.0592455,14.8390011 C21.7654091,14.3405951 21.3376727,13.9388948 20.7760361,13.6339001 C20.2143996,13.3289054 19.3756642,12.9904357 18.25983,12.618491 C17.2183847,12.2688629 16.6976621,11.8113709 16.6976621,11.2460149 C16.6976621,10.9112646 16.8724761,10.6416047 17.2221041,10.4370351 C17.5717322,10.2324655 18.0329437,10.1301807 18.6057386,10.1301807 C19.7587673,10.1301807 20.8150903,10.4128587 21.7747078,10.9782147 L21.7747078,10.9782147 L21.7747078,8.14399575 C20.7258236,7.80924548 19.6360255,7.64187035 18.5053135,7.64187035 C16.91339,7.64187035 15.6264612,7.98591923 14.6445271,8.674017 C13.662593,9.36211477 13.1716259,10.3124336 13.1716259,11.5249734 C13.1716259,12.5217853 13.4580234,13.3121679 14.0308183,13.8961211 C14.6036132,14.4800744 15.6562168,15.0100956 17.1886291,15.4861849 C18.4160468,15.8655685 19.0297556,16.3379384 19.0297556,16.9032944 C19.0297556,17.6992561 18.2858661,18.097237 16.7980871,18.097237 C15.6153029,18.097237 14.4064825,17.7215728 13.1716259,16.9702444 L13.1716259,16.9702444 L13.1716259,19.9495218 C14.3097768,20.3735388 15.5483528,20.5855473 16.8873539,20.5855473 Z" id="path-1"></path>
            </g>
        </g>
    </g>
</svg>
