<?xml version="1.0" encoding="UTF-8"?>
<svg width="24px" height="24px" viewBox="0 0 24 24" version="1.1" xmlns="http://www.w3.org/2000/svg" xmlns:xlink="http://www.w3.org/1999/xlink">
    <title>row-filter</title>
    <g id="页面-1" stroke="none" stroke-width="1" fill="none" fill-rule="evenodd">
        <g id="row-filter" fill="#333333" fill-rule="nonzero">
            <rect id="矩形" opacity="0" x="0" y="0" width="24" height="24"></rect>
            <g id="Rf">
                <path d="M4.8,19.63 L4.8,13.63 L5.8,13.63 C6.16,13.63 6.5,13.75 6.82,13.99 C7.14,14.23 7.55,14.7666667 8.05,15.6 L8.05,15.6 L10.48,19.63 L14.28,19.63 L11.36,15.04 C10.4933333,13.7066667 9.70333333,12.92 8.99,12.68 L8.99,12.68 L8.99,12.64 C10.07,12.3333333 10.9183333,11.8033333 11.535,11.05 C12.1516667,10.2966667 12.46,9.39333333 12.46,8.34 C12.46,5.54 10.6166667,4.14 6.93,4.14 L6.93,4.14 L1.5,4.14 L1.5,19.63 L4.8,19.63 Z M6.42,11.11 L4.8,11.11 L4.8,6.65 L6.48,6.65 C8.15333333,6.65 8.99,7.35 8.99,8.75 C8.99,9.42333333 8.755,9.985 8.285,10.435 C7.815,10.885 7.19333333,11.11 6.42,11.11 L6.42,11.11 Z M19.59,19.63 L19.59,10.98 L22.11,10.98 L22.11,8.57 L19.59,8.57 L19.59,7.33 C19.59,6.10333333 20.1433333,5.49 21.25,5.49 C21.6433333,5.49 22.06,5.57666667 22.5,5.75 L22.5,5.75 L22.5,3.21 C22.06,3.07 21.5,3 20.82,3 C19.4866667,3 18.41,3.37666667 17.59,4.13 C16.77,4.88333333 16.36,5.89 16.36,7.15 L16.36,7.15 L16.36,8.57 L14.51,8.57 L14.51,10.98 L16.36,10.98 L16.36,19.63 L19.59,19.63 Z" id="path-1"></path>
            </g>
        </g>
    </g>
</svg>
