<?xml version="1.0" encoding="UTF-8"?>
<svg width="30px" height="30px" viewBox="0 0 30 30" version="1.1" xmlns="http://www.w3.org/2000/svg" xmlns:xlink="http://www.w3.org/1999/xlink">
    <title>custom</title>
    <g id="custom" stroke="none" stroke-width="1" fill="none" fill-rule="evenodd">
        <circle id="椭圆形" stroke="#E3E3E3" fill="#FFFFFF" cx="14.9217305" cy="15.0782695" r="14.3496"></circle>
        <g transform="translate(7.000000, 5.000000)" fill="#4AAF47" fill-rule="nonzero" id="形状">
            <path d="M14.9996565,6.90506892 L14.3082895,6.88506003 L14.3082895,4.73610494 C14.3082895,4.21187194 13.8954733,3.7896843 13.384463,3.7896843 L10.2943534,3.7896843 L10.2943534,3.07936861 C10.2943534,1.38661627 8.80340559,0 7.15414477,0 C7.02188327,0 6.88761781,0.00800355714 6.75134838,0.02801245 C5.2423649,0.232103157 3.87365878,1.63272566 3.87365878,3.19542019 L3.87365878,3.7896843 L0.923826537,3.7896843 C0.414820159,3.7896843 0,4.21387283 0,4.73610494 L0,7.42730102 C1.31860707,7.75144509 2.30856436,8.97198755 2.30856436,10.4206314 C2.30856436,11.8692752 1.31860707,13.0898177 0,13.4119609 L0,17.0515785 C0,17.5758115 0.412816197,17.9979991 0.923826537,17.9979991 L4.23837988,17.9979991 C4.55300194,16.645398 5.74135147,15.6309471 7.15414477,15.6309471 C8.5649341,15.6309471 9.7552876,16.645398 10.0699097,18 L13.384463,18 C13.8934694,18 14.3082895,17.5758115 14.3082895,17.0535794 L14.3082895,13.6420631 L14.8874346,13.6020454 C16.4104458,13.6020454 17.77314,12.1473988 17.9735363,10.5967096 C18.2140117,8.72187639 16.7831828,6.90506892 14.9996565,6.90506892 Z M13.4145224,12.2454424 L12.8353774,12.2454424 L12.8353774,15.6749667 C12.8353774,16.1971988 12.4225612,16.6213873 11.9115508,16.6213873 L10.8614747,16.6213873 C9.88354117,14.7705647 8.51483505,14.4544242 7.10404571,14.4544242 C5.69325638,14.4544242 4.20230856,14.7605602 3.34661674,16.6233882 L2.2163821,16.6233882 C1.70737573,16.6233882 1.29255557,16.1991996 1.29255557,15.6769675 L1.29255557,14.1582926 C2.93580451,13.5680302 3.57907635,11.855269 3.57907635,10.4066252 C3.57907635,8.95798133 3.37266825,7.59737661 1.33263481,6.63494887 L1.31259519,6.18474878 C1.31259519,5.66251667 1.68533214,5.0982659 2.19634248,5.0982659 L5.10609548,5.0982659 L5.10609548,4.50400178 C5.10609548,2.94130725 5.4808364,1.26856381 6.98981987,1.26856381 L7.13410515,1.26856381 C8.65110447,1.26856381 8.97975426,2.71520676 8.97975426,4.40995998 L8.97975426,5.12027568 L11.9095469,5.12027568 C12.4185533,5.12027568 12.8333734,5.54446421 12.8333734,6.06669631 L12.8333734,8.29568697 L13.5467839,8.29568697 C15.0036644,8.29568697 16.6609411,8.37372165 16.6609411,10.2685638 C16.6609411,11.7752334 14.9375336,12.2454424 13.4145224,12.2454424 L13.4145224,12.2454424 Z"></path>
        </g>
    </g>
</svg>