<?xml version="1.0" encoding="UTF-8"?>
<svg width="30px" height="30px" viewBox="0 0 30 30" version="1.1" xmlns="http://www.w3.org/2000/svg" xmlns:xlink="http://www.w3.org/1999/xlink">
    <title>KUDU</title>
    <defs>
        <radialGradient cx="42.6961345%" cy="50.4193127%" fx="42.6961345%" fy="50.4193127%" r="71.1322668%" gradientTransform="translate(0.426961,0.504193),scale(0.700000,1.000000),rotate(-31.014721),translate(-0.426961,-0.504193)" id="radialGradient-1">
            <stop stop-color="#25AAE1" offset="0%"></stop>
            <stop stop-color="#0E76BC" offset="100%"></stop>
        </radialGradient>
    </defs>
    <g id="KUDU" stroke="none" stroke-width="1" fill="none" fill-rule="evenodd">
        <circle id="椭圆形" stroke="#E3E3E3" fill="#FFFFFF" cx="14.9217305" cy="15.0782695" r="14.3496"></circle>
        <g id="kudu" transform="translate(5.000000, 5.000000)">
            <rect id="矩形" x="0" y="0" width="20" height="20"></rect>
            <path d="M19.6184266,16.9758559 C19.3764126,16.9481322 19.175301,16.885223 18.9024741,16.7520137 C18.6026729,16.6056318 18.5925972,16.59341 18.5925972,16.3761249 C18.5925972,16.23054 18.6030597,16.1868836 18.6414269,16.1723879 C18.7233007,16.1414333 18.9459529,16.2813443 19.0645554,16.4382372 C19.1727082,16.5813051 19.1849104,16.5881237 19.5554316,16.7124282 C19.977586,16.8540561 20.0403254,16.8907493 19.9808951,16.9612586 C19.9400394,17.0097305 19.9206397,17.010509 19.6184266,16.9758743 L19.6184266,16.9758559 Z M17.6998563,15.8914121 L17.5301616,15.7363346 L17.5301616,15.4123793 C17.5301616,15.2342059 17.5421554,15.0884271 17.5568085,15.0884271 C17.5714647,15.0884271 17.6644279,15.2181656 17.7633935,15.3767385 C17.9357257,15.652865 17.9433307,15.673127 17.9433307,15.8562082 C17.9433307,15.9899959 17.9322588,16.0472342 17.9064407,16.0469338 C17.8861501,16.0467111 17.7931879,15.9767094 17.6998557,15.8914121 L17.6998563,15.8914121 Z M16.6219425,14.7681304 L16.3496779,14.4768867 L16.3496779,13.999094 C16.3496779,13.5424249 16.3524591,13.5198459 16.4120775,13.4884174 C16.44959,13.4686631 16.5260419,13.4631553 16.6037679,13.4746325 C16.7420069,13.4950638 16.838611,13.5891029 16.9032894,13.7662609 C16.935431,13.8542968 16.9757394,14.9557656 16.9492832,15.0230502 C16.9414269,15.0430199 16.9258207,15.0593772 16.9146047,15.0593772 C16.9033891,15.0593772 16.7716885,14.9283188 16.6219432,14.7681366 L16.6219425,14.7681304 Z M13.29187,14.4481506 C13.2251257,14.435135 13.1155629,14.4099067 13.0483957,14.392097 L12.9262741,14.359727 L12.9262741,12.1051605 L12.9262741,9.85059704 L13.0128138,9.86764359 C13.060411,9.87699765 13.2043132,9.9245403 13.3325963,9.97324913 L13.5658391,10.0618174 L13.5852547,12.2245387 C13.5959266,13.4140342 13.5966954,14.4077251 13.5869422,14.4327318 C13.5677204,14.4820653 13.4872129,14.4862746 13.2918654,14.4481783 L13.29187,14.4481506 Z M14.0389335,14.4598432 C14.0275397,14.4486122 14.0182241,13.4697155 14.0182241,12.2844816 L14.0182241,10.1295143 L14.0958975,10.0590665 C14.233715,9.93406976 14.2824682,9.78481704 14.283185,9.4856962 C14.2835288,9.33694503 14.2688507,9.15664236 14.2505344,9.0850253 C14.2322188,9.01340516 14.2257188,8.94645591 14.2360875,8.93624644 C14.2664875,8.90633804 14.4303641,9.0758897 14.5212091,9.23129025 C14.5673447,9.3102121 14.6202888,9.46059408 14.6388629,9.5654673 C14.6740469,9.7641304 14.6567972,9.88865639 14.537995,10.2937366 C14.4665144,10.5374623 14.4801188,10.7316022 14.6001025,11.1800281 L14.7089541,11.5868499 L14.7195322,12.970513 L14.7301104,14.35417 L14.6028875,14.3845092 C14.532915,14.4011865 14.4159029,14.4232608 14.3428604,14.4335472 C14.2698179,14.4438552 14.1762147,14.4585632 14.1348532,14.466228 C14.0934916,14.4739205 14.05033,14.4710589 14.0389388,14.4598278 L14.0389335,14.4598432 Z M15.2470954,14.2022341 C15.2189266,14.1299494 15.2251704,13.3365154 15.2542672,13.2913113 C15.2748735,13.2592859 15.2974244,13.2616491 15.3792419,13.3042347 C15.4341485,13.3327892 15.5587554,13.3836427 15.656145,13.4171881 L15.8332175,13.4781772 L15.841505,13.8329024 C15.8460613,14.0280024 15.8394425,14.1886123 15.8267488,14.1898092 C15.8140769,14.1907323 15.7306638,14.1957171 15.6413897,14.200271 C15.5521157,14.204825 15.431126,14.2180253 15.3725238,14.2296255 C15.2873591,14.2464567 15.2621863,14.2409489 15.2470972,14.2022403 L15.2470954,14.2022341 Z M12.3177869,14.0145713 C12.2184766,13.9364648 12.0889925,13.8146005 12.0300435,13.743768 L11.9228632,13.6149773 L11.9228632,11.6347095 L11.9228632,9.65444476 L12.0163597,9.65444476 C12.1564932,9.65444476 12.493175,9.71564004 12.5352388,9.74875466 C12.5641669,9.77152442 12.5721291,10.2507325 12.5721291,11.9681727 C12.5721291,13.7016255 12.5644322,14.1583469 12.5352388,14.1575664 C12.5149482,14.15695 12.417096,14.0926777 12.3177869,14.0145713 Z M7.20092753,13.2273006 C6.6018719,13.1557327 6.04061252,12.9934582 5.49288752,12.7334583 C5.08096565,12.5379214 5.09978752,12.5487401 3.85130314,11.7898147 C2.67027189,11.0718902 2.21297814,10.8075086 2.19049689,10.8296415 C2.16524689,10.8545036 2.31198751,11.1422611 2.46834376,11.3744727 C2.67286251,11.6782059 2.96580939,11.9259409 3.32549064,12.0993388 C3.62997189,12.2461176 3.74405627,12.3433538 3.79129377,12.4963327 C3.82855939,12.6170186 3.76607502,12.6474932 3.48141877,12.6474932 C3.18061564,12.6474932 2.93538439,12.5832794 2.72252189,12.4487716 C2.53145001,12.3280365 2.41920939,12.2071598 2.25945001,11.9500861 C1.91666564,11.3984948 1.51915939,11.0075472 0.84451876,10.5584874 C0.150221884,10.0963443 0,9.93858679 0,9.67186671 C0,9.38134607 0.246421884,9.01514982 0.441843759,9.01514982 C0.487600009,9.01514982 0.87503126,9.1441713 1.30280939,9.30185806 C2.41735314,9.71271381 3.08833439,9.94503309 3.16041877,9.94503309 C3.21568439,9.94503309 3.22126564,9.93229433 3.20819689,9.83606131 C3.20004064,9.7761276 3.16502814,9.62901955 3.13035627,9.50914906 C2.94427189,8.86584171 2.99575627,8.1429602 3.27512502,7.4764954 C3.54639377,6.82935412 3.88873439,6.446059 4.42120314,6.1933054 C4.55609689,6.12927314 4.71627502,6.03257549 4.77715315,5.97842038 C4.91285627,5.85770371 5.06629065,5.56542304 5.0265344,5.50336312 C5.01106565,5.47920871 4.78852815,5.40593316 4.51378127,5.33454072 C4.24680939,5.26517602 3.92413127,5.18106021 3.79672189,5.14762866 C3.54082814,5.08047939 3.41790314,5.08860574 3.24452814,5.18412797 C3.18012502,5.21961188 3.10016564,5.23833539 3.03794377,5.23250141 L2.93642814,5.22299349 L2.93799064,4.99052345 C2.93986564,4.71531701 2.98890314,4.60302824 3.15350002,4.4957765 C3.29273127,4.40505438 3.29102814,4.40553439 4.27910314,4.17840293 C5.32931565,3.93699421 5.91673752,3.76921798 6.45696565,3.55638531 C7.1034019,3.30171167 7.29340909,3.27322177 8.04400503,3.3184259 C8.33501378,3.33593401 8.91840409,3.38160584 9.34042722,3.41988366 C10.4717844,3.52248913 10.6378213,3.53016316 10.9781016,3.49559312 C11.5013497,3.4424288 11.8982432,3.31369656 12.2283288,3.09008211 C12.3014613,3.04053633 12.3688647,3 12.3781141,3 C12.46601,3 12.2410235,3.28116965 12.0490735,3.41120346 C11.8675735,3.53416325 11.6876435,3.5982109 11.3731994,3.65180293 C10.7750544,3.75374377 10.3099741,3.78913844 9.25189191,3.81324055 C8.34103065,3.83401026 8.11589565,3.84761366 7.89433472,3.89537477 C7.44252596,3.99278628 6.95302503,4.20633281 6.79078128,4.37680449 C6.71222502,4.45934488 6.71205627,4.44727075 6.80062503,5.07770087 C6.93406253,6.02772307 6.80750003,6.44078196 6.01631877,7.63709607 C5.88867502,7.83010674 5.78428752,8.00664009 5.78435002,8.02938524 C5.7844094,8.052155 5.84749065,8.09526063 5.92453127,8.12521517 C6.3120219,8.27588331 6.83650628,8.6129558 7.54122346,9.16423638 C8.06199972,9.57162436 8.59476878,9.93200202 8.78763034,10.0073392 C8.91805847,10.058288 9.01422316,10.0731838 9.20764097,10.0724022 C9.42960378,10.0714791 9.49540878,10.057448 9.77901503,9.95037168 C9.95530128,9.88381012 10.1113472,9.83654132 10.1257825,9.84532307 C10.1405138,9.85427712 10.1520263,10.4761655 10.1520263,11.2630454 L10.1520263,12.6647951 L9.84952753,12.6983067 C9.47896972,12.7393722 9.09754034,12.8458301 8.76512034,13.0009753 C8.31144659,13.2127064 8.2267719,13.2341961 7.80581409,13.2444179 C7.59480284,13.2495257 7.32255378,13.2419563 7.20081721,13.227279 L7.20092753,13.2273006 Z M11.4496616,13.0956667 C11.3609425,13.0065323 11.2530903,12.9153025 11.2099907,12.8929328 C11.026471,12.7976813 11.0375,12.9043176 11.0375,11.2250999 C11.0375,9.94470077 11.04435,9.68502394 11.0788497,9.65682943 C11.1053185,9.63519816 11.2141822,9.62609025 11.3813488,9.63147499 L11.6424985,9.63990596 L11.6500953,11.4488159 C11.6542766,12.443713 11.6471891,13.2577197 11.6343328,13.2577197 C11.6214797,13.2577197 11.5383778,13.1847919 11.4496585,13.0956606 L11.4496616,13.0956667 Z M10.4915263,12.6952912 L10.2554294,12.6620227 L10.2477763,11.2491928 C10.241295,10.0523956 10.2465888,9.83108889 10.28236,9.80184821 C10.3402894,9.75450864 10.7774685,9.66823585 10.839895,9.6918241 C10.8868966,9.70957836 10.8899341,9.8173778 10.882831,11.2155366 L10.8751903,12.720138 L10.8014097,12.7243534 C10.7608307,12.726815 10.621386,12.713584 10.4915335,12.6953066 L10.4915263,12.6952912 Z" id="形状" fill="url(#radialGradient-1)" fill-rule="nonzero"></path>
        </g>
    </g>
</svg>