<?xml version="1.0" encoding="UTF-8"?>
<svg width="40px" height="40px" viewBox="0 0 40 40" version="1.1" xmlns="http://www.w3.org/2000/svg" xmlns:xlink="http://www.w3.org/1999/xlink">
    <title>cache3</title>
    <g id="cache3" stroke="none" stroke-width="1" fill="none" fill-rule="evenodd">
        <g fill="#4AAF47" fill-rule="nonzero" id="形状">
            <path d="M7.33905135,0 L3.66093194,0 C1.64999749,0 0,1.65 0,3.6609375 L0,7.3390625 C0,9.35429687 1.64999749,11 3.66093194,11 L7.33905135,11 C9.35428266,11 11,9.35 11,7.3390625 L11,3.6609375 C11.0042802,1.65 9.35428266,0 7.33905135,0 Z M8.29295615,6.66445313 C8.29295615,7.55820313 7.55819164,8.29296875 6.664443,8.29296875 L4.37850897,8.29296875 C3.48476033,8.29296875 2.74999582,7.55820313 2.74999582,6.66445313 L2.74999582,4.37851563 C2.74999582,3.48476562 3.48476033,2.75 4.37850897,2.75 L6.664443,2.75 C7.55819164,2.75 8.29295615,3.48476562 8.29295615,4.37851563 L8.29295615,6.66445313 L8.29295615,6.66445313 Z"></path>
            <path d="M4,13.7611177 L4,9.86442346 C4,9.38921684 4.40438871,9 4.89811912,9 L6.10188088,9 C6.59561129,9 7,9.38921684 7,9.86442346 L7,13.7611177 C7,14.2363243 6.59561129,14.6255411 6.10188088,14.6255411 L4.89811912,14.6255411 C4.40438871,14.6255411 4,14.2363243 4,13.7611177 L4,13.7611177 Z M4,31.1355765 L4,27.0850059 C4,26.6097993 4.40438871,26.2205824 4.89811912,26.2205824 L6.10188088,26.2205824 C6.59561129,26.2205824 7,26.6097993 7,27.0850059 L7,31.1355765 C7,31.6107832 6.59561129,32 6.10188088,32 L4.89811912,32 C4.40438871,32 4,31.6107832 4,31.1355765 Z M4,22.4641873 L4,18.3909878 C4,17.9157812 4.40438871,17.5265643 4.89811912,17.5265643 L6.10188088,17.5265643 C6.59561129,17.5265643 7,17.9157812 7,18.3909878 L7,22.4641873 C7,22.9393939 6.59561129,23.3286108 6.10188088,23.3286108 L4.89811912,23.3286108 C4.40438871,23.3286108 4,22.9393939 4,22.4641873 Z"></path>
            <path d="M7.62329506,28.5663243 L3.80272096,28.5663243 C1.70943912,28.5663243 0,30.2813756 0,32.3715945 L0,36.1947298 C0,38.2894149 1.7139024,40 3.80272096,40 L7.62329506,40 C9.7165769,40 11.4260247,38.2849486 11.4260247,36.1947298 L11.4260247,32.3715945 C11.4304793,30.2769093 9.7165769,28.5663243 7.62329506,28.5663243 Z M8.61414489,35.4890576 C8.61414489,36.4180438 7.85092272,37.1817776 6.92255892,37.1817776 L4.54808997,37.1817776 C3.61972617,37.1817776 2.856504,36.4180438 2.856504,35.4890576 L2.856504,33.1129969 C2.856504,32.1840107 3.61972617,31.4202769 4.54808997,31.4202769 L6.92255892,31.4202769 C7.85092272,31.4202769 8.61414489,32.1840107 8.61414489,33.1129969 L8.61414489,35.4890576 L8.61414489,35.4890576 Z M36.1972617,0 L32.3766876,0 C30.2834057,0 28.5739666,1.71505136 28.5739666,3.80527021 L28.5739666,7.62840554 C28.5739666,9.72309067 30.287869,11.4336757 32.3766876,11.4336757 L36.1972617,11.4336757 C38.2905435,11.4336757 39.9999913,9.71862439 39.9999913,7.62840554 L39.9999913,3.80527021 C40.0044459,1.71505136 38.2905435,0 36.1972617,0 Z M37.1881115,6.92719964 C37.1881115,7.8561858 36.4248893,8.61991961 35.4965255,8.61991961 L33.1220566,8.61991961 C32.1936928,8.61991961 31.4304706,7.8561858 31.4304706,6.92719964 L31.4304706,4.5511389 C31.4304706,3.62215275 32.1936928,2.85841894 33.1220566,2.85841894 L35.4965255,2.85841894 C36.4248893,2.85841894 37.1881115,3.62215275 37.1881115,4.5511389 L37.1881115,6.92719964 Z M36.1883351,28.5261277 L32.367761,28.5261277 C30.2744792,28.5261277 28.56504,30.2411791 28.56504,32.3313979 L28.56504,36.1545333 C28.56504,38.2492184 30.2789424,39.9598035 32.367761,39.9598035 L36.1883351,39.9598035 C38.2816169,39.9598035 39.9910648,38.2447521 39.9910648,36.1545333 L39.9910648,32.3313979 C39.9955194,30.2367128 38.2816169,28.5261277 36.1883351,28.5261277 Z M37.1791849,35.4488611 C37.1791849,36.3778473 36.4159628,37.1415811 35.487599,37.1415811 L33.11313,37.1415811 C32.1847662,37.1415811 31.421544,36.3778473 31.421544,35.4488611 L31.421544,33.0728004 C31.421544,32.1438142 32.1847662,31.3800804 33.11313,31.3800804 L35.487599,31.3800804 C36.4159628,31.3800804 37.1791849,32.1438142 37.1791849,33.0728004 L37.1791849,35.4488611 Z"></path>
            <path d="M27.0445545,5 L30.8806931,5 C31.3485149,5 31.7316832,5.37950178 31.7316832,5.84284698 L31.7316832,6.97252669 C31.7316832,7.43587189 31.3485149,7.81537367 30.8806931,7.81537367 L27.0445545,7.81537367 C26.5767327,7.81537367 26.1935644,7.43587189 26.1935644,6.97252669 L26.1935644,5.84284698 C26.1935644,5.37950178 26.5767327,5 27.0445545,5 Z M9.94009901,5 L13.9277228,5 C14.3955446,5 14.7787129,5.37950178 14.7787129,5.84284698 L14.7787129,6.97252669 C14.7787129,7.43587189 14.3955446,7.81537367 13.9277228,7.81537367 L9.94009901,7.81537367 C9.47227723,7.81537367 9.08910891,7.43587189 9.08910891,6.97252669 L9.08910891,5.84284698 C9.08910891,5.37950178 9.47227723,5 9.94009901,5 Z M18.4767327,5 L22.4866337,5 C22.9544554,5 23.3376238,5.37950178 23.3376238,5.84284698 L23.3376238,6.97252669 C23.3376238,7.43587189 22.9544554,7.81537367 22.4866337,7.81537367 L18.4767327,7.81537367 C18.0089109,7.81537367 17.6257426,7.43587189 17.6257426,6.97252669 L17.6257426,5.84284698 C17.6257426,5.37950178 18.0089109,5 18.4767327,5 Z M26.9554455,33.1846263 L30.7915842,33.1846263 C31.2594059,33.1846263 31.6425743,33.5641281 31.6425743,34.0274733 L31.6425743,35.157153 C31.6425743,35.6204982 31.2594059,36 30.7915842,36 L26.9554455,36 C26.4876238,36 26.1044554,35.6204982 26.1044554,35.157153 L26.1044554,34.0274733 C26.1044554,33.5641281 26.4876238,33.1846263 26.9554455,33.1846263 Z M9.8509901,33.1846263 L13.8386139,33.1846263 C14.3064356,33.1846263 14.689604,33.5641281 14.689604,34.0274733 L14.689604,35.157153 C14.689604,35.6204982 14.3064356,36 13.8386139,36 L9.8509901,36 C9.38316832,36 9,35.6204982 9,35.157153 L9,34.0274733 C9,33.5641281 9.38316832,33.1846263 9.8509901,33.1846263 Z M18.3876238,33.1846263 L22.3975248,33.1846263 C22.8653465,33.1846263 23.2485149,33.5641281 23.2485149,34.0274733 L23.2485149,35.157153 C23.2485149,35.6204982 22.8653465,36 22.3975248,36 L18.3876238,36 C17.919802,36 17.5366337,35.6204982 17.5366337,35.157153 L17.5366337,34.0274733 C17.5366337,33.5641281 17.919802,33.1846263 18.3876238,33.1846263 Z M33.1574257,13.9624199 L33.1574257,10.1629893 C33.1574257,9.69964413 33.5405941,9.32014235 34.0084158,9.32014235 L35.1490099,9.32014235 C35.6168317,9.32014235 36,9.69964413 36,10.1629893 L36,13.9624199 C36,14.4257651 35.6168317,14.8052669 35.1490099,14.8052669 L34.0084158,14.8052669 C33.5405941,14.8052669 33.1574257,14.4257651 33.1574257,13.9624199 L33.1574257,13.9624199 Z M33.1574257,30.9032028 L33.1574257,26.9537367 C33.1574257,26.4903915 33.5405941,26.1108897 34.0084158,26.1108897 L35.1490099,26.1108897 C35.6168317,26.1108897 36,26.4903915 36,26.9537367 L36,30.9032028 C36,31.366548 35.6168317,31.7460498 35.1490099,31.7460498 L34.0084158,31.7460498 C33.5405941,31.7460498 33.1574257,31.366548 33.1574257,30.9032028 Z M33.1574257,22.4482562 L33.1574257,18.476726 C33.1574257,18.0133808 33.5405941,17.633879 34.0084158,17.633879 L35.1490099,17.633879 C35.6168317,17.633879 36,18.0133808 36,18.476726 L36,22.4482562 C36,22.9116014 35.6168317,23.2911032 35.1490099,23.2911032 L34.0084158,23.2911032 C33.5405941,23.2911032 33.1574257,22.9116014 33.1574257,22.4482562 Z M27.0980198,15.6348754 L27.6905941,15.0656228 C27.9133663,14.8449822 28.0425743,14.5404982 28.0425743,14.2271886 C28.0425743,13.9094662 27.9133663,13.609395 27.6905941,13.3887544 C27.2183168,12.9342349 26.469802,12.9342349 25.9975248,13.3887544 L25.4272277,13.9535943 C24.010396,12.8989324 22.2772277,12.3252669 20.5039604,12.3385053 C16.6856436,12.3296797 13.3574257,14.92 12.4707921,18.6002847 C11.5841584,22.2805694 13.3618812,26.08 16.7747525,27.7833452 C20.1831683,29.4866904 24.3311881,28.6438434 26.7905941,25.753452 C29.2455446,22.8586477 29.3747525,18.6708897 27.0980198,15.6348754 Z M25.6232673,23.224911 C24.6074257,25.0871174 22.6425743,26.243274 20.5084158,26.2476868 L20.5306931,26.2476868 L20.499505,26.2476868 L20.5084158,26.2476868 C18.0267327,26.243274 15.8168317,24.6855516 15.0059406,22.3555872 C14.1950495,20.02121 14.970297,17.4353025 16.9351485,15.9172954 C18.9,14.3992883 21.6267327,14.2933808 23.7118812,15.6481139 L20.3925743,18.9356584 C19.9336634,19.4034164 19.9336634,20.1447687 20.3925743,20.6125267 C20.6153465,20.8331673 20.9227723,20.9655516 21.2391089,20.9655516 C21.5465347,20.956726 21.8405941,20.8331673 22.0544554,20.6125267 L25.3737624,17.3249822 C26.5455446,19.0945196 26.6435644,21.3627046 25.6232673,23.224911 L25.6232673,23.224911 Z"></path>
        </g>
    </g>
</svg>