<?xml version="1.0" encoding="UTF-8"?>
<svg width="30px" height="30px" viewBox="0 0 30 30" version="1.1" xmlns="http://www.w3.org/2000/svg" xmlns:xlink="http://www.w3.org/1999/xlink">
    <title>xml</title>
    <g id="xml" stroke="none" stroke-width="1" fill="none" fill-rule="evenodd">
        <circle id="椭圆形" stroke="#E3E3E3" fill="#FFFFFF" cx="15.3496" cy="15.3496" r="14.3496"></circle>
        <g transform="translate(7.852943, 7.849600)" fill="#4AAF47" fill-rule="nonzero">
            <g id="图层_7">
                <path d="M11.3139418,0.0133734537 L1.10330993,0.0150451354 C0.493146105,0.0150451354 0,0.509862922 0,1.11835507 L0.00668672685,13.8849883 C0.00668672685,14.4934804 0.499832832,14.9866265 1.10832497,14.9882982 L13.8732865,15 C14.4834504,15 14.9765965,14.5068539 14.9782681,13.8966901 L14.9816115,3.68271481 C14.9816115,3.39017051 14.8662655,3.10932798 14.6589769,2.90203945 L12.0946172,0.336008024 C11.8873287,0.128719492 11.6064861,0.0133734537 11.3139418,0.0133734537 Z M12.8385155,13.9184219 L2.21330659,13.9100635 C1.60481444,13.9100635 1.11166834,13.4169174 1.11166834,12.8067536 L1.10498161,2.20494818 C1.10498161,1.59478435 1.59812772,1.10163825 2.20829154,1.10163825 L10.7388833,1.09996657 C11.0314276,1.09996657 11.3122701,1.2153126 11.517887,1.42260114 L13.6225343,3.52390505 C13.8298228,3.73119358 13.9468405,4.01203611 13.9468405,4.30458041 L13.9434972,12.815112 C13.9418255,13.4252758 13.4470077,13.9184219 12.8385155,13.9184219 Z" id="形状"></path>
                <path d="M11.2671347,0.533266466 L11.2671347,4.5068539 C11.2671347,4.80106988 11.0280843,5.04012036 10.7338683,5.04012036 L10.7338683,5.04012036 C10.4396523,5.04012036 10.2006018,4.80106988 10.2006018,4.5068539 L10.2006018,0.533266466 C10.2006018,0.239050485 10.4396523,0 10.7338683,0 L10.7338683,0 C11.0280843,0 11.2671347,0.237378803 11.2671347,0.533266466 Z" id="路径"></path>
                <path d="M14.4349716,5.05015045 L10.7271815,5.05015045 C10.4329656,5.05015045 10.1939151,4.81109997 10.1939151,4.51688399 L10.1939151,4.51688399 C10.1939151,4.222668 10.4329656,3.98361752 10.7271815,3.98361752 L14.4349716,3.98361752 C14.7291876,3.98361752 14.968238,4.222668 14.968238,4.51688399 L14.968238,4.51688399 C14.968238,4.81277165 14.7291876,5.05015045 14.4349716,5.05015045 Z" id="路径"></path>
            </g>
            <g id="编组" transform="translate(2.067870, 6.235373)">
                <polygon id="路径" points="0.10698763 0 1.25877633 0 1.85723838 1.33734537 2.43898362 0 3.57907054 0 2.52591107 2.10631896 3.67769977 4.34971581 2.5041792 4.34971581 1.83550652 2.9521899 1.16683383 4.34971581 0 4.34971581 1.16683383 2.08291541"></polygon>
                <polygon id="路径" points="4.00200602 0 5.37612839 0 5.90605149 2.64627215 6.43263123 0 7.80675359 0 7.80675359 4.34971581 6.95085256 4.34971581 6.95085256 1.0330993 6.29053828 4.34971581 5.51654965 4.34971581 4.85790705 1.0330993 4.85790705 4.34971581 4.00200602 4.34971581 4.00200602 0"></polygon>
                <polygon id="路径" points="8.47208292 0 9.51688399 0 9.51688399 3.27816784 11.1484453 3.27816784 11.1484453 4.34971581 8.47208292 4.34971581"></polygon>
            </g>
        </g>
    </g>
</svg>