<?xml version="1.0" standalone="no"?><!DOCTYPE svg PUBLIC "-//W3C//DTD SVG 1.1//EN" "http://www.w3.org/Graphics/SVG/1.1/DTD/svg11.dtd"><svg t="1591175748028" class="icon" viewBox="0 0 1024 1024" version="1.1" xmlns="http://www.w3.org/2000/svg" p-id="13992" xmlns:xlink="http://www.w3.org/1999/xlink" width="200" height="200"><defs><style type="text/css"></style></defs><path d="M509.632827 961.170658a448.1 447.8 0.135 1 0 2.110205-895.597514 448.1 447.8 0.135 1 0-2.110205 895.597514Z" fill="#4AAF47" p-id="13993"></path><path d="M683.3 542.6c-8.9 8.7-22.9 8.6-31.7-0.1-8.7-8.7-8.9-22.9-0.2-31.7l45.7-45.7c37.6-38.2 37.3-99.6-0.6-137.6-37.9-37.9-99.4-38.2-137.6-0.6l-45.7 45.7c-5.7 5.8-14.1 8.1-21.8 6.1-7.9-2.1-14-8.2-16-16-2.1-7.9 0.2-16.2 6-21.8l45.7-45.7c55.8-55.1 145.7-54.8 201.2 0.7s55.8 145.3 0.7 201.2M548 647c8.8 8.8 8.8 23.1 0 31.9l-46.5 46.4c-55.7 55.8-146.1 55.8-201.9 0-55.7-55.7-55.7-146.2 0-201.9l46.5-46.4c5.7-5.8 14.1-8.1 21.8-6.1 7.9 2.1 14 8.2 16 16.1 2.1 7.9-0.2 16.2-6.1 21.8l-46.5 46.5c-25.4 24.5-35.5 60.8-26.5 94.9 9 34.1 35.6 60.7 69.7 69.7s70.4-1.2 94.9-26.5L516 647c4.2-4.2 10-6.6 15.9-6.6 6.2 0 11.9 2.4 16.1 6.6z m-19.4-86.6L304 335.7c-8.9-8.9-8.9-23.4 0-32.2 8.9-8.9 23.4-8.9 32.2 0l224.7 224.7c8.9 8.9 8.9 23.4 0 32.2-8.9 8.8-23.4 8.8-32.3 0z" fill="#FFFFFF" p-id="13994"></path><path d="M522.9 544.4v-72.9c0-12.5 10.2-22.8 22.8-22.8 12.5 0 22.8 10.2 22.8 22.8v72.9c0 12.5-10.2 22.8-22.8 22.8-12.6 0-22.8-10.2-22.8-22.8z" fill="#FFFFFF" p-id="13995"></path><path d="M545.1 567.7h-72.9c-12.5 0-22.8-10.2-22.8-22.8 0-12.5 10.2-22.8 22.8-22.8h72.9c12.5 0 22.8 10.2 22.8 22.8 0 12.6-10.2 22.8-22.8 22.8z" fill="#FFFFFF" p-id="13996"></path></svg>