<?xml version="1.0" encoding="UTF-8"?>
<svg width="30px" height="30px" viewBox="0 0 30 30" version="1.1" xmlns="http://www.w3.org/2000/svg" xmlns:xlink="http://www.w3.org/1999/xlink">
    <title>cache3</title>
    <g id="cache3" stroke="none" stroke-width="1" fill="none" fill-rule="evenodd">
        <circle id="椭圆形" stroke="#E3E3E3" fill="#FFFFFF" cx="14.9217305" cy="15.0782695" r="14.3496"></circle>
        <g transform="translate(7.000000, 7.000000)" fill="#4AAF47" fill-rule="nonzero" id="形状">
            <path d="M2.66874192,0 L1.33124597,0 C0.599998184,0 0,0.6 0,1.33125 L0,2.66875 C0,3.4015625 0.599998184,4 1.33124597,4 L2.66874192,4 C3.4015522,4 4,3.4 4,2.66875 L4,1.33125 C4.00155039,0.6 3.4015522,0 2.66874192,0 Z M3.01561587,2.4234375 C3.01561587,2.7484375 2.74842918,3.015625 2.42343016,3.015625 L1.59218268,3.015625 C1.26718366,3.015625 0.999996973,2.7484375 0.999996973,2.4234375 L0.999996973,1.5921875 C0.999996973,1.2671875 1.26718366,1 1.59218268,1 L2.42343016,1 C2.74842918,1 3.01561587,1.2671875 3.01561587,1.5921875 L3.01561587,2.4234375 L3.01561587,2.4234375 Z"></path>
            <path d="M2,5.86304604 L2,4.33825266 C2,4.15230224 2.13479624,4 2.29937304,4 L2.70062696,4 C2.86520376,4 3,4.15230224 3,4.33825266 L3,5.86304604 C3,6.04899646 2.86520376,6.2012987 2.70062696,6.2012987 L2.29937304,6.2012987 C2.13479624,6.2012987 2,6.04899646 2,5.86304604 L2,5.86304604 Z M2,12.6617473 L2,11.0767414 C2,10.890791 2.13479624,10.7384888 2.29937304,10.7384888 L2.70062696,10.7384888 C2.86520376,10.7384888 3,10.890791 3,11.0767414 L3,12.6617473 C3,12.8476978 2.86520376,13 2.70062696,13 L2.29937304,13 C2.13479624,13 2,12.8476978 2,12.6617473 Z M2,9.26859504 L2,7.67473436 C2,7.48878394 2.13479624,7.3364817 2.29937304,7.3364817 L2.70062696,7.3364817 C2.86520376,7.3364817 3,7.48878394 3,7.67473436 L3,9.26859504 C3,9.45454545 2.86520376,9.6068477 2.70062696,9.6068477 L2.29937304,9.6068477 C2.13479624,9.6068477 2,9.45454545 2,9.26859504 Z"></path>
            <path d="M3.04931802,11.4265297 L1.52108838,11.4265297 C0.683775646,11.4265297 0,12.1125502 0,12.9486378 L0,14.4778919 C0,15.315766 0.685560961,16 1.52108838,16 L3.04931802,16 C3.88663076,16 4.57040989,15.3139795 4.57040989,14.4778919 L4.57040989,12.9486378 C4.57219172,12.1107637 3.88663076,11.4265297 3.04931802,11.4265297 Z M3.44565796,14.195623 C3.44565796,14.5672175 3.14036909,14.872711 2.76902357,14.872711 L1.81923599,14.872711 C1.44789047,14.872711 1.1426016,14.5672175 1.1426016,14.195623 L1.1426016,13.2451987 C1.1426016,12.8736043 1.44789047,12.5681108 1.81923599,12.5681108 L2.76902357,12.5681108 C3.14036909,12.5681108 3.44565796,12.8736043 3.44565796,13.2451987 L3.44565796,14.195623 L3.44565796,14.195623 Z M14.4789047,0 L12.950675,0 C12.1133623,0 11.4295866,0.686020545 11.4295866,1.52210808 L11.4295866,3.05136222 C11.4295866,3.88923627 12.1151476,4.5734703 12.950675,4.5734703 L14.4789047,4.5734703 C15.3162174,4.5734703 15.9999965,3.88744975 15.9999965,3.05136222 L15.9999965,1.52210808 C16.0017784,0.686020545 15.3162174,0 14.4789047,0 Z M14.8752446,2.77087986 C14.8752446,3.14247432 14.5699557,3.44796784 14.1986102,3.44796784 L13.2488226,3.44796784 C12.8774771,3.44796784 12.5721882,3.14247432 12.5721882,2.77087986 L12.5721882,1.82045556 C12.5721882,1.4488611 12.8774771,1.14336757 13.2488226,1.14336757 L14.1986102,1.14336757 C14.5699557,1.14336757 14.8752446,1.4488611 14.8752446,1.82045556 L14.8752446,2.77087986 Z M14.475334,11.4104511 L12.9471044,11.4104511 C12.1097917,11.4104511 11.426016,12.0964716 11.426016,12.9325592 L11.426016,14.4618133 C11.426016,15.2996874 12.111577,15.9839214 12.9471044,15.9839214 L14.475334,15.9839214 C15.3126468,15.9839214 15.9964259,15.2979008 15.9964259,14.4618133 L15.9964259,12.9325592 C15.9982077,12.0946851 15.3126468,11.4104511 14.475334,11.4104511 Z M14.871674,14.1795444 C14.871674,14.5511389 14.5663851,14.8566324 14.1950396,14.8566324 L13.245252,14.8566324 C12.8739065,14.8566324 12.5686176,14.5511389 12.5686176,14.1795444 L12.5686176,13.2291201 C12.5686176,12.8575257 12.8739065,12.5520322 13.245252,12.5520322 L14.1950396,12.5520322 C14.5663851,12.5520322 14.871674,12.8575257 14.871674,13.2291201 L14.871674,14.1795444 Z"></path>
            <path d="M10.3514851,2 L11.9143564,2 C12.1049505,2 12.2610561,2.15914591 12.2610561,2.35345196 L12.2610561,2.82718861 C12.2610561,3.02149466 12.1049505,3.18064057 11.9143564,3.18064057 L10.3514851,3.18064057 C10.1608911,3.18064057 10.0047855,3.02149466 10.0047855,2.82718861 L10.0047855,2.35345196 C10.0047855,2.15914591 10.1608911,2 10.3514851,2 Z M3.3830033,2 L5.00759076,2 C5.19818482,2 5.35429043,2.15914591 5.35429043,2.35345196 L5.35429043,2.82718861 C5.35429043,3.02149466 5.19818482,3.18064057 5.00759076,3.18064057 L3.3830033,3.18064057 C3.19240924,3.18064057 3.03630363,3.02149466 3.03630363,2.82718861 L3.03630363,2.35345196 C3.03630363,2.15914591 3.19240924,2 3.3830033,2 Z M6.86089109,2 L8.49455446,2 C8.68514851,2 8.84125413,2.15914591 8.84125413,2.35345196 L8.84125413,2.82718861 C8.84125413,3.02149466 8.68514851,3.18064057 8.49455446,3.18064057 L6.86089109,3.18064057 C6.67029703,3.18064057 6.51419142,3.02149466 6.51419142,2.82718861 L6.51419142,2.35345196 C6.51419142,2.15914591 6.67029703,2 6.86089109,2 Z M10.3151815,13.8193594 L11.8780528,13.8193594 C12.0686469,13.8193594 12.2247525,13.9785053 12.2247525,14.1728114 L12.2247525,14.646548 C12.2247525,14.8408541 12.0686469,15 11.8780528,15 L10.3151815,15 C10.1245875,15 9.96848185,14.8408541 9.96848185,14.646548 L9.96848185,14.1728114 C9.96848185,13.9785053 10.1245875,13.8193594 10.3151815,13.8193594 Z M3.34669967,13.8193594 L4.97128713,13.8193594 C5.16188119,13.8193594 5.3179868,13.9785053 5.3179868,14.1728114 L5.3179868,14.646548 C5.3179868,14.8408541 5.16188119,15 4.97128713,15 L3.34669967,15 C3.15610561,15 3,14.8408541 3,14.646548 L3,14.1728114 C3,13.9785053 3.15610561,13.8193594 3.34669967,13.8193594 Z M6.82458746,13.8193594 L8.45825083,13.8193594 C8.64884488,13.8193594 8.8049505,13.9785053 8.8049505,14.1728114 L8.8049505,14.646548 C8.8049505,14.8408541 8.64884488,15 8.45825083,15 L6.82458746,15 C6.6339934,15 6.47788779,14.8408541 6.47788779,14.646548 L6.47788779,14.1728114 C6.47788779,13.9785053 6.6339934,13.8193594 6.82458746,13.8193594 Z M12.8419142,5.75843416 L12.8419142,4.16512456 C12.8419142,3.97081851 12.9980198,3.8116726 13.1886139,3.8116726 L13.6533003,3.8116726 C13.8438944,3.8116726 14,3.97081851 14,4.16512456 L14,5.75843416 C14,5.95274021 13.8438944,6.11188612 13.6533003,6.11188612 L13.1886139,6.11188612 C12.9980198,6.11188612 12.8419142,5.95274021 12.8419142,5.75843416 L12.8419142,5.75843416 Z M12.8419142,12.8626335 L12.8419142,11.2064057 C12.8419142,11.0120996 12.9980198,10.8529537 13.1886139,10.8529537 L13.6533003,10.8529537 C13.8438944,10.8529537 14,11.0120996 14,11.2064057 L14,12.8626335 C14,13.0569395 13.8438944,13.2160854 13.6533003,13.2160854 L13.1886139,13.2160854 C12.9980198,13.2160854 12.8419142,13.0569395 12.8419142,12.8626335 Z M12.8419142,9.31701068 L12.8419142,7.65153025 C12.8419142,7.4572242 12.9980198,7.29807829 13.1886139,7.29807829 L13.6533003,7.29807829 C13.8438944,7.29807829 14,7.4572242 14,7.65153025 L14,9.31701068 C14,9.51131673 13.8438944,9.67046263 13.6533003,9.67046263 L13.1886139,9.67046263 C12.9980198,9.67046263 12.8419142,9.51131673 12.8419142,9.31701068 Z M10.3732673,6.45978648 L10.6146865,6.22106762 C10.7054455,6.12854093 10.7580858,6.00085409 10.7580858,5.86946619 C10.7580858,5.73622776 10.7054455,5.61039146 10.6146865,5.51786477 C10.4222772,5.32725979 10.1173267,5.32725979 9.92491749,5.51786477 L9.69257426,5.7547331 C9.11534653,5.31245552 8.40924092,5.07188612 7.68679868,5.07743772 C6.13118812,5.07373665 4.77524752,6.16 4.4140264,7.7033452 C4.05280528,9.24669039 4.77706271,10.84 6.16749175,11.554306 C7.55610561,12.2686121 9.2460396,11.9151601 10.2480198,10.7030605 C11.2481848,9.48911032 11.3008251,7.73295374 10.3732673,6.45978648 Z M9.77244224,9.64270463 C9.35858086,10.4236299 8.55808581,10.9084698 7.68861386,10.9103203 L7.69768977,10.9103203 L7.6849835,10.9103203 L7.68861386,10.9103203 C6.67755776,10.9084698 5.77722772,10.2552313 5.44686469,9.27814947 C5.11650165,8.29921708 5.43234323,7.21480427 6.23283828,6.57822064 C7.03333333,5.94163701 8.14422442,5.8972242 8.99372937,6.46533808 L7.64141914,7.84398577 C7.45445545,8.04014235 7.45445545,8.35103203 7.64141914,8.54718861 C7.73217822,8.6397153 7.85742574,8.69523132 7.98630363,8.69523132 C8.11155116,8.69153025 8.23135314,8.6397153 8.31848185,8.54718861 L9.67079208,7.16854093 C10.1481848,7.91060498 10.1881188,8.86177936 9.77244224,9.64270463 L9.77244224,9.64270463 Z"></path>
        </g>
    </g>
</svg>