<?xml version="1.0" standalone="no"?><!DOCTYPE svg PUBLIC "-//W3C//DTD SVG 1.1//EN" "http://www.w3.org/Graphics/SVG/1.1/DTD/svg11.dtd"><svg t="1599124799688" class="icon" viewBox="0 0 1024 1024" version="1.1" xmlns="http://www.w3.org/2000/svg" p-id="12548" xmlns:xlink="http://www.w3.org/1999/xlink" width="200" height="200"><defs><style type="text/css"></style></defs><path d="M897.4 63.9H128.2c-34.9 0-63.5 28.6-63.5 63.5v769.2c0 34.9 28.6 63.5 63.5 63.5h769.2c34.9 0 63.5-28.6 63.5-63.5V127.4c0-34.9-28.6-63.5-63.5-63.5z m-0.5 768.3c0 34.9-28.6 63.5-63.5 63.5H192.2c-34.9 0-63.5-28.6-63.5-63.5V191.4c0-34.9 28.6-63.5 63.5-63.5h641.3c34.9 0 63.5 28.6 63.5 63.5l-0.1 640.8z" fill="#F5AF3F" p-id="12549"></path><path d="M466.8 557.8c0 56.3-13 99.5-38.9 129.6-26 30.1-63.1 45.1-111.6 45.1-21.5 0-41.4-3.7-59.7-11v-85.6c15.8 11.9 33.7 17.9 53.9 17.9 43.6 0 65.5-33.1 65.5-99.3V298.9h90.8v258.9zM780.4 713.8c-21.3 12.5-51.5 18.7-90.8 18.7-46.4 0-83.9-14.1-112.5-42.4-28.6-28.2-42.9-64.8-42.9-109.8 0-51.7 15.4-92.5 46.2-122.3 30.8-29.8 71.9-44.7 123.3-44.7 34.7 0 60.3 4.8 77 14.3v76.2c-20.4-14.9-42.6-22.3-66.6-22.3-27.1 0-48.9 8.3-65.3 24.8s-24.6 39.2-24.6 68c0 27.9 7.8 49.8 23.4 65.9 15.6 16.1 36.8 24.1 63.6 24.1 23.7 0 46.8-7.5 69.3-22.6v72.1z" fill="#F5AF3F" p-id="12550"></path></svg>