<?xml version="1.0" encoding="UTF-8"?>
<svg width="30px" height="30px" viewBox="0 0 30 30" version="1.1" xmlns="http://www.w3.org/2000/svg" xmlns:xlink="http://www.w3.org/1999/xlink">
    <title>json</title>
    <g id="json" stroke="none" stroke-width="1" fill="none" fill-rule="evenodd">
        <g transform="translate(0.572130, 0.728670)">
            <circle id="椭圆形" stroke="#E3E3E3" fill="#FFFFFF" cx="14.3496" cy="14.3496" r="14.3496"></circle>
            <g id="图层_7" transform="translate(6.849600, 6.771330)" fill="#4AAF47" fill-rule="nonzero">
                <path d="M11.3189876,0.0133734537 L1.10380198,0.0150451354 C0.493366039,0.0150451354 0,0.509862922 0,1.11835507 L0.006689709,13.8849883 C0.006689709,14.4934804 0.500055748,14.9866265 1.10881927,14.9882982 L13.8794737,15 C14.4899097,15 14.9832757,14.5068539 14.9849482,13.8966901 L14.988293,3.68271481 C14.988293,3.39017051 14.8728955,3.10932798 14.6655146,2.90203945 L12.1000111,0.336008024 C11.8926302,0.128719492 11.6116624,0.0133734537 11.3189876,0.0133734537 Z M12.8442413,13.9184219 L2.21429368,13.9100635 C1.60553016,13.9100635 1.11216412,13.4169174 1.11216412,12.8067536 L1.10547441,2.20494818 C1.10547441,1.59478435 1.59884045,1.10163825 2.2092764,1.10163825 L10.7436727,1.09996657 C11.0363474,1.09996657 11.3173152,1.2153126 11.5230237,1.42260114 L13.6286097,3.52390505 C13.8359906,3.73119358 13.9530605,4.01203611 13.9530605,4.30458041 L13.9497157,12.815112 C13.9480433,13.4252758 13.4530048,13.9184219 12.8442413,13.9184219 Z" id="形状"></path>
                <path d="M11.2721597,0.533266466 L11.2721597,4.5068539 C11.2721597,4.80106988 11.0330026,5.04012036 10.7386554,5.04012036 L10.7386554,5.04012036 C10.4443082,5.04012036 10.2051511,4.80106988 10.2051511,4.5068539 L10.2051511,0.533266466 C10.2051511,0.239050485 10.4443082,0 10.7386554,0 L10.7386554,0 C11.0330026,0 11.2721597,0.237378803 11.2721597,0.533266466 Z" id="路径"></path>
                <path d="M14.4414093,5.05015045 L10.7319657,5.05015045 C10.4376185,5.05015045 10.1984614,4.81109997 10.1984614,4.51688399 L10.1984614,4.51688399 C10.1984614,4.222668 10.4376185,3.98361752 10.7319657,3.98361752 L14.4414093,3.98361752 C14.7357565,3.98361752 14.9749136,4.222668 14.9749136,4.51688399 L14.9749136,4.51688399 C14.9749136,4.81277165 14.7357565,5.05015045 14.4414093,5.05015045 Z" id="路径"></path>
            </g>
            <g id="编组" transform="translate(8.153948, 12.640896)" fill="#4AAF47" fill-rule="nonzero">
                <path d="M1.78147548,0 L2.89811873,0 L2.89811873,2.4386619 C2.89811873,2.95002267 2.86204257,3.33971485 2.78817232,3.60773843 C2.71601999,3.875762 2.5682795,4.10146607 2.34838667,4.28661394 C2.12849384,4.4717618 1.84503825,4.56521739 1.5014557,4.56521739 C1.13725821,4.56521739 0.855520528,4.50350144 0.656242654,4.38183284 C0.45696478,4.26016424 0.302352636,4.08030631 0.192406223,3.84402237 C0.0841777226,3.60773843 0.0188970398,3.31679178 0,2.96941911 L1.06510588,2.78956119 C1.06682379,2.98705224 1.08056709,3.13517054 1.10633578,3.23038944 C1.13210447,3.32560834 1.1767702,3.40319412 1.23861506,3.46314676 C1.28156288,3.50193964 1.34168982,3.52133609 1.42071381,3.52133609 C1.54612144,3.52133609 1.63717081,3.46314676 1.69557984,3.34853141 C1.75398887,3.23391607 1.78319339,3.03818832 1.78319339,2.7648748 L1.78319339,0 L1.78147548,0 Z" id="路径"></path>
                <path d="M3.27090579,3.58481536 L4.26385934,3.4684367 C4.30508924,3.61479168 4.36178036,3.72059046 4.43565061,3.78406973 C4.50952085,3.84754899 4.60744188,3.87928863 4.73113159,3.87928863 C4.86512878,3.87928863 4.96992146,3.84402237 5.0437917,3.77172654 C5.10048282,3.71882714 5.12968734,3.65182125 5.12968734,3.57247216 C5.12968734,3.4825432 5.09189326,3.41377399 5.0163051,3.36440123 C4.96304981,3.32913497 4.81874514,3.28681546 4.58682692,3.23567938 C4.23980856,3.15985692 3.99758287,3.09108771 3.86358568,3.02584513 C3.72787057,2.96236586 3.61448833,2.85304046 3.52172105,2.69963222 C3.42895376,2.54622399 3.38257012,2.371656 3.38257012,2.17592826 C3.38257012,1.96256738 3.43238959,1.77741952 3.53202852,1.62224797 C3.63166746,1.46707643 3.76910048,1.35069777 3.94432757,1.27487531 C4.11955467,1.19905285 4.35490871,1.16025996 4.65038969,1.16025996 C4.96133189,1.16025996 5.1915322,1.19023628 5.33927269,1.24842561 C5.48701318,1.30837826 5.6107029,1.40007053 5.71034183,1.52350244 C5.80998077,1.64869767 5.89244058,1.8162124 5.95772126,2.02957328 L5.00943345,2.14595194 C4.98538267,2.04191647 4.94415277,1.96609401 4.88574374,1.91672125 C4.80671975,1.85147866 4.71223455,1.81797572 4.60057023,1.81797572 C4.48718799,1.81797572 4.40472818,1.8426621 4.3531908,1.89203486 C4.30165342,1.94140763 4.27588473,2.00312358 4.27588473,2.0736561 C4.27588473,2.15300519 4.30852507,2.21295783 4.37380575,2.25351403 C4.43908643,2.29407023 4.58167319,2.3310998 4.80156601,2.36283944 C5.13484108,2.41044889 5.38222051,2.47569147 5.5437043,2.55856718 C5.7051881,2.64144289 5.83059572,2.76134818 5.91649136,2.91651972 C6.00238699,3.07169127 6.04533481,3.24273263 6.04533481,3.4278805 C6.04533481,3.61479168 6.00066908,3.79817623 5.90961971,3.97627084 C5.81857033,4.15436546 5.67598358,4.2954305 5.48014153,4.39946597 C5.28429948,4.50526475 5.01802301,4.55640083 4.67959421,4.55640083 C4.20201448,4.55640083 3.86358568,4.4717618 3.66087198,4.30248375 C3.45815828,4.13849564 3.32931482,3.89868507 3.27090579,3.58481536 Z" id="路径"></path>
                <path d="M6.27553511,2.8724369 C6.27553511,2.37694594 6.40953231,1.96785732 6.6792446,1.64517104 C6.94723898,1.32424807 7.31143648,1.16202328 7.76840126,1.16202328 C8.29064672,1.16202328 8.68576664,1.35069777 8.95376102,1.72804675 C9.16850011,2.0330999 9.2750107,2.40692226 9.2750107,2.85127714 C9.2750107,3.35205804 9.14101351,3.76114666 8.87473704,4.08030631 C8.60846057,4.39946597 8.24082725,4.55992745 7.77011917,4.55992745 C7.35094847,4.55992745 7.01080175,4.42767898 6.75311485,4.16141871 C6.43358308,3.8352058 6.27553511,3.40495743 6.27553511,2.8724369 Z M7.27879613,2.86891027 C7.27879613,3.15809361 7.32517978,3.37321779 7.41966498,3.51251952 C7.51415018,3.65182125 7.63268615,3.72059046 7.77527291,3.72059046 C7.91957757,3.72059046 8.03811355,3.65182125 8.13088084,3.51604615 C8.22364812,3.37850773 8.27003177,3.15985692 8.27003177,2.85833039 C8.27003177,2.57620031 8.22364812,2.36636606 8.12916292,2.22882765 C8.03639564,2.09128923 7.91957757,2.02252003 7.78214456,2.02252003 C7.63612198,2.02252003 7.51586809,2.09305255 7.42138289,2.23235427 C7.32517978,2.36989269 7.27879613,2.58325356 7.27879613,2.86891027 Z" id="形状"></path>
                <path d="M9.63061863,1.23608242 L10.5617273,1.23608242 L10.5617273,1.76507633 C10.7008782,1.54818883 10.8417471,1.39478059 10.9843338,1.301325 C11.1269206,1.20786941 11.3004298,1.16202328 11.5048614,1.16202328 C11.7814453,1.16202328 11.9979023,1.26429543 12.1559503,1.47060305 C12.3122804,1.67514736 12.3913043,1.9925437 12.3913043,2.42102877 L12.3913043,4.48763162 L11.3863254,4.48763162 L11.3863254,2.70139554 C11.3863254,2.49685123 11.355403,2.35225956 11.295276,2.26762054 C11.2351491,2.18298151 11.1492535,2.140662 11.039307,2.140662 C10.9173352,2.140662 10.8194142,2.19708801 10.7438261,2.31170336 C10.6682379,2.42631871 10.6304438,2.63086302 10.6304438,2.9270996 L10.6304438,4.48939493 L9.63061863,4.48939493 L9.63061863,1.23608242 Z" id="路径"></path>
            </g>
        </g>
    </g>
</svg>