<?xml version="1.0" encoding="UTF-8"?>
<svg width="30px" height="30px" viewBox="0 0 30 30" version="1.1" xmlns="http://www.w3.org/2000/svg" xmlns:xlink="http://www.w3.org/1999/xlink">
    <title>Transwrp KunDB</title>
    <g id="Transwrp-KunDB" stroke="none" stroke-width="1" fill="none" fill-rule="evenodd">
        <circle id="椭圆形" stroke="#E3E3E3" fill="#FFFFFF" cx="14.9217305" cy="15.0782695" r="14.3496"></circle>
        <g id="KUNDB" transform="translate(9.911222, 5.650548)" fill-rule="nonzero">
            <polygon id="路径" fill="#00A1E8" opacity="0.8" points="8.01681361 12.5998 8.01681361 15.025905 6.01261021 14.1124866 6.01261021 11.686815"></polygon>
            <polygon id="路径" fill="#00A1E8" opacity="0.8" points="10.021017 10.930255 10.021017 13.35636 8.01681361 12.4433749 8.01681361 10.01727"></polygon>
            <polygon id="路径" fill="#00A1E8" opacity="0.8" points="6.01261021 15.9076714 6.01261021 17.363268 4.67647461 16.8154106 4.67647461 15.359814"></polygon>
            <polygon id="路径" fill="#00A1E8" opacity="0.8" points="10.021017 15.907598 10.021017 17.363268 8.68488142 16.815484 8.68488142 15.359814"></polygon>
            <polygon id="路径" fill="#00A1E8" opacity="0.8" points="6.68067801 17.7285481 6.68067801 18.698904 6.01261021 18.3336238 6.01261021 17.363268"></polygon>
            <polygon id="路径" fill="#004ED9" points="2.0042034 5.34116686 2.0042034 7.76727183 0 6.8542868 0 4.42818184"></polygon>
            <polygon id="路径" fill="#006FDF" points="2.0042034 7.75117784 2.0042034 10.1772828 0 9.26429778 0 6.83819281"></polygon>
            <polygon id="路径" fill="#006FDF" points="4.00840681 8.68025686 4.00840681 11.1063618 2.0042034 10.1933768 2.0042034 7.76727183"></polygon>
            <polygon id="路径" fill="#004ED9" points="4.00840681 6.25596233 4.00840681 8.68163398 2.0042034 7.76864896 2.0042034 5.34254399"></polygon>
            <polygon id="路径" fill="#004ED9" points="6.01261021 7.19888994 6.01261021 9.62487641 4.00840681 8.71177289 4.00840681 6.28578642"></polygon>
            <polygon id="路径" fill="#004ED9" points="6.01261021 9.59450055 6.01261021 12.020724 4.00840681 11.1074242 4.00840681 8.68163398"></polygon>
            <polygon id="路径" fill="#006FDF" points="8.01681361 10.5381762 8.01681361 12.9639664 6.01261021 12.0510998 6.01261021 9.62487641"></polygon>
            <polygon id="路径" fill="#004ED9" points="8.01681361 8.4323268 8.01681361 10.8584318 6.01261021 9.94501343 6.01261021 7.51934177"></polygon>
            <polygon id="路径" fill="#006FDF" points="8.01681361 6.08163284 8.01681361 8.50773781 6.01261021 7.59475278 6.01261021 5.16864782"></polygon>
            <polygon id="路径" fill="#006FDF" points="8.01681361 3.67162187 8.01681361 6.09772683 6.01261021 5.18474181 6.01261021 2.75863684"></polygon>
            <polygon id="路径" fill="#004ED9" points="6.01261021 5.0932368 6.01261021 7.51934177 4.00840681 6.60635674 4.00840681 4.18025178"></polygon>
            <polygon id="路径" fill="#004ED9" points="6.01261021 2.74254285 6.01261021 5.16864782 4.00840681 4.25566279 4.00840681 1.82955782"></polygon>
            <polygon id="路径" fill="#004ED9" points="4.00840681 1.83510099 4.00840681 4.26089116 2.0042034 3.34759135 2.0042034 0.921801171"></polygon>
            <polygon id="路径" fill="#004ED9" points="2.0042034 2.91643902 2.0042034 5.34254399 0 4.42955896 0 2.003454"></polygon>
            <polygon id="路径" fill="#004ED9" points="2.0042034 0.912985027 2.0042034 3.33908999 0 2.42610497 0 0"></polygon>
            <polygon id="路径" fill="#00A1E8" opacity="0.8" points="10.021017 7.01114517 10.021017 9.43681683 8.01681361 8.5238318 8.01681361 6.09772683"></polygon>
            <polygon id="路径" fill="#00A1E8" opacity="0.8" points="10.021017 4.58586556 10.021017 7.01208899 8.01681361 6.09878917 8.01681361 3.67299899"></polygon>
            <polygon id="路径" fill="#00A1E8" opacity="0.8" points="4.00840681 11.0907011 4.00840681 13.5163728 2.0042034 12.6033878 2.0042034 10.1772828"></polygon>
            <polygon id="路径" fill="#00A1E8" opacity="0.8" points="2.0042034 10.1686309 2.0042034 12.5947359 0 11.6817509 0 9.25564591"></polygon>
        </g>
    </g>
</svg>