<?xml version="1.0" standalone="no"?><!DOCTYPE svg PUBLIC "-//W3C//DTD SVG 1.1//EN" "http://www.w3.org/Graphics/SVG/1.1/DTD/svg11.dtd"><svg t="1591589088776" class="icon" viewBox="0 0 1024 1024" version="1.1" xmlns="http://www.w3.org/2000/svg" p-id="11386" xmlns:xlink="http://www.w3.org/1999/xlink" width="200" height="200"><defs><style type="text/css"></style></defs><path d="M416.2 776.5H319c-140.4 0-254.7-119-254.7-265.1 0-146.1 114.3-265.1 254.7-265.1h97c33.5 0 60.7 28.2 60.7 63.1s-27.1 63.1-60.7 63.1h-97c-73.5 0-133.4 62.3-133.4 138.9 0 76.5 59.9 138.9 133.4 138.9h97.2c33.5 0 60.7 28.2 60.7 63.1s-27.2 63.1-60.7 63.1z m291 0h-96.9c-33.5 0-60.7-28.2-60.7-63.1s27.1-63.1 60.7-63.1h96.9c73.5 0 133.4-62.3 133.4-138.9 0-76.5-59.9-138.9-133.4-138.9h-96.9c-33.5 0-60.7-28.2-60.7-63.1s27.1-63.1 60.7-63.1h96.9c140.4 0 254.7 119 254.7 265.1 0.1 146.1-114.3 265.1-254.7 265.1z m0 0" fill="#4aaf47" p-id="11387"></path></svg>