<?xml version="1.0" standalone="no"?><!DOCTYPE svg PUBLIC "-//W3C//DTD SVG 1.1//EN" "http://www.w3.org/Graphics/SVG/1.1/DTD/svg11.dtd"><svg t="1587986676876" class="icon" viewBox="0 0 1024 1024" version="1.1" xmlns="http://www.w3.org/2000/svg" p-id="10187" xmlns:xlink="http://www.w3.org/1999/xlink" width="200" height="200"><defs><style type="text/css"></style></defs><path d="M513.6 63.3c-247.3 0-447.8 200.5-447.8 447.8C65.7 758.5 266.2 959 513.6 959c247.3 0 447.8-200.5 447.8-447.8 0-247.4-200.5-447.9-447.8-447.9z" fill="#4AAF47" p-id="10188"></path><path d="M771.1 398.8l-24.8-0.7V321c0-18.8-14.8-34-33.1-34H602.5v-25.5c0-60.8-53.4-110.4-112.5-110.4-4.8 0-9.6 0.3-14.4 1-54.1 7.4-103.1 57.5-103.1 113.6V287H266.9c-18.3 0-33.1 15.2-33.1 34v96.6c47.2 11.6 82.7 55.4 82.7 107.3 0 52-35.4 95.7-82.7 107.3v130.6c0 18.8 14.8 34 33.1 34h118.7c11.3-48.5 53.9-85 104.4-85 50.6 0 93.1 36.4 104.4 85h118.7c18.3 0 33.1-15.2 33.1-34V640.5l20.8-1.4c54.5 0 103.4-52.2 110.5-107.8 8.7-67.3-42.6-132.5-106.4-132.5z m-56.8 191.6h-20.8v123c0 18.8-14.8 34-33.1 34h-37.6c-35-66.4-84-77.8-134.6-77.8-50.6 0-103.9 11-134.6 77.8h-40.5c-18.3 0-33.1-15.2-33.1-34V659c58.9-21.2 81.9-82.6 81.9-134.6s-7.4-100.8-80.5-135.3l-0.7-16.2c0-18.8 13.4-39 31.6-39h104.2v-21.3c0-56.1 13.4-116.1 67.5-116.1h5.2c54.3 0 66.1 51.9 66.1 112.7v25.5h105c18.3 0 33.1 15.2 33.1 34v79.9H719c52.2 0 111.5 2.8 111.5 70.7 0.1 54.3-61.7 71.1-116.2 71.1z" fill="#FFFFFF" p-id="10189"></path></svg>