<?xml version="1.0" standalone="no"?><!DOCTYPE svg PUBLIC "-//W3C//DTD SVG 1.1//EN" "http://www.w3.org/Graphics/SVG/1.1/DTD/svg11.dtd"><svg t="1595243272620" class="icon" viewBox="0 0 1024 1024" version="1.1" xmlns="http://www.w3.org/2000/svg" p-id="14542" xmlns:xlink="http://www.w3.org/1999/xlink" width="200" height="200"><defs><style type="text/css"></style></defs><path d="M64 511.9c0 247.4 200.5 447.9 447.9 447.9 247.4 0 447.9-200.5 447.9-447.9C959.8 264.5 759.3 64 511.9 64 264.5 64 64 264.5 64 511.9z m0 0" fill="#4AAF47" p-id="14543"></path><path d="M306.7 718c-64.6-64.6-64.6-170.3 0-234.9l51-51c25.7-25.7 67.7-25.7 93.4 0l141.4 141.4c25.7 25.7 25.7 67.7 0 93.4l-51 51c-64.5 64.7-170.2 64.7-234.8 0.1z" fill="#FFFFFF" p-id="14544"></path><path d="M346.3 678.3c-42.1-42.1-42.1-111 0-153.2l42.4-42.4c11.4-11.4 29.8-11.4 41.2 0l112 112c11.4 11.4 11.4 29.8 0 41.2l-42.4 42.4c-42.1 42.2-111.1 42.2-153.2 0z" fill="#4AAF47" p-id="14545"></path><path d="M676.9 438.2L504.7 610.4c-24.9 24.9-65.5 24.9-90.4 0-24.9-24.9-24.9-65.5 0-90.4l172.2-172.2c24.9-24.9 65.5-24.9 90.4 0 24.8 24.9 24.8 65.5 0 90.4z" fill="#FFFFFF" p-id="14546"></path><path d="M642.2 410L476 576.3c-7.6 7.6-20 7.6-27.6 0-7.6-7.6-7.6-20 0-27.6l166.2-166.2c7.6-7.6 20-7.6 27.6 0 7.6 7.5 7.6 19.9 0 27.5z" fill="#4AAF47" p-id="14547"></path><path d="M658.7 510.4L514.2 365.9c-24.9-24.9-24.9-65.5 0-90.4 24.9-24.9 65.5-24.9 90.4 0L749.1 420c24.9 24.9 24.9 65.5 0 90.4-24.8 24.9-65.5 24.9-90.4 0z" fill="#FFFFFF" p-id="14548"></path><path d="M689.8 478.9L546.8 336c-7.6-7.6-7.6-20 0-27.6 7.6-7.6 20-7.6 27.6 0l142.9 142.9c7.6 7.6 7.6 20 0 27.6-7.5 7.6-19.9 7.6-27.5 0z" fill="#4AAF47" p-id="14549"></path></svg>