<?xml version="1.0" standalone="no"?><!DOCTYPE svg PUBLIC "-//W3C//DTD SVG 1.1//EN" "http://www.w3.org/Graphics/SVG/1.1/DTD/svg11.dtd"><svg t="1586923072047" class="icon" viewBox="0 0 1024 1024" version="1.1" xmlns="http://www.w3.org/2000/svg" p-id="9660" xmlns:xlink="http://www.w3.org/1999/xlink" width="200" height="200"><defs><style type="text/css"></style></defs><path d="M608.9 421.3c-5.3-4.3-8.7-10.9-8.7-18.2V298.4H339.3c-19.9 0-36 16.5-36 36.7l0.2 352.8c0 20.3 16.1 36.7 36 36.7l346.6 0.3c19.9 0 36-16.4 36-36.7l0.1-256h-93.4c-8.4 0.1-15.7-4.3-19.9-10.9z m-242.2-13.7c0-13 10.5-23.5 23.5-23.5h132.4c13 0 23.5 10.5 23.5 23.5s-10.5 23.5-23.5 23.5H390.2c-13 0-23.5-10.5-23.5-23.5z m292.5 208.6c0 13-10.5 23.5-23.5 23.5H390.2c-13 0-23.5-10.5-23.5-23.5s10.5-23.5 23.5-23.5h245.5c13 0 23.5 10.6 23.5 23.5z m0-104.3c0 13-10.5 23.5-23.5 23.5H390.2c-13 0-23.5-10.5-23.5-23.5s10.5-23.5 23.5-23.5h245.5c13 0 23.5 10.6 23.5 23.5z" fill="#4AAF47" p-id="9661"></path><path d="M511.5 63.7c-247.3 0-447.8 200.5-447.8 447.8s200.5 447.8 447.8 447.8 447.8-200.5 447.8-447.8S758.8 63.7 511.5 63.7z m256.9 666.1c0 20.8-16.9 37.7-37.7 37.7l-435.8-0.4c-20.8 0-37.6-16.9-37.6-37.6l-0.3-435.9c0-20.8 16.9-37.7 37.7-37.7h321.1c2.5-0.9 5.1-1.4 7.9-1.4 2.8 0 5.4 0.5 7.9 1.4h11.7c10 0 19.6 4 26.6 11l87.5 87.6c7.1 7.1 11 16.7 11 26.6v348.7z" fill="#4AAF47" p-id="9662"></path><path d="M711.6 379l-64.4-65.6v71.9h69.3c-1.4-2.3-3-4.4-4.9-6.3z" fill="#4AAF47" p-id="9663"></path></svg>