<?xml version="1.0" standalone="no"?><!DOCTYPE svg PUBLIC "-//W3C//DTD SVG 1.1//EN" "http://www.w3.org/Graphics/SVG/1.1/DTD/svg11.dtd"><svg t="1599124808131" class="icon" viewBox="0 0 1024 1024" version="1.1" xmlns="http://www.w3.org/2000/svg" p-id="12674" xmlns:xlink="http://www.w3.org/1999/xlink" width="200" height="200"><defs><style type="text/css"></style></defs><path d="M511.2 65C264.8 65 65 264.8 65 511.2c0 246.5 199.8 446.2 446.2 446.2 246.5 0 446.2-199.8 446.2-446.2C957.5 264.8 757.7 65 511.2 65z" fill="#F5AF3F" p-id="12675"></path><path d="M469.9 542.9c0 52-12.8 91.9-38.3 119.7s-62 41.7-109.6 41.7c-21.1 0-40.6-3.4-58.7-10.1v-79c15.5 11.1 33.2 16.5 53 16.5 42.9 0 64.3-30.6 64.3-91.8V303.7h89.2v239.2h0.1zM729.7 681c-23.7 15.5-55.2 23.3-94.7 23.3-31 0-59.7-4.7-86.2-14v-65.6s-0.1 0-0.1-0.1h0.1v0.1c28.6 16.5 56.6 24.8 84 24.8 34.4 0 51.7-8.8 51.7-26.4 0-12.5-14.2-22.9-42.7-31.3-35.5-10.5-59.9-22.2-73.2-35.1-13.3-12.9-19.9-30.3-19.9-52.3 0-26.7 11.4-47.8 34.2-62.9 22.8-15.2 52.6-22.8 89.5-22.8 26.2 0 51.4 3.7 75.8 11.1v62.5c-22.2-12.5-46.8-18.7-73.5-18.7-13.3 0-24 2.2-32.1 6.7s-12.1 10.4-12.1 17.8c0 12.5 12.1 22.6 36.2 30.3 25.9 8.2 45.3 15.7 58.4 22.4 13 6.7 22.9 15.6 29.8 26.6 6.8 11 10.3 23.7 10.3 38.1 0 28.1-11.8 49.9-35.5 65.5z" fill="#F5AF3F" p-id="12676"></path><path d="M455.2 543.4c0 52-12 92-36 119.8-24 27.8-58.4 41.7-103.1 41.7-19.8 0-38.2-3.4-55.2-10.2v-79.1c14.6 11 31.2 16.5 49.8 16.5 40.3 0 60.5-30.6 60.5-91.8V304.2h83.9v239.2zM745 687.6c-19.7 11.5-47.6 17.3-83.9 17.3-42.9 0-77.5-13.1-104-39.2-26.4-26.1-39.7-59.9-39.7-101.5 0-47.8 14.2-85.5 42.7-113 28.5-27.5 66.4-41.3 113.9-41.3 32 0 55.8 4.4 71.2 13.2v70.4c-18.8-13.7-39.3-20.6-61.5-20.6-25.1 0-45.2 7.6-60.4 22.9-15.2 15.3-22.8 36.2-22.8 62.8 0 25.8 7.2 46.1 21.6 60.9 14.4 14.8 34 22.2 58.7 22.2 21.9 0 43.2-6.9 64.1-20.8v66.7z" fill="#FFFFFF" p-id="12677"></path></svg>