<?xml version="1.0" encoding="utf-8"?>
<!-- Generator: Adobe Illustrator 22.0.0, SVG Export Plug-In . SVG Version: 6.00 Build 0)  -->
<svg version="1.1" id="图层_1" xmlns="http://www.w3.org/2000/svg" xmlns:xlink="http://www.w3.org/1999/xlink" x="0px" y="0px"
	 viewBox="0 0 1024 1024" style="enable-background:new 0 0 1024 1024;" xml:space="preserve">
<style type="text/css">
	.st0{fill:#4AAF47;}
	.st1{fill:#FFFFFF;}
</style>
<path class="st0" d="M513.6,63.3c-247.3,0-447.8,200.5-447.8,447.8C65.7,758.5,266.2,959,513.6,959c247.3,0,447.8-200.5,447.8-447.8
	C961.4,263.8,760.9,63.3,513.6,63.3L513.6,63.3z"/>
<g>
	<path class="st1" d="M256.7,381.7h65V520c0,29-2.1,51.1-6.4,66.3c-4.2,15.2-12.8,28-25.6,38.5c-12.8,10.5-29.3,15.8-49.3,15.8
		c-21.2,0-37.6-3.5-49.2-10.4c-11.6-6.9-20.6-17.1-27-30.5c-6.3-13.4-10.1-29.9-11.2-49.6l62-10.2c0.1,11.2,0.9,19.6,2.4,25
		c1.5,5.4,4.1,9.8,7.7,13.2c2.5,2.2,6,3.3,10.6,3.3c7.3,0,12.6-3.3,16-9.8c3.4-6.5,5.1-17.6,5.1-33.1V381.7z"/>
	<path class="st1" d="M343.4,585l57.8-6.6c2.4,8.3,5.7,14.3,10,17.9c4.3,3.6,10,5.4,17.2,5.4c7.8,0,13.9-2,18.2-6.1
		c3.3-3,5-6.8,5-11.3c0-5.1-2.2-9-6.6-11.8c-3.1-2-11.5-4.4-25-7.3c-20.2-4.3-34.3-8.2-42.1-11.9c-7.9-3.6-14.5-9.8-19.9-18.5
		c-5.4-8.7-8.1-18.6-8.1-29.7c0-12.1,2.9-22.6,8.7-31.4c5.8-8.8,13.8-15.4,24-19.7c10.2-4.3,23.9-6.5,41.1-6.5
		c18.1,0,31.5,1.7,40.1,5c8.6,3.4,15.8,8.6,21.6,15.6c5.8,7.1,10.6,16.6,14.4,28.7l-55.2,6.6c-1.4-5.9-3.8-10.2-7.2-13
		c-4.6-3.7-10.1-5.6-16.6-5.6c-6.6,0-11.4,1.4-14.4,4.2c-3,2.8-4.5,6.3-4.5,10.3c0,4.5,1.9,7.9,5.7,10.2c3.8,2.3,12.1,4.4,24.9,6.2
		c19.4,2.7,33.8,6.4,43.2,11.1c9.4,4.7,16.7,11.5,21.7,20.3c5,8.8,7.5,18.5,7.5,29c0,10.6-2.6,21-7.9,31.1
		c-5.3,10.1-13.6,18.1-25,24c-11.4,6-26.9,8.9-46.6,8.9c-27.8,0-47.5-4.8-59.3-14.4C354.3,616.4,346.7,602.8,343.4,585z"/>
	<path class="st1" d="M518.2,544.6c0-28.1,7.8-51.3,23.5-69.6c15.6-18.2,36.8-27.4,63.4-27.4c30.4,0,53.4,10.7,69,32.1
		c12.5,17.3,18.7,38.5,18.7,63.7c0,28.4-7.8,51.6-23.3,69.7c-15.5,18.1-36.9,27.2-64.3,27.2c-24.4,0-44.2-7.5-59.2-22.6
		C527.5,599.2,518.2,574.8,518.2,544.6z M576.6,544.4c0,16.4,2.7,28.6,8.2,36.5c5.5,7.9,12.4,11.8,20.7,11.8
		c8.4,0,15.3-3.9,20.7-11.6c5.4-7.8,8.1-20.2,8.1-37.3c0-16-2.7-27.9-8.2-35.7c-5.4-7.8-12.2-11.7-20.2-11.7c-8.5,0-15.5,4-21,11.9
		C579.4,516.1,576.6,528.2,576.6,544.4z"/>
	<path class="st1" d="M713.5,451.8h54.2v30c8.1-12.3,16.3-21,24.6-26.3c8.3-5.3,18.4-7.9,30.3-7.9c16.1,0,28.7,5.8,37.9,17.5
		c9.1,11.6,13.7,29.6,13.7,53.9v117.2h-58.5V534.9c0-11.6-1.8-19.8-5.3-24.6c-3.5-4.8-8.5-7.2-14.9-7.2c-7.1,0-12.8,3.2-17.2,9.7
		c-4.4,6.5-6.6,18.1-6.6,34.9v88.6h-58.2V451.8z"/>
</g>
</svg>
