<?xml version="1.0" standalone="no"?><!DOCTYPE svg PUBLIC "-//W3C//DTD SVG 1.1//EN" "http://www.w3.org/Graphics/SVG/1.1/DTD/svg11.dtd"><svg t="1611650127498" class="icon" viewBox="0 0 1024 1024" version="1.1" xmlns="http://www.w3.org/2000/svg" p-id="15693" xmlns:xlink="http://www.w3.org/1999/xlink" width="200" height="200"><defs><style type="text/css"></style></defs><path d="M512 510.5m-447.5 0a447.5 447.5 0 1 0 895 0 447.5 447.5 0 1 0-895 0Z" fill="#FFFFFF" p-id="15694"></path><path d="M367.7 237.8c15.6-25.4 45.8-40.4 75.4-38.8 42.9 2 81.2 40.5 80.1 84 1.5 37.7-25.8 74.1-62.6 82.7-0.3 13.9-0.1 27.8-0.2 41.7 23.4 4.3 43.1 18.4 60.1 34.3 11.4-6.6 22.2-14.1 34.2-19.8-2.8-16.8-4.6-34.5 1.8-50.8 8.4-26.7 31.4-48.4 58.7-55 30.6-9 65.2 2.6 85.8 26.4 25 28.5 27.2 73.9 4.6 104.5-15.4 21.1-40.6 34.9-66.8 35.5-23.8 0.7-46.9-9.7-63.8-26-12.1 6.2-23.4 14.2-35.8 19.9 6.6 22.8 7.8 47.3-0.2 70 12.4 6.2 23.7 15.3 36.8 19.7 9.7-6.4 18.4-14.7 29.7-18.5 33-14.3 74-3.1 96.4 24.7 27.8 31.7 25.3 84.4-5.2 113.6-29.3 31-82.5 33.2-114.5 5-25.6-21-35.8-57.6-26.8-89.2-12.3-5.9-23.3-13.9-35.6-19.9-15.7 17.5-36.5 29.7-59.4 34.9-0.1 13.8-0.2 27.6 0 41.4 29.2 7.4 53.1 31.3 60.4 60.5 4.9 20.5 3.1 43-7.5 61.5-15.8 29.6-50 48-83.4 44.4-41.7-3.4-77-41.8-75.9-83.8-0.9-38.9 28.8-73.8 65.8-83.1 0.3-13.8 0.6-27.5-0.2-41.3-26-3.7-49.9-18.8-65.6-39.8-21.5-28.9-27.9-69-14.3-102.7 12-34.6 44-61 80.1-66.7 0.3-13.6 0.3-27.2 0.1-40.7-21.1-6.5-40.8-19.3-52.5-38.2-17.7-26.6-17.2-63.8 0.3-90.4m57.1 7.2c-10.5 3.7-19 11.5-23.7 21.6-11.5 20.4 1.5 48.2 22.9 55.6 12.8 2.8 27.8 2.7 38.3-6.3 15.4-11.2 20.7-33.9 11.6-50.6-8.5-17.8-30.5-26.6-49.1-20.3m201.8 113.6c-22.4 5.7-36.6 31.8-27.8 53.6 8.1 25.1 43.1 34 62.9 17.4 15.2-11.2 19.4-33.8 10.8-50.4-8.4-16.2-28.1-25.3-45.9-20.6m-207.8 93.6c-14.7 5.1-27.9 15.3-35.7 28.9-10.4 18.9-10.5 43 0 61.9 8.4 15.3 23.8 25.7 40.3 30.5 20.9 5.1 43.6-2.2 58.9-16.9 18.2-17.6 23-46.7 13-69.8-11.9-28.6-47.1-44.6-76.5-34.6m211.1 134.4c-11.1 1.1-20.5 8.5-27.1 17.1-12.4 18.9-6.1 47.1 14.3 57.7 22.7 14.2 56-2 59.2-28.6 5.8-26.1-20.2-51.9-46.4-46.2M422.8 702.3c-20.6 8.2-33 35-22 55.2 6.8 15.3 22.5 24.7 39.2 23.5 23.2 0 42-24.1 38.1-46.6-2.1-10.8-7.9-21.4-17.3-27.5-10.8-8-25.5-8-38-4.6z" fill="#535861" p-id="15695"></path></svg>