<?xml version="1.0" standalone="no"?><!DOCTYPE svg PUBLIC "-//W3C//DTD SVG 1.1//EN" "http://www.w3.org/Graphics/SVG/1.1/DTD/svg11.dtd"><svg t="1611313194778" class="icon" viewBox="0 0 1024 1024" version="1.1" xmlns="http://www.w3.org/2000/svg" p-id="15125" xmlns:xlink="http://www.w3.org/1999/xlink" width="200" height="200"><defs><style type="text/css"></style></defs><path d="M64.2 511.8a447.8 447.8 0 1 0 895.6 0 447.8 447.8 0 1 0-895.6 0Z" fill="#4AAF47" p-id="15126"></path><path d="M372.1 244c14.9-24.2 43.8-38.6 72-37.1 41 1.9 77.6 38.7 76.5 80.2 1.5 36.1-24.7 70.8-59.8 79-0.3 13.3-0.1 26.6-0.2 39.9 22.4 4.1 41.2 17.6 57.5 32.8 10.9-6.3 21.3-13.5 32.7-18.9-2.6-16-4.4-33 1.7-48.5 8-25.5 30-46.3 56.1-52.5 29.2-8.6 62.3 2.5 82 25.2 23.9 27.2 26 70.6 4.4 99.9-14.7 20.2-38.8 33.3-63.9 33.9-22.7 0.7-44.8-9.3-61-24.9-11.6 5.9-22.3 13.5-34.2 19 6.3 21.8 7.5 45.2-0.1 66.9 11.9 5.9 22.6 14.7 35.2 18.8 9.3-6.1 17.6-14.1 28.4-17.7 31.5-13.7 70.7-2.9 92.1 23.6 26.6 30.3 24.2 80.7-4.9 108.6-28 29.7-78.9 31.7-109.4 4.8-24.5-20.1-34.2-55-25.6-85.2-11.7-5.6-22.3-13.3-34-19-15 16.7-34.9 28.4-56.8 33.4-0.1 13.2-0.2 26.4 0 39.6 27.9 7 50.8 29.9 57.7 57.8 4.7 19.6 2.9 41.1-7.2 58.8-15.1 28.3-47.8 45.9-79.7 42.5-39.9-3.3-73.6-39.9-72.5-80-0.9-37.2 27.5-70.5 62.9-79.5 0.3-13.2 0.5-26.3-0.2-39.4-24.9-3.5-47.7-18-62.6-38-20.6-27.7-26.7-66-13.7-98.2 11.5-33.1 42-58.3 76.5-63.7 0.3-13 0.3-26 0.1-38.9-20.2-6.2-39-18.4-50.2-36.6-17-25.5-16.5-61.1 0.2-86.6m54.6 7c-10 3.5-18.2 11-22.6 20.6-11 19.5 1.4 46.1 21.9 53.1 12.2 2.6 26.6 2.6 36.6-6 14.8-10.7 19.8-32.4 11.1-48.4-8.3-17-29.2-25.4-47-19.3m192.8 108.5c-21.4 5.4-35 30.4-26.6 51.2 7.8 24 41.1 32.5 60.1 16.7 14.6-10.7 18.5-32.3 10.3-48.1-8-15.6-26.8-24.3-43.8-19.8m-198.6 89.4c-14.1 4.9-26.6 14.6-34.1 27.6-9.9 18-10.1 41.1 0 59.1 8 14.6 22.7 24.5 38.5 29.2 19.9 4.9 41.7-2.1 56.3-16.1 17.4-16.9 21.9-44.7 12.5-66.7-11.5-27.3-45.1-42.6-73.2-33.1m201.8 128.5c-10.7 1.1-19.6 8.1-25.9 16.4-11.9 18.1-5.8 45.1 13.6 55.2 21.7 13.6 53.6-1.9 56.6-27.3 5.6-25.1-19.3-49.8-44.3-44.3M424.7 688c-19.7 7.8-31.5 33.4-21 52.7 6.5 14.6 21.5 23.6 37.5 22.5 22.1 0 40.1-23 36.4-44.5-2-10.4-7.6-20.4-16.6-26.2-10.3-7.8-24.3-7.8-36.3-4.5z" fill="#FFFFFF" p-id="15127"></path></svg>