<?xml version="1.0" standalone="no"?><!DOCTYPE svg PUBLIC "-//W3C//DTD SVG 1.1//EN" "http://www.w3.org/Graphics/SVG/1.1/DTD/svg11.dtd"><svg t="1587783076524" class="icon" viewBox="0 0 1024 1024" version="1.1" xmlns="http://www.w3.org/2000/svg" p-id="10967" xmlns:xlink="http://www.w3.org/1999/xlink" width="200" height="200"><defs><style type="text/css"></style></defs><path d="M511.7 63.5c-246.4 0-446.2 199.8-446.2 446.2C65.5 756.2 265.3 956 511.7 956 758.2 956 958 756.2 958 509.7c0-246.4-199.8-446.2-446.3-446.2z" fill="#F5AF3F" p-id="10968"></path><path d="M242.3 707.8V314.2h167.3c42.1 0 72.6 3.5 91.7 10.6 19.1 7.1 34.3 19.6 45.8 37.7s17.2 38.8 17.2 62c0 29.5-8.7 53.9-26 73.2-17.4 19.2-43.3 31.4-77.9 36.4 17.2 10 31.4 21 42.6 33 11.2 12 26.3 33.3 45.2 63.9l48.1 76.8h-95l-57.5-85.6c-20.4-30.6-34.4-49.9-41.9-57.9s-15.5-13.4-23.9-16.4c-8.4-3-21.7-4.4-40-4.4h-16.1v164.3h-79.6z m79.5-227.1h58.8c38.1 0 61.9-1.6 71.4-4.8 9.5-3.2 16.9-8.8 22.3-16.6 5.4-7.9 8.1-17.7 8.1-29.5 0-13.2-3.5-23.9-10.6-32.1-7.1-8.1-17-13.3-29.9-15.4-6.4-0.9-25.8-1.3-58-1.3h-62v99.7z m283.8-58h41.9v-21.5c0-24 2.6-41.9 7.7-53.7 5.1-11.8 14.5-21.4 28.2-28.9 13.7-7.4 31-11.1 51.9-11.1 21.5 0 42.5 3.2 63.1 9.7l-10.2 52.6c-12-2.9-23.5-4.3-34.6-4.3-10.9 0-18.8 2.6-23.5 7.7-4.7 5.1-7.1 14.9-7.1 29.4v20.1h56.4V482H723v225.8h-75.4V482h-41.9v-59.3z" fill="#FFFFFF" p-id="10969"></path></svg>