<?xml version="1.0" encoding="UTF-8"?>
<svg width="1025px" height="1025px" viewBox="0 0 1025 1025" version="1.1" xmlns="http://www.w3.org/2000/svg" xmlns:xlink="http://www.w3.org/1999/xlink">
    <title>o-js</title>
    <g id="页面-1" stroke="none" stroke-width="1" fill="none" fill-rule="evenodd">
        <g id="o-js">
            <g id="图层_1">
                <rect id="矩形" x="57.4" y="89.2" width="893.4" height="896.7"></rect>
            </g>
            <g id="图层_3" transform="translate(63.800000, 63.900000)" fill="#F5AF3F" fill-rule="nonzero">
                <circle id="椭圆形" cx="447.8" cy="448.1" r="447.8"></circle>
            </g>
            <g id="04zhuanhuan" transform="translate(285.000000, 283.000000)" fill="#FFFFFF" fill-rule="nonzero">
                <path d="M22.9813028,120.438519 C22.9813028,120.438519 64.3397215,56.0750174 129.707694,21.5450117 C195.120639,-12.9849941 275.646186,-3.05536134 328.450152,30.4235859 C381.299092,63.9025332 399.094689,92.1705256 399.094689,92.1705256 L444.611084,66.0046495 C444.611084,66.0046495 454,61.3081398 454,72.288831 L454,236.596768 C454,236.596768 454,251.245731 443.001182,245.989787 C433.790854,241.606899 333.815619,184.242847 302.338472,166.150298 C285.079944,158.367772 300.237128,152.038601 300.237128,152.038601 L344.188595,126.700401 C344.188595,126.700401 319.105557,95.0327689 282.442183,78.2599117 C243.230473,57.64039 206.477153,55.1803133 161.497305,72.3334289 C132.122284,83.5155942 97.5602545,112.163716 72.7007778,154.431519 L22.9813028,120.438519 L22.9813028,120.438519 Z M431.018175,337.570483 C431.018175,337.570483 389.660148,401.911816 324.292437,436.463599 C258.924074,470.993865 178.353684,461.042194 125.549717,427.562856 C72.7007778,394.0843 54.905572,365.815916 54.905572,365.815916 L9.38917672,391.982053 C9.38917672,391.982053 0,396.678563 0,385.72004 L0,221.389413 C0,221.389413 0,206.763272 10.998817,211.996395 C20.2094051,216.379934 120.18438,273.743595 151.661397,291.835883 C168.919925,299.618409 153.762741,305.970401 153.762741,305.970401 L109.811274,331.286432 C109.811274,331.286432 134.894312,362.953673 171.557685,379.726921 C210.770048,400.346443 247.522716,402.80652 292.502564,385.653143 C321.877585,374.470978 356.439614,345.845417 381.299091,303.554662 L431.018175,337.570483 L431.018175,337.570483 Z" id="形状"></path>
            </g>
        </g>
    </g>
</svg>