<?xml version="1.0" encoding="utf-8"?>
<!-- Generator: Adobe Illustrator 22.0.0, SVG Export Plug-In . SVG Version: 6.00 Build 0)  -->
<svg version="1.1" id="图层_6" xmlns="http://www.w3.org/2000/svg" xmlns:xlink="http://www.w3.org/1999/xlink" x="0px" y="0px"
	 viewBox="0 0 1024 1024" style="enable-background:new 0 0 1024 1024;" xml:space="preserve">
<style type="text/css">
	.st0{display:none;fill:#409EFF;}
	.st1{display:none;fill:#C9493F;}
	.st2{fill:#C9493F;}
</style>
<path class="st0" d="M114.7,64.7c40-4.1,109.4,17.2,137.7,42.3c13.1,11.5,25.8,23.6,38.1,36.1c112.4-22.3,213,33.9,299.6,167.2
	c80.4,123.8,135.5,226.6,164,306c40.3,21,79.2,44.7,116.5,71c62.4,43.8,79.4,66.5,86.6,79.7c8.1,14.8,3,33.5-11.4,41.8
	c-4.4,2.6-9.4,3.9-14.5,3.9H829c15.2,18,30.7,35.6,46.6,53c12.1,11.5,12.8,31,1.6,43.4s-30.1,13.2-42.2,1.6c-1-0.9-1.9-1.9-2.7-3
	c-31.2-34.5-61.5-69.8-91.1-105.8c-10.6-13-9-32.3,3.5-43.3c5.3-4.6,12.1-7.2,19.1-7.3h92c-43.7-32.6-90-61.2-138.5-85.5
	c-7.2-3.5-12.7-9.9-15.3-17.7c-25.3-75.9-79.7-178.1-161.4-303.9c-76.4-117.8-159-162.8-252.3-138c-10.5,2.8-21.6-0.5-29-8.6
	c-14.5-15.6-29.7-30.4-45.6-44.4c-15.5-13.7-61-26.8-84.8-28c6.8,15.9,25.1,49.6,75.2,116.8c1.9,2.5,3.4,5.4,4.4,8.5
	c17.7,52.4,26.3,91.7,26.3,120c0,7.8,4.2,31.2,43,80.2c6.2,7.8,8.3,18.3,5.5,28l-34.1,120c-19.5,68.6,19.3,160.1,43.9,189.3
	c5.7-15.9,14.3-53.7,17.9-140.8c0.8-16.9,14.7-30,31.2-29.3c10.5,0.5,20.1,6.7,25,16.3c14.5,28.5,35.6,79.3,64.6,155.1
	c34.4,89.8,58.5,108.7,67.3,112.6c14.6,7.9,20.2,26.5,12.5,41.5c-6.9,13.4-22.2,19.7-36.2,14.7c-35.4-15.8-66.8-62.2-99-146.3
	c-5.9-15.6-11.6-30.1-16.9-43.7c-10.5,57.5-26.6,77.7-46.6,85.8c-10,4.1-30.2,7.4-54.2-15.2c-44.9-42.3-93.2-163.4-66.6-257.2
	l29.8-104.9c-31.7-42.5-46.6-76.5-46.6-106.1c0-14-3.8-41.9-21.4-95.2C61,150.1,54.2,111.7,74.4,84.9
	C83.1,73.5,96.7,66.6,114.7,64.7L114.7,64.7z M322.9,283.9c11.6-2.7,47.9-3.2,59.1,14.3c21.6,24.9,11,62.8-2.5,72.3l-1.9,1.9
	c-7.7-15.6-19.7-28-27.4-43.6C340.5,314.2,331.4,299.3,322.9,283.9z"/>
<path class="st1" d="M656.7,246.3H364.5c-146.2-0.1-264.8,119.4-264.9,267l0,0c0.1,147.5,118.7,267,264.9,267l0,0h292.2
	c146.2,0.1,264.8-119.4,264.9-267l0,0C921.5,365.7,802.9,246.2,656.7,246.3L656.7,246.3z M769.6,628c-29.8,30.1-70.3,47-112.5,47
	H365c-88,0.1-159.5-71.8-159.8-160.6v-1.5c0.3-88.8,71.7-160.6,159.8-160.5h292c87.8-0.1,159,71.7,159.1,160.3c0,0.1,0,0.1,0,0.2
	v1.5C816.1,557,799.4,597.9,769.6,628L769.6,628z"/>
<g>
	<path class="st2" d="M108.5,515.6c0-23.6,6-41.9,17.9-55s28.5-19.7,49.7-19.7c21.8,0,38.5,6.4,50.3,19.3s17.7,31,17.7,54.2
		c0,16.9-2.5,30.7-7.7,41.5s-12.6,19.2-22.3,25.2c-9.7,6-21.9,9-36.4,9c-14.8,0-27-2.6-36.6-7.8c-9.7-5.2-17.5-13.4-23.5-24.6
		C111.5,546.5,108.5,532.4,108.5,515.6z M148.9,515.8c0,14.6,2.4,25,7.3,31.4s11.6,9.6,20,9.6c8.7,0,15.4-3.1,20.2-9.4
		c4.8-6.2,7.2-17.4,7.2-33.6c0-13.6-2.4-23.5-7.4-29.8s-11.7-9.4-20.2-9.4c-8.2,0-14.7,3.2-19.7,9.6
		C151.4,490.5,148.9,501.1,148.9,515.8z"/>
	<path class="st2" d="M266.5,587.6V443.3h67.4c12.5,0,22,1.2,28.7,3.5c6.6,2.4,12,6.7,16,13.1c4.1,6.4,6.1,14.2,6.1,23.4
		c0,8-1.5,14.9-4.6,20.7c-3.1,5.8-7.3,10.5-12.8,14.1c-3.4,2.3-8.2,4.2-14.2,5.7c4.8,1.8,8.3,3.5,10.5,5.3c1.5,1.2,3.6,3.7,6.4,7.6
		c2.8,3.9,4.7,6.9,5.6,9l19.6,41.8h-45.6l-21.6-44.1c-2.7-5.7-5.2-9.4-7.3-11.1c-2.9-2.2-6.3-3.3-9.9-3.3h-3.5v58.6H266.5z
		 M307.1,501.8h17.1c1.8,0,5.4-0.7,10.7-2c2.7-0.6,4.9-2.1,6.5-4.5c1.7-2.4,2.5-5.2,2.5-8.4c0-4.7-1.4-8.2-4-10.7
		c-2.7-2.5-7.7-3.7-15.1-3.7h-17.8L307.1,501.8L307.1,501.8z"/>
	<path class="st2" d="M488.7,563.8h-45.9l-6.3,23.8h-41.3l49.2-144.3h44.1l49.2,144.3h-42.4L488.7,563.8z M480.3,532.6l-14.4-51.9
		l-14.3,51.9H480.3z"/>
	<path class="st2" d="M634.3,528.6l35.5,11.8c-2.4,11-6.2,20.1-11.2,27.5c-5.1,7.4-11.5,12.9-19,16.6c-7.6,3.7-17.2,5.6-28.9,5.6
		c-14.2,0-25.8-2.3-34.8-6.8c-9-4.6-16.8-12.6-23.3-24.1c-6.5-11.5-9.8-26.2-9.8-44.1c0-23.9,5.8-42.2,17.3-55s27.8-19.2,48.9-19.2
		c16.5,0,29.5,3.7,38.9,11c9.4,7.4,16.4,18.6,21,33.9l-35.7,8.8c-1.3-4.4-2.5-7.6-3.9-9.6c-2.3-3.4-5-6-8.3-7.9
		c-3.3-1.8-6.9-2.8-11-2.8c-9.2,0-16.2,4.1-21,12.2c-3.7,6-5.5,15.5-5.5,28.4c0,16,2.2,27,6.6,32.9c4.4,5.9,10.6,8.9,18.6,8.9
		c7.7,0,13.6-2.4,17.5-7.2C629.6,544.7,632.5,537.7,634.3,528.6z"/>
	<path class="st2" d="M689.4,443.3h40.5v108.8H793v35.5H689.4V443.3z"/>
	<path class="st2" d="M811.2,443.3h108.4v30.8h-67.8V497h62.9v29.4h-62.9v28.5h69.8v32.7H811.2V443.3z"/>
</g>
<path class="st2" d="M213.7,391.6c31.2-59.8,84.4-99.1,144.6-99h317.8c60.1,0,113.1,39.3,144.1,99h94.6
	c-40.6-116.4-137.5-198.3-250.6-198.2l0,0H365.4c-113.1-0.1-210,81.8-250.6,198.2H213.7z"/>
<path class="st2" d="M831.6,634.6c-8.4,21.9-19.4,42-33.1,59.5l0.1,0.1c-32.5,41.7-76.6,65.1-122.4,65.1H358.4
	c-68.6,0.1-127.9-50.8-156.2-124.7h-93.8c35.9,127.2,137.4,218.8,257,218.7l0,0h298.9c119.6,0.1,221.1-91.6,257-218.7H831.6z"/>
</svg>
