<?xml version="1.0" encoding="UTF-8"?>
<svg width="30px" height="30px" viewBox="0 0 30 30" version="1.1" xmlns="http://www.w3.org/2000/svg" xmlns:xlink="http://www.w3.org/1999/xlink">
    <title>gridfs</title>
    <g id="gridfs" stroke="none" stroke-width="1" fill="none" fill-rule="evenodd">
        <circle id="椭圆形" stroke="#E3E3E3" fill="#FFFFFF" cx="14.9217305" cy="15.0782695" r="14.3496"></circle>
        <g transform="translate(7.421727, 7.578270)" fill="#4AAF47" fill-rule="nonzero" id="形状">
            <path d="M14.2303288,0 L0.767985999,0 C0.346346627,0 0,0.346346905 0,0.767986615 L0,14.2320134 C0,14.6536531 0.346346627,15 0.767985999,15 L14.232002,15 C14.6536413,15 15,14.6536531 15,14.2320134 L15,0.771332962 C15.0016611,0.346346905 14.6553145,0 14.2303288,0 Z M4.24483764,13.9308422 L1.40546457,13.9308422 C1.22643516,13.9308422 1.07919601,13.7836029 1.07919601,13.6045733 L1.07919601,10.7685443 C1.07919601,10.5895148 1.22643516,10.4422755 1.40546457,10.4422755 L4.24316447,10.4422755 C4.42219389,10.4422755 4.56943303,10.5895148 4.56943303,10.7685443 L4.56943303,13.6029002 L4.57277938,13.6029002 C4.57277938,13.7836029 4.42554023,13.9308422 4.24483764,13.9308422 L4.24483764,13.9308422 Z M4.24483764,9.2459565 L1.40546457,9.2459565 C1.22643516,9.2459565 1.07919601,9.09871723 1.07919601,8.91968767 L1.07919601,6.08365867 C1.07919601,5.90462911 1.22643516,5.75738985 1.40546457,5.75738985 L4.24316447,5.75738985 C4.42219389,5.75738985 4.56943303,5.90462911 4.56943303,6.08365867 L4.56943303,8.9180145 L4.57277938,8.9180145 C4.57277938,9.09871723 4.42554023,9.2459565 4.24483764,9.2459565 L4.24483764,9.2459565 Z M4.24483764,4.5945343 L1.40546457,4.5945343 C1.22643516,4.5945343 1.07919601,4.44729504 1.07919601,4.26826548 L1.07919601,1.43223648 C1.07919601,1.25320692 1.22643516,1.10596765 1.40546457,1.10596765 L4.24316447,1.10596765 C4.42219389,1.10596765 4.56943303,1.25320692 4.56943303,1.43223648 L4.56943303,4.2665923 L4.57277938,4.2665923 C4.57277938,4.44729504 4.42554023,4.5945343 4.24483764,4.5945343 L4.24483764,4.5945343 Z M8.93139273,13.9107641 L6.09201965,13.9107641 C5.91299024,13.9107641 5.76575109,13.7635248 5.76575109,13.5844953 L5.76575109,10.7501394 C5.76575109,10.5711099 5.91299024,10.4238706 6.09201965,10.4238706 L8.92971955,10.4238706 C9.10874897,10.4238706 9.25598811,10.5711099 9.25598811,10.7501394 L9.25598811,13.5844953 L9.25933446,13.5844953 C9.25933446,13.7635248 9.11209531,13.9107641 8.93139273,13.9107641 L8.93139273,13.9107641 Z M8.93139273,9.22587842 L6.09201965,9.22587842 C5.91299024,9.22587842 5.76575109,9.07863915 5.76575109,8.89960959 L5.76575109,6.06525376 C5.76575109,5.88622421 5.91299024,5.73898494 6.09201965,5.73898494 L8.92971955,5.73898494 C9.10874897,5.73898494 9.25598811,5.88622421 9.25598811,6.06525376 L9.25598811,8.89960959 L9.25933446,8.89960959 C9.25933446,9.07863915 9.11209531,9.22587842 8.93139273,9.22587842 L8.93139273,9.22587842 Z M8.93139273,4.57445622 L6.09201965,4.57445622 C5.91299024,4.57445622 5.76575109,4.42721695 5.76575109,4.2481874 L5.76575109,1.41383157 C5.76575109,1.23480201 5.91299024,1.08756274 6.09201965,1.08756274 L8.92971955,1.08756274 C9.10874897,1.08756274 9.25598811,1.23480201 9.25598811,1.41383157 L9.25598811,4.2481874 L9.25933446,4.2481874 C9.25933446,4.42721695 9.11209531,4.57445622 8.93139273,4.57445622 L8.93139273,4.57445622 Z M13.5978697,13.9141104 L10.7584967,13.9141104 C10.5794673,13.9141104 10.4322281,13.7668712 10.4322281,13.5878416 L10.4322281,10.7518126 C10.4322281,10.572783 10.5794673,10.4255438 10.7584967,10.4255438 L13.5961966,10.4255438 C13.775226,10.4255438 13.9224651,10.572783 13.9224651,10.7518126 L13.9224651,13.5861684 L13.9258115,13.5861684 C13.9258115,13.7668712 13.7785723,13.9141104 13.5978697,13.9141104 Z M13.5978697,9.22922476 L10.7584967,9.22922476 C10.5794673,9.22922476 10.4322281,9.0819855 10.4322281,8.90295594 L10.4322281,6.06692694 C10.4322281,5.88789738 10.5794673,5.74065811 10.7584967,5.74065811 L13.5961966,5.74065811 C13.775226,5.74065811 13.9224651,5.88789738 13.9224651,6.06692694 L13.9224651,8.90128277 L13.9258115,8.90128277 C13.9258115,9.0819855 13.7785723,9.22922476 13.5978697,9.22922476 L13.5978697,9.22922476 Z M13.5978697,4.57780257 L10.7584967,4.57780257 C10.5794673,4.57780257 10.4322281,4.4305633 10.4322281,4.25153374 L10.4322281,1.41550474 C10.4322281,1.23647518 10.5794673,1.08923592 10.7584967,1.08923592 L13.5961966,1.08923592 C13.775226,1.08923592 13.9224651,1.23647518 13.9224651,1.41550474 L13.9224651,4.24986057 L13.9258115,4.24986057 C13.9258115,4.4305633 13.7785723,4.57780257 13.5978697,4.57780257 L13.5978697,4.57780257 Z"></path>
        </g>
    </g>
</svg>