<?xml version="1.0" encoding="UTF-8"?>
<svg width="1025px" height="1025px" viewBox="0 0 1025 1025" version="1.1" xmlns="http://www.w3.org/2000/svg" xmlns:xlink="http://www.w3.org/1999/xlink">
    <title>js</title>
    <g id="页面-1" stroke="none" stroke-width="1" fill="none" fill-rule="evenodd">
        <g id="js">
            <g id="图层_1">
                <rect id="矩形" x="57.4" y="89.2" width="893.4" height="896.7"></rect>
            </g>
            <g id="图层_3" transform="translate(63.800000, 63.900000)" fill="#F5AF3F" fill-rule="nonzero">
                <path d="M833.6,2.84217094e-14 L64.4,2.84217094e-14 C29.5,2.84217094e-14 0.9,28.6 0.9,63.5 L0.9,832.7 C0.9,867.6 29.5,896.2 64.4,896.2 L833.6,896.2 C868.5,896.2 897.1,867.6 897.1,832.7 L897.1,63.5 C897.1,28.6 868.5,2.84217094e-14 833.6,2.84217094e-14 Z M833.1,768.3 C833.1,803.2 804.5,831.8 769.6,831.8 L128.4,831.8 C93.5,831.8 64.9,803.2 64.9,768.3 L64.9,127.5 C64.9,92.6 93.5,64 128.4,64 L769.7,64 C804.6,64 833.2,92.6 833.2,127.5 L833.2,768.3 L833.1,768.3 Z" id="形状"></path>
            </g>
            <g id="04zhuanhuan" transform="translate(261.000000, 259.000000)" fill="#F5AF3F" fill-rule="nonzero">
                <path d="M25.411044,133.060896 C25.411044,133.060896 71.142159,61.9518752 143.421282,23.8030042 C215.750134,-14.3458668 304.789395,-3.37557388 363.17616,33.612084 C421.612652,70.5997419 441.289722,101.830319 441.289722,101.830319 L491.618423,72.9221674 C491.618423,72.9221674 502,67.733447 502,79.8649531 L502,261.392936 C502,261.392936 502,277.577161 489.838312,271.770375 C479.654205,266.928146 369.108901,203.552141 334.303773,183.56343 C315.220555,174.965268 331.98026,167.972778 331.98026,167.972778 L380.578579,139.979045 C380.578579,139.979045 352.84359,104.992535 312.303912,86.4618238 C268.94647,63.6813042 228.307336,60.9634029 178.57191,79.9142249 C146.09116,92.2683203 107.874995,123.918865 80.3872037,170.616482 L25.411044,133.060896 L25.411044,133.060896 Z M476.588379,372.949049 C476.588379,372.949049 430.857697,444.033578 358.578862,482.206509 C286.299306,520.355667 197.210461,509.361026 138.823696,472.372937 C80.3872037,435.385711 60.7105664,404.154702 60.7105664,404.154702 L10.381865,433.063142 C10.381865,433.063142 0,438.251862 0,426.144848 L0,244.591797 C0,244.591797 0,228.432785 12.1616876,234.214357 C22.3460823,239.057307 132.891099,302.43288 167.696082,322.421303 C186.7793,331.019465 170.019595,338.037168 170.019595,338.037168 L121.421276,366.006408 C121.421276,366.006408 149.156265,400.992485 189.695943,419.523629 C233.054106,442.304149 273.692519,445.02205 323.427945,426.07094 C355.908695,413.716844 394.12486,382.091224 421.612651,335.368251 L476.588379,372.949049 L476.588379,372.949049 Z" id="形状"></path>
            </g>
        </g>
    </g>
</svg>