<svg width="32" height="32" viewBox="0 0 32 32" fill="none" xmlns="http://www.w3.org/2000/svg">
<path d="M29.8946 28.8389H28.9745V18.526C28.9745 17.9728 28.6979 17.2277 28.0374 16.9511L19.6832 11.487V2.92962L19.5929 2.7377C19.2147 1.80632 18.3849 1.3378 17.3632 1.52408L4.26182 5.42459C3.51671 5.70118 2.96353 6.44629 2.96353 7.28171V28.8389H2.0265C1.45639 28.8389 1.08948 29.3075 1.08948 29.776C1.08948 30.3461 1.46767 30.713 2.0265 30.713H29.8946C30.4647 30.713 30.8316 30.3348 30.8316 29.776C30.8259 29.2059 30.4477 28.8389 29.8946 28.8389ZM27.1061 18.4244V28.8389H19.6832V13.6151L27.1061 18.4244ZM4.79807 7.28171L17.7979 3.3812V28.8389H4.79807V7.28171Z" fill="#BD2828"/>
<path d="M14.0893 10.1605H8.52357C7.95346 10.1605 7.58655 10.5274 7.58655 11.0975C7.58655 11.6677 7.96475 12.0346 8.52357 12.0346H14.0893C14.6594 12.0346 15.0263 11.6677 15.0263 11.0975C15.0263 10.5218 14.6425 10.1605 14.0893 10.1605ZM14.0893 15.7206H8.52357C7.95346 15.7206 7.58655 16.0988 7.58655 16.6576V16.6689C7.58655 17.239 7.96475 17.6059 8.52357 17.6059H14.0893C14.6594 17.6059 15.0263 17.2277 15.0263 16.6689V16.6633V16.6576C15.0263 16.0875 14.6425 15.7206 14.0893 15.7206ZM14.0893 21.3032H8.52357C7.95346 21.3032 7.58655 21.6701 7.58655 22.2403V22.2515C7.58655 22.8217 7.96475 23.1886 8.52357 23.1886H14.0893C14.6594 23.1886 15.0263 22.8217 15.0263 22.2515V22.2459V22.2403C15.0263 21.6701 14.6425 21.3032 14.0893 21.3032ZM21.5234 22.2515C21.5234 22.8217 21.9016 23.1886 22.4604 23.1886H24.3175C24.8877 23.1886 25.2546 22.8217 25.2546 22.2515V22.2459V22.2403C25.2546 21.6701 24.8764 21.3032 24.3175 21.3032H22.4604C21.8903 21.3032 21.5234 21.6701 21.5234 22.2403V22.2515Z" fill="#BD2828"/>
</svg>
