<svg width="64" height="67" viewBox="0 0 64 67" fill="none" xmlns="http://www.w3.org/2000/svg">
<path d="M52.2227 44C53.4977 44 54.5576 44.3396 55.3871 45.0512C56.1859 45.7305 56.6774 46.6685 56.8464 47.8329H55.2181C55.0338 47.0566 54.6805 46.4744 54.1582 46.1024C53.6359 45.7305 52.9908 45.5526 52.192 45.5526C51.0092 45.5526 50.1183 45.973 49.5192 46.8302C48.9508 47.6065 48.6743 48.6739 48.6743 50.0162C48.6743 51.407 48.9508 52.4744 49.5038 53.2345C50.0876 54.0431 50.9939 54.4474 52.2227 54.4474C53.0215 54.4474 53.6974 54.2372 54.2197 53.8167C54.7727 53.3639 55.1567 52.6846 55.3717 51.779H57C56.7542 53.1213 56.1859 54.1725 55.2796 54.9326C54.4347 55.6442 53.4209 56 52.2381 56C50.4409 56 49.0891 55.3854 48.1828 54.1887C47.384 53.1536 47 51.7628 47 50.0162C47 48.3019 47.3994 46.9111 48.2289 45.8275C49.1505 44.5984 50.4716 44 52.2227 44Z" fill="#BD2828"/>
<path d="M2.74976 64C2.74976 44.8939 19.1233 29.4054 39.3212 29.4054" stroke="#BD2828" stroke-width="5" stroke-linecap="round"/>
<circle cx="34.75" cy="17" r="14.5" fill="white" stroke="#BD2828" stroke-width="5"/>
<rect x="42.75" y="40.5" width="19" height="19" rx="9.5" stroke="#BD2828" stroke-width="3"/>
</svg>
