<svg width="32" height="32" viewBox="0 0 32 32" fill="none" xmlns="http://www.w3.org/2000/svg">
<path d="M26.675 6.15312H5.325C4.28437 6.15312 3.4375 7 3.4375 8.04062V23.9625C3.4375 25.0031 4.28437 25.85 5.325 25.85H26.6781C27.7188 25.85 28.5656 25.0031 28.5656 23.9625V8.04062C28.5625 7 27.7156 6.15312 26.675 6.15312ZM5.325 7.71562H26.6781C26.8563 7.71562 27.0031 7.8625 27.0031 8.04062V10.5H5V8.04062C5 7.85937 5.14687 7.71562 5.325 7.71562ZM26.675 24.2844H5.325C5.14687 24.2844 5 24.1375 5 23.9594V12.0625H27V23.9594C27 24.1406 26.8531 24.2844 26.675 24.2844Z" fill="#BD2828"/>
<path d="M7.48438 21.6187C7.48437 21.7144 7.50305 21.8091 7.53932 21.8974C7.5756 21.9857 7.62878 22.066 7.69581 22.1336C7.76284 22.2012 7.84242 22.2549 7.93 22.2915C8.01758 22.328 8.11145 22.3469 8.20625 22.3469C8.30105 22.3469 8.39492 22.328 8.4825 22.2915C8.57008 22.2549 8.64966 22.2012 8.71669 22.1336C8.78373 22.066 8.8369 21.9857 8.87318 21.8974C8.90945 21.8091 8.92813 21.7144 8.92813 21.6187C8.92813 21.5231 8.90945 21.4284 8.87318 21.3401C8.8369 21.2518 8.78373 21.1715 8.71669 21.1039C8.64966 21.0363 8.57008 20.9826 8.4825 20.9461C8.39492 20.9095 8.30105 20.8906 8.20625 20.8906C8.11145 20.8906 8.01758 20.9095 7.93 20.9461C7.84242 20.9826 7.76284 21.0363 7.69581 21.1039C7.62878 21.1715 7.5756 21.2518 7.53932 21.3401C7.50305 21.4284 7.48437 21.5231 7.48438 21.6187Z" fill="#BD2828"/>
<path d="M11.4094 21.0844C11.0719 21.0844 10.8906 20.85 10.8906 20.4156V18.8812C10.8906 18.4437 11.075 18.2219 11.4094 18.2219C11.7375 18.2219 11.9 18.4437 11.9187 18.8812H13.2375C13.2 17.6781 12.5844 16.9594 11.3813 16.9594C10.2375 16.9594 9.5625 17.6781 9.5625 18.8812V20.4156C9.5625 21.6281 10.2375 22.3469 11.3813 22.3469C12.5469 22.3469 13.2469 21.6281 13.2781 20.4156H11.9594C11.9313 20.8531 11.7656 21.0844 11.4094 21.0844ZM15.7125 16.9594C14.5187 16.9594 13.8156 17.6875 13.8156 18.9969V20.3062C13.8156 21.6156 14.5187 22.3531 15.7125 22.3531C16.9062 22.3531 17.6094 21.6156 17.6094 20.3062V18.9969C17.6062 17.6875 16.9031 16.9594 15.7125 16.9594ZM16.2687 20.3094C16.2687 20.8437 16.075 21.075 15.7094 21.075C15.3438 21.075 15.15 20.8406 15.15 20.3094V19C15.15 18.4656 15.3438 18.2437 15.7094 18.2437C16.075 18.2437 16.2687 18.4656 16.2687 19V20.3094ZM22.8875 16.9594C22.3781 16.9594 21.975 17.1719 21.7219 17.5719C21.4719 17.1656 21.0875 16.9594 20.5875 16.9594C20.0594 16.9594 19.6531 17.1812 19.3937 17.6094L19.3062 17.0844H18.45V22.2281H19.75V18.9781C19.75 18.4719 19.9625 18.2219 20.2781 18.2219C20.5875 18.2219 20.75 18.4437 20.75 19.075V22.2312H22.05V18.9781C22.05 18.4719 22.2531 18.2219 22.5781 18.2219C22.8875 18.2219 23.05 18.4437 23.05 19.075V22.2312H24.35V19.075C24.35 17.6781 23.8125 16.9594 22.8875 16.9594Z" fill="#BD2828"/>
</svg>
