<svg width="64" height="64" viewBox="0 0 64 64" fill="none" xmlns="http://www.w3.org/2000/svg">
<path d="M20.1119 25.552C23.3343 25.552 25.9519 22.9312 25.9519 19.7088C25.9519 16.4864 23.3311 13.8688 20.1119 13.8688C16.8895 13.8688 14.2687 16.4896 14.2687 19.7088C14.2719 22.9312 16.8895 25.552 20.1119 25.552ZM20.1119 17.7088C21.2159 17.7088 22.1119 18.608 22.1119 19.7088C22.1119 20.8128 21.2127 21.712 20.1119 21.712C19.0111 21.712 18.1087 20.8128 18.1087 19.7088C18.1119 18.608 19.0079 17.7088 20.1119 17.7088ZM51.3951 56.352C52.4287 56.352 53.5359 56.2144 54.7135 55.9008C55.0663 55.8074 55.3852 55.6154 55.6329 55.3474C55.8805 55.0793 56.0467 54.7463 56.1119 54.3872C57.4911 46.8064 51.9711 42.24 48.8607 40.8864C47.8879 40.4608 46.7583 40.9088 46.3327 41.8816C46.1303 42.3473 46.1203 42.8742 46.3049 43.3472C46.4896 43.8203 46.8539 44.201 47.3183 44.4064C47.5583 44.5152 52.7231 46.896 52.4767 52.4416C46.9215 53.1584 44.6079 48.208 44.3455 47.6C43.9263 46.6304 42.8031 46.1728 41.8303 46.5856C41.3631 46.7831 40.9931 47.1575 40.8012 47.6271C40.6093 48.0966 40.6112 48.623 40.8063 49.0912C41.9711 51.8656 45.5199 56.352 51.3951 56.352Z" fill="#BD2828"/>
<path d="M4.61129 5.92C4.69532 5.51539 4.90758 5.14867 5.21657 4.87427C5.52555 4.59987 5.91479 4.43243 6.32649 4.3968C7.07849 4.3296 24.8225 2.9728 37.9553 16.5568C39.3537 18.0032 40.5761 19.3376 41.6513 20.5696L52.2433 20.1408C52.6396 20.1243 53.0312 20.2312 53.3642 20.4467C53.6972 20.6622 53.9552 20.9757 54.1025 21.344L59.6801 35.2544C59.9425 35.9072 59.8241 36.6528 59.3761 37.1936C59.196 37.4111 58.9701 37.5861 58.7145 37.7061C58.459 37.8261 58.18 37.8882 57.8977 37.888C57.7761 37.888 57.6513 37.8752 57.5265 37.8528L48.2945 36.032L35.8497 48.4768L37.5745 57.216C37.7121 57.9072 37.4593 58.6176 36.9153 59.0656C36.5665 59.3568 36.1313 59.5072 35.6897 59.5072C35.4497 59.5072 35.2065 59.4624 34.9761 59.3696L21.0657 53.792C20.6973 53.6448 20.3837 53.3869 20.1682 53.0539C19.9527 52.7209 19.8458 52.3291 19.8625 51.9328L20.2881 41.4752C16.5665 38.3072 12.7905 34.144 10.1089 28.8736C2.89929 14.7104 4.53769 6.272 4.61129 5.92ZM51.0465 24.032L44.7137 24.288C44.7969 24.3968 44.8737 24.5024 44.9569 24.608C44.9601 24.6112 44.9601 24.6144 44.9633 24.6176C45.4849 25.3056 45.9457 25.9488 46.3553 26.544C46.3937 26.6016 46.4321 26.6592 46.4705 26.7136C46.5441 26.8192 46.6145 26.9248 46.6849 27.0304C46.7393 27.1136 46.7937 27.1936 46.8481 27.2736C46.9025 27.3536 46.9569 27.4368 47.0081 27.5168C47.1105 27.6768 47.2097 27.8304 47.3057 27.9808L47.3729 28.0864C47.4561 28.2176 47.5329 28.3456 47.6097 28.4704L47.6673 28.5664C47.7505 28.7072 47.8337 28.8416 47.9105 28.976C47.9169 28.9856 47.9233 28.9952 47.9265 29.0048C48.6497 30.2432 49.0881 31.168 49.3889 31.8112C49.4561 31.9552 49.5233 32.096 49.5809 32.2144C49.5841 32.2208 49.5873 32.2272 49.5905 32.2304C49.6193 32.2848 49.6417 32.336 49.6673 32.3808L54.8065 33.3952L51.0465 24.032ZM23.7569 50.7328L33.1265 54.4896L32.0513 49.0304C30.4801 48.3072 27.4593 46.784 24.0193 44.3616L23.7569 50.7328ZM13.5297 27.1328C19.0081 37.8944 29.9201 43.7664 33.4561 45.4432L45.7601 33.1392C45.6929 32.9952 45.6193 32.8448 45.5393 32.6816L45.5105 32.624C45.4785 32.5568 45.4433 32.4896 45.4081 32.4192C44.7201 31.0624 43.5329 28.9984 41.2065 26.0384C41.1649 25.984 41.1233 25.9328 41.0785 25.8784C40.9665 25.7376 40.8545 25.5968 40.7393 25.4528C40.5665 25.2416 40.3905 25.024 40.2081 24.8032C40.1473 24.7296 40.0865 24.656 40.0257 24.5856C39.8049 24.3232 39.5809 24.0544 39.3441 23.7792L39.3409 23.776C38.1793 22.416 36.8065 20.9056 35.1905 19.232C25.5137 9.2288 12.6945 8.2176 8.24649 8.1888C8.18249 10.9856 8.67849 17.6 13.5297 27.1328Z" fill="#BD2828"/>
</svg>
