<svg width="32" height="32" viewBox="0 0 32 32" fill="none" xmlns="http://www.w3.org/2000/svg">
<path d="M26.6602 11.6848V5.75008C26.6602 3.48928 24.8205 1.64992 22.5601 1.64992H9.44007C7.17927 1.64992 5.33991 3.48928 5.33991 5.75008V11.6845C3.22023 11.9296 1.56775 13.7338 1.56775 15.919V26.0858C1.56775 28.4384 3.48071 30.3501 5.83175 30.3501H26.1677C28.5194 30.3501 30.4321 28.4381 30.4321 26.0858V15.919C30.4324 13.7338 28.7802 11.9299 26.6602 11.6848ZM6.98023 5.75008C6.98023 4.3936 8.08327 3.29024 9.44039 3.29024H22.5604C23.9169 3.29024 25.0205 4.3936 25.0205 5.75008V17.9766L16.5533 22.9792C16.3839 23.0793 16.1909 23.1326 15.9941 23.1336C15.7973 23.1346 15.6038 23.0833 15.4333 22.985L6.98023 18.1107V5.75008ZM3.53607 15.919C3.53607 14.8214 4.30983 13.9027 5.34023 13.6768V17.1648L3.53607 16.1245V15.919ZM28.4641 26.0858C28.4641 27.3526 27.4343 28.383 26.1677 28.383H5.83175C4.56583 28.383 3.53575 27.3526 3.53575 26.0858V18.0189L14.6138 24.4067C15.0363 24.6495 15.5156 24.776 16.0029 24.7734C16.4901 24.7708 16.968 24.6392 17.3879 24.392L28.4641 17.8474V26.0858ZM28.4641 15.9421L26.6599 17.008V13.6768C27.6903 13.903 28.4641 14.8214 28.4641 15.919V15.9421ZM14.3597 8.86624H20.9197C21.1344 8.862 21.3389 8.77374 21.4892 8.62042C21.6395 8.46711 21.7237 8.26095 21.7237 8.04624C21.7237 7.83152 21.6395 7.62537 21.4892 7.47205C21.3389 7.31874 21.1344 7.23048 20.9197 7.22624H14.3597C14.1451 7.23048 13.9406 7.31874 13.7903 7.47205C13.64 7.62537 13.5558 7.83152 13.5558 8.04624C13.5558 8.26095 13.64 8.46711 13.7903 8.62042C13.9406 8.77374 14.1451 8.862 14.3597 8.86624ZM11.0801 12.8019H20.9197C21.1333 12.796 21.3361 12.7069 21.485 12.5538C21.634 12.4006 21.7173 12.1954 21.7173 11.9818C21.7173 11.7681 21.634 11.5629 21.485 11.4097C21.3361 11.2566 21.1333 11.1676 20.9197 11.1616H11.0801C10.8625 11.1616 10.6539 11.248 10.5001 11.4018C10.3463 11.5556 10.2599 11.7642 10.2599 11.9818C10.2599 12.1993 10.3463 12.4079 10.5001 12.5617C10.6539 12.7155 10.8625 12.8019 11.0801 12.8019ZM21.7402 15.919C21.7403 15.8113 21.7191 15.7046 21.6779 15.6051C21.6367 15.5055 21.5763 15.4151 21.5001 15.3389C21.424 15.2627 21.3335 15.2023 21.234 15.161C21.1345 15.1198 21.0278 15.0986 20.9201 15.0986H11.0801C10.9711 15.0964 10.8627 15.116 10.7614 15.1562C10.6601 15.1965 10.5678 15.2565 10.4899 15.3328C10.4121 15.4092 10.3502 15.5002 10.308 15.6008C10.2658 15.7013 10.244 15.8092 10.244 15.9182C10.244 16.0273 10.2658 16.1352 10.308 16.2357C10.3502 16.3362 10.4121 16.4273 10.4899 16.5037C10.5678 16.58 10.6601 16.64 10.7614 16.6802C10.8627 16.7205 10.9711 16.7401 11.0801 16.7379H20.9197C21.1371 16.7379 21.3455 16.6517 21.4994 16.4982C21.6532 16.3446 21.7398 16.1364 21.7402 15.919Z" fill="#BD2828"/>
</svg>
