<svg width="64" height="64" viewBox="0 0 64 64" fill="none" xmlns="http://www.w3.org/2000/svg">
<path d="M32.227 59.68C31.9872 59.6798 31.7498 59.6308 31.5294 59.536L2.11825 47.0176C1.79683 46.8801 1.52286 46.6512 1.33033 46.3593C1.13779 46.0675 1.03516 45.7256 1.03516 45.376C1.03516 45.0264 1.13779 44.6845 1.33033 44.3926C1.52286 44.1008 1.79683 43.8719 2.11825 43.7344L16.8158 37.4816C17.0314 37.39 17.2629 37.3417 17.4972 37.3396C17.7314 37.3375 17.9637 37.3815 18.181 37.4691C18.3982 37.5568 18.596 37.6864 18.7631 37.8505C18.9303 38.0146 19.0634 38.21 19.1551 38.4256C19.2467 38.6412 19.2949 38.8727 19.2971 39.1069C19.2992 39.3411 19.2552 39.5735 19.1675 39.7907C19.0799 40.0079 18.9503 40.2057 18.7862 40.3729C18.6221 40.54 18.4266 40.6732 18.2111 40.7648L7.35985 45.376L32.2143 55.9552L57.0686 45.376L46.2302 40.7648C46.0058 40.6792 45.801 40.5491 45.628 40.3825C45.455 40.2158 45.3174 40.0159 45.2234 39.7948C45.1295 39.5738 45.0811 39.336 45.0812 39.0958C45.0813 38.8555 45.1299 38.6178 45.224 38.3968C45.3181 38.1758 45.4559 37.9761 45.629 37.8095C45.8022 37.643 46.0071 37.5131 46.2317 37.4277C46.4562 37.3423 46.6956 37.303 46.9356 37.3122C47.1757 37.3215 47.4114 37.3791 47.6286 37.4816L62.323 43.7344C62.6456 43.8708 62.9209 44.0993 63.1144 44.3913C63.3079 44.6832 63.4111 45.0257 63.4111 45.376C63.4111 45.7263 63.3079 46.0688 63.1144 46.3607C62.9209 46.6527 62.6456 46.8812 62.323 47.0176L32.915 59.536C32.6976 59.6294 32.4637 59.6784 32.227 59.68Z" fill="#BD2828"/>
<path d="M32.227 47.168C31.9875 47.1673 31.7505 47.1195 31.5294 47.0272L2.11825 34.5088C1.79683 34.3713 1.52286 34.1424 1.33033 33.8506C1.13779 33.5587 1.03516 33.2168 1.03516 32.8672C1.03516 32.5176 1.13779 32.1757 1.33033 31.8838C1.52286 31.592 1.79683 31.3631 2.11825 31.2256L16.8158 24.96C17.2529 24.775 17.7456 24.7712 18.1855 24.9494C18.6254 25.1276 18.9764 25.4733 19.1614 25.9104C19.3465 26.3475 19.3503 26.8402 19.172 27.28C18.9938 27.7199 18.6481 28.071 18.2111 28.256L7.35985 32.8672L32.2143 43.4464L57.0686 32.8672L46.243 28.256C46.0266 28.1642 45.8304 28.0306 45.6656 27.863C45.5008 27.6953 45.3706 27.4969 45.2825 27.2789C45.1046 26.8387 45.1088 26.3459 45.2942 25.9088C45.3861 25.6924 45.5196 25.4962 45.6873 25.3314C45.8549 25.1666 46.0534 25.0364 46.2713 24.9483C46.7115 24.7703 47.2044 24.7746 47.6414 24.96L62.3358 31.2256C62.6584 31.362 62.9337 31.5905 63.1272 31.8825C63.3207 32.1744 63.4239 32.5169 63.4239 32.8672C63.4239 33.2175 63.3207 33.56 63.1272 33.8519C62.9337 34.1439 62.6584 34.3724 62.3358 34.5088L32.9279 47.04C32.7049 47.1282 32.4668 47.1717 32.227 47.168Z" fill="#BD2828"/>
<path d="M32.227 34.6592C31.9875 34.6585 31.7505 34.6107 31.5294 34.5184L2.11825 22C1.79683 21.8625 1.52286 21.6336 1.33033 21.3418C1.13779 21.0499 1.03516 20.708 1.03516 20.3584C1.03516 20.0088 1.13779 19.6669 1.33033 19.3751C1.52286 19.0832 1.79683 18.8544 2.11825 18.7168L31.5294 6.20161C31.7503 6.10661 31.9882 6.05762 32.2287 6.05762C32.4691 6.05762 32.707 6.10661 32.9279 6.20161L62.3358 18.7168C62.6584 18.8533 62.9337 19.0817 63.1272 19.3737C63.3207 19.6656 63.4239 20.0081 63.4239 20.3584C63.4239 20.7087 63.3207 21.0512 63.1272 21.3431C62.9337 21.6351 62.6584 21.8636 62.3358 22L32.9279 34.5184C32.7058 34.611 32.4676 34.6589 32.227 34.6592ZM7.35985 20.3584L32.2143 30.9376L57.0686 20.3584L32.2143 9.79841L7.35985 20.3584Z" fill="#BD2828"/>
</svg>
