<svg width="32" height="32" viewBox="0 0 32 32" fill="none" xmlns="http://www.w3.org/2000/svg">
<path d="M29.5196 22.8652C29.3665 22.1029 29.0259 21.3907 28.5286 20.7929L23.7115 15.0125C23.2741 14.4863 22.7261 14.063 22.1064 13.7727C21.4868 13.4825 20.8108 13.3325 20.1265 13.3333H11.8736C11.1893 13.3325 10.5133 13.4825 9.89364 13.7727C9.27399 14.063 8.72596 14.4863 8.28858 15.0125L3.4715 20.7929C2.97419 21.3907 2.63359 22.1029 2.48046 22.8652L1.82483 26.1438C1.74747 26.5306 1.75691 26.9298 1.85247 27.3126C1.94804 27.6954 2.12734 28.0522 2.37747 28.3573C2.62759 28.6624 2.94229 28.9082 3.29889 29.077C3.65549 29.2458 4.0451 29.3333 4.43962 29.3333H27.5605C27.955 29.3333 28.3446 29.2458 28.7012 29.077C29.0578 28.9082 29.3725 28.6624 29.6226 28.3573C29.8727 28.0522 30.052 27.6954 30.1476 27.3126C30.2432 26.9298 30.2526 26.5306 30.1752 26.1438L29.5196 22.8652ZM28.5915 27.511C28.4668 27.664 28.3095 27.7873 28.1311 27.8719C27.9528 27.9564 27.7578 28.0002 27.5605 28H4.43962C4.24235 28 4.04754 27.9562 3.86923 27.8719C3.69091 27.7875 3.53355 27.6646 3.40847 27.512C3.2834 27.3595 3.19374 27.1811 3.14595 26.9897C3.09816 26.7983 3.09344 26.5987 3.13212 26.4052L3.78796 23.1267C3.89763 22.5825 4.14107 22.0741 4.49629 21.6475L9.31254 15.866C9.62499 15.4901 10.0165 15.1878 10.4592 14.9805C10.9018 14.7731 11.3848 14.666 11.8736 14.6667H20.1265C20.6153 14.666 21.0982 14.7731 21.5409 14.9805C21.9836 15.1878 22.3751 15.4901 22.6875 15.866L27.5044 21.6458C27.8596 22.0725 28.1031 22.5808 28.2127 23.125L28.8686 26.4035C28.9078 26.5973 28.9032 26.7973 28.8553 26.9891C28.8074 27.1809 28.7172 27.3596 28.5915 27.5121V27.511ZM19.6875 17.1004C18.6938 16.3908 17.3844 16 16 16C14.6157 16 13.3063 16.3908 12.3125 17.1004C11.808 17.4608 11.4088 17.8856 11.1263 18.3629C10.8213 18.8781 10.6667 19.4288 10.6667 20C10.6667 20.5713 10.8213 21.1219 11.1265 21.6371C11.409 22.1144 11.8082 22.5392 12.3127 22.8996C13.3063 23.6092 14.6157 24 16 24C17.3844 24 18.6938 23.6092 19.6875 22.8996C20.1921 22.5392 20.5913 22.1144 20.8738 21.6371C21.179 21.1219 21.3336 20.5713 21.3336 20C21.3336 19.4288 21.179 18.8781 20.8738 18.3629C20.5911 17.8856 20.1919 17.4608 19.6875 17.1004ZM18.9125 21.8146C18.1432 22.364 17.1088 22.6667 16 22.6667C14.8913 22.6667 13.8569 22.364 13.0877 21.8146C12.3863 21.3146 12 20.6688 12 20C12 19.3313 12.3863 18.6875 13.0877 18.1854C13.8569 17.636 14.8913 17.3333 16 17.3333C17.1088 17.3333 18.1432 17.636 18.9123 18.1854C19.6138 18.6875 20 19.3308 20 20C20 20.6692 19.6138 21.3135 18.9123 21.8146H18.9125ZM26.1863 4.68396C23.4542 3.38313 19.8367 2.66667 16 2.66667C12.1634 2.66667 8.54587 3.38313 5.814 4.68396C2.92462 6.06 1.33337 7.94792 1.33337 10V11.6667C1.33387 12.1085 1.50962 12.5322 1.82208 12.8446C2.13453 13.1571 2.55817 13.3328 3.00004 13.3333H9.00004C9.44192 13.3328 9.86555 13.1571 10.178 12.8446C10.4905 12.5322 10.6662 12.1085 10.6667 11.6667V10C10.6667 9.58583 11.1875 9.09688 12.0282 8.72354C13.078 8.25688 14.4886 8 16 8C17.5115 8 18.9221 8.25688 19.9719 8.72354C20.8125 9.09688 21.3334 9.58583 21.3334 10V11.6667C21.3339 12.1085 21.5096 12.5322 21.8221 12.8446C22.1345 13.1571 22.5582 13.3328 23 13.3333H29C29.4419 13.3328 29.8656 13.1571 30.178 12.8446C30.4905 12.5322 30.6662 12.1085 30.6667 11.6667V10C30.6667 7.94792 29.0755 6.06 26.1861 4.68396H26.1863ZM29.3334 11.6667C29.3334 11.7551 29.2983 11.8399 29.2357 11.9024C29.1732 11.9649 29.0884 12 29 12H23C22.9116 12 22.8268 11.9649 22.7643 11.9024C22.7018 11.8399 22.6667 11.7551 22.6667 11.6667V10C22.6667 9.00833 21.9019 8.12229 20.5134 7.50521C19.2969 6.96438 17.694 6.66667 16 6.66667C14.3061 6.66667 12.7032 6.96438 11.4867 7.50521C10.0982 8.12229 9.33337 9.00833 9.33337 10V11.6667C9.33337 11.7551 9.29825 11.8399 9.23574 11.9024C9.17323 11.9649 9.08845 12 9.00004 12H3.00004C2.91164 12 2.82685 11.9649 2.76434 11.9024C2.70183 11.8399 2.66671 11.7551 2.66671 11.6667V10C2.66671 9.26813 2.98025 8.54396 3.59858 7.84771C4.24442 7.12104 5.18192 6.46146 6.38712 5.88792C8.94379 4.67042 12.3577 4 16 4C19.6423 4 23.0563 4.67042 25.613 5.88792C26.8177 6.46146 27.7559 7.12104 28.4015 7.84771C29.0209 8.54396 29.3334 9.26813 29.3334 10V11.6667Z" fill="#BD2828"/>
</svg>
