<?xml version="1.0" encoding="UTF-8"?>
<svg width="14px" height="13px" viewBox="0 0 14 13" version="1.1" xmlns="http://www.w3.org/2000/svg" xmlns:xlink="http://www.w3.org/1999/xlink">
    <g id="页面-1" stroke="none" stroke-width="1" fill="none" fill-rule="evenodd">
        <g id="二次校验提示" transform="translate(-1234.000000, -242.000000)">
            <g id="ercijiaoyan" transform="translate(1234.750000, 242.250000)">
                <circle id="椭圆形" fill="#2C65FF" cx="6.25" cy="6.25" r="6.25"></circle>
                <g id="xinxixiaoyan" transform="translate(3.572693, 3.572693)" fill="#FFFFFF" fill-rule="nonzero">
                    <path d="M5.23291875,3.40748198 C5.30012948,3.40748198 5.35461454,3.46196704 5.35461454,3.52917776 L5.35461454,5.23291875 C5.35463413,5.29169594 5.31264116,5.34208751 5.25482399,5.3526674 L5.23291875,5.35461453 L3.52917776,5.35461453 C3.46196704,5.35461453 3.40748198,5.30012948 3.40748198,5.23291875 L3.40748198,4.98952718 C3.40748198,4.95725145 3.42030346,4.92629765 3.44312585,4.90347527 C3.46594823,4.88065288 3.49690203,4.8678314 3.52917776,4.8678314 L4.8678314,4.8678314 L4.8678314,3.52917776 C4.8678314,3.49690203 4.88065288,3.46594823 4.90347527,3.44312585 C4.92629765,3.42030346 4.95725145,3.40748198 4.98952718,3.40748198 L5.23291875,3.40748198 L5.23291875,3.40748198 Z M0.365087355,3.40748198 C0.43229808,3.40748198 0.486783138,3.46196704 0.486783138,3.52917776 L0.486783138,4.8678314 L1.82543677,4.8678314 C1.8577125,4.8678314 1.8886663,4.88065288 1.91148869,4.90347527 C1.93431107,4.92629765 1.94713256,4.95725145 1.94713256,4.98952718 L1.94713256,5.23291875 C1.94713256,5.30012948 1.8926475,5.35461453 1.82543677,5.35461453 L0.121695783,5.35461453 C0.054485058,5.35461453 0,5.30012948 0,5.23291875 L0,3.52917776 C0,3.46196704 0.054485058,3.40748198 0.121695783,3.40748198 L0.365087355,3.40748198 Z M1.82543677,0 C1.8926475,0 1.94713256,0.054485058 1.94713256,0.121695783 L1.94713256,0.365087355 C1.94713256,0.43229808 1.8926475,0.486783138 1.82543677,0.486783138 L0.486783138,0.486783138 L0.486783138,1.82543677 C0.486783138,1.8926475 0.43229808,1.94713256 0.365087355,1.94713256 L0.121695783,1.94713256 C0.054485058,1.94713256 0,1.8926475 0,1.82543677 L0,0.121695783 C0,0.054485058 0.054485058,0 0.121695783,0 L1.82543677,0 L1.82543677,0 Z M5.23291875,0 C5.30012948,0 5.35461453,0.054485058 5.35461453,0.121695783 L5.35461453,1.82543677 C5.35461453,1.8577125 5.34179305,1.8886663 5.31897067,1.91148869 C5.29614828,1.93431107 5.26519448,1.94713256 5.23291875,1.94713256 L4.98952718,1.94713256 C4.92231645,1.94713256 4.8678314,1.8926475 4.8678314,1.82543677 L4.8678314,0.486783138 L3.52917776,0.486783138 C3.49690203,0.486783138 3.46594823,0.473961655 3.44312585,0.451139268 C3.42030346,0.428316882 3.40748198,0.397363083 3.40748198,0.365087355 L3.40748198,0.121695783 C3.40748198,0.0894200547 3.42030346,0.058466256 3.44312585,0.0356438696 C3.46594823,0.0128214832 3.49690203,0 3.52917776,0 L5.23291875,0 L5.23291875,0 Z" id="形状"></path>
                </g>
                <text id="2" font-family="FZCCHJW--GB1-0, FZChaoCuHei-M10S" font-size="4" font-weight="normal" fill="#FFFFFF">
                    <tspan x="4.75" y="7.57269273">2</tspan>
                </text>
            </g>
        </g>
    </g>
</svg>
