<?xml version="1.0" standalone="no"?><!DOCTYPE svg PUBLIC "-//W3C//DTD SVG 1.1//EN" "http://www.w3.org/Graphics/SVG/1.1/DTD/svg11.dtd"><svg t="1628754065003" class="icon" viewBox="0 0 1050 1024" version="1.1" xmlns="http://www.w3.org/2000/svg" p-id="4735" xmlns:xlink="http://www.w3.org/1999/xlink" width="205.078125" height="200"><defs><style type="text/css"></style></defs><path d="M533.398974 804.050051c5.12 0 10.345026-0.315077 15.543795-0.866461 50.202256-5.828923 92.842667-39.752205 108.544-86.514872a7.089231 7.089231 0 0 0-3.990974-8.743385 7.614359 7.614359 0 0 0-9.452308 2.914462c-0.236308 0.262564-20.191179 31.402667-97.778872 41.537641a261.645128 261.645128 0 0 1-33.686974 2.33682c-54.403282 0-78.664205-19.849846-78.848-20.059897a7.640615 7.640615 0 0 0-9.714872-0.105026 7.089231 7.089231 0 0 0-1.549128 9.321026 132.437333 132.437333 0 0 0 110.933333 60.179692z m417.50318-465.158564c-0.708923 0-1.312821 0.131282-1.969231 0.131282C903.456821 148.611282 729.613128 6.564103 521.216 6.564103 307.016205 6.564103 129.129026 156.488205 89.718154 354.724103 51.462564 361.419487 22.317949 393.977436 22.317949 433.335795v157.617231c0 44.189538 36.627692 79.977026 81.92 79.977025 25.521231 0 47.996718-11.63159 62.989128-29.512205 36.233846 92.580103 109.909333 167.200821 203.224615 206.585436a42.535385 42.535385 0 0 1 4.148513-6.43282c1.444103-1.837949 3.072-3.334564 4.489846-3.334565a7.089231 7.089231 0 0 1 3.938462 1.260308c-21.556513-15.491282-99.564308-95.363282-116.473436-206.848-7.404308-49.099487 30.641231-97.253744 74.909538-105.209436 71.049846-12.760615 141.784615-27.332923 212.834462-39.909743 45.161026-7.955692 76.064821-31.901538 94.969436-71.811282 4.411077-9.321026 10.765128-28.173128 13.732102-55.37477a8.717128 8.717128 0 0 1 8.585847-7.141743 8.927179 8.927179 0 0 1 7.08923 3.544615l1.942975-1.207795c28.01559 39.358359 83.574154 126.372103 91.582359 218.19077 9.110974 104.973128 4.043487 176.78441-79.084308 250.328615a6.327795 6.327795 0 0 0 0.866461 10.187487l2.021744 0.892718c0.603897 0.157538 1.129026 0.315077 1.68041 0.315077 0.603897 0 1.050256-0.157538 1.575385-0.315077l3.413333-1.864205c84.099282-44.767179 148.532513-119.545436 178.307282-209.394872a84.414359 84.414359 0 0 0 52.880411 34.133333c-35.157333 154.650256-177.887179 251.483897-354.645334 266.187488a72.441436 72.441436 0 0 0-67.373948-43.480616c-39.962256 0-72.415179 30.614974-72.41518 68.397949 0 37.730462 32.452923 68.319179 72.41518 68.319179 32.321641 0 59.339487-20.007385 68.686769-47.550359 204.616205-16.068923 368.745026-133.671385 402.983384-316.389743 30.221128-12.235487 51.488821-40.907487 51.488821-74.436923v-159.37641c0-44.583385-37.625436-80.764718-84.073026-80.764718v-0.026257z m-75.460923 45.817436c-53.379282-139.789128-191.724308-239.616-354.461539-239.616-162.002051 0-299.848205 99.012923-353.726359 237.856821-2.625641-3.150769-5.828923-5.881436-8.874666-8.612103C188.888615 205.115077 339.521641 76.458667 521.189744 76.458667c180.827897 0 330.962051 127.396103 362.443487 295.437128a81.237333 81.237333 0 0 0-8.244513 12.813128h0.052513z" fill="#2C65FF" p-id="4736"></path></svg>