<?xml version="1.0" standalone="no"?><!DOCTYPE svg PUBLIC "-//W3C//DTD SVG 1.1//EN" "http://www.w3.org/Graphics/SVG/1.1/DTD/svg11.dtd"><svg t="1628754027172" class="icon" viewBox="0 0 1066 1024" version="1.1" xmlns="http://www.w3.org/2000/svg" p-id="3968" xmlns:xlink="http://www.w3.org/1999/xlink" width="208.203125" height="200"><defs><style type="text/css"></style></defs><path d="M848.460918 687.609078h-23.313528V317.356029c0-136.037661-103.437999-248.004316-236.529907-262.817243V29.752382A29.850293 29.850293 0 0 0 558.626915 0.000281a29.850293 29.850293 0 0 0-29.976539 29.752101v24.786404c-133.105936 14.7989-236.543935 126.779582-236.543935 262.817243v370.253049h-23.327556a29.850293 29.850293 0 0 0-29.976539 29.738075c0 16.454132 13.410188 29.766129 29.976539 29.766128H498.673836v39.669469c0 32.88021 26.820376 59.504203 59.967107 59.504203 33.146731 0 59.967107-26.623993 59.967107-59.504203V747.099254h229.880923a29.850293 29.850293 0 0 0 29.97654-29.752101 29.850293 29.850293 0 0 0-29.990567-29.752102z m-83.280634 0h-413.106737V317.356029c0-113.22912 92.440523-204.954245 206.553368-204.954245 114.098818 0 206.553368 91.739153 206.553369 204.954245v370.253049z" fill="#A3B1BF" fill-opacity=".4" p-id="3969"></path><path d="M997.852658 224.606904v-16.832872a17.05731 17.05731 0 0 1 24.632103-15.289859l16.973146 8.416436a17.05731 17.05731 0 0 1 0 30.56569l-16.973146 8.416436a17.05731 17.05731 0 0 1-24.632103-15.275831z" fill="#A3B1BF" fill-opacity=".4" p-id="3970"></path><path d="M997.852658 631.247012c5.190136 0 9.398354 4.208218 9.398354 9.398353v22.275501h23.846569a9.398354 9.398354 0 1 1 0 18.796707h-23.846569v25.417637a9.398354 9.398354 0 1 1-18.796707 0l-0.014028-25.403609h-23.832541a9.398354 9.398354 0 1 1 0-18.810735h23.832541V640.631338c0-5.190136 4.208218-9.398354 9.412381-9.398354zM42.643276 487.382065c5.190136 0 9.398354 4.208218 9.398354 9.398353v22.261474h23.846568a9.398354 9.398354 0 1 1 0 18.810734h-23.846568v25.417637a9.398354 9.398354 0 0 1-18.796708 0l-0.014027-25.417637H9.398354a9.398354 9.398354 0 1 1 0-18.796707H33.244922v-22.275501c0-5.190136 4.208218-9.398354 9.412381-9.398353z" fill="#A3B1BF" fill-opacity=".4" p-id="3971"></path><path d="M289.974277 998.610418a272.916966 25.389582 0 1 0 545.833932 0 272.916966 25.389582 0 1 0-545.833932 0Z" fill="#A3B1BF" fill-opacity=".25" p-id="3972"></path></svg>