<?xml version="1.0" encoding="UTF-8"?>
<svg width="26px" height="25px" viewBox="0 0 26 25" version="1.1" xmlns="http://www.w3.org/2000/svg" xmlns:xlink="http://www.w3.org/1999/xlink">
    <title>apache_hive-icon</title>
    <g id="页面-1" stroke="none" stroke-width="1" fill="none" fill-rule="evenodd">
        <g id="apache_hive-icon" transform="translate(1.000000, 1.000000)">
            <rect id="矩形" x="0" y="0" width="24" height="24"></rect>
            <g id="形状" fill-rule="nonzero">
                <path d="M13.7335983,3.26878011 C13.5233909,2.69234766 6.28297348,-0.122384403 6.19070061,0.186647816 C4.86120687,0.533217076 4.32012749,2.06557463 3.40558868,3.03618695 L1.37468463,2.91989038 C0.480074576,4.0703529 0.0106022197,5.24582192 0.330254009,6.46748197 C1.47689458,8.02099677 2.80797169,9.34295579 3.63760854,11.2940629 C3.70318234,12.2138433 7.61844584,11.3905126 8.45763757,11.2084512 C7.31127,12.0290791 6.31297581,13.3009706 6.74196276,16.9643127 C7.13360377,18.6845739 7.40152269,20.6052692 10.8751322,22.5509164 C11.3324016,22.8070419 12.2785261,23.1025607 12.8635853,23.3179824 C13.4230919,23.5745993 14.0773284,23.6800852 15.9230588,23.1156373 C16.991131,22.655283 18.1442962,22.3779457 19.1894639,21.9187107 L17.9332151,21.977678 C16.2032353,22.0153515 14.8674627,22.1443698 14.4557837,21.6610019 L12.8636672,18.9124715 L13.7918558,17.1096016 C15.0764689,17.2413498 15.5028624,18.283105 16.635116,18.6798238 L17.9696602,17.6911664 C21.8462128,19.9793152 23.3880979,16.2410081 23.8300795,13.3294987 C23.7829057,12.1449116 21.2652213,13.7007742 21.4178264,13.1471369 C21.4769575,11.8737713 20.4390242,10.2077819 19.7683806,8.90968279 L20.5445101,5.90671953 C20.8966758,5.59277337 18.914174,2.25238624 17.2953038,1.83579334 C15.8749022,1.46997782 13.7337894,3.26880741 13.7337894,3.26880741 L13.7335983,3.26878011 Z" id="路径" fill="#FDEE21"></path>
                <g id="编组" transform="translate(15.893625, 9.651306)" fill="#C8C037">
                    <path d="M4.2078938,8.1898998e-05 C4.22154363,0.322654752 4.22023325,0.714978252 4.25140946,0.959665159 C4.24603143,1.14634027 4.10609334,1.15349279 3.99031546,1.19225831 L4.74460523,1.46853093 C4.8943712,1.72050685 5.01470812,1.97256467 5.13627354,2.22456788 C5.27727631,2.8444887 5.1717631,2.86220618 5.07826175,2.90787852 C4.804528,2.91066309 4.53158594,2.91115448 4.27679815,2.85699195 C4.39091076,2.91724231 4.41602645,2.96114017 4.4281202,3.03831633 C4.45039673,3.18060219 4.35877905,3.37492121 4.2078938,3.56214232 C4.43098667,3.685919 4.83769709,3.80702032 5.13990439,3.92195192 L5.48442618,3.1550224 C5.32840859,2.02836518 4.85530538,0.990158886 4.2078938,0 L4.2078938,8.1898998e-05 Z M5.61573757,3.77917466 C6.03407765,3.95353763 6.61203888,3.90243265 7.41336598,3.48944331 C7.53252902,3.40470514 7.64350216,3.45531873 7.43029177,3.59476542 C6.37925463,4.53788698 5.87620368,4.06609415 5.61576487,3.77917466 L5.61573757,3.77917466 Z" id="形状"></path>
                    <path d="M7.4936816,3.36585772 C7.61794967,3.60380161 7.5426572,3.79732894 7.50094331,3.99830908 C7.37118799,5.02068157 7.05260089,5.82891548 6.42752044,6.67351255 C4.39429592,9.94237456 2.34157943,7.89700168 0.704964453,6.56578807 L0.027987336,8.26210742 C-0.00793902446,8.4107814 -0.157650393,8.52658658 0.899856769,8.99204588 L1.97688319,8.23128609 C6.08439094,11.3565519 8.99508133,3.85678761 7.4935997,3.36593962 L7.4936816,3.36585772 Z M1.20028959,6.28692198 C0.923197983,6.30668694 0.0984750736,6.58713641 0.0617297232,6.74954212 L0.44124968,6.18411144 L1.20028959,6.28692198 Z M0.661394186,2.82068339 C0.712171565,2.82068339 0.955902983,2.88612069 0.929749903,2.87156997 C0.892349361,2.85074032 0.925573054,3.21336179 1.00228512,3.40227547 L0.704909854,4.04927756 C1.27451739,3.3923657 2.17521527,3.43607246 3.01134944,3.3513889 L2.61244672,3.10421772 C2.68173327,2.87309875 2.60016187,2.69021829 2.56166934,2.49357879 L0.661394186,2.82068339 Z M2.06104806,0.872306228 C1.44989044,1.05966384 0.864885897,1.36574769 0.472125602,2.01823701 C0.771766736,0.942766666 0.832836089,0.983579666 0.929586105,0.930454516 C1.34863598,0.743042309 1.69184738,0.85985758 2.06104806,0.872306228 Z" id="形状"></path>
                </g>
                <path d="M14.6909976,23.1292325 C13.9519957,23.9446735 12.3030958,23.0675353 10.9337446,22.6203667 C7.45412915,20.4077288 6.77436747,18.3247643 6.72686605,16.2813843 C6.54797134,13.3543141 7.44675824,11.6535449 8.58362553,11.2508748 C7.83124674,12.7013061 7.48071902,15.3048752 7.82933576,17.2409676 C8.11093181,18.3180759 8.11680124,20.1347322 9.91898869,21.1071463 C10.801505,21.6040002 10.5624418,21.9907818 11.1592125,22.4561047 C11.813176,22.9660624 13.6365753,23.4508226 14.6906973,23.1292598 L14.6909976,23.1292325 Z M15.7949961,9.60224802 C14.5438524,7.82776973 12.7838429,7.16201277 10.7997032,7.08923187 C11.1974048,6.95955845 11.5951063,6.89207368 11.9928078,6.70032082 C12.0901857,6.59800168 12.058327,6.41793308 12.0218274,6.23507992 C10.1116697,5.73631502 8.90611649,5.11988856 7.38006516,4.54850655 L11.4995848,5.53716395 C14.2814207,5.64286826 14.042767,6.32972786 15.7949961,9.60208422 L15.7949961,9.60224802 Z M17.1345907,8.74640349 C16.209951,7.42646464 15.313157,5.82452024 14.0961379,4.8056967 C11.1576018,3.47936973 8.2507334,2.49434318 4.84428108,1.59798595 L5.93154488,0.199806255 C9.54656665,1.02499326 12.9420991,2.40583767 15.9832819,4.68241141 C16.4978806,5.98351349 16.8410374,7.28633545 17.1345907,8.74651269 L17.1345907,8.74640349 Z M18.9986119,6.41392003 C18.9986119,6.41392003 18.4802458,5.25095426 18.2278604,4.80689789 C17.6423918,4.15809403 17.3460812,2.94904642 16.147271,2.37935699 C16.526518,2.48173074 16.7860832,2.35975583 17.5603017,3.06163024 L18.7797778,5.37484014 L18.9986119,6.41392003 Z M19.64343,8.42863538 C19.7630026,7.42105931 19.9899993,5.80513748 19.7294786,5.16632529 L17.5444406,2.25536191 C17.4235031,2.14280538 17.3364171,1.99000915 17.2414143,1.87087341 C18.2678817,2.13688136 19.3396666,2.85076762 20.784911,5.66907594 L19.64343,8.42863538 Z" fill="#FCF6A0"></path>
                <path d="M15.3268068,8.54766192 C14.9178578,8.22552586 14.5534073,7.08712979 13.9337049,6.85071468 C13.3604119,6.80272187 13.149795,6.62227108 12.3955325,6.7759136 C12.6690751,6.63886928 12.9273846,6.46344162 13.2181806,6.36955807 C13.4151477,6.32306674 13.5999119,6.37458121 13.7878428,6.40048859 C13.8342522,6.37853966 13.864664,6.35126729 13.8533074,6.3100448 C13.094049,5.84084544 11.5364939,5.83415702 10.4850746,5.56632 C11.7053696,5.6071603 13.0555019,5.53956632 13.9726069,5.83385672 C14.7100528,6.48831162 14.9496073,7.72080964 15.3268068,8.54785302 L15.3268068,8.54766192 Z M17.5626495,3.05789019 C17.7319074,3.0732599 18.6430065,4.51440927 18.6858123,4.75420953 C18.7615689,5.27841772 18.9484351,5.86607033 18.9986665,6.41457522 C18.8486002,5.88851066 18.6851025,5.36252799 18.4806826,4.83649073 C18.4206234,4.6916387 18.26982,4.36415191 17.8498693,3.90093117 C17.6543218,3.57442717 17.6123622,3.31781031 17.5626768,3.05789019 L17.5626495,3.05789019 Z M20.6502417,10.9071721 L20.2602114,10.9071721 L20.6910001,11.0202473 L20.6502417,10.9071721 Z M17.9907082,10.5181518 C17.5987396,10.4699679 17.196288,10.4635525 16.8045923,10.5497102 C16.6448347,10.7642856 16.6338329,10.9825737 16.5640004,11.184291 C17.0404888,10.6591546 17.2295663,10.6270502 17.9906809,10.5181791 L17.9907082,10.5181518 Z M23.3365288,13.2281897 C23.1181315,13.4022796 23.0966194,13.5661595 22.4516648,13.7624987 C21.9813461,13.8737176 21.7156658,13.6852407 21.4942655,13.431736 C21.8298876,13.5278854 21.8835587,13.7811717 22.7834922,13.4971733 L23.3365288,13.2281897 Z M21.3818727,13.3373883 C21.2248997,13.7690506 21.0556417,14.2055177 20.8850188,14.6095528 C20.4787179,15.0860411 20.6518797,14.8145186 20.0436431,15.5545853 C20.2382897,15.2543436 20.4913576,14.9658407 20.6238702,14.6531503 C20.7166891,14.4472562 20.8327946,14.2288316 20.8840906,14.0458966 C20.7228315,13.9653625 20.3926967,13.9590017 20.3479252,13.9878848 C19.8071734,14.3068268 19.7096044,14.6443598 19.3907989,14.9730205 C19.6218633,14.603656 19.8192126,14.2004946 20.0870769,13.8680392 C20.1175979,13.8249058 20.31593,13.8165521 20.4378776,13.7910542 C20.2484179,13.7582946 19.8977264,13.6904549 19.8694986,13.6935398 C19.5167323,13.7783052 19.3190554,14.085563 19.0571697,14.2896553 C19.2481036,14.0139832 19.423968,13.7269546 19.6664163,13.4899935 C19.6903854,13.4621478 20.3457139,13.5195317 20.6853491,13.6550745 L20.6920921,13.7902079 L20.8849096,13.8680119 L21.0299801,13.5045442 L21.3818727,13.3373883 Z M17.1026501,15.9398655 C17.0156188,15.9098358 16.2468056,15.8115571 16.2468056,15.8344888 C15.9516143,16.044587 15.9068428,16.2456217 15.9132037,16.4196844 C16.4045976,15.9365622 16.3860339,15.9351972 17.1027047,15.9398928 L17.1026501,15.9398655 Z M16.5184373,12.464618 C16.5184373,12.464618 17.0732211,12.3837291 17.0624104,12.4355439 C17.0222253,12.6280065 17.130332,13.0970967 17.1422073,13.0316594 L16.8303359,13.2860922 C17.4835077,12.9576773 18.1711044,13.0236879 18.8684198,12.9735111 C18.8684198,12.9735111 18.2812859,12.8114057 18.3171849,12.8063006 C18.4481687,12.7877368 18.2823233,12.1939691 18.237388,12.1811383 C18.3493167,12.1433282 18.4581604,12.1148001 18.5709899,12.0866268 C17.7313614,11.8669191 17.2458642,11.9963741 16.5183827,12.4646453 L16.5184373,12.464618 Z" fill="#000000"></path>
                <path d="M21.3201755,12.8790269 L21.1968629,12.9408061 C21.1793911,12.5796315 20.7914629,12.6061122 20.4643037,12.6027816 L20.195948,12.5373443 C20.277847,12.6128552 20.5298229,12.6069585 20.4280497,12.7699375 C20.3424107,12.815719 20.3030172,13.0120855 20.253987,13.1770301 L20.1089166,13.1842918 L20.8849915,13.4896113 L21.0515195,13.5150545 L21.4504222,13.3005884 L21.3201755,12.8790269 Z" id="路径" fill="#000000"></path>
                <path d="M17.6429105,12.6703835 C17.5804762,12.4986478 17.2663389,12.5230514 17.1986084,12.6341388 C17.1435723,12.7244661 17.195196,13.3036994 17.2657656,13.2060092 C17.3677845,13.0813348 17.5010341,13.0291499 17.6610648,13.0392453 C17.6812665,12.9322189 17.6740867,12.816653 17.6429378,12.6703456 L17.6429105,12.6703835 Z M20.6554286,13.5334267 C20.6849669,13.5030646 20.7474285,13.2129925 20.7272268,13.126081 C20.6859497,12.9210228 20.3938432,12.964175 20.3938432,12.964175 C20.3228641,13.0224702 20.2600749,13.3421833 20.2861461,13.4476917 C20.2985674,13.5369943 20.6082821,13.5654588 20.6554013,13.5334647 L20.6554286,13.5334267 Z" fill="#FFFFFF"></path>
                <path d="M8.16392047,20.4645121 L8.34846621,20.4825299 C9.44236382,21.0196508 11.2435958,21.8160367 13.8512599,21.3880598 L14.2604273,22.0318951 C13.1120122,22.5899549 11.8768388,22.4615373 10.7196606,22.500685 L8.16392047,20.4645121 Z M6.59337068,16.2183221 L7.14135688,18.5188103 C8.60844093,19.435888 11.1145503,20.4862973 13.2035207,20.4015318 L12.7421564,19.3423048 C8.3815807,18.4163001 8.01276222,17.2456904 6.59372558,16.218131 L6.59337068,16.2183221 Z M7.956989,11.5063997 C8.22452572,13.2891225 8.58234245,14.6404014 10.1327724,15.7727915 C11.08291,16.4561022 12.0260042,17.136519 13.1731362,17.6980732 C13.1731362,17.6980732 13.0725642,18.2214078 12.9885085,18.2121259 C9.57468531,17.8326605 7.07540088,15.0022312 6.77237459,13.709319 C7.065573,12.7175221 7.48626086,12.0980927 7.9571801,11.5063997 L7.956989,11.5063997 Z M9.59769892,10.4963121 C10.0526206,12.4721527 11.1373182,14.4733274 12.2157369,16.2887552 C12.6109542,16.7902501 12.7143926,17.0115139 13.3235573,17.3168606 C14.1469153,17.5775724 14.7291079,17.5110159 15.3267249,17.4718135 C15.1629815,17.1687326 15.0174197,16.8519473 14.8294069,16.5671026 C13.4912319,15.5088311 14.1096785,14.5452893 14.4651202,13.935251 C13.7210405,13.7472382 12.7351403,13.3476257 12.5993245,12.8220252 C12.3809272,11.122075 12.4918457,10.5827701 12.7104341,9.7098633 C11.7030765,9.9223093 10.682069,10.1328443 9.59827222,10.4966397 L9.59769892,10.4963121 Z" fill="#000000"></path>
                <path d="M5.90159715,0.00117388564 C5.5704522,0.217523739 5.2513737,0.526856254 4.9078893,0.878448652 C4.33888236,1.46743895 3.96059089,2.04196042 3.38142848,2.46794441 C3.265596,2.56786118 2.94053887,2.72865622 2.53186287,2.75254342 C2.33934563,2.76215291 2.21393096,2.79403892 1.86018189,2.74959506 C1.54820131,2.58066473 1.25180883,2.69051858 0.962568873,3.03624155 C0.645346754,3.49214597 0.243659468,4.35855547 0.0766128121,4.90353871 C-0.267362979,6.29410179 0.610048286,7.43981418 1.45180619,8.32282187 C2.20063603,9.05434372 2.63232564,9.51150393 2.93977448,10.1821202 C3.17255873,10.6170858 3.34501072,11.2140476 3.53171314,11.6325515 C3.59903412,11.7652279 3.58502939,11.7645454 3.76649027,11.8045394 C4.15777638,11.8880764 4.70054834,11.8887042 5.18375243,11.930227 C5.39281327,11.9331481 5.67992386,11.9253677 5.95196503,11.8970033 C6.32678944,11.8262153 6.76721495,11.7568742 7.13633374,11.6294666 C7.49704423,11.5406335 7.81841589,11.4176212 8.10811995,11.3044095 C8.07071941,11.4311891 7.79477438,11.5532459 7.69130865,11.7139591 C6.70933966,13.1198919 6.44035605,14.370435 6.61133386,16.3439824 C6.70802928,17.2187183 6.90879102,17.9438794 7.21170812,18.7735708 C7.35030852,19.1532546 7.64528141,19.754557 7.92794215,20.1539784 C8.76877187,21.3416777 10.6489545,22.8668554 13.2666648,23.453962 C13.7233882,23.5163964 14.2416724,23.4830908 14.7291079,23.3532809 C16.0210919,22.9616399 18.6542539,22.0353895 18.6542539,22.0353895 C18.6542539,22.0353895 16.3168565,22.228753 15.2464366,22.1229122 C14.9986102,22.0841467 14.725559,22.0710429 14.5528886,21.9021398 C14.523951,21.8647393 14.418738,21.6528393 14.4866596,21.6509283 C14.579342,21.6483348 14.8454318,21.5379077 15.2565102,21.5012715 C14.3793719,21.4068147 14.3919298,21.4079613 14.3278848,21.2482036 C14.2283229,21.0001862 14.0759088,20.6612062 13.9190177,20.3645953 C14.3044343,20.3973549 15.1577673,20.4450202 15.4473622,20.1461161 C15.4473622,20.1461161 14.9424002,20.2044282 14.4961599,20.1520674 C14.3458206,20.1344319 14.0893949,20.0430053 14.0129558,20.0147501 C13.8126309,19.9367277 13.6476863,19.9124856 13.6092483,19.861872 C13.5396888,19.6848064 13.4925423,19.6252658 13.4085958,19.388059 C13.2948654,19.0740036 13.2858565,18.723667 13.2639076,18.4030051 C13.5558229,18.7628147 13.9277808,19.0657045 14.4202122,19.2203571 C14.4264911,19.2070349 15.0590244,19.4953194 15.5183686,19.3470822 L15.6139174,19.3163701 C15.6139174,19.32456 15.3095807,19.3430418 15.1979524,19.2877873 C14.2637578,18.8907137 14.1231646,18.5431616 13.9723339,18.3705185 L13.5689267,17.766295 C13.6916114,17.52169 13.7609799,17.5124081 13.9238224,17.510115 C14.4152164,17.5647143 14.6294642,17.6067558 14.9286412,17.5345755 C15.1307952,17.9506224 15.1854219,18.3691263 15.6456669,18.6719342 C17.17898,19.1270742 17.5121451,18.5368008 17.8835024,18.0151861 C18.9867366,18.8248396 20.782727,19.074495 22.0303217,18.0292454 C23.6160501,16.1943803 24.118091,13.3017623 23.9774704,13.1365993 C23.7794386,12.8006223 23.5196004,12.4541076 23.2964802,12.5020185 C22.501241,12.7191055 22.2080425,13.1225399 21.4200377,13.0305401 C21.5138939,13.0252439 21.6717406,13.0227051 21.6729145,13.0137508 C21.7336289,12.3465469 21.6680005,12.0236738 21.6387353,11.9682555 C21.3995902,11.4409078 21.0856441,10.8859329 20.8667554,10.4700498 C20.8103269,10.3837829 20.644618,9.72845438 20.3669531,9.46957164 C20.2478719,9.36788039 19.9563661,9.09977037 19.9563661,9.09977037 L19.9316599,9.38477888 C19.9316599,9.38477888 20.0456087,9.40197767 20.0889606,9.57852461 C20.2533592,10.2478305 21.0905034,11.8303376 21.151955,11.906176 C21.4486477,12.3851487 21.1821211,12.9817829 21.4076709,13.3165587 C21.4293469,13.3590916 21.8678614,13.3128186 22.2077422,13.3337029 C22.7666483,13.2135024 22.7428157,12.9671776 23.225856,12.9301592 C23.5510769,12.9052346 23.5837,13.51601 23.5793867,13.5634023 C23.5187814,14.2378132 23.3136244,15.0219415 22.999651,15.738039 C22.3468613,16.9957347 21.6155579,18.1252856 20.5789896,18.2828047 C19.3143052,18.5037955 18.6570931,17.9508954 17.9715439,17.5988116 L17.709276,17.8224777 C16.8182968,18.7097169 15.7600798,18.6309301 15.3276531,17.471677 C15.1119858,17.0219696 14.8315636,16.7463249 14.5912173,16.3605806 L13.3166505,17.2785865 C13.210564,17.4961648 13.0800989,17.8393216 12.9216244,18.222609 C12.8114429,18.4890537 12.7190608,18.9467326 12.7250668,19.3270442 C12.5616783,19.6053643 13.2909888,20.7341236 13.7515342,21.4207102 L14.1501093,21.999272 C14.2415086,22.236315 14.4416698,22.4456216 14.4537908,22.4711195 C15.3092804,23.5869114 13.374635,23.329967 12.9750498,23.2628098 C12.1867446,23.1372313 11.4156929,22.8079155 10.6908867,22.3675991 L10.5651718,22.2898497 C9.70386733,21.7475145 8.91135802,21.0536389 8.23749307,20.3673253 C7.83569658,19.9123491 7.45311906,18.9797652 7.17054022,18.3186219 C6.7470405,16.7290715 6.13926804,13.97388 7.78565629,11.8860016 C7.89002292,11.7666474 8.00263404,11.5679605 8.09851047,11.528376 C8.58766588,11.197504 9.11883548,10.9720088 9.69002639,10.8468125 L9.6323695,10.4765471 C9.34708799,10.5413565 8.38660384,10.8926759 8.11505406,11.0397392 C7.49745372,11.2187704 6.98517549,11.4057186 6.19807152,11.6027948 C5.94221905,11.6341076 5.69051613,11.6346536 5.44514673,11.601348 C4.87895166,11.5244175 3.91379927,11.5931581 3.85221122,11.535938 C3.46881471,11.001274 3.3635472,10.0433014 3.01402957,9.5306137 L3.00993462,9.52550866 L3.00551208,9.52064932 C2.80158357,9.24656067 2.56388538,9.02297641 2.32979075,8.79038325 C1.4914726,7.95774344 0.773709783,7.15240329 0.573111838,6.29874274 C0.522607455,6.04676682 0.392551847,5.78550902 0.461674601,5.04022813 L0.462957685,5.03656998 L0.464158871,5.03291182 C0.665848803,4.33641545 0.993963489,3.76893729 1.55084938,3.19965735 C2.13036668,3.20902114 2.70398727,3.22149709 3.1508009,3.30710884 C3.3555484,3.34139722 3.78207838,3.39708854 4.22236739,3.56110493 C5.33679436,3.97625095 6.80928374,4.6585515 6.80928374,4.6585515 C5.70397486,4.05151613 4.46806438,3.26312908 3.68756693,3.10402662 C3.57143415,3.08759222 3.50007283,3.03460357 3.46562065,2.9421396 C4.63950629,2.25244084 4.85421816,1.44065797 5.62630731,0.712139087 C5.9791555,0.558551166 6.11674581,0.480146526 6.41655074,0.447550724 C9.18937782,0.88598336 10.9346455,1.99039135 12.3160086,2.72887461 C12.8764707,3.03364808 13.3861555,3.26411186 13.872499,3.54166757 C14.299029,3.68198785 15.5860991,4.65369216 15.9628344,5.17760005 C16.3454939,5.98553367 16.6248513,6.85824939 16.8796937,7.70008919 C17.0624104,8.55661621 17.2226867,8.90405906 17.2226867,8.90405906 C17.2226867,8.90405906 17.0674062,8.18763393 17.0932863,8.058916 C17.2542997,8.11908447 17.6349117,8.23791991 17.7927038,8.21943804 C17.7927038,8.21943804 17.087881,7.8550967 16.9955535,7.53312443 C16.6991883,6.49991398 16.4019496,4.89147225 16.3217978,4.80760768 C16.0959203,4.52369115 15.1539999,3.80254318 14.5762571,3.46910506 C14.357696,3.3429806 14.2395703,3.26471246 14.2303703,3.20926684 C14.4149161,3.02281012 14.6425953,2.77615763 14.8472882,2.61943025 C15.0432179,2.46920019 15.2212936,2.30002416 15.4946452,2.1983875 C16.6948204,1.65785412 17.3810521,2.40635636 17.5439219,2.25478861 C17.5439219,2.25478861 17.2857217,1.95886023 17.4004076,2.00756284 C17.5178507,2.07117106 17.9006193,2.14619054 17.9426335,2.18501067 C18.3800561,2.52718468 19.5236391,3.77778238 20.2128738,5.09733904 C20.3784189,5.42056708 20.4457399,5.63339528 20.3689186,6.02260662 C20.2919336,6.41217285 20.2323657,6.62639333 20.1483919,6.88655914 C20.0725535,7.06045802 19.6434027,8.25121485 19.645068,8.41119089 C19.55861,9.0645265 19.9252718,9.88245179 19.9252718,9.88245179 C19.9287388,9.66042361 19.9116219,9.54213415 19.9317418,9.3833593 L19.9564207,9.09963387 C19.9564207,9.09963387 19.940778,9.02417759 19.9435898,8.99425716 C19.9622082,8.79805446 20.0103375,8.63308258 20.0244515,8.52074445 C20.1622602,7.66749339 20.4017874,7.05325091 20.673501,6.30450297 C20.7542534,6.11553468 20.8599031,6.01048556 20.8544978,5.86661632 C20.8589476,5.61130985 20.630504,5.26864444 20.465423,4.93397783 C20.298895,4.59546198 20.0996074,4.21867199 19.8386226,3.82124345 C19.2429439,2.96468913 18.7351701,2.29450963 17.8053435,1.87477726 C17.5451777,1.76061006 16.5214402,1.64900902 16.1679095,1.71534721 C15.7393048,1.80469902 15.3702133,1.89279504 15.0759229,2.08110814 C14.6131936,2.37741871 14.249562,2.8362169 13.8228682,3.10648359 C12.8793918,2.63469077 12.4240333,2.28159689 12.3391314,2.23289428 C11.7783962,1.93243416 11.1051865,1.58376282 10.3809263,1.25283627 C10.0336746,0.929007634 7.87754697,0.15448881 5.90268913,0 L5.90159715,0.00117388564 Z M17.9702335,17.5985386 C17.3887506,17.1439991 16.8992676,16.6758099 16.5765855,16.1942438 C16.4712634,16.7609302 16.0889043,17.1645285 15.7934127,17.5614929 C15.7345819,17.6543118 15.6921856,17.7815282 15.981835,18.1861093 C16.0599121,18.2938884 16.3423817,18.3123157 16.5330699,18.3024059 C16.3390784,18.1557521 16.0439145,18.0006627 15.9963584,17.8662391 C16.3376043,18.0982863 16.6536252,18.1653616 16.9392343,18.1279337 C17.0047535,18.1205628 17.0855605,18.0513854 17.1482132,17.9448621 C17.2755389,17.6713195 17.37521,17.6054454 17.4759457,17.5318182 L17.7080475,17.8225596 L17.9702335,17.5985386 Z" stroke="#000000" stroke-width="0.5" fill="#000000"></path>
            </g>
        </g>
    </g>
</svg>