<?xml version="1.0" encoding="UTF-8"?>
<svg width="24px" height="24px" viewBox="0 0 24 24" version="1.1" xmlns="http://www.w3.org/2000/svg" xmlns:xlink="http://www.w3.org/1999/xlink">
    <title>joint-cache</title>
    <g id="页面-1" stroke="none" stroke-width="1" fill="none" fill-rule="evenodd">
        <g id="joint-cache" fill="#333333" fill-rule="nonzero">
            <rect id="矩形" opacity="0" x="0" y="0" width="24" height="24"></rect>
            <g id="Jc">
                <path d="M3.89212598,20.3732283 C5.83228346,20.3732283 7.32230971,19.7706037 8.36220472,18.5653543 C9.40209974,17.360105 9.92204724,15.6293963 9.92204724,13.3732283 L9.92204724,13.3732283 L9.92204724,3 L6.28425197,3 L6.28425197,13.2409449 C6.28425197,15.8939633 5.40971129,17.2204724 3.66062992,17.2204724 C2.85223097,17.2204724 2.132021,16.9816273 1.5,16.503937 L1.5,16.503937 L1.5,19.9322835 C2.23490814,20.2262467 3.03228346,20.3732283 3.89212598,20.3732283 Z M18.8511811,20.3732283 C20.4238845,20.3732283 21.6364829,20.1233596 22.4889764,19.623622 L22.4889764,19.623622 L22.4889764,16.7354331 C21.5850394,17.3380577 20.6590551,17.6393701 19.7110236,17.6393701 C18.6380577,17.6393701 17.7892388,17.3178478 17.1645669,16.6748031 C16.539895,16.0317585 16.2275591,15.151706 16.2275591,14.0346457 C16.2275591,12.8808399 16.5564304,11.9732283 17.2141732,11.311811 C17.871916,10.6503937 18.7446194,10.319685 19.8322835,10.319685 C20.7950131,10.319685 21.684252,10.6173228 22.5,11.2125984 L22.5,11.2125984 L22.5,8.15905512 C21.8312336,7.77690289 20.8023622,7.58582677 19.4133858,7.58582677 C17.355643,7.58582677 15.7094488,8.18293963 14.4748031,9.37716535 C13.2401575,10.5713911 12.6228346,12.2047244 12.6228346,14.2771654 C12.6228346,16.0776903 13.196063,17.543832 14.3425197,18.6755906 C15.4889764,19.8073491 16.9918635,20.3732283 18.8511811,20.3732283 Z" id="path-1"></path>
            </g>
        </g>
    </g>
</svg>
