<?xml version="1.0" encoding="UTF-8"?>
<svg width="24px" height="24px" viewBox="0 0 24 24" version="1.1" xmlns="http://www.w3.org/2000/svg" xmlns:xlink="http://www.w3.org/1999/xlink">
    <title>mariadb</title>
    <g id="页面-1" stroke="none" stroke-width="1" fill="none" fill-rule="evenodd">
        <g id="mariadb">
            <rect id="矩形" x="0" y="0" width="24" height="24"></rect>
            <g id="形状" transform="translate(0.000000, 4.000000)" fill-rule="nonzero">
                <path d="M23.4715432,0 C23.1003669,0.0120010812 23.2143772,0.119153592 22.4163053,0.316314212 C21.5139756,0.409348051 20.6210467,0.577955036 19.7469219,0.820359623 C17.145259,1.91160079 16.6232119,5.64136539 14.2607134,6.97691429 C12.4922683,7.97557569 10.7092505,8.05529716 9.10539176,8.55762813 C7.94229187,8.95603327 6.86832867,9.57804666 5.94396408,10.3886502 C5.20246871,11.0272792 5.18360987,11.5887584 4.40868291,12.3911164 C3.5806083,13.2483364 1.11610055,12.4056891 0,13.7172358 C0.360032437,14.0806971 0.514332052,14.1827063 1.22668194,14.0884121 C1.08009731,14.3670087 0.215162242,14.6027442 0.384034599,15.0099237 C0.562336377,15.4385338 2.65395339,15.7325603 4.55526754,14.5813137 C5.44077589,14.0464083 6.14626802,13.2757675 7.52553514,13.0923224 C9.50550657,12.9858995 11.4909107,13.1374703 13.4317815,13.5432202 C13.0715054,14.3571612 12.5950745,15.1145419 12.0173684,15.7917084 C11.8647832,15.9562947 12.323396,15.9742963 12.8471574,15.8774305 C13.6618386,15.7180469 14.4478677,15.4368681 15.1787961,15.0433553 C16.0523033,14.5350238 16.1843152,13.231192 17.2558404,12.9491666 C18.0636365,13.902671 19.467906,14.0768064 20.4841312,13.3494884 C19.6003373,13.0991801 19.3560296,11.2175821 19.6543422,10.387793 C19.9372248,9.60257941 20.2166785,8.34675199 20.5012756,7.30951568 C20.8073032,6.19512957 20.919599,4.79014585 21.2899181,4.22352337 C21.7665114,3.59175274 22.3426501,3.04167065 22.9957861,2.5948052 C23.6549081,2.12500482 24.0319182,1.35389183 23.9978763,0.545191975 C23.992733,0.190302859 23.8092879,-0.00771498078 23.4715432,0.00342888035 L23.4715432,0 Z" id="路径" fill="#002B64"></path>
                <path d="M0.767211978,14.9344884 C1.87806633,15.1266967 3.02125929,14.9616255 4.03236329,14.4630173 C4.97343132,13.882326 5.94649164,13.3551563 6.94691158,12.8840179 C8.55162759,12.3696859 10.3106432,12.8840179 12.0259406,12.9877415 C12.4397728,13.0163477 12.8552795,13.0100391 13.2680525,12.9688827 C13.9066815,12.5762759 13.8938232,11.1070007 14.5153077,10.9724171 C14.4759268,12.6278744 13.8577831,14.2172133 12.7682932,15.4642504 C14.4067548,15.1938222 15.8041766,14.1278505 16.4980578,12.6191369 C16.7315564,12.1684827 16.9320994,11.7015041 17.0981119,11.2218682 C17.3647073,11.4267438 17.2138366,12.0490855 17.3475629,12.385973 C18.633393,11.6710515 19.3646018,10.0406189 19.8515028,8.39132743 C20.4138392,6.4822983 20.6444314,4.55012422 21.0078927,3.98521618 C21.3878761,3.48372989 21.8626081,3.06171355 22.4051614,2.74310428 C23.0182575,2.42248236 23.4497749,1.83764186 23.5752668,1.15724712 C22.9752128,1.10152781 22.8329142,0.961800938 22.7437633,0.658345027 C22.4697255,0.806416381 22.1619559,0.880848196 21.85054,0.874364489 C21.5788012,0.88293669 21.2796314,0.874364489 20.9144557,0.907796072 C17.8944693,1.21810974 17.5104347,4.54669534 15.5748318,6.43429397 C15.4319958,6.57268242 15.2802271,6.70154262 15.1205051,6.82004301 C14.4178913,7.30668693 13.6529508,7.69650961 12.8463002,7.97900457 C11.6084744,8.45219006 10.4315112,8.48562164 9.26997802,8.8936584 C8.41649104,9.19432237 7.60452722,9.60188846 6.8534746,10.1066248 C6.68203058,10.2266356 6.51058656,10.3492181 6.36143027,10.473515 C5.99400951,10.7884095 5.67612796,11.1568631 5.41848817,11.5664706 C5.15231522,11.9943758 4.84233204,12.3934181 4.4935477,12.7571493 C3.85148985,13.3872061 1.45384527,12.9405944 0.609483482,13.5286474 C0.518556125,13.5889334 0.443323983,13.6700431 0.39003514,13.7652402 C0.850362326,13.9744019 1.16153322,13.8458188 1.68786635,13.904967 C1.75730118,14.4081552 0.59491074,14.7064678 0.766354758,14.9379172 L0.767211978,14.9344884 Z" id="路径" fill="#C49A6C"></path>
                <path d="M19.9097937,2.15676574 C20.1386214,2.35081477 20.4644257,2.38090543 20.7249235,2.23204958 C20.9854212,2.08319372 21.1249053,1.78722402 21.0738986,1.49156295 C20.4095531,1.43584365 20.0246612,1.66129253 19.9097937,2.15676574 Z" id="路径" fill="#002B64"></path>
                <path d="M22.890348,1.29354511 C22.6762187,1.64021143 22.56146,2.03904971 22.5586038,2.44650613 C22.5586038,2.55108698 22.4797396,2.61795015 22.4780251,2.46107887 C22.4765,2.04247417 22.5907157,1.63159423 22.8080549,1.27382905 C22.8834902,1.13667384 22.9323518,1.19325036 22.890348,1.29354511 Z" id="路径" fill="#002B64"></path>
                <path d="M22.7754805,1.20010812 C22.502876,1.56655862 22.3260851,1.99527662 22.2611484,2.44736335 C22.2508618,2.55108698 22.1668542,2.61880737 22.1797125,2.45507833 C22.2413576,1.99162529 22.4181903,1.5510171 22.6940446,1.1735343 C22.7849099,1.04666573 22.8269137,1.10752835 22.7754805,1.20010812 Z" id="路径" fill="#002B64"></path>
                <path d="M22.6717569,1.08438341 C22.3203452,1.45625468 22.0618597,1.90596083 21.9174032,2.39678736 C21.8985443,2.49879655 21.8093935,2.5562303 21.8316812,2.39678736 C21.9768357,1.89544111 22.2365512,1.43470288 22.590321,1.05095183 C22.6940446,0.929226574 22.7300478,0.993518081 22.6717569,1.08438341 Z" id="路径" fill="#002B64"></path>
                <path d="M22.5783199,0.951514297 C22.1710181,1.35433764 21.8448043,1.83158167 21.6173762,2.35735524 C21.5839446,2.45593555 21.4879359,2.50051099 21.5359402,2.3470686 C21.7619178,1.80858923 22.0916378,1.3198346 22.5063134,0.908653292 C22.6220381,0.800643561 22.6494691,0.870078388 22.5783199,0.952371517 L22.5783199,0.951514297 Z" id="路径" fill="#002B64"></path>
            </g>
        </g>
    </g>
</svg>