<svg width="32" height="31" viewBox="0 0 32 31" fill="none" xmlns="http://www.w3.org/2000/svg">
<path fill-rule="evenodd" clip-rule="evenodd" d="M1.99322 0H25.904C27.0003 0 27.8973 0.897004 27.8973 1.99334V25.9041C27.8973 27.0004 27.0003 27.8974 25.904 27.8974H1.99322C0.896882 27.8974 -0.00012207 27.0004 -0.00012207 25.9041V1.99334C-0.00012207 0.897004 0.896882 0 1.99322 0ZM24.7081 25.9479C25.3622 25.9479 25.8917 25.4185 25.8917 24.7644V3.21138C25.8917 2.56043 25.3591 2.02784 24.7081 2.02784H3.1551C2.50415 2.02784 1.97155 2.56043 1.97155 3.21138V24.7644C1.97155 25.4185 2.50103 25.9479 3.1551 25.9479H24.7081Z" fill="#4AAF47"/>
<path fill-rule="evenodd" clip-rule="evenodd" d="M17.5584 10.278H20.5249C21.0803 10.278 21.5347 9.83754 21.5347 9.29917C21.5347 8.7608 21.0803 8.32031 20.5249 8.32031H17.5584C17.003 8.32031 16.5486 8.7608 16.5486 9.29917C16.5486 9.83754 17.003 10.278 17.5584 10.278ZM9.45435 10.2781H6.39326C5.83785 10.2781 5.38342 9.8376 5.38342 9.29923C5.38342 8.76085 5.83785 8.32037 6.39326 8.32037H9.45435C10.0098 8.32037 10.4642 8.76085 10.4642 9.29923C10.4642 9.8376 10.0098 10.2781 9.45435 10.2781ZM20.5122 20.0665H6.45328C5.89787 20.0665 5.44344 19.626 5.44344 19.0876C5.44344 18.5493 5.89787 18.1088 6.45328 18.1088H20.5122C21.0676 18.1088 21.522 18.5493 21.522 19.0876C21.522 19.626 21.0676 20.0665 20.5122 20.0665Z" fill="#4AAF47"/>
<circle cx="25.4357" cy="24.2049" r="6.15385" transform="rotate(180 25.4357 24.2049)" fill="#4AAF47" stroke="white" stroke-width="0.820513"/>
<path fill-rule="evenodd" clip-rule="evenodd" d="M23.0563 26.8719C23.0563 26.5321 23.3318 26.2565 23.6717 26.2565L27.3229 26.2565L27.3229 22.6053C27.3229 22.2654 27.5985 21.9899 27.9383 21.9899C28.2782 21.9899 28.5537 22.2654 28.5537 22.6053L28.5537 26.8719C28.5537 27.2118 28.2782 27.4873 27.9383 27.4873L23.6717 27.4873C23.3318 27.4873 23.0563 27.2118 23.0563 26.8719Z" fill="white"/>
<path fill-rule="evenodd" clip-rule="evenodd" d="M22.4124 21.4352C22.6508 21.1929 23.0404 21.1898 23.2827 21.4281L28.3699 26.4333C28.6121 26.6716 28.6153 27.0612 28.3769 27.3035C28.1386 27.5458 27.749 27.5489 27.5067 27.3106L22.4195 22.3055C22.1772 22.0671 22.1741 21.6775 22.4124 21.4352Z" fill="white"/>
</svg>
