<svg width="32" height="31" viewBox="0 0 32 31" fill="none" xmlns="http://www.w3.org/2000/svg">
<path fill-rule="evenodd" clip-rule="evenodd" d="M2.10109 0H27.3043C28.4599 0 29.4054 0.94549 29.4054 2.10109V27.3043C29.4054 28.4599 28.4599 29.4054 27.3043 29.4054H2.10109C0.94549 29.4054 0 28.4599 0 27.3043V2.10109C0 0.94549 0.94549 0 2.10109 0ZM26.0439 27.3505C26.7333 27.3505 27.2914 26.7924 27.2914 26.103V3.38492C27.2914 2.69878 26.73 2.1374 26.0439 2.1374H3.32584C2.6397 2.1374 2.07832 2.69878 2.07832 3.38492V26.103C2.07832 26.7924 2.63642 27.3505 3.32584 27.3505H26.0439Z" fill="#4AAF47"/>
<path fill-rule="evenodd" clip-rule="evenodd" d="M9.96553 10.8336H6.73899C6.15355 10.8336 5.67456 10.3693 5.67456 9.80179C5.67456 9.23432 6.15355 8.77002 6.73899 8.77002H9.96553C10.551 8.77002 11.03 9.23432 11.03 9.80179C11.03 10.3693 10.551 10.8336 9.96553 10.8336ZM21.621 21.1512H6.80221C6.21678 21.1512 5.73779 20.6869 5.73779 20.1194C5.73779 19.552 6.21678 19.0877 6.80221 19.0877H21.621C22.2065 19.0877 22.6855 19.552 22.6855 20.1194C22.6855 20.6869 22.2065 21.1512 21.621 21.1512ZM18.5077 10.8336H21.6344C22.2199 10.8336 22.6988 10.3693 22.6988 9.80187C22.6988 9.23439 22.2199 8.7701 21.6344 8.7701H18.5077C17.9222 8.7701 17.4432 9.23439 17.4432 9.80187C17.4432 10.3693 17.9222 10.8336 18.5077 10.8336Z" fill="#4AAF47"/>
<circle cx="25.081" cy="23.7837" r="6.48649" fill="#4AAF47" stroke="white" stroke-width="0.864865"/>
<path fill-rule="evenodd" clip-rule="evenodd" d="M27.5891 20.9729C27.5891 21.3311 27.2987 21.6215 26.9405 21.6215L23.0918 21.6215L23.0918 25.4702C23.0918 25.8284 22.8014 26.1188 22.4432 26.1188C22.0849 26.1188 21.7945 25.8284 21.7945 25.4702L21.7945 20.9729C21.7945 20.6146 22.0849 20.3242 22.4432 20.3242L26.9405 20.3242C27.2987 20.3242 27.5891 20.6146 27.5891 20.9729Z" fill="white"/>
<path fill-rule="evenodd" clip-rule="evenodd" d="M28.2678 26.7035C28.0166 26.9588 27.6059 26.9622 27.3505 26.7109L21.9884 21.4352C21.733 21.184 21.7297 20.7733 21.9809 20.5179C22.2322 20.2626 22.6428 20.2592 22.8982 20.5105L28.2604 25.7862C28.5157 26.0374 28.5191 26.4481 28.2678 26.7035Z" fill="white"/>
</svg>
