<?xml version="1.0" encoding="UTF-8"?>
<svg width="24px" height="24px" viewBox="0 0 24 24" version="1.1" xmlns="http://www.w3.org/2000/svg" xmlns:xlink="http://www.w3.org/1999/xlink">
    <title>redis</title>
    <g id="页面-1" stroke="none" stroke-width="1" fill="none" fill-rule="evenodd">
        <g id="redis">
            <rect id="矩形" x="0" y="0" width="24" height="24"></rect>
            <path d="M23.0596875,17.7982669 C21.778875,18.468271 15.144,21.2061518 13.7314687,21.9452169 C12.3189375,22.684376 11.53425,22.6772253 10.4183437,22.1418618 C9.30253125,21.6064983 2.24184375,18.7441384 0.9699375,18.1339746 C0.3343125,17.8291279 0,17.5717018 0,17.3285772 L0,14.8939435 C0,14.8939435 9.1921875,12.8856248 10.6761563,12.3512963 C12.1600312,11.8169678 12.6749063,11.7976797 13.9377188,12.2619122 C15.2007188,12.726333 22.7519063,14.0936269 24,14.5524023 L23.9994375,16.9525996 C23.999625,17.1932779 23.711625,17.4572902 23.0596875,17.7982669" id="路径" fill="#912626" fill-rule="nonzero"></path>
            <path d="M23.0592209,15.3273485 C21.7785008,15.9954277 15.1438067,18.7266873 13.731274,19.4638458 C12.3188351,20.2012859 11.5341468,20.1940588 10.4183332,19.6600084 C9.30242581,19.1263334 2.24201248,16.2705247 0.970198709,15.6622329 C-0.301615066,15.0535656 -0.328240093,14.6346786 0.92107366,14.144929 C2.17038741,13.6549917 9.19208195,10.8969827 10.6762397,10.3639648 C12.1601162,9.83113452 12.6748979,9.81170597 13.9377117,10.2749877 C15.2006192,10.7380816 21.7957508,13.3661915 23.0436583,13.8237479 C24.2920346,14.2818674 24.3399409,14.6590816 23.0592209,15.3273485" id="路径" fill="#C6302B" fill-rule="nonzero"></path>
            <path d="M23.0596875,13.8258122 C21.778875,14.4959122 15.144,17.2337065 13.7314687,17.9730558 C12.3189375,18.7119347 11.53425,18.704784 10.4183437,18.169419 C9.3024375,17.6343363 2.24184375,14.7716863 0.9699375,14.1615208 C0.3343125,13.8566733 0,13.5996229 0,13.3564035 L0,10.9214809 C0,10.9214809 9.1921875,8.91325074 10.6761563,8.37892076 C12.1600312,7.84459079 12.6749063,7.82520851 13.9377188,8.28953646 C15.2008125,8.75386441 22.752,10.1208798 24,10.5797506 L23.9994375,12.9802367 C23.999625,13.2208216 23.711625,13.4848346 23.0596875,13.8258122" id="路径" fill="#912626" fill-rule="nonzero"></path>
            <path d="M23.0592209,11.5204152 C21.7785008,12.1886834 15.1438067,14.9197604 13.731274,15.6572018 C12.3188351,16.3943617 11.5341468,16.3871347 10.4183332,15.8530833 C9.30242581,15.3194073 2.24201248,12.463687 0.970198709,11.8553002 C-0.301615066,11.2468194 -0.328240093,10.8278378 0.92107366,10.3378996 C2.17038741,9.84824297 9.1921757,7.09004106 10.6762397,6.55711595 C12.1601162,6.02419083 12.6748979,6.0048561 13.9377117,6.46804481 C15.2006192,6.93113965 21.7957508,9.5590668 23.0436583,10.0168117 C24.2920346,10.4748383 24.3399409,10.852147 23.0592209,11.5204152" id="路径" fill="#C6302B" fill-rule="nonzero"></path>
            <path d="M23.0596875,9.85329476 C21.778875,10.5232167 15.144,13.2612404 13.7314687,14.0006009 C12.3189375,14.739585 11.53425,14.73234 10.4183437,14.196967 C9.3024375,13.6618763 2.24184375,10.7990891 0.9699375,10.1891966 C0.3343125,9.88406224 0,9.62691384 0,9.38397304 L0,6.94891969 C0,6.94891969 9.1921875,4.9407534 10.6761563,4.40650947 C12.1600312,3.87207736 12.6749063,3.85288297 13.9377188,4.31712382 C15.2008125,4.78145876 22.752,6.1484947 24,6.60737241 L23.9994375,9.00780058 C23.999625,9.24820094 23.711625,9.51221793 23.0596875,9.85329476" id="路径" fill="#912626" fill-rule="nonzero"></path>
            <path d="M23.059219,7.38245888 C21.7784965,8.05073778 15.1437894,10.7820462 13.7312539,11.5192179 C12.3188123,12.2563896 11.5341225,12.2491624 10.4183067,11.715384 C9.30249086,11.1813241 2.24196999,8.32574581 0.970247479,7.71725534 C-0.30166253,7.10885874 -0.328193859,6.68977654 0.921028584,6.19992436 C2.17034478,5.71016603 9.19214678,2.95229542 10.6762137,2.41917405 C12.1600931,1.88614654 12.6748758,1.86699923 13.9376921,2.33019534 C15.200602,2.79339146 21.7957465,5.42136067 23.0436565,5.87911294 C24.2920352,6.33677136 24.3399416,6.71417999 23.059219,7.38245888" id="路径" fill="#C6302B" fill-rule="nonzero"></path>
            <path d="M14.8965517,5.07104965 L12.835535,5.28439509 L12.3741706,6.39136384 L11.6289834,5.15610772 L9.24912235,4.94285564 L11.0249116,4.30431319 L10.4920999,3.32413793 L12.1546784,3.972484 L13.722025,3.4608284 L13.2983976,4.47433598 L14.8965517,5.07104965 M12.2511276,10.4413793 L8.40467668,8.85067194 L13.916328,8.00709378 L12.2511276,10.4413793 M6.9183287,5.68634351 C8.54532398,5.68634351 9.86424361,6.19613175 9.86424361,6.82487058 C9.86424361,7.45379614 8.54532398,7.96349102 6.9183287,7.96349102 C5.29133342,7.96349102 3.97241379,7.45370278 3.97241379,6.82487058 C3.97241379,6.19613175 5.29133342,5.68634351 6.9183287,5.68634351" id="形状" fill="#FFFFFF" fill-rule="nonzero"></path>
            <polyline id="路径" fill="#621B1C" fill-rule="nonzero" points="17.3793103 5.31044106 20.6896552 6.63515638 17.3821611 7.95862069 17.3793103 5.31034483"></polyline>
            <polyline id="路径" fill="#9A2928" fill-rule="nonzero" points="13.737931 6.70266008 17.3764781 5.31034483 17.3793103 7.82363598 17.0225364 7.95862069 13.737931 6.70266008"></polyline>
        </g>
    </g>
</svg>