<?xml version="1.0" encoding="UTF-8"?>
<svg width="28px" height="28px" viewBox="0 0 28 28" version="1.1" xmlns="http://www.w3.org/2000/svg" xmlns:xlink="http://www.w3.org/1999/xlink">
    <title>api</title>
    <g id="api" stroke="none" stroke-width="1" fill="none" fill-rule="evenodd">
        <g fill="#4AAF47" fill-rule="nonzero">
            <path d="M16.9719043,9.38189387 L9.39646201,16.9573361 C8.93028094,17.4235172 8.93028094,18.1227888 9.39646201,18.5889698 C9.62955254,18.8220603 9.92091571,18.9386056 10.2122789,18.9386056 C10.5036421,18.9386056 10.7950052,18.8220603 11.0280957,18.5889698 L18.603538,11.0135276 C19.0697191,10.5473465 19.0697191,9.84807491 18.603538,9.38189387 C18.1373569,8.9157128 17.3798127,8.9157128 16.9719043,9.38189387 Z" id="路径"></path>
            <path d="M15.3985432,23.4255983 C12.4266389,26.3975026 7.59001038,26.3975026 4.55983349,23.4255983 C1.58792922,20.4536941 1.58792922,15.6170656 4.55983349,12.5868887 C5.02601456,12.1207076 5.02601456,11.421436 4.55983349,10.955255 C4.09365242,10.4890739 3.39438083,10.4890739 2.92819979,10.955255 C-0.976066595,14.8012487 -0.976066595,21.1529657 2.92819979,25.057232 C4.85119666,26.9802289 7.41519251,27.9708637 9.97918833,27.9708637 C12.5431842,27.9708637 15.10718,26.9802289 17.0301769,25.057232 C17.496358,24.591051 17.496358,23.8917794 17.0301769,23.4255983 C16.5639958,22.9594173 15.8647242,22.9594173 15.3985432,23.4255983 L15.3985432,23.4255983 Z M25.0718002,2.91363164 C23.207076,1.04890739 20.7013528,0 18.0208116,0 C15.3402705,0 12.8345474,1.04890739 10.9698231,2.91363164 C10.503642,3.37981271 10.503642,4.07908431 10.9698231,4.54526535 C11.4360042,5.01144642 12.1352758,5.01144642 12.6014568,4.54526535 C14.0582726,3.14672216 15.9812695,2.3309053 18.0208116,2.3309053 C20.0603538,2.3309053 21.9833507,3.14672216 23.4401665,4.54526535 C26.4120707,7.51716962 26.4120707,12.3537981 23.4401665,15.383975 C22.9739854,15.8501561 22.9739854,16.5494277 23.4401665,17.0156087 C23.673257,17.2486993 23.9646202,17.3652445 24.2559833,17.3652445 C24.5473465,17.3652445 24.8387097,17.2486993 25.0718002,17.0156087 C28.9760666,13.169615 28.9760666,6.81789802 25.0718002,2.91363164 Z" id="形状"></path>
        </g>
    </g>
</svg>