<svg width="50" height="50" viewBox="0 0 50 50" fill="none" xmlns="http://www.w3.org/2000/svg">
<g clip-path="url(#clip0_745_20963)">
<g clip-path="url(#clip1_745_20963)">
<path d="M33.4133 33.8531L26.6889 34.0198L24.153 39.8546L17.5429 41.5842L13.4064 45.3664H46.7061C48.4314 45.3664 49.8345 43.9598 49.8345 42.2302V25.6428L38.0278 28.6018L33.4133 33.8531ZM9.15564 34.3428L3.55372 39.1669C3.50176 38.8231 3.36665 38.4793 3.1276 38.1875L0.18634 40.6673C0.80993 41.4071 1.85964 41.5529 2.65991 41.0632L8.13711 38.573L9.15564 34.3428ZM41.6758 17.4116L42.3514 19.2037C43.4011 18.9328 45.012 17.7763 46.1449 16.8802C46.1033 17.1928 46.1241 17.5054 46.2384 17.8179L49.8448 16.4843C49.4707 15.484 48.369 14.9839 47.3713 15.3486C47.3401 15.359 47.3089 15.3798 47.2777 15.4007L47.2881 15.3903L41.6758 17.4116ZM47.8909 20.4332C47.8805 20.4332 47.8805 20.4332 47.8701 20.4332L41.2601 19.8601L39.7531 15.8904V11.681C40.0545 11.8477 40.3871 11.9415 40.7508 11.9415C41.8421 11.9415 42.7359 11.0975 42.8399 10.0348L44.4196 8.98244L44.3469 6.84649C44.3365 6.62769 44.1702 6.46098 43.9519 6.46098L41.9772 6.42973C41.5615 5.84625 40.7924 5.59619 40.1169 5.90876L35.7725 7.95093C35.7829 7.96135 35.7829 7.98219 35.7829 7.99261C35.9284 8.29477 36.1467 8.52399 36.4065 8.6907C31.1164 11.431 28.8715 15.1298 28.8715 15.1298L8.64637 26.0491C7.46155 26.6847 5.97533 26.2367 5.34135 25.0489C4.70736 23.8611 5.15427 22.3711 6.33909 21.7356L12.0761 18.6411C13.5312 17.8596 14.3834 16.4009 14.4873 14.8693L11.0472 16.7239L5.31017 19.8184C3.06525 21.0271 2.2234 23.8402 3.42901 26.0804C4.26046 27.6328 5.85061 28.5185 7.50312 28.5185C8.24104 28.5185 8.98935 28.3414 9.67529 27.9663L12.2632 26.5701C12.0761 27.5912 12.1593 28.6852 12.5646 29.7167C12.6997 30.0709 12.7932 30.2897 12.7932 30.2897C13.7078 32.2798 12.5022 33.8427 10.9225 33.8427H10.4236L8.6048 41.7822C8.36576 41.5321 8.05396 41.3445 7.6902 41.2508L6.786 44.9913C7.70059 45.2101 8.6048 44.7412 8.97895 43.9077L13.105 36.4892C18.3224 35.9786 21.0662 32.4361 20.9415 27.4453C26.3459 27.7787 33.5484 24.3716 36.7495 19.7142C39.1815 22.8087 43.7752 22.3711 45.8227 21.5897L46.2176 21.4542C46.0721 21.7251 45.989 22.0377 45.989 22.3711L49.8345 22.3295C49.8137 21.2771 48.951 20.4227 47.8909 20.4332ZM12.0449 13.4106C12.232 13.7649 12.3256 14.14 12.3359 14.515L14.3626 13.421C14.2691 13.0668 14.1444 12.7125 13.9573 12.3791L13.8533 12.1811L11.941 13.2126L12.0449 13.4106ZM11.307 12.0353L13.2194 11.0038L12.9699 10.5453C12.6893 10.0139 12.0241 9.81597 11.4941 10.0973C10.964 10.3786 10.7666 11.0454 11.0472 11.5768L11.307 12.0353Z" fill="#FFBE00"/>
<path d="M40.6365 6.96111C40.2935 6.96111 40.0233 7.24242 40.0233 7.58626C40.0233 7.93009 40.3039 8.21141 40.6365 8.21141C40.9795 8.21141 41.2601 7.93009 41.2601 7.58626C41.2601 7.24242 40.9795 6.96111 40.6365 6.96111ZM37.0197 11.6185C36.8742 11.7019 36.7807 11.8165 36.7807 11.8165C36.7807 11.8165 37.0405 12.1186 37.3627 12.1186C37.6849 12.1186 37.9447 11.8165 37.9447 11.8165C37.9447 11.8165 37.8512 11.7019 37.7056 11.6185C37.9343 11.5247 38.0902 11.3789 38.0902 11.3789C38.0902 11.3789 37.9343 11.233 37.7056 11.1392C37.8512 11.0559 37.9447 10.9412 37.9447 10.9412C37.9447 10.9412 37.6849 10.6391 37.3627 10.6391C37.0405 10.6391 36.7807 10.9412 36.7807 10.9412C36.7807 10.9412 36.8742 11.0559 37.0197 11.1392C36.791 11.233 36.6352 11.3789 36.6352 11.3789C36.6352 11.3789 36.791 11.5351 37.0197 11.6185ZM34.9203 12.3791C34.9203 12.3791 34.6604 12.0769 34.3383 12.0769C34.0161 12.0769 33.7562 12.3791 33.7562 12.3791C33.7562 12.3791 33.8498 12.4937 33.9953 12.5771C33.7666 12.6708 33.6107 12.8167 33.6107 12.8167C33.6107 12.8167 33.7666 12.9626 33.9953 13.0564C33.8498 13.1397 33.7562 13.2543 33.7562 13.2543C33.7562 13.2543 34.0161 13.5565 34.3383 13.5565C34.6604 13.5565 34.9203 13.2543 34.9203 13.2543C34.9203 13.2543 34.8267 13.1397 34.6812 13.0564C34.9099 12.9626 35.0658 12.8167 35.0658 12.8167C35.0658 12.8167 34.9099 12.6708 34.6812 12.5771C34.8267 12.4833 34.9203 12.3791 34.9203 12.3791ZM37.6849 15.3277C37.6849 15.3277 37.5913 15.2131 37.4458 15.1298C37.6745 15.036 37.8304 14.8901 37.8304 14.8901C37.8304 14.8901 37.6745 14.7443 37.4458 14.6505C37.5913 14.5671 37.6849 14.4525 37.6849 14.4525C37.6849 14.4525 37.425 14.1504 37.1028 14.1504C36.7807 14.1504 36.5208 14.4525 36.5208 14.4525C36.5208 14.4525 36.6144 14.5671 36.7599 14.6505C36.5312 14.7443 36.3753 14.8901 36.3753 14.8901C36.3753 14.8901 36.5312 15.036 36.7599 15.1298C36.6144 15.2131 36.5208 15.3277 36.5208 15.3277C36.5208 15.3277 36.7807 15.6299 37.1028 15.6299C37.4146 15.6299 37.6849 15.3277 37.6849 15.3277ZM34.5357 16.3801C34.6812 16.2967 34.7748 16.1821 34.7748 16.1821C34.7748 16.1821 34.5149 15.88 34.1928 15.88C33.8706 15.88 33.6107 16.1821 33.6107 16.1821C33.6107 16.1821 33.7043 16.2967 33.8498 16.3801C33.6211 16.4739 33.4652 16.6197 33.4652 16.6197C33.4652 16.6197 33.6211 16.7656 33.8498 16.8594C33.7043 16.9427 33.6107 17.0573 33.6107 17.0573C33.6107 17.0573 33.8706 17.3595 34.1928 17.3595C34.5149 17.3595 34.7748 17.0573 34.7748 17.0573C34.7748 17.0573 34.6812 16.9427 34.5357 16.8594C34.7644 16.7656 34.9203 16.6197 34.9203 16.6197C34.9203 16.6197 34.7748 16.4739 34.5357 16.3801ZM31.5633 15.4736C31.7088 15.3903 31.8023 15.2756 31.8023 15.2756C31.8023 15.2756 31.5425 14.9735 31.2203 14.9735C30.8981 14.9735 30.6383 15.2756 30.6383 15.2756C30.6383 15.2756 30.7318 15.3903 30.8773 15.4736C30.6487 15.5674 30.4928 15.7133 30.4928 15.7133C30.4928 15.7133 30.6487 15.8591 30.8773 15.9529C30.7318 16.0362 30.6383 16.1509 30.6383 16.1509C30.6383 16.1509 30.8981 16.453 31.2203 16.453C31.5425 16.453 31.8023 16.1509 31.8023 16.1509C31.8023 16.1509 31.7088 16.0362 31.5633 15.9529C31.7919 15.8591 31.9478 15.7133 31.9478 15.7133C31.9478 15.7133 31.7919 15.5674 31.5633 15.4736ZM30.4096 19.0161C30.4096 19.0161 30.3161 18.9015 30.1706 18.8182C30.3993 18.7244 30.5552 18.5785 30.5552 18.5785C30.5552 18.5785 30.3993 18.4327 30.1706 18.3389C30.3161 18.2555 30.4096 18.1409 30.4096 18.1409C30.4096 18.1409 30.1498 17.8388 29.8276 17.8388C29.5054 17.8388 29.2456 18.1409 29.2456 18.1409C29.2456 18.1409 29.3392 18.2555 29.4847 18.3389C29.256 18.4327 29.1001 18.5785 29.1001 18.5785C29.1001 18.5785 29.256 18.7244 29.4847 18.8182C29.3392 18.9015 29.2456 19.0161 29.2456 19.0161C29.2456 19.0161 29.5054 19.3183 29.8276 19.3183C30.1498 19.3183 30.4096 19.0161 30.4096 19.0161ZM25.3066 19.5371C25.3066 19.5371 25.5664 19.8393 25.8886 19.8393C26.2108 19.8393 26.4706 19.5371 26.4706 19.5371C26.4706 19.5371 26.3771 19.4225 26.2316 19.3391C26.4602 19.2454 26.6161 19.0995 26.6161 19.0995C26.6161 19.0995 26.4602 18.9536 26.2316 18.8599C26.3771 18.7765 26.4706 18.6619 26.4706 18.6619C26.4706 18.6619 26.2108 18.3597 25.8886 18.3597C25.5664 18.3597 25.3066 18.6619 25.3066 18.6619C25.3066 18.6619 25.4001 18.7765 25.5457 18.8599C25.317 18.9536 25.1611 19.0995 25.1611 19.0995C25.1611 19.0995 25.317 19.2454 25.5457 19.3391C25.4001 19.4329 25.3066 19.5371 25.3066 19.5371ZM28.1128 21.3292C28.2583 21.2459 28.3518 21.1312 28.3518 21.1312C28.3518 21.1312 28.092 20.8291 27.7698 20.8291C27.4476 20.8291 27.1878 21.1312 27.1878 21.1312C27.1878 21.1312 27.2813 21.2459 27.4268 21.3292C27.1982 21.423 27.0423 21.5689 27.0423 21.5689C27.0423 21.5689 27.1982 21.7147 27.4268 21.8085C27.2813 21.8919 27.1878 22.0065 27.1878 22.0065C27.1878 22.0065 27.4476 22.3086 27.7698 22.3086C28.092 22.3086 28.3518 22.0065 28.3518 22.0065C28.3518 22.0065 28.2583 21.8919 28.1128 21.8085C28.3414 21.7147 28.4973 21.5689 28.4973 21.5689C28.4973 21.5689 28.3414 21.4126 28.1128 21.3292ZM31.1891 22.0065C31.3346 21.9231 31.4282 21.8085 31.4282 21.8085C31.4282 21.8085 31.1684 21.5063 30.8462 21.5063C30.524 21.5063 30.2641 21.8085 30.2641 21.8085C30.2641 21.8085 30.3577 21.9231 30.5032 22.0065C30.2745 22.1002 30.1186 22.2461 30.1186 22.2461C30.1186 22.2461 30.2745 22.392 30.5032 22.4857C30.3577 22.5691 30.2641 22.6837 30.2641 22.6837C30.2641 22.6837 30.524 22.9859 30.8462 22.9859C31.1684 22.9859 31.4282 22.6837 31.4282 22.6837C31.4282 22.6837 31.3346 22.5691 31.1891 22.4857C31.4178 22.392 31.5737 22.2461 31.5737 22.2461C31.5737 22.2461 31.4178 22.1002 31.1891 22.0065ZM33.7043 19.5684C33.8498 19.485 33.9433 19.3704 33.9433 19.3704C33.9433 19.3704 33.6835 19.0682 33.3613 19.0682C33.0391 19.0682 32.7793 19.3704 32.7793 19.3704C32.7793 19.3704 32.8728 19.485 33.0183 19.5684C32.7897 19.6621 32.6338 19.808 32.6338 19.808C32.6338 19.808 32.7897 19.9539 33.0183 20.0477C32.8728 20.131 32.7793 20.2456 32.7793 20.2456C32.7793 20.2456 33.0391 20.5478 33.3613 20.5478C33.6835 20.5478 33.9433 20.2456 33.9433 20.2456C33.9433 20.2456 33.8498 20.131 33.7043 20.0477C33.9329 19.9539 34.0888 19.808 34.0888 19.808C34.0888 19.808 33.9329 19.6517 33.7043 19.5684ZM38.2149 17.5366C38.3604 17.4533 38.454 17.3387 38.454 17.3387C38.454 17.3387 38.1941 17.0365 37.8719 17.0365C37.5497 17.0365 37.2899 17.3387 37.2899 17.3387C37.2899 17.3387 37.3835 17.4533 37.529 17.5366C37.3003 17.6304 37.1444 17.7763 37.1444 17.7763C37.1444 17.7763 37.3003 17.9221 37.529 18.0159C37.3835 18.0993 37.2899 18.2139 37.2899 18.2139C37.2899 18.2139 37.5497 18.516 37.8719 18.516C38.1941 18.516 38.454 18.2139 38.454 18.2139C38.454 18.2139 38.3604 18.0993 38.2149 18.0159C38.4436 17.9221 38.5995 17.7763 38.5995 17.7763C38.5995 17.7763 38.4436 17.62 38.2149 17.5366ZM23.4151 21.3709C23.5606 21.2875 23.6541 21.1729 23.6541 21.1729C23.6541 21.1729 23.3943 20.8708 23.0721 20.8708C22.7499 20.8708 22.4901 21.1729 22.4901 21.1729C22.4901 21.1729 22.5836 21.2875 22.7291 21.3709C22.5005 21.4647 22.3446 21.6105 22.3446 21.6105C22.3446 21.6105 22.5005 21.7564 22.7291 21.8502C22.5836 21.9335 22.4901 22.0481 22.4901 22.0481C22.4901 22.0481 22.7499 22.3503 23.0721 22.3503C23.3943 22.3503 23.6541 22.0481 23.6541 22.0481C23.6541 22.0481 23.5606 21.9335 23.4151 21.8502C23.6437 21.7564 23.7996 21.6105 23.7996 21.6105C23.7996 21.6105 23.6437 21.4647 23.4151 21.3709ZM26.4187 24.3404C26.5642 24.257 26.6577 24.1424 26.6577 24.1424C26.6577 24.1424 26.3979 23.8402 26.0757 23.8402C25.7535 23.8402 25.4937 24.1424 25.4937 24.1424C25.4937 24.1424 25.5872 24.257 25.7327 24.3404C25.5041 24.4341 25.3482 24.58 25.3482 24.58C25.3482 24.58 25.5041 24.7259 25.7327 24.8197C25.5872 24.903 25.4937 25.0176 25.4937 25.0176C25.4937 25.0176 25.7535 25.3198 26.0757 25.3198C26.3979 25.3198 26.6577 25.0176 26.6577 25.0176C26.6577 25.0176 26.5642 24.903 26.4187 24.8197C26.6473 24.7259 26.8032 24.58 26.8032 24.58C26.8032 24.58 26.6473 24.4237 26.4187 24.3404ZM22.594 24.8822C22.7395 24.7988 22.833 24.6842 22.833 24.6842C22.833 24.6842 22.5732 24.382 22.251 24.382C21.9288 24.382 21.669 24.6842 21.669 24.6842C21.669 24.6842 21.7625 24.7988 21.908 24.8822C21.6794 24.9759 21.5235 25.1218 21.5235 25.1218C21.5235 25.1218 21.6794 25.2677 21.908 25.3615C21.7625 25.4448 21.669 25.5594 21.669 25.5594C21.669 25.5594 21.9288 25.8616 22.251 25.8616C22.5732 25.8616 22.833 25.5594 22.833 25.5594C22.833 25.5594 22.7395 25.4448 22.594 25.3615C22.8226 25.2677 22.9785 25.1218 22.9785 25.1218C22.9785 25.1218 22.833 24.9655 22.594 24.8822ZM19.476 22.6733C19.6215 22.5899 19.7151 22.4753 19.7151 22.4753C19.7151 22.4753 19.4553 22.1732 19.1331 22.1732C18.8109 22.1732 18.5511 22.4753 18.5511 22.4753C18.5511 22.4753 18.6446 22.5899 18.7901 22.6733C18.5614 22.7671 18.4055 22.9129 18.4055 22.9129C18.4055 22.9129 18.5614 23.0588 18.7901 23.1526C18.6446 23.2359 18.5511 23.3505 18.5511 23.3505C18.5511 23.3505 18.8109 23.6527 19.1331 23.6527C19.4553 23.6527 19.7151 23.3505 19.7151 23.3505C19.7151 23.3505 19.6215 23.2359 19.476 23.1526C19.7047 23.0588 19.8606 22.9129 19.8606 22.9129C19.8606 22.9129 19.7047 22.7567 19.476 22.6733ZM15.0486 25.5282C14.9031 25.6115 14.8095 25.7261 14.8095 25.7261C14.8095 25.7261 15.0693 26.0283 15.3915 26.0283C15.7137 26.0283 15.9736 25.7261 15.9736 25.7261C15.9736 25.7261 15.88 25.6115 15.7345 25.5282C15.9632 25.4344 16.1191 25.2885 16.1191 25.2885C16.1191 25.2885 15.9632 25.1427 15.7345 25.0489C15.88 24.9655 15.9736 24.8509 15.9736 24.8509C15.9736 24.8509 15.7137 24.5488 15.3915 24.5488C15.0693 24.5488 14.8095 24.8509 14.8095 24.8509C14.8095 24.8509 14.9031 24.9655 15.0486 25.0489C14.8199 25.1427 14.664 25.2885 14.664 25.2885C14.664 25.2885 14.8199 25.4344 15.0486 25.5282ZM19.0291 26.5909C19.1746 26.5076 19.2682 26.393 19.2682 26.393C19.2682 26.393 19.0084 26.0908 18.6862 26.0908C18.364 26.0908 18.1041 26.393 18.1041 26.393C18.1041 26.393 18.1977 26.5076 18.3432 26.5909C18.1145 26.6847 17.9586 26.8306 17.9586 26.8306C17.9586 26.8306 18.1145 26.9764 18.3432 27.0702C18.1977 27.1536 18.1041 27.2682 18.1041 27.2682C18.1041 27.2682 18.364 27.5703 18.6862 27.5703C19.0084 27.5703 19.2682 27.2682 19.2682 27.2682C19.2682 27.2682 19.1746 27.1536 19.0291 27.0702C19.2578 26.9764 19.4137 26.8306 19.4137 26.8306C19.4137 26.8306 19.2578 26.6743 19.0291 26.5909ZM18.3744 29.8417C18.5199 29.7584 18.6134 29.6438 18.6134 29.6438C18.6134 29.6438 18.3536 29.3416 18.0314 29.3416C17.7092 29.3416 17.4494 29.6438 17.4494 29.6438C17.4494 29.6438 17.5429 29.7584 17.6884 29.8417C17.4598 29.9355 17.3039 30.0814 17.3039 30.0814C17.3039 30.0814 17.4598 30.2272 17.6884 30.321C17.5429 30.4044 17.4494 30.519 17.4494 30.519C17.4494 30.519 17.7092 30.8211 18.0314 30.8211C18.3536 30.8211 18.6134 30.519 18.6134 30.519C18.6134 30.519 18.5199 30.4044 18.3744 30.321C18.603 30.2272 18.7589 30.0814 18.7589 30.0814C18.7589 30.0814 18.603 29.9355 18.3744 29.8417ZM15.3396 29.3729C15.3396 29.3729 15.246 29.2582 15.1005 29.1749C15.3292 29.0811 15.4851 28.9352 15.4851 28.9352C15.4851 28.9352 15.3292 28.7894 15.1005 28.6956C15.246 28.6123 15.3396 28.4976 15.3396 28.4976C15.3396 28.4976 15.0797 28.1955 14.7576 28.1955C14.4354 28.1955 14.1755 28.4976 14.1755 28.4976C14.1755 28.4976 14.2691 28.6123 14.4146 28.6956C14.1859 28.7894 14.03 28.9352 14.03 28.9352C14.03 28.9352 14.1859 29.0811 14.4146 29.1749C14.2691 29.2582 14.1755 29.3729 14.1755 29.3729C14.1755 29.3729 14.4354 29.675 14.7576 29.675C15.0693 29.6854 15.3396 29.3729 15.3396 29.3729ZM16.1294 32.4465C16.275 32.3632 16.3685 32.2486 16.3685 32.2486C16.3685 32.2486 16.1087 31.9464 15.7865 31.9464C15.4643 31.9464 15.2045 32.2486 15.2045 32.2486C15.2045 32.2486 15.298 32.3632 15.4435 32.4465C15.2149 32.5403 15.059 32.6862 15.059 32.6862C15.059 32.6862 15.2149 32.832 15.4435 32.9258C15.298 33.0092 15.2045 33.1238 15.2045 33.1238C15.2045 33.1238 15.4643 33.4259 15.7865 33.4259C16.1087 33.4259 16.3685 33.1238 16.3685 33.1238C16.3685 33.1238 16.275 33.0092 16.1294 32.9258C16.3581 32.832 16.514 32.6862 16.514 32.6862C16.514 32.6862 16.3581 32.5299 16.1294 32.4465Z" fill="#0F2647"/>
</g>
</g>
<defs>
<clipPath id="clip0_745_20963">
<rect width="50" height="50" fill="white"/>
</clipPath>
<clipPath id="clip1_745_20963">
<rect width="50" height="41" fill="white" transform="translate(0 5)"/>
</clipPath>
</defs>
</svg>
