<?xml version="1.0" encoding="UTF-8"?>
<svg width="24px" height="24px" viewBox="0 0 24 24" version="1.1" xmlns="http://www.w3.org/2000/svg" xmlns:xlink="http://www.w3.org/1999/xlink">
    <title>table_processor</title>
    <g id="页面-1" stroke="none" stroke-width="1" fill="none" fill-rule="evenodd">
        <g id="table_processor" fill-rule="nonzero">
            <rect id="矩形" fill-opacity="0" fill="#D8D8D8" x="0" y="0" width="24" height="24"></rect>
            <path d="M16.5862409,8.238125 C15.3635464,8.238125 14.4700389,8.72673097 13.8900428,9.7039429 L13.8900428,8.44541238 L12.714375,8.44541238 L12.714375,19.031875 L13.9684206,19.031875 L13.9684206,14.7084525 C14.5954435,15.7745019 15.488951,16.3075266 16.6489432,16.3075266 C17.8089354,16.3075266 18.7024429,15.8929518 19.3608169,15.0934148 C19.9564886,14.3531027 20.27,13.4203095 20.27,12.2950352 C20.27,11.1401483 19.9564886,10.2073551 19.3451413,9.46704304 C18.6710918,8.63789352 17.7462331,8.238125 16.5862409,8.238125 Z M16.4294852,9.21533693 C17.2916416,9.21533693 17.9500156,9.51146176 18.4046071,10.1333239 C18.7808208,10.6663486 18.9846032,11.3918544 18.9846032,12.2950352 C18.9846032,13.2130221 18.7808208,13.9385279 18.373256,14.4715526 C17.9186644,15.0341898 17.2602905,15.3303146 16.3824585,15.3303146 C15.6300311,15.3303146 15.050035,15.0489961 14.611119,14.5159714 C14.1408519,13.9681404 13.9213939,13.2574408 13.9213939,12.3690664 L13.9213939,12.2210039 C13.9213939,11.3622419 14.1251763,10.6515424 14.5327412,10.1185177 C14.9716572,9.51146176 15.6143555,9.21533693 16.4294852,9.21533693 Z M3,5 L3,6.07332808 L6.71969231,6.07332808 L6.71969231,15.79375 L7.91530769,15.79375 L7.91530769,6.07332808 L11.635,6.07332808 L11.635,5 L3,5 Z" id="形状" fill="#2C65FF"></path>
        </g>
    </g>
</svg>