<?xml version="1.0" encoding="UTF-8"?>
<svg width="40px" height="40px" viewBox="0 0 40 40" version="1.1" xmlns="http://www.w3.org/2000/svg" xmlns:xlink="http://www.w3.org/1999/xlink">
    <title>TencentDB for MongoDB</title>
    <g id="TencentDB-for-MongoDB" stroke="none" stroke-width="1" fill="none" fill-rule="evenodd">
        <g id="tencent-mongo" transform="translate(4.000000, 4.000000)" fill-rule="nonzero">
            <rect id="Rectangle-Copy" fill="#444444" opacity="0" x="0" y="0" width="32" height="32"></rect>
            <g id="Group-2" transform="translate(2.000000, 2.000000)" fill="#00A4FF">
                <g id="XMLID_2444_" transform="translate(15.960762, 11.000000)">
                    <path d="M11.9392377,9.1 C11.6392377,6.4 10.0392377,4.1 7.13923766,1.1 L6.03923766,0 C6.03923766,0 4.23923766,1.8 4.13923766,1.9 C3.23923766,3 2.03923766,4.2 1.03923766,5.9 C0.539237662,6.9 0.0392376617,8.3 0.0392376617,9.1 C-0.260762338,12.1 1.13923766,13.9 4.93923766,15 L4.93923766,17 L6.93923766,17 L6.93923766,15 C10.7392377,13.9 12.2392377,12.1 11.9392377,9.1 Z M5.03923766,13 C3.63923766,12.6 1.73923766,12.6 2.03923766,9 C2.03923766,7.5 3.53923766,4.7 5.13923766,3.4 L5.03923766,13 Z M7.03923766,13.1 L7.03923766,3.3 C9.33923766,5.8 9.83923766,7.2 10.0392377,9.1 C10.3392377,11.3 9.63923766,12.2 7.03923766,13.1 Z" id="Shape"></path>
                </g>
                <g id="Group">
                    <path d="M12,0 C5.4,0 0,2.2 0,5 L0,23 L2,23 L2,16.8 C4.1,18.1 7.8,19 12,19 C12.8,19 13.6,19 14.4,18.9 C14.6,18.2 14.8,17.5 15.1,16.9 C14.1,17 13.1,17.1 12,17.1 C6.5,17.1 2,15.8 2,14.1 L2,7.8 C4.1,9.1 7.8,10 12,10 C16.2,10 19.9,9.1 22,7.8 L22,9 L24,9 L24,5 C24,2.2 18.6,0 12,0 Z M12,8 C6.5,8 2,6.7 2,5 C2,3.3 6.5,2 12,2 C17.5,2 22,3.3 22,5 C22,6.7 17.5,8 12,8 Z" id="Shape"></path>
                    <path d="M14.9,25.9 C14,26 13,26 12,26 C6.5,26 2,24.7 2,23 L0,23 C0,25.8 5.4,28 12,28 C13.5,28 15,27.9 16.4,27.7 C15.8,27.2 15.3,26.6 14.9,25.9 Z" id="Shape"></path>
                </g>
            </g>
        </g>
    </g>
</svg>