<svg width="20" height="20" viewBox="0 0 20 20" fill="none" xmlns="http://www.w3.org/2000/svg">
<rect width="20" height="20" rx="2.5" fill="#E8F3FF"/>
<path d="M14.4905 4.15283H17.7634V15.7759H14.4905V14.6186H16.4692V5.31017H14.4905V4.15283Z" fill="#3B47E5"/>
<path d="M13.8143 9.11084C14.0881 9.11084 14.3121 9.19795 14.5112 9.39706C14.6978 9.58373 14.7974 9.82017 14.7974 10.094C14.7974 10.3677 14.6978 10.5917 14.5112 10.7908C14.3121 10.9651 14.0881 11.0646 13.8143 11.0646C13.5405 11.0646 13.3041 10.9651 13.1298 10.7908C12.9307 10.5917 12.8436 10.3677 12.8436 10.094C12.8436 9.82017 12.9307 9.58373 13.1298 9.39706C13.3041 9.19795 13.5405 9.11084 13.8143 9.11084Z" fill="#3B47E5"/>
<path d="M10.0909 9.11084C10.3647 9.11084 10.5887 9.19795 10.7878 9.39706C10.9745 9.58373 11.074 9.82017 11.074 10.094C11.074 10.3677 10.9745 10.5917 10.7878 10.7908C10.5887 10.9651 10.3647 11.0646 10.0909 11.0646C9.81713 11.0646 9.58068 10.9651 9.40646 10.7908C9.20735 10.5917 9.12024 10.3677 9.12024 10.094C9.12024 9.82017 9.20735 9.58373 9.40646 9.39706C9.58068 9.19795 9.81713 9.11084 10.0909 9.11084Z" fill="#3B47E5"/>
<path d="M6.36752 9.11084C6.6413 9.11084 6.86529 9.19795 7.06441 9.39706C7.25107 9.58373 7.35063 9.82017 7.35063 10.094C7.35063 10.3677 7.25107 10.5917 7.06441 10.7908C6.86529 10.9651 6.6413 11.0646 6.36752 11.0646C6.09374 11.0646 5.8573 10.9651 5.68307 10.7908C5.48396 10.5917 5.39685 10.3677 5.39685 10.094C5.39685 9.82017 5.48396 9.58373 5.68307 9.39706C5.8573 9.19795 6.09374 9.11084 6.36752 9.11084Z" fill="#3B47E5"/>
<path d="M2.43555 4.15283H5.70844V5.31017H3.72977V14.6186H5.70844V15.7759H2.43555V4.15283Z" fill="#3B47E5"/>
</svg>
