<?xml version="1.0" standalone="no"?><!DOCTYPE svg PUBLIC "-//W3C//DTD SVG 1.1//EN" "http://www.w3.org/Graphics/SVG/1.1/DTD/svg11.dtd"><svg t="1647521551526" class="icon" viewBox="0 0 1024 1024" version="1.1" xmlns="http://www.w3.org/2000/svg" p-id="108661" xmlns:xlink="http://www.w3.org/1999/xlink" width="200" height="200"><defs><style type="text/css"></style></defs><path d="M695.724 834.893H328.277c-66.85 0-112.264-40.795-112.264-108.896 0-95.029 22.286-240.91 145.472-240.91 13.04 0 68.109 58.438 150.517 58.438 82.398 0 137.468-58.438 150.516-58.438 123.186 0 145.471 145.881 145.471 240.91-0.002 68.101-45.407 108.896-112.265 108.896M512.001 512.001c-89.12 0-161.439-72.319-161.439-161.439 0-89.144 72.319-161.454 161.439-161.454 89.135 0 161.438 72.311 161.438 161.454-0.001 89.12-72.303 161.439-161.438 161.439" p-id="108662"></path></svg>