<?xml version="1.0" standalone="no"?><!DOCTYPE svg PUBLIC "-//W3C//DTD SVG 1.1//EN" "http://www.w3.org/Graphics/SVG/1.1/DTD/svg11.dtd"><svg t="1664525745891" class="icon" viewBox="0 0 1024 1024" version="1.1" xmlns="http://www.w3.org/2000/svg" p-id="1728" xmlns:xlink="http://www.w3.org/1999/xlink" width="64" height="64"><path d="M658.261333 634.88a11.861333 11.861333 0 0 1 16.810667 0l83.968 83.968a11.861333 11.861333 0 1 1-16.810667 16.810667l-83.968-83.968a11.861333 11.861333 0 0 1 0-16.810667zM300.842667 277.461333a11.861333 11.861333 0 0 1 16.810666 0l83.968 83.968a11.861333 11.861333 0 0 1-16.810666 16.810667L300.842667 294.272a11.861333 11.861333 0 0 1 0-16.810667z" fill="#4E5969" p-id="1729"></path><path d="M675.584 484.266667l33.024 33.024 3.029333 3.413333 4.693334 4.266667c39.082667 39.168 33.237333 108.458667-13.141334 154.88-46.378667 46.336-115.669333 52.224-154.837333 13.056a85.930667 85.930667 0 0 1-4.309333-4.650667l-3.413334-3.029333-32.981333-33.024a42.666667 42.666667 0 0 1 0-60.330667l107.605333-107.605333a42.666667 42.666667 0 0 1 60.330667 0z m-161.621333-161.621334c1.493333 1.493333 2.944 3.072 4.309333 4.693334l3.413333 2.986666 32.981334 33.024a42.666667 42.666667 0 0 1 0 60.330667l-107.605334 107.605333a42.666667 42.666667 0 0 1-60.330666 0l-33.024-33.024-3.029334-3.370666-4.650666-4.309334c-39.125333-39.125333-33.28-108.458667 13.098666-154.837333 46.378667-46.378667 115.712-52.224 154.837334-13.098667z" fill="#4E5969" p-id="1730"></path></svg>