<svg width="13" height="13" viewBox="0 0 13 13" fill="none" xmlns="http://www.w3.org/2000/svg">
<path fill-rule="evenodd" clip-rule="evenodd" d="M0.660799 1.00461C0.541452 0.885267 0.541452 0.691767 0.660799 0.57242C0.780146 0.453073 0.973646 0.453073 1.09299 0.57242L2.38556 1.86499C3.56907 0.864582 5.19952 0.789403 6.14528 1.73516C6.17127 1.76115 6.19649 1.78766 6.22094 1.81466C6.23891 1.83025 6.25646 1.84659 6.27355 1.86367L7.26177 2.85189C7.65229 3.24242 7.65229 3.87558 7.26177 4.26611L5.84305 5.68483C5.83155 5.69663 5.81996 5.70839 5.80826 5.72008C5.79657 5.73178 5.78481 5.74337 5.77301 5.75487L4.35404 7.17383C3.96352 7.56436 3.33035 7.56436 2.93983 7.17383L1.95161 6.18561C1.93384 6.16784 1.91688 6.14957 1.90073 6.13085C1.87446 6.10699 1.84865 6.08241 1.82334 6.0571C0.877526 5.11128 0.952771 3.4807 1.95335 2.29717L0.660799 1.00461ZM6.95579 11.1853C6.98024 11.2123 7.00546 11.2388 7.03145 11.2648C7.97734 12.2107 9.6081 12.1353 10.7916 11.1345L12.0217 12.3646C12.1411 12.4839 12.3346 12.4839 12.4539 12.3646C12.5732 12.2452 12.5732 12.0517 12.4539 11.9324L11.2238 10.7023C12.224 9.51879 12.2991 7.88852 11.3534 6.94283C11.3281 6.91752 11.3023 6.89294 11.276 6.86908C11.2598 6.85036 11.2429 6.83209 11.2251 6.81432L10.2369 5.8261C9.84638 5.43557 9.21321 5.43557 8.82269 5.8261L7.40372 7.24506C7.39192 7.25656 7.38016 7.26815 7.36847 7.27985C7.35677 7.29154 7.34518 7.30329 7.33368 7.3151L5.91496 8.73382C5.52444 9.12435 5.52444 9.75751 5.91496 10.148L6.90318 11.1363C6.92027 11.1533 6.93782 11.1697 6.95579 11.1853Z" fill="#4E5969"/>
</svg>
