<?xml version="1.0" standalone="no"?>
        <!DOCTYPE svg PUBLIC "-//W3C//DTD SVG 1.1//EN" "http://www.w3.org/Graphics/SVG/1.1/DTD/svg11.dtd">
        <svg class="icon" width="200px" height="200px" viewBox="0 0 1024 1024" version="1.1" xmlns="http://www.w3.org/2000/svg"><g fill="#666666" transform="matrix(1 0 0 1 0 0) scale(0.8, -0.8) translate(0, -900)"><path d="M480-128c265.152 0 480 214.848 480 480 0 265.088-214.848 480-480 480C214.912 832 0 617.088 0 352c0-265.152 214.912-480 480-480z m0 896c229.376 0 416-186.624 416-416S709.376-64 480-64 64 122.624 64 352s186.624 416 416 416zM563.776 352.064L393.6 181.888c-12.48-12.48-12.48-32.768 0-45.248s32.768-12.48 45.248 0l192.768 192.832c12.48 12.48 12.48 32.768 0 45.248L440.128 566.272c-6.272 6.208-14.464 9.344-22.656 9.344s-16.32-3.136-22.592-9.344c-12.48-12.48-12.48-32.768 0-45.248l168.896-168.96z" /></g></svg>