<?xml version="1.0" encoding="UTF-8"?>
<svg width="14px" height="14px" viewBox="0 0 14 14" version="1.1" xmlns="http://www.w3.org/2000/svg" xmlns:xlink="http://www.w3.org/1999/xlink">
    <title>lianjie_</title>
    <g id="缓存管理" stroke="none" stroke-width="1" fill="none" fill-rule="evenodd">
        <g id="缓存管理-查看" transform="translate(-1153.000000, -321.000000)" fill="#595959" fill-rule="nonzero">
            <g id="lianjie_" transform="translate(1153.500000, 321.560305)">
                <path d="M2.75129983,2.16984402 L0.433275563,2.16984402 C0.194974003,2.16984402 0,1.94484402 0,1.66984402 C0,1.39484402 0.194974003,1.16984402 0.433275563,1.16984402 L2.75129983,1.16984402 C2.98960139,1.16984402 3.18457539,1.39484402 3.18457539,1.66984402 C3.18457539,1.94484402 2.98960139,2.16984402 2.75129983,2.16984402 Z M12.6516464,2.16984402 L6.26083189,2.16984402 C6.02253033,2.16984402 5.82755633,1.94484402 5.82755633,1.66984402 C5.82755633,1.39484402 6.02253033,1.16984402 6.26083189,1.16984402 L12.6516464,1.16984402 C12.889948,1.16984402 13.084922,1.39484402 13.084922,1.66984402 C13.084922,1.94484402 12.889948,2.16984402 12.6516464,2.16984402 Z" id="形状"></path>
                <path d="M6.26083189,3.18457539 L2.75129983,3.18457539 C2.51299827,3.18457539 2.31802426,2.98960139 2.31802426,2.75129983 L2.31802426,0.433275563 C2.31802426,0.194974003 2.51299827,0 2.75129983,0 L6.23916811,0 C6.47746967,0 6.67244367,0.194974003 6.67244367,0.433275563 L6.67244367,2.75129983 C6.69410745,2.98960139 6.49913345,3.18457539 6.26083189,3.18457539 L6.26083189,3.18457539 Z M3.18457539,2.31802426 L5.80589255,2.31802426 L5.80589255,0.866551127 L3.18457539,0.866551127 L3.18457539,2.31802426 Z" id="形状"></path>
                <path d="M12.6516464,6.82755633 L10.3336222,6.82755633 C10.0953206,6.82755633 9.90034662,6.60255633 9.90034662,6.32755633 C9.90034662,6.05255633 10.0953206,5.82755633 10.3336222,5.82755633 L12.6516464,5.82755633 C12.889948,5.82755633 13.084922,6.05255633 13.084922,6.32755633 C13.084922,6.60255633 12.889948,6.82755633 12.6516464,6.82755633 Z M6.82409012,6.82755633 L0.433275563,6.82755633 C0.194974003,6.82755633 0,6.60255633 0,6.32755633 C0,6.05255633 0.194974003,5.82755633 0.433275563,5.82755633 L6.82409012,5.82755633 C7.06239168,5.82755633 7.25736568,6.05255633 7.25736568,6.32755633 C7.25736568,6.60255633 7.06239168,6.82755633 6.82409012,6.82755633 Z" id="形状"></path>
                <path d="M10.3336222,7.84228769 L6.82409012,7.84228769 C6.58578856,7.84228769 6.39081456,7.64731369 6.39081456,7.40901213 L6.39081456,5.09098787 C6.39081456,4.85268631 6.58578856,4.65771231 6.82409012,4.65771231 L10.3119584,4.65771231 C10.55026,4.65771231 10.745234,4.85268631 10.745234,5.09098787 L10.745234,7.40901213 C10.7668977,7.64731369 10.5719237,7.84228769 10.3336222,7.84228769 Z M7.25736568,6.97573657 L9.87868284,6.97573657 L9.87868284,5.52426343 L7.25736568,5.52426343 L7.25736568,6.97573657 Z" id="形状"></path>
                <path d="M2.75129983,11.4852686 L0.433275563,11.4852686 C0.194974003,11.4852686 0,11.2602686 0,10.9852686 C0,10.7102686 0.194974003,10.4852686 0.433275563,10.4852686 L2.75129983,10.4852686 C2.98960139,10.4852686 3.18457539,10.7102686 3.18457539,10.9852686 C3.18457539,11.2602686 2.98960139,11.4852686 2.75129983,11.4852686 Z M12.6516464,11.4852686 L6.26083189,11.4852686 C6.02253033,11.4852686 5.82755633,11.2602686 5.82755633,10.9852686 C5.82755633,10.7102686 6.02253033,10.4852686 6.26083189,10.4852686 L12.6516464,10.4852686 C12.889948,10.4852686 13.084922,10.7102686 13.084922,10.9852686 C13.084922,11.2602686 12.889948,11.4852686 12.6516464,11.4852686 Z" id="形状"></path>
                <path d="M6.26083189,12.5 L2.75129983,12.5 C2.51299827,12.5 2.31802426,12.305026 2.31802426,12.0667244 L2.31802426,9.74870017 C2.31802426,9.51039861 2.51299827,9.31542461 2.75129983,9.31542461 L6.23916811,9.31542461 C6.47746967,9.31542461 6.67244367,9.51039861 6.67244367,9.74870017 L6.67244367,12.0667244 C6.69410745,12.305026 6.49913345,12.5 6.26083189,12.5 L6.26083189,12.5 Z M3.18457539,11.6334489 L5.80589255,11.6334489 L5.80589255,10.1819757 L3.18457539,10.1819757 L3.18457539,11.6334489 Z" id="形状"></path>
            </g>
        </g>
    </g>
</svg>