<?xml version="1.0" encoding="UTF-8"?>
<svg width="14px" height="15px" viewBox="0 0 14 15" version="1.1" xmlns="http://www.w3.org/2000/svg" xmlns:xlink="http://www.w3.org/1999/xlink">
    <title>connection</title>
    <g id="控制台" stroke="none" stroke-width="1" fill="none" fill-rule="evenodd">
        <g transform="translate(-23.000000, -298.000000)" id="connection">
            <g transform="translate(23.449072, 298.901165)">
                <path d="M11.1566337,9.32299029 C11.3254159,9.32299029 11.4622409,9.45981531 11.4622409,9.62859752 L11.4622409,12.6846698 C11.4622409,12.853452 11.3254159,12.9902771 11.1566337,12.9902771 C10.9878515,12.9902771 10.8510264,12.853452 10.8510264,12.6846698 L10.8510264,9.62859752 C10.8510264,9.45981531 10.9878515,9.32299029 11.1566337,9.32299029 Z" id="矩形" fill="#D8D8D8" transform="translate(11.156634, 11.156634) rotate(-45.000000) translate(-11.156634, -11.156634) "></path>
                <path d="M1.95770166,0.124058276 C2.12648388,0.124058276 2.2633089,0.260883294 2.2633089,0.429665508 L2.2633089,3.48573782 C2.2633089,3.65452003 2.12648388,3.79134505 1.95770166,3.79134505 C1.78891945,3.79134505 1.65209443,3.65452003 1.65209443,3.48573782 L1.65209443,0.429665508 C1.65209443,0.260883294 1.78891945,0.124058276 1.95770166,0.124058276 Z" id="矩形" fill="#D8D8D8" transform="translate(1.957702, 1.957702) rotate(-45.000000) translate(-1.957702, -1.957702) "></path>
                <polygon id="矩形" fill="#D8D8D8" transform="translate(6.568556, 6.568556) rotate(-45.000000) translate(-6.568556, -6.568556) " points="4.50733309 4.96858933 8.62977917 4.96858933 8.62977917 8.16852293 4.50733309 8.16852293"></polygon>
                <path d="M1.92885158,6.56438498 C1.37656683,6.56438498 0.928851575,6.11666973 0.928851575,5.56438498 L0.928851575,4.166829 L0.932851575,4.09646279 L0.928851575,3.98492389 C0.928851575,2.61308972 2.19762678,1.49137828 3.79875649,1.41017035 L3.98492389,1.40546279 C5.67274602,1.40546279 7.0409962,2.56032686 7.0409962,3.98492389 C7.0409962,4.02222756 7.04005803,4.05934629 7.0382005,4.09626417 C7.04015502,4.11914731 7.0409962,4.14288992 7.0409962,4.166829 L7.0409962,5.56438498 C7.0409962,6.11666973 6.59328095,6.56438498 6.0409962,6.56438498 L1.92885158,6.56438498 Z" id="形状结合" fill="#666666" transform="translate(3.984924, 3.984924) rotate(-45.000000) translate(-3.984924, -3.984924) "></path>
                <path d="M7.1361426,11.771676 C6.58385785,11.771676 6.1361426,11.3239608 6.1361426,10.771676 L6.1361426,9.37412003 L6.1401426,9.30375382 L6.1361426,9.19221492 C6.1361426,7.82038074 7.4049178,6.69866931 9.00604751,6.61746138 L9.19221492,6.61275382 C10.880037,6.61275382 12.2482872,7.76761789 12.2482872,9.19221492 C12.2482872,9.22951859 12.2473491,9.26663731 12.2454915,9.30355519 C12.247446,9.32643834 12.2482872,9.35018095 12.2482872,9.37412003 L12.2482872,10.771676 C12.2482872,11.3239608 11.800572,11.771676 11.2482872,11.771676 L7.1361426,11.771676 Z" id="形状结合" fill="#666666" transform="translate(9.192215, 9.192215) rotate(-225.000000) translate(-9.192215, -9.192215) "></path>
            </g>
        </g>
    </g>
</svg>