<?xml version="1.0" standalone="no"?><!DOCTYPE svg PUBLIC "-//W3C//DTD SVG 1.1//EN" "http://www.w3.org/Graphics/SVG/1.1/DTD/svg11.dtd"><svg t="1653298889783" class="icon" viewBox="0 0 1024 1024" version="1.1" xmlns="http://www.w3.org/2000/svg" p-id="3493" xmlns:xlink="http://www.w3.org/1999/xlink" width="64" height="64"><defs><style type="text/css">@font-face { font-family: feedback-iconfont; src: url("//at.alicdn.com/t/font_1031158_u69w8yhxdu.woff2?t=1630033759944") format("woff2"), url("//at.alicdn.com/t/font_1031158_u69w8yhxdu.woff?t=1630033759944") format("woff"), url("//at.alicdn.com/t/font_1031158_u69w8yhxdu.ttf?t=1630033759944") format("truetype"); }
</style></defs><path d="M157.422933 327.68c64.170667 0 121.787733-40.5504 145.749334-102.4h681.028266a40.209067 40.209067 0 0 0 39.389867-40.96c0-22.596267-17.6128-40.96-39.389867-40.96H312.9344C303.104 62.6688 237.568 0 157.422933 0 70.519467 0 0 73.386667 0 163.84s70.519467 163.84 157.422933 163.84z m0-245.76c28.125867 0 54.135467 15.633067 68.1984 40.96 14.062933 25.3952 14.062933 56.661333 0 81.92-14.062933 25.3952-40.072533 40.96-68.266666 40.96-43.4176 0-78.711467-36.6592-78.6432-81.92 0-45.2608 35.2256-81.92 78.711466-81.92z m827.1872 614.4h-669.696c-1.911467 0-3.4816 0.887467-5.256533 1.092267C292.181333 624.64 229.512533 573.576533 157.422933 573.44 70.519467 573.44 0 646.826667 0 737.28s70.519467 163.84 157.422933 163.84c72.0896-0.136533 134.826667-51.2 152.234667-123.972267 1.774933 0.2048 3.413333 1.092267 5.256533 1.092267h669.696a40.209067 40.209067 0 0 0 39.389867-40.96c0-22.596267-17.6128-40.96-39.389867-40.96zM157.422933 819.2c-28.125867 0-54.135467-15.633067-68.130133-40.96a84.855467 84.855467 0 0 1 0-81.92c14.062933-25.3952 40.072533-40.96 68.1984-40.96 43.485867 0 78.711467 36.6592 78.711467 81.92 0 45.2608-35.293867 81.92-78.779734 81.92z m827.1872-409.6H629.76a40.209067 40.209067 0 0 0-39.3216 40.96c0 22.596267 17.6128 40.96 39.3216 40.96h354.850133A40.209067 40.209067 0 0 0 1024 450.56c0-22.596267-17.6128-40.96-39.389867-40.96z m0 532.48H629.76a40.209067 40.209067 0 0 0-39.3216 40.96c0 22.596267 17.6128 40.96 39.3216 40.96h354.850133a40.209067 40.209067 0 0 0 39.389867-40.96c0-22.596267-17.6128-40.96-39.389867-40.96z" fill="#4E5969" p-id="3494"></path></svg>