<?xml version="1.0" standalone="no"?><!DOCTYPE svg PUBLIC "-//W3C//DTD SVG 1.1//EN" "http://www.w3.org/Graphics/SVG/1.1/DTD/svg11.dtd"><svg t="1653298885958" class="icon" viewBox="0 0 1024 1024" version="1.1" xmlns="http://www.w3.org/2000/svg" p-id="3348" xmlns:xlink="http://www.w3.org/1999/xlink" width="64" height="64"><defs><style type="text/css">@font-face { font-family: feedback-iconfont; src: url("//at.alicdn.com/t/font_1031158_u69w8yhxdu.woff2?t=1630033759944") format("woff2"), url("//at.alicdn.com/t/font_1031158_u69w8yhxdu.woff?t=1630033759944") format("woff"), url("//at.alicdn.com/t/font_1031158_u69w8yhxdu.ttf?t=1630033759944") format("truetype"); }
</style></defs><path d="M796.672 341.333333H227.328c-12.424533 0-22.528 15.291733-22.528 34.133334s10.103467 34.133333 22.528 34.133333h569.344c12.4928 0 22.528-15.291733 22.528-34.133333s-10.0352-34.133333-22.528-34.133334zM225.8944 546.133333H661.504C673.245867 546.133333 682.666667 530.773333 682.666667 512c0-18.8416-9.4208-34.133333-21.0944-34.133333H225.8944C214.289067 477.866667 204.8 493.1584 204.8 512s9.4208 34.133333 21.0944 34.133333zM796.672 614.4H227.328c-12.424533 0-22.528 15.291733-22.528 34.133333 0 18.909867 10.103467 34.133333 22.528 34.133334h569.344c12.4928 0 22.528-15.223467 22.528-34.133334 0-18.8416-10.0352-34.133333-22.528-34.133333zM661.572267 819.2H225.8944c-11.605333 0-21.0944 15.291733-21.0944 34.133333 0 18.909867 9.4208 34.133333 21.0944 34.133334H661.504c11.6736 0 21.0944-15.223467 21.0944-34.133334 0-18.8416-9.4208-34.133333-21.0944-34.133333z" fill="#4E5969" p-id="3349"></path><path d="M785.066667 122.6752h-35.362134a83.694933 83.694933 0 0 0-76.322133-49.152h-67.720533A96.119467 96.119467 0 0 0 512 0c-45.533867 0-83.831467 31.5392-93.661867 73.591467h-67.720533c-34.065067 0-63.214933 20.206933-76.322133 49.083733h-24.098134C153.258667 122.6752 68.266667 201.386667 68.266667 291.2256v564.224C68.266667 945.220267 153.326933 1024 250.197333 1024h534.9376c94.0032 0 170.666667-75.639467 170.5984-168.5504V291.2256c0-92.9792-76.526933-168.618667-170.666666-168.618667z m-408.098134 16.247467h73.250134a17.8176 17.8176 0 0 0 18.2272-17.339734c0-23.483733 20.002133-42.530133 44.509866-42.530133 24.576 0 44.578133 19.114667 44.578134 42.530133 0 9.557333 8.123733 17.339733 18.158933 17.339734h73.250133c18.773333 0 34.133333 14.609067 34.133334 32.5632a33.450667 33.450667 0 0 1-34.133334 32.5632H376.968533a33.3824 33.3824 0 0 1-34.133333-32.5632 33.450667 33.450667 0 0 1 34.133333-32.5632z m514.048 702.6688c0 64.1024-54.0672 116.258133-120.4224 116.258133H264.942933c-69.905067 0-131.140267-54.340267-131.140266-116.258133V320.3072c0-61.986133 61.2352-116.258133 131.072-116.258133h16.657066c4.437333 38.0928 37.614933 67.9936 78.301867 67.9936h305.152c40.618667 0 73.796267-29.9008 78.2336-67.9936h27.374933c66.3552 0 120.354133 52.155733 120.354134 116.258133v521.284267z" fill="#4E5969" p-id="3350"></path></svg>