<?xml version="1.0" encoding="UTF-8"?>
<svg width="15px" height="15px" viewBox="0 0 15 15" version="1.1" xmlns="http://www.w3.org/2000/svg" xmlns:xlink="http://www.w3.org/1999/xlink">
    <title>assignment_icon_connect_shared mining</title>
    <g id="数据管理" stroke="none" stroke-width="1" fill="none" fill-rule="evenodd" fill-opacity="0.6">
        <g id="数据同步" transform="translate(-1128.000000, -644.000000)" fill="#000000" fill-rule="nonzero">
            <g id="assignment_icon_connect_shared-mining" transform="translate(1128.000000, 644.000000)">
                <path d="M2.30627306,4.8 C3.24521828,4.79957764 4.08993542,4.20610854 4.44130535,3.3 L14.4170895,3.3 C14.7355193,3.3 14.9936577,3.03137085 14.9936577,2.7 C14.9936577,2.36862915 14.7355193,2.1 14.4170895,2.1 L4.58371771,2.1 C4.44015221,0.918 3.48131919,0 2.30627306,0 C1.03255362,0 0,1.0745166 0,2.4 C0,3.7254834 1.03255362,4.8 2.30627306,4.8 Z M2.30627306,1.19999996 C2.71835206,1.20010718 3.09907381,1.42898211 3.30502411,1.80040981 C3.51097442,2.17183751 3.51086452,2.62938929 3.30473583,3.00070981 C3.09860713,3.37203033 2.71777549,3.60070718 2.30569649,3.60060004 C1.66867756,3.60043431 1.15240075,3.06290739 1.15255993,2.4 C1.15271918,1.73709261 1.66925413,1.19983431 2.30627306,1.19999996 L2.30627306,1.19999996 Z M14.4234317,10.2 L4.61254613,10.2 C4.58544742,10.2 4.56180812,10.2126 4.53586255,10.2162 C4.280727,9.15043255 3.36171915,8.40181847 2.30627306,8.4 C1.03255362,8.4 0,9.4745166 0,10.8 C0,12.1254834 1.03255362,13.2 2.30627306,13.2 C3.36171915,13.1981815 4.280727,12.4495675 4.53586255,11.3838 C4.56180812,11.3874 4.58544742,11.4 4.61254613,11.4 L14.4234317,11.4 C14.7418616,11.4 15,11.1313708 15,10.8 C15,10.4686292 14.7418616,10.2 14.4234317,10.2 L14.4234317,10.2 Z M2.30627306,12 C1.89419406,11.9998928 1.51347231,11.7710179 1.307522,11.3995902 C1.10157169,11.0281625 1.10168159,10.5706107 1.30781028,10.1992902 C1.51393898,9.82796966 1.89477063,9.59929281 2.30684963,9.59939996 C2.94386856,9.5995657 3.46014536,10.1370926 3.45998618,10.8 C3.45982693,11.4629074 2.94329199,12.0001657 2.30627306,12 L2.30627306,12 Z M14.4234317,6 L9.22509225,6 C8.90666239,6 8.64852399,6.26862915 8.64852399,6.6 C8.64852399,6.93137085 8.90666239,7.2 9.22509225,7.2 L14.4234317,7.2 C14.7418616,7.2 15,6.93137085 15,6.6 C15,6.26862915 14.7418616,6 14.4234317,6 Z M14.4234317,13.8 L9.22509225,13.8 C8.90666239,13.8 8.64852399,14.0686292 8.64852399,14.4 C8.64852399,14.7313708 8.90666239,15 9.22509225,15 L14.4234317,15 C14.7418616,15 15,14.7313708 15,14.4 C15,14.0686292 14.7418616,13.8 14.4234317,13.8 Z" id="形状"></path>
            </g>
        </g>
    </g>
</svg>