<?xml version="1.0" standalone="no"?><!DOCTYPE svg PUBLIC "-//W3C//DTD SVG 1.1//EN" "http://www.w3.org/Graphics/SVG/1.1/DTD/svg11.dtd"><svg t="1653298879628" class="icon" viewBox="0 0 1024 1024" version="1.1" xmlns="http://www.w3.org/2000/svg" p-id="3204" xmlns:xlink="http://www.w3.org/1999/xlink" width="64" height="64"><defs><style type="text/css">@font-face { font-family: feedback-iconfont; src: url("//at.alicdn.com/t/font_1031158_u69w8yhxdu.woff2?t=1630033759944") format("woff2"), url("//at.alicdn.com/t/font_1031158_u69w8yhxdu.woff?t=1630033759944") format("woff"), url("//at.alicdn.com/t/font_1031158_u69w8yhxdu.ttf?t=1630033759944") format("truetype"); }
</style></defs><path d="M969.6 192a31.104 31.104 0 0 0-18.048-6.72L511.36 33.28a29.76 29.76 0 0 0-16.704 0L54.4 185.28A29.696 29.696 0 0 0 37.376 192a38.656 38.656 0 0 0-13.632 28.608v586.496c0 16.64 11.008 30.976 25.408 35.008l441.216 146.944c1.408 0.576 2.56 0.96 3.968 1.344l1.28 0.448a31.36 31.36 0 0 0 16.64 0l1.792-0.64 2.176-0.768 442.048-147.328a36.224 36.224 0 0 0 25.472-34.944V220.608A39.488 39.488 0 0 0 969.536 192zM500.544 96.448l349.44 124.928-348.8 119.04-225.152-76.672-118.656-41.152 343.168-126.08zM88.768 264.96l221.44 75.264 161.28 57.28v517.888l-382.72-132.608V264.96z m448 650.432V397.888l196.096-69.568 186.56-63.36v517.888l-382.656 132.48z" fill="#4E5969" p-id="3205"></path></svg>