<?xml version="1.0" encoding="UTF-8"?>
<svg width="15px" height="15px" viewBox="0 0 15 15" version="1.1" xmlns="http://www.w3.org/2000/svg" xmlns:xlink="http://www.w3.org/1999/xlink">
    <title>形状</title>
    <g id="数据管道" stroke="none" stroke-width="1" fill="none" fill-rule="evenodd">
        <g id="数据复制-点击名称（全量+增量）" transform="translate(-1152.000000, -377.000000)" fill="#4E5969" fill-rule="nonzero">
            <path d="M1158.91667,383.916667 L1158.91667,381 L1160.08333,381 L1160.08333,383.916667 L1163,383.916667 L1163,385.083333 L1160.08333,385.083333 L1160.08333,388 L1158.91667,388 L1158.91667,385.083333 L1156,385.083333 L1156,383.916667 L1158.91667,383.916667 L1158.91667,383.916667 Z M1153.66667,377.5 L1165.33333,377.5 C1165.97767,377.5 1166.5,378.022334 1166.5,378.666667 L1166.5,390.333333 C1166.5,390.642753 1166.37708,390.939499 1166.15829,391.158291 C1165.9395,391.377084 1165.64275,391.5 1165.33333,391.5 L1153.66667,391.5 C1153.35725,391.5 1153.0605,391.377084 1152.84171,391.158291 C1152.62292,390.939499 1152.5,390.642753 1152.5,390.333333 L1152.5,378.666667 C1152.5,378.022334 1153.02233,377.5 1153.66667,377.5 Z M1153.66667,378.666667 L1153.66667,390.333333 L1165.33333,390.333333 L1165.33333,378.666667 L1153.66667,378.666667 Z" id="形状"></path>
        </g>
    </g>
</svg>