<?xml version="1.0" standalone="no"?><!DOCTYPE svg PUBLIC "-//W3C//DTD SVG 1.1//EN" "http://www.w3.org/Graphics/SVG/1.1/DTD/svg11.dtd"><svg t="1631534300092" class="icon" viewBox="0 0 1024 1024" version="1.1" xmlns="http://www.w3.org/2000/svg" p-id="3485" xmlns:xlink="http://www.w3.org/1999/xlink" width="64" height="64"><defs><style type="text/css"></style></defs><path d="M903.512747 1024H120.49408A53.111467 53.111467 0 0 1 68.27008 970.069333V485.034667c0-29.764267 23.3472-53.930667 52.224-53.930667h78.301867V323.3792C198.795947 144.725333 339.01568 0 512.003413 0c172.987733 0 313.207467 144.725333 313.207467 323.3792v107.793067h78.301867c28.8768 0 52.224 24.098133 52.224 53.930666v484.9664c0 29.764267-23.3472 53.930667-52.224 53.930667zM772.98688 323.3792c0-148.821333-116.736-269.5168-260.983467-269.5168-144.1792 0-261.051733 120.695467-261.051733 269.5168v107.793067h522.0352V323.3792z m130.525867 161.723733H120.49408v484.9664h783.018667V485.034667zM512.003413 592.827733a26.624 26.624 0 0 1 26.077867 26.965334v215.586133a26.624 26.624 0 0 1-26.077867 26.965333 25.873067 25.873067 0 0 1-18.500266-7.918933 27.2384 27.2384 0 0 1-7.5776-19.0464V619.793067c0-14.882133 11.605333-26.965333 26.077866-26.965334z" fill="#000000" fill-opacity=".6" p-id="3486"></path></svg>