<!-- Generated by IcoMoon.io -->
<svg version="1.1" xmlns="http://www.w3.org/2000/svg" width="32" height="32" viewBox="0 0 32 32">
<title>dinggoushibai</title>
<path fill="#8a8a8a" d="M16 0c8.837 0 16 7.163 16 16s-7.163 16-16 16-16-7.163-16-16 7.163-16 16-16zM21.657 20.243l-4.237-4.237 4.297-4.297c0.183-0.182 0.296-0.435 0.296-0.713 0-0.557-0.451-1.008-1.008-1.008-0.278 0-0.53 0.113-0.712 0.295v0l-4.299 4.298-4.237-4.237c-0.183-0.193-0.441-0.313-0.727-0.313-0.552 0-1 0.448-1 1 0 0.286 0.12 0.544 0.312 0.726l4.237 4.238-4.265 4.267c-0.182 0.182-0.295 0.434-0.295 0.712 0 0.556 0.451 1.007 1.007 1.007 0.278 0 0.53-0.113 0.712-0.295l4.266-4.265 4.237 4.237c0.183 0.193 0.441 0.313 0.727 0.313 0.552 0 1-0.448 1-1 0-0.286-0.12-0.544-0.312-0.726l-0-0z"></path>
</svg>
