<?xml version="1.0" encoding="UTF-8"?>
<svg width="16px" height="16px" viewBox="0 0 16 16" version="1.1" xmlns="http://www.w3.org/2000/svg" xmlns:xlink="http://www.w3.org/1999/xlink">
    <title>编组 10</title>
    <g id="数据管道" stroke="none" stroke-width="1" fill="none" fill-rule="evenodd">
        <g id="数据复制-点击名称（全量+增量）" transform="translate(-1152.000000, -841.000000)" fill="#4E5969" fill-rule="nonzero">
            <g id="编组-10" transform="translate(1152.870665, 841.991221)">
                <path d="M13.95625,14.409375 C13.865625,14.409375 13.684375,14.31875 13.59375,14.31875 L11.328125,12.053125 L9.153125,14.31875 C9.0625,14.409375 8.971875,14.5 8.790625,14.5 C8.7,14.5 8.51875,14.409375 8.428125,14.31875 C8.246875,14.1375 8.246875,13.865625 8.428125,13.684375 L10.69375,11.41875 L8.428125,9.0625 C8.3375,8.88125 8.3375,8.609375 8.428125,8.428125 C8.51875,8.3375 8.609375,8.246875 8.790625,8.246875 C8.971875,8.246875 8.971875,8.3375 9.0625,8.428125 L11.41875,10.784375 L13.684375,8.428125 C13.775,8.3375 13.865625,8.246875 14.046875,8.246875 C14.1375,8.246875 14.31875,8.3375 14.409375,8.3375 C14.5,8.51875 14.5,8.790625 14.409375,8.971875 L12.053125,11.328125 L14.31875,13.503125 C14.5,13.684375 14.5,13.95625 14.31875,14.1375 C14.228125,14.409375 14.046875,14.409375 13.95625,14.409375 Z M5.709375,8.790625 L3.08125,8.790625 C2.809375,8.790625 2.5375,8.51875 2.5375,8.246875 C2.5375,7.975 2.809375,7.703125 3.08125,7.703125 L5.61875,7.703125 C5.890625,7.703125 6.1625,7.975 6.1625,8.246875 C6.253125,8.51875 5.98125,8.790625 5.709375,8.790625 L5.709375,8.790625 Z M4.89375,0.54375 L4.89375,2.628125 C4.89375,2.9 4.621875,3.171875 4.35,3.171875 C4.078125,3.171875 3.80625,2.9 3.80625,2.628125 L3.80625,0.54375 C3.896875,0.271875 4.078125,0 4.440625,0 C4.7125,0 4.89375,0.271875 4.89375,0.54375 L4.89375,0.54375 Z M10.5125,0.54375 L10.5125,2.628125 C10.5125,2.9 10.240625,3.171875 9.96875,3.171875 C9.696875,3.171875 9.425,2.9 9.425,2.628125 L9.425,0.54375 C9.425,0.271875 9.60625,0 9.96875,0 C10.240625,0 10.5125,0.271875 10.5125,0.54375 Z" id="形状"></path>
                <path d="M14.409375,2.809375 C14.409375,1.903125 13.684375,1.178125 12.778125,1.0875 L1.8125,1.0875 C0.90625,1.0875 0,1.8125 0,2.809375 L0,12.6875 C0,13.684375 0.815625,14.5 1.8125,14.5 L7.25,14.5 C7.521875,14.5 7.79375,14.228125 7.79375,13.95625 C7.79375,13.684375 7.521875,13.321875 7.25,13.321875 L1.8125,13.321875 C1.45,13.321875 1.178125,13.05 1.178125,12.6875 L1.178125,6.253125 L14.5,6.253125 L14.5,2.809375 L14.409375,2.809375 Z M1.0875,5.165625 L1.0875,2.809375 C1.0875,2.446875 1.359375,2.175 1.721875,2.175 L12.6875,2.175 C12.959375,2.265625 13.23125,2.5375 13.23125,2.809375 L13.23125,5.165625 L1.0875,5.165625 L1.0875,5.165625 Z" id="形状"></path>
                <path d="M5.709375,11.146875 L3.08125,11.146875 C2.809375,11.146875 2.5375,10.875 2.5375,10.603125 C2.5375,10.33125 2.809375,10.059375 3.08125,10.059375 L5.61875,10.059375 C5.890625,10.059375 6.1625,10.33125 6.1625,10.603125 C6.253125,10.875 5.98125,11.146875 5.709375,11.146875 L5.709375,11.146875 Z" id="路径"></path>
            </g>
        </g>
    </g>
</svg>