<?xml version="1.0" encoding="UTF-8"?>
<svg width="12px" height="12px" viewBox="0 0 12 12" version="1.1" xmlns="http://www.w3.org/2000/svg" xmlns:xlink="http://www.w3.org/1999/xlink">
    <title>mubiaoziduan</title>
    <g id="DAG图" stroke="none" stroke-width="1" fill="none" fill-rule="evenodd">
        <g id="处理节点-字段改名" transform="translate(-902.000000, -661.000000)">
            <g id="mubiaoziduan" transform="translate(903.000000, 662.000000)">
                <path d="M5,0 C7.76142857,0 10,2.23857857 10,5 C10,7.76142857 7.76142857,10 5,10 C2.23857857,10 0,7.76142857 0,5 C0,2.23857857 2.23857857,0 5,0 Z" id="路径" stroke="#2C65FF" stroke-width="0.8"></path>
                <path d="M5.49734009,3.73360479 C5.61085579,3.73360479 5.70288579,3.81910681 5.70288579,3.92457867 L5.70278889,6.62077723 L6.31266932,6.62144017 C6.4398129,6.62144017 6.54288086,6.71719719 6.54288086,6.83532207 L6.54288086,7.51972288 C6.54288086,7.63784777 6.4398129,7.73360479 6.31266932,7.73360479 L3.77309592,7.73360479 C3.64595146,7.73360479 3.54288086,7.63784777 3.54288086,7.51972288 L3.54288086,6.83532207 C3.54288086,6.71719719 3.64595146,6.62144017 3.77309592,6.62144017 L4.38727525,6.62077723 L4.38727525,4.85928179 L4.26906863,4.8599038 C4.14192505,4.8599038 4.03885445,4.76414678 4.03885445,4.6460219 L4.03885445,3.95041669 C4.03885445,3.83229181 4.14192505,3.73653479 4.26906863,3.73653479 L4.56150944,3.73588004 C4.57186909,3.7343823 4.58248421,3.73360479 4.59329313,3.73360479 L5.49734009,3.73360479 Z M5.3678767,2.17624992 C5.46452609,2.17624992 5.54288086,2.25460032 5.54288086,2.35125076 L5.54288086,3.00125176 C5.54288086,3.09790153 5.46452609,3.17624992 5.3678767,3.17624992 L4.71788233,3.17624992 C4.62123094,3.17624992 4.54288086,3.09790153 4.54288086,3.00125176 L4.54288086,2.35125076 C4.54288086,2.25460032 4.62123094,2.17624992 4.71788233,2.17624992 L5.3678767,2.17624992 Z" id="形状结合" fill="#2C65FF"></path>
            </g>
        </g>
    </g>
</svg>