<?xml version="1.0" encoding="UTF-8"?>
<svg width="12px" height="12px" viewBox="0 0 12 12" version="1.1" xmlns="http://www.w3.org/2000/svg" xmlns:xlink="http://www.w3.org/1999/xlink">
    <title>huowuchuanshu</title>
    <g id="控制台" stroke="none" stroke-width="1" fill="none" fill-rule="evenodd">
        <g transform="translate(-24.000000, -193.000000)" fill-rule="nonzero" id="huowuchuanshu">
            <g transform="translate(24.000000, 193.901165)">
                <path d="M0,3.14285715 L12,3.14285715 L12,9.42857141 C12,9.84534018 11.8419647,10.2450392 11.5606602,10.5397392 C11.2793556,10.8344392 10.8978247,11 10.5,11 L1.5,11 C1.10217526,11 0.720644388,10.8344392 0.439339821,10.5397392 C0.158035253,10.2450392 0,9.84534018 0,9.42857141 L0,3.14285715 Z M3.375,5.5 C3.16789322,5.5 3,5.67588813 3,5.89285714 C3,6.10982615 3.16789322,6.28571429 3.375,6.28571429 L8.625,6.28571429 C8.83210678,6.28571429 9,6.10982615 9,5.89285714 C9,5.67588813 8.83210678,5.5 8.625,5.5 L3.375,5.5 L3.375,5.5 Z M3.375,7.46428571 C3.16789323,7.46428571 3.00000001,7.64017384 3.00000001,7.85714285 C3.00000001,8.07411185 3.16789323,8.24999998 3.375,8.24999998 L8.625,8.24999998 C8.83210677,8.24999998 9.00000001,8.07411185 9.00000001,7.85714285 C9.00000001,7.64017384 8.83210677,7.46428571 8.625,7.46428571 L3.375,7.46428571 Z" id="形状" fill="#626364"></path>
                <path d="M2.577375,0 L9.422625,0 C9.86772396,0.000174856421 10.2897617,0.207425521 10.574625,0.565714296 L12,2.35714286 L0,2.35714286 L1.42499999,0.565714296 C1.71003126,0.207214342 2.13238863,-5.83511401e-05 2.57775,0 L2.577375,0 Z" id="路径" fill="#E4E5E6"></path>
                <path d="M3.91666666,5.08333332 L3.91666666,5.08333332 C4.02777778,5.19444444 4.02777778,5.30555555 3.91666666,5.41666665 L3.41666666,5.91666665 C3.30555555,6.02777777 3.19444444,6.02777777 3.08333334,5.91666665 L3.08333334,5.91666665 C2.97222222,5.80555554 2.97222222,5.69444443 3.08333334,5.58333332 L3.58333334,5.08333332 C3.69444445,4.97222221 3.80555556,4.97222221 3.91666666,5.08333332 L3.91666666,5.08333332 Z" id="路径" fill="#FFFFFF"></path>
                <path d="M8.91666666,8.08333332 L8.91666666,8.08333332 C9.02777778,8.19444443 9.02777778,8.30555555 8.91666666,8.41666666 L8.41666666,8.91666665 C8.30555555,9.02777777 8.19444444,9.02777777 8.08333334,8.91666665 L8.08333334,8.91666665 C7.97222222,8.80555554 7.97222222,8.69444443 8.08333334,8.58333332 L8.58333334,8.08333332 C8.69444445,7.97222221 8.80555556,7.97222221 8.91666666,8.08333332 Z" id="路径" fill="#FFFFFF"></path>
            </g>
        </g>
    </g>
</svg>