<?xml version="1.0" encoding="UTF-8"?>
<svg width="13px" height="16px" viewBox="0 0 13 16" version="1.1" xmlns="http://www.w3.org/2000/svg" xmlns:xlink="http://www.w3.org/1999/xlink">
    <title>形状</title>
    <g id="数据管道" stroke="none" stroke-width="1" fill="none" fill-rule="evenodd">
        <g id="数据复制-点击名称（全量+增量）" transform="translate(-1153.000000, -319.000000)" fill="#4E5969" fill-rule="nonzero">
            <path d="M1165.33853,334.5 L1164.49053,334.5 L1159.4949,329.566616 L1154.49927,334.5 L1153.65092,334.5 C1153.65166,334.462848 1153.50002,334.108486 1153.50002,333.93454 L1153.50002,323.4695 C1153.50002,323.070731 1153.82546,322.74777 1154.22729,322.74777 L1164.77273,322.74777 C1165.17456,322.74777 1165.5,323.070731 1165.5,323.4695 L1165.5,333.93454 C1165.5,334.113155 1165.33781,334.466452 1165.33853,334.5 Z M1164.5015,324.113051 C1164.5015,323.930934 1164.34539,323.783154 1164.15314,323.783154 L1154.74851,323.783154 C1154.55623,323.783154 1154.40021,323.930963 1154.40021,324.113051 L1154.40021,333.210959 L1159.20669,328.680649 C1159.33867,328.556263 1159.55291,328.556263 1159.6853,328.680649 L1164.5015,333.220199 L1164.5015,324.113051 L1164.5015,324.113051 Z M1164.77271,322.02604 L1154.22727,322.02604 C1153.82544,322.02604 1153.5,321.703079 1153.5,321.30431 L1153.5,320.22173 C1153.5,319.822961 1153.82544,319.5 1154.22727,319.5 L1164.77271,319.5 C1165.17454,319.5 1165.49998,319.822961 1165.49998,320.22173 L1165.49998,321.30431 C1165.49998,321.703079 1165.17454,322.02604 1164.77271,322.02604 Z M1164.77271,320.775753 C1164.77271,320.683745 1164.60979,320.609086 1164.40909,320.609086 L1154.59093,320.609086 C1154.39019,320.609086 1154.22731,320.68376 1154.22731,320.775753 L1154.22731,320.942419 C1154.22731,321.034426 1154.39022,321.109086 1154.59093,321.109086 L1164.40909,321.109086 C1164.60982,321.109086 1164.77271,321.034412 1164.77271,320.942419 L1164.77271,320.775753 Z" id="形状"></path>
        </g>
    </g>
</svg>