<?xml version="1.0" encoding="UTF-8"?>
<svg width="20px" height="20px" viewBox="0 0 20 20" version="1.1" xmlns="http://www.w3.org/2000/svg" xmlns:xlink="http://www.w3.org/1999/xlink">
    <title>language-繁体</title>
    <g id="图标" stroke="none" stroke-width="1" fill="none" fill-rule="evenodd">
        <g id="ICON" transform="translate(-1027.000000, -1494.000000)" fill="#4E5969">
            <g id="language-繁体" transform="translate(1027.000000, 1494.000000)">
                <g id="language" fill-rule="nonzero">
                    <path d="M11.4285714,15.7142857 L2.85714285,15.7142857 C2.47826215,15.7142857 2.11489941,15.5637759 1.8469903,15.2958668 C1.57908119,15.0279577 1.42857142,14.664595 1.42857143,14.2857143 L1.42857143,2.85714285 C1.42857143,2.06816464 2.06816464,1.42857143 2.85714285,1.42857143 L14.2857143,1.42857143 C14.664595,1.42857142 15.0279577,1.57908119 15.2958668,1.8469903 C15.5637759,2.11489941 15.7142857,2.47826215 15.7142857,2.85714285 L15.7142857,8.68571428 C15.7143509,9.08015726 16.0341284,9.39988189 16.4285714,9.39988189 C16.8230144,9.39988189 17.1428571,9.08015726 17.1428571,8.68571428 L17.1428571,2.85714285 C17.1428571,2.09938145 16.8418376,1.37265598 16.3060194,0.836837759 C15.7702011,0.301019536 15.0434757,0 14.2857143,0 L2.85714285,0 C1.27918643,0 0,1.27918643 0,2.85714285 L0,14.2857143 C0,15.0434757 0.301019536,15.7702011 0.836837759,16.3060194 C1.37265598,16.8418376 2.09938145,17.1428571 2.85714285,17.1428571 L11.4285714,17.1428571 C11.8230144,17.1428571 12.142739,16.8230144 12.142739,16.4285714 C12.142739,16.0341284 11.8230144,15.7143509 11.4285714,15.7142857 Z M16.4285714,10 C16.8230605,10 17.1428571,10.3197966 17.1428571,10.7142857 L17.1428571,19.2857143 C17.1428571,19.6802034 16.8230605,20 16.4285714,20 C16.0340823,20 15.7142857,19.6802034 15.7142857,19.2857143 L15.7142857,10.7142857 C15.7142857,10.3197966 16.0340823,10 16.4285714,10 L16.4285714,10 Z M13.7142857,12.8571429 L19.1428571,12.8571429 C19.3701856,12.8571429 19.5882032,12.9474487 19.7489487,13.1081942 C19.9096941,13.2689397 20,13.4869573 20,13.7142857 L20,16.2857143 C20,16.5130427 19.9096941,16.7310603 19.7489487,16.8918058 C19.5882032,17.0525513 19.3701856,17.1428571 19.1428571,17.1428571 L13.7142857,17.1428571 C13.4869573,17.1428571 13.2689397,17.0525513 13.1081942,16.8918058 C12.9474487,16.7310603 12.8571429,16.5130427 12.8571429,16.2857143 L12.8571429,13.7142857 C12.8571429,13.4869573 12.9474487,13.2689397 13.1081942,13.1081942 C13.2689397,12.9474487 13.4869573,12.8571429 13.7142857,12.8571429 L13.7142857,12.8571429 Z M14.5714286,14.2857143 C14.4956524,14.2857143 14.4229799,14.3158162 14.3693981,14.3693981 C14.3158162,14.4229799 14.2857143,14.4956524 14.2857143,14.5714286 L14.2857143,15.4285714 C14.2857143,15.5043476 14.3158162,15.5770201 14.3693981,15.6306019 C14.4229799,15.6841838 14.4956524,15.7142857 14.5714286,15.7142857 L18.2857143,15.7142857 C18.3614904,15.7142857 18.434163,15.6841838 18.4877448,15.6306019 C18.5413266,15.5770201 18.5714286,15.5043476 18.5714286,15.4285714 L18.5714286,14.5714286 C18.5714286,14.4956524 18.5413266,14.4229799 18.4877448,14.3693981 C18.434163,14.3158162 18.3614904,14.2857143 18.2857143,14.2857143 L14.5714286,14.2857143 Z" id="形状"></path>
                </g>
                <text id="繁" font-family="FZLTDHK--GBK1-0, FZLanTingHei-EB-GBK" font-size="9" font-weight="normal" letter-spacing="0.3">
                    <tspan x="4" y="11">繁</tspan>
                </text>
            </g>
        </g>
    </g>
</svg>