<?xml version="1.0" encoding="UTF-8"?>
<svg width="20px" height="20px" viewBox="0 0 20 20" version="1.1" xmlns="http://www.w3.org/2000/svg" xmlns:xlink="http://www.w3.org/1999/xlink">
    <title>language-英文</title>
    <g id="图标" stroke="none" stroke-width="1" fill="none" fill-rule="evenodd">
        <g id="ICON" transform="translate(-749.000000, -1494.000000)" fill="#4E5969" fill-rule="nonzero">
            <g id="language-英文" transform="translate(749.000000, 1494.000000)">
                <path d="M11.4285714,15.7142857 L2.85714285,15.7142857 C2.47826215,15.7142857 2.11489941,15.5637759 1.8469903,15.2958668 C1.57908119,15.0279577 1.42857142,14.664595 1.42857143,14.2857143 L1.42857143,2.85714285 C1.42857143,2.06816464 2.06816464,1.42857143 2.85714285,1.42857143 L14.2857143,1.42857143 C14.664595,1.42857142 15.0279577,1.57908119 15.2958668,1.8469903 C15.5637759,2.11489941 15.7142857,2.47826215 15.7142857,2.85714285 L15.7142857,8.68571428 C15.7143509,9.08015726 16.0341284,9.39988189 16.4285714,9.39988189 C16.8230144,9.39988189 17.1428571,9.08015726 17.1428571,8.68571428 L17.1428571,2.85714285 C17.1428571,2.09938145 16.8418376,1.37265598 16.3060194,0.836837759 C15.7702011,0.301019536 15.0434757,0 14.2857143,0 L2.85714285,0 C1.27918643,0 0,1.27918643 0,2.85714285 L0,14.2857143 C0,15.0434757 0.301019536,15.7702011 0.836837759,16.3060194 C1.37265598,16.8418376 2.09938145,17.1428571 2.85714285,17.1428571 L11.4285714,17.1428571 C11.8230144,17.1428571 12.142739,16.8230144 12.142739,16.4285714 C12.142739,16.0341284 11.8230144,15.7143509 11.4285714,15.7142857 Z M3.07142857,11.2142857 C2.93551274,11.0833242 2.85824203,10.9030259 2.85714285,10.7142857 L2.85714285,5 C2.864743,4.6087022 3.18013078,4.29331442 3.57142857,4.28571428 L7.85714285,4.28571428 C8.25163196,4.28571428 8.57142857,4.60551089 8.57142857,5 C8.57142857,5.39448911 8.25163196,5.71428572 7.85714285,5.71428572 L4.28571428,5.71428572 L4.28571428,7.14285715 L7.85714285,7.14285715 C8.25158583,7.14292237 8.57131046,7.46269988 8.57131046,7.85714286 C8.57131046,8.25158585 8.25158583,8.57136335 7.85714285,8.57142857 L4.28571428,8.57142857 L4.28571428,10 L7.85714285,10 C8.25158583,10.0000652 8.57131046,10.3198427 8.57131046,10.7142857 C8.57131046,11.1087287 8.25158583,11.4285714 7.85714285,11.4285714 L3.57142857,11.4285714 C3.38268845,11.4274723 3.20239013,11.3502016 3.07142857,11.2142857 L3.07142857,11.2142857 Z M10,10.7571429 L10,7.31428572 C10,6.85714287 10.2428571,6.6 10.6714286,6.58571428 C10.8254177,6.57796163 10.976005,6.6327661 11.0889902,6.7376809 C11.2019754,6.84259571 11.267769,6.98871639 11.2714286,7.14285715 C11.5578406,6.7607554 12.0256245,6.55949955 12.5,6.61428572 C12.9613197,6.57838334 13.4166399,6.73699261 13.7558109,7.05174323 C14.0949818,7.36649386 14.2871092,7.808716 14.2857143,8.27142857 L14.2857143,10.7571429 C14.2953007,10.945677 14.2215345,11.1288959 14.0839859,11.2581916 C13.9464372,11.3874874 13.75901,11.4497903 13.5714286,11.4285714 C13.3849603,11.4449093 13.2003739,11.3809523 13.0639874,11.252749 C12.9276009,11.1245457 12.8523593,10.9442644 12.8571429,10.7571429 L12.8571429,8.57142857 C12.8571429,8.01428572 12.6857143,7.7 12.1428571,7.65714285 C11.6,7.6142857 11.4285714,7.92857143 11.4285714,8.57142857 L11.4285714,10.7571429 C11.433355,10.9442644 11.3581134,11.1245457 11.2217269,11.252749 C11.0853404,11.3809523 10.900754,11.4449093 10.7142857,11.4285714 C10.5267043,11.4497903 10.3392771,11.3874874 10.2017284,11.2581916 C10.0641797,11.1288959 9.99041357,10.945677 10,10.7571429 L10,10.7571429 Z M16.4285714,10 C16.8230605,10 17.1428571,10.3197966 17.1428571,10.7142857 L17.1428571,19.2857143 C17.1428571,19.6802034 16.8230605,20 16.4285714,20 C16.0340823,20 15.7142857,19.6802034 15.7142857,19.2857143 L15.7142857,10.7142857 C15.7142857,10.3197966 16.0340823,10 16.4285714,10 L16.4285714,10 Z M13.7142857,12.8571429 L19.1428571,12.8571429 C19.3701856,12.8571429 19.5882032,12.9474487 19.7489487,13.1081942 C19.9096941,13.2689397 20,13.4869573 20,13.7142857 L20,16.2857143 C20,16.5130427 19.9096941,16.7310603 19.7489487,16.8918058 C19.5882032,17.0525513 19.3701856,17.1428571 19.1428571,17.1428571 L13.7142857,17.1428571 C13.4869573,17.1428571 13.2689397,17.0525513 13.1081942,16.8918058 C12.9474487,16.7310603 12.8571429,16.5130427 12.8571429,16.2857143 L12.8571429,13.7142857 C12.8571429,13.4869573 12.9474487,13.2689397 13.1081942,13.1081942 C13.2689397,12.9474487 13.4869573,12.8571429 13.7142857,12.8571429 L13.7142857,12.8571429 Z M14.5714286,14.2857143 C14.4956524,14.2857143 14.4229799,14.3158162 14.3693981,14.3693981 C14.3158162,14.4229799 14.2857143,14.4956524 14.2857143,14.5714286 L14.2857143,15.4285714 C14.2857143,15.5043476 14.3158162,15.5770201 14.3693981,15.6306019 C14.4229799,15.6841838 14.4956524,15.7142857 14.5714286,15.7142857 L18.2857143,15.7142857 C18.3614904,15.7142857 18.434163,15.6841838 18.4877448,15.6306019 C18.5413266,15.5770201 18.5714286,15.5043476 18.5714286,15.4285714 L18.5714286,14.5714286 C18.5714286,14.4956524 18.5413266,14.4229799 18.4877448,14.3693981 C18.434163,14.3158162 18.3614904,14.2857143 18.2857143,14.2857143 L14.5714286,14.2857143 Z" id="形状"></path>
            </g>
        </g>
    </g>
</svg>