<svg width="12" height="12" viewBox="0 0 12 12" fill="none" xmlns="http://www.w3.org/2000/svg">
<g clip-path="url(#clip0_0_32088)">
<path d="M6 12C9.31373 12 12 9.31373 12 6C12 2.68629 9.31373 0 6 0C2.68629 0 0 2.68629 0 6C0 9.31373 2.68629 12 6 12Z" fill="#4E5969"/>
<path fill-rule="evenodd" clip-rule="evenodd" d="M6.56522 8C6.80534 8 7 8.19466 7 8.43478V9.56522C7 9.80534 6.80534 10 6.56522 10H5.43478C5.19466 10 5 9.80534 5 9.56522V8.43478C5 8.19466 5.19466 8 5.43478 8H6.56522ZM6.56522 2C6.80534 2 7 2.17879 7 2.39935V6.60065C7 6.8212 6.80534 7 6.56522 7H5.43478C5.19466 7 5 6.8212 5 6.60065V2.39935C5 2.17879 5.19466 2 5.43478 2H6.56522Z" fill="white"/>
</g>
<defs>
<clipPath id="clip0_0_32088">
<rect width="12" height="12" fill="white"/>
</clipPath>
</defs>
</svg>
