<svg width="12" height="12" viewBox="0 0 12 12" fill="none" xmlns="http://www.w3.org/2000/svg">
<path fill-rule="evenodd" clip-rule="evenodd" d="M12 4.03685L10.6114 5.41504H10.6123V6.58496L11.9974 7.96229L10.7546 10.0416L8.83029 9.56674L7.78029 10.1581L7.24029 12H4.75629L4.21629 10.1581L3.16714 9.56674L1.242 10.0416L0 7.96229L1.38514 6.58324V5.41418L0 4.03685L1.24286 1.95929L3.168 2.43325L4.21714 1.84187L4.75714 0H7.24029L7.78371 1.84101L8.83286 2.43154L10.758 1.95757L12 4.03685ZM4.58629 4.58571C4.21141 4.96073 4.00092 5.46933 4.00114 5.99957H4.00029C4.00006 6.52996 4.21067 7.03869 4.58574 7.41373C4.96081 7.78877 5.46957 7.99937 6 7.99914C6.53043 7.99937 7.03919 7.78877 7.41426 7.41373C7.78933 7.03869 7.99994 6.52996 7.99971 5.99957C7.99994 5.46918 7.78933 4.96045 7.41426 4.58541C7.03919 4.21037 6.53043 3.99977 6 4C5.46972 4 4.96117 4.2107 4.58629 4.58571Z" fill="#4E5969"/>
</svg>
