<?xml version="1.0" standalone="no"?><!DOCTYPE svg PUBLIC "-//W3C//DTD SVG 1.1//EN" "http://www.w3.org/Graphics/SVG/1.1/DTD/svg11.dtd"><svg t="1678269416524" class="icon" viewBox="0 0 1024 1024" version="1.1" xmlns="http://www.w3.org/2000/svg" p-id="9259" xmlns:xlink="http://www.w3.org/1999/xlink" width="200" height="200"><path d="M768 810.666667H256c-23.466667 0-42.666667-19.2-42.666667-42.666667V256c0-23.466667 19.2-42.666667 42.666667-42.666667h213.333333c23.466667 0 42.666667-19.2 42.666667-42.666666s-19.2-42.666667-42.666667-42.666667H213.333333a85.333333 85.333333 0 0 0-85.333333 85.333333v597.333334c0 46.933333 38.4 85.333333 85.333333 85.333333h597.333334c46.933333 0 85.333333-38.4 85.333333-85.333333v-256c0-23.466667-19.2-42.666667-42.666667-42.666667s-42.666667 19.2-42.666666 42.666667v213.333333c0 23.466667-19.2 42.666667-42.666667 42.666667zM597.333333 170.666667c0 23.466667 19.2 42.666667 42.666667 42.666666h110.506667l-389.546667 389.546667a42.496 42.496 0 1 0 60.16 60.16L810.666667 273.493333V384c0 23.466667 19.2 42.666667 42.666666 42.666667s42.666667-19.2 42.666667-42.666667V170.666667c0-23.466667-19.2-42.666667-42.666667-42.666667h-213.333333c-23.466667 0-42.666667 19.2-42.666667 42.666667z" p-id="9260"></path></svg>