<?xml version="1.0" encoding="UTF-8"?>
<svg width="13px" height="15px" viewBox="0 0 13 15" version="1.1" xmlns="http://www.w3.org/2000/svg" xmlns:xlink="http://www.w3.org/1999/xlink">
    <title>record</title>
    <g id="缓存管理" stroke="none" stroke-width="1" fill="none" fill-rule="evenodd">
        <g id="缓存管理-查看" transform="translate(-1154.000000, -438.000000)" fill="#595959" fill-rule="nonzero">
            <g id="record" transform="translate(1154.841143, 438.005164)">
                <path d="M0.998571426,0.997343951 C0.448101157,0.997343951 0,1.44212693 0,1.99242242 L0,13.4664087 C0,14.0172261 0.447744351,14.4614872 0.998571426,14.4614872 L10.9695559,14.4614872 C11.5200262,14.4614872 11.9681274,14.0167042 11.9681274,13.4664087 L11.9681274,1.99242242 C11.9681274,1.44160508 11.520383,0.997343951 10.9695559,0.997343951 L9.47476749,0.997343951 L9.97343947,1.49601591 L9.97343947,0.747267427 C9.97343947,0.336215611 9.63893205,0 9.22629546,0 L2.7418319,0 C2.32760953,0 1.99468789,0.334560025 1.99468789,0.747267427 L1.99468789,1.49601591 L2.49335986,0.997343951 L0.998571426,0.997343951 Z M2.99203184,1.99468789 L2.99203184,1.49601591 L2.99203184,0.747267427 C2.99203184,0.884284793 2.87952645,0.997343951 2.7418319,0.997343951 L9.22629546,0.997343951 C9.08697373,0.997343951 8.97609552,0.885899494 8.97609552,0.747267427 L8.97609552,1.49601591 L8.97609552,1.99468789 L9.47476749,1.99468789 L10.9695559,1.99468789 C10.9713013,1.99468789 10.9708552,13.4664087 10.9708552,13.4664087 C10.9708552,13.4642201 0.998571426,13.4641433 0.998571426,13.4641433 C0.996826077,13.4641433 0.997272122,1.99242242 0.997272122,1.99242242 C0.997272122,1.9946111 2.49335986,1.99468789 2.49335986,1.99468789 L2.99203184,1.99468789 Z M8.97609552,2.24476441 C8.97609552,2.10774705 9.0886009,1.99468789 9.22629546,1.99468789 L2.7418319,1.99468789 C2.88115363,1.99468789 2.99203184,2.10613235 2.99203184,2.24476441 L2.99203184,1.49601591 C2.99203184,1.22060711 2.76876866,0.997343951 2.49335986,0.997343951 C2.21795106,0.997343951 1.99468789,1.22060711 1.99468789,1.49601591 L1.99468789,2.24476441 C1.99468789,2.65581623 2.32919531,2.99203184 2.7418319,2.99203184 L9.22629546,2.99203184 C9.64051783,2.99203184 9.97343947,2.65747181 9.97343947,2.24476441 L9.97343947,1.49601591 C9.97343947,1.22060711 9.75017629,0.997343951 9.47476749,0.997343951 C9.19935869,0.997343951 8.97609552,1.22060711 8.97609552,1.49601591 L8.97609552,2.24476441 Z M8.97609552,6.23339966 C9.25150432,6.23339966 9.47476749,6.0101365 9.47476749,5.7347277 C9.47476749,5.45931888 9.25150432,5.23605572 8.97609552,5.23605572 L2.99203184,5.23605572 C2.71662304,5.23605572 2.49335986,5.45931888 2.49335986,5.7347277 C2.49335986,6.0101365 2.71662304,6.23339966 2.99203184,6.23339966 L8.97609552,6.23339966 Z M2.99203184,7.72941559 C2.71662304,7.72941559 2.49335986,7.95267876 2.49335986,8.22808756 C2.49335986,8.50349636 2.71662304,8.72675952 2.99203184,8.72675952 L8.97609552,8.72675952 C9.25150432,8.72675952 9.47476749,8.50349636 9.47476749,8.22808756 C9.47476749,7.95267876 9.25150432,7.72941559 8.97609552,7.72941559 L2.99203184,7.72941559 Z M2.99203184,10.2227755 C2.71662304,10.2227755 2.49335986,10.4460386 2.49335986,10.7214474 C2.49335986,10.9968562 2.71662304,11.2201194 2.99203184,11.2201194 L6.98140763,11.2201194 C7.25681643,11.2201194 7.48007959,10.9968562 7.48007959,10.7214474 C7.48007959,10.4460386 7.25681643,10.2227755 6.98140763,10.2227755 L2.99203184,10.2227755 Z" id="形状"></path>
            </g>
        </g>
    </g>
</svg>