<?xml version="1.0" standalone="no"?><!DOCTYPE svg PUBLIC "-//W3C//DTD SVG 1.1//EN" "http://www.w3.org/Graphics/SVG/1.1/DTD/svg11.dtd"><svg t="1619077039444" class="icon" viewBox="0 0 1024 1024" version="1.1" xmlns="http://www.w3.org/2000/svg" p-id="5135" id="mx_n_1619077039446" xmlns:xlink="http://www.w3.org/1999/xlink" width="200" height="200"><defs><style type="text/css"></style></defs><path d="M155.2 153.6h739.2c29.141333 0 52.8 26.88 52.8 59.989333 0 33.152-23.68 60.010667-52.8 60.010667H155.2c-29.162667 0-52.8-26.88-52.8-60.010667C102.4 180.48 126.037333 153.6 155.2 153.6z m0 307.2h739.2c29.141333 0 52.8 26.88 52.8 60.010667 0 33.088-23.68 59.989333-52.8 59.989333H155.2c-29.162667 0-52.8-26.88-52.8-60.010667 0-33.130667 23.637333-59.989333 52.8-59.989333z m0 307.2h739.2c29.141333 0 52.8 26.88 52.8 60.010667 0 33.088-23.68 59.989333-52.8 59.989333H155.2c-29.162667 0-52.8-26.88-52.8-60.010667C102.4 794.901333 126.037333 768 155.2 768z" p-id="5136"></path></svg>
