<?xml version="1.0" standalone="no"?><!DOCTYPE svg PUBLIC "-//W3C//DTD SVG 1.1//EN" "http://www.w3.org/Graphics/SVG/1.1/DTD/svg11.dtd"><svg t="1647517884933" class="icon" viewBox="0 0 1024 1024" version="1.1" xmlns="http://www.w3.org/2000/svg" p-id="20640" xmlns:xlink="http://www.w3.org/1999/xlink" width="200" height="200"><defs><style type="text/css"></style></defs><path d="M512.341333 646.485333a134.4 134.4 0 1 1 0.853334-268.8 134.4 134.4 0 0 1-0.853334 268.8m285.44-97.28a261.546667 261.546667 0 0 0 3.413334-37.12 298.666667 298.666667 0 0 0-2.986667-38.4l81.493333-62.72a18.773333 18.773333 0 0 0 4.266667-24.32l-76.8-133.12a18.773333 18.773333 0 0 0-23.466667-8.106666l-95.573333 38.4a272.64 272.64 0 0 0-64.853333-37.973334l-14.506667-101.546666a18.773333 18.773333 0 0 0-20.906667-16.213334h-153.6a19.626667 19.626667 0 0 0-19.2 16.213334l-14.08 101.546666a264.106667 264.106667 0 0 0-64.853333 37.973334l-96-38.4a18.773333 18.773333 0 0 0-23.466667 8.106666l-76.8 133.12a18.773333 18.773333 0 0 0 4.693334 24.32l81.066666 62.72c0 13.226667-2.56 25.6-2.56 38.4a345.6 345.6 0 0 0 2.56 37.12l-81.066666 64a19.2 19.2 0 0 0-4.693334 24.32l76.8 133.12a19.626667 19.626667 0 0 0 23.466667 8.533334l96-38.826667a264.106667 264.106667 0 0 0 64.853333 37.973333l14.08 101.546667a19.626667 19.626667 0 0 0 19.2 16.213333h153.6a18.773333 18.773333 0 0 0 19.2-16.213333l14.506667-101.546667a287.573333 287.573333 0 0 0 64.853333-37.973333l95.573334 38.826667a19.2 19.2 0 0 0 23.466666-8.533334l76.8-133.12a18.773333 18.773333 0 0 0-4.266666-24.32l-80.213334-64z" p-id="20641"></path></svg>