<?xml version="1.0" encoding="UTF-8"?>
<svg width="20px" height="20px" viewBox="0 0 20 20" version="1.1" xmlns="http://www.w3.org/2000/svg" xmlns:xlink="http://www.w3.org/1999/xlink">
    <title>shezhi</title>
    <g id="控制台" stroke="none" stroke-width="1" fill="none" fill-rule="evenodd" fill-opacity="0.9">
        <g transform="translate(-1227.000000, -26.000000)" fill="#FFFFFF" fill-rule="nonzero" id="顶部栏">
            <g transform="translate(-1.000000, 0.000000)">
                <g id="shezhi" transform="translate(1228.000000, 26.000000)">
                    <path d="M10,5 C7.26086957,5 5,7.26086957 5,10 C5,12.7391304 7.26086957,15 10,15 C12.7391304,15 15,12.7391304 15,10 C15,7.26086957 12.7391304,5 10,5 Z M10,13.6956522 C7.95652174,13.6956522 6.30434783,12.0434783 6.30434783,10 C6.30434783,7.95652174 7.95652174,6.30434783 10,6.30434783 C12.0434783,6.30434783 13.6956522,7.95652174 13.6956522,10 C13.6956522,12.0434783 12.0434783,13.6956522 10,13.6956522 Z" id="形状"></path>
                    <path d="M19.5160503,11.6737324 C18.9433251,11.3212978 18.5908788,10.7045372 18.5908788,9.99966801 C18.5908788,9.2947988 18.9433251,8.72209256 19.5160503,8.32560363 C19.9125524,8.06127767 20.0887756,7.57668009 19.9566082,7.0920825 C19.7363293,6.34315896 19.4279387,5.63828974 19.0754924,4.97747486 C18.8552135,4.58098592 18.3705998,4.31665997 17.8859861,4.44882294 C17.2251493,4.58098592 16.5643125,4.40476862 16.0796988,3.92017103 C15.5950851,3.43557345 15.418862,2.77475856 15.5510294,2.11394367 C15.6391409,1.67340041 15.418862,1.18880283 15.0223599,0.92447687 C14.3615231,0.527987936 13.6125747,0.263661981 12.907682,0.0433903511 C12.4671242,-0.0887726267 11.9384547,0.0874446771 11.67412,0.48393361 C11.3216737,1.05663985 10.7048926,1.40907446 10,1.40907446 C9.29510738,1.40907446 8.72238213,1.05663985 8.32588004,0.48393361 C8.0615453,0.0874446771 7.57693163,-0.0887726267 7.09231796,0.0433903511 C6.34336955,0.263661981 5.63847694,0.572042262 4.97764011,0.92447687 C4.58113801,1.1447485 4.31680328,1.62934608 4.44897064,2.11394367 C4.58113801,2.77475856 4.40491486,3.47962777 3.92030118,3.92017103 C3.43568751,4.40476862 2.77485068,4.58098592 2.11401385,4.44882294 C1.67345597,4.36071429 1.18884229,4.58098592 0.924507562,4.97747486 C0.528005466,5.63828974 0.263670734,6.38721329 0.0433917917,7.0920825 C-0.0887755739,7.53262576 0.0874475802,8.06127767 0.483949677,8.32560363 C1.05667493,8.67803823 1.40912124,9.2947988 1.40912124,9.99966801 C1.40912124,10.7045372 1.05667493,11.2772435 0.483949677,11.6737324 C0.0874475802,11.9380584 -0.0887755739,12.4226559 0.0433917917,12.9072535 C0.263670734,13.6561771 0.572061254,14.3610463 0.924507562,15.0218612 C1.14478651,15.4183501 1.62940018,15.6386217 2.11401385,15.5505131 C2.77485068,15.4183501 3.4797433,15.5945674 3.92030118,16.079165 C4.40491486,16.5637626 4.58113801,17.2245775 4.44897064,17.8853924 C4.36085907,18.3259356 4.58113801,18.8105332 4.97764011,19.0748592 C5.63847694,19.4713481 6.38742534,19.735674 7.09231796,19.9559457 C7.53287584,20.0881087 8.0615453,19.9118913 8.32588004,19.5154024 C8.67832634,18.9426962 9.29510738,18.5902616 10,18.5902616 C10.7048926,18.5902616 11.2776179,18.9426962 11.67412,19.5154024 C11.8943989,19.8237827 12.2468452,20 12.5992915,20 C12.6874031,20 12.8195705,20 12.907682,19.9559457 C13.6566304,19.735674 14.3615231,19.4272938 15.0223599,19.0748592 C15.418862,18.8545875 15.6831967,18.3699899 15.5510294,17.8853924 C15.418862,17.2245775 15.5950851,16.5197083 16.0796988,16.079165 C16.5643125,15.5945674 17.2251493,15.4183501 17.8859861,15.5505131 C18.326544,15.6386217 18.8111577,15.4183501 19.0754924,15.0218612 C19.4719945,14.3610463 19.7363293,13.6121227 19.9566082,12.9072535 C20.0887756,12.4226559 19.9125524,11.9380584 19.5160503,11.6737324 L19.5160503,11.6737324 Z M17.9740977,14.2288833 C16.9167588,14.052666 15.8594199,14.4051006 15.1104715,15.1540241 C14.3615231,15.9029477 14.0090768,16.9602515 14.1852999,18.0175553 C13.7006862,18.2818813 13.1720168,18.5021529 12.6433473,18.6783702 C12.0265663,17.841338 11.0573389,17.3126861 9.95594421,17.3126861 C8.89860529,17.3126861 7.92937794,17.7972837 7.26854111,18.6783702 C6.73987165,18.5021529 6.21120219,18.2818813 5.72658851,18.0175553 C5.90281167,16.9602515 5.55036536,15.9029477 4.80141695,15.1540241 C4.05246855,14.4051006 2.99512962,14.052666 1.9377907,14.2288833 C1.67345597,13.7442857 1.45317702,13.2156338 1.27695387,12.6869819 C2.11401385,12.0702213 2.64268332,11.1010262 2.64268332,9.99966801 C2.64268332,8.94236419 2.15806964,7.97316902 1.27695387,7.31235413 C1.45317702,6.78370222 1.67345597,6.25505031 1.9377907,5.77045272 C2.99512962,5.94667003 4.05246855,5.59423542 4.80141695,4.84531188 C5.55036536,4.09638834 5.90281167,3.03908451 5.72658851,1.98178069 C6.21120219,1.71745474 6.73987165,1.49718311 7.26854111,1.3209658 C7.88532215,2.157998 8.8545495,2.68664991 9.95594421,2.68664991 C11.0132831,2.68664991 11.9825105,2.20205232 12.6433473,1.3209658 C13.1720168,1.49718311 13.7006862,1.71745474 14.1852999,1.98178069 C14.0090768,3.03908451 14.3615231,4.09638834 15.1104715,4.84531188 C15.8594199,5.59423542 16.9167588,5.94667003 17.9740977,5.77045272 C18.2384325,6.25505031 18.4587114,6.78370222 18.6349346,7.31235413 C17.7978746,7.92911469 17.2692051,8.89830986 17.2692051,9.99966801 C17.2692051,11.0569718 17.7538188,12.026167 18.6349346,12.6869819 C18.4587114,13.2156338 18.2384325,13.7442857 17.9740977,14.2288833 Z" id="形状"></path>
                </g>
            </g>
        </g>
    </g>
</svg>