<?xml version="1.0" encoding="UTF-8"?>
<svg width="12px" height="13px" viewBox="0 0 12 13" version="1.1" xmlns="http://www.w3.org/2000/svg" xmlns:xlink="http://www.w3.org/1999/xlink">
    <title>shujuzhili</title>
    <g id="控制台" stroke="none" stroke-width="1" fill="none" fill-rule="evenodd">
        <g transform="translate(-24.000000, -246.000000)" fill="#626364" fill-rule="nonzero" id="shujuzhili">
            <g transform="translate(24.000000, 246.901165)">
                <path d="M12,6.07919547 C12,5.43808925 11.4798995,4.91011942 10.8316583,4.91011942 C10.6884422,4.33689503 10.4472362,3.78629793 10.1005025,3.28095537 L10.6356784,2.74544312 C10.9899497,2.39094909 10.9899497,1.8177247 10.6356784,1.46323067 C10.281407,1.10873664 9.70854271,1.10873664 9.35427136,1.46323067 L8.81909548,1.99874293 C8.30653266,1.6442489 7.74874372,1.40289126 7.16080402,1.25958517 C7.16080402,1.22941546 7.16834171,1.19924576 7.16834171,1.16907605 C7.16834171,0.52796983 6.64070352,0 6,0 C5.35929648,0 4.83165829,0.52796983 4.83165829,1.16907605 C4.83165829,1.19924576 4.83165829,1.22941546 4.83919598,1.25958517 C4.25879397,1.40289126 3.69346734,1.6442489 3.18090452,1.99874293 L2.64572864,1.45568825 C2.29145729,1.10119422 1.71859296,1.10119422 1.36432161,1.45568825 C1.01005025,1.81018228 1.01005025,2.38340666 1.36432161,2.73790069 L1.89949749,3.27341295 C1.55276382,3.7787555 1.31155779,4.32935261 1.16834171,4.902577 C0.527638191,4.902577 0,5.43054683 0,6.07165305 C0,6.71275927 0.520100503,7.23318668 1.15326633,7.2407291 C1.28894472,7.82903834 1.53768844,8.40226273 1.8919598,8.91514771 L1.35678392,9.45065996 C1.00251256,9.80515399 1.00251256,10.3783784 1.35678392,10.7328724 C1.71105528,11.0873664 2.2839196,11.0873664 2.63819095,10.7328724 L3.17336683,10.1973602 C3.68592965,10.5518542 4.24371859,10.7932118 4.83165829,10.9365179 C4.88442211,11.5323696 5.38944724,12 5.99246231,12 C6.59547739,12 7.10050251,11.5323696 7.15326633,10.9365179 C7.73366834,10.8007542 8.29899497,10.5518542 8.81155779,10.1973602 L9.34673367,10.7328724 C9.70100503,11.0873664 10.2738693,11.0873664 10.6281407,10.7328724 C10.9824121,10.3783784 10.9824121,9.80515399 10.6281407,9.45065996 L10.0929648,8.91514771 C10.4472362,8.40226273 10.6959799,7.82903834 10.8316583,7.2407291 C11.4798995,7.23318668 12,6.71275927 12,6.07919547 Z M1.18341709,6.94657448 C0.708542714,6.94657448 0.316582915,6.55436832 0.316582915,6.07919547 C0.316582915,5.60402263 0.708542714,5.21181647 1.18341709,5.21181647 C1.65829146,5.21181647 2.05025126,5.60402263 2.05025126,6.07919547 C2.05025126,6.55436832 1.65829146,6.94657448 1.18341709,6.94657448 Z M6.00753769,0.309239472 C6.48241206,0.309239472 6.87437186,0.701445632 6.87437186,1.17661848 C6.87437186,1.65179133 6.48241206,2.04399749 6.00753769,2.04399749 C5.53266332,2.04399749 5.14070352,1.65179133 5.14070352,1.17661848 C5.14070352,0.701445632 5.52512563,0.309239472 6.00753769,0.309239472 L6.00753769,0.309239472 Z M6.00753769,11.698303 C5.53266332,11.698303 5.14070352,11.3060968 5.14070352,10.8309239 C5.14070352,10.3557511 5.53266332,9.96354494 6.00753769,9.96354494 C6.48241206,9.96354494 6.87437186,10.3557511 6.87437186,10.8309239 C6.87437186,11.3060968 6.48241206,11.698303 6.00753769,11.698303 L6.00753769,11.698303 Z M6.00753769,7.73852923 C5.05025126,7.73852923 4.27386935,6.96165933 4.27386935,6.00377121 C4.27386935,5.04588309 5.05025126,4.2690132 6.00753769,4.2690132 C6.96482412,4.2690132 7.74120603,5.04588309 7.74120603,6.00377121 C7.74120603,6.96165933 6.96482412,7.73852923 6.00753769,7.73852923 L6.00753769,7.73852923 Z M9.96482412,6.07919547 C9.96482412,5.60402263 10.3567839,5.21181647 10.8316583,5.21181647 C11.3065327,5.21181647 11.6984925,5.60402263 11.6984925,6.07919547 C11.6984925,6.55436832 11.3065327,6.94657448 10.8316583,6.94657448 C10.3567839,6.94657448 9.96482412,6.55436832 9.96482412,6.07919547 Z" id="形状"></path>
            </g>
        </g>
    </g>
</svg>