<?xml version="1.0" encoding="UTF-8"?>
<svg width="16px" height="16px" viewBox="0 0 16 16" version="1.1" xmlns="http://www.w3.org/2000/svg" xmlns:xlink="http://www.w3.org/1999/xlink">
    <title>编组 11</title>
    <g id="数据管道" stroke="none" stroke-width="1" fill="none" fill-rule="evenodd">
        <g id="数据复制-点击名称（全量+增量）" transform="translate(-1152.000000, -437.000000)" fill="#4E5969" fill-rule="nonzero">
            <g id="编组-11" transform="translate(1152.500000, 437.620611)">
                <path d="M7.37939677,0 C3.30739265,0 0,3.30739265 0,7.37939677 C0,11.4514009 3.30739265,14.7587786 7.37939677,14.7587786 C11.4514009,14.7587786 14.7587786,11.451386 14.7587786,7.37938184 C14.7587786,3.30737772 11.451386,0 7.37938184,0 L7.37939677,0 Z M7.37940379,13.6733868 C3.9133964,13.6733868 1.0853991,10.8454039 1.0853991,7.37939655 C1.0853991,3.91338916 3.91338192,1.08539186 7.37940379,1.08539186 C10.8454257,1.08539186 13.6733795,3.91337468 13.6733795,7.37939655 C13.6733795,10.8454184 10.8454112,13.6733868 7.37940379,13.6733868 L7.37940379,13.6733868 Z" id="形状"></path>
                <path d="M11.0047625,6.97737066 L5.51826294,3.74328914 C5.37848839,3.67182983 5.22123652,3.67182983 5.0814473,3.74328914 C4.94165808,3.81474845 4.85430082,3.97558442 4.85430082,4.13639038 L4.85430082,10.6223957 C4.85430082,10.7832017 4.94167275,10.9261503 5.06398466,11.015482 C5.13386459,11.0512266 5.2037592,11.069084 5.27365381,11.069084 C5.34354843,11.069084 5.43090568,11.0512266 5.48332297,11.015482 L10.9698225,7.78141546 C11.109597,7.70994114 11.1794917,7.54913518 11.1794917,7.38832922 C11.1794917,7.22752327 11.144537,7.0667023 11.0047625,6.97737066 L11.0047625,6.97737066 Z M5.9182435,9.60454696 L5.9182435,5.15423166 L9.70255335,7.37938931 L5.9182435,9.60454696 L5.9182435,9.60454696 Z" id="形状"></path>
            </g>
        </g>
    </g>
</svg>