<?xml version="1.0" encoding="UTF-8"?>
<svg width="10px" height="13px" viewBox="0 0 10 13" version="1.1" xmlns="http://www.w3.org/2000/svg" xmlns:xlink="http://www.w3.org/1999/xlink">
    <title>Assignment_icon_system</title>
    <g id="控制台" stroke="none" stroke-width="1" fill="none" fill-rule="evenodd">
        <g id="控制台-点击" transform="translate(-25.000000, -351.000000)" fill-rule="nonzero">
            <g id="编组" transform="translate(25.000000, 351.901165)">
                <path d="M9.99849193,1.3305 L10,11.9985 L7.28019906,11.9985 L7.278691,12 L1.32182175,12 L1.32182175,1.3305 L9.99849193,1.3305 Z M7.83893832,8.8965 L2.59236918,8.8965 L2.59236918,10.50975 L7.83893832,10.50975 L7.83893832,8.8965 Z M7.83893832,5.83575 L2.59236918,5.83575 L2.59236918,7.449 L7.83893832,7.449 L7.83893832,5.83575 Z M7.83893832,2.7735 L2.59236918,2.7735 L2.59236918,4.38675 L7.83893832,4.38675 L7.83893832,2.7735 Z" id="形状结合" fill="#666666"></path>
                <path d="M7.83893832,2.7735 C8.71336651,3.580125 8.71336651,4.117875 7.83893832,4.38675 C6.96451013,4.655625 5.21565375,4.655625 2.59236918,4.38675 L2.59236918,2.7735 L7.83893832,2.7735 Z" id="路径" fill="#D8D8D8"></path>
                <polygon id="路径" fill="#D8D8D8" points="2.59236918 5.83575 7.83893832 5.83575 7.83893832 7.449 2.59236918 7.449"></polygon>
                <polygon id="路径" fill="#D8D8D8" points="2.59236918 8.8965 7.83893832 8.8965 7.83893832 10.50975 2.59236918 10.50975"></polygon>
                <polygon id="路径" fill="#666666" points="8.8606545 0 0 0 0 10.50975 0.735937264 10.50975 0.735937264 0.68625 8.8606545 0.68625"></polygon>
            </g>
        </g>
    </g>
</svg>