<!-- Generated by IcoMoon.io -->
<svg version="1.1" xmlns="http://www.w3.org/2000/svg" width="32" height="32" viewBox="0 0 32 32">
<title>table2</title>
<path fill="#8a8a8a" d="M28.009 1.969h-23.994c-1.1 0-2 0.9-2 2v23.991c0 1.1 0.9 2 2 2h23.991c1.1 0 2-0.9 2-2v-23.991c0.003-1.1-0.897-2-1.997-2zM3.994 5.191c0-0.656 0.534-1.191 1.191-1.191h21.619c0.656 0 1.191 0.534 1.191 1.191v3.5h-24v-3.5zM27.997 10.572v7.428h-5.997v-7.428h5.997zM10.003 28h-6.003v-8.028h6v8.028zM10.003 18.016h-6.003v-7.428h6.003v7.428zM19.997 27.997h-7.981v-7.997h7.984v7.997zM20.006 18.009h-8.003v-7.5h8.003v7.5zM22.003 27.994l-0.012-8 6.012-0.009 0.012 8-6.012 0.009z"></path>
</svg>
