<?xml version="1.0" encoding="UTF-8"?>
<svg width="18px" height="21px" viewBox="0 0 18 21" version="1.1" xmlns="http://www.w3.org/2000/svg" xmlns:xlink="http://www.w3.org/1999/xlink">
    <title>编组 8</title>
    <g id="缓存管理" stroke="none" stroke-width="1" fill="none" fill-rule="evenodd" fill-opacity="0.6">
        <g id="缓存管理-查看" transform="translate(-1153.000000, -89.000000)" fill="#000000" fill-rule="nonzero">
            <g id="编组-8" transform="translate(1153.000000, 89.000000)">
                <path d="M16.7142857,0 L1.28571429,0 C0.57627551,0 0,0.58828125 0,1.3125 L0,19.6875 C0,20.4117187 0.57627551,21 1.28571429,21 L16.7142857,21 C17.4237245,21 18,20.4117187 18,19.6875 L18,1.3125 C18,0.58828125 17.4237245,0 16.7142857,0 Z M12.2142857,1.3125 L14.1428571,1.3125 L14.1428571,5.93671875 L12.6918367,5.34375 L12.2142857,5.14921875 L11.7367347,5.34375 L10.2857143,5.93671875 L10.2857143,1.3125 L12.2142857,1.3125 Z M16.7142857,19.6875 L1.28571429,19.6875 L1.28571429,1.3125 L9,1.3125 L9,6.9046875 C9,7.28203125 9.30306122,7.5609375 9.64285714,7.5609375 C9.72091837,7.5609375 9.80357143,7.546875 9.88163265,7.5140625 L12.2142857,6.5625 L14.5469388,7.5140625 C14.6272959,7.546875 14.7076531,7.5609375 14.7857143,7.5609375 C15.1255102,7.5609375 15.4285714,7.2796875 15.4285714,6.9046875 L15.4285714,1.3125 L16.7142857,1.3125 L16.7142857,19.6875 Z" id="形状"></path>
                <path d="M3.66666667,12.25 L9,12.25 C9.36904762,12.25 9.66666667,11.9709821 9.66666667,11.625 C9.66666667,11.2790179 9.36904762,11 9,11 L3.66666667,11 C3.29761905,11 3,11.2790179 3,11.625 C3,11.9709821 3.29761905,12.25 3.66666667,12.25 Z M14.3333333,14.75 L3.66666667,14.75 C3.29761905,14.75 3,15.0290179 3,15.375 C3,15.7209821 3.29761905,16 3.66666667,16 L14.3333333,16 C14.702381,16 15,15.7209821 15,15.375 C15,15.0290179 14.702381,14.75 14.3333333,14.75 Z" id="形状"></path>
            </g>
        </g>
    </g>
</svg>