<svg width="16" height="16" viewBox="0 0 16 16" fill="none" xmlns="http://www.w3.org/2000/svg">
<path d="M8 14.8571C11.7867 14.8571 14.8571 11.7872 14.8571 8C14.8571 4.21333 11.7872 1.14293 8 1.14293C4.21333 1.14293 1.14293 4.2128 1.14293 8C1.14293 11.7867 4.2128 14.8571 8 14.8571ZM8 16C3.58187 16 0 12.4181 0 8C0 3.58187 3.58187 0 8 0C12.4181 0 16 3.58187 16 8C16 12.4181 12.4181 16 8 16ZM7.4288 3.4288C7.744 3.4288 8 3.6848 8 4V8H12C12.1516 8 12.2969 8.06021 12.4041 8.16738C12.5113 8.27455 12.5715 8.4199 12.5715 8.57147C12.5715 8.72303 12.5113 8.86838 12.4041 8.97555C12.2969 9.08273 12.1516 9.14293 12 9.14293H6.85707V4C6.85707 3.68427 7.11307 3.4288 7.4288 3.4288Z" fill="#2C65FF"/>
</svg>
