<?xml version="1.0" standalone="no"?><!DOCTYPE svg PUBLIC "-//W3C//DTD SVG 1.1//EN" "http://www.w3.org/Graphics/SVG/1.1/DTD/svg11.dtd"><svg t="1631534285711" class="icon" viewBox="0 0 1024 1024" version="1.1" xmlns="http://www.w3.org/2000/svg" p-id="3076" xmlns:xlink="http://www.w3.org/1999/xlink" width="64" height="64"><defs><style type="text/css"></style></defs><path d="M512 0C229.668571 0 0 229.668571 0 512s229.668571 512 512 512 512-229.668571 512-512-229.668571-512-512-512z m0 967.094857A455.68 455.68 0 0 1 56.905143 512 455.68 455.68 0 0 1 512 56.905143 455.68 455.68 0 0 1 967.094857 512 455.68 455.68 0 0 1 512 967.094857z" fill="#000000" fill-opacity=".6" p-id="3077"></path><path d="M771.291429 524.214857H505.417143v-274.285714c0-16.822857-14.848-30.500571-33.206857-30.500572S438.857143 233.106286 438.857143 249.929143v304.713143a29.257143 29.257143 0 0 0 9.728 21.577143c6.217143 5.705143 14.701714 8.923429 23.552 8.923428h299.154286c18.358857 0 33.28-13.677714 33.28-30.500571 0-16.822857-14.921143-30.427429-33.28-30.427429z" fill="#000000" fill-opacity=".6" p-id="3078"></path></svg>