<?xml version="1.0" encoding="UTF-8"?>
<svg width="20px" height="20px" viewBox="0 0 20 20" version="1.1" xmlns="http://www.w3.org/2000/svg" xmlns:xlink="http://www.w3.org/1999/xlink">
    <title>wenda</title>
    <g id="控制台" stroke="none" stroke-width="1" fill="none" fill-rule="evenodd" fill-opacity="0.9">
        <g transform="translate(-1191.000000, -26.000000)" fill="#FFFFFF" fill-rule="nonzero" id="顶部栏">
            <g transform="translate(-1.000000, 0.000000)">
                <g id="wenda" transform="translate(1192.000000, 26.000000)">
                    <path d="M0.714285714,6.05204556 L16.2946429,6.05204556 C16.6891295,6.05204556 17.0089286,6.37200001 17.0089286,6.76667824 L17.0089286,16.6822068 C17.0089286,17.076885 16.6891295,17.3968394 16.2946429,17.3968394 L10.3125,17.3968394 L5.18178571,19.9262372 C4.82792411,20.1006969 4.39970982,19.9551128 4.22535714,19.6010793 C4.17696107,19.5028228 4.15178906,19.3947506 4.15178571,19.2852116 L4.15178571,17.3968394 L0.714285714,17.3968394 C0.319799107,17.3968394 0,17.076885 0,16.6822068 L0,6.76667824 C0,6.37200001 0.319799107,6.05204556 0.714285714,6.05204556 Z M1.60714286,7.48131093 C1.50852058,7.48131093 1.42857143,7.56129892 1.42857143,7.6599691 L1.42857143,15.8112482 C1.42857143,15.9099184 1.50852058,15.9899063 1.60714286,15.9899063 L4.86607143,15.9899063 C5.26055804,15.9899063 5.58035714,16.3098608 5.58035714,16.704539 L5.58035714,17.869033 C5.58035796,17.9307576 5.61220452,17.9881096 5.66458621,18.0207198 C5.71696791,18.05333 5.78246384,18.0565786 5.8378125,18.0293117 L9.90308036,16.0266653 C9.95216138,16.0024842 10.006139,15.9899078 10.0608482,15.9899063 L15.4017857,15.9899063 C15.500408,15.9899063 15.5803571,15.9099184 15.5803571,15.8112482 L15.5803571,7.6599691 C15.5803571,7.56129892 15.500408,7.48131093 15.4017857,7.48131093 L1.60714286,7.48131093 Z M8.48245536,8.46393087 C9.68803571,8.46393087 10.6677232,9.37544486 10.6702902,10.4965696 C10.6702902,11.3845007 10.0509821,12.140582 9.193125,12.4161399 L9.193125,12.7694365 C9.193125,13.1345244 8.87587054,13.4289308 8.48245536,13.4289308 C8.0890625,13.4289308 7.77180804,13.1345244 7.77180804,12.7694588 L7.77180804,11.8650018 C7.77180804,11.4999362 8.0890625,11.2055298 8.48245536,11.2055298 C8.90633929,11.2055298 9.24897321,10.8851957 9.24897321,10.4942023 C9.24897321,10.100864 8.90633929,9.78291948 8.48245536,9.78291948 C8.05859375,9.78291948 7.71595982,10.1032313 7.71595982,10.4942023 C7.71595982,10.8592903 7.39870536,11.1536966 7.0053125,11.1536966 C6.61189732,11.1536966 6.29464286,10.8592903 6.29464286,10.4942247 C6.29464286,9.37542253 7.276875,8.46393087 8.48245536,8.46393087 Z M7.7640625,14.6428237 C7.7640625,14.2673512 8.09058036,13.9655306 8.49109375,13.9631634 C8.89160714,13.9655306 9.218125,14.2673289 9.218125,14.6428461 C9.218125,15.0159513 8.89160714,15.3201392 8.49109375,15.3201392 C8.09058036,15.3201392 7.7640625,15.0183185 7.7640625,14.6428461 L7.7640625,14.6428237 Z M17.5,11.1661357 L17.5,10.116519 C17.5,10.0178488 17.5799492,9.93786078 17.6785714,9.93786078 L18.3928571,9.93786078 C18.4914794,9.93786078 18.5714286,9.8578728 18.5714286,9.75920261 L18.5714286,1.60792354 C18.5714286,1.50925336 18.4914794,1.42926537 18.3928571,1.42926537 L4.59821429,1.42926537 C4.49959201,1.42926537 4.41964286,1.50925336 4.41964286,1.60792354 L4.41964286,4.8461029 C4.41964286,4.94477308 4.33969371,5.02476107 4.24107143,5.02476107 L3.16964286,5.02476107 C3.07102058,5.02476107 2.99107143,4.94477308 2.99107143,4.8461029 L2.99107143,0.714632686 C2.99107143,0.319954453 3.31087054,0 3.70535714,0 L19.2857143,0 C19.6802009,0 20,0.319954453 20,0.714632686 L20,10.6301612 C20,11.0248394 19.6802009,11.3447939 19.2857143,11.3447939 L17.6785714,11.3447939 C17.5799492,11.3447939 17.5,11.2648059 17.5,11.1661357 Z" id="形状"></path>
                </g>
            </g>
        </g>
    </g>
</svg>