<?xml version="1.0" standalone="no"?><!DOCTYPE svg PUBLIC "-//W3C//DTD SVG 1.1//EN" "http://www.w3.org/Graphics/SVG/1.1/DTD/svg11.dtd"><svg t="1587458174377" class="icon" viewBox="0 0 1024 1024" version="1.1" xmlns="http://www.w3.org/2000/svg" p-id="9492" xmlns:xlink="http://www.w3.org/1999/xlink" width="200" height="200"><defs><style type="text/css"></style></defs><path d="M570.66875 65.15l0.84375 56.25 9.5625 0.3375c61.875 2.025 132.01875 4.3875 184.21875 93.9375 35.15625 60.3 30.0375 92.30625 24.69375 100.4625L619.1 473.91875 464.80625 401.525a550.51875 550.51875 0 0 1-40.66875-48.375c4.275-37.35 20.5875-135.5625 30.54375-163.29375 23.56875-23.175 83.7-68.45625 115.9875-68.45625v-56.25M295.6625 199.41875c-3.09375 21.9375-6.58125 46.9125-9.5625 69.075l-59.56875-12.7125a46.35 46.35 0 0 1 8.4375-24.69375c12.15-17.49375 37.18125-30.375 60.69375-31.66875M170.9 400.68125c49.725 4.55625 97.14375 17.325 122.11875 24.975 2.75625 5.11875 5.34375 10.2375 7.5375 14.9625L156.89375 569.2625c-16.425-10.35-32.34375-24.35625-34.7625-38.08125-14.68125-83.19375 14.45625-114.075 48.76875-130.5m700.65 56.53125c16.3125 12.2625 36.5625 34.93125 33.91875 64.6875-5.5125 62.6625-34.59375 101.925-48.4875 108.45-38.8125-3.20625-100.4625-17.94375-125.49375-25.2a329.90625 329.90625 0 0 1-11.86875-21.20625c17.60625-14.625 39.4875-32.90625 63.05625-52.65 31.10625-26.1 65.025-54.45 88.875-74.08125M403.83125 556.6625c69.075 26.26875 141.4125 55.85625 163.63125 68.34375 22.275 31.8375 30.2625 46.29375 32.56875 52.14375-0.5625 19.9125-14.00625 88.14375-28.63125 144.73125l-2.30625 5.0625c-12.6 28.29375-33.6375 75.6-162.84375 75.6l-5.625-0.05625c-44.8875-0.50625-84.09375-20.25-116.55-58.78125-38.19375-45.28125-54.84375-103.10625-56.1375-127.4625 35.83125-33.13125 130.275-118.40625 175.89375-159.58125m338.175 207.16875c16.7625 4.10625 35.8875 9.1125 55.0125 14.68125a41.5125 41.5125 0 0 1-4.8375 8.60625c-12.15 16.81875-36.61875 28.6875-59.9625 29.1375 2.86875-16.5375 6.35625-34.9875 9.7875-52.425M570.6125 65.15c-64.35 0-147.7125 75.9375-161.6625 91.06875-16.9875 18.225-42.075 188.94375-42.075 206.71875 0 17.775 64.29375 84.9375 64.29375 84.9375l198.225 93.0375 199.85625-184.44375s55.8-46.9125-15.35625-169.0875C742.68125 65.20625 638.3375 67.625 573.59375 65.20625L570.6125 65.15z m-271.125 77.90625c-70.875 0-156.9375 62.04375-120.7125 159.975l154.9125 33.1875s17.775-133.48125 24.24375-173.53125c-14.9625-13.33125-35.94375-19.63125-58.44375-19.63125zM161.39375 343.53125C56.6 384.81875 55.41875 476.61875 66.725 540.96875c11.30625 64.29375 99.50625 95.45625 99.50625 95.45625l197.4375-176.79375c0-30.76875-33.1875-80.8875-33.1875-80.8875s-82.51875-29.98125-169.0875-35.2125z m701.83125 48.15c-33.1875 25.48125-184.89375 154.51875-213.58125 176.79375 0 0 35.2125 78.8625 50.175 85.33125 14.9625 6.46875 109.63125 30.76875 161.83125 33.1875 51.35625-6.8625 93.0375-81.73125 99.9-160.2 6.8625-78.46875-66.31875-130.275-98.325-135.1125zM391.56875 491.975s-182.86875 164.64375-212.79375 193.3875c-29.925 28.74375 34.7625 271.4625 221.2875 273.4875l6.24375 0.05625c180.7875 0 203.0625-86.9625 218.25-117.73125 13.33125-50.9625 35.60625-151.3125 31.1625-173.53125-4.44375-22.275-34.7625-64.29375-47.30625-82.125-12.54375-17.8875-216.84375-93.54375-216.84375-93.54375z m306.61875 204.3s-24.69375 118.51875-28.74375 157.78125c18 12.7125 39.4875 18.45 61.36875 18.45 70.5375 0 145.06875-59.625 119.475-136.18125-67.55625-23.0625-152.1-40.05-152.1-40.05z" fill="#4aaf47" p-id="9493"></path></svg>