<?xml version="1.0" standalone="no"?><!DOCTYPE svg PUBLIC "-//W3C//DTD SVG 1.1//EN" "http://www.w3.org/Graphics/SVG/1.1/DTD/svg11.dtd"><svg t="1611650440441" class="icon" viewBox="0 0 1024 1024" version="1.1" xmlns="http://www.w3.org/2000/svg" p-id="15157" xmlns:xlink="http://www.w3.org/1999/xlink" width="200" height="200"><defs><style type="text/css"></style></defs><path d="M64.8 510.4c0 247.2 200 447.2 447.2 447.2s447.2-200 447.2-447.2S759.2 63.2 512 63.2 64.8 263.2 64.8 510.4z" fill="#FFFFFF" p-id="15158"></path><path d="M203.2 579.2l0.8-1.6 0.8-0.8 0.8-1.6c3.2-4.8 8.8-9.6 16.8-14.4 11.2-7.2 16.8-8.8 32-10.4h4c9.6-0.8 22.4 3.2 30.4 1.6h1.6c4.8-1.6 4.8-1.6 8-3.2h0.8l1.6-0.8c0.8-0.8 0.8-0.8 1.6-0.8 2.4-0.8 4.8-3.2 6.4-4.8 9.6-8.8 18.4-21.6 24-28 16-16.8 32.8-28.8 58.4-46.4l5.6-4c25.6-16.8 29.6-18.4 71.2-29.6l8.8-1.6c34.4-9.6 51.2-26.4 70.4-42.4 1.6-1.6 3.2-2.4 4.8-4 6.4-6.4 13.6-14.4 20.8-24 6.4-8.8 12.8-17.6 18.4-27.2l4-7.2 3.2-5.6-0.8 0.8c-2.4 2.4 9.6-20.8 17.6-31.2 12.8-17.6 28.8-29.6 48.8-34.4 16-3.2 40.8-6.4 44.8-7.2 4-0.8 8-2.4 12-3.2 4.8-1.6 11.2-3.2 14.4-4.8 0 0 16-6.4 23.2-8 4-0.8 8-0.8 12 0l3.2 0.8c14.4 3.2 22.4 12 27.2 24 0.8 1.6 0.8 2.4 0.8 4l0.8 3.2 0.8 4 0.8 1.6v17.6c-0.8 9.6-2.4 18.4-5.6 26.4-6.4 13.6-20.8 28.8-37.6 41.6l-3.2 2.4c-16 11.2-24.8 23.2-27.2 40-3.2 21.6-8 42.4-14.4 62.4l-16.8 60c-2.4 11.2-3.2 33.6 5.6 37.6l24.8 17.6-14.4 14.4c-10.4 13.6-32 20-52.8 20h-3.2c-16-0.8-29.6-4.8-40.8-12l-0.8 0.8c-0.8 1.6-2.4 3.2-3.2 4.8l-1.6 2.4c-9.6 15.2-15.2 21.6-26.4 28-26.4 14.4-53.6 23.2-80 23.2-3.2 0-6.4 0-9.6-0.8l-44.8-4 28-35.2 3.2-4c4-4.8 7.2-9.6 10.4-14.4l0.8-1.6h-0.8c-31.2-4-59.2-7.2-77.6-7.2h-12.8l-7.2 0.8c-12 0.8-24 0.8-40 10.4l-10.4 6.4c-39.2 24.8-48.8 36-83.2 36H256c-37.6-4-47.2-14.4-48.8-16-0.8-0.8-0.8-1.6-0.8-2.4 4-13.6 16-20.8 23.2-25.6l1.6-1.6-4-1.6c-16.8-7.2-28.8-9.6-24-19.2z m27.2 39.2c-3.2 3.2-2.4 5.6 0.8 6.4s16 4.8 32.8 3.2c27.2-3.2 22.4-6.4 54.4-28l13.6-8.8c23.2-15.2 29.6-16.8 57.6-21.6 4.8-0.8 11.2-1.6 18.4-1.6 25.6 0 64.8 4.8 106.4 11.2l18.4 4-8.8 16.8-4 7.2c-6.4 8.8-10.4 12.8-12.8 15.2-2.4 2.4-19.2 16-19.2 16 17.6-2.4 44 0.8 81.6-19.2 4-2.4 7.2-5.6 12-12.8l2.4-4c10.4-16.8 16.8-24 28.8-30.4l12-6.4 8.8 11.2c6.4 7.2 17.6 12 32.8 12h2.4c4.8 0 24-9.6 28.8-11.2l1.6-0.8-0.8-0.8c-8.8-9.6-23.2-14.4-24-28.8-0.8-11.2 0-23.2 1.6-29.6l15.2-62.4c5.6-17.6 10.4-32.8 13.6-50.4l1.6-8.8c4-28 22.4-41.6 44-58.4l3.2-2.4c14.4-10.4 23.2-22.4 27.2-31.2-2.4 6.4 0 0 0 0 0-0.8 0.8-1.6 0.8-2.4 4-10.4 4.8-27.2 4-36.8-1.6-9.6-6.4-12.8-7.2-12.8-0.8-0.8-2.4-1.6-4-1.6-3.2 0-5.6 0-13.6 3.2l-27.2 8c-9.6 1.6-14.4 3.2-23.2 4.8h-2.4c-17.6 2.4-21.6 1.6-36 8.8-12.8 5.6-21.6 9.6-30.4 22.4-4 5.6-9.6 16-12.8 22.4l-5.6 10.4-2.4 4-4.8 8-1.6 3.2c-6.4 10.4-16 20-23.2 30.4-8.8 12-22.4 23.2-30.4 31.2-2.4 2.4-4 4-6.4 5.6-27.2 23.2-43.2 34.4-92.8 44.8-20 4-40 17.6-62.4 33.6l-5.6 4c-24.8 17.6-44 35.2-59.2 51.2l-2.4 2.4c-12.8 13.6-14.4 16-24 20l-1.6-0.8c-0.8 0.8-1.6 0.8-2.4 1.6-5.6 1.6-6.4 1.6-13.6 2.4-12 1.6-19.2-4-32.8-3.2h-3.2c-8.8 0.8-20.8 6.4-27.2 10.4 0 0-2.4 1.6 0.8 3.2 1.6 0.8 30.4 13.6 30.4 13.6l-28 22.4z" fill="#4A5B68" p-id="15159"></path><path d="M676 311.2c6.4-4 13.6-5.6 21.6-4.8 0 0 6.4 14.4-8 26.4-14.4 12-24.8 6.4-24-1.6 0.8-8.8 4.8-16 10.4-20zM330.4 740.8c-0.8-16.8-2.4-37.6-2.4-50.4h-0.8c-4 12-8.8 25.6-15.2 42.4l-24 61.6h-5.6l-22.4-60c-6.4-17.6-11.2-31.2-14.4-44h-0.8c0 13.6-0.8 32.8-2.4 52l-3.2 52h-8l8-113.6H248l24.8 65.6c5.6 14.4 9.6 25.6 12.8 36.8h0.8c3.2-10.4 7.2-21.6 12.8-36.8l25.6-65.6h9.6l8 113.6h-8c-0.8 0-4-53.6-4-53.6z m79.2 53.6l-1.6-11.2c-4 6.4-12.8 13.6-25.6 13.6-16 0-24-11.2-24-22.4 0-18.4 16.8-29.6 49.6-29.6v-2.4c0-8-1.6-24-20.8-24-7.2 0-14.4 1.6-20 6.4l-2.4-5.6c7.2-4.8 16.8-7.2 24-7.2 23.2 0 28 17.6 28 32v31.2c0 6.4 0 12.8 1.6 19.2h-8.8z m-1.6-43.2c-17.6-0.8-40.8 2.4-40.8 21.6 0 12 8 16.8 16 16.8 13.6 0 20.8-8 24-16 0.8-1.6 0.8-3.2 0.8-4.8v-17.6z m34.4-13.6c0-8 0-16.8-0.8-24h7.2v16.8h0.8c3.2-10.4 12-18.4 23.2-18.4 0.8 0 2.4 0 3.2 0.8v8H472c-11.2 0-19.2 9.6-21.6 22.4-0.8 2.4-0.8 4.8-0.8 8v44.8h-8l0.8-58.4z m60-47.2c0 4-2.4 7.2-6.4 7.2s-6.4-3.2-6.4-7.2 3.2-7.2 6.4-7.2c4 0 6.4 3.2 6.4 7.2z m-10.4 104V713.6h8v80.8h-8z m79.2 0l-1.6-11.2h-0.8c-4 6.4-12.8 13.6-25.6 13.6-16 0-24-11.2-24-22.4 0-18.4 16.8-29.6 49.6-29.6v-2.4c0-8-1.6-24-20.8-24-7.2 0-14.4 1.6-20 6.4l-2.4-5.6c7.2-4.8 16.8-7.2 24-7.2 23.2 0 28 17.6 28 32v31.2c0 6.4 0 12.8 1.6 19.2h-8z m-1.6-43.2c-17.6-0.8-40.8 2.4-40.8 21.6 0 12 8 16.8 16 16.8 13.6 0 20.8-8 24-16 0.8-1.6 0.8-3.2 0.8-4.8v-17.6z m34.4-68.8c8.8-1.6 18.4-2.4 28.8-2.4 20.8 0 36 5.6 45.6 15.2 8.8 9.6 14.4 22.4 14.4 39.2 0 16.8-4.8 32-15.2 43.2-9.6 11.2-27.2 17.6-48.8 17.6-8.8 0-16.8 0-24.8-0.8v-112z m8 105.6c4.8 0.8 11.2 0.8 18.4 0.8 36.8 0 54.4-20 54.4-53.6 0-28.8-16-48.8-52-48.8-8.8 0-16 0.8-20.8 1.6v100z m100.8-105.6c6.4-1.6 14.4-2.4 23.2-2.4 14.4 0 23.2 3.2 29.6 9.6 4.8 4.8 7.2 10.4 7.2 18.4 0 11.2-8 21.6-19.2 25.6v0.8c9.6 2.4 24 10.4 24 28.8 0 9.6-3.2 16.8-8.8 21.6-7.2 8-20 11.2-36 11.2-8.8 0-15.2-0.8-20-0.8V682.4z m8 48.8h16.8c16.8 0 26.4-9.6 26.4-22.4 0-16-12-21.6-28.8-21.6-7.2 0-12 0.8-14.4 1.6v42.4z m0 56.8c3.2 0.8 8 0.8 13.6 0.8 17.6 0 33.6-6.4 33.6-25.6 0-17.6-15.2-25.6-33.6-25.6H720c0.8 0 0.8 50.4 0.8 50.4z" fill="#4A5B68" p-id="15160"></path></svg>