<?xml version="1.0" standalone="no"?><!DOCTYPE svg PUBLIC "-//W3C//DTD SVG 1.1//EN" "http://www.w3.org/Graphics/SVG/1.1/DTD/svg11.dtd"><svg t="1599190038069" class="icon" viewBox="0 0 1024 1024" version="1.1" xmlns="http://www.w3.org/2000/svg" p-id="12696" xmlns:xlink="http://www.w3.org/1999/xlink" width="18" height="18"><defs><style type="text/css"></style></defs><path d="M896 128v768H128V128h768m0-64H128c-38.4 0-64 25.6-64 64v768c0 38.4 25.6 64 64 64h768c38.4 0 64-25.6 64-64V128c0-38.4-25.6-64-64-64z" fill="#4AAF47" p-id="12697"></path><path d="M352 326.4l12.8 25.6 25.6 6.4-19.2 12.8 6.4 25.6-25.6-12.8-19.2 12.8 6.4-25.6-25.6-19.2 25.6-6.4 12.8-19.2m0-108.8l-44.8 83.2-96 19.2 70.4 70.4-19.2 96 89.6-44.8 89.6 44.8-19.2-96L492.8 320l-96-19.2-44.8-83.2zM755.2 275.2v140.8H614.4V275.2h140.8m51.2-44.8H563.2v243.2h243.2V230.4zM352 601.6c44.8 0 76.8 38.4 76.8 76.8s-38.4 76.8-76.8 76.8-76.8-38.4-76.8-76.8 32-76.8 76.8-76.8m0-51.2c-70.4 0-128 57.6-128 128s57.6 128 128 128 128-57.6 128-128-57.6-128-128-128zM684.8 665.6l25.6 38.4 25.6 38.4H640l25.6-38.4 19.2-38.4m0-96l-64 115.2-64 115.2h256l-64-115.2-64-115.2z" fill="#4AAF47" p-id="12698"></path></svg>