<?xml version="1.0" standalone="no"?>
<!DOCTYPE svg PUBLIC "-//W3C//DTD SVG 1.1//EN" "http://www.w3.org/Graphics/SVG/1.1/DTD/svg11.dtd" >
<!--
2013-9-30: Created.
-->
<svg>
<metadata>
Created by iconfont
</metadata>
<defs>

<font id="iconfont" horiz-adv-x="1024" >
  <font-face
    font-family="iconfont"
    font-weight="500"
    font-stretch="normal"
    units-per-em="1024"
    ascent="896"
    descent="-128"
  />
    <missing-glyph />
    
    <glyph glyph-name="shangchuan-copy" unicode="&#60707;" d="M512-66C759.50000001-66 962 136.49999999 962 384s-202.50000001 450-450 450-450-202.50000001-450-450S264.49999999-66 512-66z m-41.2499997 675l48.74999941 1e-8c15.00000029 0 29.99999971-15.00000029 30.00000058-29.99999972s-15.00000029-29.99999971-30.00000058-30.00000059l-48.74999941 1e-8c-15.00000029 0-29.99999971 15.00000029-30.00000059 30.00000058s15.00000029 29.99999971 30.00000059 29.99999971z m-112.50000001-240.00000029l82.49999942 0 0 93.75000029c0 15.00000029 11.25 26.25000028 26.25000029 26.25000029l52.49999971-1e-8c15.00000029 0 26.25000028-11.25 26.25000029-26.25000028l0-93.75000029L635.75 368.99999971c15.00000029 0 26.25000028-11.25 26.25000029-22.5s0-26.25000029-11.25-33.75l-127.50000029-142.49999971c-15.00000029-15.00000029-37.50000029-15.00000029-52.49999971 0l-127.50000029 142.49999971c-7.49999971 7.49999971-11.25 22.50000001-11.25 33.75 3.75000029 11.25 15.00000029 22.50000001 26.25000029 22.5z"  horiz-adv-x="1024" />

    
    <glyph glyph-name="closeeye" unicode="&#58939;" d="M373.245 187.596l35.952 67.635a497.703 497.703 0 0 1 111.421-12.646c41.114 0 81.431 5.2 119.805 14.838l34.047-68.889c8.65-17.498 29.847-24.671 47.345-16.021 17.498 8.65 24.671 29.847 16.021 47.345l-29.674 59.96c56.938 23.627 107.109 57.429 145.813 98.279l0.543-0.516 46.889-40.955c14.701-12.841 37.028-11.333 49.868 3.369 12.841 14.701 11.333 37.028-3.368 49.869l-46.889 40.955-4.185 3.147 4.224 7.117c5.847 10.269 11.035 20.804 15.516 31.574 12.404 29.81 18.861 60.54 18.861 91.157 0 19.519-15.824 35.343-35.343 35.343-19.519 0-35.343-15.824-35.343-35.343 0-21.045-4.527-42.588-13.437-64.002C807.587 394.729 671.146 313.27 520.618 313.27c-149.316 0-284.019 78.674-329.197 182.266-9.894 22.686-14.933 45.68-14.933 68.276 0 19.519-15.824 35.343-35.343 35.343-19.519 0-35.343-15.824-35.343-35.343 0-32.575 7.137-65.145 20.826-96.533a287.155 287.155 0 0 1 14.201-28.177c-6.363-0.937-12.592-3.694-17.847-8.284l-46.889-40.955c-14.701-12.841-16.209-35.168-3.369-49.869 12.841-14.701 35.168-16.209 49.869-3.369l46.889 40.955a35.273 35.273 0 0 1 8.15 10.375c41.266-47.405 97.812-86.015 162.799-111.498l-29.59-55.663c-9.168-17.233-2.63-38.634 14.603-47.802 17.232-9.167 38.633-2.629 47.801 14.604z"  horiz-adv-x="1024" />

    
    <glyph glyph-name="openeye" unicode="&#58940;" d="M523.459 459.347c-58.558 0-106.029-47.471-106.029-106.029s47.471-106.029 106.029-106.029 106.029 47.471 106.029 106.029-47.471 106.029-106.029 106.029z m0 70.686c97.597 0 176.715-79.118 176.715-176.715s-79.118-176.715-176.715-176.715-176.715 79.118-176.715 176.715 79.118 176.715 176.715 176.715z m-2.841 67.639c-186.332 0-344.13-122.369-344.13-250.542s157.798-250.542 344.13-250.542c185.419 0 344.13 123.672 344.13 250.542s-158.711 250.542-344.13 250.542zM373.245 723.347l35.995-67.668a495.861 495.861 0 0 0 111.378 12.679c41.237 0 81.519-5.247 119.768-14.89l34.084 68.941c8.65 17.498 29.847 24.671 47.345 16.021 17.498-8.65 24.671-29.847 16.021-47.345l-29.724-60.077c57.202-23.791 107.356-57.72 145.898-98.175l0.508 0.529 46.889 40.955c14.701 12.84 37.028 11.332 49.868-3.369 12.841-14.701 11.333-37.028-3.368-49.869l-46.889-40.955-3.98-2.998c24.536-40.266 38.396-84.437 38.396-129.996 0-170.312-193.673-321.228-414.816-321.228-222.005 0-414.816 149.521-414.816 321.228 0 43.728 12.505 86.017 34.812 124.764-6.301 0.952-12.442 3.696-17.632 8.23l-46.889 40.955c-14.701 12.841-16.209 35.168-3.369 49.869 12.841 14.701 35.168 16.209 49.869 3.369l46.889-40.955a35.25 35.25 0 0 0 8.101-10.281c41.067 46.837 97.562 85.633 162.901 111.313l-29.644 55.754c-9.168 17.232-2.63 38.634 14.603 47.802s38.634 2.63 47.802-14.603z"  horiz-adv-x="1024" />

    
    <glyph glyph-name="dinggouchenggong" unicode="&#58881;" d="M1023.99869 380.565659A507.412351 507.412351 0 0 0 515.434341-127.99869C233.663701-127.99869 0 98.77402 0 380.565659 0 662.336299 226.77271 896 515.434341 896 797.22598 896 1023.99869 669.22729 1023.99869 380.565659zM416.426467 147.691957l410.665475 385.855507-49.577937 47.359939-354.026547-338.453567-177.002773 169.237784-49.556937-47.38194 219.476719-216.617723z"  horiz-adv-x="1024" />

    
    <glyph glyph-name="biaogelibianjimingchengdecuowutishi" unicode="&#58882;" d="M1021.796 388.938A506.55 506.55 0 0 1 515.83 894.904 506.55 506.55 0 0 1 9.79 388.938a506.55 506.55 0 0 1 506.04-506.04 506.55 506.55 0 0 1 505.966 506.04zM515.83 570.428a54.432 54.432 0 1 0 0 108.865 54.432 54.432 0 0 0 0-108.865z m0-471.992a36.313 36.313 0 0 0-36.313 36.386V461.49a36.313 36.313 0 0 0 72.553 0v-326.668a36.313 36.313 0 0 0-36.24-36.313z"  horiz-adv-x="1033" />

    
    <glyph glyph-name="dinggoushibai" unicode="&#58883;" d="M512 896c282.773 0 512-229.227 512-512s-229.227-512-512-512S0 101.227 0 384 229.227 896 512 896z m181.013-647.765L557.44 383.829l137.493 137.494a32.256 32.256 0 0 1-45.589 45.653L511.787 429.44 376.213 565.013a32 32 0 1 1-45.248-45.226L466.54 384.192 330.048 247.659a32.213 32.213 0 1 1 45.59-45.59L512.148 338.56l135.595-135.573a32 32 0 1 1 45.248 45.226z"  horiz-adv-x="1024" />

    
    <glyph glyph-name="daiqidong" unicode="&#58884;" d="M993.672 399.601c0 266.377-216.39 482.839-482.838 482.839S27.996 666.05 27.996 399.6c0-266.376 216.39-482.838 482.838-482.838 266.376 0 482.838 216.39 482.838 482.838z m-160.85-59.651a46.452 46.452 0 0 0-45.946-45.442H491.504a32.17 32.17 0 0 0-10.243-1.659h0.577-0.577a44.648 44.648 0 0 0-44.288 45.442V644.988c0 25.029 19.908 45.442 44.865 45.442h0.577c25.03 0 46.02-20.413 46.02-45.442v-259.596H787.38c25.029 0 45.442-20.413 45.442-45.442z"  horiz-adv-x="1053" />

    
    <glyph glyph-name="fanhui" unicode="&#58885;" d="M363.2 339.2l384 384c25.6 25.6 25.6 67.2 0 92.8-25.6 25.6-67.2 25.6-92.8 0l-384-384c-25.6-25.6-25.6-67.2 0-92.8 25.6-25.6 67.2-25.6 92.8 0zM271.2 337.6L652.8-44c25.6-25.6 67.2-25.6 92.8 0 25.6 25.6 25.6 67.2 0 92.8L364 430.4c-25.6 25.6-67.2 25.6-92.8 0-24.8-25.6-24.8-67.2 0-92.8z"  horiz-adv-x="1024" />

    
    <glyph glyph-name="bianji" unicode="&#58886;" d="M684.889 860.458c19.43 19.43 51.626 18.799 72.108-1.683l110.827-110.827c20.482-20.412 21.254-52.678 1.824-72.249l-545.72-545.72a110.827 110.827 0 0 0-41.945-24.199L105.99 57.732c-26.794-7.365-42.998 8.698-36.194 35.492l45.594 179.71c3.437 13.326 14.169 32.265 23.849 41.805l545.72 545.72zM176.135 277.843a65.094 65.094 0 0 1-11.223-19.64L129.28 117.705l137.061 37.457a66.637 66.637 0 0 1 20.623 11.924l545.72 545.72L721.854 823.563l-545.72-545.72z m507 507.14l110.828-110.827-36.966-37.036L646.17 747.948l36.965 36.965zM239.826 341.605l110.827-110.827-36.965-36.966L202.86 304.638l36.966 36.966zM63.765-85.502a26.094 26.094 0 0 0-7.716 18.518c0 14.45 11.504 26.164 26.234 30.653h809.53c14.45-4.49 26.164-16.133 26.164-30.653a26.094 26.094 0 0 0-26.163-26.094H82.353a26.094 26.094 0 0 0-18.588 7.576z"  horiz-adv-x="1024" />

    
    <glyph glyph-name="dinggou" unicode="&#58887;" d="M116.530987 91.428976h754.980919c19.748998 0 35.839996 14.335998 35.839997 33.937997l30.573996 699.099925h57.343994c21.576998 0 39.496996 19.747998 35.839996 41.105995A38.326996 38.326996 0 0 1 993.513893 895.99989H869.756907L842.839909 305.956953H170.364982l35.839996 357.667962H762.089918c19.748998 0 35.839996 16.091998 35.839996 35.693996a35.912996 35.912996 0 0 1-35.839996 35.766996H168.535982a36.789996 36.789996 0 0 1-35.839996-33.938996l-30.499997-429.128954a34.889996 34.889996 0 0 1 34.083996-37.521996h702.902925l-3.584-71.533992H116.604987c-19.748998 0-35.913996-16.090998-35.913996-35.839996 0-19.601998 16.091998-35.692996 35.839996-35.692997z m788.406916-147.602984a55.588994 55.588994 0 0 1 56.099994-57.050994 55.588994 55.588994 0 0 1 56.027994 57.050994 55.588994 55.588994 0 0 1-56.026994 57.197994 55.588994 55.588994 0 0 1-56.099994-57.197994zM63.649993-113.225002a55.588994 55.588994 0 0 1 56.099994 57.050994 55.588994 55.588994 0 0 1-56.099994 57.197994 55.588994 55.588994 0 0 1-56.099994-57.197994 55.588994 55.588994 0 0 1 56.099994-57.050994z m691.711926 514.193945c0-20.991998-16.822998-38.179996-37.375996-38.179996h-373.97996a37.887996 37.887996 0 0 0-37.374996 38.106996c0 20.991998 16.822998 38.033996 37.302996 38.033996h373.97896c20.479998 0 37.302996-17.041998 37.302996-38.033996z m-418.669955 202.459978h365.714961c20.113998 0 36.570996-16.457998 36.570996-36.571996s-16.456998-36.570996-36.570996-36.570996H336.689964a36.644996 36.644996 0 0 0-36.570996 36.570996c0 20.113998 16.456998 36.571996 36.570996 36.571996z"  horiz-adv-x="1038" />

    
    <glyph glyph-name="jifeixinxi" unicode="&#58888;" d="M49.152 769.003V832.502H906.38v-63.499H49.15z m782.872-782.11V772.686h63.499v-785.793h-63.499z m-782.872 0V70.52H906.38v-83.627H49.15z m0 71.372V201.137h71.436v-142.872H49.152z m0 571.486V772.623h71.436V629.75H49.152z m0-142.871v71.499h142.871v-71.5H49.152z m0-214.308v71.5h142.871v-71.5H49.152z m0 71.5v71.372h142.871v-71.372H49.152z m485.382 125.091l97.216 165.35h-66.292l-40.576-74.737c-20.827-38.988-33.527-64.832-38.162-77.659h-1.27c-10.859 24.51-37.083 75.31-78.738 152.396h-70.674l96.327-165.35H320.417v-51.814h131.124v-71.373H320.417v-52.45h131.124V189.58h65.086V293.527h126.49v52.45h-126.49v71.372h126.49v51.814H534.533z"  horiz-adv-x="1089" />

    
    <glyph glyph-name="tishi" unicode="&#58889;" d="M507.648-118.187c-279.296 0-506.539 227.243-506.539 506.56C1.11 667.648 228.352 894.891 507.648 894.891c279.317 0 506.517-227.2 506.517-506.539 0-279.317-227.2-506.517-506.517-506.517zM453.12 624.597a54.507 54.507 0 1 1 109.013 0 54.507 54.507 0 0 1-109.013 0z m54.507-526.933c20.053 0 36.33 16.213 36.33 36.33v327.02a36.352 36.352 0 0 1-72.682 0v-327.04c0-20.097 16.277-36.353 36.352-36.353z"  horiz-adv-x="1024" />

    
    <glyph glyph-name="sousuoshanchu_u251" unicode="&#58890;" d="M718.848 229.171l-155.102 155.17 155.102 155.17-51.678 51.747L512 436.088l-155.17 155.17-51.678-51.747 155.102-155.17-155.102-155.17 51.678-51.678L512 332.663l155.17-155.17 51.678 51.678zM0 384C0 666.487 229.513 896 512 896s512-229.513 512-512-229.513-512-512-512A512.41 512.41 0 0 0 0 384z"  horiz-adv-x="1024" />

    
    <glyph glyph-name="shuaxin" unicode="&#58891;" d="M143.886 429.094v-28.597c0-257.308 205.28-464.57 460.11-464.57 84.944 0 169.887 21.448 240.673 71.494 14.157 7.15 21.236 21.448 21.236 42.896 0 28.598-21.236 42.897-42.472 42.897-7.078 0-21.235 0-28.314-7.15-56.63-42.896-120.337-64.344-191.123-64.344-205.28 0-375.167 171.515-375.167 378.777v28.597h99.101L186.358 643.506 37.707 429.023h106.179z m884.827-264.457l141.573 207.262h-106.18v28.598c0 257.307-205.28 464.57-460.11 464.57-84.943 0-169.887-21.449-240.673-71.495-14.157 0-28.314-21.448-28.314-35.747 0-28.597 21.235-42.896 42.471-42.896 7.079 0 21.236 0 28.315 7.15 63.707 35.746 127.415 57.195 198.201 57.195 205.28 0 375.167-171.515 375.167-378.777v-28.598h-99.1l148.65-207.262z"  horiz-adv-x="1248" />

    
    <glyph glyph-name="sousuo" unicode="&#58892;" d="M944.872077-114.035014L805.235214 25.60085c-18.617982 18.617982-18.617982 46.544955 0 65.163936 18.618982 18.617982 46.545955 18.617982 65.163936 0l139.635864-139.636863c18.618982-18.617982 18.618982-46.544955 0-65.162937-18.617982-18.618982-46.544955-18.618982-65.162937 0zM511.9995 896C228.072777 896 0 663.273227 0 384.0005s228.072777-511.9995 511.9995-511.9995 511.9995 228.072777 511.9995 511.9995S791.272227 896 511.9995 896z m0-926.254095c-228.072777 0-418.909591 186.181818-418.909591 418.90959C93.089909 616.727273 279.273727 802.909091 511.9995 802.909091S930.909091 616.727273 930.909091 384.0005c0-228.072777-190.836814-414.254595-418.909591-414.254595z"  horiz-adv-x="1024" />

    
    <glyph glyph-name="yunhangcuowu" unicode="&#58893;" d="M1.087 384.56a502.24 502.24 0 0 1 501.66-501.662 502.24 502.24 0 0 1 501.734 501.661A502.24 502.24 0 0 1 502.748 886.293 502.24 502.24 0 0 1 1.087 384.559z m537.664-71.936a36.004 36.004 0 0 0-71.935 0V636.513a36.004 36.004 0 1 0 71.935 0v-323.889z m18.038-161.98a53.97 53.97 0 1 0-107.938 0 53.97 53.97 0 0 0 107.938 0z"  horiz-adv-x="1025" />

    
    <glyph glyph-name="shilixinxi" unicode="&#58894;" d="M707.31 256.956v63.488h65.127v-63.488h-65.126z m-108.543-275.32v63.488h65.126v-63.488h-65.058z m0 275.32v63.488h65.126v-63.488h-65.058zM99.669 108.68v36.386h824.662v-36.386H99.669z m607.642-127.045v63.488h65.126v-63.488h-65.126z m108.544 0v63.488h65.126v-63.488h-65.126z m0 550.57v63.557h65.126v-63.488h-65.126z m0-275.25v63.488h65.126v-63.488h-65.126z m174.012 487.082L880.98 896H143.02L34.133 744.038V-128h955.734V744.038z m-43.828-598.971V-81.92H77.961V145.067h868.078z m0 273.066v-204.8H77.961v204.8h868.078z m0 273.067v-222.55H77.961V691.2h868.078z m0 52.838H77.961l86.766 105.814h694.546l86.766-105.814zM99.67 659.32v21.163h824.662v-21.163H99.669z m0-275.319v34.133h824.662V384H99.669z m607.574 148.207v63.556h65.126v-63.488h-65.126z m-108.544 0v63.556h65.126v-63.488h-65.058z"  horiz-adv-x="1024" />

    
    <glyph glyph-name="yichang" unicode="&#58895;" d="M1.087 384.56a502.24 502.24 0 0 1 501.66-501.662 502.24 502.24 0 0 1 501.734 501.661A502.24 502.24 0 0 1 502.748 886.293 502.24 502.24 0 0 1 1.087 384.559z m537.664-71.936a36.004 36.004 0 0 0-71.935 0V636.513a36.004 36.004 0 1 0 71.935 0v-323.889z m18.038-161.98a53.97 53.97 0 1 0-107.938 0 53.97 53.97 0 0 0 107.938 0z"  horiz-adv-x="1025" />

    
    <glyph glyph-name="yunhangzhong" unicode="&#58896;" d="M512 896a512 512 0 1 1 0-1024A512 512 0 0 1 512 896z m284.672-512l-55.662-55.662-12.215-12.215-203.63-203.63-67.876 67.95 154.405 154.405H227.328v102.4h380.343L457.216 587.63l67.877 67.95 203.702-203.703L796.672 384z"  horiz-adv-x="1024" />

    
    <glyph glyph-name="shaixuan2" unicode="&#58897;" d="M380.156-79.741v352.34c0 23.18 18.544 46.36 46.36 46.36 23.18 0 46.361-18.544 46.361-46.36v-352.34c0-23.18-18.544-46.36-46.36-46.36-23.18 0-46.36 18.544-46.36 46.36zM973.57 801.108H46.36C23.18 801.108 0 819.653 0 847.468 0 870.65 18.544 893.83 46.36 893.83h927.21c23.18 0 46.36-18.544 46.36-46.36s-23.18-46.36-46.36-46.36zM384.792 281.87L9.272 819.654C-4.636 842.833 0 870.649 18.544 884.557 41.724 898.465 69.541 893.83 83.45 875.285l380.156-542.418c13.908-23.18 9.272-50.996-9.272-64.904-23.18-13.908-55.633-9.272-69.54 13.908z m176.17 55.633l375.52 537.782c13.908 23.18 41.724 27.817 64.905 9.272 23.18-13.908 27.816-41.724 9.272-64.904L635.139 281.87c-13.908-23.18-41.725-27.816-64.905-9.272-23.18 13.908-27.816 41.724-9.272 64.904zM547.054 12.98V305.051c0 23.18 18.544 41.725 41.724 41.725h4.636c23.18 0 41.725-18.545 41.725-41.725V12.98c0-23.18-18.544-41.724-41.725-41.724h-4.636c-23.18 0-41.724 18.544-41.724 41.724z m-166.898-92.721V300.415c0 23.18 18.544 46.36 46.36 46.36 23.18 0 46.361-18.544 46.361-46.36v-380.156c0-23.18-18.544-46.36-46.36-46.36-23.18 0-46.36 18.544-46.36 46.36zM403.336-38.017l162.262 92.721c23.18 13.909 50.997 4.636 64.905-18.544 13.908-23.18 4.636-50.996-18.544-64.904l-162.262-92.721c-23.18-13.909-50.997-4.637-64.905 18.544-9.272 23.18 0 50.996 18.544 64.904z"  horiz-adv-x="1026" />

    
    <glyph glyph-name="kongshuju" unicode="&#58898;" d="M0 75.217c0-110.592 333.452-200.331 744.727-200.331s744.728 89.74 744.728 200.331c0 110.686-333.452 200.332-744.728 200.332S0 185.903 0 75.217zM200.145 562.548c0 6.982 5.493 12.568 12.195 12.568h1072.687c6.702 0 12.102-5.586 12.102-12.568v-458.38a62.092 62.092 0 0 0-60.975-63.115h-974.94a60.044 60.044 0 0 0-43.195 18.432 64.233 64.233 0 0 0-17.874 44.684v458.38zM175.756 562.548v-458.38c0-48.779 38.167-88.436 85.457-88.436h974.941c47.197 0 85.458 39.657 85.458 88.437v458.38a37.236 37.236 0 0 1-36.585 37.887H212.247a37.236 37.236 0 0 1-36.584-37.888z m24.39 0c0 6.982 5.492 12.568 12.194 12.568h1072.687c6.702 0 12.102-5.586 12.102-12.568v-458.38a62.092 62.092 0 0 0-60.975-63.115h-974.94a60.044 60.044 0 0 0-43.195 18.432 64.233 64.233 0 0 0-17.874 44.684v458.38zM468.247 896h582.842l268.847-316.788h-273.594a49.338 49.338 0 0 1-48.035-41.891l-10.054-59.95a49.338 49.338 0 0 0-48.035-41.892H575.674a49.338 49.338 0 0 0-48.314 43.008l-8.285 57.717a49.338 49.338 0 0 1-48.314 43.008H179.665L468.247 896zM468.247 896h582.842l268.847-316.788h-273.594a49.338 49.338 0 0 1-48.035-41.891l-10.054-59.95a49.338 49.338 0 0 0-48.035-41.892H575.674a49.338 49.338 0 0 0-48.314 43.008l-8.285 57.717a49.338 49.338 0 0 1-48.314 43.008H179.665L468.247 896z m10.613-25.228L236.079 604.44H470.76c36.305 0 67.025-27.462 72.424-64.605l8.286-57.716c1.861-12.288 12.101-21.411 24.203-21.411h364.544a24.67 24.67 0 0 1 24.018 20.945l9.96 59.95a74.007 74.007 0 0 0 72.146 62.837h219.694L1040.012 870.68H478.86z"  horiz-adv-x="1489" />

    
    <glyph glyph-name="yiwen" unicode="&#58899;" d="M510.9 893.737c279.755 0 508.638-228.883 508.638-508.638s-228.883-508.637-508.637-508.637S2.263 105.345 2.263 385.099 231.146 893.737 510.9 893.737z m0-72.693c-239.758 0-435.944-196.186-435.944-435.945 0-239.758 196.186-435.944 435.945-435.944 239.758 0 435.944 196.186 435.944 435.944 0 239.759-196.186 435.945-435.944 435.945z m36.347-701.175h-65.395v69.045h65.395v-69.045z m-152.54 486.815c14.451 14.598 32.625 25.472 54.448 32.698 21.75 7.299 43.572 10.948 65.395 10.948 47.222 0 83.569-14.597 116.266-32.698 29.048-29.048 43.573-65.395 43.573-109.04 0-18.101-3.65-39.924-10.948-54.448-7.226-14.597-21.75-36.347-47.149-58.17-21.896-25.399-39.996-39.923-47.295-50.87-7.298-10.876-14.524-21.75-18.1-36.275-4.89-9.707-6.496-21.02-7.007-35.033l-0.292-23.136h-58.097c0 29.048 3.65 50.87 7.299 69.044 3.576 14.597 10.802 32.698 18.1 43.573 9.343 9.342 21.385 24.085 38.318 41.748l17.809 18.246c16.932 17.736 28.464 32.406 34.668 41.748 7.298 10.948 10.948 29.048 10.948 50.871 0 21.823-7.299 39.996-25.472 58.097-18.174 18.246-39.924 25.472-72.621 25.472-68.826 0-105.1-39.12-108.749-117.361l-0.292-13.43h-58.097c0 39.923 3.65 69.045 10.948 87.218 7.226 18.1 21.75 36.274 36.274 50.798z"  horiz-adv-x="1026" />

    
    <glyph glyph-name="yidongjie" unicode="&#58900;" d="M1024 384C1024 666.917 794.843 896 512 896 229.083 896 0 666.917 0 384c0-282.843 229.083-512 512-512 282.843 0 512 229.157 512 512z m-348.16 64l32.037-8.923a25.6 25.6 0 0 0 17.846-32.037 24.65 24.65 0 0 0-24.283-19.237c-2.56 0-3.877 1.317-6.437 1.317l-84.48 23.04L563.2 384l51.2-30.72 84.48 23.04a25.6 25.6 0 0 0 32.037-17.92 25.6 25.6 0 0 0-17.92-32.037L678.4 317.44l83.163-48.64c12.8-6.437 16.677-23.04 7.68-35.84a24.795 24.795 0 0 0-21.723-12.8 24.722 24.722 0 0 0-12.8 3.877L652.8 271.36l8.923-33.28a25.6 25.6 0 0 0-17.92-32.037c-2.486-1.243-3.803-1.243-6.363-1.243a25.746 25.746 0 0 0-24.283 19.163l-23.04 84.48-52.517 30.72v-55.003l60.123-61.44c10.24-8.997 10.24-25.6 0-35.84a25.307 25.307 0 0 0-17.92-7.68 25.307 25.307 0 0 0-17.846 7.68l-25.6 25.6v-99.84c0-14.043-11.557-25.6-25.6-25.6a25.673 25.673 0 0 0-25.6 25.6v99.84l-25.6-25.6a25.307 25.307 0 0 0-17.994-7.68 25.307 25.307 0 0 0-17.846 7.68c-10.24 8.997-10.24 25.6 0 35.84l61.44 61.44v55.077l-52.517-30.72-23.04-84.554a24.65 24.65 0 0 0-24.283-19.236c-2.56 0-3.877 1.316-6.437 1.316a25.6 25.6 0 0 0-17.92 31.964l8.997 34.523-81.92-47.323a24.722 24.722 0 0 0-12.8-3.877 26.331 26.331 0 0 0-21.797 12.873c-7.68 11.484-3.803 26.844 8.997 34.524l81.92 48.64-34.597 8.996a25.6 25.6 0 0 0-17.92 31.964 25.6 25.6 0 0 0 32.037 17.92l84.406-23.04L460.8 384l-48.64 29.403-84.48-22.966c-2.56-1.317-3.877-1.317-6.437-1.317a25.746 25.746 0 0 0-24.283 19.163 25.6 25.6 0 0 0 17.92 32.037l34.597 8.997L263.68 499.2a24.869 24.869 0 0 0-8.997 34.597 24.869 24.869 0 0 0 34.597 8.923l85.797-49.957-8.997 34.597A25.6 25.6 0 0 0 384 559.397a25.6 25.6 0 0 0 32.037-17.92l23.04-84.48 47.323-28.234V488.96l-61.44 61.44c-10.24 8.923-10.24 25.6 0 35.84 8.997 10.24 25.6 10.24 35.84 0l25.6-25.6v94.72c0 14.043 11.483 25.6 25.6 25.6 14.043 0 25.6-11.557 25.6-25.6v-94.72l25.6 25.6c8.923 10.24 25.6 10.24 35.84 0 10.24-8.923 10.24-25.6 0-35.84l-61.44-61.44v-60.123l48.64 26.843 23.04 84.48a25.6 25.6 0 0 0 32.037 17.92 25.6 25.6 0 0 0 17.846-32.037l-8.923-34.523 85.723 49.957c11.557 7.68 26.917 3.803 34.597-8.997 7.68-11.557 3.877-26.917-8.997-34.597L675.84 448z"  horiz-adv-x="1024" />

    


  </font>
</defs>
</svg>
