<?xml version="1.0" encoding="UTF-8"?>
<svg width="30px" height="30px" viewBox="0 0 30 30" version="1.1" xmlns="http://www.w3.org/2000/svg" xmlns:xlink="http://www.w3.org/1999/xlink">
    <title>api</title>
    <g id="api" stroke="none" stroke-width="1" fill="none" fill-rule="evenodd">
        <circle id="椭圆形" stroke="#E3E3E3" fill="#FFFFFF" cx="14.9217305" cy="15.0782695" r="14.3496"></circle>
        <g transform="translate(7.000000, 7.000000)" fill="#4AAF47" fill-rule="nonzero">
            <path d="M9,5.17647059 L5.17647059,9 C4.94117647,9.23529413 4.94117647,9.5882353 5.17647059,9.82352941 C5.29411765,9.94117647 5.44117647,10 5.5882353,10 C5.73529413,10 5.88235294,9.94117647 6,9.82352941 L9.82352941,6 C10.0588235,5.76470588 10.0588235,5.4117647 9.82352941,5.17647059 C9.58823529,4.94117647 9.20588235,4.94117647 9,5.17647059 Z" id="路径"></path>
            <path d="M8.24921956,12.5625 C6.65712798,14.15625 4.06607699,14.15625 2.44276794,12.5625 C0.85067637,10.96875 0.85067637,8.375 2.44276794,6.75 C2.6925078,6.5 2.6925078,6.125 2.44276794,5.875 C2.19302808,5.625 1.8184183,5.625 1.56867846,5.875 C-0.522892819,7.9375 -0.522892819,11.34375 1.56867846,13.4375 C2.59885536,14.46875 3.97242456,15 5.34599375,15 C6.71956295,15 8.09313214,14.46875 9.12330906,13.4375 C9.37304892,13.1875 9.37304892,12.8125 9.12330906,12.5625 C8.8735692,12.3125 8.49895941,12.3125 8.24921956,12.5625 L8.24921956,12.5625 Z M13.4313215,1.5625 C12.4323621,0.5625 11.0900104,0 9.65400624,0 C8.21800206,0 6.87565037,0.5625 5.87669094,1.5625 C5.62695108,1.81250001 5.62695108,2.18750001 5.87669094,2.4375 C6.1264308,2.6875 6.50104059,2.6875 6.75078043,2.4375 C7.53121748,1.6875 8.56139438,1.25 9.65400624,1.25 C10.7466181,1.25 11.776795,1.6875 12.557232,2.4375 C14.1493236,4.03125 14.1493236,6.625 12.557232,8.25 C12.3074922,8.5 12.3074922,8.875 12.557232,9.125 C12.682102,9.24999999 12.8381894,9.3125 12.9942768,9.3125 C13.1503642,9.3125 13.3064516,9.24999999 13.4313215,9.125 C15.5228928,7.0625 15.5228928,3.65625 13.4313215,1.5625 Z" id="形状"></path>
        </g>
    </g>
</svg>