<?xml version="1.0" encoding="UTF-8"?>
<svg width="30px" height="30px" viewBox="0 0 30 30" version="1.1" xmlns="http://www.w3.org/2000/svg" xmlns:xlink="http://www.w3.org/1999/xlink">
    <title>collection</title>
    <g id="collection" stroke="none" stroke-width="1" fill="none" fill-rule="evenodd">
        <circle id="椭圆形" stroke="#E3E3E3" fill="#FFFFFF" cx="14.9217305" cy="15.0782695" r="14.3496"></circle>
        <g transform="translate(7.499998, 7.500000)" fill="#4AAF47" fill-rule="nonzero" id="形状">
            <path d="M13.9298792,0 L1.07178681,0 C0.482304064,0 0,0.482304343 0,1.07178743 L0,13.9282126 C0,14.5176957 0.482304064,15 1.07178681,15 L13.9282045,15 C14.5176873,15 15,14.5176957 15,13.9282126 L15,1.07178743 C15.001666,0.482304343 14.5193619,0 13.9298792,0 Z M13.9215058,13.3136095 C13.9215058,13.6652897 13.6368125,13.9499833 13.2851324,13.9499833 L1.69643756,13.9499833 C1.34475751,13.9499833 1.06006414,13.6652897 1.06006414,13.3136095 L1.06006414,1.72490789 C1.06006414,1.37490231 1.34643218,1.08853411 1.69643756,1.08853411 L13.2851324,1.08853411 C13.6351378,1.08853411 13.9215058,1.37490231 13.9215058,1.72490789 L13.9215058,13.3136095 Z"></path>
            <path d="M6.6631966,2.1875 L2.71180771,2.1875 C2.42361326,2.1875 2.18750215,2.42361111 2.18750215,2.71180556 L2.18750215,6.66319444 C2.18750215,6.95138889 2.42361326,7.1875 2.71180771,7.1875 L6.6631966,7.1875 C6.95139104,7.1875 7.18750215,6.95138889 7.18750215,6.66319444 L7.18750215,2.71180556 C7.18750215,2.421875 6.95139104,2.1875 6.6631966,2.1875 Z M6.07639104,5.6875 C6.07639104,5.89930556 5.90277993,6.07291667 5.69097437,6.07291667 L3.68229382,6.07291667 C3.47048826,6.07291667 3.29687715,5.89930556 3.29687715,5.6875 L3.29687715,3.68055556 C3.29687715,3.46875 3.47048826,3.29513889 3.68229382,3.29513889 L5.68923826,3.29513889 C5.90104382,3.29513889 6.07465493,3.46875 6.07465493,3.68055556 L6.07465493,5.6875 L6.07639104,5.6875 Z"></path>
            <path d="M12.2881966,2.1875 L8.33680771,2.1875 C8.04861326,2.1875 7.81250215,2.42361111 7.81250215,2.71180556 L7.81250215,6.66319444 C7.81250215,6.95138889 8.04861326,7.1875 8.33680771,7.1875 L12.2881966,7.1875 C12.576391,7.1875 12.8125022,6.95138889 12.8125022,6.66319444 L12.8125022,2.71180556 C12.8125022,2.42361111 12.576391,2.1875 12.2881966,2.1875 Z M11.701391,5.68923611 C11.701391,5.90104167 11.5277799,6.07465278 11.3159744,6.07465278 L9.30902993,6.07465278 C9.09722437,6.07465278 8.92361326,5.90104167 8.92361326,5.68923611 L8.92361326,3.68055556 C8.92361326,3.46875 9.09722437,3.29513889 9.30902993,3.29513889 L11.3159744,3.29513889 C11.5277799,3.29513889 11.701391,3.46875 11.701391,3.68055556 L11.701391,5.68923611 Z"></path>
            <path d="M6.66493271,7.8125 L2.71180771,7.8125 C2.42361326,7.8125 2.18750215,8.04861111 2.18750215,8.33680556 L2.18750215,12.2881944 C2.18750215,12.5763889 2.42361326,12.8125 2.71180771,12.8125 L6.6631966,12.8125 C6.95139104,12.8125 7.18750215,12.5763889 7.18750215,12.2881944 L7.18750215,8.33680556 C7.18750215,8.04861111 6.95312715,7.8125 6.66493271,7.8125 Z M6.07639104,11.3142361 C6.07639104,11.5260417 5.90277993,11.6996528 5.69097437,11.6996528 L3.68402993,11.6996528 C3.47222437,11.6996528 3.29861326,11.5260417 3.29861326,11.3142361 L3.29861326,9.30729167 C3.29861326,9.09548611 3.47222437,8.921875 3.68402993,8.921875 L5.69097437,8.921875 C5.90277993,8.921875 6.07639104,9.09548611 6.07639104,9.30729167 L6.07639104,11.3142361 L6.07639104,11.3142361 Z"></path>
            <path d="M12.2881966,7.8125 L8.33680771,7.8125 C8.04861326,7.8125 7.81250215,8.04861111 7.81250215,8.33680556 L7.81250215,12.2881944 C7.81250215,12.5763889 8.04861326,12.8125 8.33680771,12.8125 L12.2881966,12.8125 C12.576391,12.8125 12.8125022,12.5763889 12.8125022,12.2881944 L12.8125022,8.33680556 C12.8125022,8.04861111 12.576391,7.8125 12.2881966,7.8125 Z M11.701391,11.3142361 C11.701391,11.5260417 11.5277799,11.6996528 11.3159744,11.6996528 L9.30902993,11.6996528 C9.09722437,11.6996528 8.92361326,11.5260417 8.92361326,11.3142361 L8.92361326,9.30729167 C8.92361326,9.09548611 9.09722437,8.921875 9.30902993,8.921875 L11.3159744,8.921875 C11.5277799,8.921875 11.701391,9.09548611 11.701391,9.30729167 L11.701391,11.3142361 Z"></path>
        </g>
    </g>
</svg>