<?xml version="1.0" encoding="UTF-8"?>
<svg width="30px" height="30px" viewBox="0 0 30 30" version="1.1" xmlns="http://www.w3.org/2000/svg" xmlns:xlink="http://www.w3.org/1999/xlink">
    <title>csv</title>
    <g id="csv" stroke="none" stroke-width="1" fill="none" fill-rule="evenodd">
        <circle id="椭圆形" stroke="#E3E3E3" fill="#FFFFFF" cx="14.9217305" cy="15.0782695" r="14.3496"></circle>
        <g transform="translate(7.500000, 7.578270)" fill="#4AAF47" fill-rule="nonzero">
            <g id="图层_7">
                <path d="M11.3189876,0.0133734537 L1.10380198,0.0150451354 C0.493366039,0.0150451354 0,0.509862922 0,1.11835507 L0.006689709,13.8849883 C0.006689709,14.4934804 0.500055748,14.9866265 1.10881927,14.9882982 L13.8794737,15 C14.4899097,15 14.9832757,14.5068539 14.9849482,13.8966901 L14.988293,3.68271481 C14.988293,3.39017051 14.8728955,3.10932798 14.6655146,2.90203945 L12.1000111,0.336008024 C11.8926302,0.128719492 11.6116624,0.0133734537 11.3189876,0.0133734537 Z M12.8442413,13.9184219 L2.21429368,13.9100635 C1.60553016,13.9100635 1.11216412,13.4169174 1.11216412,12.8067536 L1.10547441,2.20494818 C1.10547441,1.59478435 1.59884045,1.10163825 2.2092764,1.10163825 L10.7436727,1.09996657 C11.0363474,1.09996657 11.3173152,1.2153126 11.5230237,1.42260114 L13.6286097,3.52390505 C13.8359906,3.73119358 13.9530605,4.01203611 13.9530605,4.30458041 L13.9497157,12.815112 C13.9480433,13.4252758 13.4530048,13.9184219 12.8442413,13.9184219 Z" id="形状"></path>
                <path d="M11.2721597,0.533266466 L11.2721597,4.5068539 C11.2721597,4.80106988 11.0330026,5.04012036 10.7386554,5.04012036 L10.7386554,5.04012036 C10.4443082,5.04012036 10.2051511,4.80106988 10.2051511,4.5068539 L10.2051511,0.533266466 C10.2051511,0.239050485 10.4443082,0 10.7386554,0 L10.7386554,0 C11.0330026,0 11.2721597,0.237378803 11.2721597,0.533266466 Z" id="路径"></path>
                <path d="M14.4414093,5.05015045 L10.7319657,5.05015045 C10.4376185,5.05015045 10.1984614,4.81109997 10.1984614,4.51688399 L10.1984614,4.51688399 C10.1984614,4.222668 10.4376185,3.98361752 10.7319657,3.98361752 L14.4414093,3.98361752 C14.7357565,3.98361752 14.9749136,4.222668 14.9749136,4.51688399 L14.9749136,4.51688399 C14.9749136,4.81277165 14.7357565,5.05015045 14.4414093,5.05015045 Z" id="路径"></path>
            </g>
            <g id="编组" transform="translate(2.500000, 6.250000)">
                <path d="M2.53320053,2.571329 L3.51095618,2.91775093 C3.44455511,3.23815056 3.34163347,3.50650558 3.20053121,3.72281599 C3.05942895,3.9375 2.88346614,4.10013941 2.67430279,4.2107342 C2.46513944,4.321329 2.19953519,4.375 1.87583001,4.375 C1.48406375,4.375 1.16367862,4.30831784 0.914674635,4.17495353 C0.665670651,4.04158922 0.451527224,3.80576208 0.270584329,3.47072491 C0.0896414343,3.13406134 0,2.70469331 0,2.17936803 C0,1.48001859 0.15936255,0.941682156 0.476427623,0.56598513 C0.793492696,0.190288104 1.24335989,0.0032527881 1.82436919,0.0032527881 C2.27921647,0.0032527881 2.63612218,0.110594796 2.89674635,0.326905204 C3.15737052,0.541589219 3.3499336,0.873373606 3.47609562,1.31900558 L2.49169987,1.57597584 C2.45683931,1.44749071 2.42031873,1.35315985 2.38379814,1.29298327 C2.32071713,1.19377323 2.24435591,1.11570632 2.15471448,1.06203532 C2.06507304,1.00836431 1.96381142,0.980715613 1.85258964,0.980715613 C1.6002656,0.980715613 1.4060425,1.09944238 1.27158035,1.3385223 C1.17031873,1.51579926 1.1188579,1.79228625 1.1188579,2.17123606 C1.1188579,2.63963755 1.18027888,2.96166357 1.30146082,3.13406134 C1.42264276,3.3080855 1.5936255,3.39428439 1.812749,3.39428439 C2.02689243,3.39428439 2.18791501,3.32434944 2.29581673,3.18447955 C2.40371846,3.04135688 2.48339973,2.83805762 2.53320053,2.571329 Z" id="路径"></path>
                <path d="M3.8562417,2.90311338 L4.91699867,2.82504647 C4.94023904,3.02671933 4.98671979,3.18122677 5.05810093,3.28694238 C5.17264276,3.45771375 5.33698539,3.54391264 5.55112882,3.54391264 C5.71049137,3.54391264 5.83333333,3.5 5.91965471,3.41217472 C6.0059761,3.32434944 6.04913679,3.22351301 6.04913679,3.10803903 C6.04913679,2.99907063 6.00763612,2.89986059 5.92629482,2.81366171 C5.84495352,2.72746283 5.65405046,2.64614312 5.35524568,2.56807621 C4.86553785,2.43959108 4.51693227,2.2688197 4.30942895,2.05413569 C4.09860558,1.84107807 3.9940239,1.56784387 3.9940239,1.23768587 C3.9940239,1.01974907 4.04714475,0.81482342 4.15504648,0.621282528 C4.26294821,0.427741636 4.42397078,0.276486989 4.63977424,0.165892193 C4.85557769,0.0552973978 5.15106242,0 5.52788845,0 C5.98937583,0 6.34130146,0.100836431 6.58200531,0.3008829 C6.82436919,0.502555762 6.9687915,0.821328996 7.01361222,1.26045539 L5.96281541,1.33201673 C5.93459495,1.14172862 5.87649402,1.00348513 5.78685259,0.917286245 C5.69721116,0.831087361 5.57436919,0.787174721 5.41666667,0.787174721 C5.28718459,0.787174721 5.18924303,0.819702602 5.12450199,0.88313197 C5.05810093,0.948187732 5.02656042,1.02625465 5.02656042,1.11895911 C5.02656042,1.18564126 5.05312085,1.24744424 5.10790173,1.30111524 C5.16102258,1.35641264 5.28552457,1.40845725 5.4814077,1.45724907 C5.96945551,1.58085502 6.31806109,1.70446097 6.52888446,1.8313197 C6.73970784,1.95655204 6.89243028,2.11431227 6.98871182,2.29972119 C7.08499336,2.48675651 7.13313413,2.69493494 7.13313413,2.9258829 C7.13313413,3.19749071 7.06839309,3.446329 6.94057105,3.67565056 C6.812749,3.90497212 6.63346614,4.07736989 6.40438247,4.19609665 C6.1752988,4.31482342 5.88479416,4.37337361 5.53452855,4.37337361 C4.92031873,4.37337361 4.49535193,4.23513011 4.25962815,3.95864312 C4.02224436,3.68052974 3.8877822,3.32922862 3.8562417,2.90311338 Z" id="路径"></path>
                <polygon id="路径" points="7.3373174 0.0731877323 8.50265604 0.0731877323 9.31606906 3.116171 10.1178619 0.0731877323 11.25 0.0731877323 9.91035857 4.30181227 8.70185923 4.30181227"></polygon>
            </g>
        </g>
    </g>
</svg>