<?xml version="1.0" encoding="UTF-8"?>
<svg width="30px" height="30px" viewBox="0 0 30 30" version="1.1" xmlns="http://www.w3.org/2000/svg" xmlns:xlink="http://www.w3.org/1999/xlink">
    <title>digger</title>
    <g id="digger" stroke="none" stroke-width="1" fill="none" fill-rule="evenodd">
        <circle id="椭圆形" stroke="#E3E3E3" fill="#FFFFFF" cx="14.9217305" cy="15.0782695" r="14.3496"></circle>
        <g transform="translate(7.421730, 7.578270)" fill-rule="nonzero">
            <path d="M1.65775693,13.633537 C1.31409557,13.633537 1.03589352,13.3553349 1.03589352,13.0116736 L1.03589352,1.68721362 C1.03589352,1.34518874 1.31573205,1.06535021 1.65775693,1.06535021 L12.9822169,1.06535021 C13.3242418,1.06535021 13.6040803,1.34518874 13.6040803,1.68721362 L13.6040803,13.0116736 C13.6040803,13.1393192 13.5664412,13.257146 13.5009819,13.3553349 L14.6579751,13.3553349 L14.6579751,1.0473489 C14.6579751,0.471307004 14.1866681,0 13.6106262,0 L1.0473489,0 C0.471307004,0 0,0.471307004 0,1.0473489 L0,13.6106262 C0,14.1866681 0.471307004,14.6579751 1.0473489,14.6579751 L5.68677722,14.6579751 L5.68677722,13.633537 L1.65775693,13.633537 Z" id="路径" fill="#4AAF47"></path>
            <polygon id="路径" fill="#FFFFFF" points="14.5925158 6.18754091 3.90464761 6.18754091 3.90464761 15 15 15 15 6.18754091"></polygon>
            <path d="M11.1739036,3.92264892 L3.46607026,3.92264892 C3.1698669,3.92264892 2.92930395,3.68044949 2.92930395,3.38588261 C2.92930395,3.08967925 3.17150338,2.8491163 3.46607026,2.8491163 L11.1722671,2.8491163 C11.4684704,2.8491163 11.7090416,3.09131573 11.7090416,3.38588261 C11.7106699,3.68044949 11.4684704,3.92264892 11.1739036,3.92264892 L11.1739036,3.92264892 Z M7.63910103,6.49847262 L3.46607026,6.49847262 C3.1698669,6.49847262 2.92930395,6.25627318 2.92930395,5.96170631 C2.92930395,5.66550295 3.17150338,5.42494 3.46607026,5.42494 L7.63746454,5.42494 C7.9336679,5.42494 8.1742391,5.66713943 8.1742391,5.96170631 C8.17586734,6.25627318 7.9336679,6.49847262 7.63910103,6.49847262 L7.63910103,6.49847262 Z M4.44795985,9.0759328 L3.46770674,9.0759328 C3.17150338,9.0759328 2.93094043,8.83373336 2.93094043,8.53916648 C2.93094043,8.24296312 3.17313986,8.00240017 3.46770674,8.00240017 L4.44795985,8.00240017 C4.74416321,8.00240017 4.98472616,8.24459961 4.98472616,8.53916648 C4.98472616,8.83373336 4.74252673,9.0759328 4.44795985,9.0759328 Z M5.01090988,14.6514292 L3.74918176,14.6514292 C3.46934322,14.6514292 3.24023565,14.4223216 3.24023565,14.1424831 C3.24023565,13.8626446 3.46934322,13.633537 3.74918176,13.633537 L5.01090988,13.633537 C5.29074842,13.633537 5.51985599,13.8626446 5.51985599,14.1424831 C5.51985599,14.4223216 5.29074842,14.6514292 5.01090988,14.6514292 L5.01090988,14.6514292 Z M13.6040803,6.56065896 L13.6040803,5.2547458 C13.6040803,4.97490727 13.8331879,4.74579969 14.1130264,4.74579969 L14.1457561,4.74579969 C14.4255946,4.74579969 14.6547022,4.97490727 14.6547022,5.2547458 L14.6547022,6.56065896 C14.6547022,6.84049749 14.4255946,7.06960506 14.1457561,7.06960506 L14.1130264,7.06960506 C13.8331879,7.06960506 13.6040803,6.84049749 13.6040803,6.56065896 Z" id="形状" fill="#4AAF47"></path>
            <path d="M5.67368536,13.7202706 C4.41686668,12.4634519 4.41686668,10.4063932 5.67368536,9.14957451 L6.66703033,8.15622954 C7.16779402,7.65546585 7.98603535,7.65546585 8.48516256,8.15622954 L11.2377264,10.9087934 C11.7384901,11.4095571 11.7384901,12.2277984 11.2377264,12.7269256 L10.2443814,13.7202706 C8.98919921,14.9770892 6.93214052,14.9770892 5.67368536,13.7202706 Z" id="路径" fill="#4AAF47"></path>
            <path d="M6.53447523,13.0378573 L6.35609863,12.8594807 C5.5853153,12.0886974 5.5853153,10.8269692 6.35609863,10.0561859 L7.29380319,9.11848134 C7.50163648,8.91064805 7.83875191,8.91064805 8.04822169,9.11848134 L10.2754746,11.3457342 C10.4833079,11.5535675 10.4833079,11.890683 10.2754746,12.1001527 L9.33777002,13.0378573 C8.56698669,13.8086406 7.30525856,13.8086406 6.53447523,13.0378573 L6.53447523,13.0378573 Z" id="路径" fill="#FFFFFF"></path>
            <path d="M12.9740345,8.1791403 L9.43268601,11.7204888 C9.00065459,12.1525202 8.29369409,12.1525202 7.86166267,11.7204888 L7.67183068,11.5306568 C7.23979926,11.0986254 7.23979926,10.3916648 7.67183068,9.95963343 L11.2131791,6.41828497 C11.6452106,5.98625355 12.3521711,5.98625355 12.7842025,6.41828497 L12.9740345,6.60811695 C13.4060659,7.04178486 13.4060659,7.74710888 12.9740345,8.1791403 L12.9740345,8.1791403 Z" id="路径" fill="#4AAF47"></path>
            <path d="M12.2343443,7.6980144 L8.94010473,10.9906175 C8.80754964,11.1231726 8.59317041,11.1231726 8.46061532,10.9906175 L8.40333842,10.9333406 C8.27078333,10.8007855 8.27078333,10.5864063 8.40333842,10.4538512 L11.6959415,7.16124809 C11.8284966,7.028693 12.0428758,7.028693 12.1754309,7.16124809 L12.2327078,7.21852498 C12.3652629,7.3494436 12.3652629,7.56545931 12.2343443,7.6980144 L12.2343443,7.6980144 Z" id="路径" fill="#FFFFFF"></path>
            <path d="M12.6205542,9.77471089 L9.61924504,6.7734017 C9.18721362,6.34137028 9.18721362,5.63440978 9.61924504,5.20237835 L9.80907702,5.01254637 C10.2411084,4.58051495 10.948069,4.58051495 11.3801004,5.01254637 L14.3814096,8.01385555 C14.813441,8.44588697 14.813441,9.15284748 14.3814096,9.5848789 L14.1915776,9.77471089 C13.7595461,10.2067423 13.0525856,10.2067423 12.6205542,9.77471089 L12.6205542,9.77471089 Z" id="路径" fill="#4AAF47"></path>
            <path d="M13.158957,9.09557059 L10.3196596,6.25627318 C10.1871045,6.12371809 10.1871045,5.90933886 10.3196596,5.77678377 L10.3769365,5.71950687 C10.5094916,5.58695178 10.7238708,5.58695178 10.8564259,5.71950687 L13.6957233,8.55880428 C13.8282784,8.69135937 13.8282784,8.9057386 13.6957233,9.03829369 L13.6384464,9.09557059 C13.5058913,9.2264892 13.2915121,9.2264892 13.158957,9.09557059 Z" id="路径" fill="#FFFFFF"></path>
        </g>
    </g>
</svg>