<?xml version="1.0" encoding="UTF-8"?>
<svg width="30px" height="30px" viewBox="0 0 30 30" version="1.1" xmlns="http://www.w3.org/2000/svg" xmlns:xlink="http://www.w3.org/1999/xlink">
    <title>greenplum</title>
    <g id="greenplum" stroke="none" stroke-width="1" fill="none" fill-rule="evenodd">
        <circle id="椭圆形" stroke="#E3E3E3" fill="#FFFFFF" cx="14.9217305" cy="15.0782695" r="14.3496"></circle>
        <g transform="translate(6.000000, 6.000000)" fill="#80BC00" fill-rule="nonzero" id="形状">
            <path d="M13.2755629,4.2468761 C10.6458756,1.96143879 6.6661884,2.20556377 4.33856359,4.79531356 C2.01093878,7.38506335 2.18250126,11.3681255 4.73175106,13.7432816 C5.32743851,14.2787815 5.83284472,14.539219 6.27862593,14.539219 C7.14206336,14.539219 7.78668831,13.5739691 8.62003199,12.3561567 C9.12069785,11.5784168 9.67636637,10.8374941 10.2827819,10.1390631 C10.9133075,9.46451831 11.5899365,8.83459544 12.3077817,8.25384453 C13.3785004,7.3527196 14.2194378,6.64396966 14.234344,5.84831347 C14.2419378,5.36568851 13.9249691,4.84143855 13.2724691,4.2496886 L13.2755629,4.2468761 Z M10.4906256,8.07637579 C10.0796356,8.39687049 9.6939332,8.74853484 9.33693818,9.12825071 C8.9916094,9.5317453 8.67659405,9.96022634 8.39446951,10.4101881 C7.96837579,11.0548131 7.66687582,11.518313 7.2632821,11.518313 C7.12085313,11.5106282 6.98639329,11.4501664 6.88612588,11.3487193 C5.65621084,10.1657482 5.58598051,8.22056787 6.72738254,6.95198082 C7.86878457,5.68339377 9.81055197,5.54849393 11.1164068,6.64706341 C11.2514587,6.74911909 11.3321336,6.90756548 11.3352193,7.07681338 C11.3127193,7.4010946 10.9732505,7.68375083 10.4906256,8.07609455 L10.4906256,8.07637579 Z M9.00365696,7.20947053e-07 C4.03312611,-0.00196730742 0.00197019226,4.02553237 7.20947071e-07,8.99634447 C-0.00196730742,13.9671566 4.02553236,17.9980312 8.99634446,18.0000007 C13.9671566,18.0019687 17.9980312,13.9744691 18.0000007,9.00365697 C18.0009699,6.61670869 17.0536884,4.32713834 15.3665468,2.63862534 C13.6794052,0.950112349 11.3906052,0.000970943191 9.00365696,7.20947053e-07 Z M14.6812502,14.1052503 C11.8589067,17.2372501 7.03237587,17.490375 3.89812612,14.6677503 C0.731813883,11.8552505 0.430313907,7.01859463 3.22425118,3.83821988 C6.01802802,0.658598112 10.8557081,0.333455135 14.049844,3.11062619 C17.244,5.88853222 17.5935938,10.7249068 14.831719,13.9331253 L14.6812502,14.1052503 Z"></path>
        </g>
    </g>
</svg>