<?xml version="1.0" standalone="no"?><!DOCTYPE svg PUBLIC "-//W3C//DTD SVG 1.1//EN" "http://www.w3.org/Graphics/SVG/1.1/DTD/svg11.dtd"><svg t="1586837643117" class="icon" viewBox="0 0 1024 1024" version="1.1" xmlns="http://www.w3.org/2000/svg" p-id="34728" xmlns:xlink="http://www.w3.org/1999/xlink" width="200" height="200"><defs><style type="text/css"></style></defs><path d="M914.6 62.2H110c-25.2 0-45.9 20.7-45.9 45.9v804.7c0 25.2 20.7 45.9 45.9 45.9h804.7c25.2 0 45.9-20.7 45.9-45.9V108.3c0.1-25.4-20.6-46.1-46-46.1zM317.8 894.8H148.1c-10.7 0-19.5-8.8-19.5-19.5V705.8c0-10.7 8.8-19.5 19.5-19.5h169.6c10.7 0 19.5 8.8 19.5 19.5v169.4h0.2c0 10.8-8.8 19.6-19.6 19.6z m0-280H148.1c-10.7 0-19.5-8.8-19.5-19.5V425.8c0-10.7 8.8-19.5 19.5-19.5h169.6c10.7 0 19.5 8.8 19.5 19.5v169.4h0.2c0 10.8-8.8 19.6-19.6 19.6z m0-278H148.1c-10.7 0-19.5-8.8-19.5-19.5V147.8c0-10.7 8.8-19.5 19.5-19.5h169.6c10.7 0 19.5 8.8 19.5 19.5v169.4h0.2c0 10.8-8.8 19.6-19.6 19.6z m280.1 556.8H428.2c-10.7 0-19.5-8.8-19.5-19.5V704.7c0-10.7 8.8-19.5 19.5-19.5h169.6c10.7 0 19.5 8.8 19.5 19.5v169.4h0.2c0 10.7-8.8 19.5-19.6 19.5z m0-280H428.2c-10.7 0-19.5-8.8-19.5-19.5V424.7c0-10.7 8.8-19.5 19.5-19.5h169.6c10.7 0 19.5 8.8 19.5 19.5v169.4h0.2c0 10.7-8.8 19.5-19.6 19.5z m0-278H428.2c-10.7 0-19.5-8.8-19.5-19.5V146.7c0-10.7 8.8-19.5 19.5-19.5h169.6c10.7 0 19.5 8.8 19.5 19.5v169.4h0.2c0 10.7-8.8 19.5-19.6 19.5z m278.9 558.2H707.1c-10.7 0-19.5-8.8-19.5-19.5V704.8c0-10.7 8.8-19.5 19.5-19.5h169.6c10.7 0 19.5 8.8 19.5 19.5v169.4h0.2c0 10.8-8.8 19.6-19.6 19.6z m0-280H707.1c-10.7 0-19.5-8.8-19.5-19.5V424.8c0-10.7 8.8-19.5 19.5-19.5h169.6c10.7 0 19.5 8.8 19.5 19.5v169.4h0.2c0 10.8-8.8 19.6-19.6 19.6z m0-278H707.1c-10.7 0-19.5-8.8-19.5-19.5V146.8c0-10.7 8.8-19.5 19.5-19.5h169.6c10.7 0 19.5 8.8 19.5 19.5v169.4h0.2c0 10.8-8.8 19.6-19.6 19.6z" fill="#4AAF47" p-id="34729"></path></svg>