<?xml version="1.0" standalone="no"?><!DOCTYPE svg PUBLIC "-//W3C//DTD SVG 1.1//EN" "http://www.w3.org/Graphics/SVG/1.1/DTD/svg11.dtd"><svg t="1586923031145" class="icon" viewBox="0 0 1024 1024" version="1.1" xmlns="http://www.w3.org/2000/svg" p-id="9248" xmlns:xlink="http://www.w3.org/1999/xlink" width="200" height="200"><defs><style type="text/css"></style></defs><path d="M561.7 385.9h-32.9c-17.6 0-31.9-14.3-31.9-31.9 0-17.6 14.3-31.9 31.9-31.9h32.9c17.6 0 31.9 14.3 31.9 31.9 0 17.7-14.3 31.9-31.9 31.9zM737.9 544.8H577.1c-17.6 0-31.9-14.3-31.9-31.9 0-17.6 14.3-31.9 31.9-31.9h160.8c17.6 0 31.9 14.3 31.9 31.9 0 17.7-14.3 31.9-31.9 31.9zM737.6 705.9H578.8c-17.6 0-31.9-14.3-31.9-31.9 0-17.6 14.3-31.9 31.9-31.9h158.8c17.6 0 31.9 14.3 31.9 31.9 0 17.7-14.3 31.9-31.9 31.9zM739.1 96.7v237.7c0 17.6-14.3 31.9-31.9 31.9-17.6 0-31.9-14.3-31.9-31.9V96.7c0-17.6 14.3-31.9 31.9-31.9 17.6 0 31.9 14.2 31.9 31.9z" fill="#4AAF47" p-id="9249"></path><path d="M928.6 366.9H706.8c-17.6 0-31.9-14.3-31.9-31.9 0-17.6 14.3-31.9 31.9-31.9h221.8c17.6 0 31.9 14.3 31.9 31.9 0 17.7-14.3 31.9-31.9 31.9zM469.6 437.2l-127.4-212c-12.4-21-34.9-33.3-60.1-33.3-25.2 0-47.8 12.4-60.2 33.3L95 437.2c-49.5 82-35.3 185.9 34.1 253 34.1 32.9 77.2 52.6 121.7 58.9v52.6c0 6.4 5.2 11.7 11.7 11.7h38.7c6.4 0 11.7-5.2 11.7-11.7v-52.5c44.6-6.1 87.8-25.6 122.7-59 69.3-67.1 83.1-171 34-253z m-77.8 208.1c-21.9 21.1-49.3 35.1-78.9 40.9V452.6c0-6.4-5.2-11.7-11.7-11.7h-38.7c-6.4 0-11.7 5.2-11.7 11.7v233.6c-29.6-5.8-56.9-19.8-78.8-40.9-49.8-48-60.1-122.2-24.8-180.9L270 260.9c3.8-5.7 9.4-6.6 11.9-6.6 2.1 0 8.1 0.4 11.9 6.6l122.7 203.5c34.9 58.6 25.1 132.9-24.7 180.9z" fill="#4AAF47" p-id="9250"></path><path d="M281.7 452.1m-31 0a31 31 0 1 0 62 0 31 31 0 1 0-62 0Z" fill="#4AAF47" p-id="9251"></path><path d="M282 803.5m-31 0a31 31 0 1 0 62 0 31 31 0 1 0-62 0Z" fill="#4AAF47" p-id="9252"></path><path d="M98.2 276.7m-33.1 0a33.1 33.1 0 1 0 66.2 0 33.1 33.1 0 1 0-66.2 0Z" fill="#4AAF47" p-id="9253"></path><path d="M941.9 238.3L788.6 84.9c-12.4-12.4-29.2-19.3-46.7-19.3l-610.8 0.1c-36.5 0-66 29.6-66 66l0.1 146.3h66v-81.3c0-36.5 29.5-66 66-66l510.3-0.1c17.5 0 34.3 6.9 46.6 19.3L880 275.6c12.4 12.4 19.4 29.2 19.4 46.7l-0.2 509.1c0 36.5-29.6 66-66.1 66l-635.6-0.5c-36.4 0-65.9-29.5-65.9-66V765h-66l0.1 130.4c0 36.4 29.5 65.9 65.9 66l763.4 0.6c36.5 0 66-29.5 66.1-66l0.2-611c0-17.5-7-34.3-19.4-46.7z" fill="#4AAF47" p-id="9254"></path><path d="M98.4 764.9m-33.1 0a33.1 33.1 0 1 0 66.2 0 33.1 33.1 0 1 0-66.2 0Z" fill="#4AAF47" p-id="9255"></path></svg>