<?xml version="1.0" encoding="UTF-8"?>
<svg width="30px" height="30px" viewBox="0 0 30 30" version="1.1" xmlns="http://www.w3.org/2000/svg" xmlns:xlink="http://www.w3.org/1999/xlink">
    <title>HBase</title>
    <g id="HBase" stroke="none" stroke-width="1" fill="none" fill-rule="evenodd">
        <circle id="椭圆形" stroke="#E3E3E3" fill="#FFFFFF" cx="14.9217305" cy="15.0782695" r="14.3496"></circle>
        <g id="hbase" transform="translate(6.000000, 6.000000)">
            <rect id="矩形" x="0" y="0" width="18" height="18"></rect>
            <path d="M10.3223468,10.3537419 C9.85976191,10.3630607 9.39682546,10.3565932 8.93402964,10.3565932 L8.93402964,10.3747439 C8.49661658,10.3747439 8.05913321,10.3761348 7.62172014,10.3743962 C7.1570962,10.3725881 6.79618296,10.5778099 6.51507423,10.9273337 C6.10958297,11.431591 5.79134932,12.014293 5.17449917,12.3241772 C5.1062962,12.358462 5.05152289,12.4919153 5.05890568,12.5733503 C5.06333536,12.6231432 5.19313194,12.6787777 5.27532706,12.7023528 C6.00713789,12.9124426 6.75040963,12.9429721 7.49565012,12.7944279 C8.55103833,12.584199 9.50257522,12.1720168 10.1881908,11.310586 C10.3453389,11.1130834 10.453409,10.8695434 10.5467838,10.632749 C10.6127367,10.4655673 10.5401041,10.3493607 10.3223468,10.3537419 L10.3223468,10.3537419 Z M1.64559316,9.03840293 C1.53632779,8.8897197 1.41749994,8.73171768 1.30267989,8.5708644 C1.21239884,8.44436543 1.12732091,8.4157832 0.997172771,8.5349106 C0.449931833,9.03589938 0.254111968,10.3047835 0.622689251,10.9397124 L1.64559316,9.03840293 L1.64559316,9.03840293 Z M16.3427002,9.30927346 C16.0773415,9.25781154 16.0518181,9.14904607 15.9365762,9.00780395 C15.3346322,8.26995123 14.887516,7.58585536 14.0977679,6.82178488 C12.826802,5.5107576 11.247165,4.8330597 9.40378638,4.73208306 C8.40359336,4.67735261 7.41753311,4.76129118 6.4351291,4.90913989 C5.96270049,4.98021298 5.65290433,4.7980795 5.42445953,4.42310289 C5.33818629,4.28151305 5.24621775,4.13157804 5.21063971,3.97364557 C5.07929626,3.39052634 4.96503871,2.80344315 4.85598427,2.21573407 C4.81653905,2.00321023 4.75550794,1.95369552 4.55575058,2.04090262 C4.22697008,2.1845092 4.00928308,2.44014978 3.91105674,2.77041016 C3.826471,3.05491114 3.75074461,3.35665883 3.75531491,3.64943545 C3.76586176,4.32296076 3.81768195,4.99648608 3.87273652,5.66827281 C3.90332238,6.04213673 3.84988501,6.36627731 3.58818248,6.66426967 C3.29062066,7.00315339 3.03454312,7.37757366 2.75828594,7.7350254 C1.76020228,9.0265806 0.929321363,10.4102109 0.390377282,11.9533732 C0.116370095,12.7376807 -0.0940044246,13.5317243 0.0430343249,14.3759085 C0.0895810936,14.6625653 0.113135727,14.9528384 0.147659086,15.2414424 C0.189143366,15.5886018 0.67043133,16.0057215 1.02382115,15.9999406 C1.42945303,15.9932733 1.78101473,15.8263002 2.08771716,15.5892972 C2.62926279,15.1708561 3.22726924,14.8558952 3.83947878,14.5568597 C4.5684068,14.2007989 5.2379209,13.7564182 5.80309148,13.170865 C5.84471639,13.1276091 5.8778335,13.0764254 5.92044278,13.0219035 C5.63202156,12.9530558 5.36687373,12.9023589 5.10988213,12.825166 C4.82975777,12.7410188 4.77421102,12.5336412 4.96299965,12.30853 C5.02621044,12.2331453 5.11635086,12.180362 5.19081163,12.1135311 C5.40744395,11.919158 5.63799811,11.7368159 5.83346641,11.5233184 C6.01902068,11.3206002 6.16077035,11.0794246 6.33317621,10.864119 C6.6425505,10.4776678 7.04487771,10.2597891 7.54986093,10.2500531 C7.85304774,10.2441419 8.15658611,10.2393434 8.4597026,10.2461586 C8.69939737,10.2515135 8.89099849,10.1753637 9.07950587,10.0225775 C9.5411767,9.64843536 9.93478517,9.27380646 10.4292215,8.94493695 C11.2133448,8.51133547 11.8015778,8.32565529 12.555537,8.40055325 C13.909612,8.53511923 14.9200707,9.24411154 15.7385063,10.2703597 C15.7686703,10.3081216 15.794264,10.3608353 15.7887093,10.4150789 C15.7831546,10.4693226 15.7041236,10.4432439 15.7041236,10.4432439 C15.7041236,10.4432439 15.0465626,9.76276428 14.7381726,9.44446533 C14.5686496,9.67771302 14.4804076,9.83745361 14.3404157,10.0070693 C14.1493068,10.2384394 13.9147448,10.4394886 13.7508468,10.6872012 C13.4847146,11.0891606 13.5980581,11.6889702 13.9579166,11.9221483 C13.9885728,11.8755544 14.0391274,11.8318118 14.0462992,11.7819494 C14.0740726,11.5891758 14.0898929,11.4438306 14.3210798,11.4289484 C14.4259859,11.4222027 14.3510329,11.3012672 14.5500168,11.2906966 C14.6121026,11.2954255 14.6073214,11.3474438 14.6694072,11.3427149 C14.7196102,11.3356215 14.7418992,11.2502225 14.7960397,11.2269256 C14.9035473,11.1808185 15.0464922,11.1865905 15.1523123,11.1908327 C15.3484837,11.1988301 15.4422101,11.0969494 15.4677335,10.9724672 C15.4846084,10.8904758 15.4922725,10.8260094 15.532913,10.6820551 C15.6268503,11.0530677 15.8709747,11.1650322 16.1738803,11.1623895 C16.3171065,11.1611377 16.4644109,11.1316515 16.6025043,11.1561306 C16.9389489,11.1772718 16.9985034,11.2518915 17.1880655,11.3231733 C17.4803539,11.4329123 17.7459236,11.5652529 17.8468218,11.9074052 C17.8767045,11.8981559 17.9352044,11.8908539 17.9662825,11.8318118 C17.9972902,11.7727001 17.9965871,11.6925864 17.999048,11.5919575 C18.0268214,10.4547881 17.4462524,9.64906125 16.3427002,9.30927346 L16.3427002,9.30927346 Z M4.4687039,11.0854053 C4.73448455,11.0812327 4.77456258,11.141457 4.66276596,11.3705321 C4.63780508,11.4215073 4.6128442,11.4774199 4.60841452,11.5327067 C4.5729771,11.976392 4.35254792,12.2937869 3.96336912,12.5134041 C3.7666352,12.624395 3.59429965,12.7779462 3.39637042,12.886364 C3.28780816,12.9458234 3.1187773,13.0094553 3.03250406,12.9651563 C2.9860276,12.9413726 2.9598011,12.8787838 2.93800428,12.8077107 C2.89630906,12.6710584 2.8856919,12.5248092 2.91845745,12.3857924 C3.08298832,11.6880661 3.75496335,11.0969494 4.4687039,11.0854053 L4.4687039,11.0854053 Z M2.86790287,13.4596081 C2.87071537,13.4003573 3.14690224,13.1653015 3.21686301,13.1764284 C3.28675348,13.1875553 3.28281599,13.2364441 3.28309745,13.3075868 C3.28337849,13.3786599 3.00662912,13.623869 2.87338724,13.5419472 C2.84230918,13.5155903 2.8600982,13.4710827 2.86790287,13.4596081 Z M5.48302971,13.2223269 C5.13181958,13.5436857 4.73982829,13.8010649 4.35873541,14.0387633 C4.06096265,14.2243044 3.73626027,14.3672851 3.43384689,14.5462892 C2.97337138,14.8188983 2.52126304,15.1052769 2.06648283,15.3873439 C1.72764767,15.5975728 1.39823435,15.8310292 0.962227538,15.8199718 C0.969047835,15.7841571 0.968133775,15.7588434 0.975235321,15.7563398 C1.43388271,15.5971556 1.77215538,15.2963815 2.08518591,14.9319754 C2.27418548,14.7120105 2.55740358,14.5599892 2.8195983,14.4152699 C3.36817517,14.11234 3.81261947,13.712606 4.15124369,13.1872771 C4.3929072,12.8124396 4.40232906,12.8273914 4.80289845,13.0004843 C5.00898392,13.089569 5.18567883,13.1212112 5.48302971,13.2223269 Z M11.9381947,7.90491929 C12.46392,7.8941401 12.7046695,7.95457309 13.0774655,8.04080658 C13.3727773,8.1116015 13.579144,8.30694818 13.6998,8.46488065 C13.2295511,8.32259539 12.9916844,8.24602839 12.5262168,8.20499794 C11.5258128,8.08684414 10.6476117,8.39575477 9.87748061,9.01816588 C9.55179386,9.28138666 9.22884928,9.55170085 8.93529527,9.84851097 C8.76176441,10.0238292 8.75831911,10.0697277 8.34122631,10.043649 C8.71008484,9.47916735 9.04638876,8.90738366 9.37580207,8.34102432 C10.441245,6.50925801 13.1188091,6.82289757 14.0389164,7.88516904 C14.0764632,7.92856396 14.1334865,8.04358831 14.1334865,8.04358831 C14.1334865,8.04358831 13.2627385,7.58286501 12.6223337,7.58286501 C12.2366002,7.58286501 12.1399208,7.61102998 11.9014916,7.65157363 C11.8385621,7.66228327 11.7333748,7.71624875 11.7342186,7.80735026 C11.7351326,7.89845178 11.8669683,7.89497462 11.9381947,7.90491929 L11.9381947,7.90491929 Z M17.5542521,11.2365225 C17.2746903,10.8083454 16.8522537,10.9010464 16.4567468,10.8993078 C16.3389034,10.8987515 16.2209896,10.9054276 16.1030758,10.9097393 C15.9040215,10.9167631 15.7361157,10.8707951 15.6492799,10.6681464 C15.6269206,10.6160586 15.5708817,10.5354581 15.5243349,10.527252 C15.4789131,10.5395612 15.463796,10.5688388 15.4557101,10.5858769 C15.2762027,10.9634961 14.9279456,11.0231642 14.5663996,11.0307444 C14.3572907,11.0351256 14.1860098,11.0637773 14.0831429,11.2691382 C14.0632445,11.3089865 13.9615025,11.3547458 13.9439245,11.3407677 C13.8993464,11.3053007 13.8446434,11.2249783 13.8586356,11.1845738 C13.9120027,11.0307444 13.9686041,10.8693347 14.0647211,10.7403322 C14.3084939,10.4131317 14.5742746,10.1019262 14.8538364,9.75643585 C14.9856018,9.89378356 15.1301639,10.0480302 15.2787339,10.198313 C15.3960852,10.3170231 15.5057724,10.4498505 15.6435143,10.5393525 C15.716147,10.5866419 15.8732247,10.5938048 15.9333418,10.5463068 C15.9852323,10.5053459 15.991701,10.3411546 15.9514121,10.266952 C15.8691466,10.115348 15.7391391,9.98954446 15.6342331,9.8492064 C15.5559051,9.74447443 15.4861553,9.63362267 15.3929211,9.4964836 C16.3344737,9.33027549 17.7328455,10.461047 17.5542521,11.2365225 L17.5542521,11.2365225 Z" id="形状" fill="#000000" fill-rule="nonzero"></path>
        </g>
    </g>
</svg>