<?xml version="1.0" standalone="no"?><!DOCTYPE svg PUBLIC "-//W3C//DTD SVG 1.1//EN" "http://www.w3.org/Graphics/SVG/1.1/DTD/svg11.dtd"><svg t="1611226080053" class="icon" viewBox="0 0 1024 1024" version="1.1" xmlns="http://www.w3.org/2000/svg" p-id="15063" xmlns:xlink="http://www.w3.org/1999/xlink" width="200" height="200"><defs><style type="text/css"></style></defs><path d="M0 0h1024v1024H0z" fill="#4AAF47" fill-opacity="0" p-id="15064"></path><path d="M284.788364 104.378182c23.133091-37.701818 68.072727-60.043636 112.034909-57.646546 63.837091 3.002182 120.738909 60.136727 119.016727 124.811637 2.280727 56.110545-38.4 110.08-93.090909 122.926545-0.512 20.689455-0.139636 41.332364-0.325818 62.021818 34.816 6.330182 64.093091 27.392 89.367272 51.037091 16.942545-9.821091 33.070545-20.968727 50.804364-29.416727-4.119273-24.901818-6.795636-51.269818 2.676364-75.450182 12.497455-39.633455 46.731636-72.005818 87.272727-81.710545 45.451636-13.451636 96.861091 3.84 127.581091 39.261091 37.166545 42.356364 40.494545 109.870545 6.912 155.322181-22.853818 31.348364-60.416 51.851636-99.328 52.782546-35.304727 1.070545-69.655273-14.429091-94.882909-38.702546-18.059636 9.239273-34.722909 21.061818-53.248 29.509819 9.751273 33.861818 11.589818 70.376727-0.232727 104.052363 18.432 9.192727 35.211636 22.807273 54.690909 29.277091 14.429091-9.565091 27.298909-21.922909 44.194909-27.461818 49.012364-21.248 110.010182-4.584727 143.313454 36.654545 41.332364 47.150545 37.678545 125.533091-7.68 168.843637-43.589818 46.149818-122.693818 49.338182-170.216727 7.493818-38.097455-31.278545-53.154909-85.573818-39.796364-132.561455-18.222545-8.727273-34.676364-20.736-52.945454-29.509818a169.541818 169.541818 0 0 1-88.343273 51.898182c-0.139636 20.48-0.325818 41.029818 0.046546 61.533091 43.403636 10.938182 78.964364 46.568727 89.809454 89.972364 7.261091 30.440727 4.584727 63.953455-11.124364 91.438545-23.458909 43.962182-74.309818 71.354182-123.950545 66.048-62.021818-5.073455-114.408727-62.068364-112.779636-124.509091-1.349818-57.786182 42.752-109.684364 97.768727-123.601454 0.512-20.48 0.837818-40.913455-0.279273-61.323637-38.702545-5.445818-74.24-27.950545-97.442909-59.159272-31.976727-43.008-41.472-102.632727-21.294545-152.73891 17.826909-51.432727 65.349818-90.647273 119.063272-99.141818 0.512-20.154182 0.418909-40.378182 0.093091-60.555636-31.371636-9.611636-60.602182-28.625455-78.103272-56.855273-26.368-39.633455-25.576727-94.906182 0.418909-134.539636m84.875636 10.775273a60.928 60.928 0 0 0-35.188364 32.116363c-17.035636 30.254545 2.164364 71.68 34.001455 82.594909 19.013818 4.119273 41.378909 4.072727 56.901818-9.332363 22.946909-16.663273 30.836364-50.338909 17.221818-75.287273-12.706909-26.461091-45.265455-39.470545-72.936727-30.091636M669.602909 283.927273c-33.28 8.401455-54.411636 47.243636-41.332364 79.662545 12.078545 37.376 64 50.571636 93.556364 25.902546 22.667636-16.663273 28.765091-50.292364 16.081455-74.891637-12.567273-24.064-41.844364-37.608727-68.305455-30.673454m-308.945454 139.170909c-21.922909 7.610182-41.425455 22.690909-53.015273 42.891636-15.429818 28.066909-15.662545 63.953455-0.046546 91.997091 12.520727 22.714182 35.374545 38.144 59.904 45.381818 30.999273 7.633455 64.791273-3.258182 87.528728-25.111272 27.019636-26.228364 34.117818-69.469091 19.386181-103.726546-17.733818-42.542545-70.050909-66.280727-113.75709-51.432727m313.879272 199.866182c-16.570182 1.698909-30.487273 12.660364-40.308363 25.483636-18.432 28.090182-9.053091 70.074182 21.224727 85.783273 33.815273 21.085091 83.316364-3.025455 87.994182-42.496 8.680727-38.981818-30.021818-77.312-68.910546-68.770909m-307.898182 171.892363c-30.673455 12.148364-49.012364 51.968-32.674909 81.989818a59.252364 59.252364 0 0 0 58.344728 34.955637c34.443636-0.046545 62.440727-35.793455 56.622545-69.282909-3.188364-16.104727-11.776-31.767273-25.786182-40.820364-16.058182-11.915636-37.934545-11.822545-56.482909-6.842182z" fill="#4AAF47" p-id="15065"></path></svg>