<?xml version="1.0" standalone="no"?><!DOCTYPE svg PUBLIC "-//W3C//DTD SVG 1.1//EN" "http://www.w3.org/Graphics/SVG/1.1/DTD/svg11.dtd"><svg t="1611222939035" class="icon" viewBox="0 0 1024 1024" version="1.1" xmlns="http://www.w3.org/2000/svg" p-id="15488" xmlns:xlink="http://www.w3.org/1999/xlink" width="200" height="200"><defs><style type="text/css"></style></defs><path d="M512 510.5m-447.5 0a447.5 447.5 0 1 0 895 0 447.5 447.5 0 1 0-895 0Z" fill="#FFFFFF" p-id="15489"></path><path d="M279.3 249.4c23.3-2.4 63.9 10 80.4 24.7 7.6 6.7 15.1 13.8 22.2 21.1 65.6-13 124.3 19.8 174.9 97.6 46.9 72.3 79.1 132.3 95.7 178.6 23.5 12.3 46.2 26.1 68 41.4 36.4 25.6 46.3 38.8 50.5 46.5 4.7 8.6 1.8 19.6-6.7 24.4-2.6 1.5-5.5 2.3-8.5 2.3h-59.7c8.9 10.5 17.9 20.8 27.2 30.9 7.1 6.7 7.5 18.1 0.9 25.3-6.5 7.2-17.6 7.7-24.6 0.9-0.6-0.5-1.1-1.1-1.6-1.8-18.2-20.1-35.9-40.7-53.2-61.8-6.2-7.6-5.3-18.9 2-25.3 3.1-2.7 7.1-4.2 11.1-4.3h53.7c-25.5-19-52.5-35.7-80.8-49.9-4.2-2-7.4-5.8-8.9-10.3-14.8-44.3-46.5-104-94.2-177.4-44.6-68.8-92.8-95-147.3-80.5-6.1 1.6-12.6-0.3-16.9-5-8.5-9.1-17.3-17.7-26.6-25.9-9-8-35.6-15.6-49.5-16.3 4 9.3 14.6 28.9 43.9 68.2 1.1 1.5 2 3.2 2.6 5 10.3 30.6 15.4 53.5 15.4 70 0 4.6 2.5 18.2 25.1 46.8 3.6 4.6 4.8 10.7 3.2 16.3l-19.9 70c-11.4 40 11.3 93.4 25.6 110.5 3.3-9.3 8.3-31.3 10.4-82.2 0.5-9.9 8.6-17.5 18.2-17.1 6.1 0.3 11.7 3.9 14.6 9.5 8.5 16.6 20.8 46.3 37.7 90.5 20.1 52.4 34.1 63.4 39.3 65.7 8.5 4.6 11.8 15.5 7.3 24.2-4 7.8-13 11.5-21.1 8.6-20.7-9.2-39-36.3-57.8-85.4-3.4-9.1-6.8-17.6-9.9-25.5-6.1 33.6-15.5 45.4-27.2 50.1-5.8 2.4-17.6 4.3-31.6-8.9-26.2-24.7-54.4-95.4-38.9-150.1l17.4-61.2c-18.5-24.8-27.2-44.7-27.2-61.9 0-8.2-2.2-24.5-12.5-55.6-54.2-73.1-58.2-95.5-46.4-111.1 5.2-6.4 13.2-10.5 23.7-11.6z m121.5 128c6.8-1.6 28-1.9 34.5 8.3 12.6 14.5 6.4 36.7-1.5 42.2l-1.1 1.1c-4.5-9.1-11.5-16.3-16-25.4-5.6-8.5-11-17.2-15.9-26.2z" fill="#4A94C6" p-id="15490"></path><path d="M727.6 771.8H425c-25.2 0-45.8-20.6-45.8-45.8v-86.3c0-25.2 20.6-45.8 45.8-45.8h302.6c25.2 0 45.8 20.6 45.8 45.8V726c-0.1 25.2-20.7 45.8-45.8 45.8z" fill="#CAE2EF" p-id="15491"></path><path d="M523.5 669.9c0 12.5-3.3 22.7-9.9 30.4-7 8.2-16.7 12.3-29.1 12.3-2.1 0-5.2-0.1-9.3-0.3-4.2-0.2-7.3-0.3-9.3-0.3-2.2 0-3.3 1-3.3 2.9 0 2.4 0.2 5.9 0.7 10.6 0.5 4.7 0.7 8.2 0.7 10.6 0 1.2-0.5 1.8-1.6 1.8-3.2 0-7.9-0.1-14.2-0.3-6.3-0.2-11-0.3-14.2-0.3-1.5 0-2.2-0.7-2.2-2.2 0-5.7 0.1-14.4 0.3-25.9 0.2-11.5 0.3-20.1 0.3-25.9 0-16.2-0.7-33.3-2.1-51.2l-0.3-1.1c-0.1-1 0.7-1.6 2.3-1.8 4-0.5 12.9-0.8 26.7-0.8 8.1 0 15.9 0.1 23.4 0.3 12.3 0.4 22.1 4.2 29.6 11.6 7.6 7.5 11.5 17.4 11.5 29.6z m-31 1.3c0-12.1-5.9-18.1-17.6-18.1-8.3 0-12.6 0.5-13 1.4-0.4 0.7-0.5 6.6-0.5 17.9 0 1.6 0.1 4 0.2 7.1 0.1 3.1 0.2 5.5 0.2 7.1 0 1 4.7 1.6 14 1.6 11.1 0 16.7-5.7 16.7-17zM619.7 726.9c0 5.1-0.2 8.1-0.7 9-0.6 1.1-2.3 1.7-5.3 1.7h-3.1c-1.6-0.1-2.9-0.1-3.9-0.1-1.1 0-2.6-0.1-4.7-0.2s-3.7-0.2-4.7-0.2c-0.8 0-4.6-5-11.2-14.9s-10.1-14.9-10.3-15c-1.1 0.9-4.8 6.1-11.2 15.7-6.1 9.2-9.7 13.9-10.7 14.2-0.7 0.2-2.7 0.3-5.8 0.3-10.6 0-15.9-0.5-15.9-1.6s-0.1-2.6-0.2-4.7c-0.1-2-0.2-3.5-0.2-4.5 0-6.4 0.4-10.2 1.2-11.3 0.1-0.1 4.3-5.7 12.8-17 6.9-9.1 10.3-14.3 10.3-15.6 0-1.3-3.4-6.4-10.3-15.4-4.3-5.5-8.7-11.1-13-16.7-0.5-0.7-0.8-1.8-0.9-3.3-0.1-1.1-0.1-2.6 0-4.4 0.2-2.2 0.2-3.5 0.2-3.7 0-1-0.1-2.6-0.3-4.8-0.2-2.2-0.3-3.8-0.3-4.8s0.9-1.5 2.7-1.5c1.2 0 2.9 0.1 5.3 0.2 2.3 0.2 4.1 0.2 5.2 0.2 1 0 2.6-0.1 4.6-0.2 2-0.1 3.5-0.2 4.5-0.2 0.8 0 4.6 5 11.3 15.1 6.7 10.1 10.2 15.1 10.5 15.1 1-0.6 4.8-5.9 11.4-15.8 6.3-9.6 9.9-14.4 10.8-14.4h18.5c1.8 0 2.7 0.4 2.7 1.3v18.9c0 1.3-4 7.2-12 17.6-8 10.4-12 15.9-12 16.5 0 0.9 3.5 6 10.6 15.3 8.3 10.9 12.6 16.6 13 17.1 0.8 1.5 1.1 5.4 1.1 12.1zM722.6 719.7c0 0.8-0.5 1.9-1.6 3.3-9.5 11.3-22.2 17-37.9 17-16.1 0-29.2-5.5-39.3-16.5-9.8-10.7-14.7-24.1-14.7-40.3 0-15.7 4.8-29.1 14.4-40 10-11.5 22.7-17.2 38.1-17.2 16.8 0 29.9 5.1 39.4 15.4 1 1.1 1.6 2.1 1.6 3 0 1-1.8 4.6-5.4 10.9-3.6 6.3-5.9 9.9-6.8 10.6-0.4 0.4-0.9 0.6-1.6 0.6-0.3 0-1.6-1-3.9-3.1-2.8-2.5-5.5-4.4-8.2-5.8-4.1-2.1-8.3-3.1-12.7-3.1-7.6 0-13.7 2.8-18.2 8.5-4.2 5.3-6.3 11.8-6.3 19.5 0 7.9 2.1 14.5 6.3 19.8 4.6 5.8 10.6 8.7 18.2 8.7 4.5 0 8.8-1 12.8-2.9 2.6-1.3 5.3-3.1 8.1-5.4 2.3-2 3.5-2.9 3.8-2.9 0.5 0 1 0.3 1.6 0.9 0.8 0.9 3.1 4.2 6.7 9.7 3.7 5.6 5.6 8.8 5.6 9.3z" fill="#4A94C6" p-id="15492"></path></svg>