<?xml version="1.0" encoding="utf-8"?>
<!-- Generator: Adobe Illustrator 22.0.0, SVG Export Plug-In . SVG Version: 6.00 Build 0)  -->
<svg version="1.1" id="图层_1" xmlns="http://www.w3.org/2000/svg" xmlns:xlink="http://www.w3.org/1999/xlink" x="0px" y="0px"
	 viewBox="0 0 1024 1024" style="enable-background:new 0 0 1024 1024;" xml:space="preserve">
<style type="text/css">
	.st0{fill:#FFFFFF;stroke:#AAAAAA;stroke-width:5;stroke-miterlimit:10;}
	.st1{fill:#DE4231;}
</style>
<circle class="st0" cx="512" cy="510.5" r="447.5"/>
<path class="st1" d="M635.3,289H390.6c-122.4-0.1-221.7,99.1-221.7,221.5c0,0,0,0,0,0C169,632.9,268.2,732.1,390.6,732c0,0,0,0,0,0
	h244.6c122.4,0.1,221.7-99.1,221.7-221.5v0C856.9,388.1,757.6,288.9,635.3,289L635.3,289z M729.7,605.7c-25,25-58.9,39-94.2,39
	H391.1c-73.7,0.1-133.5-59.5-133.7-133.2v-1.2c0.2-73.7,60.1-133.3,133.7-133.2h244.4c73.5,0,133.1,59.5,133.2,133
	c0,0.1,0,0.1,0,0.2v1.2C768.7,546.8,754.7,580.7,729.7,605.7L729.7,605.7z"/>
</svg>
