<?xml version="1.0" standalone="no"?><!DOCTYPE svg PUBLIC "-//W3C//DTD SVG 1.1//EN" "http://www.w3.org/Graphics/SVG/1.1/DTD/svg11.dtd"><svg t="1608088464324" class="icon" viewBox="0 0 1024 1024" version="1.1" xmlns="http://www.w3.org/2000/svg" p-id="14280" xmlns:xlink="http://www.w3.org/1999/xlink" width="200" height="200"><defs><style type="text/css"></style></defs><path d="M641.9 463c-16 0-29 6.1-39.1 18.3-10.1 12.2-15.1 27.9-15.1 47v20.9c0 17.1 4.6 31.1 13.9 42 9.3 10.9 21.3 16.3 36.1 16.3 17.6 0 31.2-6.8 41-20.5 9.8-13.6 14.7-32.9 14.7-57.9 0.1-44-17.1-66.1-51.5-66.1z" fill="#F5AF3F" p-id="14281"></path><path d="M511.5 63C264.4 63 64 263.4 64 510.5 64 757.7 264.4 958 511.5 958 758.7 958 959 757.7 959 510.5 959 263.4 758.7 63 511.5 63z m-0.3 314.2H415v278.5h-72.1V377.2h-96v-58.8h264.3v58.8z m224.3 248c-20 24.2-46.3 36.4-78.8 36.4-29.5 0-51.8-11.6-67.1-34.8h-0.9v139.8h-70.3V414.9h70.3v36.8h0.9c18.4-28.4 44.5-42.7 78.2-42.7 30.6 0 54.6 10.7 71.8 32.1 17.3 21.4 25.9 50.5 25.9 87.4 0 40.3-10 72.5-30 96.7z" fill="#F5AF3F" p-id="14282"></path></svg>