<?xml version="1.0" encoding="UTF-8"?>
<svg width="30px" height="30px" viewBox="0 0 30 30" version="1.1" xmlns="http://www.w3.org/2000/svg" xmlns:xlink="http://www.w3.org/1999/xlink">
    <title>sybase ase</title>
    <g id="sybase-ase" stroke="none" stroke-width="1" fill="none" fill-rule="evenodd">
        <circle id="椭圆形" stroke="#E3E3E3" fill="#FFFFFF" cx="14.9217305" cy="15.0782695" r="14.3496"></circle>
        <g id="sybase" transform="translate(7.500000, 7.500000)" fill="#2D8CF0" fill-rule="nonzero">
            <path d="M9,6 L9,4.875 L9,4.875 C8.79578342,4.8845339 8.63557904,5.05805085 8.62501611,5.27351695 C8.62501611,5.28114407 8.62501611,5.28686441 8.62501611,5.29449153 C8.62325563,5.58432203 8.76585513,5.85317797 9,6 Z" id="路径"></path>
            <path d="M8.25,4.5 L8.25,4.875 C8.28417266,4.66981132 8.43794964,4.51617251 8.625,4.5 L8.25,4.5 Z" id="路径"></path>
            <path d="M7.875,5.25 L7.875,5.25 L7.875,6.37296931 L7.875,6.375 L9,6.375 C8.99795455,6.375 8.99386364,6.37296931 8.99181818,6.37296931 L9,6.37296931 C8.41704545,6.27752708 7.96295455,5.82468412 7.875,5.25 Z" id="路径"></path>
            <path d="M10.875,3.75 C10.5625907,2.88276231 9.59678882,2.25 8.45763788,2.25 C8.38906023,2.25 8.31857765,2.25 8.25,2.25321199 L8.25,2.25321199 L8.25,3.75 L10.875,3.75 Z" id="路径"></path>
            <path d="M13.5744815,0 L1.42551854,0 C0.641106223,0 0,0.641106223 0,1.42551854 L0,13.5744815 C0,14.3588938 0.641106223,15 1.42551854,15 L13.5744815,15 C14.3588938,15 15,14.3588938 15,13.5744815 L15,1.42551854 C14.9981144,0.641106223 14.3570082,0 13.5744815,0 Z M11.2985544,6.35826524 L11.2985544,6.52985544 L11.2985544,6.76367065 L4.20113136,6.76367065 C4.54431175,10.2331867 7.71213074,13.0087995 11.2947832,13.0087995 L11.2947832,13.4481458 C9.33186675,13.4481458 7.26524199,12.6316782 5.87743558,11.257071 C4.48962916,9.88434947 3.72595852,8.05719673 3.72595852,6.10936518 C3.72595852,3.58076681 5.80201131,1.52168448 8.35135135,1.52168448 C9.97485858,1.52168448 11.2947832,2.83218102 11.2947832,4.44060339 C11.2947832,5.3928347 10.5763671,6.18667505 9.65053426,6.31112508 L11.2985544,6.31112508 L11.2985544,6.35826524 L11.2985544,6.35826524 Z" id="形状"></path>
            <path d="M10.8670213,4.5 L10.8670213,4.5 L9.75,4.5 L9.75,6 C10.3803191,5.94034091 10.875,5.37954545 10.875,4.69772727 C10.875,4.69772727 10.875,4.69772727 10.875,4.69772727 L10.875,4.69772727 C10.875,4.62954545 10.8718085,4.56477273 10.8670213,4.5 C10.8670213,4.5 10.8670213,4.5 10.8670213,4.5 Z" id="路径"></path>
            <path d="M7.5,6.375 L7.5,2.25 C6.87004883,2.35516484 6.28771026,2.60538462 5.79144059,2.96258242 C4.78241997,3.68785714 4.125,4.86098901 4.125,6.18098901 L4.125,6.18098901 C4.125,6.24626374 4.12683125,6.30972527 4.12683125,6.375 L7.5,6.375 Z" id="路径"></path>
        </g>
    </g>
</svg>