<?xml version="1.0" standalone="no"?><!DOCTYPE svg PUBLIC "-//W3C//DTD SVG 1.1//EN" "http://www.w3.org/Graphics/SVG/1.1/DTD/svg11.dtd"><svg t="1616380904459" class="icon" viewBox="0 0 1024 1024" version="1.1" xmlns="http://www.w3.org/2000/svg" p-id="15511" xmlns:xlink="http://www.w3.org/1999/xlink" width="64" height="64"><defs><style type="text/css"></style></defs><path d="M571.07692344 519.38461531L689.23076937 401.23076937c14.76923062-14.76923062 14.76923062-44.30769188 1e-8-59.07692343-14.76923062-14.76923062-44.30769188-14.76923062-59.07692344 0L512 460.30769188 393.84615406 342.15384594c-14.76923062-14.76923062-44.30769188-14.76923062-59.07692344 0-14.76923062 14.76923062-14.76923062 44.30769188 0 59.07692343l118.15384594 118.15384594L327.38461531 637.53846125c-14.76923062 14.76923062-14.76923062 44.30769188 0 59.07692344s44.30769188 14.76923062 59.07692344 0l118.15384594-118.15384594L622.76923063 696.61538469c14.76923062 14.76923062 44.30769188 14.76923062 59.07692343 0 14.76923062-14.76923062 14.76923062-44.30769188 0-59.07692344L571.07692344 519.38461531zM674.46153875 98.46153875c51.69230812 22.15384594 103.38461531 51.69230812 147.69230719 96 44.30769188 44.30769188 73.84615406 88.61538469 96 147.69230719 22.15384594 51.69230812 29.53846125 110.76923063 29.53846218 169.84615406 0 59.07692344-7.38461531 110.76923063-29.53846218 169.84615406-22.15384594 51.69230812-51.69230812 103.38461531-96 147.69230719-44.30769188 44.30769188-88.61538469 73.84615406-147.69230719 96-51.69230812 22.15384594-110.76923063 29.53846125-169.84615406 29.53846219-59.07692344 0-110.76923063-7.38461531-169.84615407-29.53846219-51.69230812-22.15384594-103.38461531-51.69230812-147.69230718-96-44.30769188-44.30769188-73.84615406-88.61538469-96-147.69230719C68.92307656 630.15384594 61.53846125 571.07692344 61.53846125 512c0-59.07692344 7.38461531-110.76923063 29.53846219-169.84615406 22.15384594-51.69230812 51.69230812-103.38461531 96-147.69230719 44.30769188-44.30769188 88.61538469-73.84615406 147.69230719-96S445.53846125 68.92307656 504.61538469 68.92307656 622.76923063 76.30769187 674.46153875 98.46153875z" fill="#FF5555" p-id="15512"></path></svg>