<?xml version="1.0" standalone="no"?><!DOCTYPE svg PUBLIC "-//W3C//DTD SVG 1.1//EN" "http://www.w3.org/Graphics/SVG/1.1/DTD/svg11.dtd"><svg class="icon" viewBox="0 0 1024 1024" version="1.1" xmlns="http://www.w3.org/2000/svg" style="height: 98px; width: 98px;"><path d="M843.52 552.96c-64-84.48-240.64-102.4-240.64-102.4l71.68-43.52-158.72-87.04-158.72 79.36 128 71.68c207.36-5.12 266.24 107.52 266.24 107.52 51.2 163.84-245.76 174.08-245.76 174.08-171.52 20.48-250.88-130.56-250.88-130.56l-102.4 5.12c122.88 245.76 563.2 138.24 563.2 138.24 225.28-74.24 128-212.48 128-212.48z m-330.24-102.4l-71.68-35.84 66.56-48.64 71.68 38.4-66.56 46.08z" fill="#1D2088"></path><path d="M526.08 240.64c-115.2-7.68-340.48 5.12-368.64 143.36-23.04 110.08 143.36 174.08 261.12 186.88-23.04 15.36-48.64 28.16-71.68 43.52 56.32 30.72 107.52 64 158.72 92.16l143.36-84.48-143.36-74.24c-28.16-5.12-56.32 5.12-71.68 5.12-79.36 0-194.56-87.04-163.84-166.4 58.88-171.52 453.12-145.92 491.52 23.04h110.08c-48.64-135.68-235.52-161.28-345.6-168.96z m-15.36 335.36l71.68 38.4-74.24 38.4-66.56-38.4 69.12-38.4z" fill="#5AA572"></path></svg>
