<svg width="23" height="23" viewBox="0 0 23 23" fill="none" xmlns="http://www.w3.org/2000/svg">
<g clip-path="url(#clip0_743_2098)">
<path d="M3.63349 11.5V8.07739H6.49418V10.3591H17.937C18.3163 10.3591 18.6801 10.4793 18.9484 10.6933C19.2166 10.9072 19.3673 11.1974 19.3673 11.5V14.9226H16.5066V12.6409H5.06384C4.68448 12.6409 4.32067 12.5207 4.05243 12.3067C3.78418 12.0928 3.63349 11.8026 3.63349 11.5Z" fill="#B2E9C8"/>
<path d="M0.0572128 1.23218C0.0572128 0.929603 0.207909 0.639418 0.476152 0.425462C0.744394 0.211507 1.10821 0.0913086 1.48756 0.0913086H21.5124C21.8918 0.0913086 22.2556 0.211507 22.5238 0.425462C22.7921 0.639418 22.9428 0.929603 22.9428 1.23218V8.07742C22.9428 8.38 22.7921 8.67018 22.5238 8.88414C22.2556 9.09809 21.8918 9.21829 21.5124 9.21829H1.48756C1.10821 9.21829 0.744394 9.09809 0.476152 8.88414C0.207909 8.67018 0.0572128 8.38 0.0572128 8.07742V1.23218Z" fill="url(#paint0_linear_743_2098)"/>
<path d="M12.3846 4.4231H19.4615V7.07694H12.3846V4.4231Z" fill="#30C694"/>
<path d="M11.5 3.51392H17.2214V5.79566H11.5V3.51392Z" fill="white"/>
<path d="M0.0572128 14.9226C0.0572128 14.62 0.207909 14.3298 0.476152 14.1159C0.744394 13.9019 1.10821 13.7817 1.48756 13.7817H21.5124C21.8918 13.7817 22.2556 13.9019 22.5238 14.1159C22.7921 14.3298 22.9428 14.62 22.9428 14.9226V21.7678C22.9428 22.0704 22.7921 22.3606 22.5238 22.5746C22.2556 22.7885 21.8918 22.9087 21.5124 22.9087H1.48756C1.10821 22.9087 0.744394 22.7885 0.476152 22.5746C0.207909 22.3606 0.0572128 22.0704 0.0572128 21.7678V14.9226Z" fill="url(#paint1_linear_743_2098)"/>
<path d="M12.3846 18.5769H19.4615V21.2308H12.3846V18.5769Z" fill="#30C694"/>
<path d="M11.5 17.2043H17.2214V19.4861H11.5V17.2043Z" fill="white"/>
</g>
<defs>
<linearGradient id="paint0_linear_743_2098" x1="11.5" y1="0.0913086" x2="11.5" y2="9.21829" gradientUnits="userSpaceOnUse">
<stop stop-color="#30C694"/>
<stop offset="1" stop-color="#4ED89D"/>
</linearGradient>
<linearGradient id="paint1_linear_743_2098" x1="11.5" y1="13.7817" x2="11.5" y2="22.9087" gradientUnits="userSpaceOnUse">
<stop stop-color="#49D59B"/>
<stop offset="1" stop-color="#32C795"/>
</linearGradient>
<clipPath id="clip0_743_2098">
<rect width="23" height="23" fill="white"/>
</clipPath>
</defs>
</svg>
