<svg width="20" height="20" viewBox="0 0 20 20" fill="none" xmlns="http://www.w3.org/2000/svg">
<rect width="20" height="20" rx="3.33333" fill="#2C65FF"/>
<g clip-path="url(#clip0_9238_71492)">
<path d="M15.756 9.98397C15.3457 9.98792 13.3342 8.8262 13.2706 8.76564C13.1179 8.61996 13.1756 8.43862 13.3315 8.41382C13.4874 8.38901 14.3628 8.28494 14.3628 8.28494C13.8248 6.84695 12.6243 5.69853 11.0486 5.3263C8.5338 4.73199 5.93312 6.4178 5.35834 8.99068C5.3534 9.01262 5.31867 9.27492 5.11036 9.2666C4.96935 9.26098 4.50738 9.07729 4.34036 8.99895C4.14969 8.90952 4.09816 8.93262 4.15599 8.64477C4.81009 5.37392 8.15986 3.16954 11.375 3.92378C14.0432 4.5496 15.8967 6.8649 16.1004 9.5029C16.1345 9.85643 15.9545 9.98203 15.756 9.98395L15.756 9.98397ZM11.5565 10.7009C11.8207 10.7009 12.0348 10.9148 12.0348 11.1791C12.0348 11.443 11.8207 11.6573 11.5565 11.6573H10.6001V12.2551C10.6001 12.5853 10.3325 12.8529 10.0023 12.8529C9.67211 12.8529 9.4045 12.5853 9.4045 12.2551V11.6573H8.44805C8.18393 11.6573 7.96983 11.443 7.96983 11.1791C7.96983 10.9148 8.18394 10.7009 8.44805 10.7009H9.4045V10.2226H8.44805C8.18393 10.2226 7.96983 10.0083 7.96983 9.74443C7.96983 9.4801 8.18394 9.26619 8.44805 9.26619H9.4045V9.23348L8.3432 8.1724C8.15512 7.98418 8.15512 7.67923 8.3432 7.49124C8.53129 7.30324 8.83614 7.30326 9.02424 7.49124L9.99426 8.461L10.968 7.48725C11.1561 7.29951 11.461 7.29951 11.6491 7.48725C11.8372 7.67546 11.8372 7.98044 11.6491 8.16841L10.6001 9.21736V9.26617H11.5566C11.8207 9.26617 12.0348 9.48009 12.0348 9.74441C12.0348 10.0083 11.8207 10.2226 11.5566 10.2226H10.6001V10.7009H11.5566L11.5565 10.7009ZM6.75875 11.3757C6.96854 11.5099 6.91798 11.7793 6.68743 11.8033C6.45689 11.8273 5.73492 11.8908 5.73492 11.8908C6.30726 13.2322 7.46725 14.2898 8.96712 14.644C11.4819 15.238 14.0537 13.6338 14.6287 11.0609C14.6405 11.0082 14.6401 11.0164 14.6606 10.9031C14.6812 10.7898 14.7145 10.6174 14.9359 10.6941C15.1573 10.7708 15.6973 10.9296 15.8655 10.9745C16.0338 11.0195 16.0148 11.0858 15.9937 11.2422C15.9873 11.2897 15.9776 11.3332 15.9675 11.379C15.2148 14.7243 11.9382 16.8112 8.64914 16.0395C5.98407 15.4143 4.1316 13.1042 3.92433 10.4701C3.89622 10.0175 4.216 9.92513 4.54289 10.098C4.80005 10.2341 6.54893 11.2416 6.75872 11.3757L6.75875 11.3757Z" fill="white"/>
</g>
<defs>
<clipPath id="clip0_9238_71492">
<rect width="13.3333" height="13.3333" fill="white" transform="translate(3.33325 3.33398)"/>
</clipPath>
</defs>
</svg>
