<?xml version="1.0" standalone="no"?><!DOCTYPE svg PUBLIC "-//W3C//DTD SVG 1.1//EN" "http://www.w3.org/Graphics/SVG/1.1/DTD/svg11.dtd"><svg t="1624590317425" class="icon" viewBox="0 0 1024 1024" version="1.1" xmlns="http://www.w3.org/2000/svg" p-id="2533" xmlns:xlink="http://www.w3.org/1999/xlink" width="200" height="200"><defs><style type="text/css"></style></defs><path d="M12.356267 34.133333m136.533333 0l682.666667 0q136.533333 0 136.533333 136.533334l0 682.666666q0 136.533333-136.533333 136.533334l-682.666667 0q-136.533333 0-136.533333-136.533334l0-682.666666q0-136.533333 136.533333-136.533334Z" fill="#F4F5F7" p-id="2534"></path><path d="M420.932267 682.666667c0-16.042667 8.055467-32.085333 20.0704-44.168534 16.110933-16.042667 32.1536-24.098133 48.196266-24.098133 20.0704 0 36.181333 8.055467 48.196267 20.0704a66.491733 66.491733 0 0 1 20.0704 48.196267c0 20.0704-7.9872 36.181333-20.0704 48.196266a66.491733 66.491733 0 0 1-48.196267 20.0704 66.491733 66.491733 0 0 1-48.196266-20.0704 66.491733 66.491733 0 0 1-20.0704-48.196266z m70.314666-95.4368c-38.434133 0-68.266667-19.797333-68.266666-45.2608V318.327467c0-25.463467 29.832533-45.2608 68.266666-45.2608 38.365867 0 68.266667 19.797333 68.266667 45.2608v220.7744c0 28.330667-29.9008 48.128-68.266667 48.128z" fill="#C43F3F" p-id="2535"></path></svg>
