<?xml version="1.0" standalone="no"?><!DOCTYPE svg PUBLIC "-//W3C//DTD SVG 1.1//EN" "http://www.w3.org/Graphics/SVG/1.1/DTD/svg11.dtd"><svg t="1624590320996" class="icon" viewBox="0 0 1024 1024" version="1.1" xmlns="http://www.w3.org/2000/svg" p-id="2676" xmlns:xlink="http://www.w3.org/1999/xlink" width="200" height="200"><defs><style type="text/css"></style></defs><path d="M46.4896 34.133333m136.533333 0l682.666667 0q136.533333 0 136.533333 136.533334l0 682.666666q0 136.533333-136.533333 136.533334l-682.666667 0q-136.533333 0-136.533333-136.533334l0-682.666666q0-136.533333 136.533333-136.533334Z" fill="#F4F5F7" p-id="2677"></path><path d="M710.314667 469.879467L534.596267 283.2384a31.812267 31.812267 0 0 0-23.415467-10.171733 32.3584 32.3584 0 0 0-23.415467 10.24l-174.08 186.641066a23.9616 23.9616 0 0 0-4.573866 25.668267c3.618133 8.738133 11.946667 14.336 21.162666 14.336h61.166934v146.978133c0 18.432 14.609067 33.5872 32.631466 33.723734l173.192534 0.546133a33.450667 33.450667 0 0 0 32.836266-33.655467l0.546134-147.592533h63.214933a22.9376 22.9376 0 0 0 21.162667-14.336 24.029867 24.029867 0 0 0-4.642134-25.736533z m-53.248 251.221333h-290.133334a14.677333 14.677333 0 0 0-14.5408 14.9504c0 8.192 6.5536 14.882133 14.5408 14.882133h290.133334a14.677333 14.677333 0 0 0 14.5408-14.882133 14.677333 14.677333 0 0 0-14.5408-14.9504z" fill="#2C65FF" p-id="2678"></path></svg>
