<svg width="20" height="20" viewBox="0 0 20 20" fill="none" xmlns="http://www.w3.org/2000/svg">
<rect x="1" y="1" width="18" height="18" rx="9" fill="#F53F3F"/>
<path fill-rule="evenodd" clip-rule="evenodd" d="M5.75737 5.75736C5.49861 6.01611 5.49861 6.43563 5.75737 6.69438L9.06298 10L5.75737 13.3056C5.49861 13.5644 5.49861 13.9839 5.75737 14.2426C6.01612 14.5014 6.43564 14.5014 6.69439 14.2426L10 10.937L13.3056 14.2426C13.5644 14.5014 13.9839 14.5014 14.2426 14.2426C14.5014 13.9839 14.5014 13.5644 14.2426 13.3056L10.937 10L14.2426 6.69438C14.5014 6.43563 14.5014 6.01611 14.2426 5.75736C13.9839 5.49861 13.5644 5.49861 13.3056 5.75736L10 9.06298L6.69439 5.75736C6.43564 5.49861 6.01612 5.49861 5.75737 5.75736Z" fill="white"/>
<rect x="1" y="1" width="18" height="18" rx="9" stroke="#FDCDC5" stroke-width="1.5"/>
</svg>
