<svg width="20" height="20" viewBox="0 0 20 20" fill="none" xmlns="http://www.w3.org/2000/svg">
<rect x="1" y="1" width="18" height="18" rx="9" fill="#3B47E5"/>
<path fill-rule="evenodd" clip-rule="evenodd" d="M10 4C9.63407 4 9.33742 4.29665 9.33742 4.66258V9.33742H4.66258C4.29665 9.33742 4 9.63407 4 10C4 10.3659 4.29665 10.6626 4.66258 10.6626H9.33742V15.3374C9.33742 15.7034 9.63407 16 10 16C10.3659 16 10.6626 15.7034 10.6626 15.3374V10.6626H15.3374C15.7034 10.6626 16 10.3659 16 10C16 9.63407 15.7034 9.33742 15.3374 9.33742H10.6626V4.66258C10.6626 4.29665 10.3659 4 10 4Z" fill="white"/>
<rect x="1" y="1" width="18" height="18" rx="9" stroke="#94BFFF" stroke-width="1.5"/>
</svg>
