<svg width="20" height="20" viewBox="0 0 20 20" fill="none" xmlns="http://www.w3.org/2000/svg">
<g clip-path="url(#clip0_2_7)">
<path d="M19 10C19 5.02944 14.9706 1 10 1C5.02944 1 1 5.02944 1 10C1 14.9706 5.02944 19 10 19C14.9706 19 19 14.9706 19 10Z" fill="#00B42A"/>
<path d="M12.4864 5.1676C12.5745 5.03516 12.7116 4.94313 12.8675 4.91174C13.0235 4.88035 13.1855 4.91217 13.318 5.0002C14.1432 5.54726 14.82 6.29021 15.288 7.16267C15.756 8.03513 16.0006 9.00994 16 10C16 13.3138 13.3138 16 10 16C6.6862 16 4 13.3138 4 10C3.99935 9.00994 4.24396 8.03513 4.71196 7.16267C5.17997 6.29021 5.85681 5.54726 6.682 5.0002C6.81456 4.91212 6.97667 4.88031 7.13268 4.91176C7.28869 4.94321 7.42582 5.03534 7.5139 5.1679C7.60198 5.30046 7.63379 5.46257 7.60234 5.61858C7.57089 5.77459 7.47876 5.91172 7.3462 5.9998C6.48702 6.56987 5.83425 7.40145 5.48453 8.37143C5.13481 9.3414 5.10672 10.3982 5.40444 11.3854C5.70215 12.3726 6.30984 13.2377 7.13752 13.8525C7.96521 14.4674 8.9689 14.7995 10 14.7995C11.0311 14.7995 12.0348 14.4674 12.8625 13.8525C13.6902 13.2377 14.2978 12.3726 14.5956 11.3854C14.8933 10.3982 14.8652 9.3414 14.5155 8.37143C14.1657 7.40145 13.513 6.56987 12.6538 5.9998C12.5881 5.95622 12.5316 5.90011 12.4876 5.83469C12.4436 5.76927 12.4129 5.69581 12.3973 5.61852C12.3817 5.54123 12.3815 5.46163 12.3967 5.38425C12.4119 5.30688 12.4427 5.23326 12.4864 5.1676ZM10 4C10.147 4.00002 10.2888 4.05397 10.3986 4.15163C10.5084 4.24928 10.5786 4.38385 10.5958 4.5298L10.6 4.6V10.6C10.5998 10.7529 10.5413 10.9 10.4363 11.0112C10.3313 11.1224 10.1878 11.1893 10.0352 11.1983C9.8825 11.2073 9.73217 11.1576 9.6149 11.0594C9.49763 10.9613 9.42226 10.8221 9.4042 10.6702L9.4 10.6V4.6C9.4 4.44087 9.46321 4.28826 9.57574 4.17574C9.68826 4.06321 9.84087 4 10 4Z" fill="white"/>
<path d="M19 10C19 5.02944 14.9706 1 10 1C5.02944 1 1 5.02944 1 10C1 14.9706 5.02944 19 10 19C14.9706 19 19 14.9706 19 10Z" stroke="#AFF0B5" stroke-width="1.5"/>
</g>
<defs>
<clipPath id="clip0_2_7">
<rect width="20" height="20" fill="white"/>
</clipPath>
</defs>
</svg>
