<svg width="20" height="20" viewBox="0 0 20 20" fill="none" xmlns="http://www.w3.org/2000/svg">
<rect x="1" y="1" width="18" height="18" rx="9" fill="#F3961A"/>
<path d="M10 15.8337C8.84627 15.8337 7.71846 15.4916 6.75917 14.8506C5.79988 14.2096 5.05221 13.2986 4.6107 12.2327C4.16918 11.1668 4.05366 9.99386 4.27875 8.8623C4.50383 7.73075 5.0594 6.69135 5.8752 5.87554C6.69101 5.05973 7.73041 4.50416 8.86197 4.27908C9.99353 4.054 11.1664 4.16952 12.2323 4.61103C13.2982 5.05254 14.2093 5.80022 14.8502 6.7595C15.4912 7.71879 15.8333 8.84661 15.8333 10.0003C15.8333 10.7664 15.6825 11.5249 15.3893 12.2327C15.0961 12.9404 14.6665 13.5835 14.1248 14.1251C13.5831 14.6668 12.9401 15.0965 12.2323 15.3896C11.5246 15.6828 10.766 15.8337 10 15.8337ZM5.2575 10.0003C5.25702 10.8945 5.50964 11.7706 5.98614 12.5273C6.46264 13.2839 7.14357 13.8903 7.9502 14.2762C8.75683 14.6621 9.65622 14.8119 10.5444 14.7081C11.4325 14.6044 12.2732 14.2514 12.9692 13.6899L6.26666 7.09183C5.61324 7.92052 5.25777 8.94502 5.2575 10.0003ZM10 5.26074C8.91923 5.26038 7.8711 5.63104 7.03083 6.31074L13.7333 12.9082C14.385 12.079 14.7385 11.0544 14.7367 9.99974C14.7357 8.74357 14.2365 7.53908 13.3484 6.65061C12.4604 5.76215 11.2562 5.26229 10 5.26074Z" fill="white"/>
<rect x="1" y="1" width="18" height="18" rx="9" stroke="#FFE4BA" stroke-width="1.5"/>
</svg>
