<svg width="18" height="19" viewBox="0 0 18 19" fill="none" xmlns="http://www.w3.org/2000/svg">
<path d="M13.8594 1.79199H11.9545V2.48418C11.9545 2.90954 11.6248 3.25369 11.2167 3.25369H6.78505C6.37698 3.25369 6.04733 2.90954 6.04733 2.48418V1.79199H4.14243C3.09642 1.79199 2.25 2.67559 2.25 3.76413V15.5699C2.25 16.6584 3.09821 17.542 4.14243 17.542H13.8576C14.9036 17.542 15.75 16.6584 15.75 15.5699V3.76413C15.7518 2.67559 14.9036 1.79199 13.8594 1.79199ZM13.3693 13.2439H5.01558C4.75185 13.2439 4.53802 13.0216 4.53802 12.747C4.53802 12.4725 4.75185 12.2501 5.01558 12.2501H13.3711C13.6348 12.2501 13.8487 12.4725 13.8487 12.747C13.8487 13.0216 13.6331 13.2439 13.3693 13.2439Z" fill="currentColor"/>
<path d="M12.5166 6.62354C12.9208 6.62354 13.2576 6.7294 13.5175 6.94112C13.7677 7.14322 13.9169 7.42231 13.9698 7.76877H13.4212C13.3635 7.54261 13.2576 7.37901 13.0988 7.27314C12.9449 7.16728 12.7476 7.11916 12.507 7.11916C12.1461 7.11916 11.8766 7.23946 11.6938 7.48968C11.5253 7.71103 11.4435 8.01899 11.4435 8.41357C11.4435 8.81777 11.5253 9.13055 11.6889 9.34708C11.867 9.57806 12.1461 9.69835 12.5214 9.69835C12.7668 9.69835 12.9689 9.6358 13.1229 9.52031C13.2865 9.39039 13.402 9.1931 13.4694 8.93326H14.0179C13.9409 9.33746 13.7629 9.65023 13.479 9.8764C13.2143 10.0881 12.8967 10.194 12.5262 10.194C11.9536 10.194 11.5253 10.0111 11.2462 9.65505C11.0008 9.34708 10.8805 8.93326 10.8805 8.41357C10.8805 7.90351 11.0056 7.48487 11.2607 7.16728C11.5494 6.80158 11.968 6.62354 12.5166 6.62354Z" fill="white"/>
<path d="M7.56163 6.69116H8.81754C9.37573 6.69116 9.79436 6.84514 10.0831 7.15311C10.3574 7.44182 10.4969 7.86046 10.4969 8.40902C10.4969 8.95277 10.3574 9.3714 10.0831 9.66493C9.79436 9.97289 9.37573 10.1269 8.81754 10.1269H7.56163V6.69116ZM8.12463 7.17236V9.64568H8.71168C9.13994 9.64568 9.45272 9.54463 9.65 9.34734C9.84248 9.14524 9.93872 8.83247 9.93872 8.40902C9.93872 7.97595 9.84248 7.65836 9.65 7.46588C9.45272 7.26859 9.13994 7.17236 8.71168 7.17236H8.12463Z" fill="white"/>
<path d="M5.52897 6.62354C5.93317 6.62354 6.27 6.7294 6.52985 6.94112C6.78007 7.14322 6.92924 7.42231 6.98217 7.76877H6.43361C6.37587 7.54261 6.27 7.37901 6.11121 7.27314C5.95723 7.16728 5.75994 7.11916 5.51934 7.11916C5.15845 7.11916 4.88898 7.23946 4.70613 7.48968C4.53771 7.71103 4.45591 8.01899 4.45591 8.41357C4.45591 8.81777 4.53771 9.13055 4.70132 9.34708C4.87936 9.57806 5.15845 9.69835 5.53378 9.69835C5.77919 9.69835 5.98129 9.6358 6.13527 9.52031C6.29888 9.39039 6.41436 9.1931 6.48173 8.93326H7.03029C6.9533 9.33746 6.77526 9.65023 6.49135 9.8764C6.2267 10.0881 5.90911 10.194 5.53859 10.194C4.96597 10.194 4.53771 10.0111 4.25862 9.65505C4.01321 9.34708 3.89291 8.93326 3.89291 8.41357C3.89291 7.90351 4.01802 7.48487 4.27306 7.16728C4.56177 6.80158 4.98041 6.62354 5.52897 6.62354Z" fill="white"/>
</svg>
