<svg width="20" height="20" viewBox="0 0 20 20" fill="none" xmlns="http://www.w3.org/2000/svg">
<path d="M5 4.13629V2.91669C5 2.22633 5.55963 1.66669 6.25 1.66669H17.0833C17.7737 1.66669 18.3333 2.22633 18.3333 2.91669V13.75C18.3333 14.4404 17.7737 15 17.0833 15H15.8406" stroke="#3B47E5" stroke-width="1.66667"/>
<path d="M14.5833 4.16669H2.91667C2.22631 4.16669 1.66667 4.72633 1.66667 5.41669V17.0834C1.66667 17.7737 2.22631 18.3334 2.91667 18.3334H14.5833C15.2737 18.3334 15.8333 17.7737 15.8333 17.0834V5.41669C15.8333 4.72633 15.2737 4.16669 14.5833 4.16669Z" stroke="#3B47E5" stroke-width="1.66667" stroke-linejoin="round"/>
<path d="M7.68308 9.62919L9.88829 7.33357C10.4931 6.72869 11.4871 6.74203 12.1084 7.36332C12.7297 7.98461 12.743 8.97861 12.1382 9.58344L11.3423 10.4263" stroke="#3B47E5" stroke-width="1.66667" stroke-linecap="round" stroke-linejoin="round"/>
<path d="M5.61087 11.978C5.39825 12.1907 4.95858 12.6152 4.95858 12.6152C4.35371 13.2201 4.33729 14.2982 4.95858 14.9194C5.57987 15.5407 6.57383 15.554 7.17871 14.9492L9.33046 12.9957" stroke="#3B47E5" stroke-width="1.66667" stroke-linecap="round" stroke-linejoin="round"/>
<path d="M7.77608 11.8035C7.4875 11.5149 7.33008 11.1459 7.30488 10.7728C7.27579 10.3427 7.42242 9.90725 7.74633 9.58337" stroke="#3B47E5" stroke-width="1.66667" stroke-linecap="round" stroke-linejoin="round"/>
<path d="M9.30054 10.7755C9.92183 11.3968 9.93517 12.3908 9.33029 12.9956" stroke="#3B47E5" stroke-width="1.66667" stroke-linecap="round" stroke-linejoin="round"/>
</svg>
