<svg width="20" height="20" viewBox="0 0 20 20" fill="none" xmlns="http://www.w3.org/2000/svg">
<path d="M14.1667 5V8.33333V8.75C12.9354 8.75 11.8289 9.28408 11.0661 10.1333C10.4033 10.8711 10 11.8468 10 12.9167C10 13.1579 10.0205 13.3943 10.0599 13.6243C10.2741 14.8769 11.0476 15.9387 12.1142 16.5436C11.0049 16.879 9.53235 17.0833 7.91669 17.0833C4.4649 17.0833 1.66669 16.1506 1.66669 15V11.6667V8.33333V5" stroke="#23C2A0" stroke-width="1.66667" stroke-linecap="round" stroke-linejoin="round"/>
<path d="M18.3333 12.9167C18.3333 15.2178 16.4678 17.0833 14.1667 17.0833C13.4205 17.0833 12.72 16.8872 12.1142 16.5436C11.0476 15.9387 10.2741 14.8769 10.0598 13.6243C10.0205 13.3943 10 13.1579 10 12.9167C10 11.8468 10.4033 10.8711 11.066 10.1332C11.8288 9.28408 12.9354 8.75 14.1667 8.75C16.4678 8.75 18.3333 10.6155 18.3333 12.9167Z" stroke="white" stroke-width="1.66667" stroke-linecap="round" stroke-linejoin="round"/>
<path d="M14.1667 5.00002C14.1667 6.1506 11.3685 7.08335 7.91669 7.08335C4.4649 7.08335 1.66669 6.1506 1.66669 5.00002C1.66669 3.84943 4.4649 2.91669 7.91669 2.91669C11.3685 2.91669 14.1667 3.84943 14.1667 5.00002Z" stroke="#23C2A0" stroke-width="1.66667" stroke-linecap="round" stroke-linejoin="round"/>
<path d="M1.66669 11.6667C1.66669 12.8173 4.4649 13.75 7.91669 13.75C8.6696 13.75 9.3914 13.7056 10.0599 13.6243" stroke="#23C2A0" stroke-width="1.66667" stroke-linecap="round" stroke-linejoin="round"/>
<path d="M1.66669 8.33331C1.66669 9.4839 4.4649 10.4166 7.91669 10.4166C9.06515 10.4166 10.1413 10.3134 11.0661 10.1332" stroke="#23C2A0" stroke-width="1.66667" stroke-linecap="round" stroke-linejoin="round"/>
<path d="M18.3334 12.9167C18.3334 15.2179 16.4679 17.0834 14.1667 17.0834" stroke="white" stroke-width="1.66667" stroke-linecap="round" stroke-linejoin="round"/>
<path d="M15.345 14.095L17.0832 15.8332" stroke="#3B47E5" stroke-width="0.9375" stroke-linecap="round" stroke-linejoin="round"/>
<path d="M15.8333 12.9167C15.8333 13.3769 15.6468 13.7936 15.3452 14.0952C15.0436 14.3968 14.6269 14.5833 14.1667 14.5833C13.2462 14.5833 12.5 13.8371 12.5 12.9167C12.5 11.9962 13.2462 11.25 14.1667 11.25C15.0871 11.25 15.8333 11.9962 15.8333 12.9167Z" stroke="#3B47E5" stroke-width="0.9375" stroke-linecap="round" stroke-linejoin="round"/>
</svg>
