<svg width="20" height="20" viewBox="0 0 20 20" fill="none" xmlns="http://www.w3.org/2000/svg">
<g id="Frame">
<path id="Vector" d="M11.4356 15.4991C10.1858 15.999 8.85273 16.0823 7.51961 15.999C6.93637 15.9157 6.35313 15.8323 5.76989 15.6657C5.68657 15.6657 5.60325 15.6657 5.51993 15.749C4.77006 16.0823 4.02018 16.4989 3.35362 16.8322C3.10366 16.9988 2.8537 16.9988 2.60374 16.8322C2.35378 16.6655 2.35378 16.4156 2.35378 16.0823C2.52042 15.4991 2.52042 14.9158 2.60374 14.3326C2.60374 14.2493 2.52042 14.1659 2.52042 14.0826C1.68723 13.2494 1.02067 12.4162 0.520749 11.3331C-0.312449 9.33339 -0.14581 7.33371 1.02067 5.50068C2.18714 3.501 4.02018 2.41785 6.18649 1.91793C8.35281 1.41801 10.4358 1.66797 12.4355 2.66781C14.2685 3.58432 15.6016 5.00076 16.1849 7.00043C16.4348 7.75031 16.5181 8.50019 16.4348 9.25007C16.0182 8.83347 15.5183 8.75015 15.0184 9.00011C15.0184 8.50019 15.0184 8.00027 14.8517 7.50035C14.5185 6.33388 13.8519 5.41736 13.0187 4.66748C11.6023 3.501 9.85256 3.00109 8.01953 3.00109C6.10317 3.16772 4.43678 3.83428 3.10366 5.1674C2.0205 6.25056 1.43727 7.58367 1.52059 9.16675C1.60391 10.4999 2.18714 11.583 3.02034 12.4995L3.6869 13.1661C4.02018 13.4161 4.1035 13.666 3.93686 13.9993C3.85354 14.3326 3.77022 14.7492 3.6869 15.0825C3.6869 15.1658 3.60358 15.2491 3.6869 15.2491C3.77022 15.3324 3.85354 15.2491 3.85354 15.2491C4.27014 14.9991 4.77006 14.7492 5.18666 14.4159C5.43661 14.2493 5.68657 14.2493 6.01985 14.3326C7.43629 14.7492 8.93604 14.7492 10.3525 14.3326C10.4358 14.3326 10.5191 14.2493 10.5191 14.4159C10.6858 14.9158 10.9357 15.2491 11.4356 15.4991Z" fill="#0082EF"/>
<path id="Vector_2" d="M19.7676 13.8327C19.7676 14.416 19.351 14.8326 18.8511 14.9159C18.0179 15.0825 17.3513 15.4158 16.7681 15.9991C16.6015 16.1657 16.5181 16.1657 16.3515 16.0824C16.2682 15.9991 16.2682 15.8324 16.3515 15.6658C16.9347 15.0825 17.268 14.3327 17.4346 13.5828C17.518 12.9995 18.1012 12.6663 18.6844 12.6663C19.351 12.7496 19.7676 13.2495 19.7676 13.8327Z" fill="#0081EE"/>
<path id="Vector_3" d="M15.5183 18.3319C14.9351 18.3319 14.4352 17.9153 14.3519 17.4154C14.2685 16.5822 13.8519 15.9156 13.2687 15.4157C13.1854 15.3324 13.1021 15.2491 13.1854 15.0824C13.2687 14.8325 13.4354 14.8325 13.602 14.9158C13.7686 14.9991 13.8519 15.1658 13.9353 15.2491C14.4352 15.6657 15.0184 15.9156 15.6017 15.999C16.1849 16.0823 16.6015 16.6655 16.5182 17.2488C16.6015 17.832 16.1016 18.3319 15.5183 18.3319Z" fill="#FA6202"/>
<path id="Vector_4" d="M11.1024 13.9994C11.1024 13.4161 11.4356 12.9995 12.0189 12.8329C12.8521 12.6663 13.5186 12.333 14.1019 11.7497C14.2685 11.5831 14.4351 11.5831 14.5185 11.7497C14.6018 11.8331 14.6018 11.9997 14.4351 12.1663C13.9352 12.6663 13.6019 13.2495 13.4353 13.9994C13.4353 14.0827 13.4353 14.2493 13.352 14.3326C13.1854 14.9159 12.6854 15.2492 12.1022 15.1658C11.519 15.0825 11.1024 14.5826 11.1024 13.9994Z" fill="#FECD00"/>
<path id="Vector_5" d="M16.8514 11.0831C17.1014 11.583 17.3513 11.9996 17.6846 12.3329C17.8512 12.4996 17.8512 12.6662 17.7679 12.7495C17.6846 12.9162 17.518 12.9162 17.3513 12.7495C16.9347 12.2496 16.3515 11.9163 15.7683 11.7497C15.6016 11.6664 15.435 11.6664 15.2683 11.6664C14.9351 11.583 14.6018 11.4164 14.5185 10.9998C14.3518 10.5832 14.3518 10.1666 14.6851 9.83333C15.0184 9.41673 15.435 9.33341 15.8516 9.41673C16.2682 9.58337 16.6014 9.83333 16.6848 10.3332C16.6848 10.5832 16.7681 10.8332 16.8514 11.0831Z" fill="#2CBD00"/>
</g>
</svg>
