<svg width="22" height="23" viewBox="0 0 22 23" fill="none" xmlns="http://www.w3.org/2000/svg">
<rect x="1" y="1.5" width="20" height="20" rx="10" fill="url(#paint0_linear_19108_36589)"/>
<rect x="1" y="1.5" width="20" height="20" rx="10" stroke="white" stroke-opacity="0.2" stroke-width="1.25"/>
<path fill-rule="evenodd" clip-rule="evenodd" d="M6.53938 10.5152C6.52075 10.5366 6.5 10.5779 6.5 10.6364V16.3636C6.5 16.4221 6.52075 16.4634 6.53938 16.4848C6.54821 16.4949 6.55436 16.4987 6.55727 16.5H15.4427C15.4456 16.4987 15.4518 16.4949 15.4606 16.4848C15.4793 16.4634 15.5 16.4221 15.5 16.3636V10.6364C15.5 10.5779 15.4793 10.5366 15.4606 10.5152C15.4518 10.5051 15.4456 10.5013 15.4427 10.5H6.55727C6.55436 10.5013 6.54821 10.5051 6.53938 10.5152ZM6.55917 10.4995C6.55918 10.4995 6.55864 10.4998 6.55751 10.4999L6.55917 10.4995ZM15.4408 10.4995C15.4408 10.4994 15.4414 10.4994 15.4425 10.4999L15.4408 10.4995ZM15.4408 16.5005C15.4408 16.5005 15.4414 16.5002 15.4425 16.5001L15.4408 16.5005ZM6.55917 16.5005C6.55916 16.5006 6.5586 16.5006 6.55751 16.5001L6.55917 16.5005ZM5.5 10.6364C5.5 10.0747 5.91097 9.5 6.55556 9.5H15.4444C16.089 9.5 16.5 10.0747 16.5 10.6364V16.3636C16.5 16.9253 16.089 17.5 15.4444 17.5H6.55556C5.91097 17.5 5.5 16.9253 5.5 16.3636V10.6364Z" fill="#7B5304"/>
<path fill-rule="evenodd" clip-rule="evenodd" d="M11 6.5C9.62403 6.5 8.5 7.62811 8.5 9.0303V10C8.5 10.2761 8.27614 10.5 8 10.5C7.72386 10.5 7.5 10.2761 7.5 10V9.0303C7.5 7.08532 9.06229 5.5 11 5.5C12.9377 5.5 14.5 7.08532 14.5 9.0303V10C14.5 10.2761 14.2761 10.5 14 10.5C13.7239 10.5 13.5 10.2761 13.5 10V9.0303C13.5 7.62811 12.376 6.5 11 6.5Z" fill="#7B5304"/>
<path fill-rule="evenodd" clip-rule="evenodd" d="M11 12C11.2761 12 11.5 12.2239 11.5 12.5V14.5C11.5 14.7761 11.2761 15 11 15C10.7239 15 10.5 14.7761 10.5 14.5V12.5C10.5 12.2239 10.7239 12 11 12Z" fill="#7B5304"/>
<defs>
<linearGradient id="paint0_linear_19108_36589" x1="20.3333" y1="10.7857" x2="1.33333" y2="10.7857" gradientUnits="userSpaceOnUse">
<stop stop-color="#F1BD80"/>
<stop offset="0.822917" stop-color="#FCDEB2"/>
</linearGradient>
</defs>
</svg>
