<svg width="20" height="20" viewBox="0 0 20 20" fill="none" xmlns="http://www.w3.org/2000/svg">
<g clip-path="url(#clip0_2430_6544)">
<path fill-rule="evenodd" clip-rule="evenodd" d="M10.8333 2.49998C10.8333 1.57951 11.5795 0.833313 12.5 0.833313H17.5C18.4205 0.833313 19.1667 1.57951 19.1667 2.49998V7.49998C19.1667 8.42047 18.4205 9.16665 17.5 9.16665H12.5C11.5795 9.16665 10.8333 8.42047 10.8333 7.49998V2.49998ZM17.5 2.49998H12.5V7.49998H17.5V2.49998ZM2.50001 0.833317C1.57954 0.833317 0.833347 1.57951 0.833347 2.49998V7.49998C0.833347 8.42048 1.57955 9.16665 2.50001 9.16665H7.50001C8.4205 9.16665 9.16668 8.42047 9.16668 7.49998V2.49998C9.16668 1.57952 8.42051 0.833317 7.50001 0.833317H2.50001ZM2.50001 2.49998H7.50001V7.49998H2.50001V2.49998ZM2.50001 10.8333C1.57954 10.8333 0.833344 11.5795 0.833344 12.5V17.5C0.833344 18.4205 1.57954 19.1666 2.50001 19.1666H7.50001C8.4205 19.1666 9.16668 18.4205 9.16668 17.5V12.5C9.16668 11.5795 8.4205 10.8333 7.50001 10.8333H2.50001ZM2.50001 12.5H7.50001V17.5H2.50001V12.5ZM11.6667 10.8333C11.2064 10.8333 10.8333 11.2064 10.8333 11.6666C10.8333 12.1269 11.2064 12.5 11.6667 12.5H18.3333C18.7936 12.5 19.1667 12.1269 19.1667 11.6666C19.1667 11.2064 18.7936 10.8333 18.3333 10.8333H11.6667ZM14.1667 15C14.1667 14.5397 14.5398 14.1666 15 14.1666H18.3333C18.7936 14.1666 19.1667 14.5397 19.1667 15C19.1667 15.4602 18.7936 15.8333 18.3333 15.8333H15C14.5398 15.8333 14.1667 15.4602 14.1667 15ZM11.6667 17.5C11.2064 17.5 10.8333 17.8731 10.8333 18.3333C10.8333 18.7935 11.2064 19.1666 11.6667 19.1666H18.3333C18.7936 19.1666 19.1667 18.7935 19.1667 18.3333C19.1667 17.8731 18.7936 17.5 18.3333 17.5H11.6667Z" fill="#BD2828"/>
</g>
<defs>
<clipPath id="clip0_2430_6544">
<rect width="20" height="20" fill="white"/>
</clipPath>
</defs>
</svg>
