<?xml version="1.0" standalone="no"?><!DOCTYPE svg PUBLIC "-//W3C//DTD SVG 1.1//EN" "http://www.w3.org/Graphics/SVG/1.1/DTD/svg11.dtd"><svg t="1628753961321" class="icon" viewBox="0 0 1260 1024" version="1.1" xmlns="http://www.w3.org/2000/svg" p-id="3525" xmlns:xlink="http://www.w3.org/1999/xlink" width="246.09375" height="200"><defs><style type="text/css"></style></defs><path d="M217.212121 932.361846a438.153846 88.615385 0 1 0 876.307693 0 438.153846 88.615385 0 1 0-876.307693 0Z" fill="#F6F6F8" p-id="3526"></path><path d="M440.887198 530.638769h429.942154l139.982769 168.369231H300.904429z" fill="#AEB8C3" p-id="3527"></path><path d="M409.704429 248.054154m19.692308 0l452.923077 0q19.692308 0 19.692307 19.692308l0 492.307692q0 19.692308-19.692307 19.692308l-452.923077 0q-19.692308 0-19.692308-19.692308l0-492.307692q0-19.692308 19.692308-19.692308Z" fill="#F5F5F7" p-id="3528"></path><path d="M478.135198 307.131077m19.692308 0l315.076923 0q19.692308 0 19.692308 19.692308l0 157.538461q0 19.692308-19.692308 19.692308l-315.076923 0q-19.692308 0-19.692308-19.692308l0-157.538461q0-19.692308 19.692308-19.692308Z" fill="#DEDEE7" p-id="3529"></path><path d="M478.135198 562.520615m14.769231 0l324.923077 0q14.769231 0 14.769231 14.769231l0 0q0 14.769231-14.769231 14.769231l-324.923077 0q-14.769231 0-14.769231-14.769231l0 0q0-14.769231 14.769231-14.769231Z" fill="#DEDEE7" p-id="3530"></path><path d="M478.135198 644.007385m14.769231 0l324.923077 0q14.769231 0 14.769231 14.76923l0 0q0 14.769231-14.769231 14.769231l-324.923077 0q-14.769231 0-14.769231-14.769231l0 0q0-14.769231 14.769231-14.76923Z" fill="#DEDEE7" p-id="3531"></path><path d="M251.67366 1004.406154h808.36923V649.944615H251.67366z" fill="#DCE0E8" p-id="3532"></path><path d="M916.289044 334.769231h393.846154V0H916.289044z" fill="#DCE0E8" p-id="3533"></path><path d="M758.750583 128h39.384615v39.384615h-39.384615z" fill="#FFFFFF" p-id="3534"></path><path d="M1095.459506 139.214769h39.384615v39.384616h-39.384615z" fill="#FFFFFF" p-id="3535"></path><path d="M1170.526583 158.907077m-19.692308 0a19.692308 19.692308 0 1 0 39.384615 0 19.692308 19.692308 0 1 0-39.384615 0Z" fill="#FFFFFF" p-id="3536"></path><path d="M1055.907506 139.224615l19.692308 39.384616h-39.384616z" fill="#FFFFFF" p-id="3537"></path></svg>
