<svg width="214" height="126" viewBox="0 0 214 126" fill="none" xmlns="http://www.w3.org/2000/svg">
<g filter="url(#filter0_d_816_1873)">
<path fill-rule="evenodd" clip-rule="evenodd" d="M4 8C4 4.68629 6.68629 2 10 2H203.714C207.028 2 209.714 4.68629 209.714 8V114C209.714 117.314 207.028 120 203.714 120H9.99999C6.68629 120 4 117.314 4 114V8Z" fill="#5575F3"/>
</g>
<path d="M17 62C17 56.4772 21.4772 52 27 52H187C192.523 52 197 56.4772 197 62V120H17V62Z" fill="#2C2C2C"/>
<circle cx="30.5" cy="59.5" r="1.5" fill="#E96058"/>
<circle cx="35.5" cy="59.5" r="1.5" fill="#F6C644"/>
<circle cx="40.5" cy="59.5" r="1.5" fill="#4FAD7A"/>
<path d="M37 76C37 73.2386 39.2386 71 42 71H90C92.7614 71 95 73.2386 95 76V120H37V76Z" fill="white"/>
<rect x="42" y="77" width="48" height="23" rx="2" fill="url(#paint0_linear_816_1873)"/>
<g clip-path="url(#clip0_816_1873)">
<path d="M61.0656 90.9067V93.5115C61.0881 94.8788 63.4048 95.9849 67 95.9849C70.5953 95.9849 72.9105 94.8788 72.9345 93.5115V90.9067H61.0656Z" fill="#A9BAFF"/>
<path d="M72.9345 90.8964C72.9345 92.3469 70.6088 93.523 67 93.523C63.3913 93.523 61.0656 92.3469 61.0656 90.8964C61.0656 89.4459 63.3913 88.2698 67 88.2698C70.6088 88.2698 72.9345 89.4445 72.9345 90.8964Z" fill="white"/>
<path d="M61.0656 88.28V90.5929C61.0881 91.9602 63.4048 93.2122 67 93.2122C70.5953 93.2122 72.9105 91.9602 72.9345 90.5929V88.28H61.0656Z" fill="#5F7CF4"/>
<path d="M72.9345 88.2699C72.9345 89.7204 70.6088 90.8965 67 90.8965C63.3913 90.8965 61.0656 89.7204 61.0656 88.2699C61.0656 86.8195 63.3913 85.6433 67 85.6433C70.6088 85.6433 72.9345 86.818 72.9345 88.2699Z" fill="white"/>
<path d="M61.0656 85.6536V87.9664C61.0881 89.3337 63.4048 90.5858 67 90.5858C70.5953 90.5858 72.9105 89.3337 72.9345 87.9664V85.6536H61.0656Z" fill="#5F7CF4"/>
<path d="M72.9345 85.6432C72.9345 87.0937 70.6088 88.2698 67 88.2698C63.3913 88.2698 61.0656 87.0937 61.0656 85.6432C61.0656 84.1927 63.3913 83.0166 67 83.0166C70.6088 83.0166 72.9345 84.1913 72.9345 85.6432Z" fill="#F9FAFD"/>
</g>
<path d="M57.3533 100.354L57.2288 100.197L57.0301 100.169L53.519 99.6808C53.0738 99.6189 52.9301 99.0467 53.2932 98.7817L60.5377 93.4953C60.8867 93.2406 61.3727 93.5187 61.3299 93.9487L60.4428 102.873C60.3984 103.32 59.8322 103.486 59.5532 103.134L57.3533 100.354Z" fill="#E95F58" stroke="white"/>
<rect x="42.5" y="105.5" width="47" height="11" rx="5.5" fill="white" stroke="#E6E6E6" stroke-dasharray="2 2"/>
<rect opacity="0.2" x="101.5" y="72.5" width="23" height="47" stroke="white" stroke-dasharray="2 2"/>
<rect x="131" y="72" width="16" height="5" rx="2" fill="#B8C1E5"/>
<rect x="149" y="72" width="25" height="5" rx="2" fill="#B8C1E5"/>
<rect x="131" y="81" width="53" height="5" rx="2" fill="#B8C1E5"/>
<rect x="131" y="90" width="33" height="5" rx="2" fill="#B8C1E5"/>
<rect x="131" y="101" width="53" height="13" rx="6.5" fill="#E9B03D"/>
<path d="M139.42 105.26V110.63H140.032V105.848H140.68C140.548 106.322 140.362 106.856 140.122 107.45C140.482 107.948 140.662 108.398 140.662 108.8C140.662 108.896 140.644 108.962 140.608 108.998C140.566 109.034 140.488 109.052 140.368 109.064C140.284 109.064 140.17 109.052 140.038 109.028L140.242 109.664C140.656 109.658 140.95 109.58 141.124 109.424C141.238 109.298 141.298 109.088 141.298 108.8C141.268 108.392 141.088 107.912 140.752 107.354C140.968 106.79 141.16 106.256 141.316 105.752V105.26H139.42ZM141.472 105.362V105.968H143.746V109.754C143.746 109.922 143.674 110.006 143.542 110.006C143.278 110.006 143.008 109.994 142.72 109.97L142.858 110.576H143.764C144.16 110.576 144.358 110.354 144.358 109.916V105.968H144.718V105.362H141.472ZM141.61 106.688V109.058H143.278V106.688H141.61ZM142.702 108.518H142.18V107.222H142.702V108.518ZM146.434 107.012H147.682V107.606H146.434V107.012ZM147.682 108.182V108.716H145.588V109.31H147.682V109.856H145.33V110.462H150.664V109.856H148.318V109.31H150.412V108.716H148.318V108.182H150.172V105.248H145.816V108.182H147.682ZM148.318 107.606V107.012H149.554V107.606H148.318ZM149.554 106.436H148.318V105.824H149.554V106.436ZM147.682 105.824V106.436H146.434V105.824H147.682ZM151.87 105.362V105.968H156.19V105.362H151.87ZM151.288 107.012V107.636H153.196C152.62 108.794 152.152 109.502 151.792 109.766C151.756 109.79 151.708 109.808 151.642 109.832L151.804 110.468C153.214 110.366 154.516 110.234 155.71 110.066C155.818 110.27 155.914 110.468 156.004 110.672L156.568 110.276C156.268 109.682 155.848 108.98 155.308 108.176L154.804 108.488C155.02 108.83 155.218 109.166 155.404 109.496C154.468 109.628 153.52 109.73 152.572 109.796C152.956 109.352 153.394 108.632 153.892 107.636H156.73V107.012H151.288ZM159.124 106.802V107.426H160.672V110.642H161.32V107.426H162.79V106.802H161.32V105.062H160.672V106.802H159.124ZM158.068 105.11L157.624 105.542C158.05 105.854 158.38 106.148 158.608 106.424L159.04 105.986C158.77 105.698 158.446 105.404 158.068 105.11ZM157.234 106.844V107.444H158.056V109.574C158.056 109.7 158.002 109.808 157.894 109.898L158.134 110.462C158.578 110.174 158.992 109.85 159.382 109.49L159.22 108.848C159.022 109.034 158.836 109.202 158.662 109.352V106.844H157.234ZM163.99 106.406V108.878H164.728V109.046C164.728 109.082 164.722 109.118 164.716 109.16H163.318V109.7H164.512C164.506 109.712 164.5 109.718 164.494 109.73C164.35 109.892 164.068 110.03 163.654 110.144L163.972 110.642C164.44 110.51 164.782 110.324 164.992 110.084C165.082 109.976 165.16 109.844 165.22 109.7H166.774V110.636H167.392V109.7H168.682V109.16H167.392V108.878H168.082V106.406H166.444C166.564 106.262 166.672 106.1 166.774 105.932H167.14C167.248 106.082 167.344 106.238 167.428 106.4L167.932 106.208C167.884 106.124 167.824 106.028 167.758 105.932H168.604V105.404H167.026C167.056 105.326 167.086 105.248 167.116 105.164L166.516 105.032C166.396 105.416 166.186 105.782 165.892 106.124L166.33 106.406H163.99ZM165.352 108.878H166.774V109.16H165.346C165.346 109.124 165.352 109.082 165.352 109.046V108.878ZM167.47 108.41H164.602V108.17H167.47V108.41ZM164.602 107.744V107.528H167.47V107.744H164.602ZM164.602 107.102V106.88H167.47V107.102H164.602ZM164.296 105.962H164.686C164.788 106.1 164.878 106.244 164.956 106.394L165.466 106.202C165.418 106.124 165.364 106.046 165.304 105.962H165.922V105.434H164.566C164.602 105.344 164.644 105.248 164.68 105.152L164.086 105.02C163.936 105.458 163.684 105.866 163.324 106.25L163.84 106.58C164.008 106.388 164.158 106.184 164.296 105.962ZM170.38 105.02C170.17 105.29 169.888 105.548 169.534 105.794C169.816 105.974 170.08 106.184 170.32 106.412H169.9V108.458H171.694V108.74H169.438V109.304H171.118C170.698 109.58 170.11 109.808 169.354 110L169.684 110.546C170.584 110.222 171.25 109.814 171.694 109.322V110.612H172.306V109.304H172.312C172.72 109.76 173.368 110.174 174.262 110.552L174.67 110.036C173.89 109.82 173.302 109.574 172.894 109.304H174.562V108.74H172.306V108.458H174.088V106.412H173.98L174.334 106.208C174.13 106.022 173.938 105.878 173.752 105.77C173.95 105.638 174.142 105.47 174.322 105.266L173.752 105.02C173.536 105.29 173.254 105.548 172.9 105.794C173.182 105.974 173.446 106.184 173.692 106.412H172.354L172.75 106.184C172.516 106.004 172.288 105.866 172.072 105.77C172.282 105.638 172.486 105.47 172.69 105.266L172.126 105.02C171.898 105.29 171.592 105.548 171.22 105.794C171.55 105.974 171.85 106.178 172.12 106.412H170.608L170.962 106.208C170.758 106.022 170.566 105.878 170.38 105.77C170.572 105.638 170.764 105.47 170.95 105.266L170.38 105.02ZM173.476 107.936H172.306V107.69H173.476V107.936ZM171.694 107.936H170.512V107.69H171.694V107.936ZM170.512 107.198V106.94H171.694V107.198H170.512ZM172.306 106.94H173.476V107.198H172.306V106.94Z" fill="#2C2C2C"/>
<defs>
<filter id="filter0_d_816_1873" x="0" y="0" width="213.714" height="126" filterUnits="userSpaceOnUse" color-interpolation-filters="sRGB">
<feFlood flood-opacity="0" result="BackgroundImageFix"/>
<feColorMatrix in="SourceAlpha" type="matrix" values="0 0 0 0 0 0 0 0 0 0 0 0 0 0 0 0 0 0 127 0" result="hardAlpha"/>
<feOffset dy="2"/>
<feGaussianBlur stdDeviation="2"/>
<feColorMatrix type="matrix" values="0 0 0 0 0 0 0 0 0 0 0 0 0 0 0 0 0 0 0.0235194 0"/>
<feBlend mode="normal" in2="BackgroundImageFix" result="effect1_dropShadow_816_1873"/>
<feBlend mode="normal" in="SourceGraphic" in2="effect1_dropShadow_816_1873" result="shape"/>
</filter>
<linearGradient id="paint0_linear_816_1873" x1="66" y1="77" x2="66" y2="100" gradientUnits="userSpaceOnUse">
<stop stop-color="#7893FF"/>
<stop offset="1" stop-color="#5F7CF5"/>
</linearGradient>
<clipPath id="clip0_816_1873">
<rect width="12" height="13" fill="white" transform="translate(61 83)"/>
</clipPath>
</defs>
</svg>
