<svg width="214" height="126" viewBox="0 0 214 126" fill="none" xmlns="http://www.w3.org/2000/svg">
<g filter="url(#filter0_d_1090_2351)">
<path fill-rule="evenodd" clip-rule="evenodd" d="M4 8C4 4.68629 6.68629 2 10 2H203.714C207.028 2 209.714 4.68629 209.714 8V114C209.714 117.314 207.028 120 203.714 120H9.99999C6.68629 120 4 117.314 4 114V8Z" fill="url(#paint0_linear_1090_2351)"/>
</g>
<rect opacity="0.15" x="13" y="3" width="1" height="117" fill="white" fill-opacity="0.2"/>
<rect opacity="0.15" x="4" y="14" width="0.999991" height="203" transform="rotate(-90 4 14)" fill="white" fill-opacity="0.2"/>
<rect opacity="0.15" x="4" y="25" width="0.999991" height="203" transform="rotate(-90 4 25)" fill="white" fill-opacity="0.2"/>
<rect opacity="0.15" x="4" y="36" width="0.999991" height="203" transform="rotate(-90 4 36)" fill="white" fill-opacity="0.2"/>
<rect opacity="0.15" x="4" y="47" width="0.999991" height="203" transform="rotate(-90 4 47)" fill="white" fill-opacity="0.2"/>
<rect opacity="0.15" x="4" y="58" width="0.999991" height="203" transform="rotate(-90 4 58)" fill="white" fill-opacity="0.2"/>
<rect opacity="0.15" x="4" y="69" width="0.999991" height="203" transform="rotate(-90 4 69)" fill="white" fill-opacity="0.2"/>
<rect opacity="0.15" x="4" y="80" width="0.999991" height="203" transform="rotate(-90 4 80)" fill="white" fill-opacity="0.2"/>
<rect opacity="0.15" x="4" y="91" width="0.999991" height="203" transform="rotate(-90 4 91)" fill="white" fill-opacity="0.2"/>
<rect opacity="0.15" x="4" y="102" width="0.999991" height="203" transform="rotate(-90 4 102)" fill="white" fill-opacity="0.2"/>
<rect opacity="0.15" x="4" y="113" width="0.999991" height="203" transform="rotate(-90 4 113)" fill="white" fill-opacity="0.2"/>
<rect opacity="0.15" x="24" y="3" width="1" height="117" fill="white" fill-opacity="0.2"/>
<rect opacity="0.15" x="35" y="3" width="1" height="117" fill="white" fill-opacity="0.2"/>
<rect opacity="0.15" x="46" y="3" width="1" height="117" fill="white" fill-opacity="0.2"/>
<rect opacity="0.15" x="57" y="3" width="1" height="117" fill="white" fill-opacity="0.2"/>
<rect opacity="0.15" x="68" y="3" width="1" height="117" fill="white" fill-opacity="0.2"/>
<rect opacity="0.15" x="79" y="3" width="1" height="117" fill="white" fill-opacity="0.2"/>
<rect opacity="0.15" x="90" y="3" width="1" height="117" fill="white" fill-opacity="0.2"/>
<rect opacity="0.15" x="101" y="3" width="1" height="117" fill="white" fill-opacity="0.2"/>
<rect opacity="0.15" x="112" y="3" width="1" height="117" fill="white" fill-opacity="0.2"/>
<rect opacity="0.15" x="123" y="3" width="1" height="117" fill="white" fill-opacity="0.2"/>
<rect opacity="0.15" x="134" y="3" width="1" height="117" fill="white" fill-opacity="0.2"/>
<rect opacity="0.15" x="145" y="3" width="1" height="117" fill="white" fill-opacity="0.2"/>
<rect opacity="0.15" x="156" y="3" width="1" height="117" fill="white" fill-opacity="0.2"/>
<rect opacity="0.15" x="167" y="3" width="1" height="117" fill="white" fill-opacity="0.2"/>
<rect opacity="0.15" x="178" y="3" width="1" height="117" fill="white" fill-opacity="0.2"/>
<rect opacity="0.15" x="189" y="3" width="1" height="117" fill="white" fill-opacity="0.2"/>
<rect opacity="0.15" x="200" y="3" width="1" height="117" fill="white" fill-opacity="0.2"/>
<path d="M20 64C20 58.4772 24.4772 54 30 54H184C189.523 54 194 58.4772 194 64V120H20V64Z" fill="white" fill-opacity="0.8"/>
<path d="M64 66C64 63.2386 66.2386 61 69 61H184C186.761 61 189 63.2386 189 66V121H64V66Z" fill="white" fill-opacity="0.7"/>
<path d="M20 64C20 58.4772 24.4772 54 30 54H60V120H20V64Z" fill="white" fill-opacity="0.8"/>
<circle cx="28.5" cy="60.5" r="1.5" fill="#E96058"/>
<circle cx="33.5" cy="60.5" r="1.5" fill="#F6C644"/>
<circle cx="38.5" cy="60.5" r="1.5" fill="#4FAD7A"/>
<line opacity="0.2" x1="98.0028" y1="92.5" x2="148.002" y2="92.7793" stroke="#1D2129"/>
<circle cx="164.5" cy="93.5" r="18.5" fill="white"/>
<path d="M157 95.0317H159.159V97.1905H157V95.0317Z" fill="#FF0000"/>
<path fill-rule="evenodd" clip-rule="evenodd" d="M157 82.3491H158.889V95.3352H157V82.3491ZM160.778 82.3491H162.667V97.1904H160.778V82.3491ZM166.444 82.3491H164.556V97.1904H166.444V82.3491ZM168.333 82.3491H170.222V97.1904H168.333V82.3491ZM174 88.3785H172.111V91.1612H174V88.3785Z" fill="#FFCC00"/>
<path d="M152.936 100.36C152.366 100.36 151.931 100.545 151.631 100.925C151.366 101.255 151.236 101.69 151.236 102.22C151.236 102.76 151.361 103.19 151.616 103.51C151.906 103.88 152.351 104.07 152.946 104.07C153.331 104.07 153.661 103.96 153.936 103.74C154.231 103.505 154.416 103.18 154.496 102.76H153.926C153.856 103.03 153.736 103.235 153.566 103.37C153.406 103.49 153.196 103.555 152.941 103.555C152.551 103.555 152.261 103.43 152.076 103.19C151.906 102.965 151.821 102.64 151.821 102.22C151.821 101.81 151.906 101.49 152.081 101.26C152.271 101 152.551 100.875 152.926 100.875C153.176 100.875 153.381 100.925 153.541 101.035C153.706 101.145 153.816 101.315 153.876 101.55H154.446C154.391 101.19 154.236 100.9 153.976 100.69C153.706 100.47 153.356 100.36 152.936 100.36ZM155.048 100.36V104H155.618V100.36H155.048ZM156.652 100.36C156.542 100.36 156.452 100.395 156.377 100.465C156.302 100.535 156.267 100.625 156.267 100.735C156.267 100.845 156.302 100.935 156.377 101.01C156.452 101.08 156.542 101.115 156.652 101.115C156.762 101.115 156.852 101.08 156.927 101.01C157.002 100.94 157.042 100.845 157.042 100.735C157.042 100.625 157.002 100.535 156.932 100.465C156.857 100.395 156.762 100.36 156.652 100.36ZM156.367 101.415V104H156.937V101.415H156.367ZM158.804 101.345C158.399 101.345 158.084 101.48 157.859 101.75C157.649 101.995 157.544 102.315 157.544 102.705C157.544 103.105 157.649 103.43 157.864 103.68C158.084 103.94 158.394 104.07 158.794 104.07C159.129 104.07 159.399 103.985 159.599 103.82C159.804 103.65 159.939 103.39 159.999 103.04H159.434C159.389 103.415 159.179 103.605 158.799 103.605C158.579 103.605 158.414 103.525 158.304 103.37C158.184 103.21 158.129 102.985 158.129 102.7C158.129 102.42 158.189 102.2 158.309 102.045C158.429 101.885 158.594 101.81 158.804 101.81C158.974 101.81 159.114 101.85 159.219 101.93C159.319 102.01 159.389 102.13 159.424 102.295H159.989C159.939 101.97 159.809 101.73 159.604 101.57C159.404 101.42 159.139 101.345 158.804 101.345ZM160.447 100.36V104H161.017V103.095L161.277 102.85L162.182 104H162.912L161.667 102.485L162.812 101.415H162.077L161.017 102.44V100.36H160.447ZM163.261 100.43V104H163.846V102.42H165.656V104H166.241V100.43H165.656V101.92H163.846V100.43H163.261ZM168.092 101.345C167.697 101.345 167.382 101.47 167.147 101.73C166.907 101.985 166.792 102.31 166.792 102.71C166.792 103.105 166.907 103.43 167.142 103.68C167.382 103.94 167.697 104.07 168.092 104.07C168.482 104.07 168.802 103.94 169.042 103.68C169.272 103.43 169.392 103.105 169.392 102.71C169.392 102.31 169.272 101.985 169.037 101.73C168.797 101.47 168.482 101.345 168.092 101.345ZM168.092 101.81C168.327 101.81 168.512 101.9 168.642 102.09C168.752 102.25 168.812 102.46 168.812 102.71C168.812 102.955 168.752 103.16 168.642 103.325C168.512 103.51 168.327 103.605 168.092 103.605C167.852 103.605 167.672 103.51 167.542 103.325C167.432 103.165 167.377 102.96 167.377 102.71C167.377 102.46 167.432 102.25 167.542 102.09C167.672 101.9 167.852 101.81 168.092 101.81ZM169.89 101.415V103.025C169.89 103.72 170.2 104.07 170.82 104.07C171.14 104.07 171.41 103.935 171.63 103.665V104H172.2V101.415H171.63V102.995C171.58 103.18 171.495 103.325 171.38 103.435C171.265 103.54 171.145 103.595 171.02 103.595C170.82 103.595 170.68 103.545 170.59 103.45C170.5 103.35 170.46 103.2 170.46 102.99V101.415H169.89ZM173.775 101.345C173.455 101.345 173.2 101.41 173.005 101.55C172.805 101.68 172.71 101.865 172.71 102.105C172.71 102.33 172.81 102.505 173.01 102.63C173.135 102.71 173.35 102.785 173.655 102.855C173.915 102.915 174.085 102.96 174.165 103C174.315 103.07 174.39 103.165 174.39 103.285C174.39 103.495 174.19 103.605 173.79 103.605C173.6 103.605 173.465 103.57 173.38 103.51C173.295 103.44 173.235 103.325 173.205 103.16H172.65C172.705 103.765 173.09 104.07 173.81 104.07C174.585 104.07 174.975 103.795 174.975 103.245C174.975 103.015 174.87 102.83 174.665 102.7C174.525 102.605 174.305 102.525 174.015 102.455C173.755 102.39 173.585 102.34 173.5 102.305C173.36 102.245 173.295 102.17 173.295 102.09C173.295 101.99 173.335 101.92 173.425 101.875C173.5 101.83 173.615 101.81 173.765 101.81C173.94 101.81 174.07 101.835 174.155 101.89C174.235 101.94 174.295 102.035 174.335 102.165H174.89C174.83 101.615 174.455 101.345 173.775 101.345ZM176.527 101.345C176.142 101.345 175.837 101.475 175.617 101.74C175.387 102 175.277 102.32 175.277 102.705C175.277 103.135 175.397 103.47 175.637 103.715C175.862 103.95 176.167 104.07 176.552 104.07C176.897 104.07 177.182 103.97 177.412 103.775C177.592 103.615 177.712 103.41 177.772 103.17H177.202C177.132 103.315 177.057 103.42 176.972 103.485C176.862 103.565 176.722 103.605 176.547 103.605C176.342 103.605 176.182 103.54 176.072 103.415C175.962 103.29 175.897 103.105 175.877 102.865H177.812C177.812 102.4 177.707 102.035 177.502 101.775C177.277 101.485 176.952 101.345 176.527 101.345ZM176.542 101.81C176.942 101.81 177.167 102.015 177.217 102.435H175.887C175.922 102.23 175.992 102.075 176.097 101.97C176.207 101.86 176.352 101.81 176.542 101.81Z" fill="black"/>
<circle opacity="0.8" cx="88.5" cy="93.5" r="18.5" fill="white"/>
<path d="M81.2294 100.43V104H81.8144V101.54H81.8344L82.8844 104H83.3894L84.4394 101.54H84.4594V104H85.0444V100.43H84.3594L83.1494 103.23H83.1294L81.9144 100.43H81.2294ZM85.421 101.415L86.446 103.94L85.991 104.99H86.601L88.001 101.415H87.381L86.726 103.255L86.041 101.415H85.421ZM89.6378 100.36C89.2528 100.36 88.9378 100.445 88.6878 100.62C88.4178 100.8 88.2878 101.05 88.2878 101.365C88.2878 101.68 88.4228 101.92 88.6978 102.085C88.8028 102.145 89.0778 102.245 89.5178 102.385C89.9128 102.505 90.1428 102.585 90.2128 102.62C90.4328 102.73 90.5478 102.88 90.5478 103.07C90.5478 103.22 90.4678 103.335 90.3178 103.425C90.1678 103.51 89.9578 103.555 89.6978 103.555C89.4028 103.555 89.1878 103.5 89.0478 103.4C88.8928 103.285 88.7978 103.09 88.7578 102.82H88.1778C88.2028 103.275 88.3678 103.605 88.6678 103.815C88.9128 103.985 89.2578 104.07 89.6978 104.07C90.1528 104.07 90.5078 103.975 90.7578 103.795C91.0078 103.61 91.1328 103.355 91.1328 103.035C91.1328 102.705 90.9778 102.45 90.6678 102.265C90.5278 102.185 90.2178 102.065 89.7328 101.915C89.4028 101.81 89.1978 101.735 89.1228 101.695C88.9528 101.605 88.8728 101.48 88.8728 101.33C88.8728 101.16 88.9428 101.035 89.0928 100.96C89.2128 100.895 89.3828 100.865 89.6078 100.865C89.8678 100.865 90.0678 100.91 90.1978 101.01C90.3278 101.105 90.4228 101.265 90.4728 101.485H91.0528C91.0178 101.095 90.8728 100.805 90.6228 100.62C90.3878 100.445 90.0578 100.36 89.6378 100.36ZM93.2197 100.36C92.6697 100.36 92.2397 100.535 91.9297 100.895C91.6297 101.235 91.4847 101.675 91.4847 102.22C91.4847 102.76 91.6297 103.2 91.9297 103.54C92.2397 103.89 92.6697 104.07 93.2197 104.07C93.5797 104.07 93.8947 103.99 94.1547 103.84C94.2847 104.01 94.4147 104.195 94.5497 104.39L94.9297 104.06C94.7997 103.87 94.6647 103.69 94.5347 103.52C94.8147 103.19 94.9597 102.755 94.9597 102.22C94.9597 101.67 94.8097 101.225 94.5097 100.89C94.1947 100.535 93.7647 100.36 93.2197 100.36ZM93.2197 100.875C93.5897 100.875 93.8747 100.99 94.0747 101.23C94.2697 101.47 94.3697 101.8 94.3697 102.22C94.3697 102.565 94.2997 102.85 94.1697 103.07C93.9997 102.87 93.8247 102.675 93.6497 102.49L93.3097 102.82C93.4747 102.995 93.6447 103.19 93.8247 103.41C93.6547 103.505 93.4547 103.555 93.2197 103.555C92.8497 103.555 92.5597 103.43 92.3597 103.185C92.1647 102.945 92.0697 102.625 92.0697 102.22C92.0697 101.81 92.1647 101.49 92.3597 101.25C92.5647 101 92.8497 100.875 93.2197 100.875ZM95.5116 100.43V104H98.0216V103.5H96.0916V100.43H95.5116Z" fill="#1D2129"/>
<circle cx="27.5" cy="87.5" r="2.5" fill="#FACE57"/>
<g clip-path="url(#clip0_1090_2351)">
<rect x="121.733" y="86.8667" width="10.4" height="10.4" fill="white"/>
<path d="M131.556 86H121.444C120.65 86 120 86.65 120 87.4444V97.5556C120 98.35 120.65 99 121.444 99H131.556C132.35 99 133 98.35 133 97.5556V87.4444C133 86.65 132.35 86 131.556 86ZM122.889 89.9722H128.378L127.439 89.0333C127.15 88.7444 127.15 88.3111 127.439 88.0222C127.728 87.7333 128.161 87.7333 128.45 88.0222L130.617 90.1889C130.833 90.4056 130.906 90.6944 130.761 90.9833C130.617 91.2722 130.4 91.4167 130.111 91.4167H122.889C122.456 91.4167 122.167 91.1278 122.167 90.6944C122.167 90.2611 122.456 89.9722 122.889 89.9722ZM130.111 95.0278H124.622L125.561 95.9667C125.85 96.2556 125.85 96.6889 125.561 96.9778C125.417 97.1222 125.2 97.1944 125.056 97.1944C124.911 97.1944 124.694 97.1222 124.55 96.9778L122.383 94.8111C122.167 94.5944 122.094 94.3056 122.239 94.0167C122.383 93.7278 122.6 93.5833 122.889 93.5833H130.111C130.544 93.5833 130.833 93.8722 130.833 94.3056C130.833 94.7389 130.544 95.0278 130.111 95.0278Z" fill="#FF9900"/>
</g>
<path fill-rule="evenodd" clip-rule="evenodd" d="M82.9724 80.9082C82.3723 80.3757 80.9006 79.9238 80.0523 80.0108C79.6706 80.0511 79.3822 80.1975 79.1977 80.4393C78.7694 81.0079 78.9136 81.8225 80.8836 84.4785C81.2568 85.6093 81.3374 86.2012 81.3374 86.4982C81.3374 87.1261 81.6534 87.8474 82.3256 88.749L81.6937 90.9744C81.1296 92.9643 82.1538 95.5334 83.106 96.4308C83.6149 96.9102 84.0433 96.8402 84.2554 96.7532C84.6795 96.5814 85.0209 96.1529 85.2436 94.933C85.2632 94.9835 85.2832 95.0347 85.3034 95.0864C85.3984 95.33 85.4987 95.5871 85.6019 95.8601C86.2848 97.6442 86.9506 98.6286 87.7013 98.9638C87.9982 99.0698 88.3227 98.9362 88.469 98.6519C88.6323 98.3337 88.5135 97.9391 88.2039 97.7715C88.0173 97.6888 87.5062 97.2878 86.7767 95.3828C86.1618 93.7747 85.7143 92.697 85.4068 92.0924C85.3029 91.8888 85.0993 91.7572 84.8767 91.7466C84.5268 91.7318 84.232 92.0097 84.2151 92.3682C84.1387 94.216 83.9563 95.0179 83.8355 95.3552C83.3138 94.7357 82.491 92.7946 82.9045 91.3393L83.6277 88.7936C83.687 88.5878 83.6425 88.365 83.511 88.1996C82.6882 87.1601 82.5992 86.6636 82.5992 86.4982C82.5992 85.8978 82.4168 85.0641 82.0414 83.9524C82.0202 83.8867 81.9884 83.8251 81.9481 83.7721C80.8857 82.3465 80.4976 81.6316 80.3534 81.2943C80.8581 81.3197 81.823 81.5976 82.1517 81.8883C82.4889 82.1853 82.8112 82.4992 83.1187 82.8302C83.2756 83.002 83.511 83.072 83.7337 83.0126C85.7122 82.4865 87.4638 83.4412 89.084 85.9402C90.8165 88.609 91.9701 90.7771 92.5066 92.3873C92.5617 92.5528 92.6784 92.6885 92.8311 92.7628C93.8596 93.2783 94.8414 93.885 95.7681 94.5766H93.8171C93.6687 94.5787 93.5245 94.6339 93.4121 94.7315C93.147 94.9648 93.1131 95.3743 93.3379 95.6501C93.9656 96.4138 94.6081 97.1627 95.2698 97.8946C95.2867 97.9179 95.3058 97.9391 95.327 97.9582C95.5836 98.2043 95.9844 98.1873 96.2219 97.9243C96.4594 97.6612 96.4446 97.2475 96.188 97.0036C95.8508 96.6344 95.5221 96.261 95.1998 95.8792H97.3691C97.4773 95.8792 97.5833 95.8516 97.6766 95.7965C97.982 95.6204 98.0901 95.2237 97.9184 94.9097C97.7657 94.6297 97.4052 94.1481 96.0819 93.2189C95.291 92.661 94.466 92.1582 93.6114 91.7127C93.0071 90.0282 91.8386 87.8474 90.1337 85.2211C88.2972 82.3932 86.1639 81.2009 83.7803 81.674C83.5195 81.4088 83.2502 81.1521 82.9724 80.9082ZM85.7207 84.9644C85.4832 84.5931 84.7134 84.6037 84.4674 84.661C84.6477 84.9877 84.8406 85.3038 85.0463 85.6135C85.128 85.779 85.2324 85.9275 85.3369 86.076C85.4413 86.2245 85.5457 86.373 85.6274 86.5385L85.6677 86.4982C85.954 86.2966 86.1787 85.4926 85.7207 84.9644Z" fill="#4A94C6"/>
<defs>
<filter id="filter0_d_1090_2351" x="0" y="0" width="213.714" height="126" filterUnits="userSpaceOnUse" color-interpolation-filters="sRGB">
<feFlood flood-opacity="0" result="BackgroundImageFix"/>
<feColorMatrix in="SourceAlpha" type="matrix" values="0 0 0 0 0 0 0 0 0 0 0 0 0 0 0 0 0 0 127 0" result="hardAlpha"/>
<feOffset dy="2"/>
<feGaussianBlur stdDeviation="2"/>
<feColorMatrix type="matrix" values="0 0 0 0 0 0 0 0 0 0 0 0 0 0 0 0 0 0 0.0235194 0"/>
<feBlend mode="normal" in2="BackgroundImageFix" result="effect1_dropShadow_1090_2351"/>
<feBlend mode="normal" in="SourceGraphic" in2="effect1_dropShadow_1090_2351" result="shape"/>
</filter>
<linearGradient id="paint0_linear_1090_2351" x1="106.857" y1="2" x2="106.857" y2="120" gradientUnits="userSpaceOnUse">
<stop stop-color="#007AB5" stop-opacity="0.4"/>
<stop offset="0.479167" stop-color="#007AB5"/>
</linearGradient>
<clipPath id="clip0_1090_2351">
<rect x="120" y="86" width="13" height="13" rx="2" fill="white"/>
</clipPath>
</defs>
</svg>
