<svg width="214" height="126" viewBox="0 0 214 126" fill="none" xmlns="http://www.w3.org/2000/svg">
<g filter="url(#filter0_d_816_2013)">
<path fill-rule="evenodd" clip-rule="evenodd" d="M4 8C4 4.68629 6.68629 2 10 2H203.714C207.028 2 209.714 4.68629 209.714 8V114C209.714 117.314 207.028 120 203.714 120H9.99999C6.68629 120 4 117.314 4 114V8Z" fill="#F1C85E"/>
</g>
<circle cx="12" cy="12" r="1" fill="#FBFCFF" fill-opacity="0.58"/>
<circle cx="30" cy="12" r="1" fill="#FBFCFF" fill-opacity="0.58"/>
<circle cx="47" cy="12" r="1" fill="#FBFCFF" fill-opacity="0.58"/>
<circle cx="65" cy="12" r="1" fill="#FBFCFF" fill-opacity="0.58"/>
<circle cx="83" cy="12" r="1" fill="#FBFCFF" fill-opacity="0.58"/>
<circle cx="100" cy="12" r="1" fill="#FBFCFF" fill-opacity="0.58"/>
<circle cx="118" cy="12" r="1" fill="#FBFCFF" fill-opacity="0.58"/>
<circle cx="136" cy="12" r="1" fill="#FBFCFF" fill-opacity="0.58"/>
<circle cx="153" cy="12" r="1" fill="#FBFCFF" fill-opacity="0.58"/>
<circle cx="171" cy="12" r="1" fill="#FBFCFF" fill-opacity="0.58"/>
<circle cx="189" cy="12" r="1" fill="#FBFCFF" fill-opacity="0.58"/>
<circle cx="206" cy="12" r="1" fill="#FBFCFF" fill-opacity="0.58"/>
<circle cx="12" cy="26" r="1" fill="#FBFCFF" fill-opacity="0.58"/>
<circle cx="30" cy="26" r="1" fill="#FBFCFF" fill-opacity="0.58"/>
<circle cx="47" cy="26" r="1" fill="#FBFCFF" fill-opacity="0.58"/>
<circle cx="65" cy="26" r="1" fill="#FBFCFF" fill-opacity="0.58"/>
<circle cx="83" cy="26" r="1" fill="#FBFCFF" fill-opacity="0.58"/>
<circle cx="100" cy="26" r="1" fill="#FBFCFF" fill-opacity="0.58"/>
<circle cx="118" cy="26" r="1" fill="#FBFCFF" fill-opacity="0.58"/>
<circle cx="136" cy="26" r="1" fill="#FBFCFF" fill-opacity="0.58"/>
<circle cx="153" cy="26" r="1" fill="#FBFCFF" fill-opacity="0.58"/>
<circle cx="171" cy="26" r="1" fill="#FBFCFF" fill-opacity="0.58"/>
<circle cx="189" cy="26" r="1" fill="#FBFCFF" fill-opacity="0.58"/>
<circle cx="206" cy="26" r="1" fill="#FBFCFF" fill-opacity="0.58"/>
<circle cx="12" cy="40" r="1" fill="#FBFCFF" fill-opacity="0.58"/>
<circle cx="30" cy="40" r="1" fill="#FBFCFF" fill-opacity="0.58"/>
<circle cx="47" cy="40" r="1" fill="#FBFCFF" fill-opacity="0.58"/>
<circle cx="65" cy="40" r="1" fill="#FBFCFF" fill-opacity="0.58"/>
<circle cx="83" cy="40" r="1" fill="#FBFCFF" fill-opacity="0.58"/>
<circle cx="100" cy="40" r="1" fill="#FBFCFF" fill-opacity="0.58"/>
<circle cx="118" cy="40" r="1" fill="#FBFCFF" fill-opacity="0.58"/>
<circle cx="136" cy="40" r="1" fill="#FBFCFF" fill-opacity="0.58"/>
<circle cx="153" cy="40" r="1" fill="#FBFCFF" fill-opacity="0.58"/>
<circle cx="171" cy="40" r="1" fill="#FBFCFF" fill-opacity="0.58"/>
<circle cx="189" cy="40" r="1" fill="#FBFCFF" fill-opacity="0.58"/>
<circle cx="206" cy="40" r="1" fill="#FBFCFF" fill-opacity="0.58"/>
<circle cx="12" cy="54" r="1" fill="#FBFCFF" fill-opacity="0.58"/>
<circle cx="30" cy="54" r="1" fill="#FBFCFF" fill-opacity="0.58"/>
<circle cx="47" cy="54" r="1" fill="#FBFCFF" fill-opacity="0.58"/>
<circle cx="65" cy="54" r="1" fill="#FBFCFF" fill-opacity="0.58"/>
<circle cx="83" cy="54" r="1" fill="#FBFCFF" fill-opacity="0.58"/>
<circle cx="100" cy="54" r="1" fill="#FBFCFF" fill-opacity="0.58"/>
<circle cx="118" cy="54" r="1" fill="#FBFCFF" fill-opacity="0.58"/>
<circle cx="136" cy="54" r="1" fill="#FBFCFF" fill-opacity="0.58"/>
<circle cx="153" cy="54" r="1" fill="#FBFCFF" fill-opacity="0.58"/>
<circle cx="171" cy="54" r="1" fill="#FBFCFF" fill-opacity="0.58"/>
<circle cx="189" cy="54" r="1" fill="#FBFCFF" fill-opacity="0.58"/>
<circle cx="206" cy="54" r="1" fill="#FBFCFF" fill-opacity="0.58"/>
<circle cx="12" cy="68" r="1" fill="#FBFCFF" fill-opacity="0.58"/>
<circle cx="30" cy="68" r="1" fill="#FBFCFF" fill-opacity="0.58"/>
<circle cx="47" cy="68" r="1" fill="#FBFCFF" fill-opacity="0.58"/>
<circle cx="65" cy="68" r="1" fill="#FBFCFF" fill-opacity="0.58"/>
<circle cx="83" cy="68" r="1" fill="#FBFCFF" fill-opacity="0.58"/>
<circle cx="100" cy="68" r="1" fill="#FBFCFF" fill-opacity="0.58"/>
<circle cx="118" cy="68" r="1" fill="#FBFCFF" fill-opacity="0.58"/>
<circle cx="136" cy="68" r="1" fill="#FBFCFF" fill-opacity="0.58"/>
<circle cx="153" cy="68" r="1" fill="#FBFCFF" fill-opacity="0.58"/>
<circle cx="171" cy="68" r="1" fill="#FBFCFF" fill-opacity="0.58"/>
<circle cx="189" cy="68" r="1" fill="#FBFCFF" fill-opacity="0.58"/>
<circle cx="206" cy="68" r="1" fill="#FBFCFF" fill-opacity="0.58"/>
<circle cx="12" cy="82" r="1" fill="#FBFCFF" fill-opacity="0.58"/>
<circle cx="30" cy="82" r="1" fill="#FBFCFF" fill-opacity="0.58"/>
<circle cx="47" cy="82" r="1" fill="#FBFCFF" fill-opacity="0.58"/>
<circle cx="65" cy="82" r="1" fill="#FBFCFF" fill-opacity="0.58"/>
<circle cx="83" cy="82" r="1" fill="#FBFCFF" fill-opacity="0.58"/>
<circle cx="100" cy="82" r="1" fill="#FBFCFF" fill-opacity="0.58"/>
<circle cx="118" cy="82" r="1" fill="#FBFCFF" fill-opacity="0.58"/>
<circle cx="136" cy="82" r="1" fill="#FBFCFF" fill-opacity="0.58"/>
<circle cx="153" cy="82" r="1" fill="#FBFCFF" fill-opacity="0.58"/>
<circle cx="171" cy="82" r="1" fill="#FBFCFF" fill-opacity="0.58"/>
<circle cx="189" cy="82" r="1" fill="#FBFCFF" fill-opacity="0.58"/>
<circle cx="206" cy="82" r="1" fill="#FBFCFF" fill-opacity="0.58"/>
<circle cx="12" cy="96" r="1" fill="#FBFCFF" fill-opacity="0.58"/>
<circle cx="30" cy="96" r="1" fill="#FBFCFF" fill-opacity="0.58"/>
<circle cx="47" cy="96" r="1" fill="#FBFCFF" fill-opacity="0.58"/>
<circle cx="65" cy="96" r="1" fill="#FBFCFF" fill-opacity="0.58"/>
<circle cx="83" cy="96" r="1" fill="#FBFCFF" fill-opacity="0.58"/>
<circle cx="100" cy="96" r="1" fill="#FBFCFF" fill-opacity="0.58"/>
<circle cx="118" cy="96" r="1" fill="#FBFCFF" fill-opacity="0.58"/>
<circle cx="136" cy="96" r="1" fill="#FBFCFF" fill-opacity="0.58"/>
<circle cx="153" cy="96" r="1" fill="#FBFCFF" fill-opacity="0.58"/>
<circle cx="171" cy="96" r="1" fill="#FBFCFF" fill-opacity="0.58"/>
<circle cx="189" cy="96" r="1" fill="#FBFCFF" fill-opacity="0.58"/>
<circle cx="206" cy="96" r="1" fill="#FBFCFF" fill-opacity="0.58"/>
<circle cx="12" cy="110" r="1" fill="#FBFCFF" fill-opacity="0.58"/>
<circle cx="30" cy="110" r="1" fill="#FBFCFF" fill-opacity="0.58"/>
<circle cx="47" cy="110" r="1" fill="#FBFCFF" fill-opacity="0.58"/>
<circle cx="65" cy="110" r="1" fill="#FBFCFF" fill-opacity="0.58"/>
<circle cx="83" cy="110" r="1" fill="#FBFCFF" fill-opacity="0.58"/>
<circle cx="100" cy="110" r="1" fill="#FBFCFF" fill-opacity="0.58"/>
<circle cx="118" cy="110" r="1" fill="#FBFCFF" fill-opacity="0.58"/>
<circle cx="136" cy="110" r="1" fill="#FBFCFF" fill-opacity="0.58"/>
<circle cx="153" cy="110" r="1" fill="#FBFCFF" fill-opacity="0.58"/>
<circle cx="171" cy="110" r="1" fill="#FBFCFF" fill-opacity="0.58"/>
<circle cx="189" cy="110" r="1" fill="#FBFCFF" fill-opacity="0.58"/>
<circle cx="206" cy="110" r="1" fill="#FBFCFF" fill-opacity="0.58"/>
<path opacity="0.5" d="M17 62C17 56.4772 21.4772 52 27 52H187C192.523 52 197 56.4772 197 62V120H17V62Z" fill="#F9FAFE"/>
<path d="M20 65C20 59.4772 24.4772 55 30 55H184C189.523 55 194 59.4772 194 65V120H20V65Z" fill="#F1F1F0"/>
<path d="M20 65C20 59.4772 24.4772 55 30 55H60V120H20V65Z" fill="white"/>
<rect x="28" y="63" width="27" height="8" rx="2" fill="#4278EF"/>
<rect x="28" y="74" width="27" height="5" rx="2" fill="#E9E9E9"/>
<rect x="28" y="82" width="27" height="5" rx="2" fill="#E9E9E9"/>
<path d="M70 75C70 72.2386 72.2386 70 75 70H172C174.761 70 177 72.2386 177 75V120H70V75Z" fill="#F8F8F8"/>
<g clip-path="url(#clip0_816_2013)">
<path d="M119.977 110.355L115.946 112.644L107.122 107.636V115.914L115.946 120.931L123.37 116.715L119.977 114.787V110.355Z" fill="#E1E8E9"/>
<path d="M133.82 98.9022L132.054 97.8954L124.708 102.069L121.412 100.253L124.77 98.3428V93.9198L115.946 88.9031L107.122 93.9198V103.945L108.836 104.917L115.946 108.961L119.977 106.664V103.127L123.23 104.909V112.937L132.054 117.954L140.878 112.937V102.912L133.82 98.9022Z" fill="#E1E8E9"/>
<path d="M128.023 96.5014L132.054 94.2124L135.22 96.0109V88.0856L126.396 83.0688L119.286 87.1132L128.023 92.0697V96.5014Z" fill="#E1E8E9"/>
</g>
<mask id="path-108-inside-1_816_2013" fill="white">
<path d="M164 58C164 56.8954 164.895 56 166 56H203C204.105 56 205 56.8954 205 58V95C205 96.1046 204.105 97 203 97H166C164.895 97 164 96.1046 164 95V58Z"/>
</mask>
<path d="M164 58C164 56.8954 164.895 56 166 56H203C204.105 56 205 56.8954 205 58V95C205 96.1046 204.105 97 203 97H166C164.895 97 164 96.1046 164 95V58Z" fill="white"/>
<path d="M166 57H203V55H166V57ZM204 58V95H206V58H204ZM203 96H166V98H203V96ZM165 95V58H163V95H165ZM166 96C165.448 96 165 95.5523 165 95H163C163 96.6569 164.343 98 166 98V96ZM204 95C204 95.5523 203.552 96 203 96V98C204.657 98 206 96.6569 206 95H204ZM203 57C203.552 57 204 57.4477 204 58H206C206 56.3431 204.657 55 203 55V57ZM166 55C164.343 55 163 56.3431 163 58H165C165 57.4477 165.448 57 166 57V55Z" fill="white" mask="url(#path-108-inside-1_816_2013)"/>
<path d="M173.2 77.4334L179.523 72.8638" stroke="#FF6A00" stroke-width="3"/>
<path d="M183.955 74.6362V82.909" stroke="#FF6A00" stroke-width="3"/>
<path d="M188.386 73.4546L194.295 77.591" stroke="#FF6A00" stroke-width="3"/>
<circle cx="183.954" cy="69.9091" r="5.90909" fill="#FF6A00"/>
<circle cx="196.955" cy="79.3636" r="3.54545" fill="#FF6A00"/>
<circle cx="184.25" cy="85.568" r="4.43182" fill="#FF6A00"/>
<circle cx="171.545" cy="79.3636" r="3.54545" fill="#FF6A00"/>
<defs>
<filter id="filter0_d_816_2013" x="0" y="0" width="213.714" height="126" filterUnits="userSpaceOnUse" color-interpolation-filters="sRGB">
<feFlood flood-opacity="0" result="BackgroundImageFix"/>
<feColorMatrix in="SourceAlpha" type="matrix" values="0 0 0 0 0 0 0 0 0 0 0 0 0 0 0 0 0 0 127 0" result="hardAlpha"/>
<feOffset dy="2"/>
<feGaussianBlur stdDeviation="2"/>
<feColorMatrix type="matrix" values="0 0 0 0 0 0 0 0 0 0 0 0 0 0 0 0 0 0 0.0235194 0"/>
<feBlend mode="normal" in2="BackgroundImageFix" result="effect1_dropShadow_816_2013"/>
<feBlend mode="normal" in="SourceGraphic" in2="effect1_dropShadow_816_2013" result="shape"/>
</filter>
<clipPath id="clip0_816_2013">
<rect width="34" height="38" fill="white" transform="translate(107 83)"/>
</clipPath>
</defs>
</svg>
