<svg width="475" height="284" viewBox="0 0 475 284" xmlns="http://www.w3.org/2000/svg"><defs><clipPath id="a"><path d="M472.5 0a1.5 1.5 0 0 1 1.5 1.5v280a1.5 1.5 0 0 1-1.5 1.5H1.5a1.5 1.5 0 0 1-1.5-1.5V1.5A1.5 1.5 0 0 1 1.5 0h471Z"/></clipPath><clipPath id="b"><path d="M76 0c11.046 0 20 8.954 20 20v192c0 11.046-8.954 20-20 20H20c-11.046 0-20-8.954-20-20V0h76Z"/></clipPath><clipPath id="c"><path d="M76 0c11.046 0 20 8.954 20 20v192c0 11.046-8.954 20-20 20H20c-11.046 0-20-8.954-20-20V0h76Z"/></clipPath><clipPath id="d"><path d="M7 0a7 7 0 1 1 0 14A7 7 0 0 1 7 0Z"/></clipPath><clipPath id="e"><path d="M4.088 0C5.213 0 6.13.296 6.836.888c.706.593 1.098 1.393 1.176 2.4H5.968a1.476 1.476 0 0 0-.63-1.135c-.382-.282-.881-.424-1.496-.424-.533 0-.95.119-1.251.356-.301.232-.451.558-.451.977 0 .301.157.533.471.698.31.164.969.357 1.976.581 1.463.328 2.44.706 2.933 1.134.492.424.738 1.105.738 2.044 0 .944-.372 1.693-1.114 2.249-.743.552-1.748.827-3.015.827-1.272 0-2.265-.294-2.98-.881C.432 9.126.05 8.289 0 7.205h2.023c.023.533.217.943.581 1.23.365.287.873.431 1.525.431.67 0 1.192-.107 1.565-.321.379-.219.568-.52.568-.903 0-.378-.135-.656-.404-.834-.264-.177-.83-.362-1.695-.553-1.595-.356-2.661-.741-3.2-1.156-.532-.41-.799-1.05-.799-1.921 0-.975.353-1.747 1.06-2.317C1.93.287 2.884 0 4.088 0Zm10.144 0c1.486 0 2.662.483 3.528 1.449.87.962 1.305 2.263 1.305 3.903 0 1.609-.435 2.885-1.305 3.828-.866.944-2.042 1.415-3.528 1.415-1.476 0-2.65-.471-3.52-1.415-.87-.943-1.306-2.219-1.306-3.828 0-1.64.435-2.941 1.306-3.903C11.582.483 12.756 0 14.232 0Zm8.559.273v6.33c0 .72.162 1.26.485 1.62.329.36.82.54 1.477.54.702 0 1.203-.164 1.504-.492.3-.332.451-.888.451-1.668V.273h2.099v6.262c.004 1.435-.313 2.472-.95 3.11-.634.634-1.668.95-3.104.95-1.376 0-2.397-.33-3.063-.991-.66-.665-.993-1.688-.998-3.069V.273h2.099ZM45.151 0c1.194 0 2.183.323 2.967.97.784.643 1.244 1.516 1.381 2.619h-2.105c-.069-.543-.303-.973-.705-1.292-.396-.319-.902-.479-1.517-.479-.78 0-1.39.312-1.832.937-.442.619-.663 1.481-.663 2.584 0 1.075.218 1.918.656 2.529.442.606 1.055.909 1.839.909.615 0 1.12-.178 1.517-.533.401-.356.636-.836.705-1.443h2.105c-.128 1.163-.583 2.085-1.367 2.769-.78.684-1.773 1.025-2.98 1.025-1.413 0-2.537-.471-3.37-1.415-.83-.943-1.245-2.219-1.245-3.828 0-1.64.415-2.941 1.244-3.903C42.615.483 43.74 0 45.151 0Zm18.86 0c1.126 0 2.042.296 2.75.888.705.593 1.097 1.393 1.174 2.4h-2.044a1.477 1.477 0 0 0-.628-1.135c-.383-.282-.882-.424-1.497-.424-.534 0-.95.119-1.251.356-.301.232-.452.558-.452.977 0 .301.158.533.472.698.31.164.969.357 1.976.581 1.463.328 2.44.706 2.932 1.134.492.424.74 1.105.74 2.044 0 .944-.373 1.693-1.116 2.249-.743.552-1.747.827-3.014.827-1.272 0-2.265-.294-2.98-.881-.716-.588-1.1-1.425-1.15-2.509h2.024c.023.533.217.943.581 1.23.365.287.873.431 1.525.431.67 0 1.191-.107 1.565-.321.378-.219.567-.52.567-.903 0-.378-.134-.656-.403-.834-.264-.177-.829-.362-1.695-.553-1.595-.356-2.662-.741-3.2-1.156-.532-.41-.8-1.05-.8-1.921 0-.975.354-1.747 1.06-2.317C61.854.287 62.81 0 64.012 0ZM35.938.273c.957 0 1.727.258 2.31.773.588.51.882 1.185.882 2.023 0 .966-.326 1.673-.978 2.119-.173.119-.369.219-.588.301.123.05.235.105.335.164.575.342.873.916.896 1.723l.048 1.647c.009.328.043.561.102.697a.67.67 0 0 0 .342.329v.266H36.97c-.055-.105-.103-.328-.144-.67a10.536 10.536 0 0 1-.068-1.114l-.014-.93c-.009-.451-.143-.772-.403-.964-.255-.191-.682-.287-1.279-.287H32.97v3.972H30.87V.273h5.066Zm22.565 0v1.784h-5.298V4.19h4.915v1.73h-4.915v2.618h5.53v1.784h-7.629V.273h7.397Zm-44.27 1.511c-.852 0-1.52.314-2.002.943-.484.629-.725 1.5-.725 2.612 0 1.089.24 1.941.718 2.556.483.611 1.153.916 2.01.916.856 0 1.526-.305 2.01-.916.482-.615.724-1.467.724-2.556 0-1.112-.242-1.983-.725-2.612s-1.153-.943-2.01-.943Zm21.253.219H32.97v2.659h2.433c.543 0 .948-.11 1.217-.328.274-.224.41-.559.41-1.005 0-.442-.13-.773-.39-.991-.255-.224-.64-.335-1.155-.335Z"/></clipPath><clipPath id="f"><path d="M30.495 9.18c-.856-.943-1.285-2.219-1.285-3.828 0-1.64.447-2.941 1.34-3.903C31.443.483 32.651 0 34.173 0c1.221 0 2.226.305 3.015.916.793.61 1.255 1.435 1.387 2.474H36.47c-.055-.437-.301-.82-.738-1.148a2.34 2.34 0 0 0-1.45-.499c-.911 0-1.624.317-2.139.95-.515.629-.773 1.504-.773 2.625 0 1.139.246 2.008.739 2.605.458.546 1.11.84 1.957.883l.213.005.196-.006c.716-.048 1.283-.356 1.701-.923a3.62 3.62 0 0 0 .554-1.238v-.02h-2.366v-1.73h4.211v5.421h-1.401l-.205-1.299-.123.164c-.659.881-1.537 1.35-2.633 1.409l-.235.005-.267-.005c-1.336-.055-2.408-.524-3.216-1.409ZM62.023 0c1.125 0 2.041.296 2.748.888.706.593 1.098 1.393 1.176 2.4h-2.044a1.48 1.48 0 0 0-.629-1.135c-.383-.282-.882-.424-1.497-.424-.534 0-.951.119-1.251.356-.301.232-.452.558-.452.977 0 .301.158.533.472.698.31.164.969.357 1.976.581 1.463.328 2.44.706 2.932 1.134.493.424.739 1.105.739 2.044 0 .944-.372 1.693-1.115 2.249-.742.552-1.747.827-3.014.827-1.272 0-2.265-.294-2.981-.881-.715-.588-1.098-1.425-1.148-2.509h2.023c.023.533.217.943.581 1.23.365.287.873.431 1.525.431.67 0 1.191-.107 1.565-.321.378-.219.568-.52.568-.903 0-.378-.135-.656-.404-.834-.264-.177-.829-.362-1.695-.553-1.595-.356-2.662-.741-3.199-1.156-.534-.41-.8-1.05-.8-1.921 0-.975.353-1.747 1.059-2.317C59.865.287 60.82 0 62.023 0ZM8.169.273v1.784H5.134v8.265H3.035V2.057H0V.273h8.169Zm6.46 0 3.562 10.049h-2.229l-.677-2.044h-3.814l-.663 2.044H8.641L12.196.273h2.433Zm9.981 0c.957 0 1.727.258 2.31.773.588.51.882 1.185.882 2.023 0 .966-.326 1.673-.978 2.119a2.722 2.722 0 0 1-.587.301c.123.05.234.105.335.164.574.342.872.916.895 1.723l.048 1.647c.009.328.043.561.102.697.06.137.174.247.342.329v.266h-2.317c-.055-.105-.103-.328-.144-.67a10.383 10.383 0 0 1-.068-1.114l-.014-.93c-.009-.451-.143-.772-.403-.964-.255-.191-.681-.287-1.278-.287h-2.092v3.972h-2.099V.273h5.066Zm23.344 0v1.784h-5.298V4.19h4.916v1.73h-4.916v2.618h5.531v1.784h-7.629V.273h7.396Zm9.243 0v1.784h-3.036v8.265h-2.098V2.057h-3.035V.273h8.169ZM13.385 2.509l-1.333 4.04h2.673l-1.34-4.04Zm10.773-.506h-2.515v2.659h2.433c.543 0 .948-.11 1.217-.328.274-.224.41-.559.41-1.005 0-.442-.13-.773-.389-.991-.255-.224-.641-.335-1.156-.335Z"/></clipPath><clipPath id="g"><path d="M94 0a2 2 0 0 1 2 2v228a2 2 0 0 1-2 2H2a2 2 0 0 1-2-2V2a2 2 0 0 1 2-2h92Z"/></clipPath><clipPath id="h"><path d="M2.099 32v8.265h4.997v1.784H0V32h2.099Zm11.662 0 3.561 10.049h-2.228l-.677-2.044h-3.814l-.664 2.044H7.772L11.327 32h2.434Zm6.555 0 2.092 4.361L24.37 32h2.379l-3.322 6.228v3.821h-2.099v-3.78L17.821 32h2.495Zm15.094 0v1.784h-5.298v2.133h4.915v1.73h-4.915v2.618h5.531v1.784h-7.629V32h7.396Zm7.007 0c.957 0 1.727.258 2.311.773.587.51.881 1.185.881 2.023 0 .966-.325 1.673-.977 2.119a2.707 2.707 0 0 1-.588.301c.123.05.235.105.335.164.574.342.873.916.895 1.723l.048 1.647c.009.328.044.561.103.697a.667.667 0 0 0 .342.329v.266h-2.318c-.054-.105-.102-.328-.143-.67a10.638 10.638 0 0 1-.069-1.114l-.013-.93c-.009-.451-.144-.772-.404-.964-.255-.191-.681-.287-1.278-.287H39.45v3.972h-2.098V32h5.065Zm-29.9 2.236-1.333 4.04h2.672l-1.339-4.04Zm29.449-.506H39.45v2.659h2.434c.542 0 .948-.11 1.217-.328.273-.224.41-.559.41-1.005 0-.442-.13-.773-.39-.991-.255-.224-.64-.335-1.155-.335ZM15.716 16v1.784h-5.052v2.284h4.402v1.729h-4.402v4.252H8.565V16h7.151Zm5.708 0c1.381 0 2.429.406 3.144 1.217.72.811 1.08 1.998 1.08 3.561 0 1.723-.373 3.033-1.121 3.931-.742.893-1.834 1.34-3.274 1.34h-4.129V16h4.3Zm8.791 0 1.832 7.964L33.852 16h3.035v10.049h-1.962V17.6l-1.88 8.449H30.98l-1.879-8.634v8.634h-1.962V16h3.076Zm-9.051 1.73h-1.941v6.59h1.77c.852 0 1.49-.288 1.914-.862.429-.579.643-1.444.643-2.597 0-1.044-.198-1.826-.595-2.345-.396-.524-.993-.786-1.791-.786ZM11.826 0v8.265h4.997v1.784H9.728V0h2.098Zm10.76 0c1.381 0 2.429.406 3.144 1.217.721.811 1.081 1.998 1.081 3.561 0 1.723-.374 3.033-1.122 3.931-.742.893-1.834 1.34-3.274 1.34h-4.129V0h4.3Zm10.021 0c1.144 0 2.015.269 2.612.807.597.533.895 1.312.895 2.338 0 1.084-.298 1.909-.895 2.474-.597.561-1.468.841-2.612.841a75.46 75.46 0 0 0-2.105.014v3.575h-2.099V0h4.204ZM22.326 1.73h-1.941v6.59h1.77c.853 0 1.491-.288 1.914-.862.429-.579.643-1.444.643-2.597 0-1.044-.198-1.826-.595-2.345-.396-.524-.993-.786-1.791-.786Zm9.926 0h-1.75v3.001h1.75c.588 0 1.028-.13 1.319-.39.297-.26.445-.652.445-1.176 0-.478-.148-.836-.445-1.073-.291-.242-.731-.362-1.319-.362Z"/></clipPath><clipPath id="i"><path d="M26.5 0C41.136 0 53 11.864 53 26.5S41.136 53 26.5 53 0 41.136 0 26.5 11.864 0 26.5 0Z"/></clipPath><clipPath id="j"><path d="M2.099 32v8.265h4.997v1.784H0V32h2.099Zm11.662 0 3.561 10.049h-2.228l-.677-2.044h-3.814l-.664 2.044H7.772L11.327 32h2.434Zm6.555 0 2.092 4.361L24.37 32h2.379l-3.322 6.228v3.821h-2.099v-3.78L17.821 32h2.495Zm15.094 0v1.784h-5.298v2.133h4.915v1.73h-4.915v2.618h5.531v1.784h-7.629V32h7.396Zm7.007 0c.957 0 1.727.258 2.311.773.587.51.881 1.185.881 2.023 0 .966-.325 1.673-.977 2.119a2.707 2.707 0 0 1-.588.301c.123.05.235.105.335.164.574.342.873.916.895 1.723l.048 1.647c.009.328.044.561.103.697a.667.667 0 0 0 .342.329v.266h-2.318c-.054-.105-.102-.328-.143-.67a10.638 10.638 0 0 1-.069-1.114l-.013-.93c-.009-.451-.144-.772-.404-.964-.255-.191-.681-.287-1.278-.287H39.45v3.972h-2.098V32h5.065Zm-29.9 2.236-1.333 4.04h2.672l-1.339-4.04Zm29.449-.506H39.45v2.659h2.434c.542 0 .948-.11 1.217-.328.273-.224.41-.559.41-1.005 0-.442-.13-.773-.39-.991-.255-.224-.64-.335-1.155-.335ZM15.716 16v1.784h-5.052v2.284h4.402v1.729h-4.402v4.252H8.565V16h7.151Zm5.708 0c1.381 0 2.429.406 3.144 1.217.72.811 1.08 1.998 1.08 3.561 0 1.723-.373 3.033-1.121 3.931-.742.893-1.834 1.34-3.274 1.34h-4.129V16h4.3Zm8.791 0 1.832 7.964L33.852 16h3.035v10.049h-1.962V17.6l-1.88 8.449H30.98l-1.879-8.634v8.634h-1.962V16h3.076Zm-9.051 1.73h-1.941v6.59h1.77c.852 0 1.49-.288 1.914-.862.429-.579.643-1.444.643-2.597 0-1.044-.198-1.826-.595-2.345-.396-.524-.993-.786-1.791-.786ZM11.826 0v8.265h4.997v1.784H9.728V0h2.098Zm10.76 0c1.381 0 2.429.406 3.144 1.217.721.811 1.081 1.998 1.081 3.561 0 1.723-.374 3.033-1.122 3.931-.742.893-1.834 1.34-3.274 1.34h-4.129V0h4.3Zm10.021 0c1.144 0 2.015.269 2.612.807.597.533.895 1.312.895 2.338 0 1.084-.298 1.909-.895 2.474-.597.561-1.468.841-2.612.841a75.46 75.46 0 0 0-2.105.014v3.575h-2.099V0h4.204ZM22.326 1.73h-1.941v6.59h1.77c.853 0 1.491-.288 1.914-.862.429-.579.643-1.444.643-2.597 0-1.044-.198-1.826-.595-2.345-.396-.524-.993-.786-1.791-.786Zm9.926 0h-1.75v3.001h1.75c.588 0 1.028-.13 1.319-.39.297-.26.445-.652.445-1.176 0-.478-.148-.836-.445-1.073-.291-.242-.731-.362-1.319-.362Z"/></clipPath></defs><g clip-path="url(#a)" transform="translate(.5 .5)"><path fill="#C7D5FC" d="M0 0h474v283H0V0z"/></g><path d="M2 .5h471a1.5 1.5 0 0 1 1.5 1.5v280a1.5 1.5 0 0 1-1.5 1.5H2A1.5 1.5 0 0 1 .5 282V2A1.5 1.5 0 0 1 2 .5Z" stroke="#F2F2F2" fill="none" stroke-miterlimit="10"/><g clip-path="url(#b)" transform="translate(22 26)"><path fill="#73C750" d="M0 0h96v232H0V0z"/></g><g clip-path="url(#c)" transform="translate(358 26)"><path fill="#3249EF" d="M0 0h96v232H0V0z"/></g><g clip-path="url(#d)" transform="translate(426 38)"><path fill="#FFF" d="M0 0h14v14H0V0z"/></g><path d="M437 45h-8" stroke="#2C65FF" stroke-width="1.25" fill="none" stroke-linejoin="round"/><path d="M433 49v-8" stroke="rgba(44, 101, 255, 0.65)" stroke-width="1.25" fill="none" stroke-linejoin="round"/><g clip-path="url(#e)" transform="translate(35.547 154.678)"><path fill="#FFF" d="M0 0h68.182v10.595H0V0z"/></g><g clip-path="url(#f)" transform="translate(372.198 154.678)"><path fill="#FFF" d="M0 0h66.193v10.595H0V0z"/></g><g clip-path="url(#g)" transform="translate(134 26)"><path fill="rgba(44, 101, 255, 0.24)" d="M0 0h96v232H0V0z"/></g><g clip-path="url(#h)" transform="translate(159.332 124.951)"><path fill="#FFF" d="M0 0h45.767v42.049H0V0z"/></g><g clip-path="url(#g)" transform="translate(246 26)"><path fill="rgba(44, 101, 255, 0.24)" d="M0 0h96v232H0V0z"/></g><g clip-path="url(#i)" transform="translate(43 65)"><path fill="#FFF" d="M0 0h53v53H0V0z"/></g><g clip-path="url(#i)" transform="translate(155 65)"><path fill="#FFF" d="M0 0h53v53H0V0z"/></g><g clip-path="url(#j)" transform="translate(271.332 124.951)"><path fill="#FFF" d="M0 0h45.767v42.049H0V0z"/></g><g clip-path="url(#i)" transform="translate(267 65)"><path fill="#FFF" d="M0 0h53v53H0V0z"/></g><g clip-path="url(#i)" transform="translate(379 65)"><path fill="#FFF" d="M0 0h53v53H0V0z"/></g><g clip-path="url(#d)" transform="translate(90 38)"><path fill="#FFF" d="M0 0h14v14H0V0z"/></g><path d="M101 45h-8" stroke="#2C65FF" stroke-width="1.25" fill="none" stroke-linejoin="round"/><path d="M97 49v-8" stroke="rgba(44, 101, 255, 0.65)" stroke-width="1.25" fill="none" stroke-linejoin="round"/><path d="M230.5 48H246M230.5 132l15.5 38M230.5 218.5h15" stroke="#000" fill="none" stroke-miterlimit="10"/></svg>
