<svg width="475" height="284" viewBox="0 0 475 284" fill="none" xmlns="http://www.w3.org/2000/svg">
<rect x="0.5" y="0.5" width="474" height="283" rx="1.5" fill="#F9F1C1" stroke="#F2F2F2"/>
<rect x="71" y="75" width="333" height="192" rx="2" fill="white"/>
<path d="M71 31C71 25.4771 75.4772 21 81 21H394C399.523 21 404 25.4772 404 31V198H71V31Z" fill="#E7EEFE"/>
<path d="M185 91.5L290 57.5" stroke="black"/>
<path d="M183.5 91L294 93.5" stroke="black"/>
<path d="M182 91.5L291 134.5" stroke="black"/>
<path d="M183.5 92L291 174.5" stroke="black"/>
<path d="M185 133L291 93.5" stroke="black"/>
<path d="M183 134L290 58.5" stroke="black"/>
<path d="M184 133L292 135" stroke="black"/>
<path d="M184 133.5L292.5 174.5" stroke="black"/>
<path d="M184.5 173L291 134.5" stroke="black"/>
<path d="M184.5 52.5L289.5 93.5" stroke="#1D2129"/>
<path d="M183.5 52L294 138" stroke="black"/>
<path d="M179 51.5L300 57.5" stroke="black"/>
<path d="M183.5 51.5L294 178" stroke="black"/>
<rect x="290" y="39" width="92" height="31" rx="4" fill="#2C65FF"/>
<rect x="290" y="78" width="92" height="31" rx="4" fill="#2C65FF"/>
<rect x="290" y="117" width="92" height="31" rx="4" fill="#2C65FF"/>
<rect x="290" y="156" width="92" height="31" rx="4" fill="#2C65FF"/>
<rect x="93" y="39" width="92" height="31" rx="4" fill="#73C750"/>
<path d="M108.415 60V49.9512H109.461H112.715C114.096 49.9512 115.144 50.3568 115.859 51.168C116.579 51.9792 116.939 53.1663 116.939 54.7295C116.939 56.4521 116.566 57.7624 115.818 58.6602C115.076 59.5534 113.984 60 112.544 60H109.461H108.415ZM110.514 58.2705H112.284C113.136 58.2705 113.774 57.9834 114.198 57.4092C114.627 56.8304 114.841 55.9645 114.841 54.8115C114.841 53.7679 114.643 52.9863 114.246 52.4668C113.85 51.9427 113.253 51.6807 112.455 51.6807H110.514V58.2705ZM120.159 60.1914C119.471 60.1914 118.917 59.9954 118.498 59.6035C118.079 59.207 117.869 58.6875 117.869 58.0449C117.869 57.3659 118.058 56.8236 118.437 56.418C118.815 56.0078 119.366 55.7503 120.091 55.6455L121.383 55.4678C121.72 55.4222 122 55.3447 122.224 55.2354C122.319 55.1898 122.392 55.1077 122.442 54.9893C122.497 54.8708 122.518 54.75 122.504 54.627C122.477 54.4173 122.369 54.2533 122.183 54.1348C121.959 53.9935 121.638 53.9229 121.219 53.9229C120.845 53.9229 120.553 54.014 120.344 54.1963C120.134 54.3786 120.022 54.6361 120.009 54.9688H118.129C118.17 54.0983 118.466 53.4466 119.018 53.0137C119.569 52.5807 120.378 52.3643 121.444 52.3643C122.369 52.3643 123.099 52.5602 123.632 52.9521C124.17 53.3395 124.438 53.8704 124.438 54.5449V58.7012C124.438 59.0339 124.466 59.2686 124.521 59.4053C124.575 59.5374 124.685 59.6423 124.849 59.7197V59.7266V59.9932H123.789H122.729C122.643 59.6924 122.586 59.3984 122.559 59.1113L122.552 59.0977C121.937 59.8268 121.139 60.1914 120.159 60.1914ZM122.518 57.252V56.3975C122.29 56.5251 121.989 56.6276 121.615 56.7051L120.891 56.8418C120.549 56.9056 120.289 57.0241 120.111 57.1973C119.934 57.3659 119.845 57.5801 119.845 57.8398C119.845 58.1361 119.924 58.3685 120.084 58.5371C120.243 58.7057 120.467 58.79 120.754 58.79C121.383 58.79 121.884 58.569 122.258 58.127C122.331 58.0404 122.392 57.9128 122.442 57.7441C122.493 57.5755 122.518 57.4115 122.518 57.252ZM129.586 60.041C129.258 60.0684 128.854 60.082 128.376 60.082C127.683 60.082 127.184 59.959 126.879 59.7129C126.578 59.4622 126.428 59.0544 126.428 58.4893V53.9365H125.396V52.5625H126.428V50.5596H128.39V52.5625H129.586V53.9365H128.39V58.1611C128.39 58.3343 128.44 58.4482 128.54 58.5029C128.645 58.5576 128.859 58.585 129.183 58.585H129.586V60.041ZM132.614 60.1914C131.926 60.1914 131.372 59.9954 130.953 59.6035C130.534 59.207 130.324 58.6875 130.324 58.0449C130.324 57.3659 130.513 56.8236 130.892 56.418C131.27 56.0078 131.821 55.7503 132.546 55.6455L133.838 55.4678C134.175 55.4222 134.455 55.3447 134.679 55.2354C134.774 55.1898 134.847 55.1077 134.897 54.9893C134.952 54.8708 134.973 54.75 134.959 54.627C134.932 54.4173 134.825 54.2533 134.638 54.1348C134.414 53.9935 134.093 53.9229 133.674 53.9229C133.3 53.9229 133.008 54.014 132.799 54.1963C132.589 54.3786 132.478 54.6361 132.464 54.9688H130.584C130.625 54.0983 130.921 53.4466 131.473 53.0137C132.024 52.5807 132.833 52.3643 133.899 52.3643C134.825 52.3643 135.554 52.5602 136.087 52.9521C136.625 53.3395 136.894 53.8704 136.894 54.5449V58.7012C136.894 59.0339 136.921 59.2686 136.976 59.4053C137.03 59.5374 137.14 59.6423 137.304 59.7197V59.7266V59.9932H136.244H135.185C135.098 59.6924 135.041 59.3984 135.014 59.1113L135.007 59.0977C134.392 59.8268 133.594 60.1914 132.614 60.1914ZM134.973 57.252V56.3975C134.745 56.5251 134.444 56.6276 134.07 56.7051L133.346 56.8418C133.004 56.9056 132.744 57.0241 132.566 57.1973C132.389 57.3659 132.3 57.5801 132.3 57.8398C132.3 58.1361 132.38 58.3685 132.539 58.5371C132.699 58.7057 132.922 58.79 133.209 58.79C133.838 58.79 134.339 58.569 134.713 58.127C134.786 58.0404 134.847 57.9128 134.897 57.7441C134.948 57.5755 134.973 57.4115 134.973 57.252ZM138.568 49.9512H139.546H140.53V53.5332L140.571 53.4785C141.1 52.7357 141.797 52.3643 142.663 52.3643C143.606 52.3643 144.365 52.7129 144.939 53.4102C145.514 54.1074 145.801 55.0257 145.801 56.165C145.801 57.3727 145.514 58.3457 144.939 59.084C144.365 59.8223 143.606 60.1914 142.663 60.1914C141.802 60.1914 141.104 59.8451 140.571 59.1523L140.489 59.043V60H138.568V49.9512ZM142.103 58.5781C142.631 58.5781 143.044 58.3822 143.34 57.9902C143.636 57.5938 143.784 57.0446 143.784 56.3428C143.784 55.6273 143.636 55.069 143.34 54.668C143.044 54.2624 142.633 54.0596 142.109 54.0596C141.585 54.0596 141.175 54.2669 140.879 54.6816C140.583 55.0964 140.435 55.6729 140.435 56.4111C140.435 57.0902 140.583 57.6211 140.879 58.0039C141.171 58.3867 141.578 58.5781 142.103 58.5781ZM148.966 60.1914C148.278 60.1914 147.724 59.9954 147.305 59.6035C146.885 59.207 146.676 58.6875 146.676 58.0449C146.676 57.3659 146.865 56.8236 147.243 56.418C147.621 56.0078 148.173 55.7503 148.897 55.6455L150.189 55.4678C150.527 55.4222 150.807 55.3447 151.03 55.2354C151.126 55.1898 151.199 55.1077 151.249 54.9893C151.304 54.8708 151.324 54.75 151.311 54.627C151.283 54.4173 151.176 54.2533 150.989 54.1348C150.766 53.9935 150.445 53.9229 150.025 53.9229C149.652 53.9229 149.36 54.014 149.15 54.1963C148.941 54.3786 148.829 54.6361 148.815 54.9688H146.936C146.977 54.0983 147.273 53.4466 147.824 53.0137C148.376 52.5807 149.185 52.3643 150.251 52.3643C151.176 52.3643 151.905 52.5602 152.438 52.9521C152.976 53.3395 153.245 53.8704 153.245 54.5449V58.7012C153.245 59.0339 153.272 59.2686 153.327 59.4053C153.382 59.5374 153.491 59.6423 153.655 59.7197V59.7266V59.9932H152.596H151.536C151.45 59.6924 151.393 59.3984 151.365 59.1113L151.358 59.0977C150.743 59.8268 149.946 60.1914 148.966 60.1914ZM151.324 57.252V56.3975C151.096 56.5251 150.796 56.6276 150.422 56.7051L149.697 56.8418C149.355 56.9056 149.096 57.0241 148.918 57.1973C148.74 57.3659 148.651 57.5801 148.651 57.8398C148.651 58.1361 148.731 58.3685 148.891 58.5371C149.05 58.7057 149.273 58.79 149.561 58.79C150.189 58.79 150.691 58.569 151.064 58.127C151.137 58.0404 151.199 57.9128 151.249 57.7441C151.299 57.5755 151.324 57.4115 151.324 57.252ZM159.186 54.791C159.186 54.5039 159.067 54.2738 158.83 54.1006C158.593 53.9274 158.279 53.8408 157.887 53.8408C157.508 53.8408 157.212 53.9069 156.998 54.0391C156.788 54.1667 156.684 54.3467 156.684 54.5791C156.684 54.7432 156.804 54.8844 157.046 55.0029C157.283 55.1169 157.704 55.2422 158.311 55.3789C159.514 55.6478 160.318 55.9417 160.724 56.2607C161.129 56.5798 161.332 57.0811 161.332 57.7646C161.332 58.4938 161.036 59.0817 160.443 59.5283C159.855 59.9704 159.078 60.1914 158.112 60.1914C156.968 60.1914 156.087 59.9727 155.467 59.5352C154.852 59.0977 154.523 58.4596 154.482 57.6211H156.479C156.492 57.9629 156.643 58.2318 156.93 58.4277C157.221 58.6191 157.616 58.7148 158.112 58.7148C158.504 58.7148 158.81 58.6488 159.028 58.5166C159.252 58.3799 159.363 58.1908 159.363 57.9492C159.363 57.7806 159.256 57.637 159.042 57.5186C158.828 57.4046 158.452 57.2884 157.914 57.1699C156.656 56.8874 155.815 56.5889 155.392 56.2744C154.968 55.9645 154.756 55.4837 154.756 54.832C154.756 54.0938 155.029 53.499 155.576 53.0479C156.128 52.5921 156.852 52.3643 157.75 52.3643C158.762 52.3643 159.577 52.5876 160.197 53.0342C160.817 53.4762 161.127 54.0618 161.127 54.791H159.186ZM165.714 60.1914C164.584 60.1914 163.711 59.8428 163.096 59.1455C162.485 58.4482 162.18 57.4548 162.18 56.165C162.18 54.9756 162.492 54.0459 163.116 53.376C163.741 52.7015 164.606 52.3643 165.714 52.3643C166.849 52.3643 167.721 52.7083 168.332 53.3965C168.947 54.0801 169.255 55.0553 169.255 56.3223C169.264 56.4681 169.253 56.6162 169.221 56.7666H164.155C164.201 57.3545 164.331 57.7943 164.545 58.0859C164.818 58.4505 165.274 58.6328 165.912 58.6328C166.208 58.6328 166.482 58.5485 166.732 58.3799C166.988 58.2113 167.14 58.0085 167.19 57.7715H169.187C169.018 58.528 168.626 59.1204 168.011 59.5488C167.4 59.9772 166.634 60.1914 165.714 60.1914ZM167.211 55.5156C167.165 55.069 167.047 54.7204 166.855 54.4697C166.605 54.137 166.215 53.9707 165.687 53.9707C165.181 53.9707 164.796 54.1644 164.531 54.5518C164.367 54.7979 164.249 55.1191 164.176 55.5156H167.211Z" fill="white"/>
<path d="M305.415 60V49.9512H306.461H309.715C311.096 49.9512 312.144 50.3568 312.859 51.168C313.579 51.9792 313.939 53.1663 313.939 54.7295C313.939 56.4521 313.566 57.7624 312.818 58.6602C312.076 59.5534 310.984 60 309.544 60H306.461H305.415ZM307.514 58.2705H309.284C310.136 58.2705 310.774 57.9834 311.198 57.4092C311.627 56.8304 311.841 55.9645 311.841 54.8115C311.841 53.7679 311.643 52.9863 311.246 52.4668C310.85 51.9427 310.253 51.6807 309.455 51.6807H307.514V58.2705ZM317.159 60.1914C316.471 60.1914 315.917 59.9954 315.498 59.6035C315.079 59.207 314.869 58.6875 314.869 58.0449C314.869 57.3659 315.058 56.8236 315.437 56.418C315.815 56.0078 316.366 55.7503 317.091 55.6455L318.383 55.4678C318.72 55.4222 319 55.3447 319.224 55.2354C319.319 55.1898 319.392 55.1077 319.442 54.9893C319.497 54.8708 319.518 54.75 319.504 54.627C319.477 54.4173 319.369 54.2533 319.183 54.1348C318.959 53.9935 318.638 53.9229 318.219 53.9229C317.845 53.9229 317.553 54.014 317.344 54.1963C317.134 54.3786 317.022 54.6361 317.009 54.9688H315.129C315.17 54.0983 315.466 53.4466 316.018 53.0137C316.569 52.5807 317.378 52.3643 318.444 52.3643C319.369 52.3643 320.099 52.5602 320.632 52.9521C321.17 53.3395 321.438 53.8704 321.438 54.5449V58.7012C321.438 59.0339 321.466 59.2686 321.521 59.4053C321.575 59.5374 321.685 59.6423 321.849 59.7197V59.7266V59.9932H320.789H319.729C319.643 59.6924 319.586 59.3984 319.559 59.1113L319.552 59.0977C318.937 59.8268 318.139 60.1914 317.159 60.1914ZM319.518 57.252V56.3975C319.29 56.5251 318.989 56.6276 318.615 56.7051L317.891 56.8418C317.549 56.9056 317.289 57.0241 317.111 57.1973C316.934 57.3659 316.845 57.5801 316.845 57.8398C316.845 58.1361 316.924 58.3685 317.084 58.5371C317.243 58.7057 317.467 58.79 317.754 58.79C318.383 58.79 318.884 58.569 319.258 58.127C319.331 58.0404 319.392 57.9128 319.442 57.7441C319.493 57.5755 319.518 57.4115 319.518 57.252ZM326.586 60.041C326.258 60.0684 325.854 60.082 325.376 60.082C324.683 60.082 324.184 59.959 323.879 59.7129C323.578 59.4622 323.428 59.0544 323.428 58.4893V53.9365H322.396V52.5625H323.428V50.5596H325.39V52.5625H326.586V53.9365H325.39V58.1611C325.39 58.3343 325.44 58.4482 325.54 58.5029C325.645 58.5576 325.859 58.585 326.183 58.585H326.586V60.041ZM329.614 60.1914C328.926 60.1914 328.372 59.9954 327.953 59.6035C327.534 59.207 327.324 58.6875 327.324 58.0449C327.324 57.3659 327.513 56.8236 327.892 56.418C328.27 56.0078 328.821 55.7503 329.546 55.6455L330.838 55.4678C331.175 55.4222 331.455 55.3447 331.679 55.2354C331.774 55.1898 331.847 55.1077 331.897 54.9893C331.952 54.8708 331.973 54.75 331.959 54.627C331.932 54.4173 331.825 54.2533 331.638 54.1348C331.414 53.9935 331.093 53.9229 330.674 53.9229C330.3 53.9229 330.008 54.014 329.799 54.1963C329.589 54.3786 329.478 54.6361 329.464 54.9688H327.584C327.625 54.0983 327.921 53.4466 328.473 53.0137C329.024 52.5807 329.833 52.3643 330.899 52.3643C331.825 52.3643 332.554 52.5602 333.087 52.9521C333.625 53.3395 333.894 53.8704 333.894 54.5449V58.7012C333.894 59.0339 333.921 59.2686 333.976 59.4053C334.03 59.5374 334.14 59.6423 334.304 59.7197V59.7266V59.9932H333.244H332.185C332.098 59.6924 332.041 59.3984 332.014 59.1113L332.007 59.0977C331.392 59.8268 330.594 60.1914 329.614 60.1914ZM331.973 57.252V56.3975C331.745 56.5251 331.444 56.6276 331.07 56.7051L330.346 56.8418C330.004 56.9056 329.744 57.0241 329.566 57.1973C329.389 57.3659 329.3 57.5801 329.3 57.8398C329.3 58.1361 329.38 58.3685 329.539 58.5371C329.699 58.7057 329.922 58.79 330.209 58.79C330.838 58.79 331.339 58.569 331.713 58.127C331.786 58.0404 331.847 57.9128 331.897 57.7441C331.948 57.5755 331.973 57.4115 331.973 57.252ZM335.568 49.9512H336.546H337.53V53.5332L337.571 53.4785C338.1 52.7357 338.797 52.3643 339.663 52.3643C340.606 52.3643 341.365 52.7129 341.939 53.4102C342.514 54.1074 342.801 55.0257 342.801 56.165C342.801 57.3727 342.514 58.3457 341.939 59.084C341.365 59.8223 340.606 60.1914 339.663 60.1914C338.802 60.1914 338.104 59.8451 337.571 59.1523L337.489 59.043V60H335.568V49.9512ZM339.103 58.5781C339.631 58.5781 340.044 58.3822 340.34 57.9902C340.636 57.5938 340.784 57.0446 340.784 56.3428C340.784 55.6273 340.636 55.069 340.34 54.668C340.044 54.2624 339.633 54.0596 339.109 54.0596C338.585 54.0596 338.175 54.2669 337.879 54.6816C337.583 55.0964 337.435 55.6729 337.435 56.4111C337.435 57.0902 337.583 57.6211 337.879 58.0039C338.171 58.3867 338.578 58.5781 339.103 58.5781ZM345.966 60.1914C345.278 60.1914 344.724 59.9954 344.305 59.6035C343.885 59.207 343.676 58.6875 343.676 58.0449C343.676 57.3659 343.865 56.8236 344.243 56.418C344.621 56.0078 345.173 55.7503 345.897 55.6455L347.189 55.4678C347.527 55.4222 347.807 55.3447 348.03 55.2354C348.126 55.1898 348.199 55.1077 348.249 54.9893C348.304 54.8708 348.324 54.75 348.311 54.627C348.283 54.4173 348.176 54.2533 347.989 54.1348C347.766 53.9935 347.445 53.9229 347.025 53.9229C346.652 53.9229 346.36 54.014 346.15 54.1963C345.941 54.3786 345.829 54.6361 345.815 54.9688H343.936C343.977 54.0983 344.273 53.4466 344.824 53.0137C345.376 52.5807 346.185 52.3643 347.251 52.3643C348.176 52.3643 348.905 52.5602 349.438 52.9521C349.976 53.3395 350.245 53.8704 350.245 54.5449V58.7012C350.245 59.0339 350.272 59.2686 350.327 59.4053C350.382 59.5374 350.491 59.6423 350.655 59.7197V59.7266V59.9932H349.596H348.536C348.45 59.6924 348.393 59.3984 348.365 59.1113L348.358 59.0977C347.743 59.8268 346.946 60.1914 345.966 60.1914ZM348.324 57.252V56.3975C348.096 56.5251 347.796 56.6276 347.422 56.7051L346.697 56.8418C346.355 56.9056 346.096 57.0241 345.918 57.1973C345.74 57.3659 345.651 57.5801 345.651 57.8398C345.651 58.1361 345.731 58.3685 345.891 58.5371C346.05 58.7057 346.273 58.79 346.561 58.79C347.189 58.79 347.691 58.569 348.064 58.127C348.137 58.0404 348.199 57.9128 348.249 57.7441C348.299 57.5755 348.324 57.4115 348.324 57.252ZM356.186 54.791C356.186 54.5039 356.067 54.2738 355.83 54.1006C355.593 53.9274 355.279 53.8408 354.887 53.8408C354.508 53.8408 354.212 53.9069 353.998 54.0391C353.788 54.1667 353.684 54.3467 353.684 54.5791C353.684 54.7432 353.804 54.8844 354.046 55.0029C354.283 55.1169 354.704 55.2422 355.311 55.3789C356.514 55.6478 357.318 55.9417 357.724 56.2607C358.129 56.5798 358.332 57.0811 358.332 57.7646C358.332 58.4938 358.036 59.0817 357.443 59.5283C356.855 59.9704 356.078 60.1914 355.112 60.1914C353.968 60.1914 353.087 59.9727 352.467 59.5352C351.852 59.0977 351.523 58.4596 351.482 57.6211H353.479C353.492 57.9629 353.643 58.2318 353.93 58.4277C354.221 58.6191 354.616 58.7148 355.112 58.7148C355.504 58.7148 355.81 58.6488 356.028 58.5166C356.252 58.3799 356.363 58.1908 356.363 57.9492C356.363 57.7806 356.256 57.637 356.042 57.5186C355.828 57.4046 355.452 57.2884 354.914 57.1699C353.656 56.8874 352.815 56.5889 352.392 56.2744C351.968 55.9645 351.756 55.4837 351.756 54.832C351.756 54.0938 352.029 53.499 352.576 53.0479C353.128 52.5921 353.852 52.3643 354.75 52.3643C355.762 52.3643 356.577 52.5876 357.197 53.0342C357.817 53.4762 358.127 54.0618 358.127 54.791H356.186ZM362.714 60.1914C361.584 60.1914 360.711 59.8428 360.096 59.1455C359.485 58.4482 359.18 57.4548 359.18 56.165C359.18 54.9756 359.492 54.0459 360.116 53.376C360.741 52.7015 361.606 52.3643 362.714 52.3643C363.849 52.3643 364.721 52.7083 365.332 53.3965C365.947 54.0801 366.255 55.0553 366.255 56.3223C366.264 56.4681 366.253 56.6162 366.221 56.7666H361.155C361.201 57.3545 361.331 57.7943 361.545 58.0859C361.818 58.4505 362.274 58.6328 362.912 58.6328C363.208 58.6328 363.482 58.5485 363.732 58.3799C363.988 58.2113 364.14 58.0085 364.19 57.7715H366.187C366.018 58.528 365.626 59.1204 365.011 59.5488C364.4 59.9772 363.634 60.1914 362.714 60.1914ZM364.211 55.5156C364.165 55.069 364.047 54.7204 363.855 54.4697C363.605 54.137 363.215 53.9707 362.687 53.9707C362.181 53.9707 361.796 54.1644 361.531 54.5518C361.367 54.7979 361.249 55.1191 361.176 55.5156H364.211Z" fill="white"/>
<rect x="93" y="78" width="92" height="31" rx="4" fill="#73C750"/>
<rect x="93" y="117" width="92" height="31" rx="4" fill="#73C750"/>
<rect x="93" y="156" width="92" height="31" rx="4" fill="#73C750"/>
</svg>
