<svg width="475" height="284" viewBox="0 0 475 284" fill="none" xmlns="http://www.w3.org/2000/svg">
<rect x="0.5" y="0.5" width="474" height="283" rx="1.5" fill="#C7D5FC" stroke="#F2F2F2"/>
<path d="M22 26H98C109.046 26 118 34.9543 118 46V238C118 249.046 109.046 258 98 258H42C30.9543 258 22 249.046 22 238V26Z" fill="#3249EF"/>
<path d="M358 26H434C445.046 26 454 34.9543 454 46V238C454 249.046 445.046 258 434 258H378C366.954 258 358 249.046 358 238V26Z" fill="#3249EF"/>
<circle cx="433" cy="45" r="7" fill="white"/>
<path d="M437 45H429" stroke="#2C65FF" stroke-width="1.25" stroke-linejoin="round"/>
<path d="M433 49V41" stroke="#2C65FF" stroke-opacity="0.65" stroke-width="1.25" stroke-linejoin="round"/>
<path d="M41.5146 157.966C41.4782 157.487 41.2686 157.109 40.8857 156.831C40.5029 156.549 40.0039 156.407 39.3887 156.407C38.8555 156.407 38.4385 156.526 38.1377 156.763C37.8369 156.995 37.6865 157.321 37.6865 157.74C37.6865 158.041 37.8438 158.273 38.1582 158.438C38.4681 158.602 39.1266 158.795 40.1338 159.019C41.5967 159.347 42.5742 159.725 43.0664 160.153C43.5586 160.577 43.8047 161.258 43.8047 162.197C43.8047 163.141 43.4333 163.89 42.6904 164.446C41.9476 164.998 40.9427 165.273 39.6758 165.273C38.4043 165.273 37.4108 164.979 36.6953 164.392C35.9798 163.804 35.597 162.967 35.5469 161.883H37.5703C37.5931 162.416 37.7868 162.826 38.1514 163.113C38.516 163.4 39.0241 163.544 39.6758 163.544C40.3457 163.544 40.8675 163.437 41.2412 163.223C41.6195 163.004 41.8086 162.703 41.8086 162.32C41.8086 161.942 41.6742 161.664 41.4053 161.486C41.141 161.309 40.5758 161.124 39.71 160.933C38.1149 160.577 37.0485 160.192 36.5107 159.777C35.9775 159.367 35.7109 158.727 35.7109 157.856C35.7109 156.881 36.0641 156.109 36.7705 155.539C37.4769 154.965 38.4316 154.678 39.6348 154.678C40.7604 154.678 41.6764 154.974 42.3828 155.566C43.0892 156.159 43.4811 156.959 43.5586 157.966H41.5146ZM49.7793 165.273C48.3027 165.273 47.1292 164.802 46.2588 163.858C45.3883 162.915 44.9531 161.639 44.9531 160.03C44.9531 158.39 45.3883 157.089 46.2588 156.127C47.1292 155.161 48.3027 154.678 49.7793 154.678C51.265 154.678 52.4408 155.161 53.3066 156.127C54.1771 157.089 54.6123 158.39 54.6123 160.03C54.6123 161.639 54.1771 162.915 53.3066 163.858C52.4408 164.802 51.265 165.273 49.7793 165.273ZM49.7793 163.489C50.6361 163.489 51.306 163.184 51.7891 162.573C52.2721 161.958 52.5137 161.106 52.5137 160.017C52.5137 158.905 52.2721 158.034 51.7891 157.405C51.306 156.776 50.6361 156.462 49.7793 156.462C48.9271 156.462 48.2594 156.776 47.7764 157.405C47.2933 158.034 47.0518 158.905 47.0518 160.017C47.0518 161.106 47.291 161.958 47.7695 162.573C48.2526 163.184 48.9225 163.489 49.7793 163.489ZM64.3535 161.213C64.3581 162.648 64.0413 163.685 63.4033 164.323C62.7699 164.957 61.7354 165.273 60.2998 165.273C58.9235 165.273 57.9027 164.943 57.2373 164.282C56.5765 163.617 56.2438 162.594 56.2393 161.213V154.951H57.2852H58.3379V161.281C58.3379 162.001 58.4997 162.541 58.8232 162.901C59.1514 163.261 59.6436 163.441 60.2998 163.441C61.0016 163.441 61.5029 163.277 61.8037 162.949C62.1045 162.617 62.2549 162.061 62.2549 161.281V154.951H63.3008H64.3535V161.213ZM66.418 165V154.951H67.4639H71.4834C72.4404 154.951 73.2106 155.209 73.7939 155.724C74.3818 156.234 74.6758 156.909 74.6758 157.747C74.6758 158.713 74.3499 159.42 73.6982 159.866C73.5251 159.985 73.3291 160.085 73.1104 160.167C73.2334 160.217 73.3451 160.272 73.4453 160.331C74.0195 160.673 74.318 161.247 74.3408 162.054L74.3887 163.701C74.3978 164.029 74.432 164.262 74.4912 164.398C74.5505 164.535 74.6644 164.645 74.833 164.727V164.993H72.5156C72.4609 164.888 72.4131 164.665 72.3721 164.323C72.3311 163.977 72.3083 163.605 72.3037 163.209L72.29 162.279C72.2809 161.828 72.1465 161.507 71.8867 161.315C71.6315 161.124 71.2054 161.028 70.6084 161.028H68.5166V165H67.4707H66.418ZM68.5166 159.34H70.9502C71.4925 159.34 71.8981 159.23 72.167 159.012C72.4404 158.788 72.5771 158.453 72.5771 158.007C72.5771 157.565 72.4473 157.234 72.1875 157.016C71.9323 156.792 71.5472 156.681 71.0322 156.681H68.5166V159.34ZM85.0459 161.479C84.9183 162.642 84.4626 163.564 83.6787 164.248C82.8994 164.932 81.9059 165.273 80.6982 165.273C79.2855 165.273 78.1621 164.802 77.3281 163.858C76.4987 162.915 76.084 161.639 76.084 160.03C76.084 158.39 76.4987 157.089 77.3281 156.127C78.1621 155.161 79.2855 154.678 80.6982 154.678C81.8923 154.678 82.8812 155.001 83.665 155.648C84.4489 156.291 84.9092 157.164 85.0459 158.267H82.9404C82.8721 157.724 82.6374 157.294 82.2363 156.975C81.8398 156.656 81.334 156.496 80.7188 156.496C79.9395 156.496 79.3288 156.808 78.8867 157.433C78.4447 158.052 78.2236 158.914 78.2236 160.017C78.2236 161.092 78.4424 161.935 78.8799 162.546C79.3219 163.152 79.9349 163.455 80.7188 163.455C81.334 163.455 81.8398 163.277 82.2363 162.922C82.6374 162.566 82.8721 162.086 82.9404 161.479H85.0459ZM86.6523 165V154.951H94.0488V155.84V156.735H88.751V158.868H93.666V159.729V160.598H88.751V163.216H94.2812V164.104V165H86.6523ZM101.438 157.966C101.402 157.487 101.192 157.109 100.81 156.831C100.427 156.549 99.9277 156.407 99.3125 156.407C98.7793 156.407 98.3623 156.526 98.0615 156.763C97.7607 156.995 97.6104 157.321 97.6104 157.74C97.6104 158.041 97.7676 158.273 98.082 158.438C98.3919 158.602 99.0505 158.795 100.058 159.019C101.521 159.347 102.498 159.725 102.99 160.153C103.482 160.577 103.729 161.258 103.729 162.197C103.729 163.141 103.357 163.89 102.614 164.446C101.871 164.998 100.867 165.273 99.5996 165.273C98.3281 165.273 97.3346 164.979 96.6191 164.392C95.9036 163.804 95.5208 162.967 95.4707 161.883H97.4941C97.5169 162.416 97.7106 162.826 98.0752 163.113C98.4398 163.4 98.9479 163.544 99.5996 163.544C100.27 163.544 100.791 163.437 101.165 163.223C101.543 163.004 101.732 162.703 101.732 162.32C101.732 161.942 101.598 161.664 101.329 161.486C101.065 161.309 100.5 161.124 99.6338 160.933C98.0387 160.577 96.9723 160.192 96.4346 159.777C95.9014 159.367 95.6348 158.727 95.6348 157.856C95.6348 156.881 95.988 156.109 96.6943 155.539C97.4007 154.965 98.3555 154.678 99.5586 154.678C100.684 154.678 101.6 154.974 102.307 155.566C103.013 156.159 103.405 156.959 103.482 157.966H101.438Z" fill="white"/>
<path d="M375.233 165V156.735H372.198V155.847V154.951H380.367V155.84V156.735H377.332V165H376.286H375.233ZM380.839 165L384.394 154.951H385.61H386.827L390.389 165H389.274H388.16L387.483 162.956H383.669L383.006 165H381.926H380.839ZM385.583 157.187L384.25 161.227H386.923L385.583 157.187ZM391.742 165V154.951H392.788H396.808C397.765 154.951 398.535 155.209 399.118 155.724C399.706 156.234 400 156.909 400 157.747C400 158.713 399.674 159.42 399.022 159.866C398.849 159.985 398.653 160.085 398.435 160.167C398.558 160.217 398.669 160.272 398.77 160.331C399.344 160.673 399.642 161.247 399.665 162.054L399.713 163.701C399.722 164.029 399.756 164.262 399.815 164.398C399.875 164.535 399.989 164.645 400.157 164.727V164.993H397.84C397.785 164.888 397.737 164.665 397.696 164.323C397.655 163.977 397.632 163.605 397.628 163.209L397.614 162.279C397.605 161.828 397.471 161.507 397.211 161.315C396.956 161.124 396.53 161.028 395.933 161.028H393.841V165H392.795H391.742ZM393.841 159.34H396.274C396.817 159.34 397.222 159.23 397.491 159.012C397.765 158.788 397.901 158.453 397.901 158.007C397.901 157.565 397.771 157.234 397.512 157.016C397.257 156.792 396.871 156.681 396.356 156.681H393.841V159.34ZM406.18 165.273C404.717 165.273 403.555 164.802 402.693 163.858C401.837 162.915 401.408 161.639 401.408 160.03C401.408 158.39 401.855 157.089 402.748 156.127C403.641 155.161 404.849 154.678 406.371 154.678C407.592 154.678 408.597 154.983 409.386 155.594C410.179 156.204 410.641 157.029 410.773 158.068H408.668C408.613 157.631 408.367 157.248 407.93 156.92C407.492 156.587 407.009 156.421 406.48 156.421C405.569 156.421 404.856 156.738 404.341 157.371C403.826 158 403.568 158.875 403.568 159.996C403.568 161.135 403.814 162.004 404.307 162.601C404.803 163.193 405.528 163.489 406.48 163.489H406.474C407.285 163.489 407.918 163.179 408.374 162.56C408.625 162.209 408.809 161.796 408.928 161.322V161.302H406.562V159.572H410.773V164.993H409.372L409.167 163.694L409.044 163.858C408.338 164.802 407.381 165.273 406.173 165.273H406.18ZM412.756 165V154.951H420.152V155.84V156.735H414.854V158.868H419.77V159.729V160.598H414.854V163.216H420.385V164.104V165H412.756ZM424.261 165V156.735H421.226V155.847V154.951H429.395V155.84V156.735H426.359V165H425.313H424.261ZM436.101 157.966C436.064 157.487 435.854 157.109 435.472 156.831C435.089 156.549 434.59 156.407 433.975 156.407C433.441 156.407 433.024 156.526 432.724 156.763C432.423 156.995 432.272 157.321 432.272 157.74C432.272 158.041 432.43 158.273 432.744 158.438C433.054 158.602 433.713 158.795 434.72 159.019C436.183 159.347 437.16 159.725 437.652 160.153C438.145 160.577 438.391 161.258 438.391 162.197C438.391 163.141 438.019 163.89 437.276 164.446C436.534 164.998 435.529 165.273 434.262 165.273C432.99 165.273 431.997 164.979 431.281 164.392C430.566 163.804 430.183 162.967 430.133 161.883H432.156C432.179 162.416 432.373 162.826 432.737 163.113C433.102 163.4 433.61 163.544 434.262 163.544C434.932 163.544 435.453 163.437 435.827 163.223C436.205 163.004 436.395 162.703 436.395 162.32C436.395 161.942 436.26 161.664 435.991 161.486C435.727 161.309 435.162 161.124 434.296 160.933C432.701 160.577 431.634 160.192 431.097 159.777C430.563 159.367 430.297 158.727 430.297 157.856C430.297 156.881 430.65 156.109 431.356 155.539C432.063 154.965 433.018 154.678 434.221 154.678C435.346 154.678 436.262 154.974 436.969 155.566C437.675 156.159 438.067 156.959 438.145 157.966H436.101Z" fill="white"/>
<rect x="134" y="26" width="96" height="232" rx="2" fill="#2C65FF" fill-opacity="0.24"/>
<path d="M169.06 135V124.951H170.105H171.158V133.216H176.155V134.104V135H169.06ZM177.618 135V124.951H178.664H181.918C183.299 124.951 184.347 125.357 185.062 126.168C185.783 126.979 186.143 128.166 186.143 129.729C186.143 131.452 185.769 132.762 185.021 133.66C184.279 134.553 183.187 135 181.747 135H178.664H177.618ZM179.717 133.271H181.487C182.34 133.271 182.978 132.983 183.401 132.409C183.83 131.83 184.044 130.965 184.044 129.812C184.044 128.768 183.846 127.986 183.449 127.467C183.053 126.943 182.456 126.681 181.658 126.681H179.717V133.271ZM187.735 135V124.951H188.781H191.939C193.083 124.951 193.954 125.22 194.551 125.758C195.148 126.291 195.446 127.07 195.446 128.096C195.446 129.18 195.148 130.005 194.551 130.57C193.954 131.131 193.083 131.411 191.939 131.411C191.128 131.407 190.426 131.411 189.834 131.425V135H188.788H187.735ZM189.834 129.682H191.584C192.172 129.682 192.612 129.552 192.903 129.292C193.2 129.032 193.348 128.64 193.348 128.116C193.348 127.638 193.2 127.28 192.903 127.043C192.612 126.801 192.172 126.681 191.584 126.681H189.834V129.682ZM167.897 151V140.951H175.048V141.84V142.735H169.996V145.019H174.398V145.88V146.748H169.996V151H168.95H167.897ZM176.456 151V140.951H177.502H180.756C182.137 140.951 183.185 141.357 183.9 142.168C184.62 142.979 184.98 144.166 184.98 145.729C184.98 147.452 184.607 148.762 183.859 149.66C183.117 150.553 182.025 151 180.585 151H177.502H176.456ZM178.555 149.271H180.325C181.177 149.271 181.815 148.983 182.239 148.409C182.668 147.83 182.882 146.965 182.882 145.812C182.882 144.768 182.684 143.986 182.287 143.467C181.891 142.943 181.294 142.681 180.496 142.681H178.555V149.271ZM188.433 151H187.455H186.471V140.951H188.009H189.547L191.379 148.915L193.184 140.951H194.701H196.219V151H195.241H194.257V142.551L192.377 151H191.345H190.312L188.433 142.366V151ZM159.332 167V156.951H160.378H161.431V165.216H166.428V166.104V167H159.332ZM167.104 167L170.659 156.951H171.876H173.093L176.654 167H175.54H174.426L173.749 164.956H169.935L169.271 167H168.191H167.104ZM171.849 159.187L170.516 163.227H173.188L171.849 159.187ZM180.66 163.22L177.153 156.951H178.397H179.648L181.74 161.312L183.702 156.951H184.892H186.081L182.759 163.179V167H181.713H180.66V163.22ZM187.346 167V156.951H194.742V157.84V158.735H189.444V160.868H194.359V161.729V162.598H189.444V165.216H194.975V166.104V167H187.346ZM196.684 167V156.951H197.729H201.749C202.706 156.951 203.476 157.209 204.06 157.724C204.647 158.234 204.941 158.909 204.941 159.747C204.941 160.713 204.616 161.42 203.964 161.866C203.791 161.985 203.595 162.085 203.376 162.167C203.499 162.217 203.611 162.272 203.711 162.331C204.285 162.673 204.584 163.247 204.606 164.054L204.654 165.701C204.663 166.029 204.698 166.262 204.757 166.398C204.816 166.535 204.93 166.645 205.099 166.727V166.993H202.781C202.727 166.888 202.679 166.665 202.638 166.323C202.597 165.977 202.574 165.605 202.569 165.209L202.556 164.279C202.547 163.828 202.412 163.507 202.152 163.315C201.897 163.124 201.471 163.028 200.874 163.028H198.782V167H197.736H196.684ZM198.782 161.34H201.216C201.758 161.34 202.164 161.23 202.433 161.012C202.706 160.788 202.843 160.453 202.843 160.007C202.843 159.565 202.713 159.234 202.453 159.016C202.198 158.792 201.813 158.681 201.298 158.681H198.782V161.34Z" fill="white"/>
<rect x="246" y="26" width="96" height="232" rx="2" fill="#2C65FF" fill-opacity="0.24"/>
<circle cx="69.5" cy="91.5" r="26.5" fill="white"/>
<circle cx="181.5" cy="91.5" r="26.5" fill="white"/>
<path d="M281.06 135V124.951H282.105H283.158V133.216H288.155V134.104V135H281.06ZM289.618 135V124.951H290.664H293.918C295.299 124.951 296.347 125.357 297.062 126.168C297.783 126.979 298.143 128.166 298.143 129.729C298.143 131.452 297.769 132.762 297.021 133.66C296.279 134.553 295.187 135 293.747 135H290.664H289.618ZM291.717 133.271H293.487C294.34 133.271 294.978 132.983 295.401 132.409C295.83 131.83 296.044 130.965 296.044 129.812C296.044 128.768 295.846 127.986 295.449 127.467C295.053 126.943 294.456 126.681 293.658 126.681H291.717V133.271ZM299.735 135V124.951H300.781H303.939C305.083 124.951 305.954 125.22 306.551 125.758C307.148 126.291 307.446 127.07 307.446 128.096C307.446 129.18 307.148 130.005 306.551 130.57C305.954 131.131 305.083 131.411 303.939 131.411C303.128 131.407 302.426 131.411 301.834 131.425V135H300.788H299.735ZM301.834 129.682H303.584C304.172 129.682 304.612 129.552 304.903 129.292C305.2 129.032 305.348 128.64 305.348 128.116C305.348 127.638 305.2 127.28 304.903 127.043C304.612 126.801 304.172 126.681 303.584 126.681H301.834V129.682ZM279.897 151V140.951H287.048V141.84V142.735H281.996V145.019H286.398V145.88V146.748H281.996V151H280.95H279.897ZM288.456 151V140.951H289.502H292.756C294.137 140.951 295.185 141.357 295.9 142.168C296.62 142.979 296.98 144.166 296.98 145.729C296.98 147.452 296.607 148.762 295.859 149.66C295.117 150.553 294.025 151 292.585 151H289.502H288.456ZM290.555 149.271H292.325C293.177 149.271 293.815 148.983 294.239 148.409C294.668 147.83 294.882 146.965 294.882 145.812C294.882 144.768 294.684 143.986 294.287 143.467C293.891 142.943 293.294 142.681 292.496 142.681H290.555V149.271ZM300.433 151H299.455H298.471V140.951H300.009H301.547L303.379 148.915L305.184 140.951H306.701H308.219V151H307.241H306.257V142.551L304.377 151H303.345H302.312L300.433 142.366V151ZM271.332 167V156.951H272.378H273.431V165.216H278.428V166.104V167H271.332ZM279.104 167L282.659 156.951H283.876H285.093L288.654 167H287.54H286.426L285.749 164.956H281.935L281.271 167H280.191H279.104ZM283.849 159.187L282.516 163.227H285.188L283.849 159.187ZM292.66 163.22L289.153 156.951H290.397H291.648L293.74 161.312L295.702 156.951H296.892H298.081L294.759 163.179V167H293.713H292.66V163.22ZM299.346 167V156.951H306.742V157.84V158.735H301.444V160.868H306.359V161.729V162.598H301.444V165.216H306.975V166.104V167H299.346ZM308.684 167V156.951H309.729H313.749C314.706 156.951 315.476 157.209 316.06 157.724C316.647 158.234 316.941 158.909 316.941 159.747C316.941 160.713 316.616 161.42 315.964 161.866C315.791 161.985 315.595 162.085 315.376 162.167C315.499 162.217 315.611 162.272 315.711 162.331C316.285 162.673 316.584 163.247 316.606 164.054L316.654 165.701C316.663 166.029 316.698 166.262 316.757 166.398C316.816 166.535 316.93 166.645 317.099 166.727V166.993H314.781C314.727 166.888 314.679 166.665 314.638 166.323C314.597 165.977 314.574 165.605 314.569 165.209L314.556 164.279C314.547 163.828 314.412 163.507 314.152 163.315C313.897 163.124 313.471 163.028 312.874 163.028H310.782V167H309.736H308.684ZM310.782 161.34H313.216C313.758 161.34 314.164 161.23 314.433 161.012C314.706 160.788 314.843 160.453 314.843 160.007C314.843 159.565 314.713 159.234 314.453 159.016C314.198 158.792 313.813 158.681 313.298 158.681H310.782V161.34Z" fill="white"/>
<circle cx="293.5" cy="91.5" r="26.5" fill="white"/>
<circle cx="405.5" cy="91.5" r="26.5" fill="white"/>
<circle cx="97" cy="45" r="7" fill="white"/>
<path d="M101 45H93" stroke="#2C65FF" stroke-width="1.25" stroke-linejoin="round"/>
<path d="M97 49V41" stroke="#2C65FF" stroke-opacity="0.65" stroke-width="1.25" stroke-linejoin="round"/>
<path d="M230.5 48H246" stroke="black"/>
<path d="M230.5 132L246 170" stroke="black"/>
<path d="M230.5 218.5H245.5" stroke="black"/>
</svg>
