<?xml version="1.0" encoding="UTF-8"?><svg version="1.1" width="432px" height="232px" viewBox="0 0 432.0 232.0" xmlns="http://www.w3.org/2000/svg" xmlns:xlink="http://www.w3.org/1999/xlink"><defs><clipPath id="i0"><path d="M127.522491,0 C133.045339,-9.04872171e-15 137.522491,4.4771525 137.522491,10 L137.522491,38.5945946 C137.522491,44.1174421 133.045339,48.5945946 127.522491,48.5945946 L10,48.5945946 C4.4771525,48.5945946 2.45271059e-15,44.1174421 0,38.5945946 L0,10 C1.10000309e-15,4.4771525 4.4771525,4.56724431e-15 10,0 L127.522491,0 Z"></path></clipPath><clipPath id="i1"><path d="M127.522491,0 C133.045339,7.61826213e-16 137.522491,4.4771525 137.522491,10 L137.522491,38.5945946 C137.522491,44.1174421 133.045339,48.5945946 127.522491,48.5945946 L10,48.5945946 C4.4771525,48.5945946 2.45271059e-15,44.1174421 0,38.5945946 L0,10 C1.10000309e-15,4.4771525 4.4771525,1.01453063e-15 10,0 L127.522491,0 Z"></path></clipPath><clipPath id="i2"><path d="M127.522491,0 C133.045339,8.7960173e-15 137.522491,4.4771525 137.522491,10 L137.522491,38.5945946 C137.522491,44.1174421 133.045339,48.5945946 127.522491,48.5945946 L10,48.5945946 C4.4771525,48.5945946 2.45271059e-15,44.1174421 0,38.5945946 L0,10 C1.10000309e-15,4.4771525 4.4771525,2.79088747e-15 10,0 L127.522491,0 Z"></path></clipPath><clipPath id="i3"><path d="M127.522491,0 C133.045339,-1.01453063e-15 137.522491,4.4771525 137.522491,10 L137.522491,38.5945946 C137.522491,44.1174421 133.045339,48.5945946 127.522491,48.5945946 L10,48.5945946 C4.4771525,48.5945946 2.45271059e-15,44.1174421 0,38.5945946 L0,10 C1.10000309e-15,4.4771525 4.4771525,1.01453063e-15 10,0 L127.522491,0 Z"></path></clipPath><clipPath id="i4"><path d="M19.4758754,3.7826973 C20.8585744,3.7826973 21.9497855,4.08978378 22.746519,4.70411351 C23.5507266,5.31138919 23.9513356,6.14361081 23.9513356,7.20093514 L23.9513356,13.7162162 C23.9513356,14.2377459 23.9931903,14.6056541 24.0754048,14.8199405 C24.1561246,15.0270162 24.3205536,15.1914541 24.5657024,15.3127838 L24.5657024,15.7415135 L21.3967059,15.7415135 C21.2681522,15.2699892 21.1829481,14.8091243 21.1425882,14.3590757 L21.1321246,14.3377568 C20.2128166,15.4806703 19.0199585,16.0522054 17.555045,16.0522054 C16.5266159,16.0522054 15.6984913,15.7449622 15.0721661,15.1306324 C14.4458408,14.5090919 14.1319308,13.6947405 14.1319308,12.6874216 C14.1319308,11.6230432 14.4144498,10.7729514 14.9809827,10.1371459 C15.5460208,9.49412973 16.3696609,9.09048108 17.4533979,8.9262 L19.384692,8.64764324 C19.8884429,8.57616216 20.3069896,8.45467568 20.641827,8.28334054 C20.7838339,8.21185946 20.892955,8.08316216 20.9676955,7.89756216 C21.04991,7.71180541 21.081301,7.52244324 21.0603737,7.32963243 C21.0200138,7.00091351 20.8585744,6.74383243 20.5805398,6.55807568 C20.2457024,6.33657838 19.7658685,6.22590811 19.1395433,6.22590811 C18.5804844,6.22590811 18.144,6.36871351 17.8315848,6.65448108 C17.5176747,6.94024865 17.3502561,7.3438973 17.3308235,7.86542703 L14.5205813,7.86542703 C14.5818685,6.50085946 15.0243322,5.47927568 15.8494671,4.80067568 C16.6731073,4.12191892 17.8824083,3.7826973 19.4758754,3.7826973 Z M38.0937301,3.7826973 C39.4779239,3.7826973 40.5676401,4.08978378 41.3643737,4.70411351 C42.1685813,5.31138919 42.5706851,6.14361081 42.5706851,7.20093514 L42.5706851,13.7162162 C42.5706851,14.2377459 42.611045,14.6056541 42.6932595,14.8199405 C42.7739792,15.0270162 42.9384083,15.1914541 43.1835571,15.3127838 L43.1835571,15.7415135 L40.0160554,15.7415135 C39.8860069,15.2699892 39.8008028,14.8091243 39.7604429,14.3590757 L39.7499792,14.3377568 C38.8306713,15.4806703 37.6378131,16.0522054 36.1728997,16.0522054 C35.1444706,16.0522054 34.316346,15.7449622 33.6900208,15.1306324 C33.0636955,14.5090919 32.7497855,13.6947405 32.7497855,12.6874216 C32.7497855,11.6230432 33.0323045,10.7729514 33.5988374,10.1371459 C34.1638754,9.49412973 34.9875156,9.09048108 36.0712526,8.9262 L38.0025467,8.64764324 C38.5062976,8.57616216 38.9248443,8.45467568 39.2596817,8.28334054 C39.4016886,8.21185946 39.5108097,8.08316216 39.5855502,7.89756216 C39.6677647,7.71180541 39.6991557,7.52244324 39.6782284,7.32963243 C39.6378685,7.00091351 39.4779239,6.74383243 39.1983945,6.55807568 C38.8635571,6.33657838 38.3837232,6.22590811 37.7573979,6.22590811 C37.1983391,6.22590811 36.7618547,6.36871351 36.4494394,6.65448108 C36.1355294,6.94024865 35.9696055,7.3438973 35.9486782,7.86542703 L33.138436,7.86542703 C33.1997232,6.50085946 33.6421869,5.47927568 34.4673218,4.80067568 C35.2909619,4.12191892 36.500263,3.7826973 38.0937301,3.7826973 Z M48.0058131,0 L48.0058131,5.61502703 L48.0671003,5.52928108 C48.8578547,4.36489189 49.899737,3.7826973 51.1942422,3.7826973 C52.6038478,3.7826973 53.7384083,4.32915135 54.5964291,5.42221622 C55.4559446,6.51512432 55.884955,7.95462162 55.884955,9.74055135 C55.884955,11.6337027 55.4559446,13.1589459 54.5964291,14.3162811 C53.7384083,15.4736162 52.6038478,16.0522054 51.1942422,16.0522054 C49.9072111,16.0522054 48.8638339,15.5093568 48.0671003,14.4233459 L47.944526,14.2520108 L47.944526,15.752173 L45.0729965,15.752173 L45.0729965,0 L48.0058131,0 Z M62.5368581,3.7826973 C63.9195571,3.7826973 65.0092734,4.08978378 65.8060069,4.70411351 C66.6102145,5.31138919 67.0123183,6.14361081 67.0123183,7.20093514 L67.0123183,13.7162162 C67.0123183,14.2377459 67.0526782,14.6056541 67.1348927,14.8199405 C67.2171073,15.0270162 67.3800415,15.1914541 67.6251903,15.3127838 L67.6251903,15.7415135 L64.4576886,15.7415135 C64.3291349,15.2699892 64.2439308,14.8091243 64.2020761,14.3590757 L64.1916125,14.3377568 C63.2723045,15.4806703 62.0809412,16.0522054 60.6160277,16.0522054 C59.5875986,16.0522054 58.759474,15.7449622 58.1331488,15.1306324 C57.5053287,14.5090919 57.1929135,13.6947405 57.1929135,12.6874216 C57.1929135,11.6230432 57.4754325,10.7729514 58.0404706,10.1371459 C58.6055087,9.49412973 59.4306436,9.09048108 60.5128858,8.9262 L62.4441799,8.64764324 C62.9494256,8.57616216 63.3679723,8.45467568 63.7013149,8.28334054 C63.8448166,8.21185946 63.9539377,8.08316216 64.0286782,7.89756216 C64.1108927,7.71180541 64.1407889,7.52244324 64.1213564,7.32963243 C64.0795017,7.00091351 63.9195571,6.74383243 63.6400277,6.55807568 C63.3066851,6.33657838 62.8268512,6.22590811 62.1990311,6.22590811 C61.6414671,6.22590811 61.2049827,6.36871351 60.8910727,6.65448108 C60.5786574,6.94024865 60.4112388,7.3438973 60.3903114,7.86542703 L57.581564,7.86542703 C57.6428512,6.50085946 58.0853149,5.47927568 58.908955,4.80067568 C59.73409,4.12191892 60.943391,3.7826973 62.5368581,3.7826973 Z M73.746436,3.7826973 C75.2591834,3.7826973 76.4774533,4.13273514 77.4042353,4.83281081 C78.3310173,5.52567568 78.7944083,6.44364324 78.7944083,7.58671351 L75.8929827,7.58671351 C75.8929827,7.13666486 75.7151003,6.77596757 75.3608304,6.50446486 C75.0065606,6.23296216 74.5371903,6.09721081 73.9512249,6.09721081 C73.384692,6.09721081 72.9422284,6.20082703 72.6223391,6.40805946 C72.3084291,6.60808108 72.1529689,6.89024324 72.1529689,7.25454595 C72.1529689,7.51178378 72.332346,7.73312432 72.69409,7.91888108 C73.0483599,8.09758378 73.6776747,8.294 74.5850242,8.50828649 C76.3832803,8.92980541 77.5851073,9.39051351 78.192,9.89056757 C78.7973979,10.3907784 79.1008443,11.1766 79.1008443,12.2480324 C79.1008443,13.3911027 78.6583806,14.3126757 77.7719585,15.0127514 C76.8930104,15.705773 75.7315433,16.0522054 74.2875571,16.0522054 C72.5774948,16.0522054 71.2605675,15.7093784 70.3337855,15.0235676 C69.4144775,14.3377568 68.9226851,13.3374919 68.8613979,12.0230865 L71.8465329,12.0230865 C71.8659654,12.5588811 72.0916817,12.9804 72.520692,13.2874865 C72.9556817,13.5875189 73.5461315,13.7375351 74.2875571,13.7375351 C74.8735225,13.7375351 75.3309343,13.6340757 75.6568028,13.4268432 C75.9916401,13.2125568 76.157564,12.9161297 76.157564,12.5374054 C76.157564,12.2731135 75.9976194,12.0480108 75.6777301,11.8624108 C75.3578408,11.6837081 74.7957924,11.5015568 73.9915848,11.3158 C72.1111142,10.8729622 70.8539792,10.4050432 70.2216747,9.91204324 C69.5878754,9.42625405 69.2709758,8.67256757 69.2709758,7.65098378 C69.2709758,6.49380541 69.6790588,5.56141622 70.4967197,4.85428649 C71.3218547,4.13978919 72.4040969,3.7826973 73.746436,3.7826973 Z M85.6511003,3.7826973 C87.3477093,3.7826973 88.6511834,4.32194054 89.5645121,5.40074054 C90.4838201,6.47232973 90.9442215,8.00102162 90.9442215,9.98712973 C90.9576747,10.2156811 90.9412318,10.4478378 90.8933979,10.6836 L83.320692,10.6836 C83.3894533,11.605173 83.5837785,12.2945892 83.9036678,12.7516919 C84.3117509,13.323227 84.9933841,13.6089946 85.9470727,13.6089946 C86.3895363,13.6089946 86.7991142,13.4768486 87.1728166,13.2125568 C87.5554879,12.9482649 87.782699,12.6303622 87.8574394,12.2588486 L90.8425744,12.2588486 C90.5899516,13.4447135 90.0039862,14.3733405 89.0846782,15.0448865 C88.1713495,15.7164324 87.0263253,16.0522054 85.6511003,16.0522054 C83.9619654,16.0522054 82.6569965,15.5057514 81.7376886,14.4126865 C80.8243599,13.3196216 80.3684429,11.7624 80.3684429,9.74055135 C80.3684429,7.87608649 80.8348235,6.41871892 81.7675848,5.36860541 C82.7018408,4.31128108 83.9948512,3.7826973 85.6511003,3.7826973 Z M29.8588235,0.953708108 L29.8588235,4.09338919 L31.6466159,4.09338919 L31.6466159,6.24722703 L29.8588235,6.24722703 L29.8588235,12.869573 C29.8588235,13.1410757 29.933564,13.3196216 30.083045,13.4053676 C30.24,13.4911135 30.5598893,13.5340649 31.0442076,13.5340649 L31.6466159,13.5340649 L31.6466159,15.8164432 C31.1563183,15.8593946 30.5524152,15.8807135 29.8378962,15.8807135 C28.8019931,15.8807135 28.056083,15.6879027 27.6001661,15.3021243 C27.1502284,14.9091351 26.9260069,14.2698811 26.9260069,13.3840486 L26.9260069,6.24722703 L25.3833633,6.24722703 L25.3833633,4.09338919 L26.9260069,4.09338919 L26.9260069,0.953708108 L29.8588235,0.953708108 Z M6.42768166,0 C8.49201384,0 10.0585744,0.635805405 11.1273633,1.90741622 C12.2036263,3.17902703 12.7417578,5.03988649 12.7417578,7.49030811 C12.7417578,10.1906 12.1841938,12.2445838 11.0660761,13.6519459 C9.95692734,15.0520973 8.32459516,15.752173 6.1720692,15.752173 L0,15.752173 L0,0 L6.42768166,0 Z M21.081301,10.1050108 C20.7404844,10.3050324 20.2905467,10.4657081 19.7314879,10.5871946 L18.6492457,10.8014811 C18.1380208,10.9014919 17.7493702,11.0872486 17.4832941,11.3587514 C17.2187128,11.6230432 17.0856747,11.9588162 17.0856747,12.3659135 C17.0856747,12.8303838 17.2037647,13.1946865 17.4429343,13.4589784 C17.680609,13.7232703 18.0154464,13.8554162 18.4444567,13.8554162 C19.384692,13.8554162 20.1335917,13.5089838 20.6926505,12.8161189 C20.8017716,12.6803676 20.892955,12.4803459 20.9676955,12.2158973 C21.0439308,11.9516054 21.081301,11.6945243 21.081301,11.4444973 L21.081301,10.1050108 Z M39.6991557,10.1050108 C39.3583391,10.3050324 38.9084014,10.4657081 38.3493426,10.5871946 L37.2671003,10.8014811 C36.7558754,10.9014919 36.3672249,11.0872486 36.1011488,11.3587514 C35.8365675,11.6230432 35.7035294,11.9588162 35.7035294,12.3659135 C35.7035294,12.8303838 35.8231142,13.1946865 36.0607889,13.4589784 C36.2999585,13.7232703 36.633301,13.8554162 37.0623114,13.8554162 C38.0025467,13.8554162 38.7514464,13.5089838 39.3105052,12.8161189 C39.4196263,12.6803676 39.5108097,12.4803459 39.5855502,12.2158973 C39.6617855,11.9516054 39.6991557,11.6945243 39.6991557,11.4444973 L39.6991557,10.1050108 Z M64.1407889,10.1050108 C63.7999723,10.3050324 63.3515294,10.4657081 62.7924706,10.5871946 L61.7087336,10.8014811 C61.1975087,10.9014919 60.8103529,11.0872486 60.5442768,11.3587514 C60.2782007,11.6230432 60.1451626,11.9588162 60.1451626,12.3659135 C60.1451626,12.8303838 60.2647474,13.1946865 60.503917,13.4589784 C60.7415917,13.7232703 61.0749343,13.8554162 61.5054394,13.8554162 C62.4441799,13.8554162 63.1945744,13.5089838 63.7521384,12.8161189 C63.8612595,12.6803676 63.9539377,12.4803459 64.0286782,12.2158973 C64.1034187,11.9516054 64.1407889,11.6945243 64.1407889,11.4444973 L64.1407889,10.1050108 Z M50.3661176,6.44019459 C49.5828374,6.44019459 48.9699654,6.76515135 48.5275017,7.41522162 C48.0850381,8.06544865 47.8638062,8.96915135 47.8638062,10.1263297 C47.8638062,11.1908649 48.0850381,12.0230865 48.5275017,12.6231514 C48.9639862,13.2232162 49.5723737,13.5232486 50.3571488,13.5232486 C51.1464083,13.5232486 51.7637647,13.2161622 52.2062284,12.6016757 C52.648692,11.9802919 52.8699239,11.1193838 52.8699239,10.0192649 C52.8699239,8.89767027 52.648692,8.0224973 52.2062284,7.3939027 C51.7637647,6.7580973 51.1493979,6.44019459 50.3661176,6.44019459 Z M6.03903114,2.71110811 L3.13760554,2.71110811 L3.13760554,13.0410649 L5.78341869,13.0410649 C7.05699654,13.0410649 8.01068512,12.5910162 8.64448443,11.6909189 C9.28575779,10.7836108 9.60564706,9.42625405 9.60564706,7.61884865 C9.60564706,5.98293514 9.30967474,4.75772432 8.71623529,3.94337297 C8.12429066,3.12181081 7.23188927,2.71110811 6.03903114,2.71110811 Z M85.6107405,6.30083784 C84.8543668,6.30083784 84.2788651,6.60447568 83.8827405,7.21175135 C83.6375917,7.59752973 83.4612042,8.10103243 83.352083,8.72257297 L87.8888304,8.72257297 C87.8200692,8.0224973 87.6436817,7.47604324 87.3566782,7.08305405 C86.9829758,6.56152432 86.4,6.30083784 85.6107405,6.30083784 Z"></path></clipPath><clipPath id="i5"><path d="M19.4758754,3.7826973 C20.8585744,3.7826973 21.9497855,4.08978378 22.746519,4.70411351 C23.5507266,5.31138919 23.9513356,6.14361081 23.9513356,7.20093514 L23.9513356,13.7162162 C23.9513356,14.2377459 23.9931903,14.6056541 24.0754048,14.8199405 C24.1561246,15.0270162 24.3205536,15.1914541 24.5657024,15.3127838 L24.5657024,15.7415135 L21.3967059,15.7415135 C21.2681522,15.2699892 21.1829481,14.8091243 21.1425882,14.3590757 L21.1321246,14.3377568 C20.2128166,15.4806703 19.0199585,16.0522054 17.555045,16.0522054 C16.5266159,16.0522054 15.6984913,15.7449622 15.0721661,15.1306324 C14.4458408,14.5090919 14.1319308,13.6947405 14.1319308,12.6874216 C14.1319308,11.6230432 14.4144498,10.7729514 14.9809827,10.1371459 C15.5460208,9.49412973 16.3696609,9.09048108 17.4533979,8.9262 L19.384692,8.64764324 C19.8884429,8.57616216 20.3069896,8.45467568 20.641827,8.28334054 C20.7838339,8.21185946 20.892955,8.08316216 20.9676955,7.89756216 C21.04991,7.71180541 21.081301,7.52244324 21.0603737,7.32963243 C21.0200138,7.00091351 20.8585744,6.74383243 20.5805398,6.55807568 C20.2457024,6.33657838 19.7658685,6.22590811 19.1395433,6.22590811 C18.5804844,6.22590811 18.144,6.36871351 17.8315848,6.65448108 C17.5176747,6.94024865 17.3502561,7.3438973 17.3308235,7.86542703 L14.5205813,7.86542703 C14.5818685,6.50085946 15.0243322,5.47927568 15.8494671,4.80067568 C16.6731073,4.12191892 17.8824083,3.7826973 19.4758754,3.7826973 Z M38.0937301,3.7826973 C39.4779239,3.7826973 40.5676401,4.08978378 41.3643737,4.70411351 C42.1685813,5.31138919 42.5706851,6.14361081 42.5706851,7.20093514 L42.5706851,13.7162162 C42.5706851,14.2377459 42.611045,14.6056541 42.6932595,14.8199405 C42.7739792,15.0270162 42.9384083,15.1914541 43.1835571,15.3127838 L43.1835571,15.7415135 L40.0160554,15.7415135 C39.8860069,15.2699892 39.8008028,14.8091243 39.7604429,14.3590757 L39.7499792,14.3377568 C38.8306713,15.4806703 37.6378131,16.0522054 36.1728997,16.0522054 C35.1444706,16.0522054 34.316346,15.7449622 33.6900208,15.1306324 C33.0636955,14.5090919 32.7497855,13.6947405 32.7497855,12.6874216 C32.7497855,11.6230432 33.0323045,10.7729514 33.5988374,10.1371459 C34.1638754,9.49412973 34.9875156,9.09048108 36.0712526,8.9262 L38.0025467,8.64764324 C38.5062976,8.57616216 38.9248443,8.45467568 39.2596817,8.28334054 C39.4016886,8.21185946 39.5108097,8.08316216 39.5855502,7.89756216 C39.6677647,7.71180541 39.6991557,7.52244324 39.6782284,7.32963243 C39.6378685,7.00091351 39.4779239,6.74383243 39.1983945,6.55807568 C38.8635571,6.33657838 38.3837232,6.22590811 37.7573979,6.22590811 C37.1983391,6.22590811 36.7618547,6.36871351 36.4494394,6.65448108 C36.1355294,6.94024865 35.9696055,7.3438973 35.9486782,7.86542703 L33.138436,7.86542703 C33.1997232,6.50085946 33.6421869,5.47927568 34.4673218,4.80067568 C35.2909619,4.12191892 36.500263,3.7826973 38.0937301,3.7826973 Z M48.0058131,0 L48.0058131,5.61502703 L48.0671003,5.52928108 C48.8578547,4.36489189 49.899737,3.7826973 51.1942422,3.7826973 C52.6038478,3.7826973 53.7384083,4.32915135 54.5964291,5.42221622 C55.4559446,6.51512432 55.884955,7.95462162 55.884955,9.74055135 C55.884955,11.6337027 55.4559446,13.1589459 54.5964291,14.3162811 C53.7384083,15.4736162 52.6038478,16.0522054 51.1942422,16.0522054 C49.9072111,16.0522054 48.8638339,15.5093568 48.0671003,14.4233459 L47.944526,14.2520108 L47.944526,15.752173 L45.0729965,15.752173 L45.0729965,0 L48.0058131,0 Z M62.5368581,3.7826973 C63.9195571,3.7826973 65.0092734,4.08978378 65.8060069,4.70411351 C66.6102145,5.31138919 67.0123183,6.14361081 67.0123183,7.20093514 L67.0123183,13.7162162 C67.0123183,14.2377459 67.0526782,14.6056541 67.1348927,14.8199405 C67.2171073,15.0270162 67.3800415,15.1914541 67.6251903,15.3127838 L67.6251903,15.7415135 L64.4576886,15.7415135 C64.3291349,15.2699892 64.2439308,14.8091243 64.2020761,14.3590757 L64.1916125,14.3377568 C63.2723045,15.4806703 62.0809412,16.0522054 60.6160277,16.0522054 C59.5875986,16.0522054 58.759474,15.7449622 58.1331488,15.1306324 C57.5053287,14.5090919 57.1929135,13.6947405 57.1929135,12.6874216 C57.1929135,11.6230432 57.4754325,10.7729514 58.0404706,10.1371459 C58.6055087,9.49412973 59.4306436,9.09048108 60.5128858,8.9262 L62.4441799,8.64764324 C62.9494256,8.57616216 63.3679723,8.45467568 63.7013149,8.28334054 C63.8448166,8.21185946 63.9539377,8.08316216 64.0286782,7.89756216 C64.1108927,7.71180541 64.1407889,7.52244324 64.1213564,7.32963243 C64.0795017,7.00091351 63.9195571,6.74383243 63.6400277,6.55807568 C63.3066851,6.33657838 62.8268512,6.22590811 62.1990311,6.22590811 C61.6414671,6.22590811 61.2049827,6.36871351 60.8910727,6.65448108 C60.5786574,6.94024865 60.4112388,7.3438973 60.3903114,7.86542703 L57.581564,7.86542703 C57.6428512,6.50085946 58.0853149,5.47927568 58.908955,4.80067568 C59.73409,4.12191892 60.943391,3.7826973 62.5368581,3.7826973 Z M73.746436,3.7826973 C75.2591834,3.7826973 76.4774533,4.13273514 77.4042353,4.83281081 C78.3310173,5.52567568 78.7944083,6.44364324 78.7944083,7.58671351 L75.8929827,7.58671351 C75.8929827,7.13666486 75.7151003,6.77596757 75.3608304,6.50446486 C75.0065606,6.23296216 74.5371903,6.09721081 73.9512249,6.09721081 C73.384692,6.09721081 72.9422284,6.20082703 72.6223391,6.40805946 C72.3084291,6.60808108 72.1529689,6.89024324 72.1529689,7.25454595 C72.1529689,7.51178378 72.332346,7.73312432 72.69409,7.91888108 C73.0483599,8.09758378 73.6776747,8.294 74.5850242,8.50828649 C76.3832803,8.92980541 77.5851073,9.39051351 78.192,9.89056757 C78.7973979,10.3907784 79.1008443,11.1766 79.1008443,12.2480324 C79.1008443,13.3911027 78.6583806,14.3126757 77.7719585,15.0127514 C76.8930104,15.705773 75.7315433,16.0522054 74.2875571,16.0522054 C72.5774948,16.0522054 71.2605675,15.7093784 70.3337855,15.0235676 C69.4144775,14.3377568 68.9226851,13.3374919 68.8613979,12.0230865 L71.8465329,12.0230865 C71.8659654,12.5588811 72.0916817,12.9804 72.520692,13.2874865 C72.9556817,13.5875189 73.5461315,13.7375351 74.2875571,13.7375351 C74.8735225,13.7375351 75.3309343,13.6340757 75.6568028,13.4268432 C75.9916401,13.2125568 76.157564,12.9161297 76.157564,12.5374054 C76.157564,12.2731135 75.9976194,12.0480108 75.6777301,11.8624108 C75.3578408,11.6837081 74.7957924,11.5015568 73.9915848,11.3158 C72.1111142,10.8729622 70.8539792,10.4050432 70.2216747,9.91204324 C69.5878754,9.42625405 69.2709758,8.67256757 69.2709758,7.65098378 C69.2709758,6.49380541 69.6790588,5.56141622 70.4967197,4.85428649 C71.3218547,4.13978919 72.4040969,3.7826973 73.746436,3.7826973 Z M85.6511003,3.7826973 C87.3477093,3.7826973 88.6511834,4.32194054 89.5645121,5.40074054 C90.4838201,6.47232973 90.9442215,8.00102162 90.9442215,9.98712973 C90.9576747,10.2156811 90.9412318,10.4478378 90.8933979,10.6836 L83.320692,10.6836 C83.3894533,11.605173 83.5837785,12.2945892 83.9036678,12.7516919 C84.3117509,13.323227 84.9933841,13.6089946 85.9470727,13.6089946 C86.3895363,13.6089946 86.7991142,13.4768486 87.1728166,13.2125568 C87.5554879,12.9482649 87.782699,12.6303622 87.8574394,12.2588486 L90.8425744,12.2588486 C90.5899516,13.4447135 90.0039862,14.3733405 89.0846782,15.0448865 C88.1713495,15.7164324 87.0263253,16.0522054 85.6511003,16.0522054 C83.9619654,16.0522054 82.6569965,15.5057514 81.7376886,14.4126865 C80.8243599,13.3196216 80.3684429,11.7624 80.3684429,9.74055135 C80.3684429,7.87608649 80.8348235,6.41871892 81.7675848,5.36860541 C82.7018408,4.31128108 83.9948512,3.7826973 85.6511003,3.7826973 Z M29.8588235,0.953708108 L29.8588235,4.09338919 L31.6466159,4.09338919 L31.6466159,6.24722703 L29.8588235,6.24722703 L29.8588235,12.869573 C29.8588235,13.1410757 29.933564,13.3196216 30.083045,13.4053676 C30.24,13.4911135 30.5598893,13.5340649 31.0442076,13.5340649 L31.6466159,13.5340649 L31.6466159,15.8164432 C31.1563183,15.8593946 30.5524152,15.8807135 29.8378962,15.8807135 C28.8019931,15.8807135 28.056083,15.6879027 27.6001661,15.3021243 C27.1502284,14.9091351 26.9260069,14.2698811 26.9260069,13.3840486 L26.9260069,6.24722703 L25.3833633,6.24722703 L25.3833633,4.09338919 L26.9260069,4.09338919 L26.9260069,0.953708108 L29.8588235,0.953708108 Z M6.42768166,0 C8.49201384,0 10.0585744,0.635805405 11.1273633,1.90741622 C12.2036263,3.17902703 12.7417578,5.03988649 12.7417578,7.49030811 C12.7417578,10.1906 12.1841938,12.2445838 11.0660761,13.6519459 C9.95692734,15.0520973 8.32459516,15.752173 6.1720692,15.752173 L0,15.752173 L0,0 L6.42768166,0 Z M21.081301,10.1050108 C20.7404844,10.3050324 20.2905467,10.4657081 19.7314879,10.5871946 L18.6492457,10.8014811 C18.1380208,10.9014919 17.7493702,11.0872486 17.4832941,11.3587514 C17.2187128,11.6230432 17.0856747,11.9588162 17.0856747,12.3659135 C17.0856747,12.8303838 17.2037647,13.1946865 17.4429343,13.4589784 C17.680609,13.7232703 18.0154464,13.8554162 18.4444567,13.8554162 C19.384692,13.8554162 20.1335917,13.5089838 20.6926505,12.8161189 C20.8017716,12.6803676 20.892955,12.4803459 20.9676955,12.2158973 C21.0439308,11.9516054 21.081301,11.6945243 21.081301,11.4444973 L21.081301,10.1050108 Z M39.6991557,10.1050108 C39.3583391,10.3050324 38.9084014,10.4657081 38.3493426,10.5871946 L37.2671003,10.8014811 C36.7558754,10.9014919 36.3672249,11.0872486 36.1011488,11.3587514 C35.8365675,11.6230432 35.7035294,11.9588162 35.7035294,12.3659135 C35.7035294,12.8303838 35.8231142,13.1946865 36.0607889,13.4589784 C36.2999585,13.7232703 36.633301,13.8554162 37.0623114,13.8554162 C38.0025467,13.8554162 38.7514464,13.5089838 39.3105052,12.8161189 C39.4196263,12.6803676 39.5108097,12.4803459 39.5855502,12.2158973 C39.6617855,11.9516054 39.6991557,11.6945243 39.6991557,11.4444973 L39.6991557,10.1050108 Z M64.1407889,10.1050108 C63.7999723,10.3050324 63.3515294,10.4657081 62.7924706,10.5871946 L61.7087336,10.8014811 C61.1975087,10.9014919 60.8103529,11.0872486 60.5442768,11.3587514 C60.2782007,11.6230432 60.1451626,11.9588162 60.1451626,12.3659135 C60.1451626,12.8303838 60.2647474,13.1946865 60.503917,13.4589784 C60.7415917,13.7232703 61.0749343,13.8554162 61.5054394,13.8554162 C62.4441799,13.8554162 63.1945744,13.5089838 63.7521384,12.8161189 C63.8612595,12.6803676 63.9539377,12.4803459 64.0286782,12.2158973 C64.1034187,11.9516054 64.1407889,11.6945243 64.1407889,11.4444973 L64.1407889,10.1050108 Z M50.3661176,6.44019459 C49.5828374,6.44019459 48.9699654,6.76515135 48.5275017,7.41522162 C48.0850381,8.06544865 47.8638062,8.96915135 47.8638062,10.1263297 C47.8638062,11.1908649 48.0850381,12.0230865 48.5275017,12.6231514 C48.9639862,13.2232162 49.5723737,13.5232486 50.3571488,13.5232486 C51.1464083,13.5232486 51.7637647,13.2161622 52.2062284,12.6016757 C52.648692,11.9802919 52.8699239,11.1193838 52.8699239,10.0192649 C52.8699239,8.89767027 52.648692,8.0224973 52.2062284,7.3939027 C51.7637647,6.7580973 51.1493979,6.44019459 50.3661176,6.44019459 Z M6.03903114,2.71110811 L3.13760554,2.71110811 L3.13760554,13.0410649 L5.78341869,13.0410649 C7.05699654,13.0410649 8.01068512,12.5910162 8.64448443,11.6909189 C9.28575779,10.7836108 9.60564706,9.42625405 9.60564706,7.61884865 C9.60564706,5.98293514 9.30967474,4.75772432 8.71623529,3.94337297 C8.12429066,3.12181081 7.23188927,2.71110811 6.03903114,2.71110811 Z M85.6107405,6.30083784 C84.8543668,6.30083784 84.2788651,6.60447568 83.8827405,7.21175135 C83.6375917,7.59752973 83.4612042,8.10103243 83.352083,8.72257297 L87.8888304,8.72257297 C87.8200692,8.0224973 87.6436817,7.47604324 87.3566782,7.08305405 C86.9829758,6.56152432 86.4,6.30083784 85.6107405,6.30083784 Z"></path></clipPath></defs><g transform="translate(137.52249134948096 29.0)"><path d="M0,53.2972973 L156.955017,0" stroke="#000000" stroke-width="1" fill="none" stroke-miterlimit="10"></path></g><g transform="translate(135.280276816609 81.51351351351352)"><path d="M0,0 L165.176471,3.91891892" stroke="#000000" stroke-width="1" fill="none" stroke-miterlimit="10"></path></g><g transform="translate(133.03806228373702 82.29729729729729)"><path d="M0,0 L162.934256,67.4054054" stroke="#000000" stroke-width="1" fill="none" stroke-miterlimit="10"></path></g><g transform="translate(135.280276816609 83.08108108108107)"><path d="M0,0 L160.692042,129.324324" stroke="#000000" stroke-width="1" fill="none" stroke-miterlimit="10"></path></g><g transform="translate(137.52249134948096 85.43243243243242)"><path d="M0,61.9189189 L158.449827,0" stroke="#000000" stroke-width="1" fill="none" stroke-miterlimit="10"></path></g><g transform="translate(134.53287197231833 30.567567567567572)"><path d="M0,118.351351 L159.944637,0" stroke="#000000" stroke-width="1" fill="none" stroke-miterlimit="10"></path></g><g transform="translate(136.02768166089965 147.35135135135135)"><path d="M0,0 L161.439446,3.13513514" stroke="#000000" stroke-width="1" fill="none" stroke-miterlimit="10"></path></g><g transform="translate(136.02768166089965 148.13513513513513)"><path d="M0,0 L162.186851,64.2702703" stroke="#000000" stroke-width="1" fill="none" stroke-miterlimit="10"></path></g><g transform="translate(136.7750865051903 149.7027027027027)"><path d="M0,60.3513514 L159.197232,0" stroke="#000000" stroke-width="1" fill="none" stroke-miterlimit="10"></path></g><g transform="translate(136.7750865051903 21.16216216216216)"><path d="M0,0 L156.955017,64.2702703" stroke="#1D2028" stroke-width="1" fill="none" stroke-miterlimit="10"></path></g><g transform="translate(135.280276816609 20.378378378378386)"><path d="M0,0 L165.176471,134.810811" stroke="#000000" stroke-width="1" fill="none" stroke-miterlimit="10"></path></g><g transform="translate(128.55363321799314 19.594594594594582)"><path d="M0,0 L180.871972,9.40540541" stroke="#000000" stroke-width="1" fill="none" stroke-miterlimit="10"></path></g><g transform="translate(135.280276816609 19.594594594594582)"><path d="M0,0 L165.176471,198.297297" stroke="#000000" stroke-width="1" fill="none" stroke-miterlimit="10"></path></g><g transform="translate(294.0 0.0)"><g clip-path="url(#i0)"><polygon points="0,0 137.522491,0 137.522491,48.5945946 0,48.5945946 0,0" stroke="none" fill="#2C65FF"></polygon></g></g><g transform="translate(294.477508650519 61.13513513513513)"><g clip-path="url(#i1)"><polygon points="0,0 137.522491,0 137.522491,48.5945946 0,48.5945946 0,0" stroke="none" fill="#2C65FF"></polygon></g></g><g transform="translate(294.477508650519 122.27027027027026)"><g clip-path="url(#i2)"><polygon points="0,0 137.522491,0 137.522491,48.5945946 0,48.5945946 0,0" stroke="none" fill="#2C65FF"></polygon></g></g><g transform="translate(294.477508650519 183.40540540540542)"><g clip-path="url(#i3)"><polygon points="0,0 137.522491,0 137.522491,48.5945946 0,48.5945946 0,0" stroke="none" fill="#2C65FF"></polygon></g></g><g clip-path="url(#i0)"><polygon points="0,0 137.522491,0 137.522491,48.5945946 0,48.5945946 0,0" stroke="none" fill="#73C750"></polygon></g><g transform="translate(23.0 16.0)"><g clip-path="url(#i4)"><polygon points="0,0 90.9487451,0 90.9487451,16.0522054 0,16.0522054 0,0" stroke="none" fill="#FFFFFF"></polygon></g></g><g transform="translate(318.0 15.999999999999998)"><g clip-path="url(#i5)"><polygon points="0,0 90.9487451,0 90.9487451,16.0522054 0,16.0522054 0,0" stroke="none" fill="#FFFFFF"></polygon></g></g><g transform="translate(0.0 61.13513513513513)"><g clip-path="url(#i1)"><polygon points="0,0 137.522491,0 137.522491,48.5945946 0,48.5945946 0,0" stroke="none" fill="#73C750"></polygon></g></g><g transform="translate(0.0 122.27027027027026)"><g clip-path="url(#i2)"><polygon points="0,0 137.522491,0 137.522491,48.5945946 0,48.5945946 0,0" stroke="none" fill="#73C750"></polygon></g></g><g transform="translate(0.0 183.40540540540542)"><g clip-path="url(#i3)"><polygon points="0,0 137.522491,0 137.522491,48.5945946 0,48.5945946 0,0" stroke="none" fill="#73C750"></polygon></g></g></svg>