<?xml version="1.0" encoding="UTF-8"?><svg version="1.1" width="433px" height="233px" viewBox="0 0 433.0 233.0" xmlns="http://www.w3.org/2000/svg" xmlns:xlink="http://www.w3.org/1999/xlink"><defs><clipPath id="i0"><path d="M96,0 L96,231.994262 L10,231.994262 C4.4771525,231.994262 6.76353751e-16,227.517109 0,221.994262 L0,10 C-6.76353751e-16,4.4771525 4.4771525,2.79088747e-15 10,0 L96,0 Z"></path></clipPath><clipPath id="i1"><path d="M86,0 C91.5228475,7.61826213e-16 96,4.4771525 96,10 L96,221.994262 C96,227.517109 91.5228475,231.994262 86,231.994262 L0,231.994262 L0,0 L86,0 Z"></path></clipPath><clipPath id="i2"><path d="M7,0 C10.8659932,0 14,3.13392924 14,6.99982686 C14,10.8657245 10.8659932,13.9996537 7,13.9996537 C3.13400675,13.9996537 0,10.8657245 0,6.99982686 C0,3.13392924 3.13400675,0 7,0 Z"></path></clipPath><clipPath id="i3"><path d="M4.0879,0 C5.2135,0 6.1295,0.295992679 6.8359,0.887978036 C7.5423,1.48096337 7.9342,2.28094358 8.0117,3.28791868 L5.9677,3.28791868 C5.9313,2.80893052 5.7217,2.43093987 5.3388,2.15294675 C4.956,1.87095372 4.457,1.72895724 3.8418,1.72895724 C3.3086,1.72895724 2.8916,1.84795429 2.5908,2.08494843 C2.29,2.31694269 2.1396,2.64293463 2.1396,3.06192427 C2.1396,3.36291682 2.2969,3.59491108 2.6113,3.759907 C2.9212,3.92390294 3.5797,4.11689817 4.5869,4.34089263 C6.0498,4.66888452 7.0273,5.04687517 7.5195,5.47486458 C8.0117,5.8988541 8.2578,6.57983725 8.2578,7.51881403 C8.2578,8.46279068 7.8864,9.21177215 7.1435,9.7677584 C6.4007,10.3197447 5.3958,10.5947379 4.1289,10.5947379 C2.8574,10.5947379 1.8639,10.3007452 1.1484,9.71375974 C0.4329,9.12577428 0.0501,8.28879498 0,7.20482179 L2.0234,7.20482179 C2.0462,7.73780861 2.2399,8.14779847 2.6045,8.43479137 C2.9691,8.72178427 3.4772,8.86578071 4.1289,8.86578071 C4.7988,8.86578071 5.3206,8.75878336 5.6943,8.54478865 C6.0726,8.32579407 6.2617,8.02480151 6.2617,7.64181098 C6.2617,7.26382033 6.1273,6.98582721 5.8584,6.80783161 C5.5941,6.63083599 5.0289,6.44584057 4.1631,6.25484529 C2.568,5.8988541 1.5016,5.51386362 0.9638,5.09887388 C0.4306,4.68888402 0.164,4.04889985 0.164,3.1779214 C0.164,2.20294551 0.5172,1.43096461 1.2236,0.860978704 C1.93,0.286992901 2.8847,0 4.0879,0 Z M14.2324,0 C15.7181,0 16.8939,0.482988054 17.7597,1.44896416 C18.6302,2.41094037 19.0654,3.71190819 19.0654,5.35186762 C19.0654,6.96082783 18.6302,8.23679627 17.7597,9.17977294 C16.8939,10.1237496 15.7181,10.5947379 14.2324,10.5947379 C12.7558,10.5947379 11.5823,10.1237496 10.7119,9.17977294 C9.8414,8.23679627 9.4062,6.96082783 9.4062,5.35186762 C9.4062,3.71190819 9.8414,2.41094037 10.7119,1.44896416 C11.5823,0.482988054 12.7558,0 14.2324,0 Z M22.791,0.272993248 L22.791,6.60283668 C22.791,7.32281887 22.9528,7.86280552 23.2763,8.22279661 C23.6045,8.58278771 24.0967,8.76278326 24.7529,8.76278326 C25.4547,8.76278326 25.956,8.59878731 26.2568,8.27079543 C26.5576,7.93880364 26.708,7.38281739 26.708,6.60283668 L26.708,0.272993248 L28.8066494,0.272993248 L28.8066494,6.53483836 C28.8112,7.96980287 28.4944,9.00677722 27.8564,9.64476144 C27.223,10.2787458 26.1885,10.5947379 24.7529,10.5947379 C23.3766,10.5947379 22.3558,10.2647461 21.6904,9.60376246 C21.0296,8.93877891 20.6969,7.91580421 20.6924,6.53483836 L20.6924,0.272993248 L22.791,0.272993248 Z M45.1513,0 C46.3454,0 47.3343,0.322992011 48.1181,0.969976008 C48.902,1.6129601 49.3623,2.48593851 49.499,3.58891123 L47.3935,3.58891123 C47.3252,3.04592466 47.0905,2.6159353 46.6894,2.29694319 C46.2929,1.97795108 45.7871,1.81795503 45.1719,1.81795503 C44.3926,1.81795503 43.7819,2.12994732 43.3398,2.75493186 C42.8978,3.37391655 42.6767,4.23589523 42.6767,5.33886795 C42.6767,6.41384136 42.8955,7.25682051 43.333,7.86780539 C43.775,8.47379041 44.388,8.77678291 45.1719,8.77678291 C45.7871,8.77678291 46.2929,8.59878731 46.6894,8.2437961 C47.0905,7.8878049 47.3252,7.40781677 47.3935,6.80083179 L49.499,6.80083179 C49.3714,7.96380302 48.9157,8.88578022 48.1318,9.5697633 C47.3525,10.2537464 46.359,10.5947379 45.1513,10.5947379 C43.7386,10.5947379 42.6152,10.1237496 41.7812,9.17977294 C40.9518,8.23679627 40.5371,6.96082783 40.5371,5.35186762 C40.5371,3.71190819 40.9518,2.41094037 41.7812,1.44896416 C42.6152,0.482988054 43.7386,0 45.1513,0 Z M64.0117,0 C65.1371,0 66.0531,0.295992679 66.7601,0.887978036 C67.4661,1.48096337 67.8581,2.28094358 67.9351,3.28791868 L65.8911,3.28791868 C65.8551,2.80893052 65.6451,2.43093987 65.2631,2.15294675 C64.8801,1.87095372 64.3808,1.72895724 63.7656,1.72895724 C63.2324,1.72895724 62.8154,1.84795429 62.5146,2.08494843 C62.2138,2.31694269 62.0635,2.64293463 62.0635,3.06192427 C62.0635,3.36291682 62.2207,3.59491108 62.5351,3.759907 C62.845,3.92390294 63.5036,4.11689817 64.5111,4.34089263 C65.9741,4.66888452 66.9511,5.04687517 67.4431,5.47486458 C67.9351,5.8988541 68.1821,6.57983725 68.1821,7.51881403 C68.1821,8.46279068 67.8101,9.21177215 67.0671,9.7677584 C66.3241,10.3197447 65.3201,10.5947379 64.0527,10.5947379 C62.7812,10.5947379 61.7877,10.3007452 61.0722,9.71375974 C60.3567,9.12577428 59.9739,8.28879498 59.9238,7.20482179 L61.9472,7.20482179 C61.97,7.73780861 62.1637,8.14779847 62.5283,8.43479137 C62.8929,8.72178427 63.401,8.86578071 64.0527,8.86578071 C64.7231,8.86578071 65.2441,8.75878336 65.6181,8.54478865 C65.9961,8.32579407 66.1851,8.02480151 66.1851,7.64181098 C66.1851,7.26382033 66.0511,6.98582721 65.7821,6.80783161 C65.5181,6.63083599 64.9531,6.44584057 64.0869,6.25484529 C62.4918,5.8988541 61.4254,5.51386362 60.8877,5.09887388 C60.3545,4.68888402 60.0879,4.04889985 60.0879,3.1779214 C60.0879,2.20294551 60.4411,1.43096461 61.1474,0.860978704 C61.8538,0.286992901 62.8086,0 64.0117,0 Z M35.9365,0.272993248 C36.8935,0.272993248 37.6637,0.530986866 38.247,1.04597413 C38.8349,1.55596151 39.1289,2.23094482 39.1289,3.06892409 C39.1289,4.0349002 38.803,4.74188271 38.1513,5.18787168 C37.9782,5.30686874 37.7822,5.40686626 37.5635,5.48886424 C37.6865,5.538863 37.7982,5.59386164 37.8984,5.65286018 C38.4726,5.99485172 38.7711,6.56883752 38.7939,7.37581756 L38.8418,9.02277683 C38.8509,9.35076871 38.8851,9.58376295 38.9443,9.71975959 C39.0036,9.8567562 39.1175,9.96675348 39.2861,10.0487515 L39.2861,10.3147449 L36.9687,10.3147449 C36.914,10.2097475 36.8662,9.98675298 36.8252,9.64476144 C36.7842,9.29877 36.7614,8.9267792 36.7568,8.530789 L36.7431,7.600812 C36.734,7.14982315 36.5996,6.82883109 36.3398,6.63683584 C36.0846,6.44584057 35.6585,6.34984294 35.0615,6.34984294 L32.9697,6.34984294 L32.9697,10.3217447 L30.8711,10.3217447 L30.8711,0.272993248 L35.9365,0.272993248 Z M58.5019,0.272993248 L58.5019,2.05694912 L53.2041,2.05694912 L53.2041,4.18989637 L58.1191,4.18989637 L58.1191,5.91985358 L53.2041,5.91985358 L53.2041,8.53778882 L58.7343,8.53778882 L58.7343,10.3217447 L51.1054,10.3217447 L51.1054,0.272993248 L58.5019,0.272993248 Z M14.2324,1.78395587 C13.3802,1.78395587 12.7125,2.09794811 12.2295,2.72693255 C11.7464,3.35591699 11.5049,4.22689545 11.5049,5.33886795 C11.5049,6.42784101 11.7441,7.27981994 12.2226,7.89480473 C12.7057,8.50578961 13.3756,8.81078207 14.2324,8.81078207 C15.0892,8.81078207 15.7591,8.50578961 16.2422,7.89480473 C16.7252,7.27981994 16.9668,6.42784101 16.9668,5.33886795 C16.9668,4.22689545 16.7252,3.35591699 16.2422,2.72693255 C15.7591,2.09794811 15.0892,1.78395587 14.2324,1.78395587 Z M35.4853,2.00295046 L32.9697,2.00295046 L32.9697,4.66188469 L35.4033,4.66188469 C35.9456,4.66188469 36.3512,4.55188741 36.6201,4.3338928 C36.8935,4.10989834 37.0302,3.77490663 37.0302,3.32891766 C37.0302,2.88692859 36.9004,2.55593678 36.6406,2.33794217 C36.3854,2.11394771 36.0003,2.00295046 35.4853,2.00295046 Z"></path></clipPath><clipPath id="i4"><path d="M30.495,9.17977294 C29.639,8.23679627 29.21,6.96082783 29.21,5.35186762 C29.21,3.71190819 29.657,2.41094037 30.55,1.44896416 C31.443,0.482988054 32.651,0 34.173,0 C35.394,0 36.399,0.304992456 37.188,0.915977344 C37.981,1.52596226 38.443,2.35094185 38.575,3.38991615 L36.47,3.38991615 C36.415,2.95292696 36.169,2.56993643 35.732,2.24194455 C35.294,1.90895278 34.811,1.74295689 34.282,1.74295689 C33.371,1.74295689 32.658,2.05994905 32.143,2.69293339 C31.628,3.32191783 31.37,4.19689619 31.37,5.31786847 C31.37,6.45684029 31.616,7.3258188 32.109,7.92280403 C32.5668462,8.46925206 33.2198166,8.7634933 34.0663382,8.80552776 L34.279,8.81 L34.4750422,8.80432448 C35.1912708,8.7569709 35.758,8.44920768 36.176,7.88180505 C36.427,7.53081373 36.611,7.11782395 36.73,6.64383567 L36.73,6.62383616 L34.364,6.62383616 L34.364,4.89387895 L38.575,4.89387895 L38.575,10.3147449 L37.174,10.3147449 L36.969,9.015777 L36.846,9.17977294 C36.1870667,10.0608178 35.3094844,10.5298373 34.2132533,10.5884575 L33.978,10.594 L33.7112146,10.5892181 C32.3749219,10.5340168 31.303125,10.0647511 30.495,9.17977294 Z M62.023,0 C63.148,0 64.064,0.295992679 64.771,0.887978036 C65.477,1.48096337 65.869,2.28094358 65.947,3.28791868 L63.903,3.28791868 C63.866,2.80893052 63.656,2.43093987 63.274,2.15294675 C62.891,1.87095372 62.392,1.72895724 61.777,1.72895724 C61.243,1.72895724 60.826,1.84795429 60.526,2.08494843 C60.225,2.31694269 60.074,2.64293463 60.074,3.06192427 C60.074,3.36291682 60.232,3.59491108 60.546,3.759907 C60.856,3.92390294 61.515,4.11689817 62.522,4.34089263 C63.985,4.66888452 64.962,5.04687517 65.454,5.47486458 C65.947,5.8988541 66.193,6.57983725 66.193,7.51881403 C66.193,8.46279068 65.821,9.21177215 65.078,9.7677584 C64.336,10.3197447 63.331,10.5947379 62.064,10.5947379 C60.792,10.5947379 59.799,10.3007452 59.083,9.71375974 C58.368,9.12577428 57.985,8.28879498 57.935,7.20482179 L59.958,7.20482179 C59.981,7.73780861 60.175,8.14779847 60.539,8.43479137 C60.904,8.72178427 61.412,8.86578071 62.064,8.86578071 C62.734,8.86578071 63.255,8.75878336 63.629,8.54478865 C64.007,8.32579407 64.197,8.02480151 64.197,7.64181098 C64.197,7.26382033 64.062,6.98582721 63.793,6.80783161 C63.529,6.63083599 62.964,6.44584057 62.098,6.25484529 C60.503,5.8988541 59.436,5.51386362 58.899,5.09887388 C58.365,4.68888402 58.099,4.04889985 58.099,3.1779214 C58.099,2.20294551 58.452,1.43096461 59.158,0.860978704 C59.865,0.286992901 60.82,0 62.023,0 Z M8.169,0.272993248 L8.169,2.05694912 L5.134,2.05694912 L5.134,10.3217447 L3.035,10.3217447 L3.035,2.05694912 L0,2.05694912 L0,0.272993248 L8.169,0.272993248 Z M14.629,0.272993248 L18.191,10.3217447 L15.962,10.3217447 L15.285,8.27779525 L11.471,8.27779525 L10.808,10.3217447 L8.641,10.3217447 L12.196,0.272993248 L14.629,0.272993248 Z M24.61,0.272993248 C25.567,0.272993248 26.337,0.530986866 26.92,1.04597413 C27.508,1.55596151 27.802,2.23094482 27.802,3.06892409 C27.802,4.0349002 27.476,4.74188271 26.824,5.18787168 C26.651,5.30686874 26.455,5.40686626 26.237,5.48886424 C26.36,5.538863 26.471,5.59386164 26.572,5.65286018 C27.146,5.99485172 27.444,6.56883752 27.467,7.37581756 L27.515,9.02277683 C27.524,9.35076871 27.558,9.58376295 27.617,9.71975959 C27.677,9.8567562 27.791,9.96675348 27.959,10.0487515 L27.959,10.3147449 L25.642,10.3147449 C25.587,10.2097475 25.539,9.98675298 25.498,9.64476144 C25.457,9.29877 25.434,8.9267792 25.43,8.530789 L25.416,7.600812 C25.407,7.14982315 25.273,6.82883109 25.013,6.63683584 C24.758,6.44584057 24.332,6.34984294 23.735,6.34984294 L21.643,6.34984294 L21.643,10.3217447 L19.544,10.3217447 L19.544,0.272993248 L24.61,0.272993248 Z M47.954,0.272993248 L47.954,2.05694912 L42.656,2.05694912 L42.656,4.18989637 L47.572,4.18989637 L47.572,5.91985358 L42.656,5.91985358 L42.656,8.53778882 L48.187,8.53778882 L48.187,10.3217447 L40.558,10.3217447 L40.558,0.272993248 L47.954,0.272993248 Z M57.197,0.272993248 L57.197,2.05694912 L54.161,2.05694912 L54.161,10.3217447 L52.063,10.3217447 L52.063,2.05694912 L49.028,2.05694912 L49.028,0.272993248 L57.197,0.272993248 Z M13.385,2.50893794 L12.052,6.54883802 L14.725,6.54883802 L13.385,2.50893794 Z M24.158,2.00295046 L21.643,2.00295046 L21.643,4.66188469 L24.076,4.66188469 C24.619,4.66188469 25.024,4.55188741 25.293,4.3338928 C25.567,4.10989834 25.703,3.77490663 25.703,3.32891766 C25.703,2.88692859 25.573,2.55593678 25.314,2.33794217 C25.059,2.11394771 24.673,2.00295046 24.158,2.00295046 Z"></path></clipPath><clipPath id="i5"><path d="M94,0 C95.1045695,-4.2495073e-16 96,0.8954305 96,2 L96,229.994262 C96,231.098831 95.1045695,231.994262 94,231.994262 L2,231.994262 C0.8954305,231.994262 1.3527075e-16,231.098831 0,229.994262 L0,2 C-1.3527075e-16,0.8954305 0.8954305,2.02906125e-16 2,0 L94,0 Z"></path></clipPath><clipPath id="i6"><path d="M2.099,31.9992085 L2.099,40.2640041 L7.096,40.2640041 L7.096,42.04796 L0,42.04796 L0,31.9992085 L2.099,31.9992085 Z M13.761,31.9992085 L17.322,42.04796 L15.094,42.04796 L14.417,40.0040105 L10.603,40.0040105 L9.939,42.04796 L7.772,42.04796 L11.327,31.9992085 L13.761,31.9992085 Z M20.316,31.9992085 L22.408,36.3601007 L24.37,31.9992085 L26.749,31.9992085 L23.427,38.2270545 L23.427,42.04796 L21.328,42.04796 L21.328,38.2680535 L17.821,31.9992085 L20.316,31.9992085 Z M35.41,31.9992085 L35.41,33.7831644 L30.112,33.7831644 L30.112,35.9161116 L35.027,35.9161116 L35.027,37.6460688 L30.112,37.6460688 L30.112,40.2640041 L35.643,40.2640041 L35.643,42.04796 L28.014,42.04796 L28.014,31.9992085 L35.41,31.9992085 Z M42.417,31.9992085 C43.374,31.9992085 44.144,32.2572021 44.728,32.7721894 C45.315,33.2821768 45.609,33.9571601 45.609,34.7951394 C45.609,35.7611155 45.284,36.468098 44.632,36.914087 C44.459,37.033084 44.263,37.1330815 44.044,37.2150795 C44.167,37.2650783 44.279,37.3200769 44.379,37.3790755 C44.953,37.721067 45.252,38.2950528 45.274,39.1020328 L45.322,40.7489921 C45.331,41.076984 45.366,41.3099782 45.425,41.4459749 C45.484,41.5829715 45.598,41.6929688 45.767,41.7749667 L45.767,42.0409601 L43.449,42.0409601 C43.395,41.9359627 43.347,41.7129683 43.306,41.3709767 C43.265,41.0249853 43.242,40.6529945 43.237,40.2570043 L43.224,39.3270273 C43.215,38.8760384 43.08,38.5550464 42.82,38.3630511 C42.565,38.1720558 42.139,38.0760582 41.542,38.0760582 L39.45,38.0760582 L39.45,42.04796 L37.352,42.04796 L37.352,31.9992085 L42.417,31.9992085 Z M12.517,34.2351532 L11.184,38.2750533 L13.856,38.2750533 L12.517,34.2351532 Z M41.966,33.7291657 L39.45,33.7291657 L39.45,36.3881 L41.884,36.3881 C42.426,36.3881 42.832,36.2781027 43.101,36.0601081 C43.374,35.8361136 43.511,35.5011219 43.511,35.0551329 C43.511,34.6131439 43.381,34.2821521 43.121,34.0641574 C42.866,33.840163 42.481,33.7291657 41.966,33.7291657 Z M15.716,15.9996043 L15.716,17.7835601 L10.664,17.7835601 L10.664,20.0675036 L15.066,20.0675036 L15.066,21.7964609 L10.664,21.7964609 L10.664,26.0483557 L8.565,26.0483557 L8.565,15.9996043 L15.716,15.9996043 Z M21.424,15.9996043 C22.805,15.9996043 23.853,16.4055942 24.568,17.2165742 C25.288,18.0275541 25.648,19.2145247 25.648,20.7774861 C25.648,22.5004435 25.275,23.8104111 24.527,24.7083889 C23.785,25.6013668 22.693,26.0483557 21.253,26.0483557 L17.124,26.0483557 L17.124,15.9996043 L21.424,15.9996043 Z M30.215,15.9996043 L32.047,23.9634073 L33.852,15.9996043 L36.887,15.9996043 L36.887,26.0483557 L34.925,26.0483557 L34.925,17.5995647 L33.045,26.0483557 L30.98,26.0483557 L29.101,17.4145693 L29.101,26.0483557 L27.139,26.0483557 L27.139,15.9996043 L30.215,15.9996043 Z M21.164,17.7295615 L19.223,17.7295615 L19.223,24.3193985 L20.993,24.3193985 C21.845,24.3193985 22.483,24.0314056 22.907,23.4574198 C23.336,22.8784341 23.55,22.0134555 23.55,20.860484 C23.55,19.8165099 23.352,19.0345292 22.955,18.515542 C22.559,17.991555 21.962,17.7295615 21.164,17.7295615 Z M11.826,0 L11.826,8.26479558 L16.823,8.26479558 L16.823,10.0487515 L9.728,10.0487515 L9.728,0 L11.826,0 Z M22.586,0 C23.967,0 25.015,0.405989958 25.73,1.2169699 C26.451,2.02794984 26.811,3.21492048 26.811,4.77788182 C26.811,6.50083921 26.437,7.8108068 25.689,8.70878459 C24.947,9.60176251 23.855,10.0487515 22.415,10.0487515 L18.286,10.0487515 L18.286,0 L22.586,0 Z M32.607,0 C33.751,0 34.622,0.268993347 35.219,0.80698004 C35.816,1.33996686 36.114,2.11894759 36.114,3.14492221 C36.114,4.2288954 35.816,5.053875 35.219,5.61886102 C34.622,6.17984715 33.751,6.45984022 32.607,6.45984022 C31.796,6.45584032 31.094,6.45984022 30.502,6.47383987 L30.502,10.0487515 L28.403,10.0487515 L28.403,0 L32.607,0 Z M22.326,1.72995721 L20.385,1.72995721 L20.385,8.31979422 L22.155,8.31979422 C23.008,8.31979422 23.646,8.03180134 24.069,7.45781554 C24.498,6.87882986 24.712,6.01385125 24.712,4.86087977 C24.712,3.81690559 24.514,3.03492493 24.117,2.51593777 C23.721,1.99195073 23.124,1.72995721 22.326,1.72995721 Z M32.252,1.72995721 L30.502,1.72995721 L30.502,4.73088298 L32.252,4.73088298 C32.84,4.73088298 33.28,4.6008862 33.571,4.34089263 C33.868,4.08089906 34.016,3.68890876 34.016,3.16492172 C34.016,2.68693354 33.868,2.3289424 33.571,2.09194826 C33.28,1.84995424 32.84,1.72995721 32.252,1.72995721 Z"></path></clipPath><clipPath id="i7"><path d="M26.5,0 C41.1355459,0 53,11.8641607 53,26.4993446 C53,41.1345284 41.1355459,52.9986891 26.5,52.9986891 C11.8644541,52.9986891 0,41.1345284 0,26.4993446 C0,11.8641607 11.8644541,0 26.5,0 Z"></path></clipPath><clipPath id="i8"><path d="M2.099,31.9992085 L2.099,40.2640041 L7.096,40.2640041 L7.096,42.04796 L0,42.04796 L0,31.9992085 L2.099,31.9992085 Z M13.761,31.9992085 L17.322,42.04796 L15.094,42.04796 L14.417,40.0040105 L10.603,40.0040105 L9.939,42.04796 L7.772,42.04796 L11.327,31.9992085 L13.761,31.9992085 Z M20.316,31.9992085 L22.408,36.3601007 L24.37,31.9992085 L26.749,31.9992085 L23.427,38.2270545 L23.427,42.04796 L21.328,42.04796 L21.328,38.2680535 L17.821,31.9992085 L20.316,31.9992085 Z M35.41,31.9992085 L35.41,33.7831644 L30.112,33.7831644 L30.112,35.9161116 L35.027,35.9161116 L35.027,37.6460688 L30.112,37.6460688 L30.112,40.2640041 L35.643,40.2640041 L35.643,42.04796 L28.014,42.04796 L28.014,31.9992085 L35.41,31.9992085 Z M42.417,31.9992085 C43.374,31.9992085 44.144,32.2572021 44.728,32.7721894 C45.315,33.2821768 45.609,33.9571601 45.609,34.7951394 C45.609,35.7611155 45.284,36.468098 44.632,36.914087 C44.459,37.033084 44.263,37.1330815 44.044,37.2150795 C44.167,37.2650783 44.279,37.3200769 44.379,37.3790755 C44.953,37.721067 45.252,38.2950528 45.274,39.1020328 L45.322,40.7489921 C45.331,41.076984 45.366,41.3099782 45.425,41.4459749 C45.484,41.5829715 45.598,41.6929688 45.767,41.7749667 L45.767,42.0409601 L43.449,42.0409601 C43.395,41.9359627 43.347,41.7129683 43.306,41.3709767 C43.265,41.0249853 43.242,40.6529945 43.237,40.2570043 L43.224,39.3270273 C43.215,38.8760384 43.08,38.5550464 42.82,38.3630511 C42.565,38.1720558 42.139,38.0760582 41.542,38.0760582 L39.45,38.0760582 L39.45,42.04796 L37.352,42.04796 L37.352,31.9992085 L42.417,31.9992085 Z M12.517,34.2351532 L11.184,38.2750533 L13.856,38.2750533 L12.517,34.2351532 Z M41.966,33.7291657 L39.45,33.7291657 L39.45,36.3881 L41.884,36.3881 C42.426,36.3881 42.832,36.2781027 43.101,36.0601081 C43.374,35.8361136 43.511,35.5011219 43.511,35.0551329 C43.511,34.6131439 43.381,34.2821521 43.121,34.0641574 C42.866,33.840163 42.481,33.7291657 41.966,33.7291657 Z M15.716,15.9996043 L15.716,17.7835601 L10.664,17.7835601 L10.664,20.0675036 L15.066,20.0675036 L15.066,21.7964609 L10.664,21.7964609 L10.664,26.0483557 L8.565,26.0483557 L8.565,15.9996043 L15.716,15.9996043 Z M21.424,15.9996043 C22.805,15.9996043 23.853,16.4055942 24.568,17.2165742 C25.288,18.0275541 25.648,19.2145247 25.648,20.7774861 C25.648,22.5004435 25.275,23.8104111 24.527,24.7083889 C23.785,25.6013668 22.693,26.0483557 21.253,26.0483557 L17.124,26.0483557 L17.124,15.9996043 L21.424,15.9996043 Z M30.215,15.9996043 L32.047,23.9634073 L33.852,15.9996043 L36.887,15.9996043 L36.887,26.0483557 L34.925,26.0483557 L34.925,17.5995647 L33.045,26.0483557 L30.98,26.0483557 L29.101,17.4145693 L29.101,26.0483557 L27.139,26.0483557 L27.139,15.9996043 L30.215,15.9996043 Z M21.164,17.7295615 L19.223,17.7295615 L19.223,24.3193985 L20.993,24.3193985 C21.845,24.3193985 22.483,24.0314056 22.907,23.4574198 C23.336,22.8784341 23.55,22.0134555 23.55,20.860484 C23.55,19.8165099 23.352,19.0345292 22.955,18.515542 C22.559,17.991555 21.962,17.7295615 21.164,17.7295615 Z M11.826,0 L11.826,8.26479558 L16.823,8.26479558 L16.823,10.0487515 L9.728,10.0487515 L9.728,0 L11.826,0 Z M22.586,0 C23.967,0 25.015,0.405989958 25.73,1.2169699 C26.451,2.02794984 26.811,3.21492048 26.811,4.77788182 C26.811,6.50083921 26.437,7.8108068 25.689,8.70878459 C24.947,9.60176251 23.855,10.0487515 22.415,10.0487515 L18.286,10.0487515 L18.286,0 L22.586,0 Z M32.607,0 C33.751,0 34.622,0.268993347 35.219,0.80698004 C35.816,1.33996686 36.114,2.11894759 36.114,3.14492221 C36.114,4.2288954 35.816,5.053875 35.219,5.61886102 C34.622,6.17984715 33.751,6.45984022 32.607,6.45984022 C31.796,6.45584032 31.094,6.45984022 30.502,6.47383987 L30.502,10.0487515 L28.403,10.0487515 L28.403,0 L32.607,0 Z M22.326,1.72995721 L20.385,1.72995721 L20.385,8.31979422 L22.155,8.31979422 C23.008,8.31979422 23.646,8.03180134 24.069,7.45781554 C24.498,6.87882986 24.712,6.01385125 24.712,4.86087977 C24.712,3.81690559 24.514,3.03492493 24.117,2.51593777 C23.721,1.99195073 23.124,1.72995721 22.326,1.72995721 Z M32.252,1.72995721 L30.502,1.72995721 L30.502,4.73088298 L32.252,4.73088298 C32.84,4.73088298 33.28,4.6008862 33.571,4.34089263 C33.868,4.08089906 34.016,3.68890876 34.016,3.16492172 C34.016,2.68693354 33.868,2.3289424 33.571,2.09194826 C33.28,1.84995424 32.84,1.72995721 32.252,1.72995721 Z"></path></clipPath></defs><g transform="translate(0.5 0.4942616292545381)"><g clip-path="url(#i0)"><polygon points="0,0 96,0 96,231.994262 0,231.994262 0,0" stroke="none" fill="#73C750"></polygon></g><g transform="translate(336.0 0.0)"><g clip-path="url(#i1)"><polygon points="0,0 96,0 96,231.994262 0,231.994262 0,0" stroke="none" fill="#3249EF"></polygon></g></g><g transform="translate(404.0 12.005441423875482)"><g clip-path="url(#i2)"><polygon points="0,0 14,0 14,13.9996537 0,13.9996537 0,0" stroke="none" fill="#FFFFFF"></polygon></g></g><g transform="translate(407.0 18.505280654533692)"><path d="M8,0.499987633 L0,0.499987633" stroke="#2C65FF" stroke-width="1.25" fill="none" stroke-linejoin="round"></path></g><g transform="translate(410.5 15.005367222640812)"><path d="M0.5,7.99980213 L0.5,0" stroke="rgba(44, 101, 255, 0.65)" stroke-width="1.25" fill="none" stroke-linejoin="round"></path></g><g transform="translate(14.0 128.99680934690934)"><g clip-path="url(#i3)"><polygon points="0,0 68.1821,0 68.1821,10.5947379 0,10.5947379 0,0" stroke="none" fill="#FFFFFF"></polygon></g></g><g transform="translate(351.0 128.99680934690934)"><g clip-path="url(#i4)"><polygon points="0,0 66.193,0 66.193,10.5947379 0,10.5947379 0,0" stroke="none" fill="#FFFFFF"></polygon></g></g><g transform="translate(112.0 0.005738228814152535)"><g clip-path="url(#i5)"><polygon points="0,0 96,0 96,231.994262 0,231.994262 0,0" stroke="none" fill="rgba(44, 101, 255, 0.24)"></polygon></g></g><g transform="translate(136.332 112.95429080002367)"><g clip-path="url(#i6)"><polygon points="0,0 45.767,0 45.767,42.04796 0,42.04796 0,0" stroke="none" fill="#FFFFFF"></polygon></g></g><g transform="translate(224.0 0.005738228814152535)"><g clip-path="url(#i5)"><polygon points="0,0 96,0 96,231.994262 0,231.994262 0,0" stroke="none" fill="rgba(44, 101, 255, 0.24)"></polygon></g></g><g transform="translate(21.0 39.004773612763465)"><g clip-path="url(#i7)"><polygon points="0,0 53,0 53,52.9986891 0,52.9986891 0,0" stroke="none" fill="#FFFFFF"></polygon></g></g><g transform="translate(133.0 39.004773612763465)"><g clip-path="url(#i7)"><polygon points="0,0 53,0 53,52.9986891 0,52.9986891 0,0" stroke="none" fill="#FFFFFF"></polygon></g></g><g transform="translate(249.33200000000002 112.95429080002367)"><g clip-path="url(#i8)"><polygon points="0,0 45.767,0 45.767,42.04796 0,42.04796 0,0" stroke="none" fill="#FFFFFF"></polygon></g></g><g transform="translate(245.0 39.004773612763465)"><g clip-path="url(#i7)"><polygon points="0,0 53,0 53,52.9986891 0,52.9986891 0,0" stroke="none" fill="#FFFFFF"></polygon></g></g><g transform="translate(357.0 39.004773612763465)"><g clip-path="url(#i7)"><polygon points="0,0 53,0 53,52.9986891 0,52.9986891 0,0" stroke="none" fill="#FFFFFF"></polygon></g></g><g transform="translate(68.0 12.005441423875482)"><g clip-path="url(#i2)"><polygon points="0,0 14,0 14,13.9996537 0,13.9996537 0,0" stroke="none" fill="#FFFFFF"></polygon></g></g><g transform="translate(71.0 18.505280654533692)"><path d="M8,0.499987633 L0,0.499987633" stroke="#2C65FF" stroke-width="1.25" fill="none" stroke-linejoin="round"></path></g><g transform="translate(74.5 15.005367222640812)"><path d="M0.5,7.99980213 L0.5,0" stroke="rgba(44, 101, 255, 0.65)" stroke-width="1.25" fill="none" stroke-linejoin="round"></path></g><g transform="translate(208.5 21.505206453299024)"><path d="M0,0.499987633 L15.5,0.499987633" stroke="#000000" stroke-width="1" fill="none" stroke-miterlimit="10"></path></g><g transform="translate(208.5 106.00311645185593)"><path d="M0,0 L15.5,37.9990601" stroke="#000000" stroke-width="1" fill="none" stroke-miterlimit="10"></path></g><g transform="translate(208.5 192.00098934979553)"><path d="M0,0.499987633 L15,0.499987633" stroke="#000000" stroke-width="1" fill="none" stroke-miterlimit="10"></path></g></g></svg>