<?xml version="1.0" encoding="UTF-8"?>
<svg width="24px" height="12px" viewBox="0 0 24 12" version="1.1" xmlns="http://www.w3.org/2000/svg" xmlns:xlink="http://www.w3.org/1999/xlink">
    <title>Tm</title>
    <g id="DAG图" stroke="none" stroke-width="1" fill="none" fill-rule="evenodd">
        <g id="处理节点-增删字段" transform="translate(-36.000000, -822.000000)" fill="#2C65FF" fill-rule="nonzero">
            <g id="Tm" transform="translate(36.272000, 822.576000)">
                <polygon id="路径" points="0 0 0 1.136 4.032 1.136 4.032 11.424 5.328 11.424 5.328 1.136 9.36 1.136 9.36 0"></polygon>
                <path d="M14.7733333,2.928 C13.8453333,2.928 13.0613333,3.36 12.4373333,4.256 L12.4373333,3.152 L11.1573333,3.152 L11.1573333,11.424 L12.4373333,11.424 L12.4373333,6.384 C12.4373333,5.728 12.6293333,5.168 13.0133333,4.72 C13.3973333,4.24 13.8773333,4.016 14.4693333,4.016 C15.7333333,4.016 16.3733333,4.736 16.3733333,6.208 L16.3733333,11.424 L17.6533333,11.424 L17.6533333,6.24 C17.6533333,5.568 17.8293333,5.04 18.2133333,4.624 C18.5653333,4.208 19.0293333,4.016 19.5733333,4.016 C20.2773333,4.016 20.7893333,4.192 21.1093333,4.576 C21.4133333,4.928 21.5733333,5.472 21.5733333,6.208 L21.5733333,11.424 L22.8533333,11.424 L22.8533333,6 C22.8533333,5.056 22.5813333,4.304 22.0693333,3.744 C21.5253333,3.2 20.8373333,2.928 19.9733333,2.928 C19.3973333,2.928 18.9173333,3.056 18.5173333,3.312 C18.0693333,3.552 17.6853333,3.952 17.3653333,4.496 C16.9013333,3.44 16.0373333,2.928 14.7733333,2.928 Z" id="路径"></path>
            </g>
        </g>
    </g>
</svg>