<?xml version="1.0" encoding="UTF-8"?>
<svg width="24px" height="24px" viewBox="0 0 24 24" version="1.1" xmlns="http://www.w3.org/2000/svg" xmlns:xlink="http://www.w3.org/1999/xlink">
    <title>tm</title>
    <g id="DAG图" stroke="none" stroke-width="1" fill="none" fill-rule="evenodd">
        <g id="tm" fill="#2C65FF" fill-rule="nonzero">
            <g id="Tm" transform="translate(1.000000, 6.000000)">
                <polygon id="路径" points="0 0 0 1.136 4.032 1.136 4.032 11.424 5.328 11.424 5.328 1.136 9.36 1.136 9.36 0"></polygon>
                <path d="M13.7733333,2.928 C12.8453333,2.928 12.0613333,3.36 11.4373333,4.256 L11.4373333,3.152 L10.1573333,3.152 L10.1573333,11.424 L11.4373333,11.424 L11.4373333,6.384 C11.4373333,5.728 11.6293333,5.168 12.0133333,4.72 C12.3973333,4.24 12.8773333,4.016 13.4693333,4.016 C14.7333333,4.016 15.3733333,4.736 15.3733333,6.208 L15.3733333,11.424 L16.6533333,11.424 L16.6533333,6.24 C16.6533333,5.568 16.8293333,5.04 17.2133333,4.624 C17.5653333,4.208 18.0293333,4.016 18.5733333,4.016 C19.2773333,4.016 19.7893333,4.192 20.1093333,4.576 C20.4133333,4.928 20.5733333,5.472 20.5733333,6.208 L20.5733333,11.424 L21.8533333,11.424 L21.8533333,6 C21.8533333,5.056 21.5813333,4.304 21.0693333,3.744 C20.5253333,3.2 19.8373333,2.928 18.9733333,2.928 C18.3973333,2.928 17.9173333,3.056 17.5173333,3.312 C17.0693333,3.552 16.6853333,3.952 16.3653333,4.496 C15.9013333,3.44 15.0373333,2.928 13.7733333,2.928 Z" id="路径"></path>
            </g>
        </g>
    </g>
</svg>