<?xml version="1.0" encoding="UTF-8"?>
<svg width="24px" height="24px" viewBox="0 0 24 24" version="1.1" xmlns="http://www.w3.org/2000/svg" xmlns:xlink="http://www.w3.org/1999/xlink">
    <title>Fc</title>
    <g id="DAG图" stroke="none" stroke-width="1" fill="none" fill-rule="evenodd">
        <g id="Fc" fill="#2C65FF" fill-rule="nonzero">
            <g transform="translate(4.000000, 7.000000)" id="路径">
                <polygon points="0 0 0 11.424 1.312 11.424 1.312 6.112 7.312 6.112 7.312 4.976 1.312 4.976 1.312 1.136 7.648 1.136 7.648 0"></polygon>
                <path d="M13.1733333,2.928 C11.9413333,2.928 10.9653333,3.36 10.2613333,4.24 C9.60533333,5.04 9.28533333,6.064 9.28533333,7.328 C9.28533333,8.592 9.60533333,9.616 10.2613333,10.4 C10.9493333,11.232 11.9093333,11.648 13.1573333,11.648 C14.1813333,11.648 14.9973333,11.376 15.6213333,10.848 C16.2613333,10.304 16.6613333,9.488 16.8533333,8.432 L15.5733333,8.432 C15.3813333,9.856 14.5653333,10.576 13.1573333,10.576 C12.3253333,10.576 11.6853333,10.272 11.2533333,9.696 C10.8053333,9.12 10.5973333,8.32 10.5973333,7.312 C10.5973333,6.304 10.8213333,5.504 11.2693333,4.912 C11.7333333,4.304 12.3733333,4 13.1733333,4 C13.8293333,4 14.3573333,4.144 14.7733333,4.464 C15.1733333,4.784 15.4293333,5.264 15.5413333,5.904 L16.8053333,5.904 C16.6613333,4.896 16.2773333,4.144 15.6373333,3.648 C15.0133333,3.168 14.1973333,2.928 13.1733333,2.928 Z"></path>
            </g>
        </g>
    </g>
</svg>