<?xml version="1.0" encoding="UTF-8"?>
<svg width="17px" height="34px" viewBox="0 0 17 34" version="1.1" xmlns="http://www.w3.org/2000/svg" xmlns:xlink="http://www.w3.org/1999/xlink">
    <title>datareplication_icon_table1</title>
    <g id="DAG复制任务" stroke="none" stroke-width="1" fill="none" fill-rule="evenodd">
        <g id="DAG（目标点设置）" transform="translate(-832.000000, -399.000000)">
            <g id="编组-14" transform="translate(817.000000, 339.000000)">
                <g id="编组-2" transform="translate(0.000000, 48.000000)">
                    <g id="datareplication_icon_table1" transform="translate(15.564326, 12.000000)">
                        <g transform="translate(7.435674, 0.000000)" fill="#4E5969">
                            <g id="形状结合">
                                <path d="M7,0 C8.1045695,-2.02906125e-16 9,0.8954305 9,2 L9,7 C9,8.1045695 8.1045695,9 7,9 L2,9 C0.8954305,9 1.3527075e-16,8.1045695 0,7 L0,2 C-1.3527075e-16,0.8954305 0.8954305,2.02906125e-16 2,0 L7,0 Z M6.99845784,0.801542116 L2.00154216,0.801542116 C1.33880044,0.801542116 0.801542116,1.33880044 0.801542116,2.00154216 L0.801542116,2.00154216 L0.801542116,6.99845784 C0.801542116,7.66119956 1.33880044,8.19845788 2.00154216,8.19845788 L2.00154216,8.19845788 L6.99845784,8.19845788 C7.66119956,8.19845788 8.19845788,7.66119956 8.19845788,6.99845784 L8.19845788,6.99845784 L8.19845788,2.00154216 C8.19845788,1.33880044 7.66119956,0.801542116 6.99845784,0.801542116 L6.99845784,0.801542116 Z"></path>
                            </g>
                            <rect id="矩形" x="0.357713399" y="2.12865279" width="8" height="1"></rect>
                            <rect id="矩形" x="0.357713399" y="4.06432639" width="8" height="1"></rect>
                            <rect id="矩形" x="0.357713399" y="6" width="8" height="1"></rect>
                            <rect id="矩形" transform="translate(3.114928, 5.649689) rotate(-90.000000) translate(-3.114928, -5.649689) " x="-0.235383615" y="5.21401495" width="6.70062289" height="1"></rect>
                            <rect id="矩形" transform="translate(5.600499, 5.649689) rotate(-90.000000) translate(-5.600499, -5.649689) " x="2.25018752" y="5.21401495" width="6.70062289" height="1"></rect>
                        </g>
                        <g id="datareplication_icon_table2" transform="translate(7.435674, 25.000000)">
                            <g id="datareplication_icon_table1" fill="#FD945D">
                                <path d="M7,0 C8.1045695,-2.02906125e-16 9,0.8954305 9,2 L9,7 C9,8.1045695 8.1045695,9 7,9 L2,9 C0.8954305,9 1.3527075e-16,8.1045695 0,7 L0,2 C-1.3527075e-16,0.8954305 0.8954305,2.02906125e-16 2,0 L7,0 Z M6.99845784,0.801542116 L2.00154216,0.801542116 C1.33880044,0.801542116 0.801542116,1.33880044 0.801542116,2.00154216 L0.801542116,2.00154216 L0.801542116,6.99845784 C0.801542116,7.66119956 1.33880044,8.19845788 2.00154216,8.19845788 L2.00154216,8.19845788 L6.99845784,8.19845788 C7.66119956,8.19845788 8.19845788,7.66119956 8.19845788,6.99845784 L8.19845788,6.99845784 L8.19845788,2.00154216 C8.19845788,1.33880044 7.66119956,0.801542116 6.99845784,0.801542116 L6.99845784,0.801542116 Z" id="形状结合"></path>
                            </g>
                            <rect id="矩形" fill="#EF9868" x="0.357713399" y="2.12865279" width="8" height="1"></rect>
                            <rect id="矩形" fill="#EF9868" x="0.357713399" y="4.06432639" width="8" height="1"></rect>
                            <rect id="矩形" fill="#EF9868" x="0.357713399" y="6" width="8" height="1"></rect>
                            <rect id="矩形" fill="#EF9868" transform="translate(3.114928, 5.649689) rotate(-90.000000) translate(-3.114928, -5.649689) " x="-0.235383615" y="5.21401495" width="6.70062289" height="1"></rect>
                            <rect id="矩形" fill="#EF9868" transform="translate(5.600499, 5.649689) rotate(-90.000000) translate(-5.600499, -5.649689) " x="2.25018752" y="5.21401495" width="6.70062289" height="1"></rect>
                        </g>
                        <g id="编组-7" transform="translate(-0.000000, 2.477961)" fill="#4E5969">
                            <rect id="矩形" transform="translate(0.435674, 13.515393) rotate(-90.000000) translate(-0.435674, -13.515393) " x="-13.079719" y="13.079719" width="27.0307852" height="1"></rect>
                            <rect id="矩形" transform="translate(3.217837, 0.435674) rotate(-180.000000) translate(-3.217837, -0.435674) " x="2.27373675e-13" y="0" width="6.43567361" height="1"></rect>
                            <rect id="矩形" transform="translate(3.217837, 26.522039) rotate(-180.000000) translate(-3.217837, -26.522039) " x="2.27373675e-13" y="26.0863654" width="6.43567361" height="1"></rect>
                            <polygon id="三角形" transform="translate(5.551442, 26.522039) rotate(-270.000000) translate(-5.551442, -26.522039) " points="5.55144238 25.022039 8.05144238 28.022039 3.05144238 28.022039"></polygon>
                        </g>
                    </g>
                </g>
            </g>
        </g>
    </g>
</svg>