<?xml version="1.0" standalone="no"?><!DOCTYPE svg PUBLIC "-//W3C//DTD SVG 1.1//EN" "http://www.w3.org/Graphics/SVG/1.1/DTD/svg11.dtd"><svg class="icon" width="200px" height="200.00px" viewBox="0 0 1024 1024" version="1.1" xmlns="http://www.w3.org/2000/svg"><path d="M153.6 353.400471h716.8v70.234353H153.6V353.400471z m0 180.705882h716.8v70.294588H153.6V534.106353z m0 180.705882h716.8v70.234353H153.6v-70.234353z"  /><path d="M338.763294 890.518588V413.515294h70.294588v476.943059H338.763294z m276.178824 0V413.515294h70.294588v476.943059H614.942118z"  /><path d="M793.118118 114.447059A140.528941 140.528941 0 0 1 933.647059 254.976v562.236235a140.528941 140.528941 0 0 1-140.528941 140.528941H230.881882A140.528941 140.528941 0 0 1 90.352941 817.212235V254.976A140.528941 140.528941 0 0 1 230.881882 114.447059h562.236236z m0 70.294588H230.881882c-38.791529 0-70.234353 31.442824-70.234353 70.234353v562.236235c0 38.791529 31.442824 70.234353 70.234353 70.234353h562.236236c38.791529 0 70.234353-31.442824 70.234353-70.234353V254.976c0-38.791529-31.442824-70.234353-70.234353-70.234353z"  /></svg>
