<svg width="49" height="48" viewBox="0 0 49 48" fill="none" xmlns="http://www.w3.org/2000/svg">
<path d="M7.40734 2.90625H41.9261C44.0355 2.90625 45.7605 4.63125 45.7605 6.74063V33.5859C45.7605 35.6953 44.0355 37.4203 41.9261 37.4203H7.40734C5.29797 37.4203 3.57297 35.6953 3.57297 33.5859V6.74063C3.57297 4.63125 5.29797 2.90625 7.40734 2.90625ZM5.49016 41.2594H43.8433C44.9917 41.2594 45.7605 42.0281 45.7605 43.1766C45.7605 44.325 44.9917 45.0938 43.8433 45.0938H5.49016C4.34172 45.0938 3.57297 44.325 3.57297 43.1766C3.57297 42.0281 4.34172 41.2594 5.49016 41.2594Z" fill="#2C65FF"/>
<path d="M34.5087 10.4873L33.5147 9.49401C33.4787 9.45977 33.431 9.44067 33.3813 9.44067C33.3317 9.44067 33.284 9.45977 33.248 9.49401L31.464 11.2773C30.6886 10.752 29.7733 10.4719 28.8367 10.4733C27.6367 10.4733 26.4367 10.9307 25.52 11.8467L23.132 14.2353C23.0973 14.2706 23.0778 14.3182 23.0778 14.3677C23.0778 14.4172 23.0973 14.4647 23.132 14.5L29.5 20.868C29.5373 20.9053 29.584 20.9213 29.6333 20.9213C29.68 20.9213 29.7293 20.9033 29.7667 20.868L32.1553 18.4793C32.9248 17.7089 33.4024 16.6948 33.5063 15.6109C33.6102 14.5269 33.3338 13.4406 32.7247 12.538L34.5087 10.7547C34.5434 10.719 34.5628 10.6711 34.5628 10.6213C34.5628 10.5715 34.5434 10.5237 34.5087 10.488V10.4873ZM26.568 19.8133C26.5328 19.7782 26.4851 19.7585 26.4353 19.7585C26.3856 19.7585 26.3379 19.7782 26.3027 19.8133L24.7427 21.374L22.6253 19.258L24.1887 17.6947C24.2238 17.6594 24.2435 17.6117 24.2435 17.562C24.2435 17.5123 24.2238 17.4646 24.1887 17.4293L23.3353 16.576C23.3 16.5413 23.2525 16.5218 23.203 16.5218C23.1535 16.5218 23.106 16.5413 23.0707 16.576L21.5073 18.14L20.5 17.132C20.4824 17.1147 20.4616 17.1011 20.4387 17.0919C20.4158 17.0827 20.3913 17.0782 20.3667 17.0787C20.3169 17.079 20.269 17.098 20.2327 17.132L17.8467 19.52C17.0771 20.2904 16.5994 21.3045 16.4955 22.3885C16.3916 23.4725 16.668 24.5588 17.2773 25.4613L15.4933 27.2453C15.4584 27.2805 15.4389 27.3281 15.4389 27.3777C15.4389 27.4272 15.4584 27.4748 15.4933 27.51L16.4873 28.5033C16.5247 28.5413 16.572 28.558 16.6207 28.558C16.6704 28.5578 16.7181 28.5384 16.754 28.504L18.538 26.72C19.3133 27.2454 20.2288 27.5255 21.1653 27.524C22.3653 27.524 23.5653 27.0673 24.482 26.1507L26.87 23.7627C26.9051 23.7274 26.9248 23.6797 26.9248 23.63C26.9248 23.5803 26.9051 23.5326 26.87 23.4973L25.8627 22.49L27.4253 20.9267C27.4604 20.8914 27.4801 20.8437 27.4801 20.794C27.4801 20.7443 27.4604 20.6966 27.4253 20.6613L26.568 19.8133Z" fill="white"/>
</svg>
