<svg width="1241" height="935" viewBox="0 0 1241 935" fill="none" xmlns="http://www.w3.org/2000/svg">
<path d="M0 811.202L1241 0V935H0.498995L0 811.202Z" fill="#F4F6FA"/>
<g opacity="0.8">
<g clip-path="url(#clip0_691_2921)">
<path d="M1039.47 343.864L1037.84 342.883" stroke="#D2DDDF" stroke-width="5" stroke-miterlimit="10"/>
<path d="M1034.59 340.925L704.46 142.049" stroke="#D2DDDF" stroke-width="3" stroke-miterlimit="10" stroke-dasharray="11.99 11.99"/>
<path d="M702.833 141.069L701.205 140.088" stroke="#D2DDDF" stroke-width="5" stroke-miterlimit="10"/>
<path d="M857.718 261.959L868.519 355.458" stroke="#D2DDDF" stroke-width="3" stroke-miterlimit="10" stroke-dasharray="12 12"/>
<path d="M870.74 227.945L1003.8 205.152" stroke="#D2DDDF" stroke-width="3" stroke-miterlimit="10" stroke-dasharray="12 12"/>
<path d="M841.661 155.621L789.434 235.358C786.954 239.144 788.114 244.251 791.982 246.573L841.509 276.317C841.851 276.52 842.28 276.275 842.28 275.874V155.809C842.28 155.471 841.847 155.337 841.661 155.621Z" fill="#DEE5EB"/>
<path d="M894.795 245.133L842.736 276.505C842.536 276.626 842.284 276.479 842.284 276.247V155.643C842.284 155.347 842.663 155.229 842.83 155.471L897.041 234.733C899.411 238.204 898.384 242.971 894.795 245.133Z" fill="#96ACB9"/>
<g opacity="0.8">
<path d="M703.398 118.776L703.408 93.2697C703.408 96.6513 705.683 100.036 710.265 102.663L710.256 128.169C705.674 125.542 703.398 122.157 703.398 118.776Z" fill="#C3D3D8"/>
<path d="M703.398 118.776L703.408 93.2697C703.408 96.6513 705.683 100.036 710.265 102.663L710.256 128.169C705.674 125.542 703.398 122.157 703.398 118.776Z" fill="#C3D3D8"/>
<path d="M810.42 93.8811L810.411 119.387C810.411 122.931 807.905 126.472 802.922 129.124L802.931 103.619C807.911 100.966 810.417 97.4252 810.42 93.8811Z" fill="#96ACB9"/>
<path d="M802.922 129.124L802.931 103.619C803.964 103.068 804.89 102.479 805.712 101.861L805.702 127.367C804.884 127.988 803.955 128.574 802.922 129.124Z" fill="#96ACB9"/>
<path d="M805.702 127.367L805.712 101.861C806.363 101.37 806.947 100.858 807.463 100.332L807.453 125.838C806.938 126.364 806.353 126.876 805.702 127.367Z" fill="#96ACB9"/>
<path d="M807.453 125.838L807.463 100.332C807.889 99.8993 808.268 99.4567 808.6 99.0045L808.591 124.51C808.259 124.963 807.88 125.405 807.453 125.838Z" fill="#96ACB9"/>
<path d="M808.594 124.51L808.603 99.0046C808.907 98.597 809.169 98.1798 809.397 97.7595L809.387 123.265C809.16 123.686 808.897 124.103 808.594 124.51Z" fill="#96ACB9"/>
<path d="M809.387 123.265L809.397 97.7595C809.615 97.3583 809.798 96.9507 809.943 96.5399L809.934 122.046C809.789 122.457 809.605 122.861 809.387 123.265Z" fill="#96ACB9"/>
<path d="M809.937 122.046L809.947 96.5399C810.092 96.1355 810.206 95.7247 810.285 95.314L810.275 120.82C810.196 121.231 810.082 121.638 809.937 122.046Z" fill="#96ACB9"/>
<path d="M810.272 120.82L810.282 95.3141C810.361 94.8969 810.409 94.4766 810.418 94.0563L810.409 119.562C810.399 119.982 810.355 120.403 810.272 120.82Z" fill="#96ACB9"/>
<path d="M810.408 119.562L810.417 94.0562C810.417 93.9989 810.42 93.9416 810.42 93.8811L810.411 119.387C810.411 119.444 810.411 119.502 810.408 119.562Z" fill="#96ACB9"/>
<path d="M710.253 128.169L710.262 102.663L738.763 119.011L738.757 144.517L710.253 128.169Z" fill="#CCD9DF"/>
<path d="M773.362 144.874L773.369 119.368L802.931 103.619L802.922 129.124L773.362 144.874Z" fill="url(#paint0_linear_691_2921)"/>
<path d="M738.763 119.011L710.262 102.663C700.88 97.2819 701.161 88.7194 710.894 83.5354L740.453 67.7893C750.183 62.6053 765.68 62.7645 775.062 68.1459L803.563 84.4939C812.945 89.8753 812.661 98.4409 802.928 103.625L773.369 119.371C763.639 124.552 748.145 124.393 738.763 119.011Z" fill="#F2F5F7"/>
<path d="M738.757 144.517L738.766 119.011C748.148 124.393 763.642 124.552 773.372 119.368L773.363 144.874C763.63 150.058 748.139 149.899 738.757 144.517Z" fill="#D1E0E5"/>
<path d="M738.757 144.517L738.766 119.011C739.768 119.588 740.839 120.1 741.967 120.556L741.958 146.061C740.83 145.606 739.758 145.09 738.757 144.517Z" fill="#D1E0E5"/>
<path d="M741.958 146.061L741.967 120.556C742.855 120.915 743.781 121.237 744.729 121.52L744.72 147.026C743.768 146.743 742.846 146.421 741.958 146.061Z" fill="#D1E0E5"/>
<path d="M744.72 147.026L744.729 121.52C745.513 121.756 746.312 121.963 747.131 122.148L747.121 147.654C746.303 147.472 745.503 147.262 744.72 147.026Z" fill="#D1E0E5"/>
<path d="M747.121 147.657L747.131 122.151C747.87 122.316 748.622 122.463 749.384 122.59L749.374 148.096C748.613 147.969 747.861 147.822 747.121 147.657Z" fill="#D1E0E5"/>
<path d="M749.371 148.093L749.381 122.587C750.108 122.708 750.847 122.807 751.587 122.89L751.577 148.396C750.838 148.316 750.101 148.214 749.371 148.093Z" fill="#D1E0E5"/>
<path d="M751.58 148.396L751.59 122.89C752.323 122.969 753.062 123.033 753.805 123.078L753.795 148.583C753.053 148.539 752.313 148.478 751.58 148.396Z" fill="#D1E0E5"/>
<path d="M753.795 148.583L753.805 123.078C754.563 123.122 755.322 123.148 756.083 123.151L756.074 148.657C755.312 148.653 754.554 148.628 753.795 148.583Z" fill="#D1E0E5"/>
<path d="M756.074 148.657L756.083 123.151C756.892 123.157 757.698 123.141 758.504 123.103L758.494 148.609C757.689 148.647 756.88 148.663 756.074 148.657Z" fill="#D1E0E5"/>
<path d="M758.494 148.609L758.504 123.103C759.392 123.062 760.274 122.992 761.149 122.896L761.139 148.402C760.264 148.497 759.382 148.567 758.494 148.609Z" fill="#D1E0E5"/>
<path d="M761.139 148.402L761.149 122.896C762.226 122.778 763.295 122.619 764.344 122.422L764.334 147.927C763.288 148.128 762.22 148.284 761.139 148.402Z" fill="#D1E0E5"/>
<path d="M764.334 147.928L764.344 122.422C767.621 121.801 770.711 120.782 773.369 119.368L773.359 144.874C770.702 146.291 767.614 147.307 764.334 147.928Z" fill="#D1E0E5"/>
</g>
<path d="M712.594 118.909C713.868 118.909 714.901 117.869 714.901 116.585C714.901 115.301 713.868 114.26 712.594 114.26C711.32 114.26 710.288 115.301 710.288 116.585C710.288 117.869 711.32 118.909 712.594 118.909Z" fill="#92A8B5"/>
<path d="M719.572 121.871C720.846 121.871 721.879 120.83 721.879 119.546C721.879 118.262 720.846 117.222 719.572 117.222C718.298 117.222 717.265 118.262 717.265 119.546C717.265 120.83 718.298 121.871 719.572 121.871Z" fill="#92A8B5"/>
<path d="M726.549 125.59C727.823 125.59 728.856 124.549 728.856 123.265C728.856 121.982 727.823 120.941 726.549 120.941C725.275 120.941 724.242 121.982 724.242 123.265C724.242 124.549 725.275 125.59 726.549 125.59Z" fill="#92A8B5"/>
<g opacity="0.8">
<path d="M603.427 197.914L603.436 172.408C603.436 175.79 605.711 179.175 610.293 181.802L610.284 207.307C605.702 204.677 603.427 201.292 603.427 197.914Z" fill="#C3D3D8"/>
<path d="M603.427 197.914L603.436 172.408C603.436 175.79 605.711 179.175 610.293 181.802L610.284 207.307C605.702 204.677 603.427 201.292 603.427 197.914Z" fill="#C3D3D8"/>
<path d="M710.449 173.016L710.439 198.522C710.439 202.066 707.933 205.607 702.95 208.259L702.959 182.754C707.939 180.101 710.445 176.563 710.449 173.016Z" fill="#96ACB9"/>
<path d="M702.95 208.263L702.959 182.757C703.993 182.206 704.918 181.617 705.74 180.999L705.731 206.505C704.912 207.123 703.983 207.712 702.95 208.263Z" fill="#96ACB9"/>
<path d="M705.73 206.502L705.74 180.996C706.391 180.505 706.976 179.993 707.491 179.467L707.481 204.973C706.966 205.502 706.381 206.011 705.73 206.502Z" fill="#96ACB9"/>
<path d="M707.484 204.977L707.494 179.471C707.92 179.038 708.3 178.595 708.631 178.143L708.622 203.649C708.287 204.098 707.908 204.543 707.484 204.977Z" fill="#96ACB9"/>
<path d="M708.622 203.645L708.632 178.14C708.935 177.732 709.197 177.315 709.425 176.895L709.415 202.4C709.188 202.821 708.925 203.238 708.622 203.645Z" fill="#96ACB9"/>
<path d="M709.415 202.4L709.425 176.895C709.643 176.493 709.826 176.086 709.971 175.675L709.962 201.181C709.817 201.592 709.633 201.999 709.415 202.4Z" fill="#96ACB9"/>
<path d="M709.965 201.181L709.975 175.675C710.12 175.271 710.234 174.86 710.313 174.449L710.303 199.955C710.224 200.366 710.11 200.776 709.965 201.181Z" fill="#96ACB9"/>
<path d="M710.303 199.955L710.313 174.449C710.392 174.032 710.44 173.612 710.45 173.191L710.44 198.697C710.427 199.117 710.383 199.538 710.303 199.955Z" fill="#96ACB9"/>
<path d="M710.436 198.697L710.446 173.191C710.446 173.134 710.449 173.077 710.449 173.016L710.439 198.522C710.439 198.583 710.439 198.64 710.436 198.697Z" fill="#96ACB9"/>
<path d="M610.284 207.304L610.29 181.798L638.791 198.146L638.785 223.652L610.284 207.304Z" fill="#CCD9DF"/>
<path d="M673.39 224.009L673.4 198.503L702.959 182.757L702.95 208.263L673.39 224.009Z" fill="url(#paint1_linear_691_2921)"/>
<path d="M638.791 198.146L610.291 181.798C600.908 176.417 601.19 167.854 610.923 162.67L640.482 146.924C650.212 141.74 665.709 141.9 675.091 147.281L703.592 163.629C712.974 169.01 712.69 177.576 702.957 182.76L673.397 198.506C663.667 203.687 648.174 203.528 638.791 198.146Z" fill="#F2F5F7"/>
<path d="M638.785 223.652L638.794 198.146C648.176 203.528 663.67 203.687 673.4 198.503L673.391 224.009C663.658 229.193 648.167 229.034 638.785 223.652Z" fill="#D1E0E5"/>
<path d="M638.785 223.652L638.794 198.146C639.796 198.723 640.867 199.235 641.995 199.691L641.986 225.196C640.858 224.741 639.786 224.228 638.785 223.652Z" fill="#D1E0E5"/>
<path d="M641.986 225.196L641.995 199.691C642.883 200.05 643.809 200.372 644.757 200.655L644.748 226.161C643.797 225.878 642.874 225.556 641.986 225.196Z" fill="#D1E0E5"/>
<path d="M644.748 226.164L644.757 200.659C645.541 200.894 646.34 201.101 647.159 201.286L647.149 226.792C646.334 226.607 645.532 226.4 644.748 226.164Z" fill="#D1E0E5"/>
<path d="M647.149 226.792L647.159 201.286C647.898 201.451 648.65 201.598 649.412 201.725L649.403 227.231C648.641 227.104 647.889 226.961 647.149 226.792Z" fill="#D1E0E5"/>
<path d="M649.399 227.231L649.409 201.725C650.136 201.846 650.875 201.945 651.615 202.028L651.605 227.534C650.866 227.451 650.129 227.349 649.399 227.231Z" fill="#D1E0E5"/>
<path d="M651.608 227.534L651.618 202.028C652.351 202.107 653.09 202.171 653.833 202.216L653.823 227.722C653.081 227.677 652.341 227.613 651.608 227.534Z" fill="#D1E0E5"/>
<path d="M653.823 227.718L653.833 202.213C654.591 202.257 655.35 202.283 656.111 202.286L656.102 227.792C655.34 227.788 654.582 227.763 653.823 227.718Z" fill="#D1E0E5"/>
<path d="M656.102 227.795L656.111 202.289C656.92 202.295 657.726 202.279 658.532 202.241L658.522 227.747C657.717 227.782 656.911 227.801 656.102 227.795Z" fill="#D1E0E5"/>
<path d="M658.522 227.744L658.532 202.238C659.42 202.197 660.302 202.127 661.177 202.031L661.167 227.537C660.292 227.636 659.41 227.702 658.522 227.744Z" fill="#D1E0E5"/>
<path d="M661.167 227.54L661.177 202.034C662.255 201.916 663.323 201.757 664.372 201.56L664.362 227.066C663.316 227.263 662.248 227.422 661.167 227.54Z" fill="#D1E0E5"/>
<path d="M664.365 227.066L664.375 201.56C667.652 200.939 670.743 199.92 673.4 198.506L673.391 224.012C670.73 225.426 667.642 226.445 664.365 227.066Z" fill="#D1E0E5"/>
</g>
<path d="M612.622 198.044C613.896 198.044 614.929 197.004 614.929 195.72C614.929 194.436 613.896 193.395 612.622 193.395C611.348 193.395 610.315 194.436 610.315 195.72C610.315 197.004 611.348 198.044 612.622 198.044Z" fill="#92A8B5"/>
<path d="M619.6 201.009C620.874 201.009 621.907 199.968 621.907 198.684C621.907 197.401 620.874 196.36 619.6 196.36C618.326 196.36 617.293 197.401 617.293 198.684C617.293 199.968 618.326 201.009 619.6 201.009Z" fill="#92A8B5"/>
<path d="M626.577 204.728C627.851 204.728 628.884 203.687 628.884 202.404C628.884 201.12 627.851 200.079 626.577 200.079C625.303 200.079 624.27 201.12 624.27 202.404C624.27 203.687 625.303 204.728 626.577 204.728Z" fill="#92A8B5"/>
<path d="M684.138 152.465L720.085 126.949" stroke="#D2DDDF" stroke-width="3" stroke-miterlimit="10" stroke-dasharray="12 12"/>
<path d="M773.407 196.016C786.643 196.016 797.373 189.733 797.373 181.983C797.373 174.233 786.643 167.95 773.407 167.95C760.171 167.95 749.441 174.233 749.441 181.983C749.441 189.733 760.171 196.016 773.407 196.016Z" fill="#DEE5EB"/>
<path d="M773.558 193.169C784.3 193.169 793.009 188.07 793.009 181.779C793.009 175.489 784.3 170.389 773.558 170.389C762.816 170.389 754.108 175.489 754.108 181.779C754.108 188.07 762.816 193.169 773.558 193.169Z" fill="#12364C"/>
<path d="M869.609 374.054C889.144 375.054 904.553 384.451 904.028 395.035C903.504 405.623 887.239 413.396 867.706 412.396C848.174 411.396 832.766 402.002 833.29 391.412C833.815 380.824 850.076 373.054 869.609 374.054Z" fill="#F2F5F7"/>
<path d="M904.028 395.035L903.276 406.486C903.251 407.014 903.184 407.54 903.08 408.053L903.832 396.602C903.936 396.089 904 395.567 904.028 395.035Z" fill="#8B8D8F"/>
<path d="M903.832 396.605L903.08 408.056C902.887 409.011 902.565 409.941 902.123 410.839L902.875 399.388C903.317 398.49 903.639 397.56 903.832 396.605Z" fill="#96ACB9"/>
<path d="M902.875 399.388L902.123 410.839C901.598 411.902 900.903 412.921 900.056 413.889L900.808 402.439C901.655 401.471 902.35 400.452 902.875 399.388Z" fill="#96ACB9"/>
<path d="M900.808 402.439L900.056 413.889C894.311 420.449 881.544 424.595 866.954 423.846C847.422 422.847 832.013 413.453 832.538 402.862L833.29 391.412C832.765 401.999 848.174 411.396 867.706 412.396C882.296 413.144 895.06 408.998 900.808 402.439Z" fill="url(#paint2_linear_691_2921)"/>
<path d="M869.609 355.417C889.144 356.417 904.553 365.813 904.028 376.398C903.504 386.985 887.239 394.758 867.706 393.758C848.174 392.758 832.766 383.365 833.29 372.774C833.815 362.186 850.076 354.414 869.609 355.417Z" fill="#F2F5F7"/>
<path d="M904.028 376.398L903.276 387.848C903.251 388.377 903.184 388.902 903.08 389.415L903.832 377.964C903.936 377.452 904 376.926 904.028 376.398Z" fill="#8B8D8F"/>
<path d="M903.832 377.964L903.08 389.415C902.887 390.37 902.565 391.3 902.123 392.198L902.875 380.748C903.317 379.85 903.639 378.923 903.832 377.964Z" fill="#96ACB9"/>
<path d="M902.875 380.748L902.123 392.198C901.598 393.262 900.903 394.281 900.056 395.249L900.808 383.798C901.655 382.833 902.35 381.811 902.875 380.748Z" fill="#96ACB9"/>
<path d="M900.808 383.798L900.056 395.249C894.311 401.808 881.544 405.954 866.954 405.206C847.422 404.206 832.013 394.812 832.538 384.222L833.29 372.771C832.765 383.359 848.174 392.755 867.706 393.755C882.296 394.504 895.06 390.358 900.808 383.798Z" fill="url(#paint3_linear_691_2921)"/>
<path d="M869.609 338.397C889.144 339.397 904.553 348.794 904.028 359.378C903.504 369.966 887.239 377.738 867.706 376.739C848.174 375.739 832.762 366.345 833.29 355.754C833.815 345.17 850.076 337.397 869.609 338.397Z" fill="#F2F5F7"/>
<path d="M904.028 359.381L903.276 370.832C903.251 371.36 903.184 371.886 903.08 372.398L903.832 360.948C903.936 360.432 904 359.91 904.028 359.381Z" fill="#8B8D8F"/>
<path d="M903.832 360.948L903.08 372.398C902.887 373.354 902.565 374.283 902.123 375.181L902.875 363.731C903.317 362.833 903.639 361.903 903.832 360.948Z" fill="#96ACB9"/>
<path d="M902.875 363.731L902.123 375.181C901.598 376.245 900.903 377.264 900.056 378.232L900.808 366.781C901.655 365.813 902.35 364.794 902.875 363.731Z" fill="#96ACB9"/>
<path d="M900.808 366.781L900.056 378.232C894.311 384.792 881.544 388.937 866.954 388.189C847.422 387.189 832.013 377.796 832.538 367.205L833.29 355.754C832.765 366.342 848.174 375.739 867.706 376.739C882.296 377.487 895.06 373.341 900.808 366.781Z" fill="url(#paint4_linear_691_2921)"/>
<path d="M1008.91 304.004C1028.45 305.004 1043.86 314.4 1043.33 324.985C1042.81 335.572 1026.54 343.345 1007.01 342.345C987.479 341.346 972.071 331.952 972.595 321.361C973.12 310.773 989.382 303.004 1008.91 304.004Z" fill="#F2F5F7"/>
<path d="M1043.33 324.985L1042.58 336.435C1042.56 336.964 1042.49 337.489 1042.39 338.002L1043.14 326.551C1043.24 326.039 1043.31 325.517 1043.33 324.985Z" fill="#8B8D8F"/>
<path d="M1043.14 326.555L1042.39 338.005C1042.19 338.96 1041.87 339.89 1041.43 340.788L1042.18 329.338C1042.62 328.44 1042.95 327.51 1043.14 326.555Z" fill="#96ACB9"/>
<path d="M1042.18 329.338L1041.43 340.788C1040.9 341.852 1040.21 342.871 1039.36 343.839L1040.11 332.388C1040.96 331.42 1041.65 330.401 1042.18 329.338Z" fill="#96ACB9"/>
<path d="M1040.11 332.388L1039.36 343.839C1033.62 350.398 1020.85 354.544 1006.26 353.796C986.727 352.796 971.319 343.403 971.843 332.812L972.595 321.361C972.071 331.949 987.479 341.345 1007.01 342.345C1021.6 343.094 1034.37 338.948 1040.11 332.388Z" fill="url(#paint5_linear_691_2921)"/>
<path d="M1008.91 285.366C1028.45 286.366 1043.86 295.763 1043.33 306.347C1042.81 316.935 1026.54 324.708 1007.01 323.708C987.479 322.708 972.071 313.314 972.595 302.724C973.12 292.136 989.382 284.363 1008.91 285.366Z" fill="#F2F5F7"/>
<path d="M1043.33 306.347L1042.58 317.798C1042.56 318.326 1042.49 318.852 1042.39 319.364L1043.14 307.914C1043.24 307.401 1043.31 306.876 1043.33 306.347Z" fill="#8B8D8F"/>
<path d="M1043.14 307.914L1042.39 319.364C1042.19 320.32 1041.87 321.249 1041.43 322.147L1042.18 310.697C1042.62 309.799 1042.95 308.872 1043.14 307.914Z" fill="#96ACB9"/>
<path d="M1042.18 310.697L1041.43 322.147C1040.9 323.211 1040.21 324.23 1039.36 325.198L1040.11 313.747C1040.96 312.779 1041.65 311.76 1042.18 310.697Z" fill="#96ACB9"/>
<path d="M1040.11 313.747L1039.36 325.198C1033.62 331.758 1020.85 335.903 1006.26 335.155C986.727 334.155 971.319 324.762 971.843 314.171L972.595 302.72C972.071 313.308 987.479 322.705 1007.01 323.705C1021.6 324.453 1034.37 320.307 1040.11 313.747Z" fill="url(#paint6_linear_691_2921)"/>
<path d="M1008.91 268.346C1028.45 269.346 1043.86 278.743 1043.33 289.327C1042.81 299.915 1026.54 307.688 1007.01 306.688C987.479 305.688 972.071 296.295 972.595 285.704C973.12 275.119 989.382 267.347 1008.91 268.346Z" fill="#F2F5F7"/>
<path d="M1043.33 289.327L1042.58 300.778C1042.56 301.307 1042.49 301.832 1042.39 302.345L1043.14 290.894C1043.24 290.381 1043.31 289.859 1043.33 289.327Z" fill="#8B8D8F"/>
<path d="M1043.14 290.897L1042.39 302.348C1042.19 303.303 1041.87 304.233 1041.43 305.131L1042.18 293.68C1042.62 292.782 1042.95 291.852 1043.14 290.897Z" fill="#96ACB9"/>
<path d="M1042.18 293.68L1041.43 305.131C1040.9 306.194 1040.21 307.213 1039.36 308.181L1040.11 296.731C1040.96 295.763 1041.65 294.744 1042.18 293.68Z" fill="#96ACB9"/>
<path d="M1040.11 296.731L1039.36 308.181C1033.62 314.741 1020.85 318.887 1006.26 318.139C986.727 317.139 971.319 307.745 971.843 297.154L972.595 285.704C972.071 296.291 987.479 305.688 1007.01 306.688C1021.6 307.436 1034.37 303.29 1040.11 296.731Z" fill="url(#paint7_linear_691_2921)"/>
<path d="M1027.89 190.931C1047.42 191.931 1062.83 201.327 1062.31 211.912C1061.78 222.499 1045.52 230.272 1025.99 229.272C1006.45 228.273 991.044 218.879 991.569 208.288C992.093 197.7 1008.35 189.931 1027.89 190.931Z" fill="#F2F5F7"/>
<path d="M1062.3 211.912L1061.55 223.362C1061.53 223.891 1061.46 224.416 1061.36 224.929L1062.11 213.478C1062.21 212.966 1062.28 212.44 1062.3 211.912Z" fill="#8B8D8F"/>
<path d="M1062.11 213.478L1061.36 224.929C1061.16 225.884 1060.84 226.814 1060.4 227.712L1061.15 216.261C1061.59 215.363 1061.92 214.437 1062.11 213.478Z" fill="#96ACB9"/>
<path d="M1061.15 216.261L1060.4 227.712C1059.87 228.776 1059.18 229.795 1058.33 230.763L1059.08 219.312C1059.93 218.347 1060.63 217.325 1061.15 216.261Z" fill="#96ACB9"/>
<path d="M1059.08 219.312L1058.33 230.763C1052.59 237.322 1039.82 241.468 1025.23 240.72C1005.7 239.72 990.289 230.326 990.813 219.735L991.565 208.285C991.041 218.873 1006.45 228.269 1025.98 229.269C1040.57 230.021 1053.34 225.872 1059.08 219.312Z" fill="url(#paint8_linear_691_2921)"/>
<path d="M1027.89 172.29C1047.42 173.29 1062.83 182.687 1062.31 193.271C1061.78 203.859 1045.52 211.632 1025.99 210.632C1006.45 209.632 991.044 200.238 991.569 189.647C992.093 179.063 1008.35 171.29 1027.89 172.29Z" fill="#F2F5F7"/>
<path d="M1062.3 193.274L1061.55 204.725C1061.53 205.253 1061.46 205.779 1061.36 206.292L1062.11 194.841C1062.21 194.325 1062.28 193.803 1062.3 193.274Z" fill="#8B8D8F"/>
<path d="M1062.11 194.841L1061.36 206.292C1061.16 207.247 1060.84 208.177 1060.4 209.075L1061.15 197.624C1061.59 196.726 1061.92 195.796 1062.11 194.841Z" fill="#96ACB9"/>
<path d="M1061.15 197.624L1060.4 209.075C1059.87 210.138 1059.18 211.157 1058.33 212.125L1059.08 200.675C1059.93 199.707 1060.63 198.688 1061.15 197.624Z" fill="#96ACB9"/>
<path d="M1059.08 200.675L1058.33 212.125C1052.59 218.685 1039.82 222.831 1025.23 222.082C1005.7 221.082 990.289 211.689 990.813 201.098L991.565 189.647C991.041 200.235 1006.45 209.632 1025.98 210.632C1040.57 211.38 1053.34 207.234 1059.08 200.675Z" fill="url(#paint9_linear_691_2921)"/>
<path d="M1027.89 155.274C1047.42 156.273 1062.83 165.67 1062.31 176.255C1061.78 186.842 1045.52 194.615 1025.99 193.615C1006.45 192.615 991.044 183.222 991.569 172.631C992.093 162.043 1008.35 154.274 1027.89 155.274Z" fill="#F2F5F7"/>
<path d="M1062.3 176.255L1061.55 187.705C1061.53 188.234 1061.46 188.759 1061.36 189.272L1062.11 177.821C1062.21 177.309 1062.28 176.786 1062.3 176.255Z" fill="#8B8D8F"/>
<path d="M1062.11 177.824L1061.36 189.275C1061.16 190.23 1060.84 191.16 1060.4 192.058L1061.15 180.607C1061.59 179.709 1061.92 178.78 1062.11 177.824Z" fill="#96ACB9"/>
<path d="M1061.15 180.604L1060.4 192.055C1059.87 193.118 1059.18 194.137 1058.33 195.105L1059.08 183.655C1059.93 182.69 1060.63 181.671 1061.15 180.604Z" fill="#96ACB9"/>
<path d="M1059.08 183.655L1058.33 195.105C1052.59 201.665 1039.82 205.811 1025.23 205.063C1005.7 204.063 990.289 194.669 990.813 184.078L991.565 172.628C991.041 183.215 1006.45 192.612 1025.98 193.612C1040.57 194.363 1053.34 190.214 1059.08 183.655Z" fill="url(#paint10_linear_691_2921)"/>
<path d="M779.06 182.336L778.741 182.324L777.527 182.298L777.534 182.037C777.569 180.423 775.767 179.063 773.52 179.015C771.274 178.967 769.416 180.248 769.381 181.868L769.378 182.123L767.845 182.091L767.851 181.862C767.851 181.859 767.851 181.849 767.851 181.836C767.899 179.604 770.452 177.843 773.546 177.91C776.639 177.977 779.117 179.846 779.07 182.078L779.06 182.336ZM778.169 181.852L778.428 181.859C778.321 179.974 776.184 178.426 773.536 178.369C770.891 178.312 768.689 179.764 768.499 181.645L768.758 181.652C768.945 179.875 771.027 178.506 773.53 178.557C776.036 178.611 778.058 180.069 778.169 181.852Z" fill="white"/>
<path d="M769.065 181.862C769.103 180.114 771.103 178.732 773.527 178.786C775.951 178.837 777.891 180.305 777.856 182.053C777.856 182.063 777.853 182.069 777.853 182.075L778.75 182.094C778.75 182.088 778.753 182.079 778.753 182.072C778.798 179.964 776.466 178.203 773.543 178.14C770.619 178.076 768.215 179.735 768.17 181.843C768.17 181.852 768.17 181.859 768.17 181.868L769.068 181.887C769.068 181.878 769.065 181.872 769.065 181.862Z" fill="white"/>
<path d="M772.964 184.632C771.944 184.61 771.125 183.992 771.141 183.254C771.157 182.515 772 181.935 773.021 181.958C773.072 181.958 773.122 181.961 773.176 181.967L775.786 180.311L774.699 182.789C774.8 182.961 774.851 183.148 774.848 183.333C774.832 184.072 773.988 184.655 772.964 184.632ZM773.002 182.929C772.721 182.922 772.49 183.082 772.487 183.285C772.484 183.486 772.708 183.658 772.986 183.664C773.268 183.671 773.498 183.511 773.501 183.308C773.508 183.104 773.283 182.935 773.002 182.929Z" fill="white"/>
<path d="M773.321 188.31C768.487 188.205 764.612 185.282 764.688 181.792C764.761 178.302 768.755 175.548 773.59 175.653C778.428 175.758 782.302 178.681 782.226 182.171C782.157 185.661 778.159 188.415 773.321 188.31ZM773.565 176.888C769.675 176.805 766.461 179.022 766.401 181.827C766.341 184.635 769.457 186.989 773.35 187.071C777.243 187.154 780.457 184.938 780.517 182.129C780.577 179.327 777.458 176.974 773.565 176.888Z" fill="white"/>
</g>
</g>
<defs>
<linearGradient id="paint0_linear_691_2921" x1="773.361" y1="124.246" x2="802.93" y2="124.246" gradientUnits="userSpaceOnUse">
<stop offset="0.0358" stop-color="#CCD9DF"/>
<stop offset="1" stop-color="#8FA5B2"/>
</linearGradient>
<linearGradient id="paint1_linear_691_2921" x1="673.39" y1="203.383" x2="702.959" y2="203.383" gradientUnits="userSpaceOnUse">
<stop offset="0.0358" stop-color="#CCD9DF"/>
<stop offset="1" stop-color="#8FA5B2"/>
</linearGradient>
<linearGradient id="paint2_linear_691_2921" x1="832.523" y1="407.673" x2="900.807" y2="407.673" gradientUnits="userSpaceOnUse">
<stop offset="0.0358" stop-color="#CCD9DF"/>
<stop offset="1" stop-color="#8FA5B2"/>
</linearGradient>
<linearGradient id="paint3_linear_691_2921" x1="832.523" y1="389.034" x2="900.807" y2="389.034" gradientUnits="userSpaceOnUse">
<stop offset="0.0358" stop-color="#CCD9DF"/>
<stop offset="1" stop-color="#8FA5B2"/>
</linearGradient>
<linearGradient id="paint4_linear_691_2921" x1="832.523" y1="372.016" x2="900.807" y2="372.016" gradientUnits="userSpaceOnUse">
<stop offset="0.0358" stop-color="#CCD9DF"/>
<stop offset="1" stop-color="#8FA5B2"/>
</linearGradient>
<linearGradient id="paint5_linear_691_2921" x1="971.829" y1="337.623" x2="1040.11" y2="337.623" gradientUnits="userSpaceOnUse">
<stop offset="0.0358" stop-color="#CCD9DF"/>
<stop offset="1" stop-color="#8FA5B2"/>
</linearGradient>
<linearGradient id="paint6_linear_691_2921" x1="971.829" y1="318.984" x2="1040.11" y2="318.984" gradientUnits="userSpaceOnUse">
<stop offset="0.0358" stop-color="#CCD9DF"/>
<stop offset="1" stop-color="#8FA5B2"/>
</linearGradient>
<linearGradient id="paint7_linear_691_2921" x1="971.829" y1="301.966" x2="1040.11" y2="301.966" gradientUnits="userSpaceOnUse">
<stop offset="0.0358" stop-color="#CCD9DF"/>
<stop offset="1" stop-color="#8FA5B2"/>
</linearGradient>
<linearGradient id="paint8_linear_691_2921" x1="990.8" y1="224.549" x2="1059.08" y2="224.549" gradientUnits="userSpaceOnUse">
<stop offset="0.0358" stop-color="#CCD9DF"/>
<stop offset="1" stop-color="#8FA5B2"/>
</linearGradient>
<linearGradient id="paint9_linear_691_2921" x1="990.8" y1="205.91" x2="1059.08" y2="205.91" gradientUnits="userSpaceOnUse">
<stop offset="0.0358" stop-color="#CCD9DF"/>
<stop offset="1" stop-color="#8FA5B2"/>
</linearGradient>
<linearGradient id="paint10_linear_691_2921" x1="990.8" y1="188.892" x2="1059.08" y2="188.892" gradientUnits="userSpaceOnUse">
<stop offset="0.0358" stop-color="#CCD9DF"/>
<stop offset="1" stop-color="#8FA5B2"/>
</linearGradient>
<clipPath id="clip0_691_2921">
<rect width="458.89" height="359.935" fill="white" transform="translate(603.427 64)"/>
</clipPath>
</defs>
</svg>
