<svg width="49" height="48" viewBox="0 0 49 48" fill="none" xmlns="http://www.w3.org/2000/svg">
<path d="M7.07394 2.90625H41.5927C43.7021 2.90625 45.4271 4.63125 45.4271 6.74063V33.5859C45.4271 35.6953 43.7021 37.4203 41.5927 37.4203H7.07394C4.96456 37.4203 3.23956 35.6953 3.23956 33.5859V6.74063C3.23956 4.63125 4.96456 2.90625 7.07394 2.90625ZM5.15675 41.2594H43.5099C44.6583 41.2594 45.4271 42.0281 45.4271 43.1766C45.4271 44.325 44.6583 45.0938 43.5099 45.0938H5.15675C4.00831 45.0938 3.23956 44.325 3.23956 43.1766C3.23956 42.0281 4.00831 41.2594 5.15675 41.2594Z" fill="#F3961A"/>
<path d="M31.5933 13.8467L24.6667 9.84666C24.4637 9.73035 24.2339 9.66916 24 9.66916C23.7661 9.66916 23.5363 9.73035 23.3333 9.84666L16.4067 13.8467C15.9933 14.0833 15.74 14.5267 15.74 15V23C15.74 23.4767 15.9933 23.9167 16.4067 24.1533L23.3333 28.1533C23.7467 28.39 24.2533 28.39 24.6667 28.1533L31.5933 24.1533C32.0067 23.9167 32.26 23.4733 32.26 23V15C32.26 14.5233 32.0067 14.0833 31.5933 13.8467ZM29.9533 16.55L24.6667 19.4933V25.5533C24.6667 25.92 24.3667 26.22 24 26.22C23.6333 26.22 23.3333 25.92 23.3333 25.5533V19.4933L18.0467 16.55C17.8985 16.4607 17.7909 16.3173 17.7465 16.15C17.7021 15.9828 17.7245 15.8049 17.8089 15.6539C17.8933 15.5029 18.033 15.3905 18.1987 15.3407C18.3644 15.2908 18.5429 15.3073 18.6967 15.3867L24 18.34L29.3067 15.3833C29.3833 15.3409 29.4675 15.3139 29.5545 15.304C29.6415 15.2941 29.7296 15.3014 29.8138 15.3256C29.898 15.3497 29.9766 15.3902 30.0452 15.4447C30.1137 15.4992 30.1709 15.5667 30.2133 15.6433C30.2558 15.7199 30.2827 15.8042 30.2927 15.8912C30.3026 15.9782 30.2952 16.0663 30.2711 16.1505C30.247 16.2347 30.2065 16.3133 30.1519 16.3819C30.0974 16.4504 30.0299 16.5075 29.9533 16.55Z" fill="white"/>
</svg>
