<svg width="24" height="24" viewBox="0 0 24 24" fill="none" xmlns="http://www.w3.org/2000/svg">
<path d="M8.57143 18C8.41988 18 8.27453 18.0439 8.16737 18.122C8.0602 18.2002 8 18.3062 8 18.4167V20.9167C8 21.0272 8.0602 21.1332 8.16737 21.2113C8.27453 21.2894 8.41988 21.3333 8.57143 21.3333C8.72298 21.3333 8.86833 21.2894 8.97549 21.2113C9.08265 21.1332 9.14286 21.0272 9.14286 20.9167V18.4167C9.14286 18.3619 9.12808 18.3078 9.09936 18.2572C9.07064 18.2067 9.02855 18.1607 8.97549 18.122C8.92243 18.0833 8.85943 18.0527 8.7901 18.0317C8.72078 18.0108 8.64647 18 8.57143 18ZM12 18C11.8484 18 11.7031 18.0439 11.5959 18.122C11.4888 18.2002 11.4286 18.3062 11.4286 18.4167V22.5833C11.4286 22.6938 11.4888 22.7998 11.5959 22.878C11.7031 22.9561 11.8484 23 12 23C12.1516 23 12.2969 22.9561 12.4041 22.878C12.5112 22.7998 12.5714 22.6938 12.5714 22.5833V18.4167C12.5714 18.3062 12.5112 18.2002 12.4041 18.122C12.2969 18.0439 12.1516 18 12 18ZM15.4286 18C15.3535 18 15.2792 18.0108 15.2099 18.0317C15.1406 18.0527 15.0776 18.0833 15.0245 18.122C14.9714 18.1607 14.9294 18.2067 14.9006 18.2572C14.8719 18.3078 14.8571 18.3619 14.8571 18.4167V20.0833C14.8571 20.1938 14.9173 20.2998 15.0245 20.378C15.1317 20.4561 15.277 20.5 15.4286 20.5C15.5801 20.5 15.7255 20.4561 15.8326 20.378C15.9398 20.2998 16 20.1938 16 20.0833V18.4167C16 18.3062 15.9398 18.2002 15.8326 18.122C15.7255 18.0439 15.5801 18 15.4286 18Z" fill="#F3961A"/>
<path d="M17.3182 6.77637C16.3255 3.47637 13.2169 0.272736 12 0.272736C10.7831 0.272736 7.67457 3.45455 6.68184 6.77637C5.46183 7.63052 4.46551 8.76597 3.77717 10.0866C3.08882 11.4073 2.72871 12.8744 2.72729 14.3636C2.72729 14.4353 2.7414 14.5062 2.76882 14.5724C2.79623 14.6386 2.8364 14.6987 2.88705 14.7493C2.93771 14.8 2.99784 14.8402 3.06401 14.8676C3.13019 14.895 3.20112 14.9091 3.27275 14.9091H6.31093C6.45897 15.7166 6.67427 16.5102 6.95457 17.2818C6.99357 17.3862 7.06363 17.4762 7.15529 17.5396C7.24696 17.6029 7.35585 17.6367 7.4673 17.6364H16.5327C16.6442 17.6367 16.7531 17.6029 16.8448 17.5396C16.9364 17.4762 17.0065 17.3862 17.0455 17.2818C17.3258 16.5102 17.5411 15.7166 17.6891 14.9091H20.7273C20.7989 14.9091 20.8699 14.895 20.936 14.8676C21.0022 14.8402 21.0623 14.8 21.113 14.7493C21.1636 14.6987 21.2038 14.6386 21.2312 14.5724C21.2586 14.5062 21.2727 14.4353 21.2727 14.3636C21.2713 12.8744 20.9112 11.4073 20.2229 10.0866C19.5345 8.76597 18.5382 7.63052 17.3182 6.77637ZM6.16911 9.18183V9.32364C6.16911 9.48728 6.13093 9.65637 6.11457 9.82546C6.0982 9.99455 6.08184 10.1636 6.07093 10.3382C6.06002 10.5127 6.07093 10.5782 6.07093 10.6982V11.6418C6.07093 12.0836 6.07093 12.52 6.12548 12.9564C6.12548 13.1091 6.15275 13.2618 6.16911 13.42C6.18548 13.5782 6.16911 13.6927 6.20729 13.8236H3.8182C3.95265 11.824 4.81635 9.94326 6.24548 8.53819C6.22911 8.74001 6.20184 8.95819 6.16911 9.18183ZM17.8691 13.8182C17.8691 13.6873 17.8691 13.5509 17.9073 13.4146C17.9455 13.2782 17.94 13.1091 17.9509 12.9509C17.9837 12.5146 18.0055 12.0727 18.0055 11.6364V10.6927V10.3327C18.0055 10.2127 18.0055 9.9891 17.9618 9.82001C17.9182 9.65092 17.9291 9.48183 17.9073 9.31819V9.17637C17.88 8.95819 17.8527 8.74546 17.8146 8.53274C19.2217 9.94702 20.0635 11.8267 20.1818 13.8182H17.8691Z" fill="#3B47E5"/>
<path d="M12 8.13638C11.5055 8.13638 11.0222 8.28301 10.6111 8.55771C10.2 8.83242 9.87952 9.22286 9.6903 9.67968C9.50108 10.1365 9.45157 10.6392 9.54804 11.1241C9.6445 11.6091 9.8826 12.0545 10.2322 12.4042C10.5819 12.7538 11.0273 12.9919 11.5123 13.0884C11.9972 13.1848 12.4999 13.1353 12.9567 12.9461C13.4135 12.7569 13.804 12.4364 14.0787 12.0253C14.3534 11.6142 14.5 11.1308 14.5 10.6364C14.5 9.97335 14.2366 9.33746 13.7678 8.86862C13.2989 8.39978 12.663 8.13638 12 8.13638ZM12 11.8864C11.7528 11.8864 11.5111 11.8131 11.3055 11.6757C11.1 11.5384 10.9398 11.3432 10.8452 11.1147C10.7505 10.8863 10.7258 10.635 10.774 10.3925C10.8223 10.1501 10.9413 9.92732 11.1161 9.75251C11.2909 9.57769 11.5137 9.45864 11.7561 9.41041C11.9986 9.36217 12.2499 9.38693 12.4784 9.48154C12.7068 9.57615 12.902 9.73636 13.0393 9.94193C13.1767 10.1475 13.25 10.3892 13.25 10.6364C13.25 10.9679 13.1183 11.2859 12.8839 11.5203C12.6495 11.7547 12.3315 11.8864 12 11.8864Z" fill="#F3961A"/>
<path d="M10.125 10.6364C10.125 10.8826 10.1735 11.1264 10.2677 11.3539C10.362 11.5814 10.5001 11.7881 10.6742 11.9622C10.8483 12.1363 11.055 12.2744 11.2825 12.3686C11.51 12.4629 11.7538 12.5114 12 12.5114C12.2462 12.5114 12.49 12.4629 12.7175 12.3686C12.945 12.2744 13.1517 12.1363 13.3258 11.9622C13.4999 11.7881 13.638 11.5814 13.7323 11.3539C13.8265 11.1264 13.875 10.8826 13.875 10.6364C13.875 10.3901 13.8265 10.1463 13.7323 9.91882C13.638 9.69134 13.4999 9.48464 13.3258 9.31053C13.1517 9.13642 12.945 8.99831 12.7175 8.90408C12.49 8.80985 12.2462 8.76135 12 8.76135C11.7538 8.76135 11.51 8.80985 11.2825 8.90408C11.055 8.99831 10.8483 9.13642 10.6742 9.31053C10.5001 9.48464 10.362 9.69134 10.2677 9.91882C10.1735 10.1463 10.125 10.3901 10.125 10.6364Z" fill="white"/>
</svg>
