<?xml version="1.0" encoding="UTF-8"?>
<svg width="28px" height="28px" viewBox="0 0 28 28" version="1.1" xmlns="http://www.w3.org/2000/svg" xmlns:xlink="http://www.w3.org/1999/xlink">
    <title>custom</title>
    <g id="custom" stroke="none" stroke-width="1" fill="none" fill-rule="evenodd">
        <g transform="translate(0.042935, 0.000000)" fill="#4AAF47" fill-rule="nonzero" id="形状">
            <path d="M23.2970209,10.7412183 L22.2232103,10.7100934 L22.2232103,7.36727434 C22.2232103,6.5518008 21.5820365,5.89506447 20.7883504,5.89506447 L15.9888839,5.89506447 L15.9888839,4.79012895 C15.9888839,2.15695865 13.6731881,-8.49239161e-16 11.1116052,-8.49239161e-16 C10.9061805,-8.49239161e-16 10.6976434,0.0124499778 10.4859938,0.0435749222 C8.14228546,0.361049355 6.01645176,2.53979546 6.01645176,4.97065362 L6.01645176,5.89506447 L1.43485994,5.89506447 C0.644286349,5.89506447 0,6.55491329 0,7.36727434 L0,11.5535794 C2.04802134,12.0578035 3.5855936,13.9564251 3.5855936,16.2098711 C3.5855936,18.463317 2.04802134,20.3619386 0,20.8630502 L0,26.5246776 C0,27.3401512 0.641173855,27.9968875 1.43485994,27.9968875 L6.58292574,27.9968875 C7.07158737,25.8928413 8.91729658,24.3148066 11.1116052,24.3148066 C13.3028012,24.3148066 15.1516229,25.8928413 15.6402846,28 L20.7883504,28 C21.578924,28 22.2232103,27.3401512 22.2232103,26.5277901 L22.2232103,21.2209871 L23.1227212,21.1587372 C25.488217,21.1587372 27.6047132,18.8959538 27.9159627,16.4837706 C28.289462,13.5673633 26.067141,10.7412183 23.2970209,10.7412183 Z M20.8350378,19.048466 L19.9355269,19.048466 L19.9355269,24.3832815 C19.9355269,25.1956425 19.294353,25.8554913 18.500667,25.8554913 L16.8697199,25.8554913 C15.3508226,22.976434 13.2249889,22.4846598 11.0337928,22.4846598 C8.84259671,22.4846598 6.52690084,22.9608715 5.19786572,25.8586038 L3.44241885,25.8586038 C2.65184526,25.8586038 2.00755892,25.198755 2.00755892,24.386394 L2.00755892,22.0240107 C4.55980436,21.1058248 5.55891507,18.4415296 5.55891507,16.1880836 C5.55891507,13.9346376 5.23832815,11.8181414 2.0698088,10.3210316 L2.03868386,9.62072032 C2.03868386,8.80835927 2.61760783,7.93063584 3.41129391,7.93063584 L7.93063584,7.93063584 L7.93063584,7.00622499 C7.93063584,4.57536683 8.5126723,1.97332148 10.8563806,1.97332148 L11.0804802,1.97332148 C13.4366385,1.97332148 13.9470876,4.22365496 13.9470876,6.85993775 L13.9470876,7.96487328 L18.4975545,7.96487328 C19.2881281,7.96487328 19.9324144,8.6247221 19.9324144,9.43708315 L19.9324144,12.904402 L21.0404624,12.904402 C23.3032459,12.904402 25.8772788,13.0257892 25.8772788,15.9733215 C25.8772788,18.3170298 23.2005336,19.048466 20.8350378,19.048466 L20.8350378,19.048466 Z"></path>
        </g>
    </g>
</svg>