<?xml version="1.0" encoding="UTF-8"?>
<svg width="24px" height="24px" viewBox="0 0 24 24" version="1.1" xmlns="http://www.w3.org/2000/svg" xmlns:xlink="http://www.w3.org/1999/xlink">
    <title>elasticsearch</title>
    <g id="页面-1" stroke="none" stroke-width="1" fill="none" fill-rule="evenodd">
        <g id="elasticsearch" transform="translate(0.000000, -0.000000)" fill-rule="nonzero">
            <path d="M24,12.5704512 C24,10.544262 22.7460853,8.79345976 20.884857,8.1049452 C20.9636867,7.67668705 21.0030156,7.24204181 21.0023441,6.80653083 C21.0023441,3.04912245 17.9656821,0 14.2236287,0 C12.0489451,0 10.0114393,1.04261045 8.7379278,2.83276713 C8.11101735,2.34093067 7.34692921,2.0852209 6.54364744,2.0852209 C4.56483826,2.0852209 2.93877168,3.69828256 2.93877168,5.70488871 C2.93877168,6.1376935 3.01715893,6.57049829 3.15424285,6.96394863 C1.27351149,7.61310873 0,9.42294264 0,11.4294546 C0,13.455738 1.25391467,15.2262175 3.13464604,15.914732 C3.05635256,16.3278596 3.01715893,16.7606644 3.01715893,17.2130522 C3.01715893,20.9507834 6.05382091,24 9.77627754,24 C11.9705579,24 13.9885607,22.9377123 15.2619784,21.1672329 C15.8888889,21.6589752 16.6725738,21.9344563 17.4758556,21.9344563 C19.4546648,21.9344563 21.0807314,20.3213005 21.0807314,18.3147885 C21.0807314,17.8819837 21.0023441,17.4491789 20.8652602,17.0557286 C22.7067979,16.3868913 24,14.5770574 24,12.5704512 L24,12.5704512 Z" id="路径" fill="#FFFFFF"></path>
            <path d="M9.38443507,10.3081353 L14.733052,12.7672235 L20.1403657,8.00655907 C20.2191966,7.61147136 20.258554,7.20946906 20.257862,6.80653083 C20.257862,3.46234416 17.5542429,0.747546231 14.2236287,0.747546231 C12.2252227,0.747546231 10.3640881,1.73112501 9.24735115,3.38354112 L8.34608533,8.06559075 L9.38443507,10.3082294 L9.38443507,10.3081353 Z" id="路径" fill="#F4BD19"></path>
            <path d="M3.83994374,15.9934409 C3.76165026,16.3868913 3.72245663,16.8000188 3.72245663,17.2131464 C3.72245663,20.5573331 6.44566338,23.2918082 9.77627754,23.2918082 C11.7942804,23.2918082 13.6555087,22.2885522 14.7917487,20.636042 L15.6734177,15.9540865 L14.4782935,13.6720933 L9.11017346,11.2130993 L3.83994374,15.9934409 L3.83994374,15.9934409 Z" id="路径" fill="#3CBEB1"></path>
            <path d="M3.80084388,6.68846748 L7.46451008,7.55407706 L8.28729489,3.36386389 C7.77796531,2.97041355 7.1705579,2.77373546 6.52405063,2.77373546 C4.93708392,2.77373546 3.62447257,4.07205567 3.62447257,5.68521148 C3.62447257,6.01963015 3.68326301,6.37372604 3.80075012,6.68846748 L3.80084388,6.68846748 Z" id="路径" fill="#E9478C"></path>
            <path d="M3.48729489,7.57366014 C1.8416315,8.10485105 0.705297703,9.69832963 0.705297703,11.4294546 C0.705297703,13.1213193 1.74364744,14.636089 3.31101735,15.2262175 L8.4636662,10.5441678 L7.52320675,8.51807276 L3.48729489,7.57375429 L3.48729489,7.57366014 Z" id="路径" fill="#2C458F"></path>
            <path d="M15.7322082,20.6163647 C16.2415377,21.0099092 16.8489451,21.2262645 17.4758556,21.2262645 C19.0628223,21.2262645 20.3754337,19.9279443 20.3754337,18.3147885 C20.3754337,17.9606926 20.3166432,17.6261798 20.1991561,17.3114384 L16.5354899,16.4459229 L15.7322082,20.6163647 L15.7322082,20.6163647 Z" id="路径" fill="#95C63D"></path>
            <path d="M16.4766995,15.4819272 L20.5126113,16.4262457 C22.1582747,15.8754717 23.2946085,14.3016704 23.2946085,12.5704512 C23.2946085,10.8785865 22.2562588,9.38358819 20.6888889,8.77378253 L15.3991561,13.4163836 L16.4766995,15.4820214 L16.4766995,15.4819272 Z" id="路径" fill="#176655"></path>
        </g>
    </g>
</svg>