<?xml version="1.0" encoding="UTF-8"?>
<svg width="24px" height="24px" viewBox="0 0 24 24" version="1.1" xmlns="http://www.w3.org/2000/svg" xmlns:xlink="http://www.w3.org/1999/xlink">
    <title>hazelcast-logo</title>
    <g id="页面-1" stroke="none" stroke-width="1" fill="none" fill-rule="evenodd">
        <g id="hazelcast-logo">
            <rect id="矩形" x="0" y="0" width="24" height="24"></rect>
            <g id="形状" fill-rule="nonzero">
                <path d="M21.2521927,0 L12.8356969,0 L12.8356969,10.5959358 L23.9999946,10.5959358 L23.9999946,2.60791444 C23.9999946,1.16760307 22.7697618,0 21.2521927,0" id="路径" fill="#2D7DE4"></path>
                <g id="编组" transform="translate(0.000000, 0.000000)" fill="#041A3B">
                    <path d="M21.2521927,13.4040591 L15.5834989,13.4040591 C14.8542961,13.4026978 14.1545451,13.6770206 13.6389199,14.1663959 C13.1232946,14.6557713 12.8342572,15.3198987 12.8356916,16.0119786 L12.8356916,24 L24,24 L24,16.0119786 C24.0014343,15.3198987 23.712397,14.6557713 23.1967717,14.1663959 C22.6811465,13.6770206 21.9813955,13.4026978 21.2521927,13.4040591" id="路径"></path>
                    <path d="M9.56862532,24 L2.79107443,24 C1.24960659,24 0,22.8140095 0,21.351016 L0,2.64898396 C0,1.18599052 1.24960659,0 2.79107443,0 L9.56862532,0 L9.56862532,24 Z" id="路径"></path>
                </g>
            </g>
        </g>
    </g>
</svg>
