<?xml version="1.0" encoding="UTF-8"?>
<svg width="24px" height="24px" viewBox="0 0 24 24" version="1.1" xmlns="http://www.w3.org/2000/svg" xmlns:xlink="http://www.w3.org/1999/xlink">
    <title>Jo</title>
    <g id="任务管理" stroke="none" stroke-width="1" fill="none" fill-rule="evenodd">
        <g id="JS/java脚本设置" transform="translate(-161.000000, -750.000000)">
            <g id="Jo" transform="translate(161.000000, 750.000000)">
                <rect id="矩形" fill-opacity="0" fill="#D8D8D8" x="0" y="0" width="24" height="24"></rect>
                <path d="M6.6,18.224 C7.864,18.224 8.792,17.872 9.368,17.168 C9.88,16.528 10.136,15.6 10.136,14.352 L10.136,6.576 L8.824,6.576 L8.824,14.304 C8.824,15.248 8.648,15.936 8.312,16.368 C7.96,16.816 7.4,17.056 6.632,17.056 C5.24,17.056 4.552,16.272 4.552,14.736 L4.552,14.352 L3.24,14.352 L3.24,14.752 C3.24,15.872 3.528,16.736 4.136,17.344 C4.712,17.92 5.528,18.224 6.6,18.224 Z M16.4933333,18.224 C17.7253333,18.224 18.7173333,17.792 19.4693333,16.928 C20.1573333,16.128 20.5093333,15.104 20.5093333,13.872 C20.5093333,12.624 20.1573333,11.6 19.4533333,10.784 C18.7173333,9.92 17.7253333,9.504 16.4933333,9.504 C15.2453333,9.504 14.2693333,9.92 13.5333333,10.784 C12.8293333,11.6 12.4773333,12.624 12.4773333,13.872 C12.4773333,15.104 12.8293333,16.128 13.5333333,16.928 C14.2693333,17.792 15.2453333,18.224 16.4933333,18.224 Z M16.4933333,17.152 C15.6133333,17.152 14.9253333,16.816 14.4453333,16.144 C13.9973333,15.536 13.7893333,14.784 13.7893333,13.872 C13.7893333,12.944 13.9973333,12.192 14.4453333,11.584 C14.9253333,10.912 15.6133333,10.576 16.4933333,10.576 C17.3573333,10.576 18.0453333,10.912 18.5573333,11.584 C18.9893333,12.192 19.2133333,12.944 19.2133333,13.872 C19.2133333,14.768 18.9893333,15.536 18.5573333,16.144 C18.0453333,16.816 17.3573333,17.152 16.4933333,17.152 Z" fill="#2C65FF" fill-rule="nonzero"></path>
            </g>
        </g>
    </g>
</svg>
