<?xml version="1.0" encoding="UTF-8"?>
<svg width="24px" height="24px" viewBox="0 0 24 24" version="1.1" xmlns="http://www.w3.org/2000/svg" xmlns:xlink="http://www.w3.org/1999/xlink">
    <title>kudu</title>
    <defs>
        <radialGradient cx="42.6961345%" cy="50.4193127%" fx="42.6961345%" fy="50.4193127%" r="70.33132%" gradientTransform="translate(0.426961,0.504193),scale(0.710921,1.000000),rotate(-31.407822),translate(-0.426961,-0.504193)" id="radialGradient-1">
            <stop stop-color="#25AAE1" offset="0%"></stop>
            <stop stop-color="#0E76BC" offset="100%"></stop>
        </radialGradient>
    </defs>
    <g id="页面-1" stroke="none" stroke-width="1" fill="none" fill-rule="evenodd">
        <g id="kudu">
            <rect id="矩形" x="0" y="0" width="24" height="24"></rect>
            <path d="M23.5421119,20.0326763 C23.2516951,19.9988888 23.0103612,19.92222 22.6829689,19.759875 C22.3232074,19.5814763 22.3111167,19.5665813 22.3111167,19.3017713 C22.3111167,19.1243438 22.3236717,19.0711388 22.3697123,19.0534725 C22.4679608,19.0157475 22.7351434,19.18626 22.8774664,19.3774688 C23.0072498,19.5518288 23.0218924,19.5601388 23.4665179,19.7116313 C23.9731032,19.8842363 24.0483904,19.928955 23.9770741,20.0148863 C23.9280473,20.07396 23.9047677,20.0749088 23.5421119,20.0326988 L23.5421119,20.0326763 Z M21.2398276,18.7110413 L21.0361939,18.522045 L21.0361939,18.1272338 C21.0361939,17.91009 21.0505864,17.7324263 21.0681702,17.7324263 C21.0857577,17.7324263 21.1973134,17.8905413 21.3160722,18.0837975 C21.5228708,18.4203188 21.5319968,18.4450125 21.5319968,18.6681375 C21.5319968,18.8311875 21.5187106,18.900945 21.4877288,18.900579 C21.4633801,18.9003075 21.3518254,18.814995 21.2398268,18.7110413 L21.2398276,18.7110413 Z M19.9463311,17.3420738 L19.6196134,16.9871288 L19.6196134,16.4048325 C19.6196134,15.84828 19.6229509,15.8207625 19.6944931,15.78246 C19.7395081,15.758385 19.8312503,15.7516725 19.9245214,15.76566 C20.0904083,15.79056 20.2063332,15.9051675 20.2839473,16.1210738 C20.3225172,16.228365 20.3708873,17.5707488 20.3391398,17.65275 C20.3297123,17.6770875 20.3109848,17.6970225 20.2975257,17.6970225 C20.2840669,17.6970225 20.1260262,17.5372988 19.9463318,17.3420813 L19.9463311,17.3420738 Z M15.950244,16.9521075 C15.8701508,16.936245 15.7386754,16.9054988 15.6580748,16.8837938 L15.5115289,16.8443438 L15.5115289,14.096655 L15.5115289,11.34897 L15.6153765,11.369745 C15.6724932,11.381145 15.8451758,11.4390863 15.9991155,11.4984488 L16.2790069,11.6063888 L16.3023057,14.2421438 C16.3151119,15.6918075 16.3160344,16.90284 16.3043307,16.9333163 C16.2812644,16.99344 16.1846554,16.99857 15.9502384,16.9521413 L15.950244,16.9521075 Z M16.8467202,16.9663575 C16.8330477,16.95267 16.8218689,15.7596675 16.8218689,14.3151975 L16.8218689,11.6888925 L16.9150771,11.6030363 C17.0804581,11.4507 17.1389618,11.2688025 17.1398221,10.9042575 C17.1402346,10.7229713 17.1226208,10.5032325 17.1006413,10.4159513 C17.0786626,10.3286663 17.0708626,10.2470738 17.0833051,10.2346313 C17.1197851,10.1981813 17.3164369,10.4048175 17.4254509,10.5942075 C17.4808137,10.6903913 17.5443466,10.873665 17.5666354,11.0014763 C17.6088563,11.2435913 17.5881567,11.3953538 17.4455941,11.8890338 C17.3598173,12.1860675 17.3761426,12.42267 17.5201231,12.9691763 L17.6507449,13.4649788 L17.6634387,15.1512788 L17.6761324,16.8375713 L17.5234651,16.8745463 C17.4394981,16.8948713 17.2990834,16.9217738 17.2114324,16.93431 C17.1237814,16.9468725 17.0114577,16.9647975 16.9618238,16.9741388 C16.9121899,16.9835138 16.8603961,16.9800263 16.8467266,16.9663388 L16.8467202,16.9663575 Z M18.2965144,16.6524038 C18.2627119,16.5643088 18.2702044,15.5973338 18.3051207,15.5422425 C18.3298482,15.5032125 18.3569093,15.5060925 18.4550903,15.5579925 C18.5209782,15.5927925 18.6705064,15.6547688 18.7873741,15.6956513 L18.9998611,15.76998 L19.0098061,16.2022913 C19.0152736,16.4400638 19.0073311,16.6358025 18.9920986,16.6372613 C18.9768923,16.6383863 18.8767966,16.6444613 18.7696677,16.6500113 C18.6625388,16.6555613 18.5173512,16.6716488 18.4470286,16.6857863 C18.3448309,16.7062988 18.3146236,16.6995863 18.2965167,16.6524113 L18.2965144,16.6524038 Z M14.7813443,16.423695 C14.6621719,16.328505 14.506791,16.1799863 14.4360522,16.0936613 L14.3074358,15.9367013 L14.3074358,13.5233063 L14.3074358,11.109915 L14.4196317,11.109915 C14.5877918,11.109915 14.99181,11.184495 15.0422865,11.2248525 C15.0770003,11.2526025 15.0865549,11.8366238 15.0865549,13.929705 C15.0865549,16.0423013 15.0773187,16.5989175 15.0422865,16.5979663 C15.0179378,16.597215 14.9005152,16.518885 14.7813443,16.423695 Z M8.64111303,15.4642313 C7.92224628,15.37701 7.24873503,15.1792425 6.59146503,14.862375 C6.09715877,14.62407 6.11974503,14.637255 4.62156377,13.7123363 C3.20432627,12.8373863 2.65557377,12.5151788 2.62859627,12.5421525 C2.59829627,12.5724525 2.77438502,12.9231488 2.96201252,13.20615 C3.20743502,13.5763163 3.55897127,13.8782363 3.99058877,14.08956 C4.35596627,14.2684425 4.49286752,14.3869463 4.54955252,14.573385 C4.59427127,14.7204675 4.51929002,14.7576075 4.17770252,14.7576075 C3.81673877,14.7576075 3.52246127,14.6793488 3.26702627,14.5154213 C3.03774002,14.3682788 2.90305127,14.2209638 2.71134002,13.9076625 C2.29999877,13.2354263 1.82299126,12.75897 1.01342251,12.2116913 C0.18026626,11.6484675 0,11.456205 0,11.1311475 C0,10.7770838 0.295706261,10.3307925 0.530212511,10.3307925 C0.585120011,10.3307925 1.05003751,10.4880338 1.56337126,10.68021 C2.90082377,11.1809288 3.70600127,11.4640613 3.79250252,11.4640613 C3.85882127,11.4640613 3.86551877,11.4485363 3.84983627,11.331255 C3.84004877,11.2582125 3.79803377,11.0789288 3.75642752,10.93284 C3.53312627,10.1488275 3.59490752,9.26783627 3.93015002,8.45560126 C4.25567252,7.66691626 4.66648127,7.19978626 5.30544377,6.89175001 C5.46731627,6.81371251 5.65953002,6.69586501 5.73258377,6.62986501 C5.89542752,6.48274501 6.07954877,6.12653626 6.03184127,6.05090251 C6.01327877,6.02146501 5.74623377,5.93216251 5.41653752,5.84515501 C5.09617127,5.76061876 4.70895752,5.65810501 4.55606627,5.61736126 C4.24899377,5.53552501 4.10148377,5.54542876 3.89343377,5.66184376 C3.81615002,5.70508876 3.72019877,5.72790751 3.64553252,5.72079751 L3.52371377,5.70921001 L3.52558877,5.42589376 C3.52783877,5.09049376 3.58668377,4.953645 3.78420002,4.822935 C3.95127752,4.71237 3.94923377,4.712955 5.13492377,4.436145 C6.39517878,4.141935 7.10008503,3.9374625 7.74835878,3.67807875 C8.52408228,3.3677025 8.75209091,3.33298125 9.65280603,3.3880725 C10.0020165,3.40941 10.7020849,3.46507125 11.2085127,3.51172125 C12.5661413,3.63676875 12.7653855,3.64612125 13.1737219,3.60399 C13.8016197,3.5391975 14.2778918,3.38230875 14.6739945,3.109785 C14.7617535,3.0494025 14.8426377,3 14.8537369,3 C14.959212,3 14.6892282,3.3426675 14.4588882,3.5011425 C14.2410882,3.65099625 14.0251722,3.7290525 13.6478393,3.79436625 C12.9300653,3.91860375 12.3719689,3.96174 11.1022703,3.99111375 C10.0092368,4.01642625 9.73907478,4.033005 9.47320166,4.0912125 C8.93103116,4.20993 8.34363003,4.47018375 8.14893753,4.67794125 C8.05467003,4.778535 8.05446753,4.76382 8.16075003,5.53213876 C8.32087503,6.68995126 8.16900003,7.19335501 7.21958253,8.65132876 C7.06641003,8.88655501 6.94114503,9.10170002 6.94122003,9.12942002 C6.94129128,9.15717002 7.01698878,9.20970377 7.10943753,9.24621002 C7.57442628,9.42983252 8.20380753,9.84063002 9.04946816,10.5124875 C9.67439966,11.00898 10.3137225,11.44818 10.5451564,11.539995 C10.7016702,11.6020875 10.8170678,11.6202413 11.0491692,11.6192888 C11.3155245,11.6181638 11.3944905,11.6010638 11.734818,11.4705675 C11.9463615,11.3894475 12.1336167,11.33184 12.150939,11.3425425 C12.1686165,11.353455 12.1824315,12.1113638 12.1824315,13.0703513 L12.1824315,14.7786938 L11.819433,14.819535 C11.3747637,14.8695825 10.9170484,14.999325 10.5181444,15.1884038 C9.97373591,15.446445 9.87212628,15.472635 9.36697691,15.4850925 C9.11376341,15.4913175 8.78706453,15.4820925 8.64098066,15.464205 L8.64111303,15.4642313 Z M13.7395939,15.3038063 C13.633131,15.1951763 13.5037084,15.0839925 13.4519888,15.05673 C13.2317652,14.940645 13.245,15.070605 13.245,13.0241063 C13.245,11.4636563 13.25322,11.1471825 13.2946197,11.1128213 C13.3263822,11.0864588 13.4570187,11.0753588 13.6576185,11.0819213 L13.9709982,11.0921963 L13.9801144,13.2967538 C13.9851319,14.5092563 13.9766269,15.5013038 13.9611994,15.5013038 C13.9457757,15.5013038 13.8460534,15.412425 13.7395902,15.3037988 L13.7395939,15.3038063 Z M12.5898315,14.81586 L12.3065153,14.775315 L12.2973315,13.0534688 C12.289554,11.5949063 12.2959065,11.325195 12.338832,11.2895588 C12.4083473,11.231865 12.9329622,11.1267225 13.007874,11.15547 C13.0642759,11.1771075 13.0679209,11.308485 13.0593972,13.0124513 L13.0502284,14.8461413 L12.9616917,14.8512788 C12.9129968,14.8542788 12.7456632,14.8381538 12.5898402,14.8158788 L12.5898315,14.81586 Z" id="形状" fill="url(#radialGradient-1)" fill-rule="nonzero"></path>
        </g>
    </g>
</svg>