<?xml version="1.0" encoding="UTF-8"?>
<svg width="60px" height="60px" viewBox="0 0 60 60" version="1.1" xmlns="http://www.w3.org/2000/svg" xmlns:xlink="http://www.w3.org/1999/xlink">
    <title>Transwrp KunDB</title>
    <g id="Transwrp-KunDB" stroke="none" stroke-width="1" fill="none" fill-rule="evenodd">
        <g id="KUNDB" transform="translate(22.000000, 16.000000)" fill-rule="nonzero">
            <polygon id="路径" fill="#00A1E8" opacity="0.8" points="12 18.8671165 12 22.5 9 21.1322346 9 17.5"></polygon>
            <polygon id="路径" fill="#00A1E8" opacity="0.8" points="15 16.3671165 15 20 12 18.6328835 12 15"></polygon>
            <polygon id="路径" fill="#00A1E8" opacity="0.8" points="9 23.8203693 9 26 7 25.1796307 7 23"></polygon>
            <polygon id="路径" fill="#00A1E8" opacity="0.8" points="15 23.8202594 15 26 13 25.1797406 13 23"></polygon>
            <polygon id="路径" fill="#00A1E8" opacity="0.8" points="10 26.5469755 10 28 9 27.4530245 9 26"></polygon>
            <polygon id="路径" fill="#004ED9" points="3 7.99793787 3 11.6308213 0 10.2637048 0 6.63082134"></polygon>
            <polygon id="路径" fill="#006FDF" points="3 11.606722 3 15.2396054 0 13.8724889 0 10.2396054"></polygon>
            <polygon id="路径" fill="#006FDF" points="6 12.9979379 6 16.6308213 3 15.2637048 3 11.6308213"></polygon>
            <polygon id="路径" fill="#004ED9" points="6 9.36776538 6 13 3 11.6328835 3 8"></polygon>
            <polygon id="路径" fill="#004ED9" points="9 10.7797184 9 14.4124244 6 13.0451304 6 9.41242439"></polygon>
            <polygon id="路径" fill="#004ED9" points="9 14.3669391 9 18 6 16.6324121 6 13"></polygon>
            <polygon id="路径" fill="#006FDF" points="12 15.7800123 12 19.4124244 9 18.0454852 9 14.4124244"></polygon>
            <polygon id="路径" fill="#004ED9" points="12 12.6266839 12 16.2595674 9 14.891802 9 11.2595674"></polygon>
            <polygon id="路径" fill="#006FDF" points="12 9.10672198 12 12.7396054 9 11.3724889 9 7.73960544"></polygon>
            <polygon id="路径" fill="#006FDF" points="12 5.49793787 12 9.13082134 9 7.76370481 9 4.13082134"></polygon>
            <polygon id="路径" fill="#004ED9" points="9 7.62668394 9 11.2595674 6 9.89245087 6 6.25956741"></polygon>
            <polygon id="路径" fill="#004ED9" points="9 4.10672198 9 7.73960544 6 6.37248891 6 2.73960544"></polygon>
            <polygon id="路径" fill="#004ED9" points="6 2.74790586 6 6.38031795 3 5.01273004 3 1.38031795"></polygon>
            <polygon id="路径" fill="#004ED9" points="3 4.36711653 3 8 0 6.63288347 0 3"></polygon>
            <polygon id="路径" fill="#004ED9" points="3 1.36711653 3 5 0 3.63288347 0 0"></polygon>
            <polygon id="路径" fill="#00A1E8" opacity="0.8" points="15 10.4985867 15 14.1308213 12 12.7637048 12 9.13082134"></polygon>
            <polygon id="路径" fill="#00A1E8" opacity="0.8" points="15 6.86693915 15 10.5 12 9.13241209 12 5.5"></polygon>
            <polygon id="路径" fill="#00A1E8" opacity="0.8" points="6 16.6073708 6 20.2396054 3 18.8724889 3 15.2396054"></polygon>
            <polygon id="路径" fill="#00A1E8" opacity="0.8" points="3 15.22665 3 18.8595335 0 17.4924169 0 13.8595335"></polygon>
        </g>
    </g>
</svg>