<?xml version="1.0" encoding="UTF-8"?>
<svg width="24px" height="24px" viewBox="0 0 24 24" version="1.1" xmlns="http://www.w3.org/2000/svg" xmlns:xlink="http://www.w3.org/1999/xlink">
    <title>mongodb</title>
    <g id="页面-1" stroke="none" stroke-width="1" fill="none" fill-rule="evenodd">
        <g id="mongodb">
            <rect id="矩形" x="0" y="0" width="24" height="24"></rect>
            <g id="形状" transform="translate(7.000000, 0.000000)" fill-rule="nonzero">
                <path d="M5.31490842,0.0655473341 L5.95536033,1.268457 C6.09934951,1.49044033 6.2553378,1.68692558 6.439074,1.86991184 C6.97528374,2.40612157 7.4844955,2.96782939 7.94196115,3.56928422 C9.02712966,4.99417722 9.75907469,6.5765584 10.2817854,8.28792988 C10.5952619,9.33335138 10.7654991,10.4057708 10.7782482,11.4901894 C10.8307442,14.732196 9.71932768,17.5159869 7.47849595,19.8295632 C7.11252343,20.1955357 6.72105283,20.5345102 6.30108437,20.8359876 C6.07910104,20.8359876 5.97410892,20.6657504 5.88261579,20.5090122 C5.71237857,20.2217837 5.6081364,19.8940583 5.55564034,19.5678328 C5.47689626,19.1756123 5.42515014,18.7833917 5.45064823,18.3784221 L5.45064823,18.1954359 C5.43264958,18.1564388 5.23691428,0.157790407 5.31490842,0.0655473341 Z" id="路径" fill="#599636"></path>
                <path d="M5.31490842,0.0258003188 C5.28866039,-0.026695739 5.26241236,0.0130512762 5.23616433,0.0385493614 C5.24891338,0.301029651 5.15742025,0.53501208 5.014181,0.758495298 C4.85669283,0.980478628 4.64820849,1.15071584 4.4389742,1.3337021 C3.27656149,2.34012653 2.36163019,3.55578524 1.62893522,4.91543314 C0.654008427,6.74529572 0.151546159,8.70639846 0.009056859,10.7709934 C-0.0561882415,11.5156875 0.244539176,14.1434902 0.479271549,14.9016832 C1.11972345,16.9145321 2.27013707,18.6011554 3.76027516,20.0650455 C4.12624768,20.417519 4.51771829,20.7444945 4.92268787,21.0587209 C5.04042903,21.0587209 5.05317808,20.9537288 5.08017605,20.8757346 C5.13179648,20.7088434 5.17114839,20.538402 5.19791721,20.3657729 L5.4603975,18.4054201 L5.31490842,0.0258003188 Z" id="路径" fill="#6CAC48"></path>
                <path d="M5.95536033,21.6324278 C5.98160836,21.3324503 6.12559754,21.083469 6.28233577,20.8352377 C6.1248476,20.7699926 6.00785639,20.6402523 5.91636326,20.4955132 C5.83761917,20.365023 5.77237407,20.2082847 5.7213779,20.0642955 C5.53839164,19.5153368 5.49939457,18.93938 5.44689851,18.3784221 L5.44689851,18.0386977 C5.38165341,18.0911937 5.36815442,18.5351604 5.36815442,18.6011554 C5.32999255,19.194043 5.25131476,19.7836253 5.13267211,20.3657729 C5.09367503,20.6012552 5.06742701,20.8359876 4.92268787,21.0452219 C4.92268787,21.0714699 4.92268787,21.0977179 4.93543692,21.136715 C5.17091923,21.829663 5.23541439,22.53536 5.27516141,23.254556 L5.27516141,23.5170363 C5.27516141,23.8305127 5.26241236,23.7645177 5.52264282,23.8695098 C5.62763494,23.9085069 5.74462615,23.9220059 5.84961827,24 C5.92836235,24 5.9411114,23.9347549 5.9411114,23.8822588 L5.90211433,23.4510412 L5.90211433,22.2481316 C5.88936528,22.0381473 5.92836235,21.829663 5.95461038,21.6331777 L5.95536033,21.6324278 Z" id="路径" fill="#C2BFBF"></path>
            </g>
        </g>
    </g>
</svg>