<?xml version="1.0" encoding="utf-8"?>
<!-- Generator: Adobe Illustrator 22.0.0, SVG Export Plug-In . SVG Version: 6.00 Build 0)  -->
<svg version="1.1" id="图层_6" xmlns="http://www.w3.org/2000/svg" xmlns:xlink="http://www.w3.org/1999/xlink" x="0px" y="0px"
	 viewBox="0 0 1024 1024" style="enable-background:new 0 0 1024 1024;" xml:space="preserve">
<style type="text/css">
	.st0{display:none;fill:#409EFF;}
	.st1{fill:#DE4231;}
	.st2{display:none;fill:#DE4231;}
</style>
<path class="st0" d="M114.7,64.7c40-4.1,109.4,17.2,137.7,42.3c13.1,11.5,25.8,23.6,38.1,36.1c112.4-22.3,213,33.9,299.6,167.2
	c80.4,123.8,135.5,226.6,164,306c40.3,21,79.2,44.7,116.5,71c62.4,43.8,79.4,66.5,86.6,79.7c8.1,14.8,3,33.5-11.4,41.8
	c-4.4,2.6-9.4,3.9-14.5,3.9H829c15.2,18,30.7,35.6,46.6,53c12.1,11.5,12.8,31,1.6,43.4s-30.1,13.2-42.2,1.6c-1-0.9-1.9-1.9-2.7-3
	c-31.2-34.5-61.5-69.8-91.1-105.8c-10.6-13-9-32.3,3.5-43.3c5.3-4.6,12.1-7.2,19.1-7.3h92c-43.7-32.6-90-61.2-138.5-85.5
	c-7.2-3.5-12.7-9.9-15.3-17.7c-25.3-75.9-79.7-178.1-161.4-303.9c-76.4-117.8-159-162.8-252.3-138c-10.5,2.8-21.6-0.5-29-8.6
	c-14.5-15.6-29.7-30.4-45.6-44.4c-15.5-13.7-61-26.8-84.8-28c6.8,15.9,25.1,49.6,75.2,116.8c1.9,2.5,3.4,5.4,4.4,8.5
	c17.7,52.4,26.3,91.7,26.3,120c0,7.8,4.2,31.2,43,80.2c6.2,7.8,8.3,18.3,5.5,28l-34.1,120c-19.5,68.6,19.3,160.1,43.9,189.3
	c5.7-15.9,14.3-53.7,17.9-140.8c0.8-16.9,14.7-30,31.2-29.3c10.5,0.5,20.1,6.7,25,16.3c14.5,28.5,35.6,79.3,64.6,155.1
	c34.4,89.8,58.5,108.7,67.3,112.6c14.6,7.9,20.2,26.5,12.5,41.5c-6.9,13.4-22.2,19.7-36.2,14.7c-35.4-15.8-66.8-62.2-99-146.3
	c-5.9-15.6-11.6-30.1-16.9-43.7c-10.5,57.5-26.6,77.7-46.6,85.8c-10,4.1-30.2,7.4-54.2-15.2c-44.9-42.3-93.2-163.4-66.6-257.2
	l29.8-104.9c-31.7-42.5-46.6-76.5-46.6-106.1c0-14-3.8-41.9-21.4-95.2C61,150.1,54.2,111.7,74.4,84.9
	C83.1,73.5,96.7,66.6,114.7,64.7L114.7,64.7z M322.9,283.9c11.6-2.7,47.9-3.2,59.1,14.3c21.6,24.9,11,62.8-2.5,72.3l-1.9,1.9
	c-7.7-15.6-19.7-28-27.4-43.6C340.5,314.2,331.4,299.3,322.9,283.9z"/>
<path class="st1" d="M675,215.3H352.8c-161.2-0.1-292,130.5-292,291.7c0,0,0,0,0,0c0.1,161.2,130.8,291.8,292,291.7c0,0,0,0,0,0H675
	c161.2,0.1,292-130.5,292-291.7v0C967,345.8,836.2,215.2,675,215.3L675,215.3z M799.4,632.4c-32.9,32.9-77.5,51.4-124,51.4h-322
	c-97.1,0.1-175.9-78.4-176.2-175.5v-1.6c0.3-97.1,79.1-175.5,176.2-175.4h321.9c96.8-0.1,175.4,78.4,175.4,175.2c0,0.1,0,0.2,0,0.2
	v1.6C850.7,554.8,832.3,599.5,799.4,632.4L799.4,632.4z"/>
<path class="st2" d="M675.1,189.4H352.9c-161.2-0.1-292,142.1-292,317.6c0,0,0,0,0,0c0.1,175.5,130.8,317.7,292,317.6c0,0,0,0,0,0
	h322.2c161.2,0.1,292-142.1,292-317.6v0C967,331.5,836.3,189.3,675.1,189.4L675.1,189.4z M799.5,643.5c-32.9,35.8-77.5,56-124,55.9
	h-322c-97.1,0.1-175.9-85.4-176.2-191.1v-1.8c0.3-105.7,79.1-191.1,176.2-191h321.9c96.8-0.1,175.4,85.3,175.4,190.7
	c0,0.1,0,0.2,0,0.2v1.8C850.8,559,832.4,607.7,799.5,643.5L799.5,643.5z"/>
</svg>
