<?xml version="1.0" encoding="UTF-8"?>
<svg width="140" height="140" viewBox="0 0 140 140" fill="none" version="1.1" xmlns="http://www.w3.org/2000/svg" xmlns:xlink="http://www.w3.org/1999/xlink"><path d="M0 104.988C0 124.334 15.6657 140 35.0118 140H104.988C124.334 140 140 124.334 140 104.988V35.0118C140 15.6657 124.334 0 104.988 0H35.0118C15.6657 0 0 15.6657 0 35.0118V104.988Z" fill="#7B67EE"></path><path d="M93.2861 104.941C86.8688 104.941 81.6312 99.7034 81.6312 93.2862C81.6312 86.8689 86.8688 81.6313 93.2861 81.6313C99.7034 81.6313 104.941 86.8689 104.941 93.2862C104.941 99.7034 99.7034 104.941 93.2861 104.941Z" fill="white"></path><path d="M81.6311 58.3687L58.3686 81.6313L35.0588 104.941V81.6313V58.3687V35.059H58.3686V58.3687L81.6311 35.059H104.941L81.6311 58.3687Z" fill="white"></path></svg>
