<?xml version="1.0" encoding="UTF-8"?>
<svg width="182px" height="127px" viewBox="0 0 182 127" version="1.1" xmlns="http://www.w3.org/2000/svg" xmlns:xlink="http://www.w3.org/1999/xlink">
    <title>编组</title>
    <defs>
        <rect id="path-1" x="0" y="0" width="153" height="98" rx="6"></rect>
        <rect id="path-3" x="0" y="0" width="141" height="76" rx="6"></rect>
        <filter x="-53.8%" y="-47.7%" width="207.7%" height="195.5%" filterUnits="objectBoundingBox" id="filter-5">
            <feGaussianBlur stdDeviation="7" in="SourceGraphic"></feGaussianBlur>
        </filter>
    </defs>
    <g id="DAG复制任务" stroke="none" stroke-width="1" fill="none" fill-rule="evenodd">
        <g id="DAG（任务校验详情-无错误记录）" transform="translate(-894.000000, -386.000000)">
            <g id="编组" transform="translate(894.000000, 407.000000)">
                <g id="矩形" transform="translate(0.000000, 8.000000)">
                    <mask id="mask-2" fill="white">
                        <use xlink:href="#path-1"></use>
                    </mask>
                    <use id="蒙版" fill="#F2F4F6" xlink:href="#path-1"></use>
                    <rect fill="#D4D9DD" mask="url(#mask-2)" x="0" y="0" width="153" height="8.16666667" rx="1"></rect>
                    <ellipse id="椭圆形" fill="#FFFFFF" mask="url(#mask-2)" cx="8.54126214" cy="4.08333333" rx="1.85679612" ry="1.85606061"></ellipse>
                    <ellipse id="椭圆形" fill="#FFFFFF" mask="url(#mask-2)" cx="8.54126214" cy="4.08333333" rx="1.85679612" ry="1.85606061"></ellipse>
                    <ellipse id="椭圆形" fill="#FFFFFF" mask="url(#mask-2)" cx="14.4830097" cy="4.08333333" rx="1.85679612" ry="1.85606061"></ellipse>
                    <ellipse id="椭圆形" fill="#FFFFFF" mask="url(#mask-2)" cx="20.4247573" cy="4.08333333" rx="1.85679612" ry="1.85606061"></ellipse>
                </g>
                <g id="编组-3" transform="translate(6.000000, 24.000000)">
                    <mask id="mask-4" fill="white">
                        <use xlink:href="#path-3"></use>
                    </mask>
                    <use id="蒙版" fill="#FFFFFF" xlink:href="#path-3"></use>
                    <rect id="矩形" fill="#E7EBF2" mask="url(#mask-4)" x="42.3" y="14.9019608" width="89.0526316" height="7.45098039" rx="2"></rect>
                    <rect id="矩形" fill="#F7F8FA" mask="url(#mask-4)" x="42.3" y="26.8235294" width="23.0052632" height="4.47058824" rx="2"></rect>
                    <rect id="矩形" fill="#F7F8FA" mask="url(#mask-4)" x="42.3" y="35.7647059" width="23.0052632" height="4.47058824" rx="2"></rect>
                    <rect id="矩形" fill="#F7F8FA" mask="url(#mask-4)" x="42.3" y="44.7058824" width="23.0052632" height="4.47058824" rx="2"></rect>
                    <rect id="矩形" fill="#F7F8FA" mask="url(#mask-4)" x="73.4684211" y="26.8235294" width="13.3578947" height="4.47058824" rx="2"></rect>
                    <rect id="矩形" fill="#F7F8FA" mask="url(#mask-4)" x="73.4684211" y="35.7647059" width="13.3578947" height="4.47058824" rx="2"></rect>
                    <rect id="矩形" fill="#F7F8FA" mask="url(#mask-4)" x="73.4684211" y="44.7058824" width="13.3578947" height="4.47058824" rx="2"></rect>
                    <rect id="矩形" fill="#FFE8CC" mask="url(#mask-4)" x="93.5052632" y="26.8235294" width="11.8736842" height="4.47058824" rx="2"></rect>
                    <g id="zhengque" mask="url(#mask-4)" fill-rule="nonzero">
                        <g transform="translate(111.000000, 26.000000)">
                            <path d="M6,3 C6,4.65692308 4.65692308,6 3,6 C1.34307692,6 0,4.65692308 0,3 C0,1.34307692 1.34307692,0 3,0 C4.65692308,0 6,1.34307692 6,3 Z" id="路径" fill="#39C27D"></path>
                            <path d="M3,0.42857143 C1.57992857,0.42857143 0.42857143,1.57992857 0.42857143,3 C0.42857143,4.42007143 1.57992857,5.57142857 3,5.57142857 C4.42007143,5.57142857 5.57142857,4.42007143 5.57142857,3 C5.57142857,1.57992857 4.42007143,0.42857143 3,0.42857143 Z M0,3 C0,1.34314286 1.34314286,0 3,0 C4.65685714,0 6,1.34314285 6,3 C6,4.65685715 4.65685715,6 3,6 C1.34314285,6 0,4.65685714 0,3 Z" id="形状" fill="#39C27D"></path>
                            <path d="M4.77801134,1.95763192 C4.90732955,2.06744435 4.90732955,2.24534068 4.77801134,2.35515311 L2.78818332,4.0427431 C2.65870408,4.15241897 2.44894751,4.15241897 2.31946827,4.0427431 L1.21400825,3.10519311 C1.09224899,2.99437104 1.09584173,2.82167435 1.22213482,2.71456412 C1.34842791,2.60745388 1.55205361,2.60440685 1.6827233,2.70767191 L2.55382579,3.44608628 L4.3092963,1.9572569 C4.43877553,1.84758103 4.64853211,1.84758103 4.77801134,1.9572569 L4.77801134,1.95763192 Z" id="路径" fill="#FFFFFF"></path>
                        </g>
                    </g>
                    <g id="zhengque" mask="url(#mask-4)" fill-rule="nonzero">
                        <g transform="translate(111.000000, 35.000000)">
                            <path d="M6,3 C6,4.65692308 4.65692308,6 3,6 C1.34307692,6 0,4.65692308 0,3 C0,1.34307692 1.34307692,0 3,0 C4.65692308,0 6,1.34307692 6,3 Z" id="路径" fill="#39C27D"></path>
                            <path d="M3,0.42857143 C1.57992857,0.42857143 0.42857143,1.57992857 0.42857143,3 C0.42857143,4.42007143 1.57992857,5.57142857 3,5.57142857 C4.42007143,5.57142857 5.57142857,4.42007143 5.57142857,3 C5.57142857,1.57992857 4.42007143,0.42857143 3,0.42857143 Z M0,3 C0,1.34314286 1.34314286,0 3,0 C4.65685714,0 6,1.34314285 6,3 C6,4.65685715 4.65685715,6 3,6 C1.34314285,6 0,4.65685714 0,3 Z" id="形状" fill="#39C27D"></path>
                            <path d="M4.77801134,1.95763192 C4.90732955,2.06744435 4.90732955,2.24534068 4.77801134,2.35515311 L2.78818332,4.0427431 C2.65870408,4.15241897 2.44894751,4.15241897 2.31946827,4.0427431 L1.21400825,3.10519311 C1.09224899,2.99437104 1.09584173,2.82167435 1.22213482,2.71456412 C1.34842791,2.60745388 1.55205361,2.60440685 1.6827233,2.70767191 L2.55382579,3.44608628 L4.3092963,1.9572569 C4.43877553,1.84758103 4.64853211,1.84758103 4.77801134,1.9572569 L4.77801134,1.95763192 Z" id="路径" fill="#FFFFFF"></path>
                        </g>
                    </g>
                    <g id="zhengque" mask="url(#mask-4)" fill-rule="nonzero">
                        <g transform="translate(111.000000, 44.000000)">
                            <path d="M6,3 C6,4.65692308 4.65692308,6 3,6 C1.34307692,6 0,4.65692308 0,3 C0,1.34307692 1.34307692,0 3,0 C4.65692308,0 6,1.34307692 6,3 Z" id="路径" fill="#39C27D"></path>
                            <path d="M3,0.42857143 C1.57992857,0.42857143 0.42857143,1.57992857 0.42857143,3 C0.42857143,4.42007143 1.57992857,5.57142857 3,5.57142857 C4.42007143,5.57142857 5.57142857,4.42007143 5.57142857,3 C5.57142857,1.57992857 4.42007143,0.42857143 3,0.42857143 Z M0,3 C0,1.34314286 1.34314286,0 3,0 C4.65685714,0 6,1.34314285 6,3 C6,4.65685715 4.65685715,6 3,6 C1.34314285,6 0,4.65685714 0,3 Z" id="形状" fill="#39C27D"></path>
                            <path d="M4.77801134,1.95763192 C4.90732955,2.06744435 4.90732955,2.24534068 4.77801134,2.35515311 L2.78818332,4.0427431 C2.65870408,4.15241897 2.44894751,4.15241897 2.31946827,4.0427431 L1.21400825,3.10519311 C1.09224899,2.99437104 1.09584173,2.82167435 1.22213482,2.71456412 C1.34842791,2.60745388 1.55205361,2.60440685 1.6827233,2.70767191 L2.55382579,3.44608628 L4.3092963,1.9572569 C4.43877553,1.84758103 4.64853211,1.84758103 4.77801134,1.9572569 L4.77801134,1.95763192 Z" id="路径" fill="#FFFFFF"></path>
                        </g>
                    </g>
                    <g id="zhengque" mask="url(#mask-4)" fill-rule="nonzero">
                        <g transform="translate(111.000000, 53.000000)">
                            <path d="M6,3 C6,4.65692308 4.65692308,6 3,6 C1.34307692,6 0,4.65692308 0,3 C0,1.34307692 1.34307692,0 3,0 C4.65692308,0 6,1.34307692 6,3 Z" id="路径" fill="#39C27D"></path>
                            <path d="M3,0.42857143 C1.57992857,0.42857143 0.42857143,1.57992857 0.42857143,3 C0.42857143,4.42007143 1.57992857,5.57142857 3,5.57142857 C4.42007143,5.57142857 5.57142857,4.42007143 5.57142857,3 C5.57142857,1.57992857 4.42007143,0.42857143 3,0.42857143 Z M0,3 C0,1.34314286 1.34314286,0 3,0 C4.65685714,0 6,1.34314285 6,3 C6,4.65685715 4.65685715,6 3,6 C1.34314285,6 0,4.65685714 0,3 Z" id="形状" fill="#39C27D"></path>
                            <path d="M4.77801134,1.95763192 C4.90732955,2.06744435 4.90732955,2.24534068 4.77801134,2.35515311 L2.78818332,4.0427431 C2.65870408,4.15241897 2.44894751,4.15241897 2.31946827,4.0427431 L1.21400825,3.10519311 C1.09224899,2.99437104 1.09584173,2.82167435 1.22213482,2.71456412 C1.34842791,2.60745388 1.55205361,2.60440685 1.6827233,2.70767191 L2.55382579,3.44608628 L4.3092963,1.9572569 C4.43877553,1.84758103 4.64853211,1.84758103 4.77801134,1.9572569 L4.77801134,1.95763192 Z" id="路径" fill="#FFFFFF"></path>
                        </g>
                    </g>
                    <rect id="矩形" fill="#B7F5C7" mask="url(#mask-4)" x="93.5052632" y="35.7647059" width="11.8736842" height="4.47058824" rx="2"></rect>
                    <rect id="矩形" fill="#FFEBEC" mask="url(#mask-4)" x="93.5052632" y="44.7058824" width="11.8736842" height="4.47058824" rx="2"></rect>
                    <rect id="矩形" fill="#F7F8FA" mask="url(#mask-4)" x="42.3" y="53.6470588" width="23.0052632" height="4.47058824" rx="2"></rect>
                    <rect id="矩形" fill="#F7F8FA" mask="url(#mask-4)" x="73.4684211" y="53.6470588" width="13.3578947" height="4.47058824" rx="2"></rect>
                    <rect id="矩形" fill="#DAEBFF" mask="url(#mask-4)" x="93.5052632" y="53.6470588" width="11.8736842" height="4.47058824" rx="2"></rect>
                    <rect id="矩形" fill="#2C65FF" mask="url(#mask-4)" x="0" y="0" width="31.1684211" height="76" rx="2"></rect>
                    <rect id="矩形" fill="#F7F9FD" mask="url(#mask-4)" x="2.22631579" y="17.8823529" width="26.7157895" height="4.47058824" rx="1"></rect>
                    <rect id="矩形" fill="#F7F9FD" opacity="0.213321504" mask="url(#mask-4)" x="2.22631579" y="26.8235294" width="20.7789474" height="2.23529412" rx="1"></rect>
                    <rect id="矩形" fill="#F7F9FD" opacity="0.213321504" mask="url(#mask-4)" x="2.22631579" y="33.5294118" width="25.2315789" height="2.23529412" rx="1"></rect>
                    <rect id="矩形" fill="#F7F9FD" opacity="0.213321504" mask="url(#mask-4)" x="2.22631579" y="40.2352941" width="20.7789474" height="2.23529412" rx="1"></rect>
                    <rect id="矩形" fill="#9DB8EF" mask="url(#mask-4)" x="2.22631579" y="8.19607843" width="5.19473684" height="5.21568627" rx="1"></rect>
                </g>
                <rect id="矩形" fill-opacity="0.298339844" fill="#CAD6F5" filter="url(#filter-5)" x="122" y="0" width="39" height="44" rx="1"></rect>
                <rect id="矩形" fill="#FFFFFF" x="122" y="0" width="39" height="44" rx="1"></rect>
                <rect id="矩形" fill="#F7F8FA" x="126" y="13" width="23" height="4" rx="2"></rect>
                <rect id="矩形" fill="#F7F8FA" x="126" y="22" width="23" height="4" rx="2"></rect>
                <rect id="矩形" fill="#F7F8FA" x="126" y="31" width="23" height="4" rx="2"></rect>
                <line x1="127.371795" y1="6.5" x2="154.5" y2="6.5" id="直线-2" stroke="#D4D9DD" stroke-linecap="square"></line>
                <g id="zhengque" transform="translate(126.000000, 3.000000)" fill-rule="nonzero">
                    <path d="M6,3 C6,4.65692308 4.65692308,6 3,6 C1.34307692,6 0,4.65692308 0,3 C0,1.34307692 1.34307692,0 3,0 C4.65692308,0 6,1.34307692 6,3 Z" id="路径" fill="#39C27D"></path>
                    <path d="M3,0.42857143 C1.57992857,0.42857143 0.42857143,1.57992857 0.42857143,3 C0.42857143,4.42007143 1.57992857,5.57142857 3,5.57142857 C4.42007143,5.57142857 5.57142857,4.42007143 5.57142857,3 C5.57142857,1.57992857 4.42007143,0.42857143 3,0.42857143 Z M0,3 C0,1.34314286 1.34314286,0 3,0 C4.65685714,0 6,1.34314285 6,3 C6,4.65685715 4.65685715,6 3,6 C1.34314285,6 0,4.65685714 0,3 Z" id="形状" fill="#39C27D"></path>
                    <path d="M4.77801134,1.95763192 C4.90732955,2.06744435 4.90732955,2.24534068 4.77801134,2.35515311 L2.78818332,4.0427431 C2.65870408,4.15241897 2.44894751,4.15241897 2.31946827,4.0427431 L1.21400825,3.10519311 C1.09224899,2.99437104 1.09584173,2.82167435 1.22213482,2.71456412 C1.34842791,2.60745388 1.55205361,2.60440685 1.6827233,2.70767191 L2.55382579,3.44608628 L4.3092963,1.9572569 C4.43877553,1.84758103 4.64853211,1.84758103 4.77801134,1.9572569 L4.77801134,1.95763192 Z" id="路径" fill="#FFFFFF"></path>
                </g>
                <g id="zhengque" transform="translate(138.000000, 3.000000)" fill-rule="nonzero">
                    <path d="M6,3 C6,4.65692308 4.65692308,6 3,6 C1.34307692,6 0,4.65692308 0,3 C0,1.34307692 1.34307692,0 3,0 C4.65692308,0 6,1.34307692 6,3 Z" id="路径" fill="#39C27D"></path>
                    <path d="M3,0.42857143 C1.57992857,0.42857143 0.42857143,1.57992857 0.42857143,3 C0.42857143,4.42007143 1.57992857,5.57142857 3,5.57142857 C4.42007143,5.57142857 5.57142857,4.42007143 5.57142857,3 C5.57142857,1.57992857 4.42007143,0.42857143 3,0.42857143 Z M0,3 C0,1.34314286 1.34314286,0 3,0 C4.65685714,0 6,1.34314285 6,3 C6,4.65685715 4.65685715,6 3,6 C1.34314285,6 0,4.65685714 0,3 Z" id="形状" fill="#39C27D"></path>
                    <path d="M4.77801134,1.95763192 C4.90732955,2.06744435 4.90732955,2.24534068 4.77801134,2.35515311 L2.78818332,4.0427431 C2.65870408,4.15241897 2.44894751,4.15241897 2.31946827,4.0427431 L1.21400825,3.10519311 C1.09224899,2.99437104 1.09584173,2.82167435 1.22213482,2.71456412 C1.34842791,2.60745388 1.55205361,2.60440685 1.6827233,2.70767191 L2.55382579,3.44608628 L4.3092963,1.9572569 C4.43877553,1.84758103 4.64853211,1.84758103 4.77801134,1.9572569 L4.77801134,1.95763192 Z" id="路径" fill="#FFFFFF"></path>
                </g>
                <g id="zhengque" transform="translate(150.000000, 3.000000)" fill-rule="nonzero">
                    <path d="M6,3 C6,4.65692308 4.65692308,6 3,6 C1.34307692,6 0,4.65692308 0,3 C0,1.34307692 1.34307692,0 3,0 C4.65692308,0 6,1.34307692 6,3 Z" id="路径" fill="#39C27D"></path>
                    <path d="M3,0.42857143 C1.57992857,0.42857143 0.42857143,1.57992857 0.42857143,3 C0.42857143,4.42007143 1.57992857,5.57142857 3,5.57142857 C4.42007143,5.57142857 5.57142857,4.42007143 5.57142857,3 C5.57142857,1.57992857 4.42007143,0.42857143 3,0.42857143 Z M0,3 C0,1.34314286 1.34314286,0 3,0 C4.65685714,0 6,1.34314285 6,3 C6,4.65685715 4.65685715,6 3,6 C1.34314285,6 0,4.65685714 0,3 Z" id="形状" fill="#39C27D"></path>
                    <path d="M4.77801134,1.95763192 C4.90732955,2.06744435 4.90732955,2.24534068 4.77801134,2.35515311 L2.78818332,4.0427431 C2.65870408,4.15241897 2.44894751,4.15241897 2.31946827,4.0427431 L1.21400825,3.10519311 C1.09224899,2.99437104 1.09584173,2.82167435 1.22213482,2.71456412 C1.34842791,2.60745388 1.55205361,2.60440685 1.6827233,2.70767191 L2.55382579,3.44608628 L4.3092963,1.9572569 C4.43877553,1.84758103 4.64853211,1.84758103 4.77801134,1.9572569 L4.77801134,1.95763192 Z" id="路径" fill="#FFFFFF"></path>
                </g>
            </g>
        </g>
    </g>
</svg>