<?xml version="1.0" encoding="UTF-8"?>
<svg width="27px" height="27px" viewBox="0 0 27 27" version="1.1" xmlns="http://www.w3.org/2000/svg" xmlns:xlink="http://www.w3.org/1999/xlink">
    <title>编组 9</title>
    <g id="DAG复制任务" stroke="none" stroke-width="1" fill="none" fill-rule="evenodd">
        <g id="任务基础属性-" transform="translate(-1195.000000, -11.000000)">
            <g id="编组-9" transform="translate(1195.000000, 11.000000)">
                <g id="编组">
                    <circle id="椭圆形" fill="#EEEFF1" cx="13.5" cy="13.5" r="13.5"></circle>
                    <path d="M19.1672666,9.1627093 C19.2023622,9.24203875 19.2308774,9.33458978 19.2528121,9.44036239 C19.2747469,9.54613499 19.2857143,9.65631479 19.2857143,9.77090178 C19.2857143,9.88548878 19.2637795,10.0000758 19.21991,10.1146628 C19.1760405,10.2292497 19.1058493,10.3394295 19.0093363,10.4452021 C18.9040495,10.5509747 18.80973,10.6435258 18.7263779,10.7228552 C18.6430259,10.8021847 18.5706412,10.8726998 18.5092238,10.9344004 C18.4390326,11.0049155 18.3732283,11.0666162 18.311811,11.1195025 L15.8507312,8.64706786 C15.956018,8.55010964 16.0810461,8.43331906 16.2258155,8.29669611 C16.3705849,8.16007317 16.4912261,8.05209697 16.587739,7.97276751 C16.7105737,7.87580929 16.8377953,7.80749782 16.9694038,7.76783309 C17.1010124,7.72816836 17.2304274,7.7105396 17.3576491,7.71494679 C17.4848707,7.71935399 17.6077053,7.73918635 17.726153,7.77444388 C17.8446007,7.80970142 17.947694,7.84936614 18.0354331,7.89343807 C18.219685,7.99039629 18.4236783,8.16007318 18.6474128,8.40246873 C18.8711474,8.64486429 19.044432,8.89827783 19.1672666,9.16270934 L19.1672666,9.1627093 Z M9.28346459,15.2380233 C9.47649046,15.0396997 9.71777279,14.7951005 10.0073116,14.5042259 L10.968054,13.5390508 L12.0340833,12.4681032 L14.8636671,9.62546444 L17.3247469,12.1111207 L14.4951631,14.9537595 L13.4422947,16.0247071 C13.0913386,16.368468 12.7754781,16.6835823 12.4947132,16.9700497 C12.2139483,17.2565172 11.9814398,17.492302 11.7971879,17.677404 C11.6129359,17.8625061 11.5032621,17.9682787 11.4681665,17.9947219 C11.3804274,18.0740513 11.2795276,18.157788 11.1654668,18.2459318 C11.0514061,18.3340756 10.9329584,18.4045907 10.8101237,18.457477 C10.6872891,18.5191777 10.5074241,18.5941 10.2705287,18.6822438 C10.0336333,18.7703876 9.78577054,18.8563279 9.52694038,18.9400645 C9.26811023,19.0238012 9.02244094,19.0965198 8.78993251,19.1582205 C8.55742409,19.2199212 8.3841395,19.2595859 8.27007874,19.2772147 C8.03318335,19.3036579 7.8752531,19.2684003 7.79628797,19.1714421 C7.71732284,19.0744839 7.69538808,18.9114178 7.73048369,18.6822438 C7.74803149,18.5588424 7.78970753,18.3803511 7.85551181,18.14677 C7.92131609,17.9131888 7.99150732,17.6707933 8.06608549,17.4195833 C8.14066367,17.1683734 8.21304837,16.9369958 8.2832396,16.7254506 C8.35343082,16.5139054 8.41046119,16.3684681 8.4543307,16.2891386 C8.50697413,16.1657372 8.56619797,16.0533538 8.63200225,15.9519884 C8.69780652,15.850623 8.79212598,15.7382396 8.91496063,15.6148382 C8.96760407,15.5619519 9.09043872,15.436347 9.28346459,15.2380233 Z M14.7713568,10.2278737 L7.71428571,19.1278622" id="形状" fill="#2C65FF" fill-rule="nonzero"></path>
                    <path d="M10.2477503,17.1665948 C10.4407762,16.9682711 10.6820585,16.723672 10.9715973,16.4327973 L11.9323397,15.4676223 L12.998369,14.3966746 L16.3151495,11.0957747 L17.3247469,12.1111207 L14.4951631,14.9537595 L13.4422947,16.0247071 C13.0913386,16.368468 12.7754781,16.6835823 12.4947132,16.9700497 C12.2139483,17.2565172 11.9814398,17.492302 11.7971879,17.677404 C11.6129359,17.8625061 11.5032621,17.9682787 11.4681665,17.9947219 C11.3804274,18.0740513 11.2795276,18.157788 11.1654668,18.2459318 C11.0514061,18.3340756 10.9329584,18.4045907 10.8101237,18.457477 C10.6872891,18.5191777 10.5074241,18.5941 10.2705287,18.6822438 C10.0336333,18.7703876 9.78577054,18.8563279 9.52694038,18.9400645 C9.26811023,19.0238012 9.17733408,18.8655672 9.24752531,18.654022 C9.31771654,18.4424768 9.37474691,18.2970395 9.41861642,18.21771 C9.47125984,18.0943086 9.53048369,17.9819253 9.59628796,17.8805598 C9.66209223,17.7791944 9.75641169,17.666811 9.87924634,17.5434097 C9.93188979,17.4905234 10.0547244,17.3649184 10.2477503,17.1665948 Z" id="路径" fill="#649DFD" fill-rule="nonzero" opacity="0.567784627"></path>
                    <path d="M19.1672666,9.1627093 C19.2023622,9.24203875 19.2308774,9.33458978 19.2528121,9.44036239 C19.2747469,9.54613499 19.2857143,9.65631479 19.2857143,9.77090178 C19.2857143,9.88548878 19.2637795,10.0000758 19.21991,10.1146628 C19.1760405,10.2292497 19.1058493,10.3394295 19.0093363,10.4452021 C18.9040495,10.5509747 18.80973,10.6435258 18.7263779,10.7228552 C18.6430259,10.8021847 18.5706412,10.8726998 18.5092238,10.9344004 C18.4390326,11.0049155 18.3732283,11.0666162 18.311811,11.1195025 L15.8507312,8.64706786 C15.956018,8.55010964 16.0810461,8.43331906 16.2258155,8.29669611 C16.3705849,8.16007317 16.4912261,8.05209697 16.587739,7.97276751 C16.7105737,7.87580929 16.8377953,7.80749782 16.9694038,7.76783309 C17.1010124,7.72816836 17.2304274,7.7105396 17.3576491,7.71494679 C17.4848707,7.71935399 17.6077053,7.73918635 17.726153,7.77444388 C17.8446007,7.80970142 17.947694,7.84936614 18.0354331,7.89343807 C18.219685,7.99039629 18.4236783,8.16007318 18.6474128,8.40246873 C18.8711474,8.64486429 19.044432,8.89827783 19.1672666,9.16270934 L19.1672666,9.1627093 Z" id="路径" fill="#649DFD" fill-rule="nonzero"></path>
                </g>
                <g id="bianji" transform="translate(8.000000, 8.000000)"></g>
            </g>
        </g>
    </g>
</svg>