<svg width="65" height="40" viewBox="0 0 65 40" fill="none" xmlns="http://www.w3.org/2000/svg">
<g clip-path="url(#clip0_3952_44578)">
<path d="M32.5 39.7031C50.1731 39.7031 64.5 36.5923 64.5 32.755C64.5 28.9177 50.1731 25.807 32.5 25.807C14.8269 25.807 0.5 28.9177 0.5 32.755C0.5 36.5923 14.8269 39.7031 32.5 39.7031Z" fill="#F5F5F5"/>
<path d="M55.5 13.6653L45.354 2.24866C44.867 1.47048 44.156 1 43.407 1H21.593C20.844 1 20.133 1.47048 19.646 2.24767L9.5 13.6663V22.8367H55.5V13.6653Z" stroke="#D9D9D9"/>
<path d="M42.113 16.8127C42.113 15.2197 43.107 13.9045 44.34 13.9035H55.5V31.9059C55.5 34.0131 54.18 35.7402 52.55 35.7402H12.45C10.82 35.7402 9.5 34.0121 9.5 31.9059V13.9035H20.66C21.893 13.9035 22.887 15.2167 22.887 16.8098V16.8316C22.887 18.4247 23.892 19.7111 25.124 19.7111H39.876C41.108 19.7111 42.113 18.4128 42.113 16.8197V16.8127Z" fill="#FAFAFA" stroke="#D9D9D9"/>
</g>
<defs>
<clipPath id="clip0_3952_44578">
<rect width="64" height="40" fill="white" transform="translate(0.5)"/>
</clipPath>
</defs>
</svg>
