<?xml version="1.0" standalone="no"?><!DOCTYPE svg PUBLIC "-//W3C//DTD SVG 1.1//EN" "http://www.w3.org/Graphics/SVG/1.1/DTD/svg11.dtd"><svg t="1588043992629" class="icon" viewBox="0 0 1024 1024" version="1.1" xmlns="http://www.w3.org/2000/svg" p-id="10471" xmlns:xlink="http://www.w3.org/1999/xlink" width="200" height="200"><defs><style type="text/css"></style></defs><path d="M457 335.8v165.6l397.7 1.1V372.8z" fill="#dbdbdb" p-id="10472"></path><path d="M457 335.8V485l-321.5-32.7v-46.8z" fill="#cdcdcd" p-id="10473"></path><path d="M136.6 405.5v432.6l380.3 76.3V442.5z" fill="#dbdbdb" p-id="10474"></path><path d="M136.6 405.5l-74 160.4 380.3 76.3 74-199.7z" fill="#E9E9E9" p-id="10475"></path><path d="M855.8 375v432.6L516.9 914.4V442.5z" fill="#cdcdcd" p-id="10476"></path><path d="M855.8 375l103.5 168.8-338.8 106.8-103.6-208.1z" fill="#DDDDDD" p-id="10477"></path><path d="M618.8 90.7l53.1-19.5-4.7 89.8-30.6 8.9zM688.5 176.6l17.7 13.6L789 92.6l-61.5-29.2zM752.7 215.9l11.4 31.6 95.3-31.6-10.9-63.2z" fill="#E9E9E9" p-id="10478"></path></svg>
