<?xml version="1.0" encoding="UTF-8"?>
<svg width="40px" height="40px" viewBox="0 0 40 40" version="1.1" xmlns="http://www.w3.org/2000/svg" xmlns:xlink="http://www.w3.org/1999/xlink">
    <title>ADB PostgreSQL</title>
    <g id="ADB-PostgreSQL" stroke="none" stroke-width="1" fill="none" fill-rule="evenodd">
        <path d="M20,3.03927931 C29.2560625,3.03927931 36.7595837,10.5428005 36.7595837,19.798863 C36.7595837,21.85136 36.3906252,23.817682 35.7154143,25.6351229 L35.6814676,25.627183 C35.4521358,26.5158386 34.6451719,27.172318 33.6848789,27.172318 C32.5461372,27.172318 31.6230047,26.2491855 31.6230047,25.1104438 C31.6230047,24.9695976 31.6371269,24.8320498 31.6640327,24.6991392 L31.6078084,24.6864431 C32.2936026,23.1268089 32.6742856,21.4026897 32.6742856,19.5896572 C32.6742856,12.5898425 26.9998147,6.91537159 20,6.91537159 C13.0001853,6.91537159 7.32571438,12.5898425 7.32571438,19.5896572 C7.32571438,21.1870954 7.62124362,22.7155091 8.16061111,24.1232073 L8.10968826,24.1501806 C8.25546922,24.4329246 8.3377783,24.7537301 8.3377783,25.09376 C8.3377783,26.2325017 7.41464577,27.1556342 6.27590409,27.1556342 C5.49710034,27.1556342 4.81914588,26.7238471 4.46837441,26.0866065 L4.4613774,26.0904054 L4.42699238,26.007402 C4.37203133,25.8963914 4.32677363,25.7797223 4.29232787,25.6585033 C3.61240862,23.8338156 3.24041628,21.8597811 3.24041628,19.798863 C3.24041628,10.5428005 10.7439375,3.03927931 20,3.03927931 Z" id="形状结合" fill="#C15612"></path>
        <path d="M19.9532003,22.3077877 C25.7734059,22.3077877 30.4916147,26.7566468 30.4916147,32.2445926 L30.4889919,32.3477877 L27.260067,33.333581 C27.2685061,33.1978449 27.2727848,33.0610548 27.2727848,32.9233224 C27.2727848,29.1116025 23.9956952,26.0215931 19.9532003,26.0215931 C16.0985012,26.0215931 12.9397448,28.8311757 12.6545809,32.3970072 L9.46299192,31.2879658 C9.97347166,26.2488301 14.4752315,22.3077877 19.9532003,22.3077877 Z" id="形状结合" fill="#C15612" transform="translate(19.977303, 27.731206) rotate(-180.000000) translate(-19.977303, -27.731206) "></path>
        <path d="M20,12.1030452 C24.1904157,12.1030452 27.5874189,15.5000483 27.5874189,19.690464 C27.5874189,20.6196481 27.4203924,21.5098211 27.1147257,22.3325968 L24.5933667,21.7507547 C24.8007798,21.2068909 24.9143781,20.6167116 24.9143781,20 C24.9143781,17.2858639 22.7141361,15.0856219 20,15.0856219 C17.2858639,15.0856219 15.0856219,17.2858639 15.0856219,20 C15.0856219,20.456188 15.1477796,20.8978583 15.2640878,21.3170036 L12.965375,22.5388745 C12.6089034,21.6593731 12.4125811,20.6978453 12.4125811,19.690464 C12.4125811,15.5000483 15.8095843,12.1030452 20,12.1030452 Z" id="形状结合" fill="#C15612"></path>
        <path d="M23.3579121,21.4813196 C23.3835602,21.6495971 23.3968609,21.8219345 23.3968609,21.9973785 C23.3968609,23.8734129 21.8760345,25.3942393 20,25.3942393 C18.1239655,25.3942393 16.6031391,23.8734129 16.6031391,21.9973785 C16.6031391,21.8219345 16.6164398,21.6495971 16.6420879,21.4813196 Z" id="形状结合" fill="#C15612"></path>
    </g>
</svg>