<?xml version="1.0" encoding="UTF-8"?>
<svg width="28px" height="28px" viewBox="0 0 28 28" version="1.1" xmlns="http://www.w3.org/2000/svg" xmlns:xlink="http://www.w3.org/1999/xlink">
    <title>dummy</title>
    <g id="dummy" stroke="none" stroke-width="1" fill="none" fill-rule="evenodd">
        <g fill="#4AAF47" fill-rule="nonzero" id="形状">
            <path d="M25.9993301,0 L2.00066987,0 C0.90030144,0 0,0.90030144 0,2.00066987 L0,25.9993301 C0,27.0996986 0.90030144,28 2.00066987,28 L25.9993301,28 C27.0996986,28 28,27.0996986 28,25.9993301 L28,2.00066987 C28,0.90030144 27.0996986,0 25.9993301,0 Z M25.9868259,24.8551971 C25.9868259,25.5116669 25.455398,26.0430948 24.7989282,26.0430948 L3.16668527,26.0430948 C2.51021547,26.0430948 1.97878754,25.5116669 1.97878754,24.8551971 L1.97878754,3.22295411 C1.97878754,2.56961036 2.51334152,2.03505638 3.16668527,2.03505638 L24.7989282,2.03505638 C25.452272,2.03505638 25.9868259,2.56961036 25.9868259,3.22295411 L25.9868259,24.8551971 Z"></path>
            <path d="M20.963269,20.0035726 L7.03673105,20.0035726 C6.48654683,20.0035726 6.03639611,19.5534219 6.03639611,19.0032377 C6.03639611,18.4530535 6.48654683,18.0029028 7.03673105,18.0029028 L20.963269,18.0029028 C21.5134532,18.0029028 21.9636039,18.4530535 21.9636039,19.0032377 C21.9636039,19.5534219 21.5134532,20.0035726 20.963269,20.0035726 Z M10.0096014,10.0002233 L6.97733616,10.0002233 C6.42715195,10.0002233 5.97700123,9.55007257 5.97700123,8.99988836 C5.97700123,8.44970414 6.42715195,7.99955342 6.97733616,7.99955342 L10.0096014,7.99955342 C10.5597856,7.99955342 11.0099364,8.44970414 11.0099364,8.99988836 C11.0099364,9.55007257 10.5597856,10.0002233 10.0096014,10.0002233 Z M20.9757731,10.0002233 L18.0372893,10.0002233 C17.4871051,10.0002233 17.0369543,9.55007257 17.0369543,8.99988836 C17.0369543,8.44970414 17.4871051,7.99955342 18.0372893,7.99955342 L20.9757731,7.99955342 C21.5259574,7.99955342 21.9761081,8.44970414 21.9761081,8.99988836 C21.9761081,9.55007257 21.5259574,10.0002233 20.9757731,10.0002233 Z"></path>
        </g>
    </g>
</svg>