<?xml version="1.0" encoding="UTF-8"?>
<svg width="20px" height="20px" viewBox="0 0 20 20" version="1.1" xmlns="http://www.w3.org/2000/svg" xmlns:xlink="http://www.w3.org/1999/xlink">
    <title>elasticsearch</title>
    <g id="elasticsearch" stroke="none" stroke-width="1" fill="none" fill-rule="evenodd">
        <g transform="translate(2.000000, 1.000000)" fill-rule="nonzero" id="路径">
            <path d="M17,8.90406961 C17,7.46885224 16.1118104,6.22870066 14.7934404,5.74100285 C14.8492781,5.43765332 14.8771361,5.12977962 14.8766604,4.82129267 C14.8766604,2.15979507 12.7256915,0 10.0750703,0 C8.53466948,0 7.09143616,0.738515735 6.18936553,2.00654338 C5.74530395,1.65815922 5.20407486,1.47703147 4.63508361,1.47703147 C3.2334271,1.47703147 2.08162994,2.61961681 2.08162994,4.04096283 C2.08162994,4.34753289 2.13715424,4.65410295 2.23425535,4.93279694 C0.902070636,5.39261869 0,6.67458437 0,8.0958637 C0,9.53114776 0.888189561,10.7852374 2.22037428,11.2729352 C2.16491639,11.5655672 2.13715424,11.8721373 2.13715424,12.1925787 C2.13715424,14.8401382 4.28812314,17 6.92486326,17 C8.47914518,17 9.90856384,16.2475462 10.8105681,14.9934566 C11.2546296,15.3417741 11.8097398,15.5369066 12.3787311,15.5369066 C13.7803876,15.5369066 14.9321847,14.3942545 14.9321847,12.9729752 C14.9321847,12.6664051 14.8766604,12.3598351 14.7795593,12.0811411 C16.0839819,11.6073813 17,10.3254156 17,8.90406961 L17,8.90406961 Z" fill="#FFFFFF"></path>
            <path d="M6.69736011,7.36329171 L10.2895141,9 L13.921089,5.83141949 C13.9740321,5.56845887 14.0004648,5.30089608 14,5.03271035 C14,2.80690239 12.1842379,1 9.94738318,1 C8.60524519,1 7.35529929,1.65464572 6.60529397,2.75445303 L6,5.87070951 L6.69736011,7.36335438 L6.69736011,7.36329171 Z" fill="#F4BD19"></path>
            <path d="M3.07864613,11.1661275 C3.0262363,11.4267185 3,11.7003422 3,11.9739658 C3,14.1888957 4.82292067,16 7.05244122,16 C8.4032968,16 9.64920718,15.335521 10.4098088,14.2410264 L11,11.1400622 L10.1999812,9.62864693 L6.60654966,8 L3.07864613,11.1661275 L3.07864613,11.1661275 Z" fill="#3CBEB1"></path>
            <path d="M3.11347503,5.45676921 L5.47063082,6 L6,3.37034703 C5.67230389,3.12342931 5.28150576,3 4.86555129,3 C3.84451728,3 3,3.8147871 3,4.82715563 C3,5.03702682 3.03782501,5.25924686 3.11341471,5.45676921 L3.11347503,5.45676921 Z" fill="#E9478C"></path>
            <path d="M2.79290091,6 C1.73232781,6.34706758 1,7.38820881 1,8.51928495 C1,9.62470934 1.66918047,10.614424 2.67929613,11 L6,7.94085949 L5.39390643,6.61705688 L2.79290091,6.00006151 L2.79290091,6 Z" fill="#2C458F"></path>
            <path d="M11,14.617245 C11.3290792,14.8642218 11.7215267,15 12.1265751,15 C13.1519184,15 14,14.1852129 14,13.1728444 C14,12.9506243 13.9620153,12.7406941 13.8861066,12.5431717 L11.5190024,12 L11,14.617245 L11,14.617245 Z" fill="#95C63D"></path>
            <path d="M11.6823823,11.382997 L14.2382281,12 C15.2803872,11.6401329 16,10.6118356 16,9.48068406 C16,8.37524606 15.3424381,7.3984375 14.3498605,7 L11,10.0334031 L11.6823823,11.3830586 L11.6823823,11.382997 Z" fill="#176655"></path>
        </g>
    </g>
</svg>