<?xml version="1.0" encoding="UTF-8"?>
<svg width="24px" height="24px" viewBox="0 0 24 24" version="1.1" xmlns="http://www.w3.org/2000/svg" xmlns:xlink="http://www.w3.org/1999/xlink">
    <title>Fa</title>
    <g id="DAG图" stroke="none" stroke-width="1" fill="none" fill-rule="evenodd">
        <g id="Fa" fill="#2C65FF" fill-rule="nonzero">
            <g transform="translate(4.000000, 6.000000)">
                <polygon id="路径" points="0 0 0 11.424 1.312 11.424 1.312 6.112 7.312 6.112 7.312 4.976 1.312 4.976 1.312 1.136 7.648 1.136 7.648 0"></polygon>
                <path d="M13.2053333,2.928 C12.2133333,2.928 11.4293333,3.12 10.8213333,3.504 C10.1493333,3.92 9.71733333,4.576 9.54133333,5.44 L10.8053333,5.536 C10.9333333,5.008 11.2053333,4.608 11.6373333,4.352 C12.0213333,4.096 12.5173333,3.984 13.1253333,3.984 C14.5653333,3.984 15.2853333,4.672 15.2853333,6.064 L15.2853333,6.496 L13.3013333,6.528 C12.0533333,6.544 11.0933333,6.784 10.4213333,7.232 C9.65333333,7.712 9.28533333,8.416 9.28533333,9.36 C9.28533333,10.032 9.54133333,10.592 10.0533333,11.024 C10.5493333,11.44 11.2053333,11.648 12.0373333,11.648 C12.8053333,11.648 13.4933333,11.472 14.1013333,11.136 C14.6133333,10.848 15.0453333,10.48 15.3653333,10.032 L15.3653333,11.424 L16.5653333,11.424 L16.5653333,6.112 C16.5653333,5.152 16.3093333,4.4 15.8293333,3.856 C15.2533333,3.232 14.3893333,2.928 13.2053333,2.928 Z M15.2853333,7.456 L15.2853333,8.16 C15.2853333,8.8 14.9813333,9.376 14.3893333,9.872 C13.7813333,10.384 13.0933333,10.64 12.3093333,10.64 C11.7973333,10.64 11.3813333,10.512 11.0613333,10.272 C10.7413333,10.016 10.5973333,9.712 10.5973333,9.328 C10.5973333,8.128 11.5253333,7.52 13.3813333,7.488 L15.2853333,7.456 Z" id="形状"></path>
            </g>
        </g>
    </g>
</svg>