<?xml version="1.0" encoding="UTF-8"?>
<svg width="24px" height="24px" viewBox="0 0 24 24" version="1.1" xmlns="http://www.w3.org/2000/svg" xmlns:xlink="http://www.w3.org/1999/xlink">
    <title>gaussdb200</title>
    <g id="页面-1" stroke="none" stroke-width="1" fill="none" fill-rule="evenodd">
        <g id="gaussdb200">
            <rect id="矩形" x="0" y="0" width="24" height="24"></rect>
            <path d="M10.3355445,17.1089525 C10.3617972,17.0875753 10.3730483,17.0511965 10.3554215,17.0208184 C8.55748643,13.1624212 6.31663075,9.5267969 3.67635894,6.18745313 C3.67635894,6.18745313 1.57726785,8.17515776 1.72690825,10.1748636 C1.80191598,11.1057094 2.23546061,11.9701734 2.94315846,12.5751107 C4.77334687,14.3591694 9.20517811,16.6105261 10.2357842,17.1205786 C10.2684126,17.1385805 10.3092918,17.1325799 10.3347944,17.1055771 M9.65072398,18.6357346 C9.63684755,18.5952305 9.59896865,18.5682277 9.55583921,18.5682277 L9.55583921,18.5704779 L2.17732962,18.8273794 C2.97728698,20.2544013 4.3248007,21.3618903 5.72894525,21.0228554 C6.69766997,20.7805804 8.89314599,19.2496728 9.61584538,18.7328696 L9.61509531,18.7298693 C9.67022598,18.6799892 9.65034894,18.6398601 9.65034894,18.6398601 M9.7617354,17.9760417 C9.79698903,17.9179107 9.73398255,17.8680306 9.73398255,17.8680306 L9.73473262,17.8650303 C6.49402401,15.6759299 0.212877392,12.3197094 0.212877392,12.3197094 C-0.493320307,14.5031842 0.610418317,16.8606769 2.74063761,17.7157649 C3.19108746,17.8947659 3.66755402,17.9996342 4.15153286,18.0262969 C4.26254429,18.046924 8.53948458,18.0285471 9.68560257,18.0232966 C9.71785589,18.0195462 9.74635882,18.0007943 9.76211044,17.9719163 M10.2515358,3.00037504 C9.9297527,3.0281279 9.06266344,3.2253982 9.06266344,3.2253982 C7.91844625,3.51748747 7.00549243,4.37856408 6.64703976,5.50375775 C6.44451891,6.27108674 6.4482693,7.07816983 6.6571658,7.84399867 C7.30860787,10.7370465 10.5181883,15.492161 11.2063841,16.4893887 C11.2551391,16.5381437 11.2952683,16.5201418 11.2952683,16.5201418 C11.3372726,16.5100158 11.3657755,16.4713868 11.3635253,16.4282574 L11.3650255,16.4282574 C12.4256346,5.81353964 10.2511608,3 10.2511608,3 M12.6937872,16.5178916 C12.7342914,16.5340183 12.7800461,16.5171415 12.8002982,16.4781375 L12.8010483,16.4781375 C13.5136216,15.453532 16.6988245,10.7250453 17.3472663,7.84474874 C17.5409669,7.0773234 17.5452143,6.2743143 17.3596426,5.50488287 C16.9967418,4.37420172 16.073926,3.51227307 14.9211415,3.2272734 C14.9211415,3.2272734 14.3570835,3.08475873 13.7592719,3.00112512 C13.7592719,3.00112512 11.5720468,5.81616491 12.6356563,16.4376333 L12.6371564,16.4376333 C12.6375315,16.473637 12.6596587,16.5051403 12.6934122,16.5182666 M14.439967,18.5704779 C14.439967,18.5704779 14.3754604,18.5791038 14.3574585,18.6267337 C14.3488326,18.6631124 14.3597087,18.7009913 14.3859614,18.727244 L14.3852114,18.727244 C15.091034,19.2335462 17.2355048,20.7314504 18.2646107,21.0217303 C18.2646107,21.0217303 20.1720571,21.670547 21.8289777,18.8255042 L14.4407171,18.5678526 L14.439967,18.5704779 Z M23.7934299,12.3043328 C23.7934299,12.3043328 17.5209092,15.6695543 14.2772002,17.8579046 L14.2779503,17.8579046 C14.2404465,17.8822821 14.2291953,17.9254115 14.2404465,17.9659157 C14.2404465,17.9659157 14.2711996,18.0210463 14.3169543,18.0210463 L14.3169543,18.0225465 L19.9800373,18.007545 C20.415718,17.9734158 20.8439239,17.8748323 21.2506681,17.7150148 C22.3102631,17.2995623 23.1635635,16.4834498 23.6257876,15.443406 C24.0598743,14.4517198 24.1183936,13.335988 23.7904296,12.3043328 M13.6816389,17.104827 C13.710669,17.1263413 13.7494785,17.1292593 13.7813992,17.1123278 L13.7813992,17.113828 C14.838258,16.5865237 19.2370858,14.3497934 21.0586484,12.5747357 C21.7659444,11.9610831 22.2025945,11.0931736 22.2737735,10.159487 C22.4065371,8.09677469 20.326573,6.18220259 20.326573,6.18220259 C17.6933029,9.51221646 15.4558248,13.1368856 13.6591366,16.9833145 L13.6613869,16.9833145 C13.6418801,17.0226174 13.6499053,17.0700117 13.6812639,17.1007016" id="形状" fill="#61B848" fill-rule="nonzero"></path>
        </g>
    </g>
</svg>