<?xml version="1.0" encoding="UTF-8"?>
<svg width="24px" height="24px" viewBox="0 0 24 24" version="1.1" xmlns="http://www.w3.org/2000/svg" xmlns:xlink="http://www.w3.org/1999/xlink">
    <title>greenplum</title>
    <g id="-数据库图标" stroke="none" stroke-width="1" fill="none" fill-rule="evenodd">
        <g id="greenplum" transform="translate(-18.000000, -18.000000)" fill="#80BC00" fill-rule="nonzero">
            <g transform="translate(18.000000, 18.000000)" id="形状">
                <path d="M17.7007505,5.66250146 C14.1945008,2.61525171 8.8882512,2.94075168 5.78475145,6.3937514 C2.6812517,9.84675112 2.91000169,15.1575007 6.30900141,18.3243754 C7.10325134,19.0383754 7.77712629,19.3856253 8.37150124,19.3856253 C9.52275115,19.3856253 10.3822511,18.0986254 11.493376,16.4748756 C12.1609305,15.4378891 12.9018218,14.4499922 13.7103758,13.5187508 C14.5510766,12.6193577 15.4532487,11.7794606 16.4103756,11.005126 C17.8380005,9.80362612 18.9592504,8.8586262 18.9791254,7.79775129 C18.9892504,7.15425134 18.5666254,6.4552514 17.6966255,5.66625146 L17.7007505,5.66250146 Z M13.9875008,10.768501 C13.4395142,11.1958273 12.9252443,11.6647131 12.4492509,12.1710009 C11.9888125,12.7089937 11.5687921,13.2803018 11.192626,13.8802508 C10.6245011,14.7397507 10.2225011,15.3577507 9.68437613,15.3577507 C9.49447084,15.3475042 9.31519105,15.2668885 9.18150118,15.1316257 C7.54161446,13.5543309 7.44797401,10.9607571 8.96984338,9.26930775 C10.4917128,7.57785835 13.080736,7.39799189 14.8218757,8.8627512 C15.0019449,8.99882544 15.1095115,9.2100873 15.1136257,9.43575115 C15.0836257,9.86812612 14.6310007,10.2450011 13.9875008,10.768126 L13.9875008,10.768501 Z M12.0048759,9.61262735e-07 C5.37750149,-0.00262307656 0.00262692302,5.36737649 9.61262735e-07,11.9951259 C-0.00262307656,18.6228754 5.36737649,23.997375 11.9951259,24.000001 C18.6228754,24.002625 23.997375,18.6326254 24.000001,12.0048759 C24.0012932,8.82227825 22.7382512,5.76951777 20.4887291,3.51816712 C18.2392069,1.26681646 15.1874736,0.00129459092 12.0048759,9.61262735e-07 Z M19.5750003,18.8070004 C15.8118756,22.9830001 9.37650116,23.3205 5.1975015,19.5570003 C0.975751844,15.8070006 0.573751876,9.35812616 4.29900157,5.11762651 C8.02403736,0.878130815 14.4742774,0.444606846 18.7331254,4.14750159 C22.9920001,7.85137628 23.458125,14.2998758 19.7756253,18.5775004 L19.5750003,18.8070004 Z"></path>
            </g>
        </g>
    </g>
</svg>