<?xml version="1.0" encoding="UTF-8"?>
<svg width="28px" height="28px" viewBox="0 0 28 28" version="1.1" xmlns="http://www.w3.org/2000/svg" xmlns:xlink="http://www.w3.org/1999/xlink">
    <title>gridfs2</title>
    <g id="gridfs2" stroke="none" stroke-width="1" fill="none" fill-rule="evenodd">
        <g transform="translate(0.031208, 0.000000)" fill="#4AAF47" fill-rule="nonzero">
            <path d="M15.4979938,10.0209541 L14.4712439,10.0209541 C13.9219795,10.0209541 13.4757022,9.57467677 13.4757022,9.02541239 C13.4757022,8.47614802 13.9219795,8.02987071 14.4712439,8.02987071 L15.4979938,8.02987071 C16.0472581,8.02987071 16.4935354,8.47614802 16.4935354,9.02541239 C16.4935354,9.57779759 16.0472581,10.0209541 15.4979938,10.0209541 Z M20.9968792,14.9799376 L15.9786001,14.9799376 C15.4293357,14.9799376 14.9830584,14.5336603 14.9830584,13.9843959 C14.9830584,13.4351315 15.4293357,12.9888542 15.9786001,12.9888542 L20.9968792,12.9888542 C21.5461436,12.9888542 21.9924209,13.4351315 21.9924209,13.9843959 C21.9924209,14.5367811 21.5461436,14.9799376 20.9968792,14.9799376 L20.9968792,14.9799376 Z M20.9875167,20.0075791 L16.031654,20.0075791 C15.4823897,20.0075791 15.0361123,19.5613018 15.0361123,19.0120374 C15.0361123,18.4627731 15.4823897,18.0164958 16.031654,18.0164958 L20.9875167,18.0164958 C21.5367811,18.0164958 21.9830584,18.4627731 21.9830584,19.0120374 C21.9830584,19.5644226 21.5367811,20.0075791 20.9875167,20.0075791 L20.9875167,20.0075791 Z M21.034329,0.995541685 L21.034329,8.41373161 C21.034329,8.96299599 20.5880517,9.40927329 20.0387873,9.40927329 C19.489523,9.40927329 19.0432457,8.96299599 19.0432457,8.41373161 L19.0432457,0.995541685 C19.0432457,0.446277307 19.489523,0 20.0387873,0 C20.5880517,0 21.034329,0.443156487 21.034329,0.995541685 Z" id="形状"></path>
            <path d="M26.9482835,9.42799822 L20.0263041,9.42799822 C19.4770397,9.42799822 19.0307624,8.98172091 19.0307624,8.43245653 C19.0307624,7.88319215 19.4770397,7.43691485 20.0263041,7.43691485 L26.9482835,7.43691485 C27.4975479,7.43691485 27.9438252,7.88319215 27.9438252,8.43245653 C27.9438252,8.98484173 27.4975479,9.42799822 26.9482835,9.42799822 L26.9482835,9.42799822 Z M12.6237182,11.6219349 L8.64779313,5.00579581 C8.26081141,4.35042354 7.55862684,3.96656264 6.77218012,3.96656264 C5.98573339,3.96656264 5.280428,4.35354436 4.89344628,5.00579581 L0.933125279,11.6219349 C-0.611680785,14.1810076 -0.168524298,17.4235399 1.99732501,19.5176103 C3.06152474,20.5443602 4.40659831,21.1591618 5.79536335,21.3557735 L5.79536335,22.997325 C5.79536335,23.1970575 5.95764601,23.362461 6.16049933,23.362461 L7.3682568,23.362461 C7.5679893,23.362461 7.73339278,23.2001783 7.73339278,22.997325 L7.73339278,21.3588943 C9.12527864,21.1685243 10.473473,20.5599643 11.5626393,19.5176103 C13.7253678,17.4235399 14.156041,14.1810076 12.6237182,11.6219349 L12.6237182,11.6219349 Z M10.19572,18.116362 C9.51226037,18.7748551 8.6571556,19.21177 7.73339278,19.3927775 L7.73339278,12.1025412 C7.73339278,11.9028087 7.57111012,11.7374053 7.3682568,11.7374053 L6.16049933,11.7374053 C5.96076683,11.7374053 5.79536335,11.8996879 5.79536335,12.1025412 L5.79536335,19.3927775 C4.87160053,19.21177 4.01961658,18.7748551 3.33615693,18.116362 C1.78198841,16.6183683 1.46054391,14.3027196 2.56219349,12.470798 L6.39456086,6.11992867 C6.51315203,5.94204191 6.68791797,5.91395453 6.76593848,5.91395453 C6.8314757,5.91395453 7.01872492,5.92643781 7.13731609,6.11992867 L10.9665626,12.470798 C12.0557289,14.2995988 11.7498885,16.6183683 10.19572,18.116362 Z" id="形状"></path>
            <path d="M5.79224253,12.0869371 C5.79224253,12.6212474 6.22538658,13.0543914 6.75969683,13.0543914 C7.29400709,13.0543914 7.72715114,12.6212474 7.72715114,12.0869371 C7.72715114,11.5526269 7.29400709,11.1194828 6.75969683,11.1194828 C6.22538658,11.1194828 5.79224253,11.5526269 5.79224253,12.0869371 L5.79224253,12.0869371 Z" id="路径"></path>
            <path d="M5.80160499,23.0534998 C5.80160499,23.58781 6.23474904,24.0209541 6.7690593,24.0209541 C7.30336955,24.0209541 7.7365136,23.58781 7.7365136,23.0534998 C7.7365136,22.5191895 7.30336955,22.0860455 6.7690593,22.0860455 C6.23474904,22.0860455 5.80160499,22.5191895 5.80160499,23.0534998 L5.80160499,23.0534998 Z" id="路径"></path>
            <path d="M8.51510867e-16,6.61301828 C8.51510867e-16,6.98207061 0.196887066,7.32308903 0.51649576,7.5076152 C0.836104454,7.69214137 1.2298786,7.69214137 1.5494873,7.5076152 C1.86909599,7.32308903 2.06598306,6.98207061 2.06598306,6.61301828 C2.06598306,6.24396595 1.86909599,5.90294753 1.5494873,5.71842136 C1.2298786,5.53389519 0.836104454,5.53389519 0.51649576,5.71842136 C0.196887066,5.90294753 8.51510867e-16,6.24396595 8.51510867e-16,6.61301828 Z" id="路径"></path>
            <path d="M27.3633527,5.41462327 L22.5791351,0.627284886 C22.1921534,0.240303165 21.6678556,0.0249665626 21.121712,0.0249665626 L2.05974142,0.028087383 C0.920641997,0.028087383 2.27069564e-15,0.951850201 2.27069564e-15,2.0878288 L0.00312082033,6.65358894 L2.06286224,6.65358894 L2.06286224,4.11636202 C2.06286224,2.97726259 2.98350424,2.0566206 4.12260366,2.0566206 L20.0481498,2.05349978 C20.5942934,2.05349978 21.1185912,2.26883638 21.5024521,2.6558181 L25.4315649,6.57868926 C25.8185466,6.96567098 26.037004,7.48996879 26.037004,8.03611235 L26.0307624,23.9242086 C26.0307624,25.0633081 25.1069996,25.9839501 23.9679001,25.9839501 L4.13196612,25.968346 C2.99598752,25.968346 2.07534552,25.047704 2.07534552,23.9086045 L2.07534552,21.851984 L0.0156041016,21.851984 L0.018724922,25.9215337 C0.018724922,27.0575123 0.939366919,27.9781543 2.07534552,27.9812751 L25.8996879,28 C27.0387873,28 27.9594293,27.079358 27.9625502,25.9402586 L27.9687918,6.87204637 C27.9687918,6.32590281 27.7503344,5.80160499 27.3633527,5.41462327 Z" id="路径"></path>
            <path d="M0.00624164066,21.8488631 C0.00624164066,22.2179155 0.203128702,22.5589339 0.522737398,22.7434601 C0.842346093,22.9279862 1.23612025,22.9279862 1.55572894,22.7434601 C1.87533764,22.5589339 2.0722247,22.2179155 2.0722247,21.8488631 C2.0722247,21.4798108 1.87533763,21.1387924 1.55572894,20.9542662 C1.23612025,20.76974 0.842346094,20.76974 0.522737401,20.9542662 C0.203128707,21.1387924 0.00624164066,21.4798108 0.00624164066,21.8488631 Z" id="路径"></path>
        </g>
    </g>
</svg>