<?xml version="1.0" encoding="UTF-8"?>
<svg width="24px" height="24px" viewBox="0 0 24 24" version="1.1" xmlns="http://www.w3.org/2000/svg" xmlns:xlink="http://www.w3.org/1999/xlink">
    <title>hbase</title>
    <g id="页面-1" stroke="none" stroke-width="1" fill="none" fill-rule="evenodd">
        <g id="hbase">
            <rect id="矩形" x="0" y="0" width="24" height="24"></rect>
            <path d="M13.763129,14.2615207 C13.1463492,14.2740832 12.5291006,14.2653644 11.9120395,14.2653644 L11.9120395,14.2898331 C11.3288221,14.2898331 10.7455109,14.2917081 10.1622935,14.2893644 C9.54279494,14.2869269 9.06157729,14.5635825 8.68676564,15.0347689 C8.14611063,15.7145486 7.7217991,16.5000781 6.89933222,16.9178271 C6.80839493,16.9640458 6.73536385,17.1439516 6.74520758,17.2537326 C6.75111381,17.3208575 6.92417592,17.3958573 7.03376942,17.4276385 C8.00951719,17.7108566 9.00054618,17.7520127 9.99420016,17.5517632 C11.4013844,17.2683576 12.6701003,16.7127026 13.5842545,15.551424 C13.7937852,15.2851746 13.9378786,14.9568629 14.0623784,14.6376448 C14.1503157,14.4122704 14.0534721,14.2556145 13.763129,14.2615207 L13.763129,14.2615207 Z M2.19412422,12.4883372 C2.04843705,12.2879002 1.88999991,12.0749007 1.73690651,11.8580574 C1.61653179,11.6875266 1.50309455,11.6489954 1.32956369,11.8095888 C0.599909111,12.4849623 0.338815957,14.1955208 0.830252335,15.0514564 L2.19412422,12.4883372 L2.19412422,12.4883372 Z M21.790267,12.8534927 C21.4364553,12.7841178 21.4024241,12.6374932 21.2487682,12.4470873 C20.4461763,11.4524021 19.8500214,10.5301855 18.7970238,9.50015657 C17.1024027,7.73278561 14.99622,6.81919394 12.5383818,6.68306925 C11.2047911,6.60928817 9.89004414,6.72244416 8.58017214,6.92175621 C7.95026732,7.01756849 7.53720577,6.7720378 7.23261271,6.26653895 C7.11758173,6.07566439 6.99495701,5.87353985 6.94751961,5.66063409 C6.77239501,4.87454213 6.62005161,4.08310644 6.47464569,3.290827 C6.42205206,3.00432766 6.34067725,2.93757781 6.07433411,3.05514004 C5.63596011,3.24873335 5.34571077,3.59335756 5.21474232,4.03857529 C5.10196133,4.42210567 5.00099281,4.82888599 5.00708655,5.22357259 C5.02114901,6.13153926 5.09024261,7.03950594 5.16364869,7.94512887 C5.20442984,8.44912772 5.13318001,8.88609547 4.7842433,9.2878133 C4.38749421,9.74465601 4.04605749,10.2494049 3.67771458,10.7312788 C2.34693637,12.4723998 1.23909515,14.3376455 0.520503042,16.4179533 C0.155160127,17.4752634 -0.125339233,18.5456984 0.0573790999,19.6837271 C0.119441458,20.0701637 0.150847636,20.4614753 0.196878781,20.8505369 C0.252191155,21.3185358 0.893908439,21.880847 1.36509486,21.8730539 C1.90593738,21.8640658 2.37468631,21.6389726 2.78362287,21.3194733 C3.50568372,20.7553809 4.30302565,20.3307881 5.11930504,19.927664 C6.09120907,19.4476651 6.98389453,18.848604 7.73745531,18.0592308 C7.79295518,18.0009184 7.83711133,17.9319186 7.8939237,17.8584187 C7.50936208,17.7656064 7.15583164,17.6972628 6.81317617,17.5932006 C6.43967702,17.4797633 6.36561469,17.2002015 6.61733287,16.8967334 C6.70161393,16.7951087 6.82180115,16.7239526 6.92108217,16.633859 C7.20992526,16.3718284 7.51733081,16.1260164 7.77795522,15.8382046 C8.0253609,15.564924 8.21436047,15.2397997 8.44423495,14.9495504 C8.856734,14.4285828 9.39317028,14.1348647 10.0664812,14.1217398 C10.4707303,14.113771 10.8754481,14.1073023 11.2796035,14.1164898 C11.5991965,14.1237085 11.8546647,14.0210525 12.1060078,13.8150842 C12.7215689,13.3107104 13.2463802,12.8056803 13.9056287,12.3623375 C14.9511263,11.7778076 15.735437,11.5274957 16.740716,11.6284642 C18.5461494,11.80987 19.8934275,12.7656491 20.9846751,14.1491147 C21.0248937,14.2000208 21.0590186,14.2710832 21.0516124,14.344208 C21.0442062,14.4173328 20.9388314,14.3821767 20.9388314,14.3821767 C20.9388314,14.3821767 20.0620834,13.464835 19.6508969,13.0357422 C19.4248661,13.350179 19.3072101,13.5655223 19.1205543,13.794178 C18.8657424,14.1060836 18.5529931,14.3771142 18.3344624,14.7110509 C17.9796194,15.2529247 18.1307441,16.0615166 18.6105555,16.3758596 C18.6514304,16.3130473 18.7188365,16.2540786 18.728399,16.18686 C18.7654301,15.9269856 18.7865238,15.7310486 19.0947731,15.7109861 C19.2346478,15.7018924 19.1347105,15.5388615 19.4000224,15.5246116 C19.4828035,15.5309865 19.4764285,15.6011114 19.5592096,15.5947364 C19.6261469,15.5851739 19.6558656,15.4700492 19.7280529,15.438643 C19.8713963,15.3764869 20.0619897,15.3842681 20.2030831,15.3899869 C20.464645,15.4007681 20.5896135,15.2634247 20.6236446,15.0956125 C20.6461446,14.9850815 20.6563633,14.8981755 20.7105507,14.7041134 C20.8358004,15.2042685 21.1612997,15.3552057 21.5651737,15.3516432 C21.756142,15.3499557 21.9525478,15.3102058 22.1366724,15.3432057 C22.5852652,15.3717057 22.6646712,15.4722992 22.9174206,15.5683927 C23.3071385,15.7163299 23.6612314,15.8947357 23.7957624,16.3559847 C23.835606,16.3435159 23.9136059,16.3336722 23.9550433,16.2540786 C23.9963869,16.1743913 23.9954494,16.0663916 23.9987307,15.9307356 C24.0357618,14.3977391 23.2616699,13.3115541 21.790267,12.8534927 L21.790267,12.8534927 Z M5.95827187,15.2478622 C6.31264606,15.2422372 6.36608344,15.3234245 6.21702128,15.6322363 C6.18374011,15.7009549 6.15045893,15.7763297 6.1445527,15.8508608 C6.09730281,16.4489845 5.80339723,16.8768585 5.28449216,17.1729203 C5.02218026,17.322545 4.79239954,17.5295445 4.52849389,17.6757004 C4.38374422,17.7558565 4.15836973,17.8416375 4.04333875,17.7819189 C3.98137014,17.7498565 3.94640147,17.6654817 3.91733903,17.5696694 C3.86174541,17.3854511 3.84758919,17.1882953 3.89127659,17.0008894 C4.11065109,16.0602978 5.0066178,15.2634247 5.95827187,15.2478622 L5.95827187,15.2478622 Z M3.8238705,18.4484799 C3.82762049,18.3686051 4.19586965,18.0517308 4.28915069,18.0667308 C4.38233797,18.0817307 4.37708798,18.1476368 4.37746327,18.2435429 C4.37783798,18.3393551 4.00883883,18.6699169 3.83118298,18.5594796 C3.78974558,18.5239485 3.81346427,18.4639486 3.8238705,18.4484799 Z M7.31070628,18.1286056 C6.8424261,18.5618234 6.31977105,18.9087913 5.81164721,19.2292281 C5.41461686,19.4793525 4.98168035,19.6721021 4.57846252,19.913414 C3.96449518,20.2809132 3.36168405,20.6669748 2.75531044,21.0472239 C2.30353022,21.3306296 1.86431247,21.6453476 1.28297005,21.6304414 C1.29206378,21.5821602 1.29084503,21.5480353 1.30031376,21.5446603 C1.91184361,21.3300671 2.36287383,20.9245992 2.78024788,20.4333504 C3.03224731,20.1368198 3.40987144,19.9318827 3.75946439,19.7367894 C4.49090022,19.3284154 5.08349262,18.7895416 5.53499159,18.0813557 C5.8572096,17.5760444 5.86977208,17.5962006 6.40386461,17.8295438 C6.67864523,17.9496373 6.91423844,17.9922934 7.31070628,18.1286056 Z M15.9175929,10.9603095 C16.61856,10.9457783 16.9395593,11.0272468 17.4366207,11.1434966 C17.8303698,11.2389338 18.1055254,11.502277 18.2664,11.7151828 C17.6394014,11.5233707 17.3222459,11.4201522 16.7016223,11.3648398 C15.3677504,11.2055589 14.1968156,11.6219955 13.1699742,12.4610561 C12.7357251,12.815899 12.3051324,13.1803044 11.913727,13.5804285 C11.6823526,13.8167717 11.6777588,13.8786466 11.1216351,13.8434904 C11.6134465,13.0825234 12.0618517,12.3117126 12.5010694,11.5482144 C13.9216599,9.07884503 17.4917455,9.50165657 18.7185552,10.9336845 C18.7686176,10.9921844 18.8446487,11.1472466 18.8446487,11.1472466 C18.8446487,11.1472466 17.6836513,10.5261542 16.8297783,10.5261542 C16.315467,10.5261542 16.186561,10.5641229 15.8686555,10.618779 C15.7847494,10.6332165 15.6444998,10.7059663 15.6456247,10.8287785 C15.6468435,10.9515908 15.8226243,10.9469033 15.9175929,10.9603095 L15.9175929,10.9603095 Z M23.4056695,15.4515805 C23.0329204,14.874363 22.4696717,14.9993315 21.9423291,14.9969878 C21.7852045,14.9962378 21.6279861,15.0052377 21.4707677,15.0110502 C21.2053621,15.020519 20.9814876,14.9585504 20.8657066,14.6853635 C20.8358941,14.6151449 20.7611756,14.5064889 20.6991132,14.4954264 C20.6385508,14.5120201 20.6183946,14.5514888 20.6076134,14.5744575 C20.3682702,15.0835188 19.9039275,15.1639561 19.4218661,15.1741749 C19.1430543,15.1800811 18.9146798,15.218706 18.7775238,15.4955491 C18.7509927,15.5492678 18.6153367,15.6109551 18.5918993,15.5921114 C18.5324619,15.544299 18.4595246,15.436018 18.4781808,15.3815494 C18.5493369,15.1741749 18.6248054,14.9565816 18.7529614,14.7826758 C19.0779919,14.341583 19.4323661,13.9220527 19.8051152,13.4563038 C19.9808023,13.6414596 20.1735519,13.8493966 20.3716452,14.0519899 C20.5281136,14.2120208 20.6743633,14.3910829 20.8580191,14.5117389 C20.9548626,14.5754887 21.1642996,14.585145 21.2444557,14.5211139 C21.3136431,14.4658952 21.322268,14.244552 21.2685494,14.144521 C21.1588622,13.9401464 20.9855188,13.7705531 20.8456441,13.581366 C20.7412069,13.4401788 20.6482071,13.2907417 20.5238949,13.1058671 C21.7792982,12.8818051 23.643794,14.4061766 23.4056695,15.4515805 L23.4056695,15.4515805 Z" id="形状" fill="#000000" fill-rule="nonzero"></path>
        </g>
    </g>
</svg>