<?xml version="1.0" encoding="UTF-8"?>
<svg width="24px" height="24px" viewBox="0 0 24 24" version="1.1" xmlns="http://www.w3.org/2000/svg" xmlns:xlink="http://www.w3.org/1999/xlink">
    <title>Js</title>
    <g id="任务管理" stroke="none" stroke-width="1" fill="none" fill-rule="evenodd">
        <g id="JS/java脚本设置" transform="translate(-37.000000, -682.000000)">
            <g id="Js" transform="translate(37.000000, 682.000000)">
                <rect id="矩形" fill-opacity="0" fill="#D8D8D8" x="0" y="0" width="24" height="24"></rect>
                <path d="M6.6,18.224 C7.864,18.224 8.792,17.872 9.368,17.168 C9.88,16.528 10.136,15.6 10.136,14.352 L10.136,6.576 L8.824,6.576 L8.824,14.304 C8.824,15.248 8.648,15.936 8.312,16.368 C7.96,16.816 7.4,17.056 6.632,17.056 C5.24,17.056 4.552,16.272 4.552,14.736 L4.552,14.352 L3.24,14.352 L3.24,14.752 C3.24,15.872 3.528,16.736 4.136,17.344 C4.712,17.92 5.528,18.224 6.6,18.224 Z M15.8693333,18.224 C18.2053333,18.224 19.3733333,17.36 19.3733333,15.664 C19.3733333,14.944 19.0373333,14.384 18.3813333,13.968 C17.9493333,13.696 17.2453333,13.44 16.2533333,13.2 C15.4213333,12.976 14.8453333,12.8 14.5413333,12.656 C14.0613333,12.416 13.8373333,12.112 13.8373333,11.76 C13.8373333,11.392 14.0133333,11.104 14.3653333,10.896 C14.6853333,10.672 15.1333333,10.576 15.7093333,10.576 C16.3653333,10.576 16.8773333,10.704 17.2293333,10.96 C17.5493333,11.184 17.7573333,11.568 17.8693333,12.08 L19.1173333,12.08 C18.8933333,10.352 17.7733333,9.504 15.7253333,9.504 C14.7973333,9.504 14.0293333,9.712 13.4533333,10.128 C12.8293333,10.544 12.5253333,11.088 12.5253333,11.792 C12.5253333,12.496 12.8293333,13.024 13.4693333,13.408 C13.8533333,13.664 14.5413333,13.904 15.5173333,14.144 C16.4133333,14.368 17.0053333,14.544 17.2773333,14.672 C17.7893333,14.928 18.0613333,15.28 18.0613333,15.744 C18.0613333,16.672 17.3093333,17.152 15.8373333,17.152 C15.1333333,17.152 14.6053333,17.024 14.2533333,16.768 C13.9013333,16.48 13.6613333,16.016 13.5653333,15.36 L12.3173333,15.36 C12.5093333,17.264 13.6933333,18.224 15.8693333,18.224 Z" fill="#2C65FF" fill-rule="nonzero"></path>
            </g>
        </g>
    </g>
</svg>
