<?xml version="1.0" encoding="UTF-8"?>
<svg width="29px" height="29px" viewBox="0 0 29 29" version="1.1" xmlns="http://www.w3.org/2000/svg" xmlns:xlink="http://www.w3.org/1999/xlink">
    <title>kudu</title>
    <defs>
        <radialGradient cx="42.6961345%" cy="50.4193127%" fx="42.6961345%" fy="50.4193127%" r="69.3985898%" gradientTransform="translate(0.426961,0.504193),scale(0.724138,1.000000),rotate(-31.879206),translate(-0.426961,-0.504193)" id="radialGradient-1">
            <stop stop-color="#25AAE1" offset="0%"></stop>
            <stop stop-color="#0E76BC" offset="100%"></stop>
        </radialGradient>
    </defs>
    <g id="-数据库图标" stroke="none" stroke-width="1" fill="none" fill-rule="evenodd">
        <g id="KUDU" transform="translate(-15.000000, -15.000000)">
            <g id="kudu" transform="translate(15.000000, 15.000000)">
                <rect id="矩形" x="0" y="0" width="29" height="29"></rect>
                <path d="M28.4467186,23.9637838 C28.0957982,23.9221982 27.8041864,23.8278345 27.4085875,23.6280206 C26.9738757,23.4084478 26.959266,23.390115 26.959266,23.0641874 C26.959266,22.84581 26.9744366,22.7803254 27.030069,22.7585818 C27.148786,22.7121499 27.4716317,22.9220164 27.6436053,23.1573557 C27.8004269,23.3719577 27.81812,23.3821856 28.3553758,23.5686423 C28.9674997,23.7810842 29.0584718,23.8361239 28.9722978,23.9418879 C28.9130572,24.0145958 28.8849276,24.0157635 28.4467186,23.9638115 L28.4467186,23.9637838 Z M25.6647916,22.3371181 L25.4187343,22.1045019 L25.4187343,21.618569 C25.4187343,21.3513089 25.4361253,21.1326407 25.4573723,21.1326407 C25.4786239,21.1326407 25.6134204,21.3272483 25.7569206,21.5651078 C26.0068022,21.9792974 26.0178295,22.0096905 26.0178295,22.2843123 C26.0178295,22.4849939 26.0017753,22.5708513 25.964339,22.5704007 C25.9349176,22.5700666 25.8001224,22.4650642 25.6647907,22.3371181 L25.6647916,22.3371181 Z M24.1018167,20.6521956 L23.7070329,20.2153301 L23.7070329,19.498641 C23.7070329,18.8136373 23.7110657,18.7797688 23.7975124,18.7326262 C23.8519056,18.7029947 23.9627608,18.694733 24.0754634,18.7119488 C24.27591,18.7425956 24.4159859,18.8836543 24.5097697,19.1493913 C24.5563749,19.2814451 24.6148222,20.9336484 24.5764606,21.0345754 C24.565069,21.0645299 24.54244,21.0890659 24.5261769,21.0890659 C24.5099142,21.0890659 24.3189483,20.8924782 24.1018176,20.6522049 L24.1018167,20.6521956 Z M19.2732116,20.172226 C19.1764322,20.1527024 19.0175661,20.11486 18.9201737,20.0881455 L18.7430974,20.0395906 L18.7430974,16.6577408 L18.7430974,13.2758956 L18.86858,13.3014654 C18.9375959,13.3154965 19.1462541,13.3868105 19.3322646,13.4598737 L19.6704667,13.592726 L19.6986194,16.836808 C19.7140936,18.6210513 19.7152083,20.1115876 19.7010662,20.1490977 C19.6731945,20.2230979 19.5564586,20.2294119 19.2732048,20.1722675 L19.2732116,20.172226 Z M20.3564535,20.1897648 C20.3399326,20.1729183 20.326425,18.7045732 20.326425,16.9267224 L20.326425,13.6942715 L20.4390514,13.5885998 C20.6388868,13.4011046 20.7095788,13.1772256 20.7106183,12.7285443 C20.7111168,12.5054175 20.6898335,12.2349635 20.6632749,12.1275379 C20.6367173,12.0201077 20.6272923,11.9196839 20.6423269,11.9043697 C20.6864069,11.8595071 20.924028,12.1138345 21.0557532,12.3469354 C21.1226499,12.4653181 21.1994188,12.6908911 21.2263511,12.8482009 C21.277368,13.1461956 21.252356,13.3329846 21.0800928,13.9406049 C20.9764459,14.3061935 20.9961723,14.5974034 21.1701487,15.2700422 L21.3279835,15.8802749 L21.3433217,17.9557696 L21.35866,20.031255 L21.1741869,20.0767637 C21.0727268,20.1017797 20.9030591,20.1348913 20.7971475,20.1503208 C20.6912359,20.1657827 20.5555114,20.1878448 20.4955371,20.199342 C20.4355628,20.2108807 20.3729786,20.2065883 20.3564612,20.1897418 L20.3564535,20.1897648 Z M22.1082883,19.8033512 C22.0674436,19.694924 22.076497,18.5047732 22.1186875,18.436967 C22.1485666,18.3889289 22.1812654,18.3924736 22.2999008,18.456352 C22.3795153,18.4991838 22.5601953,18.575464 22.7014103,18.6257821 L22.9581654,18.7172658 L22.9701823,19.2493536 C22.9767889,19.5420035 22.9671917,19.7829184 22.9487858,19.7847138 C22.9304115,19.7860985 22.8094625,19.7935756 22.6800151,19.8004065 C22.5505677,19.8072374 22.3751327,19.8270379 22.2901595,19.8444383 C22.1666707,19.8696851 22.1301701,19.8614233 22.108291,19.8033604 L22.1082883,19.8033512 Z M17.860791,19.5218569 C17.7167911,19.4046973 17.5290392,19.2219007 17.443563,19.115652 L17.2881516,18.922466 L17.2881516,15.9520643 L17.2881516,12.9816671 L17.4237216,12.9816671 C17.6269151,12.9816671 18.1151038,13.0734601 18.1760962,13.123132 C18.218042,13.1572866 18.2295872,13.8760988 18.2295872,16.452259 C18.2295872,19.0524383 18.2184267,19.7375204 18.1760962,19.7363496 C18.1466748,19.735425 18.0047892,19.6390166 17.860791,19.5218569 Z M10.4413449,18.3409509 C9.57271425,18.2335991 8.75888816,17.9901873 7.96468691,17.6001874 C7.36740019,17.3068821 7.39469191,17.3231101 5.58438956,16.184722 C3.87189424,15.1078353 3.2088183,14.7112629 3.17622049,14.7444622 C3.13960799,14.7817554 3.3523819,15.2133916 3.57909846,15.561709 C3.87565065,16.0173089 4.30042362,16.3889114 4.82196143,16.6490082 C5.26345924,16.8691765 5.42888159,17.0150306 5.49737596,17.2444991 C5.55141112,17.4255279 5.46080878,17.4712398 5.04805721,17.4712398 C4.61189268,17.4712398 4.25630737,17.3749191 3.94765674,17.1731574 C3.67060252,16.9920547 3.50785361,16.8107397 3.27620252,16.4251292 C2.77916518,15.5977421 2.20278111,15.0113207 1.2245522,14.3377311 C0.217821731,13.6445165 0,13.4078802 0,13.0078001 C0,12.5720191 0.357311732,12.0227247 0.640673451,12.0227247 C0.707020014,12.0227247 1.26879533,12.2162569 1.88907361,12.4527871 C3.50516205,13.0690707 4.47808487,13.4175496 4.58260721,13.4175496 C4.66274237,13.4175496 4.67083518,13.3984415 4.65188549,13.254092 C4.64005893,13.1641914 4.5892908,12.9435293 4.53901659,12.7637236 C4.26919424,11.7987626 4.34384659,10.7144403 4.74893127,9.71474309 C5.14227096,8.74403117 5.63866487,8.16908851 6.41074456,7.78995811 C6.6063405,7.69390971 6.83859878,7.54886324 6.92687206,7.46763057 C7.12364159,7.28655557 7.34612144,6.84813455 7.28847487,6.75504469 C7.26604519,6.71881307 6.94336581,6.60889973 6.54498284,6.50181108 C6.15787362,6.39776403 5.68999034,6.27159031 5.50524674,6.22144298 C5.13420081,6.12071909 4.95595956,6.13290861 4.7045658,6.27619196 C4.61118127,6.32941782 4.49524018,6.35750309 4.40501846,6.34875211 L4.2578208,6.33449024 L4.26008643,5.98578517 C4.26280518,5.57297552 4.33390955,5.40454235 4.57257502,5.24366475 C4.77446034,5.10758157 4.7719908,5.10830158 6.20469956,4.76760439 C7.72750769,4.40549131 8.57926941,4.15382697 9.36260019,3.83457797 C10.2999328,3.4525675 10.5754432,3.40983266 11.6638073,3.47763886 C12.08577,3.50390101 12.9316859,3.57240876 13.5436195,3.62982549 C15.1840874,3.7837337 15.4248409,3.79524474 15.9182473,3.74338968 C16.6769571,3.6636432 17.2524526,3.47054484 17.7310767,3.13512316 C17.8371189,3.0608045 17.9348539,3 17.9482654,3 C18.0757146,3 17.749484,3.42175447 17.4711565,3.61680519 C17.2079815,3.80124488 16.947083,3.89731636 16.4911391,3.97770439 C15.6238289,4.13061566 14.9494624,4.18370767 13.4152433,4.21986082 C12.0944944,4.25101539 11.7680487,4.27142049 11.4467853,4.34306216 C10.7916626,4.48917942 10.0818863,4.80949922 9.84663285,5.06520673 C9.73272629,5.18901732 9.7324816,5.17090612 9.86090629,6.1165513 C10.0543907,7.54158461 9.87087504,8.16117294 8.72366222,9.95564411 C8.53857878,10.2451601 8.38721691,10.5099601 8.38730753,10.5440779 C8.38739363,10.5782325 8.47886144,10.6428909 8.59057035,10.6878228 C9.15243175,10.913825 9.9129341,11.4194337 10.934774,12.2463546 C11.6898996,12.8574365 12.4624147,13.398003 12.742064,13.5110087 C12.9311848,13.5874321 13.0706236,13.6097757 13.3510794,13.6086033 C13.6729255,13.6072187 13.7683427,13.586172 14.1795718,13.4255575 C14.4351869,13.3257152 14.6614535,13.254812 14.6823847,13.2679846 C14.703745,13.2814157 14.7204381,14.2142483 14.7204381,15.3945682 L14.7204381,17.4971927 L14.2818149,17.54746 C13.7445061,17.6090584 13.1914335,17.7687452 12.7094245,18.0014629 C12.0515976,18.3190596 11.9288193,18.3512942 11.3184304,18.3666268 C11.0124641,18.3742886 10.617703,18.3629345 10.441185,18.3409186 L10.4413449,18.3409509 Z M16.6020093,18.1435001 C16.4733667,18.0097985 16.316981,17.8729538 16.2544865,17.8393991 C15.9883829,17.696522 16.0043751,17.8564765 16.0043751,15.3376499 C16.0043751,13.4170512 16.0143076,13.0275359 16.0643321,12.9852441 C16.1027118,12.9527972 16.2605642,12.9391354 16.5029557,12.9472125 L16.8816228,12.9598589 L16.8926383,15.6732239 C16.8987011,17.1655695 16.8884242,18.3865796 16.8697826,18.3865796 C16.8511456,18.3865796 16.7306479,18.2771878 16.6020048,18.1434909 L16.6020093,18.1435001 Z M15.2127131,17.5429368 L14.8703726,17.4930341 L14.8592756,15.3737892 C14.8498778,13.5785934 14.8575537,13.2466333 14.909422,13.2027723 C14.9934196,13.131763 15.6273293,13.0023538 15.7178478,13.0377361 C15.7860001,13.0643675 15.7904044,13.2260667 15.7801049,15.3233049 L15.769026,17.5802069 L15.6620441,17.5865302 C15.6032045,17.5902225 15.4010097,17.5703759 15.2127235,17.5429599 L15.2127131,17.5429368 Z" id="形状" fill="url(#radialGradient-1)" fill-rule="nonzero"></path>
            </g>
        </g>
    </g>
</svg>