<?xml version="1.0" encoding="UTF-8"?>
<svg width="18px" height="13px" viewBox="0 0 18 13" version="1.1" xmlns="http://www.w3.org/2000/svg" xmlns:xlink="http://www.w3.org/1999/xlink">
    <title>Ts</title>
    <g id="多表选择器" stroke="none" stroke-width="1" fill="none" fill-rule="evenodd">
        <g id="多表选择器条件选择+表选择）添加" transform="translate(-40.000000, -826.000000)" fill="#2C65FF" fill-rule="nonzero">
            <g id="编组-23" transform="translate(33.000000, 816.000000)">
                <g id="Ts" transform="translate(7.272000, 10.576000)">
                    <polygon id="路径" points="0 0 0 1.136 4.032 1.136 4.032 11.424 5.328 11.424 5.328 1.136 9.36 1.136 9.36 0"></polygon>
                    <path d="M14.0853333,2.928 C13.1573333,2.928 12.3893333,3.136 11.8133333,3.552 C11.1893333,3.968 10.8853333,4.512 10.8853333,5.216 C10.8853333,5.92 11.1893333,6.448 11.8293333,6.832 C12.2133333,7.088 12.9013333,7.328 13.8773333,7.568 C14.7733333,7.792 15.3653333,7.968 15.6373333,8.096 C16.1493333,8.352 16.4213333,8.704 16.4213333,9.168 C16.4213333,10.096 15.6693333,10.576 14.1973333,10.576 C13.4933333,10.576 12.9653333,10.448 12.6133333,10.192 C12.2613333,9.904 12.0213333,9.44 11.9253333,8.784 L10.6773333,8.784 C10.8693333,10.688 12.0533333,11.648 14.2293333,11.648 C16.5653333,11.648 17.7333333,10.784 17.7333333,9.088 C17.7333333,8.368 17.3973333,7.808 16.7413333,7.392 C16.3093333,7.12 15.6053333,6.864 14.6133333,6.624 C13.7813333,6.4 13.2053333,6.224 12.9013333,6.08 C12.4213333,5.84 12.1973333,5.536 12.1973333,5.184 C12.1973333,4.816 12.3733333,4.528 12.7253333,4.32 C13.0453333,4.096 13.4933333,4 14.0693333,4 C14.7253333,4 15.2373333,4.128 15.5893333,4.384 C15.9093333,4.608 16.1173333,4.992 16.2293333,5.504 L17.4773333,5.504 C17.2533333,3.776 16.1333333,2.928 14.0853333,2.928 Z" id="路径"></path>
                </g>
            </g>
        </g>
    </g>
</svg>