<?xml version="1.0" encoding="UTF-8"?>
<svg width="24px" height="24px" viewBox="0 0 24 24" version="1.1" xmlns="http://www.w3.org/2000/svg" xmlns:xlink="http://www.w3.org/1999/xlink">
    <title>切片</title>
    <g id="DAG图" stroke="none" stroke-width="1" fill="none" fill-rule="evenodd">
        <g id="Fr" transform="translate(5.000000, 6.000000)" fill="#2C65FF" fill-rule="nonzero">
            <polygon id="路径" points="0 0 0 11.424 1.312 11.424 1.312 6.112 7.312 6.112 7.312 4.976 1.312 4.976 1.312 1.136 7.648 1.136 7.648 0"></polygon>
            <path d="M13.2373333,2.928 C12.6613333,2.928 12.1653333,3.104 11.7333333,3.456 C11.3813333,3.728 11.0933333,4.112 10.8693333,4.592 L10.8693333,3.152 L9.60533333,3.152 L9.60533333,11.424 L10.8693333,11.424 L10.8693333,7.04 C10.8693333,6.272 11.0773333,5.616 11.5253333,5.072 C11.9573333,4.496 12.5013333,4.224 13.1413333,4.224 C13.5413333,4.224 13.9573333,4.272 14.3733333,4.4 L14.3733333,3.12 C14.0693333,2.992 13.6853333,2.928 13.2373333,2.928 Z" id="路径"></path>
        </g>
    </g>
</svg>