<?xml version="1.0" encoding="UTF-8"?>
<svg width="40px" height="40px" viewBox="0 0 40 40" version="1.1" xmlns="http://www.w3.org/2000/svg" xmlns:xlink="http://www.w3.org/1999/xlink">
    <title>PolarDB</title>
    <g id="PolarDB" stroke="none" stroke-width="1" fill="none" fill-rule="evenodd">
        <g id="polardbyunshujukuPolarDB" transform="translate(0.000000, 0.000000)" fill="#FF6A00" fill-rule="nonzero">
            <path d="M18.5900783,0 L0,0 L0,16.9608355 L2.92428198,15.1227154 C2.33942559,13.9738903 2.52741514,12.5326371 3.48825065,11.5718016 C4.67885117,10.381201 6.64229765,10.381201 7.83289817,11.5718016 L8.12532637,11.8642298 L10.2140992,10.5483029 C11.0496084,9.8381201 13.305483,9.08616188 14.3916449,9.02349869 L18.9451697,9.02349869 L21.1592689,8.1462141 C21.7232376,8.04177546 22.308094,8.16710183 22.7885117,8.48041775 L25.7754569,10.464752 C25.7754569,10.464752 29.7023499,9.42036554 30.537859,9.8381201 C30.8093995,9.96344648 31.4360313,11.9060052 31.54047,13.3681462 C31.5822454,14.1201044 31.227154,14.8302872 30.6005222,15.2480418 L30.3498695,15.4151436 L29.9321149,17.9007833 C29.9321149,17.9007833 22.078329,23.6866841 18.3394256,30.7258486 C16.8355091,33.5665796 15.6031332,36.9295039 14.6631854,39.9582245 L18.6109661,39.9582245 C29.6396867,39.9582245 38.6005222,31.0182768 38.6005222,19.9686684 C38.5796345,8.96083551 29.618799,0 18.5900783,0 Z" id="路径"></path>
            <path d="M14.4334204,12.9295039 L18.924282,12.5117493 L18.0052219,11.383812 C17.7127937,11.0287206 17.1906005,10.9660574 16.8146214,11.2375979 L14.4334204,12.9295039 L14.4334204,12.9295039 Z M25.0443864,12.0522193 L25.3159269,12.8877285 C25.462141,13.305483 25.8172324,13.618799 26.2767624,13.6605744 L28.8668407,13.9738903 L30.3916449,12.7624021 C30.7258486,12.4908616 30.8302872,12.0522193 30.6840731,11.6762402 L30.2454308,10.5900783 C30.1618799,10.4020888 29.9530026,10.2976501 29.7650131,10.3394256 L25.3368146,11.5091384 C25.0861619,11.5718016 24.9608355,11.8224543 25.0443864,12.0522193 L25.0443864,12.0522193 Z M4.42819843,16.5013055 C3.98955614,16.0626632 3.48825065,15.6449086 3.17493473,15.1018277 C2.52741514,13.9321149 2.8616188,12.4490862 3.86422977,11.5926893 C4.90861619,10.7154047 6.41253264,10.7571802 7.43603133,11.5926893 C7.8537859,11.926893 8.22976501,12.3446475 8.60574413,12.7206266 C8.83550914,12.9503916 9.21148825,12.5953003 8.96083551,12.3655352 C8.33420366,11.7389034 7.74934726,11.0287206 6.93472585,10.6736292 C5.74412533,10.1723238 4.34464752,10.4229765 3.40469974,11.2793734 C2.5691906,12.0522193 2.17232376,13.2219321 2.38120104,14.3498695 C2.59007833,15.4360313 3.32114883,16.1044386 4.05221932,16.8563969 C4.28198433,17.0861619 4.65796345,16.7310705 4.42819843,16.5013055 L4.42819843,16.5013055 Z M23.8328982,10.0887728 L24.1044386,10.8825065 L25.7545692,10.464752 L24.1253264,9.81723238 C23.9582245,9.75456919 23.770235,9.92167102 23.8328982,10.0887728 L23.8328982,10.0887728 Z" id="形状"></path>
            <path d="M13.4725849,39.9791123 L15.4151436,38.0365535 C15.4569191,37.8903394 15.5195822,37.7441253 15.5613577,37.5979112 L13.1801567,39.9791123 L13.4725849,39.9791123 L13.4725849,39.9791123 Z M12.386423,39.9791123 L16,36.3655352 C16.0626632,36.2193211 16.1044386,36.0522193 16.1671018,35.9060052 L12.0939948,39.9791123 L12.386423,39.9791123 Z M11.3420366,39.9791123 L16.6057441,34.7154047 C16.6684073,34.5483029 16.7310705,34.4020888 16.7937337,34.2349869 L11.0496084,39.9791123 L11.3420366,39.9791123 Z M10.2976501,39.9791123 L17.3159269,32.9608355 C17.3994778,32.772846 17.4830287,32.5848564 17.5665796,32.4177546 L10.0052219,39.9791123 L10.2976501,39.9791123 Z M9.23237598,39.9791123 L18.4020888,30.8093995 C18.5483029,30.5587467 18.694517,30.308094 18.8407311,30.078329 L8.91906005,40 L9.23237598,39.9791123 L9.23237598,39.9791123 Z M20.8668407,27.0078329 L7.89556136,39.9791123 L8.18798956,39.9791123 L20.5117493,27.6553525 M6.64229765,39.9791123 L6.93472585,39.9791123 L30.2663185,16.6475196 L30.3707572,16.2506527 L6.64229765,39.9791123 Z M29.0548303,16.3968668 L5.47258486,39.9791123 L5.76501305,39.9791123 L29.5979112,16.1253264 C29.4308094,16.2088773 29.2428198,16.2924282 29.0548303,16.3968668 Z M27.2584856,16.9399478 L4.24020888,39.9791123 L4.53263708,39.9791123 L27.6762402,16.8146214 C27.5509138,16.8563969 27.4046997,16.8981723 27.2584856,16.9399478 Z M25.0861619,17.9007833 L4.07310705,38.9138381 C3.94778068,39.1227154 3.84334204,39.3315927 3.73890339,39.54047 L25.6501305,17.6292428 C25.462141,17.7127937 25.2741514,17.8172324 25.0861619,17.9007833 Z M22.6005222,19.1749347 L5.76501305,36.0104439 C5.61879896,36.2610966 5.45169713,36.5117493 5.30548303,36.7624021 L23.2480418,18.8198433 C23.0182768,18.924282 22.8093995,19.0496084 22.6005222,19.1749347 Z" id="形状"></path>
            <polygon id="路径" points="7.95822454 22.4751958 8.00822454 22.5751958 8.05822454 22.5251958"></polygon>
            <path d="M8,22.4960836 L7.97911227,22.5169713 L8.10443864,22.7049608 L8.18798956,22.6214099 L8,22.4960836 Z M8.77284595,22.997389 L8.45953003,23.3315927 L8.56396867,23.5195822 L8.96083551,23.1227154 L8.77284595,22.997389 Z M9.54569191,23.4986945 L8.91906005,24.1253264 L9.02349869,24.3133159 L9.73368146,23.6240209 L9.54569191,23.4986945 Z M10.3394256,24.0208877 L9.42036554,24.8981723 C9.46214099,24.9608355 9.52480418,25.002611 9.56657963,25.0443864 L10.5065274,24.1044386 C10.464752,24.0835509 10.4020888,24.0417755 10.3394256,24.0208877 Z M11.1958225,24.3968668 L10.0887728,25.5039164 C10.151436,25.5456919 10.2140992,25.5665796 10.2767624,25.6083551 L11.4255875,24.45953 C11.3629243,24.4177546 11.2793734,24.4177546 11.1958225,24.3968668 Z M12.7624021,24.3550914 C12.6579634,24.3968668 12.5535248,24.4177546 12.4281984,24.4386423 L11.0078329,25.8590078 C11.0913838,25.8798956 11.1749347,25.8798956 11.2584856,25.9007833 L12.8250653,24.3342037 L12.7624021,24.3550914 Z M14.2454308,23.8746736 L12.3237598,25.7963446 C12.4699739,25.7545692 12.6370757,25.691906 12.7832898,25.6292428 L14.6840731,23.7284595 L14.2454308,23.8746736 Z M16.1044386,23.310705 L14.9765013,24.4177546 L15.6449086,24.0417755 L16.5430809,23.1644909 L16.1044386,23.310705 Z M17.7545692,22.7885117 L17.5665796,22.9765013 L18.1096606,22.6840731 L17.7545692,22.7885117 Z" id="形状"></path>
        </g>
    </g>
</svg>