<?xml version="1.0" encoding="UTF-8"?>
<svg width="40px" height="40px" viewBox="0 0 40 40" version="1.1" xmlns="http://www.w3.org/2000/svg" xmlns:xlink="http://www.w3.org/1999/xlink">
    <title>TencentDB for SQLServer</title>
    <g id="TencentDB-for-SQLServer" stroke="none" stroke-width="1" fill="none" fill-rule="evenodd">
        <g id="tencent-sqlserver" transform="translate(4.000000, 4.000000)" fill-rule="nonzero">
            <rect id="Rectangle-Copy" fill="#444444" opacity="0" x="0" y="0" width="32" height="32"></rect>
            <g id="Group-2" transform="translate(2.000000, 2.000000)" fill="#00A4FF">
                <path d="M10.3,26 C5.6,25.7 2,24.5 2,23 L0,23 C0,25.5 4.5,27.6 10.3,27.9 L10.3,27 L10.3,26 Z" id="Shape"></path>
                <path d="M24,9 L24,11 L22,11 L22,9 L22,7.8 C19.9,9.1 16.2,10 12,10 C7.8,10 4.1,9.1 2,7.8 L2,14 C2,15.5 5.6,16.7 10.3,17 L10.3,19 C6.9,18.8 3.9,18 2,16.8 L2,23 L0,23 L0,5 C0,2.2 5.4,0 12,0 C18.6,0 24,2.2 24,5 L24,9 Z M12,8 C17.5,8 22,6.7 22,5 C22,3.3 17.5,2 12,2 C6.5,2 2,3.3 2,5 C2,6.7 6.5,8 12,8 Z" id="Combined-Shape"></path>
                <g id="田" transform="translate(13.000000, 14.000000)">
                    <path d="M2,2 L2,12 L12,12 L12,2 L2,2 Z M0,0 L14,0 L14,14 L0,14 L0,0 Z" id="Rectangle-167"></path>
                    <rect id="Rectangle-169" x="6" y="0" width="2" height="14"></rect>
                    <rect id="Rectangle-169" transform="translate(7.000000, 7.000000) rotate(90.000000) translate(-7.000000, -7.000000) " x="6" y="0" width="2" height="14"></rect>
                </g>
            </g>
        </g>
    </g>
</svg>