<?xml version="1.0" encoding="UTF-8"?>
<svg width="40px" height="40px" viewBox="0 0 40 40" version="1.1" xmlns="http://www.w3.org/2000/svg" xmlns:xlink="http://www.w3.org/1999/xlink">
    <title>TencentDB for MySQL</title>
    <g id="TencentDB-for-MySQL" stroke="none" stroke-width="1" fill="none" fill-rule="evenodd">
        <g id="tencent-mysql" transform="translate(4.000000, 4.000000)" fill-rule="nonzero">
            <rect id="Rectangle-Copy" fill="#444444" opacity="0" x="0" y="0" width="32" height="32"></rect>
            <path d="M4,25 C4,26.5 7.5,27.7 12.1,27.9 L15.7,29.9 C15.1,30 14.6,30 14,30 C7.4,30 2,27.8 2,25 L2,7 C2,4.2 7.4,2 14,2 C20.6,2 26,4.2 26,7 L26,14.4 L24,13.5 L24,9.8 C21.9,11.1 18.2,12 14,12 C9.8,12 6.1,11.1 4,9.8 L4,16.1 C4,17.5 7.5,18.7 12.1,19 L12.1,21 C8.7,20.7 5.8,19.9 4,18.8 L4,25 Z M14.1,4 C8.5,4 4.1,5.3 4.1,7 C4.1,8.7 8.6,10 14.1,10 C19.2,10 24.1,8.7 24.1,7 C24.1,5.3 19.7,4 14.1,4 Z" id="Combined-Shape" fill="#00A4FF"></path>
            <path d="M28.3323629,19.9561676 C28.4978448,19.6835328 28.8284181,19.5595679 29.1323629,19.6561676 C29.5348592,19.6877532 29.9067126,19.4398509 30.0323629,19.0561676 C30.1348168,18.7102547 30.0599792,18.3360665 29.8323629,18.0561676 C28.5413877,16.9970069 26.8995461,16.4616238 25.2323629,16.5561676 C23.8829384,15.4081391 22.2668665,14.6172954 20.5323629,14.2561676 C19.3792666,13.8297259 18.0960682,13.9397144 17.0323629,14.5561676 C16.4175969,14.8939751 15.9270208,15.4195924 15.6323629,16.0561676 C14.9947447,16.0186915 14.3993514,16.3759275 14.1323629,16.9561676 C13.5323629,18.4561676 15.1323629,19.2561676 15.7323629,19.5561676 L16.0323629,19.6561676 C16.1323629,19.7561676 16.2323629,19.7561676 16.4323629,19.8561676 C17.6323629,20.3561676 17.6323629,20.5561676 17.5323629,20.9561676 C16.717218,22.5425014 16.7931183,24.4400093 17.7323629,25.9561676 C17.9104479,26.2205488 18.214007,26.3723284 18.5323629,26.3561676 C18.8647134,26.3302441 19.1634242,26.1435499 19.3323629,25.8561676 C19.566187,25.4105659 19.8700561,25.0054072 20.2323629,24.6561676 C20.7665225,25.703079 21.4768927,26.6502392 22.3323629,27.4561676 C23.13262,28.128267 23.6060045,29.1114503 23.6323629,30.1561676 L25.4323629,30.1561676 C25.409262,28.5818651 24.7185872,27.0914616 23.5323629,26.0561676 C22.7249016,25.1358619 22.0207003,24.12986 21.4323629,23.0561676 C21.2901813,22.6960301 20.9132548,22.4866265 20.5323629,22.5561676 C19.8598679,22.6631984 19.2526509,23.0203848 18.8323629,23.5561676 C18.7161834,22.9583679 18.8618129,22.3394427 19.2323629,21.8561676 C19.2323629,21.7561676 19.3323629,21.7561676 19.3323629,21.6561676 C20.1323629,19.4561676 17.9323629,18.5561676 17.2323629,18.2561676 C17.1323629,18.2561676 17.0323629,18.1561676 16.9323629,18.1561676 L16.6323629,17.9561676 C16.9200104,17.8689135 17.1451088,17.643815 17.2323629,17.3561676 C17.363828,16.8789949 17.6906719,16.4795191 18.1323629,16.2561676 C18.829099,15.9562515 19.6112911,15.9206973 20.3323629,16.1561676 C21.8806501,16.5088393 23.3212532,17.2291409 24.5323629,18.2561676 C24.7785381,18.4721257 25.1178926,18.5475378 25.4323629,18.4561676 C26.1003658,18.2678838 26.8148718,18.3393344 27.4323629,18.6561676 C27.2751569,18.8022476 27.1403714,18.9707295 27.0323629,19.1561676 C26.7323629,19.6561676 26.3323629,20.8561676 27.5323629,22.4561676 C28.7323629,24.0561676 28.6323629,27.4561676 28.2323629,30.1561676 L30.0323629,30.1561676 C30.4323629,27.3561676 30.5323629,23.5561676 28.9323629,21.4561676 C28.3323629,20.7561676 28.2323629,20.2561676 28.3323629,19.9561676 Z" id="Path" fill="#00A4FF"></path>
        </g>
    </g>
</svg>