<?xml version="1.0" encoding="UTF-8"?>
<svg width="40px" height="40px" viewBox="0 0 40 40" version="1.1" xmlns="http://www.w3.org/2000/svg" xmlns:xlink="http://www.w3.org/1999/xlink">
    <title>Tencent mariaDB</title>
    <g id="Tencent-mariaDB" stroke="none" stroke-width="1" fill="none" fill-rule="evenodd">
        <g id="tencent-mongo" transform="translate(4.000000, 4.000000)" fill-rule="nonzero">
            <rect id="Rectangle-Copy" fill="#444444" opacity="0" x="0" y="0" width="32" height="32"></rect>
            <g id="Group" transform="translate(2.000000, 2.000000)" fill="#00A4FF">
                <path d="M12,0 C5.4,0 0,2.2 0,5 L0,23 L2,23 L2,16.8 C4.1,18.1 7.8,19 12,19 C12.8,19 13.6,19 14.4,18.9 C14.6,18.2 14.8,17.5 15.1,16.9 C14.1,17 13.1,17.1 12,17.1 C6.5,17.1 2,15.8 2,14.1 L2,7.8 C4.1,9.1 7.8,10 12,10 C16.2,10 19.9,9.1 22,7.8 L22,9 L24,9 L24,5 C24,2.2 18.6,0 12,0 Z M12,8 C6.5,8 2,6.7 2,5 C2,3.3 6.5,2 12,2 C17.5,2 22,3.3 22,5 C22,6.7 17.5,8 12,8 Z" id="Shape"></path>
                <path d="M14.9,25.9 C14,26 13,26 12,26 C6.5,26 2,24.7 2,23 L0,23 C0,25.8 5.4,28 12,28 C13.5,28 15,27.9 16.4,27.7 C15.8,27.2 15.3,26.6 14.9,25.9 Z" id="Shape"></path>
            </g>
        </g>
        <circle id="椭圆形" stroke="#00A4FF" stroke-width="2" cx="29.9726114" cy="25.4272892" r="7.36532002"></circle>
        <g id="meiyuan" transform="translate(27.413287, 21.226016)" fill="#00A4FF" fill-rule="nonzero">
            <path d="M3.08587306,0.000336770146 L3.08620983,1.19184816 C4.24976887,1.33632481 5.07688926,1.96306384 5.11696554,2.85888643 L5.11864942,2.9279254 L4.1083232,2.9279254 C4.1083232,2.53861303 3.535805,2.17018073 2.55915632,2.17018073 C1.56600565,2.17018073 1.00998945,2.48136121 1.00998944,2.9279254 C1.00998944,3.32868814 1.4952828,3.66344289 2.46149145,3.68432295 L2.55915632,3.68567006 C4.08205471,3.68567006 5.11864942,4.37302867 5.11864942,5.45374096 C5.11864942,6.47214979 4.28681417,7.06386419 3.08620983,7.19419625 L3.08587306,8.40254642 L2.07554683,8.40254642 L2.07554683,7.19486981 C0.889760617,7.06015965 0.0420969155,6.42870576 0.00134709637,5.52210635 L0,5.4530674 L1.01032622,5.4530674 C1.01032622,5.84237977 1.58351796,6.21114884 2.5594931,6.21114884 C3.552307,6.21114884 4.10865997,5.89963159 4.10865997,5.45340417 C4.10865997,5.05264143 3.62370338,4.71788668 2.65749474,4.69666983 L2.4608179,4.69464918 C0.991803566,4.66534972 0,3.98438984 0,2.92758861 C0,1.89671909 0.852041777,1.30332081 2.0758836,1.18241845 L2.07554683,0 L3.08587306,0 L3.08587306,0.000336770146 Z" id="路径"></path>
        </g>
    </g>
</svg>