<?xml version="1.0" standalone="no"?><!DOCTYPE svg PUBLIC "-//W3C//DTD SVG 1.1//EN" "http://www.w3.org/Graphics/SVG/1.1/DTD/svg11.dtd"><svg t="1591175741464" class="icon" viewBox="0 0 1024 1024" version="1.1" xmlns="http://www.w3.org/2000/svg" p-id="13856" xmlns:xlink="http://www.w3.org/1999/xlink" width="200" height="200"><defs><style type="text/css"></style></defs><path d="M750.43640662 555.98204179c-12.44507935 12.16223664-32.17335854 12.09152596-44.6184379-0.21213203-12.30365799-12.30365799-12.44507935-32.10264787-0.28284271-44.54772722l64.20529573-64.20529573c52.89158723-53.74011537 52.46732316-140.00714267-0.84852813-193.32299398s-139.65358928-53.66940469-193.46441534-0.84852813l-64.20529573 64.20529573c-7.99030663 8.13172798-19.79898987 11.45512986-30.6884343 8.48528137-11.10157646-2.8991378-19.7282792-11.52584053-22.55670632-22.55670632-2.8991378-11.10157646 0.28284271-22.76883835 8.48528137-30.6884343l64.20529573-64.20529573c78.48885271-77.35748186 204.77812383-76.93321779 282.7720018 1.06066017 77.92316729 77.92316729 78.34743136 204.21243841 0.98994949 282.70129112M560.29539316 702.70669889c12.37436867 12.37436867 12.37436867 32.45620126 0 44.83056992l-65.33666659 65.19524523c-78.27672068 78.41814203-205.34380926 78.34743136-283.69124061 0-78.27672068-78.27672068-78.27672068-205.41451993 0-283.69124061l65.33666658-65.19524523c7.99030663-8.13172798 19.79898987-11.45512986 30.68843431-8.48528137 11.10157646 2.8991378 19.7282792 11.52584053 22.48599564 22.62741699 2.8991378 11.10157646-0.28284271 22.76883835-8.48528138 30.68843431l-65.2659559 65.2659559c-35.56747109 34.43610024-49.92173875 85.41849917-37.26452737 133.43104961s49.99244943 85.34778849 98.00499987 98.00499987c48.01255044 12.65721138 98.99494937-1.69705627 133.43104961-37.26452736l65.19524523-65.33666659c5.93969696-5.93969696 14.00071427-9.33380951 22.34457429-9.33380951 8.48528137 0 16.61700936 3.32340187 22.55670632 9.26309884z m-34.15325754-131.02688656L210.34824715 255.88592385c-12.44507935-12.44507935-12.44507935-32.80975465 0-45.25483399s32.80975465-12.44507935 45.25483399 0l315.79388848 315.79388848c12.44507935 12.44507935 12.44507935 32.80975465 0 45.25483399s-32.80975465 12.44507935-45.254834 0z" fill="#4AAF47" p-id="13857"></path><path d="M518.01040764 549.26452737l0-102.53048327c0-17.53624817 14.42497834-31.96122651 32.03193719-32.03193719 17.53624817 0 31.96122651 14.42497834 32.03193719 32.03193719l0 102.53048327c0 17.53624817-14.42497834 31.96122651-32.03193719 32.03193719-17.67766953 0-32.10264787-14.42497834-32.03193719-32.03193719z" fill="#4AAF47" p-id="13858"></path><path d="M549.33523805 582.00357134l-102.53048328 0c-17.53624817 0-31.96122651-14.42497834-32.03193718-32.03193719 0-17.53624817 14.42497834-31.96122651 32.03193718-32.03193719l102.53048328 0c17.53624817 0 31.96122651 14.42497834 32.03193718 32.03193719-0.07071068 17.60695885-14.49568901 32.03193719-32.03193718 32.03193719z" fill="#4AAF47" p-id="13859"></path></svg>