<?xml version="1.0" standalone="no"?><!DOCTYPE svg PUBLIC "-//W3C//DTD SVG 1.1//EN" "http://www.w3.org/Graphics/SVG/1.1/DTD/svg11.dtd"><svg t="1588993449099" class="icon" viewBox="0 0 1025 1024" version="1.1" xmlns="http://www.w3.org/2000/svg" p-id="12851" xmlns:xlink="http://www.w3.org/1999/xlink" width="200.1953125" height="200"><defs><style type="text/css"></style></defs><path d="M621.333333 343.466667l-277.333333 277.333333c-17.066667 17.066667-17.066667 42.666667 0 59.733333 8.533333 8.533333 19.2 12.8 29.866667 12.8s21.333333-4.266667 29.866666-12.8l277.333334-277.333333c17.066667-17.066667 17.066667-42.666667 0-59.733333-17.066667-17.066667-44.8-17.066667-59.733334 0z" fill="#4aaf47" p-id="12852"></path><path d="M563.733333 857.6c-108.8 108.8-285.866667 108.8-396.8 0-108.8-108.8-108.8-285.866667 0-396.8 17.066667-17.066667 17.066667-42.666667 0-59.733333-17.066667-17.066667-42.666667-17.066667-59.733333 0-142.933333 140.8-142.933333 373.333333 0 516.266666 70.4 70.4 164.266667 106.666667 258.133333 106.666667 93.866667 0 187.733333-36.266667 258.133334-106.666667 17.066667-17.066667 17.066667-42.666667 0-59.733333s-42.666667-17.066667-59.733334 0zM917.866667 106.666667c-68.266667-68.266667-160-106.666667-258.133334-106.666667S469.866667 38.4 401.6 106.666667c-17.066667 17.066667-17.066667 42.666667 0 59.733333 17.066667 17.066667 42.666667 17.066667 59.733333 0C514.666667 115.2 585.066667 85.333333 659.733333 85.333333c74.666667 0 145.066667 29.866667 198.4 81.066667 108.8 108.8 108.8 285.866667 0 396.8-17.066667 17.066667-17.066667 42.666667 0 59.733333 8.533333 8.533333 19.2 12.8 29.866667 12.8s21.333333-4.266667 29.866667-12.8c142.933333-140.8 142.933333-373.333333 0-516.266666z" fill="#4aaf47" p-id="12853"></path></svg>