<?xml version="1.0" standalone="no"?><!DOCTYPE svg PUBLIC "-//W3C//DTD SVG 1.1//EN" "http://www.w3.org/Graphics/SVG/1.1/DTD/svg11.dtd"><svg t="1609906201479" class="icon" viewBox="0 0 1024 1024" version="1.1" xmlns="http://www.w3.org/2000/svg" p-id="14594" xmlns:xlink="http://www.w3.org/1999/xlink" width="64" height="64"><defs><style type="text/css"></style></defs><path d="M0 515.2L92.8 424h837.6L1024 515.2H0z" fill="#57A07B" p-id="14595"></path><path d="M235.2 3.2h691.2c16.8 0 25.6 8.8 25.6 26.4V936c0 17.6-8.8 26.4-25.6 26.4H235.2c-16.8 0-25.6-8.8-25.6-26.4V29.6c0-17.6 8.8-26.4 25.6-26.4z" fill="#D1D3D3" p-id="14596"></path><path d="M106.4 80H816c17.6 0 26.4 8.8 26.4 25.6v892c0 16.8-8.8 25.6-26.4 25.6H106.4c-17.6 0-26.4-8.8-26.4-25.6V105.6c0-16.8 8.8-25.6 26.4-25.6z" fill="#EEEEEE" p-id="14597"></path><path d="M0 515.2v325.6c0 25.6 20.8 46.4 46.4 46.4h931.2c25.6 0 46.4-20.8 46.4-46.4V515.2H0z" fill="#72C49E" p-id="14598"></path><path d="M300.8 737.6l73.6 22.4c-4.8 20.8-12.8 37.6-23.2 52-10.4 13.6-24 24-40 31.2-16 7.2-36 10.4-60 10.4-29.6 0-53.6-4-72.8-12.8-18.4-8.8-35.2-24-48.8-45.6-13.6-21.6-20.8-49.6-20.8-83.2 0-44.8 12-79.2 36-104 24-24 57.6-36 101.6-36 34.4 0 60.8 7.2 80.8 20.8 19.2 13.6 34.4 35.2 44 64l-74.4 16.8c-2.4-8-5.6-14.4-8-18.4-4.8-6.4-10.4-11.2-17.6-15.2s-14.4-4.8-23.2-4.8c-19.2 0-33.6 8-44 23.2-8 11.2-11.2 29.6-11.2 53.6 0 30.4 4.8 50.4 13.6 61.6 8.8 11.2 22.4 16.8 38.4 16.8s28-4.8 36.8-13.6c9.6-8.8 15.2-22.4 19.2-39.2zM383.2 759.2l80-4.8c1.6 12.8 5.6 23.2 10.4 29.6 8.8 11.2 20.8 16.8 36.8 16.8 12 0 21.6-3.2 28-8.8 6.4-5.6 9.6-12 9.6-19.2 0-7.2-3.2-13.6-9.6-19.2-6.4-5.6-20.8-11.2-43.2-16-36.8-8-63.2-19.2-79.2-32.8-16-13.6-24-31.2-24-52.8 0-13.6 4-27.2 12-40s20-22.4 36.8-29.6c16-7.2 38.4-10.4 67.2-10.4 34.4 0 61.6 6.4 79.2 19.2 18.4 12.8 28.8 33.6 32.8 61.6l-79.2 4.8c-2.4-12-6.4-20.8-13.6-26.4-6.4-5.6-16-8-28-8-9.6 0-16.8 2.4-22.4 6.4-4.8 4-7.2 8.8-7.2 15.2 0 4 2.4 8 6.4 12 4 3.2 13.6 7.2 28 10.4 36.8 8 63.2 16 79.2 24s27.2 18.4 34.4 30.4c7.2 12 11.2 25.6 11.2 40 0 17.6-4.8 33.6-14.4 48-9.6 14.4-23.2 25.6-40.8 33.6-17.6 8-39.2 11.2-65.6 11.2-46.4 0-78.4-8.8-96-26.4-16.8-19.2-27.2-41.6-28.8-68.8zM628 576.8h88l61.6 196 60.8-196h85.6l-100.8 272H730.4l-102.4-272z" fill="#FCFCFC" p-id="14599"></path><path d="M580 161.6l6.4 100h-6.4c-8.8-29.6-21.6-51.2-38.4-64.8-16.8-12.8-36.8-20-60-20-19.2 0-36.8 4.8-52.8 15.2-16 9.6-28 25.6-36.8 47.2-8.8 21.6-13.6 48.8-13.6 80.8 0 26.4 4 49.6 12.8 68.8 8.8 19.2 21.6 34.4 38.4 44.8s36.8 15.2 58.4 15.2c19.2 0 36-4 50.4-12 14.4-8 30.4-24 48-48.8l6.4 4c-14.4 26.4-32 44.8-51.2 57.6s-43.2 18.4-69.6 18.4c-48.8 0-86.4-18.4-112.8-54.4-20-27.2-29.6-58.4-29.6-94.4 0-29.6 6.4-56 20-80.8 12.8-24.8 31.2-43.2 54.4-56.8 23.2-13.6 48-20 75.2-20 20.8 0 42.4 4.8 62.4 15.2 6.4 3.2 10.4 4.8 12.8 4.8 4 0 7.2-1.6 10.4-4 4-4 6.4-9.6 8-16h7.2z" fill="#C1C7D0" p-id="14600"></path></svg>