<?xml version="1.0" standalone="no"?><!DOCTYPE svg PUBLIC "-//W3C//DTD SVG 1.1//EN" "http://www.w3.org/Graphics/SVG/1.1/DTD/svg11.dtd"><svg t="1587986670392" class="icon" viewBox="0 0 1024 1024" version="1.1" xmlns="http://www.w3.org/2000/svg" p-id="10053" xmlns:xlink="http://www.w3.org/1999/xlink" width="200" height="200"><defs><style type="text/css"></style></defs><path d="M812.3 404.9l-34.5-1V296.5c0-26.2-20.6-47.3-46.1-47.3H577.5v-35.5c0-84.6-74.4-153.9-156.7-153.9-6.6 0-13.3 0.4-20.1 1.4-75.3 10.2-143.6 80.2-143.6 158.3v29.7H109.9c-25.4 0-46.1 21.2-46.1 47.3V431C129.6 447.2 179 508.2 179 580.6 179 653 129.6 714 63.8 730.1V912c0 26.2 20.6 47.3 46.1 47.3h165.4C291 891.7 350.3 841 420.8 841c70.4 0 129.8 50.7 145.5 118.4h165.4c25.4 0 46.1-21.2 46.1-47.3V741.6l28.9-2c76 0 144-72.7 154-150.2 12-93.7-59.4-184.5-148.4-184.5z m-79.1 266.9h-28.9v171.4c0 26.1-20.6 47.3-46.1 47.3h-52.4C557 798 488.7 782.2 418.3 782.2s-144.8 15.3-187.5 108.4h-56.4c-25.4 0-46.1-21.2-46.1-47.3v-75.9c82-29.5 114.1-115.1 114.1-187.5s-10.3-140.4-112.1-188.5l-1-22.5c0-26.1 18.6-54.3 44.1-54.3h145.2v-29.7c0-78.1 18.7-161.7 94-161.7h7.2c75.7 0 92.1 72.3 92.1 157v35.5h146.2c25.4 0 46.1 21.2 46.1 47.3v111.4h35.6c72.7 0 155.4 3.9 155.4 98.6 0 75.3-86 98.8-162 98.8z" fill="#4AAF47" p-id="10054"></path></svg>