<?xml version="1.0" standalone="no"?><!DOCTYPE svg PUBLIC "-//W3C//DTD SVG 1.1//EN" "http://www.w3.org/Graphics/SVG/1.1/DTD/svg11.dtd"><svg t="1602846729661" class="icon" viewBox="0 0 1024 1024" version="1.1" xmlns="http://www.w3.org/2000/svg" p-id="13300" xmlns:xlink="http://www.w3.org/1999/xlink" width="18" height="18"><defs><style type="text/css"></style></defs><path d="M257 110.6c3 0.9 3.2 1.7 3.2 12.9s-0.1 12-3.2 12.9c-5.5 1.4-153.7 1-156-0.6-1.4-0.9-2.3-4.6-2.6-11.7-0.6-8.8-0.3-10.9 2-12.4 2-1.4 17.7-1.9 77.8-1.9 41.6-0.1 76.9 0.3 78.8 0.8zM479.1 114.3c12 4.8 20.7 9.7 27.1 15.6 3.9 3.6 4.5 4.8 2.7 5.9-1.2 0.7-48.9 1.3-113 1.3-99 0-111.1-0.3-113.1-2.3-3.5-3.3-3.2-21.6 0.3-23.7 1.6-1 32.1-1.3 94.3-1l91.9 0.4c-0.1 0.1 9.8 3.8 9.8 3.8zM688.4 112.6c1.6 1.6 2.9 4.1 2.9 5.4 0 1.4 1.2 5.8 2.5 9.5 2.2 6.1 2.2 7.1 0.4 8.2-2.9 1.9-128.8 1.9-131.7 0-2.7-1.7-3.9-20.8-1.4-23.9 1.6-1.9 10.6-2.2 63.1-2.2 59.4 0.1 61.5 0.2 64.2 3zM925.8 111.1c2.3 1.3 2.7 3.2 2.7 10.6 0 5.8-0.9 10.1-2.3 12.3l-2.2 3.2h-65.8c-57.6 0-65.8-0.3-66.6-2.2-1.3-3.2 5.1-22.3 8-23.9 3.4-1.8 122.6-1.8 126.2 0zM259.4 171.9v12.3l-78.9 0.4c-89.1 0.4-82.5 1.3-82.5-11.4 0-3.8 0.6-8.5 1.4-10.6l1.4-3.8 79.1 0.3 79.3 0.4c0.2 0.1 0.2 12.4 0.2 12.4zM531.3 161.6c3 3.3 7.4 18.1 6.2 21.1-0.9 1.9-14.6 2.2-127.6 2.2H283.3l-1.4-3.5c-1.6-4.3-1.6-14.9 0.1-19.4l1.3-3.2H406c118.2 0.1 123 0.2 125.3 2.8zM704.5 162.1c2.7 5.1 7.1 20.3 6.2 21.7-0.4 0.6-34.1 1.2-75.1 1.2-83.8 0-76 1.3-76-12.4 0-14.9-6.9-13.6 73.1-13.6h70l1.8 3.1zM927.1 162.6c1.9 4.8 1.9 15.9 0 19.5-1.4 2.6-3.9 2.7-77 2.7h-75.2l0.7-3.3c3.2-12.6 4.2-16.1 6.2-19.2l2.3-3.5h141.5c0.1 0.1 1.5 3.8 1.5 3.8zM213.1 211.4c0.4 1.7 0.7 7.5 0.4 12.6l-0.4 9.4h-68l-0.4-10.7c-0.3-5.9-0.1-11.6 0.3-12.7 0.6-1.4 7.5-1.9 34-1.9h33.4l0.7 3.3zM395.9 221.4l0.4 12.7h-33.1c-23.7 0-33.4-0.4-34.7-1.7-2.2-2.2-2.3-17.7-0.3-21.6 1.4-2.6 3-2.7 34.4-2.5l32.8 0.4c0 0.1 0.5 12.7 0.5 12.7zM538.7 220.1c0 8.4-0.6 11.6-2.2 12.6-3.3 2.2-67 1.9-69.2-0.3-2.2-2.2-2.3-17.7-0.3-21.6 1.4-2.6 3.2-2.7 36.6-2.5l35 0.4v11.4zM720.2 211c2.5 5.1 4.8 12.7 5.4 17.7l0.7 5.5h-60c-67.9 0-61.8 1.2-61.8-12.4 0-14.8-4.9-13.7 58.9-13.3 47.9 0.3 56 0.6 56.8 2.5zM881.6 221.1v12.3l-60.2 0.4c-48.5 0.3-60.5 0-61.1-1.6-0.7-1.9 4.3-18.8 6.7-22.4 1-1.3 13.5-1.7 57.9-1.4l56.7 0.4v12.3zM212.1 258c2.6 0.9 2.5 21.6-0.3 23.7-1.3 1.2-11.7 1.6-34.3 1.3l-32.4-0.4-0.4-12.2c-0.3-6.7 0.1-12.6 1-13 1.5-1 63.5-0.4 66.4 0.6zM524.9 258.9c0 3-14.3 21-18.1 22.7-2.7 1.3-26.9 1.7-89.7 1.7-76.1 0-86.1-0.3-88.1-2.3-1.6-1.6-2.3-4.9-2.3-11.1 0-10 0.9-12 4.9-12.7 1.6-0.3 45.7-0.4 98.1-0.1 68.8 0.2 95.2 0.6 95.2 1.8zM734.3 258c1.7 1.2 3.5 4.3 4.1 6.9 1.7 8.5 2.3 9.7 5.1 9.7s3.3-1.2 5.1-9.7c0.4-2.5 1.7-5.4 2.9-6.2 2-1.6 126.9-2.3 129.5-0.7 1.6 1 2 19.4 0.6 23-0.7 2-4.9 2.3-32.1 2.3-26.9 0-31.5-0.3-33.9-2.5-1.4-1.3-2.6-3.2-2.6-4.3 0-3.3-2.5-2-4.3 2.5l-1.7 4.3h-61.5c-39.5 0-62.4-0.6-64.2-1.4-1.6-0.9-2.7-3-2.7-5.1 0-1.9-0.7-3.9-1.4-4.3-1.4-0.9-2 0.1-3.5 6.8l-0.9 4.1h-31.7c-37.3 0-36.3 0.3-36.3-13.5 0-4.9 0.6-9.8 1.2-10.7 0.9-1.4 15.6-1.9 62.6-2.3 33.7-0.1 61.6-0.4 62.1-0.7 0.1-0.2 1.8 0.6 3.6 1.8zM213.6 318.2c0.3 8.1-0.1 11.4-1.6 12.7-1.4 1.2-11.3 1.6-34.4 1.3l-32.4-0.4-0.4-12.7-0.4-12.6 34.4 0.3 34.4 0.4 0.4 11zM509.7 309.1c5.5 4.6 16.9 20.4 15.9 21.8-0.6 1.2-31.1 1.6-98.4 1.6-94.9 0-97.7-0.1-99.1-2.7-1.6-3.2-2-20.8-0.4-22.3 0.4-0.6 40.9-1 90-1 82.1 0.1 89.4 0.3 92 2.6zM673.2 319.5v12.3l-32.6 0.4c-29.4 0.3-32.7 0.1-34.3-2.2-2-2.6-2.6-21-0.9-22.7 0.6-0.4 15.9-0.7 34.3-0.6l33.4 0.4c0.1 0.1 0.1 12.4 0.1 12.4zM799.1 307.9c1.2 1.9-5.9 21.8-8.2 23.3-1 0.7-22.6 1.3-47.9 1.3h-45.9l-2.7-6.2c-3.2-6.9-5.9-15.6-5.9-18.1-0.1-2.2 109.3-2.5 110.6-0.3zM882 319l-0.4 12.7-30.4 0.4c-16.6 0.1-31.8 0-33.6-0.4-3-0.7-3.3-1.6-3.3-12.2 0-6.2 0.4-11.7 1-12.2 0.4-0.6 15.8-1 34-1h33.1c0 0.2-0.4 12.7-0.4 12.7zM212.3 356.2c1 1.3 1.6 6.1 1.3 12.7l-0.4 10.6-33 0.7c-18.1 0.4-33.6 0.4-34.3 0.3-1.6-0.6-2-23.9-0.4-25.3 0.4-0.6 15.3-1 33-1 25.8 0 32.5 0.4 33.8 2zM395.3 355.1c1.9 0.7 2.3 3.2 2.3 12.2 0 6.4-0.7 11.9-1.4 12.3-0.9 0.6-16.2 0.9-34.3 0.7-24.2 0-33.1-0.6-34-1.9-0.6-1-1.2-5.8-1.2-10.7 0-13.7-0.9-13.5 35.4-13.5 17 0 31.9 0.4 33.2 0.9zM536.8 355.9c1.3 1.2 3 6.2 4.1 12 1.4 9.1 1.4 10.3-0.9 11.9-3.2 2.3-65.8 2.7-70.2 0.4-2.3-1.3-2.7-3.2-2.7-11.6 0-14.9-1.3-14.5 36-14.5 23 0.1 32 0.5 33.7 1.8zM673.2 367.2v12.3h-68l-0.4-9.7c-0.7-16.5-2.6-15.8 35.6-15.3l32.8 0.4v12.3zM782.3 355.5c3.3 2-3.8 23.1-8.4 24.9-4.6 1.9-61.1 0.1-63.4-1.9-1-0.9-1.9-2.5-1.9-3.6 0-1.3-1.2-5.4-2.5-9-4.2-12.2-5.6-11.7 36.7-11.7 20.7 0 38.4 0.6 39.5 1.3zM882 367.5c0.3 8.1-0.1 12.7-1.2 12.7h-63.7c-2.6 0-2.9-1-2.9-12.2 0-8.4 0.6-12.4 1.9-12.9 0.9-0.4 16.1-0.7 33.6-0.6l31.8 0.3c0.1 0.1 0.5 12.7 0.5 12.7zM257.7 404c2 0.4 2.5 2.3 2.5 12.2 0 9.3-0.4 11.7-2.3 12.4-1.3 0.4-36.6 0.9-78.7 0.9-87 0-81 0.9-81-12 0-9.7 1.2-13.7 4.1-14.3 3.3-0.8 152.5 0.1 155.4 0.8zM414.2 403.4c97.4 0 123.6 0.4 124.1 1.7 0.9 2.6-4.3 18.5-7.2 21.7-2.2 2.5-8.2 2.6-124.3 2.6-108.2 0-122.1-0.3-124.1-2.3-2-2-2.3-7.8-1-21.8 0.1-1.9 4.2-3.3 7.1-2.5 1.2 0.3 57.6 0.6 125.4 0.6zM673.2 416.4v12.3l-54.8 0.4c-41.4 0.3-55.3-0.1-56.9-1.4-2.6-2.2-2.2-22.4 0.6-24 0.9-0.6 26.2-0.7 56.4-0.3l54.7 0.7v12.3zM767.6 407.5c-1.7 8.7-3.8 15-5.9 18.4-2.3 3.5-3 3.6-17.2 3.6-8.1 0-15.5-0.6-16.5-1.2-2-1.3-4.3-6.8-6.9-16.6-1.6-6.4-1.6-7.1 0.9-8 1.3-0.6 12.4-0.9 24.5-0.6l22 0.4c-0.2 0-0.9 4-0.9 4zM926.9 404.1c0.6 0.4 1.2 5.4 1.4 10.7 0.9 15.6 4.8 14.6-56.9 14.6-28.9 0-53.5-0.4-54.8-0.9-1.9-0.7-2.3-3.2-2.3-12.3 0-10.1 0.3-11.7 2.7-12.6 3.5-1.1 108.7-0.8 109.9 0.5zM258.4 453.9c1.3 0.7 1.7 4.3 1.4 12.6l-0.4 11.4-78.9 0.4c-72.8 0.3-79 0.1-80.6-2.2-2.3-3.2-2.5-19.5-0.1-21.8 2.1-2 155.4-2.4 158.6-0.4zM511.5 454.9c0.6 1.9-16.2 13.6-24.7 17.1-15 6.2-22 6.7-114.7 6.7-86.1 0-88.7-0.1-90.1-2.7-2-3.9-1.9-19.4 0.3-21.6 2.3-2.5 228.3-2 229.2 0.5zM673.2 465.6v12.3l-55.8 0.4-56 0.3-0.9-3.2c-1.4-5.8-0.9-19.4 0.9-21.1 1.3-1.3 15.2-1.7 56.9-1.4l55 0.4c-0.1 0-0.1 12.3-0.1 12.3zM751.6 455.1c0.6 1.3-0.1 5.5-1.4 9.3-1.3 3.6-2.5 7.8-2.5 9 0 1.3-0.7 2.7-1.7 3.3-2 1.3-6.9-4.5-6.9-8.4 0-1.4-1-4.8-2.3-7.1-3.3-6.7-1.9-8.5 6.7-8.5 5.4-0.1 7.4 0.5 8.1 2.4zM926.9 454.3c2.3 2.3 2.2 18.7 0 21.8-1.7 2.3-6.5 2.5-56.9 2.2l-55-0.4-0.4-10.7c-0.3-5.9-0.1-11.6 0.3-12.7 1-2.6 109.2-2.9 112-0.2z" fill="#2BC1E8" p-id="13301"></path><path d="M851.8 553.5c38.5 9.7 59.3 28 70.3 61.4 4.7 14.2 4 54.3-0.8 70.6-9.1 29.3-19.6 43.5-56.1 75.8-53.7 47.2-66 59-72.9 69.6-4 6-6.7 12.1-6.1 13.6 1 2.4 11.1 2.8 68.4 2.8 38.9 0 68.6 0.7 70.5 1.9 2.4 1.3 3.2 6.9 3.6 26.1 0.6 21.3 0.2 25-2.8 28.2-3.2 3.4-7.7 3.5-115.4 3.5-67.8 0-114-0.7-117-1.9-4.9-1.7-5.3-2.6-5.3-13.6 0-11.9 5.3-37.3 10.7-51 2.8-7.3 13-25.8 18.2-33.4 12.8-18.9 51.2-56.8 88.1-86.6 19.4-15.9 32-33.4 35.8-50 3.6-15.7 3.8-34.4 0.6-47.4-4.7-18.9-22.9-28.4-44.5-23-19.4 4.7-27.5 17.4-29.8 46.1-1 13.1-2.2 18.9-4.3 20-1.6 1.1-18.6 1.7-38.5 1.3l-35.4-0.4 0.2-21.5c0-11.8 1.2-25 2.4-29.3 9.7-31.7 33.8-53.6 69-62.4 18.4-4.3 74.7-4.7 91.1-0.4zM358.2 668.2c-5.5-37.2-8.9-50-17.4-66.1-11.7-22-33.4-40.9-55.5-48.4-5.1-1.7-17.2-4.3-27.1-6-13.8-2.1-33.2-2.8-84-2.6-36.2 0-67.4 0.6-69 1.1-1.6 0.6-3.6 2.1-4.5 3.2-0.8 1.1-1.6 81.2-1.6 178.1v175.9l5.3 1.9c6.5 2.2 118.5 2.4 143.8 0.2 38.9-3.5 65.6-17.4 83.8-43.3 11.1-16.1 20.7-43.3 24.7-70.8 3.1-23.9 4.3-104.4 1.5-123.2z m-79.8 70.9c-3.4 94.1-14.4 111.3-72.1 112.4-10.7 0.2-20.5-0.4-21.9-1.1-3.6-2.1-3.4-243.8 0.2-247.4 3.4-3.5 44.1-1.5 55.1 2.6 9.1 3.5 20.2 12.5 24.3 19.8 10.6 18.5 16.4 63.7 14.4 113.7zM650.8 753.1c-8.9-14.6-17-21.7-34.8-29.9-8.1-3.5-14.8-6.9-14.8-7.3 0-0.4 3.8-2.6 8.7-4.9 11.5-5.6 20.7-13.8 28.5-26.1 21.1-32.9 15.8-85.9-10.9-111.8-13.2-12.7-25.7-18.7-50.6-23.9-18.2-3.9-163.8-5.8-167.5-2.2-3.6 3.4-3.8 354.6-0.2 357.9 3 2.8 120.9 3 152.9 0.4 41.3-3.4 73.5-21.7 88.9-50.2 5.5-10.5 12.8-39.8 13-52.8-0.1-13.5-6.6-37.8-13.2-49.2zM488.8 603c1.4-3.5 40.9-1.7 53.7 2.4 19.4 6.5 25.3 15.9 25.3 41.3 0 21.1-2.4 27.3-15.2 36.6-8.7 6.5-32.4 11.4-50.8 10.6l-13-0.6-0.6-43.9c-0.2-24 0-44.9 0.6-46.4z m53.8 244.8c-8.9 2.2-48.8 5-52.2 3.9-2-0.7-2.6-12.9-2.6-51.7 0-28 0.6-51.5 1.6-52.3 0.8-0.9 13.4-1.1 27.7-0.7 21.9 0.6 27.7 1.5 34.4 4.7 17.6 8.6 25.9 23.3 25.9 46.3 0.3 28.1-11.1 44-34.8 49.8z" fill="#2BC1E8" p-id="13302"></path></svg>