<?xml version="1.0" standalone="no"?><!DOCTYPE svg PUBLIC "-//W3C//DTD SVG 1.1//EN" "http://www.w3.org/Graphics/SVG/1.1/DTD/svg11.dtd"><svg t="1595243264561" class="icon" viewBox="0 0 1024 1024" version="1.1" xmlns="http://www.w3.org/2000/svg" p-id="14400" xmlns:xlink="http://www.w3.org/1999/xlink" width="200" height="200"><defs><style type="text/css"></style></defs><path d="M165.3 897.1c-21 0-38-17-38-38v-692c0-20.9 17.1-38 38-38h692c20.9 0 38 17.1 38 38v692c0 7.8-2.3 15-6.3 21h70.7V128c0-35.2-28.8-64-64-64H128c-35.2 0-64 28.8-64 64v767.7c0 35.2 28.8 64 64 64h283.5v-62.6H165.3z" fill="#4AAF47" p-id="14401"></path><path d="M955.7 442.1H302.6v538.5h678V442.1z" fill="#FFFFFF" p-id="14402"></path><path d="M746.8 303.7h-471c-18.1 0-32.8-14.8-32.8-32.8 0-18.1 14.8-32.8 32.8-32.8h470.9c18.1 0 32.8 14.8 32.8 32.8 0.1 18-14.7 32.8-32.7 32.8zM530.8 461.1h-255c-18.1 0-32.8-14.8-32.8-32.8 0-18.1 14.8-32.8 32.8-32.8h254.9c18.1 0 32.8 14.8 32.8 32.8 0.1 18-14.7 32.8-32.7 32.8zM335.8 618.6h-59.9c-18.1 0-32.8-14.8-32.8-32.8 0-18.1 14.8-32.8 32.8-32.8h59.9c18.1 0 32.8 14.8 32.8 32.8 0 18-14.8 32.8-32.8 32.8zM370.2 959.3h-77.1c-17.1 0-31.1-14-31.1-31.1s14-31.1 31.1-31.1h77.1c17.1 0 31.1 14 31.1 31.1s-14 31.1-31.1 31.1zM895.3 464.9v-79.8c0-17.1 14-31.1 31.1-31.1h2c17.1 0 31.1 14 31.1 31.1v79.8c0 17.1-14 31.1-31.1 31.1h-2c-17.1 0-31.1-14-31.1-31.1z" fill="#4AAF47" p-id="14403"></path><path d="M410.7 902.4c-76.8-76.8-76.8-202.5 0-279.3l60.7-60.7c30.6-30.6 80.6-30.6 111.1 0l168.2 168.2c30.6 30.6 30.6 80.6 0 111.1L690 902.4c-76.7 76.8-202.4 76.8-279.3 0z" fill="#4AAF47" p-id="14404"></path><path d="M463.3 860.7l-10.9-10.9c-47.1-47.1-47.1-124.2 0-171.3l57.3-57.3c12.7-12.7 33.3-12.7 46.1 0l136.1 136.1c12.7 12.7 12.7 33.3 0 46.1l-57.3 57.3c-47.1 47.1-124.2 47.1-171.3 0z" fill="#FFFFFF" p-id="14405"></path><path d="M856.8 563.8L640.4 780.2c-26.4 26.4-69.6 26.4-96 0l-11.6-11.6c-26.4-26.4-26.4-69.6 0-96l216.4-216.4c26.4-26.4 69.6-26.4 96 0l11.6 11.6c26.4 26.5 26.4 69.6 0 96z" fill="#4AAF47" p-id="14406"></path><path d="M811.6 534.4L610.3 735.6c-8.1 8.1-21.2 8.1-29.3 0l-3.5-3.5c-8.1-8.1-8.1-21.2 0-29.3l201.2-201.2c8.1-8.1 21.2-8.1 29.3 0l3.5 3.5c8.1 8 8.1 21.2 0.1 29.3z" fill="#FFFFFF" p-id="14407"></path><path d="M835.2 661.3L651.8 477.9c-26.4-26.4-26.4-69.6 0-96l11.6-11.6c26.4-26.4 69.6-26.4 96 0l183.4 183.4c26.4 26.4 26.4 69.6 0 96l-11.6 11.6c-26.4 26.4-69.6 26.4-96 0z" fill="#4AAF47" p-id="14408"></path><path d="M868.1 619.8L694.6 446.3c-8.1-8.1-8.1-21.2 0-29.3l3.5-3.5c8.1-8.1 21.2-8.1 29.3 0L900.9 587c8.1 8.1 8.1 21.2 0 29.3l-3.5 3.5c-8.1 8-21.2 8-29.3 0z" fill="#FFFFFF" p-id="14409"></path></svg>