<?xml version="1.0" standalone="no"?><!DOCTYPE svg PUBLIC "-//W3C//DTD SVG 1.1//EN" "http://www.w3.org/Graphics/SVG/1.1/DTD/svg11.dtd"><svg t="1586923054484" class="icon" viewBox="0 0 1024 1024" version="1.1" xmlns="http://www.w3.org/2000/svg" p-id="9525" xmlns:xlink="http://www.w3.org/1999/xlink" width="200" height="200"><defs><style type="text/css"></style></defs><path d="M895.7 64H128c-35.2 0-64 28.8-64 64v767.7c0 35.2 28.8 64 64 64h767.7c35.2 0 64-28.8 64-64V128c0-35.2-28.8-64-64-64z m-0.4 795.1c0 21-17 38-38 38h-692c-21 0-38-17-38-38v-692c0-20.9 17.1-38 38-38h692c20.9 0 38 17.1 38 38v692z" fill="#4AAF47" p-id="9526"></path><path d="M734.6 703.9H289.1c-17.6 0-32-14.4-32-32s14.4-32 32-32h445.5c17.6 0 32 14.4 32 32s-14.4 32-32 32zM384.2 383.9h-97c-17.6 0-32-14.4-32-32s14.4-32 32-32h97c17.6 0 32 14.4 32 32s-14.4 32-32 32zM735 383.9h-94c-17.6 0-32-14.4-32-32s14.4-32 32-32h94c17.6 0 32 14.4 32 32s-14.4 32-32 32z" fill="#4AAF47" p-id="9527"></path></svg>