<?xml version="1.0" standalone="no"?><!DOCTYPE svg PUBLIC "-//W3C//DTD SVG 1.1//EN" "http://www.w3.org/Graphics/SVG/1.1/DTD/svg11.dtd"><svg t="1586923090531" class="icon" viewBox="0 0 1024 1024" version="1.1" xmlns="http://www.w3.org/2000/svg" p-id="9930" xmlns:xlink="http://www.w3.org/1999/xlink" width="200" height="200"><defs><style type="text/css"></style></defs><path d="M410 156.8c13.99999969-15.19999969 98.80000031-92.4 162.79999969-90s167.20000031 0 237.6 120.79999969 15.19999969 167.20000031 15.20000062 167.20000031L627.99999969 537.2l-195.99999938-91.99999969s-63.6-66.40000031-63.6-84 24.79999969-186.40000031 41.59999969-204.40000031zM335.6 334.80000031s17.59999969-132 24-171.6c-61.60000031-54.79999969-224.4 11.20000031-177.19999969 138.79999969zM365.19999969 456.8l-195.19999969 174.79999969s-87.19999969-30.79999969-98.4-94.39999969-10.00000031-154.39999969 93.6-195.19999969c85.60000031 5.20000031 167.20000031 34.8 167.20000031 34.8s32.80000031 49.60000031 32.79999938 79.99999969zM392.79999969 488.79999969S212 651.60000031 182.40000031 680s34.39999969 268.39999969 218.79999938 270.40000031 206.80000031-85.60000031 222-116.4c13.2-50.4 35.20000031-149.59999969 30.80000062-171.6s-34.39999969-63.6-46.8-81.20000062-214.39999969-92.4-214.40000062-92.4zM696.00000031 690.8s-24.40000031 117.19999969-28.40000062 156c75.19999969 53.20000031 211.99999969-17.20000031 178.8-116.4-66.79999969-22.8-150.40000031-39.6-150.39999938-39.6zM648.00000031 564.39999969c28.39999969-22.00000031 178.39999969-149.59999969 211.2-174.79999969 31.60000031 4.8 103.99999969 55.99999969 97.2 133.60000031s-48 151.60000031-98.80000031 158.4c-51.6-2.4-145.2-26.4-160.00000031-32.80000031S648.00000031 564.39999969 648.00000031 564.39999969z" fill="#4aaf47" p-id="9931"></path></svg>