<?xml version="1.0" standalone="no"?><!DOCTYPE svg PUBLIC "-//W3C//DTD SVG 1.1//EN" "http://www.w3.org/Graphics/SVG/1.1/DTD/svg11.dtd"><svg t="1609906206554" class="icon" viewBox="0 0 1024 1024" version="1.1" xmlns="http://www.w3.org/2000/svg" p-id="14731" xmlns:xlink="http://www.w3.org/1999/xlink" width="64" height="64"><defs><style type="text/css"></style></defs><path d="M0 515.2L92.8 424h837.6L1024 515.2H0z" fill="#548254" p-id="14732"></path><path d="M235.2 3.2h691.2c16.8 0 25.6 8.8 25.6 26.4V936c0 17.6-8.8 26.4-25.6 26.4H235.2c-16.8 0-25.6-8.8-25.6-26.4V29.6c0-17.6 8.8-26.4 25.6-26.4z" fill="#D1D3D3" p-id="14733"></path><path d="M106.4 80H816c17.6 0 26.4 8.8 26.4 25.6v892c0 16.8-8.8 25.6-26.4 25.6H106.4c-17.6 0-26.4-8.8-26.4-25.6V105.6c0-16.8 8.8-25.6 26.4-25.6z" fill="#EEEEEE" p-id="14734"></path><path d="M0 515.2v325.6c0 25.6 20.8 46.4 46.4 46.4h931.2c25.6 0 46.4-20.8 46.4-46.4V515.2H0z" fill="#5E9E5E" p-id="14735"></path><path d="M133.6 565.6h88l46.4 84 44.8-84H400L320 697.6l88 140.8H317.6l-52-87.2-51.2 88H125.6l89.6-142.4-81.6-131.2zM433.6 565.6h80.8v205.6H640v67.2H433.6V565.6zM660.8 747.2l76.8-4.8c1.6 12.8 4.8 23.2 9.6 29.6 8 11.2 20 16.8 35.2 16.8 12 0 20.8-2.4 26.4-8.8 5.6-5.6 8.8-12 8.8-19.2 0-6.4-3.2-13.6-8.8-18.4-5.6-5.6-20-11.2-41.6-16-35.2-8.8-60-19.2-75.2-32.8-13.6-13.6-21.6-31.2-21.6-52.8 0-14.4 4-27.2 12-40s20-22.4 35.2-29.6c16-6.4 37.6-11.2 64-11.2 33.6 0 59.2 6.4 75.2 19.2 17.6 12.8 27.2 33.6 31.2 61.6l-75.2 4c-1.6-12.8-5.6-20.8-12.8-27.2-7.2-5.6-16-8.8-26.4-8.8-9.6 0-16.8 1.6-20.8 5.6-4.8 4-7.2 9.6-7.2 15.2 0 4 1.6 8.8 5.6 12 4 3.2 12.8 6.4 26.4 10.4 35.2 8 60 16 75.2 24 14.4 8.8 26.4 18.4 33.6 30.4 7.2 12 10.4 25.6 10.4 40.8 0 17.6-4.8 33.6-13.6 48-8.8 14.4-22.4 26.4-38.4 33.6-16.8 8-37.6 12-62.4 12-44 0-74.4-9.6-92-27.2-17.6-15.2-27.2-38.4-29.6-66.4z" fill="#FFFFFF" p-id="14736"></path><path d="M481.6 300l60 88.8c16.8 24.8 28.8 40 36.8 46.4 8 6.4 18.4 10.4 30.4 10.4v7.2H489.6v-7.2c8 0 13.6-0.8 17.6-2.4 3.2-1.6 5.6-3.2 7.2-5.6s2.4-4.8 2.4-8-0.8-6.4-1.6-9.6c-0.8-2.4-4.8-8-11.2-18.4l-47.2-71.2-58.4 74.4c-6.4 8-9.6 13.6-11.2 16-1.6 2.4-1.6 5.6-1.6 8 0 4 1.6 8 5.6 11.2 4 3.2 10.4 4.8 20.8 4.8v7.2H313.6v-7.2c7.2-0.8 12.8-2.4 18.4-4 8.8-3.2 16.8-8 24-14.4 8-6.4 16.8-15.2 26.4-28L448 316.8l-54.4-80c-15.2-21.6-27.2-36-37.6-42.4-10.4-6.4-22.4-10.4-36-10.4v-8h128v7.2c-11.2 0.8-18.4 2.4-22.4 5.6-4 3.2-6.4 6.4-6.4 10.4 0 4.8 3.2 12.8 9.6 22.4l42.4 64 49.6-62.4c5.6-7.2 9.6-12.8 10.4-15.2 1.6-2.4 1.6-5.6 1.6-8.8s-0.8-5.6-2.4-7.2c-2.4-3.2-4.8-4.8-8-6.4-2.4-1.6-8.8-2.4-18.4-2.4V176h98.4v7.2c-8 0.8-14.4 1.6-19.2 4-7.2 3.2-14.4 7.2-20 12.8-6.4 5.6-15.2 15.2-26.4 29.6l-55.2 70.4z" fill="#C1C7D0" p-id="14737"></path></svg>