<?xml version="1.0" standalone="no"?><!DOCTYPE svg PUBLIC "-//W3C//DTD SVG 1.1//EN" "http://www.w3.org/Graphics/SVG/1.1/DTD/svg11.dtd"><svg t="1586772769952" class="icon" viewBox="0 0 1024 1024" version="1.1" xmlns="http://www.w3.org/2000/svg" p-id="34457" xmlns:xlink="http://www.w3.org/1999/xlink" width="200" height="200"><defs><style type="text/css"></style></defs><path d="M895.8 63H128c-35.2 0-64 28.8-64 64v767.7c0 35.2 28.8 64 64 64h767.7c35.2 0 64-28.8 64-64V127c0.1-35.2-28.7-64-63.9-64z m-0.4 795.1c0 21-17 38-38 38h-692c-21 0-38-17-38-38v-692c0-20.9 17.1-38 38-38h692c20.9 0 38 17.1 38 38v692z" fill="#F5AF3F" p-id="34458"></path><path d="M242.9 694.1h74.4V537.6h153.6v-62.3H317.3v-87.1h178v-62.3H242.9zM718.8 458.5c-21.8-24.8-47.5-37.2-77.3-37.2-32.5 0-59.4 11.8-80.6 35.3-21.3 23.5-31.9 57.9-31.9 103.1 0 44.2 10.9 78.6 32.8 103.3 21.8 24.7 48.1 37 78.7 37 15.1 0 30-3.7 44.8-11.2 14.8-7.4 27.7-18.8 38.5-34V694h65.5V325.9h-70.6v132.6zM702 623.6c-11.4 13.8-25.2 20.7-41.4 20.7-20.4 0-36.3-9.2-47.7-27.6-7.9-12.7-11.8-33.3-11.8-61.8 0-26.4 5.7-46.3 17-59.6 11.3-13.3 25.3-20 42.1-20 17.2 0 31.4 6.7 42.4 20.2s16.6 35.5 16.6 66.2c-0.2 27.5-5.9 48.1-17.2 61.9z" fill="#F5AF3F" p-id="34459"></path></svg>