<?xml version="1.0" standalone="no"?><!DOCTYPE svg PUBLIC "-//W3C//DTD SVG 1.1//EN" "http://www.w3.org/Graphics/SVG/1.1/DTD/svg11.dtd"><svg t="1584429826671" class="icon" viewBox="0 0 1024 1024" version="1.1" xmlns="http://www.w3.org/2000/svg" p-id="8391" xmlns:xlink="http://www.w3.org/1999/xlink" width="200" height="200"><defs><style type="text/css"></style></defs><path d="M838.785863 259.725572H183.085239c-19.160083 0-36.191268 17.031185-36.191268 36.191268 0 19.160083 17.031185 36.191268 36.191268 36.191268h657.829522c19.160083 0 36.191268-17.031185 36.191268-36.191268 0-19.160083-17.031185-36.191268-38.320166-36.191268z m0 217.147609H183.085239c-12.773389 0-25.546778 6.386694-31.933472 19.160083-6.386694 10.644491-6.386694 25.546778 0 36.191268s19.160083 19.160083 31.933472 19.160083h657.829522c12.773389 0 25.546778-6.386694 31.933472-19.160083 6.386694-10.644491 6.386694-25.546778 0-36.191268-8.515593-12.773389-19.160083-19.160083-34.06237-19.160083z m0 217.147609H183.085239c-19.160083 0-36.191268 17.031185-36.191268 36.191268 0 19.160083 17.031185 36.191268 36.191268 36.191268h657.829522c19.160083 0 36.191268-17.031185 36.191268-36.191268 0-19.160083-17.031185-36.191268-38.320166-36.191268z m0 0" fill="#4aaf47" p-id="8392"></path><path d="M1009.097713 108.573805C981.422037 44.706861 919.683992 4.257796 851.559252 4.257796h-85.155926c-19.160083 0-36.191268 17.031185-36.191268 36.191268 0 19.160083 17.031185 36.191268 36.191268 36.191269l83.027027-2.128898c25.546778 0 51.093555 10.644491 70.253639 29.804573 19.160083 19.160083 29.804574 42.577963 29.804573 70.253639V851.559252c0 25.546778-10.644491 51.093555-29.804573 70.253638-19.160083 19.160083-44.706861 29.804574-70.253639 29.804574H172.440748c-25.546778 0-51.093555-10.644491-70.253638-29.804574-19.160083-19.160083-29.804574-44.706861-29.804574-70.253638V174.569647c0-55.351351 44.706861-97.929314 100.058212-97.929314H255.467775c12.773389 0 25.546778-6.386694 31.933472-19.160084 6.386694-10.644491 6.386694-25.546778 0-36.191268S268.241164 2.128898 255.467775 2.128898H172.440748C125.60499 2.128898 83.027027 21.288981 51.093555 53.222453S0 129.862786 0 174.569647V851.559252c0 44.706861 19.160083 89.413721 51.093555 121.347193s76.640333 51.093555 121.347193 51.093555h676.989605c44.706861 0 89.413721-17.031185 121.347194-51.093555 31.933472-31.933472 51.093555-76.640333 51.093555-121.347193V174.569647c0-23.417879-4.257796-44.706861-12.773389-65.995842z m0 0" fill="#4aaf47" p-id="8393"></path><path d="M402.361746 76.640333h219.276508c19.160083 0 36.191268-17.031185 36.191268-36.191269 0-19.160083-17.031185-36.191268-36.191268-36.191268H402.361746c-19.160083 0-36.191268 17.031185-36.191268 36.191268 0 19.160083 14.902287 36.191268 36.191268 36.191269z m0 0" fill="#4aaf47" p-id="8394"></path></svg>