<?xml version="1.0" standalone="no"?><!DOCTYPE svg PUBLIC "-//W3C//DTD SVG 1.1//EN" "http://www.w3.org/Graphics/SVG/1.1/DTD/svg11.dtd"><svg t="1586778953204" class="icon" viewBox="0 0 1024 1024" version="1.1" xmlns="http://www.w3.org/2000/svg" p-id="34592" xmlns:xlink="http://www.w3.org/1999/xlink" width="200" height="200"><defs><style type="text/css"></style></defs><path d="M740.3 63.4l-610.8 0.1c-36.5 0-66 29.6-66 66l0.4 763.7c0 36.4 29.5 65.9 65.9 66l763.6 0.7c36.5 0 66-29.5 66.1-66l0.2-611c0-17.5-6.9-34.3-19.3-46.7L787 82.7c-12.4-12.4-29.2-19.3-46.7-19.3z m91.2 831.8l-635.6-0.5c-36.4 0-65.9-29.5-65.9-66l-0.4-634.2c0-36.5 29.5-66 66-66l510.3-0.1c17.5 0 34.3 6.9 46.6 19.3l125.9 125.7c12.4 12.4 19.4 29.2 19.4 46.7l-0.2 509.1c-0.1 36.5-29.7 66-66.1 66z" fill="#4AAF47" p-id="34593"></path><path d="M510.1 383.7H288.2c-17.6 0-31.9-14.3-31.9-31.9 0-17.6 14.3-31.9 31.9-31.9h221.9c17.6 0 31.9 14.3 31.9 31.9 0 17.7-14.3 31.9-31.9 31.9zM736.3 542.6H287.5c-17.6 0-31.9-14.3-31.9-31.9 0-17.6 14.3-31.9 31.9-31.9h448.8c17.6 0 31.9 14.3 31.9 31.9 0 17.7-14.3 31.9-31.9 31.9zM736 703.7H287.2c-17.6 0-31.9-14.3-31.9-31.9 0-17.6 14.3-31.9 31.9-31.9H736c17.6 0 31.9 14.3 31.9 31.9 0 17.7-14.3 31.9-31.9 31.9zM737.5 94.5v237.7c0 17.6-14.3 31.9-31.9 31.9-17.6 0-31.9-14.3-31.9-31.9V94.5c0-17.6 14.3-31.9 31.9-31.9 17.6 0 31.9 14.2 31.9 31.9z" fill="#4AAF47" p-id="34594"></path><path d="M927 364.7H705.2c-17.6 0-31.9-14.3-31.9-31.9 0-17.6 14.3-31.9 31.9-31.9H927c17.6 0 31.9 14.3 31.9 31.9 0 17.7-14.3 31.9-31.9 31.9z" fill="#4AAF47" p-id="34595"></path></svg>