<?xml version="1.0" standalone="no"?><!DOCTYPE svg PUBLIC "-//W3C//DTD SVG 1.1//EN" "http://www.w3.org/Graphics/SVG/1.1/DTD/svg11.dtd"><svg t="1610020145200" class="icon" viewBox="0 0 1024 1024" version="1.1" xmlns="http://www.w3.org/2000/svg" p-id="15146" xmlns:xlink="http://www.w3.org/1999/xlink" width="64" height="64"><defs><style type="text/css"></style></defs><path d="M0 515.2L92.8 424h837.6L1024 515.2H0z" fill="#6B9217" p-id="15147"></path><path d="M235.2 3.2h691.2c16.8 0 25.6 8.8 25.6 26.4V936c0 17.6-8.8 26.4-25.6 26.4H235.2c-16.8 0-25.6-8.8-25.6-26.4V29.6c0-17.6 8.8-26.4 25.6-26.4z" fill="#D1D3D3" p-id="15148"></path><path d="M106.4 80H816c17.6 0 26.4 8.8 26.4 25.6v892c0 16.8-8.8 25.6-26.4 25.6H106.4c-17.6 0-26.4-8.8-26.4-25.6V105.6c0-16.8 8.8-25.6 26.4-25.6z" fill="#EEEEEE" p-id="15149"></path><path d="M0 515.2v325.6c0 25.6 20.8 46.4 46.4 46.4h931.2c25.6 0 46.4-20.8 46.4-46.4V515.2H0z" fill="#90B344" p-id="15150"></path><path d="M219.2 584.8h76v132.8c0 28-2.4 48.8-7.2 64-4.8 14.4-15.2 27.2-29.6 36.8-15.2 10.4-34.4 15.2-57.6 15.2-24.8 0-44-3.2-57.6-10.4-13.6-6.4-24-16.8-31.2-29.6s-12-28.8-12.8-48l72-9.6c0 10.4 0.8 19.2 3.2 24 1.6 5.6 4.8 9.6 8.8 12.8 3.2 2.4 7.2 3.2 12 3.2 8.8 0 14.4-3.2 18.4-9.6 4-6.4 5.6-16.8 5.6-32V584.8zM312.8 780l67.2-6.4c2.4 8 6.4 13.6 12 16.8 4.8 3.2 12 4.8 20 4.8 8.8 0 16-1.6 20.8-5.6 4-3.2 5.6-6.4 5.6-11.2s-2.4-8.8-8-11.2c-4-1.6-13.6-4-29.6-7.2-23.2-4-40-8-48.8-11.2s-16.8-9.6-23.2-17.6c-6.4-8-9.6-17.6-9.6-28.8 0-12 3.2-21.6 10.4-30.4 6.4-8.8 16-14.4 28-19.2 12-4 28-6.4 48-6.4 20.8 0 36.8 1.6 47.2 4.8 10.4 3.2 18.4 8 25.6 15.2 6.4 6.4 12 16 16.8 27.2l-64.8 6.4c-1.6-5.6-4.8-9.6-8-12.8-5.6-3.2-12-5.6-19.2-5.6-8 0-13.6 1.6-16.8 4-3.2 2.4-5.6 6.4-5.6 9.6 0 4 2.4 8 6.4 9.6 4.8 2.4 14.4 4 28.8 6.4 22.4 2.4 39.2 6.4 50.4 10.4 11.2 4.8 19.2 11.2 25.6 19.2 5.6 8.8 8.8 17.6 8.8 28s-3.2 20-9.6 29.6-16 17.6-29.6 23.2c-13.6 5.6-31.2 8.8-54.4 8.8-32 0-55.2-4.8-68.8-13.6-12.8-6.4-21.6-19.2-25.6-36.8zM509.6 741.6c0-27.2 8.8-49.6 27.2-67.2s43.2-26.4 73.6-26.4c35.2 0 62.4 10.4 80.8 31.2 14.4 16.8 21.6 36.8 21.6 61.6 0 27.2-8.8 49.6-27.2 67.2s-43.2 26.4-75.2 26.4c-28.8 0-51.2-7.2-68.8-21.6-21.6-19.2-32-42.4-32-71.2z m68 0c0 16 3.2 27.2 9.6 35.2 6.4 7.2 14.4 11.2 24 11.2s17.6-4 24-11.2 9.6-19.2 9.6-36c0-15.2-3.2-26.4-9.6-34.4-6.4-7.2-14.4-11.2-23.2-11.2-9.6 0-18.4 4-24.8 11.2s-9.6 19.2-9.6 35.2zM730.4 652h63.2v28.8c9.6-12 19.2-20 28.8-25.6 9.6-4.8 21.6-7.2 35.2-7.2 19.2 0 33.6 5.6 44 16.8s16 28.8 16 52v112.8h-68V732c0-11.2-2.4-19.2-6.4-24s-9.6-7.2-17.6-7.2-15.2 3.2-20 9.6c-4.8 6.4-8 17.6-8 33.6v84.8h-68l0.8-176.8z" fill="#FCFCFC" p-id="15151"></path><path d="M349.6 458.4c-30.4 0-44-12-44-49.6 0-24.8 3.2-39.2 3.2-62.4 0-13.6-6.4-25.6-30.4-26.4v-27.2c23.2 0 30.4-13.6 30.4-26.4 0-23.2-3.2-37.6-3.2-62.4 0-37.6 13.6-49.6 44-49.6h20v24h-7.2c-16 0-20 6.4-20 27.2 0 19.2 1.6 36.8 1.6 59.2 0 25.6-8 36-24.8 40.8v1.6c16.8 4 24.8 14.4 24.8 40.8 0 22.4-1.6 39.2-1.6 59.2 0 20.8 4 26.4 20 26.4h7.2v24.8h-20z m204 0v-24.8h7.2c16 0 20-5.6 20-26.4 0-20-1.6-36.8-1.6-59.2 0-25.6 8-36 24.8-40.8v-1.6c-17.6-4-24.8-14.4-24.8-40.8 0-22.4 1.6-39.2 1.6-59.2 0-20.8-4.8-27.2-20-27.2h-7.2v-24h20c30.4 0 44 12 44 49.6 0 24.8-3.2 40-3.2 62.4 0 12.8 7.2 25.6 30.4 26.4V320c-23.2 0.8-30.4 14.4-30.4 26.4 0 23.2 3.2 36.8 3.2 62.4 0 37.6-13.6 49.6-44 49.6h-20z" fill="#B4BAC1" p-id="15152"></path></svg>