<?xml version="1.0" standalone="no"?><!DOCTYPE svg PUBLIC "-//W3C//DTD SVG 1.1//EN" "http://www.w3.org/Graphics/SVG/1.1/DTD/svg11.dtd"><svg t="1611646904663" class="icon" viewBox="0 0 1024 1024" version="1.1" xmlns="http://www.w3.org/2000/svg" p-id="15551" xmlns:xlink="http://www.w3.org/1999/xlink" width="200" height="200"><defs><style type="text/css"></style></defs><path d="M65.8 607.6l1-1.8 0.9-1.5 1.3-1.9c4.9-6.7 13.4-14 25-21.6 16.1-10.6 25.3-13.1 47.8-15l5.7-0.4c14.3-0.7 33.8 5.3 44.6 2.9l2-0.5c7.7-2.3 7.3-2.1 12.3-4.5l0.9-0.4 2-1c1.3-0.6 1.6-0.9 2.8-1.4 3.7-1.7 6.6-4.8 10.1-6.9 14.7-12.6 27.3-32.1 36-41.2 23.2-24.9 49.1-42.5 86.8-69.3l8-5.6c38.1-25.4 43.8-27.7 105.6-43.9l13.4-2.8c51.2-14.7 75.9-39.2 104.1-62.9 2.3-1.9 4.6-4 6.7-6.1 9.5-9.1 19.9-21.3 30.7-35.7 9.7-13.1 19-26.5 27.6-40.3l6.4-10.3 5.1-8.5-0.9 1.4c-3 4 14.4-30.4 26.6-46.8 19.4-26.1 43.2-44.5 72.3-50.9 24.1-5.2 60.8-9.2 67-10.7 6.2-1.5 12.1-3.2 18.1-5.3 7.4-2.4 16.2-4.9 21.7-7.7 0 0 23.8-10 34.9-11.4 5.9-0.8 11.9-0.8 17.9 0l4.3 0.8c20.9 4.6 33.7 17.8 39.9 36 0.6 1.8 1.1 3.6 1.6 5.4l1.2 4.8 1.3 5.7 0.6 2.3 0.2 2.4 0.2 4.2c0.1 5 0.1 12-0.3 18.7-0.9 14.8-3.4 27.9-8.2 38.8-9.1 20.6-30.6 43.1-55.5 61.7l-4.7 3.4c-23.4 16.8-36.9 34.3-40.6 59.9-4.9 31.5-12.1 62.6-21.5 92.6l-24.6 89.1c-4.1 16.2-4.5 49.9 8.9 56.4l36.7 25.6-21.4 21.6c-15.6 20.1-47 29.7-78.7 29.7l-5-0.1c-23.2-0.8-44.1-6.8-60.8-17.8l-0.5-0.4-1.3 1.7c-1.4 1.9-3 4.2-4.7 6.8l-3.7 5.8c-14.2 22.4-22.7 32.5-39.4 41.5-38.9 20.8-79.3 33.9-119.2 33.9-4.7 0-9.5-0.2-14.5-0.6l-66.8-5.8 41.7-52 4.5-5.7c5.9-7.5 11.2-14.8 16-21.7l1.7-2.4-1.6-0.2c-45.5-6.2-86.5-10.3-114-10.3l-6.3 0.1c-4.9 0.2-8.3 0-12.9 0.3l-10.8 0.9c-17.6 1.4-35.5 1-59.1 15.9l-15.8 10.1c-57.8 37.3-72.7 53.5-123.6 53.5l-9.7-0.1c-55.3-6.1-70.2-21.6-71.9-24.3-0.7-1.2-1.7-2.1-1.4-3.9 6.4-19.8 23.8-30.8 34.6-38.4l2.1-1.9-5.9-2.1c-24.4-11.1-42.5-15.6-35.5-29.9z m40.7 58.7c-5 5.3-3.7 8.3 0.9 10.1 4.6 1.8 23.8 7.7 48.5 5 40.1-4.4 32.7-9.5 81.3-41.2l20.1-13.1c34.2-22 43.9-25 85-32.3 7.6-1.3 16.6-1.9 27.5-1.9 38.4 0 96.1 6.6 158.5 16.2l27.3 5.8-13.6 25.2-6.3 9.6c-9.3 12.6-15.5 19.2-19.3 23-3.8 3.8-28.4 23.8-28.4 23.8 26.5-3.4 64.8 1.6 120.7-28.1 6-3.3 10.2-7.9 17.7-19.5l4-6.4c15.3-24.8 24.4-35.7 43.2-45.2l18.4-9.4 13.2 16.1c9.2 11.2 26.2 18.1 48.6 18.1l3.5-0.1c6.6-0.2 36.2-14.7 42.7-16.3l2.6-0.7-1.1-1.1c-12.5-14.1-33.9-21.1-35.7-42.5-1.4-17.2 0.5-34.6 2.8-43.7l23.1-92.9c7.9-25.7 15.6-48.4 20.2-74.9l2.2-13.2c5.9-42.1 33.2-61.9 65.6-86.7l4.3-3.2c20.9-15.3 34.3-33.7 39.9-46.4-3.8 10 0.2-0.4 0.2-0.4 0 0.1-0.1 0.2-0.2 0.4 0.4-1 0.8-2 1.3-3.4 5.9-15.6 7.5-40.6 5.6-55s-9.2-18.7-10.4-19.2c-1-0.7-3.6-2-6.1-2.1-4.9-0.3-8.7-0.2-20.2 5l-40.4 12.1c-14.5 2.7-20.9 5.3-34 6.6l-3.9 0.4c-26.1 3-31.7 2.6-54 13.2-18.8 8.6-31.5 14.5-44.9 32.9-6.1 8.3-14.5 23.5-19.1 32.9l-8.2 15.2-3.7 6.5-7.4 11.3-2.5 4.2c-9.8 15.9-23.8 29.5-34.8 44.6-12.8 17.5-33.3 34-45.5 45.9-3.2 3.2-6.5 6.2-9.7 8.9-40.1 34.4-64.4 51.4-137.3 66.2-29.3 6-59.1 26.5-93.1 49.6l-7.8 5.5c-36.6 26.6-65.8 51.8-87.4 75.5L257 561c-19.3 19.8-21.1 23.2-36.2 29.2l-2 0.8-0.2 0.1c-1.5 0.7-2.1 1-3.8 1.8-7.8 2.2-9.3 2-20.1 3.3-17.4 1.8-29-5.6-48.2-4.6l-4.9 0.4c-12.7 1.2-31.1 10-40.1 15.3 0 0-3.6 2.1 0.6 4.3 2 1 45.4 19.7 45.4 19.7s-36 29.7-41 35z" fill="#4A5B68" p-id="15552"></path><path d="M768.4 210.1c9.5-5.9 20.7-8.4 31.8-7.1 0 0 9.4 20.8-12.4 39-21.9 18.2-36.8 9.8-35.3-2.6 1.5-12.5 7.4-23.3 15.9-29.3z" fill="#4A5B68" p-id="15553"></path><path d="M254.5 847.9c-1.6-25.3-3.6-56.3-3.4-74.8h-0.7c-6.1 18.3-13 37.9-22.7 63l-35.4 91.8H184l-33.2-89.7c-9.6-26.3-16.8-46.5-21.8-65.1h-0.6c-0.4 19.8-1.6 49.2-3.6 77.2l-5.3 77.6h-11.7l12.3-168.8h13.6l36.3 97.3c8 21.5 13.9 38.4 18.7 54.7h0.6c4.3-15.6 10.3-31.9 19-54.5l37.6-97.5h14.3l11.3 168.8h-11.8l-5.2-80zM372.3 927.9l-1.8-17.2h-0.5c-5.8 9.3-19.2 20-38.3 20-24.2 0-35.4-17-35.4-33.1 0-27.7 24.4-44.4 73.3-43.9v-3.2c0-11.9-2.3-35.6-30.7-35.4-10.5 0-21.5 2.8-30.2 9l-3.8-8.6c11-7.4 24.4-10.4 35.2-10.4 34.7 0 41.3 26 41.3 47.5v46.9c0 9.5 0.4 19.3 1.8 28.5h-10.9z m-2.6-64.2c-26.2-0.8-60.7 3.2-60.7 32.1 0 17.3 11.4 25 23.9 25 20 0 31.4-12.4 35.6-24.1 0.9-2.6 1.3-5.1 1.3-7.2v-25.8zM420.4 843.8c0-12-0.4-24.4-1-36.1h11l0.5 24.4h0.7c5.3-15.2 17.7-27.2 34.1-27.2 1.7 0 3.4 0.2 4.9 0.6v11.4c-1.8-0.4-3.5-0.4-5.8-0.4-16.5 0-28.3 14.3-31.6 33.6-0.6 3.5-1 7.5-1 11.4v66.4h-11.9v-84.1zM509.9 773.4c0 5.6-3.7 10.4-10 10.4-5.4 0-9.3-4.8-9.3-10.4 0-5.5 4.2-10.4 9.7-10.4 5.7 0 9.6 4.7 9.6 10.4z m-15.6 154.5V807.7h11.9v120.2h-11.9zM612.2 927.9l-1.8-17.2h-0.6c-5.8 9.3-19.2 20-38.3 20-24.2 0-35.4-17-35.4-33.1 0-27.7 24.4-44.4 73.3-43.9v-3.2c0-11.9-2.3-35.6-30.7-35.4-10.5 0-21.5 2.8-30.2 9l-3.8-8.6c11-7.4 24.4-10.4 35.2-10.4 34.7 0 41.3 26 41.3 47.5v46.9c0 9.5 0.4 19.3 1.8 28.5h-10.8z m-2.7-64.2c-26.2-0.8-60.7 3.2-60.7 32.1 0 17.3 11.4 25 23.9 25 20 0 31.4-12.4 35.6-24.1 0.9-2.6 1.3-5.1 1.3-7.2v-25.8zM660.5 761.5c13-2.1 27.3-3.6 43.3-3.6 30.7 0 54 8.3 67.9 23.1 13.6 14 21 32.9 21 58.5 0 24.8-6.8 47.2-22 64-14.8 16.3-40.3 25.9-72.8 25.9-13 0-25.2-0.3-37.4-1.5V761.5z m11.9 156.4c6.9 1.1 16.7 1.3 27.2 1.3 54.2 0 80.9-30.3 80.9-79.2 0.4-42.8-23.4-72.1-77.5-72.1-13.1 0-23.3 1.3-30.6 2.7v147.3zM822.5 761.5c9.4-2.2 21.3-3.6 34-3.6 21 0 34.8 4.6 44.1 14 6.8 6.8 10.4 16 10.4 27.8 0 17.2-12.2 31.8-29 37.6v0.7c14.1 3.1 35.6 15.5 35.6 42.9 0 13.8-4.9 24.4-12.5 32.2-11.1 11.5-29.3 16.2-53.3 16.2-12.8 0-22.7-0.9-29.3-1.5V761.5z m11.9 71.9H859c24.4 0 39.8-14.5 39.8-33.2 0-23.7-18-32.4-43-32.4-11.2 0-17.6 0.9-21.4 1.8v63.8z m0 84.4c4.9 1.1 11.9 1.4 20.7 1.4 25.9 0 50.1-9.3 50.1-38 0-26.7-22.8-38.1-49.5-38.1h-21.3v74.7z" fill="#4A5B68" p-id="15554"></path></svg>