<?xml version="1.0" standalone="no"?><!DOCTYPE svg PUBLIC "-//W3C//DTD SVG 1.1//EN" "http://www.w3.org/Graphics/SVG/1.1/DTD/svg11.dtd"><svg t="1602846719347" class="icon" viewBox="0 0 1024 1024" version="1.1" xmlns="http://www.w3.org/2000/svg" p-id="13031" xmlns:xlink="http://www.w3.org/1999/xlink" width="18" height="18"><defs><style type="text/css"></style></defs><path d="M530.8 960.2l-23.9-8.2s2.9-121.6-40.7-130.3c-29.1-33.7 4.7-1431.3 109.4-4.7 0 0-36.1 18-42.5 48.9-7 30.3-2.3 94.3-2.3 94.3z" fill="#FFFFFF" p-id="13032"></path><path d="M543.6 842.7s208.9-137.3 160-423c-47.1-207.7-158.3-275.8-170.5-302-13.4-18.6-26.2-51.2-26.2-51.2l8.7 577.7c0 0.7-18 177 28 198.5" fill="#FFFFFF" p-id="13033"></path><path d="M494.7 850.3S298.6 716.5 310.3 480.9c11.1-235.6 149.5-351.4 176.3-372.4 17.5-18.6 18-25.6 19.2-44.2 12.2 26.2 9.9 391.6 11.6 434.6 5.2 165.8-9.3 319.9-22.7 351.4z" fill="#FFFFFF" p-id="13034"></path><path d="M540.2 962.3l-31.7-8.2s3.9-121.6-54.2-130.3c-38.7-33.7 6.2-1431.3 145.6-4.7 0 0-48 18-56.5 48.9-9.4 30.3-3.2 94.3-3.2 94.3z" fill="#A6A385" p-id="13035"></path><path d="M557.2 844.8s278-137.3 212.9-423c-62.7-207.7-210.6-275.8-226.9-302-17.8-18.6-34.8-51.2-34.8-51.2L520 646.3c0.1 0.7-23.9 177 37.2 198.5" fill="#499D4A" p-id="13036"></path><path d="M492.2 852.4S231.2 718.6 246.7 483c14.7-235.6 199-351.4 234.6-372.4 23.2-18.6 24-25.6 25.6-44.2C523.2 92.6 520.1 458 522.4 501c7 165.7-12.4 319.9-30.2 351.4z" fill="#58AA50" p-id="13037"></path></svg>