<?xml version="1.0" standalone="no"?><!DOCTYPE svg PUBLIC "-//W3C//DTD SVG 1.1//EN" "http://www.w3.org/Graphics/SVG/1.1/DTD/svg11.dtd"><svg t="1591589038456" class="icon" viewBox="0 0 1024 1024" version="1.1" xmlns="http://www.w3.org/2000/svg" p-id="11252" xmlns:xlink="http://www.w3.org/1999/xlink" width="200" height="200"><defs><style type="text/css"></style></defs><path d="M512.3 64C264.5 64 63.5 264.1 63.5 510.9c0 246.8 201 446.9 448.8 446.9 247.9 0 448.8-200.1 448.8-446.9C961.2 264.1 760.2 64 512.3 64z m-65.2 640h-50.3c-101.5 0-184.1-86-184.1-191.6s82.6-191.6 184.1-191.6h50.1c24.2 0 43.9 20.4 43.9 45.6 0 25.2-19.6 45.6-43.9 45.6h-50.1c-53.1 0-96.4 45-96.4 100.4 0 55.3 43.3 100.4 96.4 100.4h50.3c24.2 0 43.9 20.4 43.9 45.6-0.1 25.2-19.7 45.6-43.9 45.6z m181.6-0.7h-50c-24.2 0-43.8-20.4-43.8-45.6 0-25.2 19.6-45.6 43.8-45.6h50c53.1 0 96.3-45 96.3-100.3 0-55.2-43.3-100.3-96.3-100.3h-50c-24.2 0-43.8-20.4-43.8-45.6 0-25.2 19.6-45.6 43.8-45.6h50c101.4 0 183.9 85.9 183.9 191.5 0.2 105.6-82.5 191.5-183.9 191.5z" fill="#4aaf47" p-id="11253"></path></svg>