<?xml version="1.0" standalone="no"?><!DOCTYPE svg PUBLIC "-//W3C//DTD SVG 1.1//EN" "http://www.w3.org/Graphics/SVG/1.1/DTD/svg11.dtd"><svg t="1590503449927" class="icon" viewBox="0 0 1024 1024" version="1.1" xmlns="http://www.w3.org/2000/svg" p-id="52772" xmlns:xlink="http://www.w3.org/1999/xlink" width="200" height="200"><defs><style type="text/css"></style></defs><path d="M195.35811 828.445872a447.8 447.8 0 1 0 633.27378-633.295886 447.8 447.8 0 1 0-633.27378 633.295886Z" fill="#4AAF47" p-id="52773"></path><path d="M518.4 506.9c-6.2-6.2-6.2-16.3 0-22.5l65.4-65.4c6.2-6.2 16.3-6.2 22.5 0 6.2 6.2 6.2 16.3 0 22.5l-65.4 65.4c-6.2 6.1-16.3 6.1-22.5 0z" fill="#FFFFFF" p-id="52774"></path><path d="M374 255.6h-92.8c-13.2 0-24.1 10.8-24.1 24v92.6c0 13.2 10.8 24 24.1 24H374c13.2 0 24.1-10.8 24.1-24v-92.6c-0.1-13.2-10.9-24-24.1-24z m-7.1 96c0 7.4-6.1 13.5-13.5 13.5h-51.5c-7.4 0-13.5-6.1-13.5-13.5v-51.4c0-7.4 6.1-13.5 13.5-13.5h51.5c7.4 0 13.5 6.1 13.5 13.5v51.4zM592.8 315h46.4c8.6 0 15.7 7.1 15.7 15.7s-7.1 15.7-15.7 15.7h-46.4c-8.6 0-15.7-7.1-15.7-15.7s7.1-15.7 15.7-15.7z" fill="#FFFFFF" p-id="52775"></path><path d="M384.7 315h48.8c8.6 0 15.7 7.1 15.7 15.7s-7.1 15.7-15.7 15.7h-48.8c-8.6 0-15.7-7.1-15.7-15.7s7.1-15.7 15.7-15.7z m112.7 0h33.1c8.6 0 15.7 7.1 15.7 15.7s-7.1 15.7-15.7 15.7h-33.1c-8.6 0-15.7-7.1-15.7-15.7s7-15.7 15.7-15.7z m17.5 99.4c-53 0-95.9 42.9-95.9 95.9s42.9 95.9 95.9 95.9 95.9-42.9 95.9-95.9-42.9-95.9-95.9-95.9z m-2 157.8c-35.3 0-63.9-28.6-63.9-63.9s28.6-63.9 63.9-63.9 63.9 28.6 63.9 63.9c0.1 35.3-28.6 63.9-63.9 63.9z m232.2-316.6h-92.8c-13.2 0-24.1 10.8-24.1 24v92.6c0 13.2 10.8 24 24.1 24h92.8c13.2 0 24.1-10.8 24.1-24v-92.6c0-13.2-10.8-24-24.1-24z m-7.1 96c0 7.4-6.1 13.5-13.5 13.5H673c-7.4 0-13.5-6.1-13.5-13.5v-51.4c0-7.4 6.1-13.5 13.5-13.5h51.5c7.4 0 13.5 6.1 13.5 13.5v51.4zM373.7 627.2h-92.8c-13.2 0-24.1 10.8-24.1 24v92.6c0 13.2 10.8 24 24.1 24h92.8c13.2 0 24.1-10.8 24.1-24v-92.6c0-13.2-10.8-24-24.1-24z m-7.1 96c0 7.4-6.1 13.5-13.5 13.5h-51.5c-7.4 0-13.5-6.1-13.5-13.5v-51.4c0-7.4 6.1-13.5 13.5-13.5h51.5c7.4 0 13.5 6.1 13.5 13.5v51.4z m226-36.6H639c8.6 0 15.7 7.1 15.7 15.7S647.6 718 639 718h-46.4c-8.6 0-15.7-7.1-15.7-15.7s7-15.7 15.7-15.7z" fill="#FFFFFF" p-id="52776"></path><path d="M384.5 686.6h48.8c8.6 0 15.7 7.1 15.7 15.7s-7.1 15.7-15.7 15.7h-48.8c-8.6 0-15.7-7.1-15.7-15.7-0.1-8.6 7-15.7 15.7-15.7z m112.6 0h33.1c8.6 0 15.7 7.1 15.7 15.7s-7.1 15.7-15.7 15.7h-33.1c-8.6 0-15.7-7.1-15.7-15.7s7.1-15.7 15.7-15.7z m247.8-59.4h-92.8c-13.2 0-24.1 10.8-24.1 24v92.6c0 13.2 10.8 24 24.1 24h92.8c13.2 0 24.1-10.8 24.1-24v-92.6c-0.1-13.2-10.9-24-24.1-24z m-7.2 96c0 7.4-6.1 13.5-13.5 13.5h-51.5c-7.4 0-13.5-6.1-13.5-13.5v-51.4c0-7.4 6.1-13.5 13.5-13.5h51.5c7.4 0 13.5 6.1 13.5 13.5v51.4zM343.1 592.6V639c0 8.6-7.1 15.7-15.7 15.7s-15.7-7.1-15.7-15.7v-46.4c0-8.6 7.1-15.7 15.7-15.7s15.7 7.1 15.7 15.7z m0-208.1v48.8c0 8.6-7.1 15.7-15.7 15.7s-15.7-7.1-15.7-15.7v-48.8c0-8.6 7.1-15.7 15.7-15.7s15.7 7.1 15.7 15.7z m0 112.7v33.1c0 8.6-7.1 15.7-15.7 15.7s-15.7-7.1-15.7-15.7v-33.1c0-8.6 7.1-15.7 15.7-15.7s15.7 7 15.7 15.7z" fill="#FFFFFF" p-id="52777"></path><path d="M714.2 592.6V639c0 8.6-7.1 15.7-15.7 15.7s-15.7-7.1-15.7-15.7v-46.4c0-8.6 7.1-15.7 15.7-15.7s15.7 7.1 15.7 15.7z m0-208.1v48.8c0 8.6-7.1 15.7-15.7 15.7s-15.7-7.1-15.7-15.7v-48.8c0-8.6 7.1-15.7 15.7-15.7s15.7 7.1 15.7 15.7z m0 112.7v33.1c0 8.6-7.1 15.7-15.7 15.7s-15.7-7.1-15.7-15.7v-33.1c0-8.6 7.1-15.7 15.7-15.7s15.7 7 15.7 15.7z" fill="#FFFFFF" p-id="52778"></path></svg>