<?xml version="1.0" encoding="utf-8"?>
<!-- Generator: Adobe Illustrator 22.0.0, SVG Export Plug-In . SVG Version: 6.00 Build 0)  -->
<svg version="1.1" id="图层_1" xmlns="http://www.w3.org/2000/svg" xmlns:xlink="http://www.w3.org/1999/xlink" x="0px" y="0px"
	 viewBox="0 0 1024 1024" style="enable-background:new 0 0 1024 1024;" xml:space="preserve">
<style type="text/css">
	.st0{fill:#4AAF47;}
	.st1{fill:#FFFFFF;}
</style>
<path class="st0" d="M513.6,63.3c-247.3,0-447.8,200.5-447.8,447.8C65.7,758.5,266.2,959,513.6,959c247.3,0,447.8-200.5,447.8-447.8
	C961.4,263.8,760.9,63.3,513.6,63.3L513.6,63.3z"/>
<g>
	<path class="st1" d="M327.3,529.8l58.9,21.3c-4,19.7-10.2,36.2-18.7,49.5c-8.5,13.2-19.1,23.2-31.7,30s-28.6,10.1-48.1,10.1
		c-23.6,0-42.9-4.1-57.9-12.3s-27.9-22.7-38.8-43.3c-10.9-20.7-16.3-47.1-16.3-79.4c0-43,9.6-76.1,28.7-99.2s46.2-34.6,81.2-34.6
		c27.4,0,48.9,6.6,64.6,19.9c15.7,13.2,27.3,33.6,34.9,61l-59.3,15.8c-2.1-7.9-4.3-13.7-6.5-17.4c-3.8-6.1-8.4-10.9-13.8-14.2
		c-5.4-3.3-11.5-5-18.2-5c-15.2,0-26.9,7.3-35,22c-6.1,10.9-9.2,27.9-9.2,51.2c0,28.8,3.7,48.6,11,59.2c7.3,10.7,17.6,16,30.8,16
		c12.9,0,22.6-4.3,29.1-12.9C319.5,558.7,324.3,546.2,327.3,529.8z"/>
	<path class="st1" d="M407,550.2l63.9-4.8c1.4,12.4,4.2,21.9,8.5,28.4c6.9,10.5,16.8,15.8,29.7,15.8c9.6,0,17-2.7,22.2-8.1
		c5.2-5.4,7.8-11.6,7.8-18.7c0-6.7-2.5-12.8-7.4-18.1s-16.4-10.3-34.4-15.1c-29.5-7.9-50.5-18.4-63-31.6c-12.7-13.1-19-29.9-19-50.2
		c0-13.4,3.2-26,9.7-37.9s16.2-21.2,29.2-28s30.8-10.2,53.5-10.2c27.8,0,49,6.2,63.5,18.5c14.6,12.4,23.3,32,26,59l-63.3,4.4
		c-1.7-11.7-5.2-20.2-10.6-25.5c-5.4-5.3-12.8-8-22.3-8c-7.8,0-13.7,2-17.6,5.9c-4,4-5.9,8.8-5.9,14.5c0,4.1,1.6,7.9,4.9,11.2
		c3.2,3.4,10.7,6.6,22.5,9.6c29.4,7.6,50.4,15.2,63.1,23c12.7,7.7,21.9,17.4,27.7,28.8c5.8,11.5,8.7,24.3,8.7,38.5
		c0,16.7-3.9,32-11.6,46.1c-7.7,14.1-18.5,24.7-32.3,32s-31.3,10.9-52.4,10.9c-37,0-62.6-8.5-76.8-25.5
		C417,598,408.9,576.4,407,550.2z"/>
	<path class="st1" d="M616.7,376.2h70.2l49,187.1l48.3-187.1h68.2l-80.7,260h-72.8L616.7,376.2z"/>
</g>
</svg>
