<?xml version="1.0" encoding="utf-8"?>
<!-- Generator: Adobe Illustrator 22.0.0, SVG Export Plug-In . SVG Version: 6.00 Build 0)  -->
<svg version="1.1" id="图层_1" xmlns="http://www.w3.org/2000/svg" xmlns:xlink="http://www.w3.org/1999/xlink" x="0px" y="0px"
	 viewBox="0 0 1024 1024" style="enable-background:new 0 0 1024 1024;" xml:space="preserve">
<style type="text/css">
	.st0{fill:#FFFFFF;stroke:#AAAAAA;stroke-width:5;stroke-miterlimit:10;}
	.st1{display:none;}
	.st2{display:inline;}
	.st3{fill:#C9493F;}
	.st4{display:inline;fill:#C9493F;}
	.st5{fill:#8492A6;}
	.st6{fill:#2BC1E8;}
</style>
<circle class="st0" cx="512" cy="510.5" r="447.5"/>
<g class="st1">
	<g class="st2">
		<path class="st3" d="M210.6,504.7c0-17.6,4.5-31.2,13.3-40.9c8.8-9.7,21.2-14.7,37-14.7c16.2,0,28.7,4.8,37.5,14.4
			c8.8,9.6,13.2,23.1,13.2,40.3c0,12.6-1.9,22.8-5.7,30.9c-3.8,8-9.4,14.3-16.6,18.7c-7.2,4.5-16.3,6.7-27.1,6.7
			c-11,0-20.1-1.9-27.3-5.8c-7.2-3.9-13-10-17.5-18.3C212.8,527.7,210.6,517.2,210.6,504.7z M240.7,504.9c0,10.9,1.8,18.6,5.5,23.4
			c3.6,4.8,8.6,7.1,14.9,7.1c6.5,0,11.5-2.3,15-7c3.6-4.6,5.3-12.9,5.3-25c0-10.1-1.8-17.5-5.5-22.2s-8.7-7-15-7
			c-6.1,0-10.9,2.4-14.6,7.1C242.5,486.1,240.7,493.9,240.7,504.9z"/>
		<path class="st3" d="M328.1,558.3V450.9h50.1c9.3,0,16.4,0.9,21.3,2.6c4.9,1.8,8.9,5,11.9,9.7c3,4.8,4.5,10.6,4.5,17.4
			c0,6-1.1,11.1-3.4,15.4c-2.3,4.3-5.5,7.8-9.5,10.5c-2.6,1.7-6.1,3.1-10.6,4.2c3.6,1.3,6.2,2.6,7.8,3.9c1.1,0.9,2.7,2.8,4.8,5.7
			c2.1,2.9,3.5,5.1,4.2,6.7l14.6,31.1h-33.9l-16.1-32.8c-2-4.2-3.8-7-5.5-8.3c-2.2-1.6-4.7-2.5-7.4-2.5h-2.6v43.6H328.1z
			 M358.4,494.5h12.7c1.3,0,4-0.5,8-1.5c2-0.4,3.6-1.6,4.9-3.3c1.3-1.8,1.9-3.9,1.9-6.2c0-3.5-1-6.1-3-8c-2-1.9-5.7-2.8-11.2-2.8
			h-13.2L358.4,494.5L358.4,494.5z"/>
		<path class="st3" d="M493.5,540.6h-34.1l-4.7,17.7h-30.7l36.6-107.4h32.8l36.6,107.4h-31.5L493.5,540.6z M487.2,517.4l-10.7-38.6
			l-10.7,38.6H487.2z"/>
		<path class="st3" d="M601.8,514.4l26.4,8.8c-1.8,8.2-4.6,15-8.4,20.5c-3.8,5.5-8.6,9.6-14.2,12.4c-5.7,2.8-12.8,4.2-21.5,4.2
			c-10.6,0-19.2-1.7-25.9-5.1c-6.7-3.4-12.5-9.4-17.3-17.9c-4.9-8.6-7.3-19.5-7.3-32.8c0-17.8,4.3-31.4,12.9-40.9
			c8.6-9.5,20.7-14.3,36.4-14.3c12.3,0,21.9,2.8,28.9,8.2c7,5.5,12.2,13.8,15.7,25.2l-26.6,6.5c-0.9-3.3-1.9-5.7-2.9-7.1
			c-1.7-2.5-3.7-4.5-6.2-5.9c-2.4-1.3-5.1-2.1-8.2-2.1c-6.8,0-12.1,3.1-15.7,9.1c-2.8,4.5-4.1,11.5-4.1,21.1
			c0,11.9,1.6,20.1,4.9,24.5c3.3,4.4,7.9,6.6,13.8,6.6c5.7,0,10.1-1.8,13-5.4C598.3,526.4,600.4,521.2,601.8,514.4z"/>
		<path class="st3" d="M642.8,450.9h30.1v80.9h47v26.4h-77.1V450.9z"/>
		<path class="st3" d="M733.4,450.9h80.6v22.9h-50.5v17h46.8v21.9h-46.8V534h52v24.3h-82.1V450.9z"/>
	</g>
	<path class="st4" d="M288.9,412.5c23.2-44.5,62.8-73.7,107.6-73.7h236.4c44.7,0,84.1,29.2,107.2,73.7h70.4
		C780.3,325.9,708.2,265,624.1,265l0,0H401.7c-84.1-0.1-156.2,60.9-186.4,147.5H288.9z"/>
	<path class="st4" d="M748.6,593.3c-6.2,16.3-14.5,31.2-24.6,44.3l0.1,0.1c-24.2,31-57,48.4-91.1,48.4H396.5
		c-51,0.1-95.1-37.8-116.2-92.8h-69.8C237.2,687.9,312.8,756,401.7,756l0,0h222.4c89,0.1,164.5-68.1,191.2-162.7H748.6z"/>
</g>
<g>
	<g>
		<path class="st5" d="M231.7,294"/>
		<path class="st6" d="M339.2,242.6c2,0.6,2.2,1.1,2.2,8.7s-0.1,8.1-2.2,8.7c-3.7,0.9-103.6,0.7-105.1-0.4c-0.9-0.6-1.5-3.1-1.8-7.9
			c-0.4-5.9-0.2-7.3,1.3-8.4c1.3-0.9,11.9-1.3,52.4-1.3C314.2,242,338,242.3,339.2,242.6z"/>
		<path class="st6" d="M488.9,245.1c8.1,3.2,13.9,6.5,18.3,10.5c2.6,2.4,3,3.2,1.8,4c-0.8,0.5-32.9,0.9-76.1,0.9
			c-66.7,0-74.9-0.2-76.2-1.5c-2.4-2.2-2.2-14.6,0.2-16c1.1-0.7,21.6-0.9,63.5-0.7l61.9,0.3C482.2,242.6,488.9,245.1,488.9,245.1z"
			/>
		<path class="st6" d="M629.9,243.9c1.1,1.1,2,2.8,2,3.6c0,0.9,0.8,3.9,1.7,6.4c1.5,4.1,1.5,4.8,0.3,5.5c-2,1.3-86.8,1.3-88.7,0
			c-1.8-1.1-2.6-14-0.9-16.1c1.1-1.3,7.1-1.5,42.5-1.5C626.7,242,628.1,242,629.9,243.9z"/>
		<path class="st6" d="M789.9,242.9c1.5,0.9,1.8,2.2,1.8,7.1c0,3.9-0.6,6.8-1.5,8.3l-1.5,2.2h-44.3c-38.8,0-44.3-0.2-44.9-1.5
			c-0.9-2.2,3.4-15,5.4-16.1C707.1,241.7,787.4,241.7,789.9,242.9z"/>
		<path class="st6" d="M340.9,283.9v8.3l-53.2,0.3c-60,0.3-55.6,0.9-55.6-7.7c0-2.6,0.4-5.7,0.9-7.1l0.9-2.6l53.3,0.2l53.4,0.3
			C340.9,275.6,340.9,283.9,340.9,283.9z"/>
		<path class="st6" d="M524.1,277c2,2.2,5,12.2,4.2,14.2c-0.6,1.3-9.8,1.5-86,1.5H357l-0.9-2.4c-1.1-2.9-1.1-10,0.1-13.1l0.9-2.2
			h82.7C519.3,275.1,522.5,275.2,524.1,277z"/>
		<path class="st6" d="M640.8,277.3c1.8,3.4,4.8,13.7,4.2,14.6c-0.3,0.4-23,0.8-50.6,0.8c-56.5,0-51.2,0.9-51.2-8.4
			c0-10-4.6-9.2,49.3-9.2h47.2L640.8,277.3z"/>
		<path class="st6" d="M790.7,277.6c1.3,3.2,1.3,10.7,0,13.1c-0.9,1.8-2.6,1.8-51.9,1.8h-50.7l0.5-2.2c2.2-8.5,2.8-10.8,4.2-12.9
			l1.5-2.4h95.3C789.8,275.1,790.7,277.6,790.7,277.6z"/>
		<path class="st6" d="M309.7,310.5c0.3,1.1,0.5,5.1,0.3,8.5l-0.3,6.3h-45.8l-0.3-7.2c-0.2-4-0.1-7.8,0.2-8.6
			c0.4-0.9,5.1-1.3,22.9-1.3h22.5C309.2,308.3,309.7,310.5,309.7,310.5z"/>
		<path class="st6" d="M432.8,317.2l0.3,8.6h-22.3c-16,0-22.5-0.3-23.4-1.1c-1.5-1.5-1.5-11.9-0.2-14.6c0.9-1.8,2-1.8,23.2-1.7
			l22.1,0.3C432.5,308.8,432.8,317.2,432.8,317.2z"/>
		<path class="st6" d="M529,316.4c0,5.7-0.4,7.8-1.5,8.5c-2.2,1.5-45.1,1.3-46.6-0.2s-1.5-11.9-0.2-14.6c0.9-1.8,2.2-1.8,24.7-1.7
			l23.6,0.3L529,316.4L529,316.4z"/>
		<path class="st6" d="M651.3,310.2c1.7,3.4,3.2,8.6,3.6,11.9l0.5,3.7H615c-45.7,0-41.6,0.8-41.6-8.4c0-10-3.3-9.2,39.7-9
			C645.3,308.8,650.8,309,651.3,310.2z"/>
		<path class="st6" d="M760.1,317v8.3l-40.6,0.3c-32.7,0.2-40.8,0-41.2-1.1c-0.5-1.3,2.9-12.7,4.5-15.1c0.7-0.9,9.1-1.1,39-0.9
			l38.2,0.3C760.1,308.8,760.1,317,760.1,317z"/>
		<path class="st6" d="M309,341.9c1.8,0.6,1.7,14.6-0.2,16c-0.9,0.8-7.9,1.1-23.1,0.9l-21.8-0.3l-0.3-8.2c-0.2-4.5,0.1-8.5,0.7-8.8
			C265.3,340.8,307,341.2,309,341.9z"/>
		<path class="st6" d="M519.8,342.5c0,2-9.6,14.1-12.2,15.3c-1.8,0.9-18.1,1.1-60.4,1.1c-51.3,0-58-0.2-59.4-1.5
			c-1.1-1.1-1.5-3.3-1.5-7.5c0-6.7,0.6-8.1,3.3-8.6c1.1-0.2,30.8-0.3,66.1-0.1C502,341.4,519.8,341.7,519.8,342.5z"/>
		<path class="st6" d="M660.8,341.9c1.1,0.8,2.4,2.9,2.8,4.6c1.1,5.7,1.5,6.5,3.4,6.5c1.9,0,2.2-0.8,3.4-6.5c0.3-1.7,1.1-3.6,2-4.2
			c1.3-1.1,85.5-1.5,87.3-0.5c1.1,0.7,1.3,13.1,0.4,15.5c-0.5,1.3-3.3,1.5-21.6,1.5c-18.1,0-21.2-0.2-22.8-1.7
			c-0.9-0.9-1.8-2.2-1.8-2.9c0-2.2-1.7-1.3-2.9,1.7l-1.1,2.9h-41.4c-26.6,0-42-0.4-43.3-0.9c-1.1-0.6-1.8-2-1.8-3.4
			c0-1.3-0.5-2.6-0.9-2.9c-0.9-0.6-1.3,0.1-2.4,4.6l-0.6,2.8H598c-25.1,0-24.5,0.2-24.5-9.1c0-3.3,0.4-6.6,0.8-7.2
			c0.6-0.9,10.5-1.3,42.2-1.5c22.7-0.1,41.5-0.3,41.8-0.5C658.5,340.6,659.6,341.1,660.8,341.9z"/>
		<path class="st6" d="M310,382.5c0.2,5.5-0.1,7.7-1.1,8.6c-0.9,0.8-7.6,1.1-23.2,0.9l-21.8-0.3l-0.3-8.6l-0.3-8.5l23.2,0.2
			l23.2,0.3L310,382.5z"/>
		<path class="st6" d="M509.5,376.3c3.7,3.1,11.4,13.7,10.7,14.7c-0.4,0.8-21,1.1-66.3,1.1c-63.9,0-65.8-0.1-66.8-1.8
			c-1.1-2.2-1.3-14-0.3-15c0.3-0.4,27.6-0.7,60.6-0.7C502.8,374.6,507.8,374.8,509.5,376.3z"/>
		<path class="st6" d="M619.7,383.3v8.3l-22,0.3c-19.8,0.2-22,0.1-23.1-1.5c-1.3-1.8-1.8-14.1-0.6-15.3c0.4-0.3,10.7-0.5,23.1-0.4
			l22.5,0.3C619.7,375.1,619.7,383.3,619.7,383.3z"/>
		<path class="st6" d="M704.5,375.5c0.8,1.3-4,14.7-5.5,15.7c-0.7,0.5-15.2,0.9-32.3,0.9h-30.9l-1.8-4.2c-2.2-4.6-4-10.5-4-12.2
			C629.9,374.2,703.6,374,704.5,375.5z"/>
		<path class="st6" d="M760.4,383l-0.3,8.6l-20.5,0.3c-11.2,0.1-21.4,0-22.6-0.3c-2-0.5-2.2-1.1-2.2-8.2c0-4.2,0.3-7.9,0.7-8.2
			c0.3-0.4,10.6-0.7,22.9-0.7h22.3C760.6,374.6,760.4,383,760.4,383z"/>
		<path class="st6" d="M309.1,408.1c0.7,0.9,1.1,4.1,0.9,8.6l-0.3,7.1l-22.2,0.5c-12.2,0.3-22.6,0.3-23.1,0.2
			c-1.1-0.4-1.3-16.1-0.3-17c0.3-0.4,10.3-0.7,22.2-0.7C303.7,406.7,308.3,407,309.1,408.1z"/>
		<path class="st6" d="M432.4,407.3c1.3,0.5,1.5,2.2,1.5,8.2c0,4.3-0.5,8-0.9,8.3c-0.6,0.4-10.9,0.6-23.1,0.5
			c-16.3,0-22.3-0.4-22.9-1.3c-0.4-0.7-0.8-3.9-0.8-7.2c0-9.2-0.6-9.1,23.9-9.1C421.5,406.7,431.6,407,432.4,407.3z"/>
		<path class="st6" d="M527.8,407.9c0.9,0.8,2,4.2,2.8,8.1c0.9,6.1,0.9,6.9-0.6,8c-2.2,1.5-44.3,1.8-47.3,0.3
			c-1.5-0.9-1.8-2.2-1.8-7.8c0-10-0.9-9.8,24.3-9.8C520.6,406.7,526.6,407,527.8,407.9z"/>
		<path class="st6" d="M619.7,415.5v8.3h-45.8l-0.3-6.5c-0.5-11.1-1.8-10.6,24-10.3l22.1,0.3L619.7,415.5L619.7,415.5z"/>
		<path class="st6" d="M693.2,407.6c2.2,1.3-2.6,15.6-5.7,16.8c-3.1,1.3-41.2,0.1-42.7-1.3c-0.7-0.6-1.3-1.7-1.3-2.4
			c0-0.9-0.8-3.6-1.7-6.1c-2.8-8.2-3.8-7.9,24.7-7.9C680.5,406.7,692.4,407.1,693.2,407.6z"/>
		<path class="st6" d="M760.4,415.7c0.2,5.5-0.1,8.6-0.8,8.6h-42.9c-1.8,0-2-0.7-2-8.2c0-5.7,0.4-8.4,1.3-8.7
			c0.6-0.3,10.8-0.5,22.6-0.4l21.4,0.2C760.1,407.2,760.4,415.7,760.4,415.7z"/>
		<path class="st6" d="M339.7,440.3c1.3,0.3,1.7,1.5,1.7,8.2c0,6.3-0.3,7.9-1.5,8.4c-0.9,0.3-24.7,0.6-53,0.6
			c-58.6,0-54.6,0.6-54.6-8.1c0-6.5,0.8-9.2,2.8-9.6C237.2,439.2,337.8,439.8,339.7,440.3z"/>
		<path class="st6" d="M445.2,439.9c65.6,0,83.3,0.3,83.6,1.1c0.6,1.8-2.9,12.5-4.9,14.6c-1.5,1.7-5.5,1.8-83.8,1.8
			c-72.9,0-82.3-0.2-83.6-1.5s-1.5-5.3-0.7-14.7c0.1-1.3,2.8-2.2,4.8-1.7C361.5,439.7,399.5,439.9,445.2,439.9z"/>
		<path class="st6" d="M619.7,448.6v8.3l-36.9,0.3c-27.9,0.2-37.3-0.1-38.3-0.9c-1.8-1.5-1.5-15.1,0.4-16.2c0.6-0.4,17.7-0.5,38-0.2
			l36.9,0.5V448.6z"/>
		<path class="st6" d="M683.3,442.6c-1.1,5.9-2.6,10.1-4,12.4c-1.5,2.4-2,2.4-11.6,2.4c-5.5,0-10.4-0.4-11.1-0.8
			c-1.3-0.9-2.9-4.6-4.6-11.2c-1.1-4.3-1.1-4.8,0.6-5.4c0.9-0.4,8.4-0.6,16.5-0.4l14.8,0.3C683.7,439.9,683.3,442.6,683.3,442.6z"/>
		<path class="st6" d="M790.6,440.3c0.4,0.3,0.8,3.6,0.9,7.2c0.6,10.5,3.2,9.8-38.3,9.8c-19.5,0-36-0.3-36.9-0.6
			c-1.3-0.5-1.5-2.2-1.5-8.3c0-6.8,0.2-7.9,1.8-8.5C718.9,439.3,789.8,439.5,790.6,440.3z"/>
		<path class="st6" d="M340.2,473.9c0.9,0.5,1.1,2.9,0.9,8.5l-0.3,7.7l-53.2,0.3c-49.1,0.2-53.2,0.1-54.3-1.5
			c-1.5-2.2-1.7-13.1-0.1-14.7C234.7,472.8,338,472.5,340.2,473.9z"/>
		<path class="st6" d="M510.7,474.6c0.4,1.3-10.9,9.2-16.6,11.5c-10.1,4.2-14.8,4.5-77.3,4.5c-58,0-59.8-0.1-60.7-1.8
			c-1.3-2.6-1.3-13.1,0.2-14.6C357.8,472.5,510.1,472.9,510.7,474.6z"/>
		<path class="st6" d="M619.7,481.8v8.3l-37.6,0.3l-37.7,0.2l-0.6-2.2c-0.9-3.9-0.6-13.1,0.6-14.2c0.9-0.9,10.2-1.1,38.3-0.9
			l37.1,0.3C619.7,473.5,619.7,481.8,619.7,481.8z"/>
		<path class="st6" d="M672.5,474.7c0.4,0.9-0.1,3.7-0.9,6.3c-0.9,2.4-1.7,5.3-1.7,6.1c0,0.9-0.5,1.8-1.1,2.2
			c-1.3,0.9-4.6-3-4.6-5.7c0-0.9-0.7-3.2-1.5-4.8c-2.2-4.5-1.3-5.7,4.5-5.7C670.7,473,672,473.4,672.5,474.7z"/>
		<path class="st6" d="M790.6,474.2c1.5,1.5,1.5,12.6,0,14.7c-1.1,1.5-4.4,1.7-38.3,1.5l-37.1-0.3l-0.3-7.2c-0.2-4-0.1-7.8,0.2-8.6
			C715.8,472.5,788.7,472.3,790.6,474.2z"/>
	</g>
	<path class="st6" d="M740,541c25.9,6.5,40,18.9,47.4,41.4c3.2,9.6,2.7,36.6-0.5,47.6c-6.1,19.7-13.2,29.3-37.8,51.1
		c-36.2,31.8-44.5,39.8-49.1,46.9c-2.7,4-4.5,8.2-4.1,9.2c0.7,1.6,7.5,1.9,46.1,1.9c26.2,0,46.2,0.5,47.5,1.3
		c1.6,0.9,2.2,4.6,2.4,17.6c0.4,14.4,0.1,16.8-1.9,19c-2.2,2.3-5.2,2.4-77.8,2.4c-45.7,0-76.8-0.5-78.8-1.3
		c-3.3-1.1-3.6-1.8-3.6-9.2c0-8,3.6-25.1,7.2-34.4c1.9-4.9,8.8-17.4,12.3-22.5c8.6-12.7,34.5-38.3,59.4-58.3
		c13.1-10.7,21.6-22.5,24.1-33.7c2.4-10.6,2.6-23.2,0.4-31.9c-3.2-12.7-15.4-19.1-30-15.5c-13.1,3.2-18.5,11.7-20.1,31.1
		c-0.7,8.8-1.5,12.7-2.9,13.5c-1.1,0.7-12.5,1.1-25.9,0.9l-23.9-0.3l0.1-14.5c0-8,0.8-16.8,1.6-19.7c6.5-21.4,22.8-36.1,46.5-42
		C691,538.4,729,538.1,740,541z"/>
	<path class="st6" d="M407.4,618.3c-3.7-25.1-6-33.7-11.7-44.5c-7.9-14.8-22.5-27.6-37.4-32.6c-3.4-1.1-11.6-2.9-18.3-4
		c-9.3-1.4-22.4-1.9-56.6-1.8c-24.4,0-45.4,0.4-46.5,0.7c-1.1,0.4-2.4,1.4-3,2.2c-0.5,0.7-1.1,54.7-1.1,120v118.5l3.6,1.3
		c4.4,1.5,79.8,1.6,96.9,0.1c26.2-2.4,44.2-11.7,56.5-29.2c7.5-10.8,13.9-29.2,16.6-47.7C408.5,685.2,409.3,631,407.4,618.3z
		 M353.7,666.1c-2.3,63.4-9.7,75-48.6,75.7c-7.2,0.1-13.8-0.3-14.8-0.7c-2.4-1.4-2.3-164.3,0.1-166.7c2.3-2.4,29.7-1,37.1,1.8
		c6.1,2.4,13.6,8.4,16.4,13.3C351.1,601.9,355,632.4,353.7,666.1z"/>
	<path class="st6" d="M604.6,675.5c-6-9.8-11.5-14.6-23.4-20.1c-5.5-2.4-10-4.6-10-4.9s2.6-1.8,5.9-3.3c7.7-3.8,13.9-9.3,19.2-17.6
		c14.2-22.2,10.6-57.9-7.3-75.3c-8.9-8.6-17.3-12.6-34.1-16.1c-12.3-2.6-110.4-3.9-112.9-1.5c-2.4,2.3-2.6,238.9-0.1,241.1
		c2,1.9,81.5,2,103,0.3c27.8-2.3,49.5-14.6,59.9-33.8c3.7-7.1,8.6-26.8,8.8-35.6C613.4,699.5,609,683.2,604.6,675.5z M495.4,574.4
		c0.9-2.4,27.6-1.1,36.2,1.6c13.1,4.4,17,10.7,17,27.8c0,14.2-1.6,18.4-10.2,24.7c-5.9,4.4-21.8,7.7-34.2,7.1l-8.8-0.4l-0.4-29.6
		C494.9,589.5,495,575.4,495.4,574.4z M531.7,739.3c-6,1.5-32.9,3.4-35.2,2.6c-1.3-0.5-1.8-8.7-1.8-34.8c0-18.9,0.4-34.7,1.1-35.2
		c0.5-0.6,9-0.7,18.7-0.5c14.8,0.4,18.7,1,23.2,3.2c11.9,5.8,17.5,15.7,17.5,31.2C555.3,724.7,547.6,735.4,531.7,739.3z"/>
</g>
</svg>
