<?xml version="1.0" standalone="no"?><!DOCTYPE svg PUBLIC "-//W3C//DTD SVG 1.1//EN" "http://www.w3.org/Graphics/SVG/1.1/DTD/svg11.dtd"><svg t="1586923049005" class="icon" viewBox="0 0 1024 1024" version="1.1" xmlns="http://www.w3.org/2000/svg" p-id="9388" xmlns:xlink="http://www.w3.org/1999/xlink" width="200" height="200"><defs><style type="text/css"></style></defs><path d="M302.3 599.4l0.2 120.8 101.9-0.1-0.2-120.8zM450.6 719.5h121.3v-121H450.6zM721.6 321.4c0-11.5-9.3-20.9-20.7-20.9H324.3c-11.4 0-20.7 9.4-20.7 20.9v61.3h418.1v-61.3zM450.7 429.3h121v131h-121z" fill="#4AAF47" p-id="9389"></path><path d="M512.3 62.7C265 62.7 64.4 263.3 64.4 510.6c0 247.3 200.5 447.8 447.8 447.8S960 757.9 960 510.6c0.1-247.3-200.4-447.9-447.7-447.9z" fill="#4AAF47" p-id="9390"></path><path d="M731.4 255.2H291.1c-20.2 0-36.7 16.5-36.7 36.7v440.3c0 20.2 16.5 36.7 36.7 36.7h440.3c20.2 0 36.7-16.5 36.7-36.7V291.9c0-20.2-16.5-36.7-36.7-36.7z m-7 457.2c0 6.6-5.4 12-12 12H312.2c-6.6 0-12-5.4-12-12V312.2c0-6.6 5.4-12 12-12h400.2c6.6 0 12 5.4 12 12v400.2z" fill="#FFFFFF" p-id="9391"></path><path d="M619.4 619.1H405.3c-11.8 0-21.5-9.7-21.5-21.5s9.7-21.5 21.5-21.5h214.1c11.8 0 21.5 9.7 21.5 21.5 0 11.9-9.7 21.5-21.5 21.5zM425.7 448.8H405c-11.8 0-21.5-9.7-21.5-21.5s9.7-21.5 21.5-21.5h20.8c11.8 0 21.5 9.7 21.5 21.5-0.1 11.8-9.8 21.5-21.6 21.5zM619.4 448.8h-20.8c-11.8 0-21.5-9.7-21.5-21.5s9.7-21.5 21.5-21.5h20.8c11.8 0 21.5 9.7 21.5 21.5s-9.7 21.5-21.5 21.5z" fill="#FFFFFF" p-id="9392"></path></svg>