<?xml version="1.0" encoding="utf-8"?>
<!-- Generator: Adobe Illustrator 22.0.0, SVG Export Plug-In . SVG Version: 6.00 Build 0)  -->
<svg version="1.1" id="图层_1" xmlns="http://www.w3.org/2000/svg" xmlns:xlink="http://www.w3.org/1999/xlink" x="0px" y="0px"
	 viewBox="0 0 1024 1024" style="enable-background:new 0 0 1024 1024;" xml:space="preserve">
<style type="text/css">
	.st0{fill:#4AAF47;}
	.st1{fill:#FFFFFF;}
</style>
<path class="st0" d="M513.6,63.3c-247.3,0-447.8,200.5-447.8,447.8C65.7,758.5,266.2,959,513.6,959c247.3,0,447.8-200.5,447.8-447.8
	C961.4,263.8,760.9,63.3,513.6,63.3L513.6,63.3z"/>
<g>
	<path class="st1" d="M180.1,370h80.3l41.8,86.8l40.7-86.8h79.5L349,506.7l80.4,145.5h-81.9l-46.6-90.7l-46.6,90.7h-81.5l81.4-147.1
		L180.1,370z"/>
	<path class="st1" d="M452.7,370h72.9v212.7h113.8v69.5H452.7V370z"/>
	<path class="st1" d="M659.9,558.9l69.4-5.2c1.5,13.5,4.6,23.7,9.2,30.8c7.5,11.4,18.2,17.1,32.2,17.1c10.4,0,18.4-2.9,24.1-8.8
		c5.6-5.8,8.5-12.6,8.5-20.3c0-7.3-2.7-13.9-8-19.6c-5.4-5.8-17.8-11.2-37.3-16.4c-32-8.6-54.8-20-68.4-34.3
		c-13.7-14.2-20.6-32.4-20.6-54.5c0-14.5,3.5-28.2,10.5-41.1c7-12.9,17.6-23,31.7-30.4c14.1-7.4,33.5-11.1,58-11.1
		c30.2,0,53.2,6.7,69,20.1c15.8,13.4,25.2,34.7,28.3,64l-68.7,4.8c-1.8-12.7-5.7-21.9-11.5-27.7c-5.9-5.8-13.9-8.7-24.2-8.7
		c-8.5,0-14.9,2.2-19.2,6.4c-4.3,4.3-6.4,9.5-6.4,15.7c0,4.5,1.8,8.5,5.3,12.1c3.4,3.7,11.6,7.2,24.5,10.4
		c31.9,8.2,54.7,16.5,68.5,24.9c13.8,8.4,23.8,18.8,30.1,31.3c6.3,12.5,9.4,26.4,9.4,41.8c0,18.1-4.2,34.8-12.6,50.1
		c-8.4,15.3-20.1,26.9-35.1,34.7c-15,7.9-34,11.8-56.8,11.8c-40.1,0-67.9-9.2-83.4-27.7C670.7,610.9,661.9,587.4,659.9,558.9z"/>
</g>
</svg>
