<?xml version="1.0" encoding="utf-8"?>
<!-- Generator: Adobe Illustrator 18.0.0, SVG Export Plug-In . SVG Version: 6.00 Build 0)  -->
<!DOCTYPE svg PUBLIC "-//W3C//DTD SVG 1.1//EN" "http://www.w3.org/Graphics/SVG/1.1/DTD/svg11.dtd">
<svg version="1.1" xmlns="http://www.w3.org/2000/svg" xmlns:xlink="http://www.w3.org/1999/xlink" x="0px" y="0px"
	 viewBox="0 0 1024 1024" enable-background="new 0 0 1024 1024" xml:space="preserve">
<g id="图层_6">
</g>
<g id="图层_1" display="none">
	<circle fill="none" cx="512.1" cy="511.9" r="448.1"/>
	<path display="inline" fill="#333333" d="M951.5,602.7"/>
	<rect x="192" y="199" display="inline" fill="none" width="819.8" height="820.7"/>
	<path fill="#4AAF47" d="M799.3,192H224.9c-18,0-32.8,14.8-32.8,32.8v574.5c0,18,14.8,32.8,32.8,32.8h574.5
		c18,0,32.8-14.8,32.8-32.8V224.9C832.2,206.8,817.4,192,799.3,192z M384.3,756.5c0,6.6-5.4,12-12,12H268c-6.6,0-12-5.4-12-12V651.3
		c0-6.6,5.4-12,12-12h104.2c6.6,0,12,5.4,12,12V756.5z M384.3,563.8c0,6.6-5.4,12-12,12H268c-6.6,0-12-5.4-12-12V460.5
		c0-6.6,5.4-12,12-12h104.2c6.6,0,12,5.4,12,12V563.8z M384.3,371.7c0,6.6-5.4,12-12,12H268c-6.6,0-12-5.4-12-12V267.6
		c0-6.6,5.4-12,12-12h104.2c6.6,0,12,5.4,12,12V371.7z M576.3,756.2c0,6.6-5.4,12-12,12H460.1c-6.6,0-12-5.4-12-12V651
		c0-6.6,5.4-12,12-12h104.2c6.6,0,12,5.4,12,12V756.2z M576.3,564.2c0,6.6-5.4,12-12,12H460.1c-6.6,0-12-5.4-12-12v-104
		c0-6.6,5.4-12,12-12h104.2c6.6,0,12,5.4,12,12V564.2z M576.3,371.7c0,6.6-5.4,12-12,12H460.1c-6.6,0-12-5.4-12-12V267.6
		c0-6.6,5.4-12,12-12h104.2c6.6,0,12,5.4,12,12V371.7z M768.7,756.9c0,6.6-5.4,12-12,12H651.9c-6.6,0-12-5.4-12-12V651.7
		c0-6.6,5.4-12,12-12h104.8c6.6,0,12,5.4,12,12V756.9z M768.7,564.2c0,6.6-5.4,12-12,12H651.9c-6.6,0-12-5.4-12-12V460.9
		c0-6.6,5.4-12,12-12h104.8c6.6,0,12,5.4,12,12V564.2z M768.7,371.7c0,6.6-5.4,12-12,12H651.9c-6.6,0-12-5.4-12-12V267.6
		c0-6.6,5.4-12,12-12h104.8c6.6,0,12,5.4,12,12V371.7z"/>
	<path display="inline" fill="#333333" d="M894.8,503"/>
	<rect x="57.4" y="88.2" display="inline" fill="none" width="893.4" height="896.7"/>
	<path display="inline" fill="#4AAF47" d="M445.9,62.6H98.6c-18.9,0-34.3,15.4-34.3,34.3v347.4c0,18.9,15.4,34.3,34.3,34.3h347.4
		c18.9,0,34.3-15.4,34.3-34.3V96.9C480.2,78.1,464.8,62.6,445.9,62.6z M415.1,395.3c0,10.5-8.6,19.1-19.1,19.1H148.5
		c-10.5,0-19.1-8.6-19.1-19.1V145.9c0-10.5,8.6-19.1,19.1-19.1H396c10.5,0,19.1,8.6,19.1,19.1V395.3z"/>
	<path display="inline" fill="#4AAF47" d="M924,63.6H576.7c-18.9,0-34.3,15.4-34.3,34.3v347.4c0,18.9,15.4,34.3,34.3,34.3H924
		c18.9,0,34.3-15.4,34.3-34.3V97.9C958.4,79.1,942.9,63.6,924,63.6z M893.2,396.3c0,10.5-8.6,19.1-19.1,19.1H626.6
		c-10.5,0-19.1-8.6-19.1-19.1V146.9c0-10.5,8.6-19.1,19.1-19.1h247.4c10.5,0,19.1,8.6,19.1,19.1V396.3z"/>
	<path display="inline" fill="#4AAF47" d="M446,543.5H98.6c-18.9,0-34.3,15.4-34.3,34.3v347.4c0,18.9,15.4,34.3,34.3,34.3H446
		c18.9,0,34.3-15.4,34.3-34.3V577.8C480.3,558.9,464.9,543.5,446,543.5z M415.1,876.2c0,10.5-8.6,19.1-19.1,19.1H148.6
		c-10.5,0-19.1-8.6-19.1-19.1V626.8c0-10.5,8.6-19.1,19.1-19.1H396c10.5,0,19.1,8.6,19.1,19.1V876.2z"/>
	<path display="inline" fill="#4AAF47" d="M924.1,543.5H576.8c-18.9,0-34.3,15.4-34.3,34.3v347.4c0,18.9,15.4,34.3,34.3,34.3h347.4
		c18.9,0,34.3-15.4,34.3-34.3V577.8C958.5,558.9,943,543.5,924.1,543.5z M893.3,876.2c0,10.5-8.6,19.1-19.1,19.1H626.7
		c-10.5,0-19.1-8.6-19.1-19.1V626.8c0-10.5,8.6-19.1,19.1-19.1h247.4c10.5,0,19.1,8.6,19.1,19.1V876.2z"/>
</g>
<g id="图层_2" display="none">
	<path display="inline" fill="#EFC461" d="M603.5,63.9H100.6c-20.2,0-36.5,16.4-36.5,36.5v118.9c0,20.2,16.4,36.5,36.5,36.5h502.9
		c20.2,0,36.5-16.4,36.5-36.5V100.5C640.1,80.3,623.7,63.9,603.5,63.9z"/>
	<path display="inline" fill="#EFC461" d="M922.9,191.9h-822c-20.2,0-36.5,16.4-36.5,36.5v695.9c0,20.2,16.4,36.5,36.5,36.5h822
		c20.2,0,36.5-16.4,36.5-36.5V228.5C959.4,208.3,943.1,191.9,922.9,191.9z M866.5,385.3c0,15.4-12.6,28-28,28H191
		c-15.4,0-28-12.6-28-28v-71.8c0-15.4,12.6-28,28-28h647.5c15.4,0,28,12.6,28,28V385.3z"/>
</g>
<g id="图层_3" display="none">
	<path display="inline" fill="#4AAF47" stroke="#FFFFFF" stroke-width="63" stroke-miterlimit="10" d="M706.2,779.5"/>
	<path display="inline" fill="#3A3633" d="M403.4,688.7"/>
	<rect x="127.8" y="360.6" display="inline" fill="none" width="776.2" height="421.4"/>
	<g display="inline">
		<path fill="#4AAF47" d="M655.8,721.9c-18.2-0.2-32.8-14.9-32.9-33.1c0-18.2,14.6-33,32.8-33.2h95c78.9-0.7,142.4-64.8,142.4-143.6
			c0-78.9-63.6-143-142.5-143.7h-95c-11.9,0.1-23.1-6.2-29-16.4c-6-10.4-6-23.1,0-33.3c6-10.4,17-16.6,28.9-16.5h95
			c115.3,0.8,208.5,94.5,208.4,209.9c0,115.3-93.1,209.1-208.4,209.9"/>
		<path fill="#4AAF47" d="M403.4,688.7c0,18.3-14.8,33.1-33.1,33.1l-96.6-0.1c-115.9,0.1-209.9-93.9-209.9-209.9
			c0-115.9,94-209.9,209.9-209.9l96.6,0.1c11.9-0.1,23.1,6.2,29,16.4c6,10.4,6,23.1-0.1,33.4c-6,10.4-17,16.6-29,16.4h-96.6
			c-51.8-0.9-100.1,26.3-126.3,71.1c-26.2,44.9-26.2,100.1,0,145c26.2,44.9,74.5,72,126.3,71.1l96.6-0.1c8.8,0,17.3,3.5,23.4,9.6
			C399.9,671.5,403.4,679.9,403.4,688.7L403.4,688.7z"/>
		<path fill="#4AAF47" d="M672.2,511.8c0,19.1-17.1,34.5-38.3,34.5H390.6c-13.7,0-26.4-6.6-33.2-17.2c-6.9-10.7-6.8-23.8,0-34.4
			c6.9-10.7,19.5-17.3,33.2-17.3l243.4-0.1c10.2,0,20,3.7,27.1,10C668.3,493.9,672.2,502.6,672.2,511.8L672.2,511.8z M672.2,511.8"
			/>
	</g>
</g>
<g id="图层_4" display="none">
	<path display="inline" d="M714.7,481.3c0-0.1,0-0.1,0-0.2V216.3c0-3.7,2-7,5.1-8.8c3.2-1.8,7.1-1.8,10.2,0.1l223.7,132.4
		c6.2,3.7,6.2,13.9,0,17.5L731.6,489c-3,2.7-7.3,3.3-10.9,1.6C717,489,714.7,485.3,714.7,481.3L714.7,481.3z"/>
	<path display="inline" d="M740.8,790c0-0.1,0-0.1,0-0.2V552.9c0-3.3,1.8-6.3,4.6-7.9c2.8-1.6,6.3-1.6,9.1,0.1l200.1,118.5
		c5.5,3.3,5.5,12.4,0,15.7L755.9,796.8c-2.7,2.4-6.5,2.9-9.8,1.5C742.9,796.8,740.8,793.5,740.8,790L740.8,790z"/>
	<path display="inline" stroke="#231815" stroke-miterlimit="10" d="M858.5,710.6H611.6c-21.1,0-38.4-17.3-38.4-38.4v0
		c0-21.1,17.3-38.4,38.4-38.4h246.9c21.1,0,38.4,17.3,38.4,38.4v0C896.9,693.4,879.6,710.6,858.5,710.6z"/>
	<path display="inline" stroke="#231815" stroke-miterlimit="10" d="M859.1,388.7h-238c-21.1,0-38.4-17.3-38.4-38.4v0
		c0-21.1,17.3-38.4,38.4-38.4h238c21.1,0,38.4,17.3,38.4,38.4v0C897.5,371.4,880.2,388.7,859.1,388.7z"/>
	<path display="inline" stroke="#231815" stroke-miterlimit="10" d="M292.6,388.7H102.5c-21.1,0-38.4-17.3-38.4-38.4v0
		c0-21.1,17.3-38.4,38.4-38.4h190.1c21.1,0,38.4,17.3,38.4,38.4v0C331,371.4,313.8,388.7,292.6,388.7z"/>
	<path display="inline" stroke="#231815" stroke-miterlimit="10" d="M295.6,710.6H102.5c-21.1,0-38.4-17.3-38.4-38.4v0
		c0-21.1,17.3-38.4,38.4-38.4h193.1c21.1,0,38.4,17.3,38.4,38.4v0C334,693.4,316.8,710.6,295.6,710.6z"/>
	<path display="inline" d="M354.8,466l-88.4-88.4c-14.9-14.9-14.9-39.4,0-54.3l0,0c14.9-14.9,39.4-14.9,54.3,0l88.4,88.4
		c14.9,14.9,14.9,39.4,0,54.3l0,0C394.2,481,369.8,481,354.8,466z"/>
	<path display="inline" d="M646.6,378.1L324.8,700c-14.9,14.9-39.4,14.9-54.3,0l0,0c-14.9-14.9-14.9-39.4,0-54.3l321.9-321.9
		c14.9-14.9,39.4-14.9,54.3,0l0,0C661.6,338.8,661.6,363.2,646.6,378.1z"/>
	<path display="inline" d="M580.8,699l-82.4-82.4c-14.9-14.9-14.9-39.4,0-54.3l0,0c14.9-14.9,39.4-14.9,54.3,0l82.4,82.4
		c14.9,14.9,14.9,39.4,0,54.3l0,0C620.2,714,595.8,714,580.8,699z"/>
	<path display="inline" d="M714.7,803.3c0-0.1,0-0.1,0-0.2V538.3c0-3.7,2-7,5.1-8.8c3.2-1.8,7.1-1.8,10.2,0.1l223.7,132.4
		c6.2,3.7,6.2,13.9,0,17.5L731.6,811c-3,2.7-7.3,3.3-10.9,1.6C717,811,714.7,807.3,714.7,803.3L714.7,803.3z"/>
</g>
<g id="图层_5" display="none">
	<path display="inline" fill="#4AAF47" d="M896.3,63H128.5c-35.2,0-64,28.8-64,64v767.7c0,35.2,28.8,64,64,64h767.7
		c35.2,0,64-28.8,64-64V127C960.3,91.8,931.5,63,896.3,63z M895.8,858c0,21-17,38-38,38h-692c-21,0-38-17-38-38V166
		c0-20.9,17.1-38,38-38h692c20.9,0,38,17.1,38,38V858z"/>
	<path display="inline" fill="#4AAF47" d="M512.1,343.1c-21.7,0-39.3,17.6-39.3,39.3c0,21.7,17.6,39.3,39.3,39.3
		c21.7,0,39.3-17.6,39.3-39.3C551.4,360.7,533.8,343.1,512.1,343.1L512.1,343.1z"/>
	<path display="inline" fill="#4AAF47" d="M512.1,672.9L512.1,672.9c-17.6,0-32-14.4-32-32V512.5c0-17.6,14.4-32,32-32h0
		c17.6,0,32,14.4,32,32v128.4C544.1,658.5,529.7,672.9,512.1,672.9z"/>
	<g display="inline">
		<path d="M299.4,434.2"/>
		<path fill="#4AAF47" d="M322.4,428.6v-74.9c0-28.4,23.5-51.5,52.4-51.5h25.4c13.2,0,23.8-10.5,23.8-23.4
			c0-12.9-10.7-23.4-23.8-23.4h-25.4c-55.2,0-100.1,44.1-100.1,98.3v74.9c0,28.4-23.6,51.5-52.5,51.5c-13.2,0-23.8,10.5-23.8,23.4
			c0,12.9,10.7,23.4,23.8,23.4c28.9,0,52.5,23.1,52.5,51.5v74.9c0,54.2,44.9,98.3,100.1,98.3h25.4c13.2,0,23.8-10.5,23.8-23.4
			c0-12.9-10.7-23.4-23.8-23.4h-25.4c-28.9,0-52.4-23.1-52.4-51.5v-74.9c0-30-13.7-56.9-35.4-74.9
			C308.7,485.4,322.4,458.5,322.4,428.6L322.4,428.6z"/>
		<path fill="#4AAF47" d="M338.4,445.6v-74.9c0-28.4,23.5-51.5,52.4-51.5h25.4c13.2,0,23.8-10.5,23.8-23.4
			c0-12.9-10.7-23.4-23.8-23.4h-25.4c-55.2,0-100.1,44.1-100.1,98.3v74.9c0,28.4-23.6,51.5-52.5,51.5c-13.2,0-23.8,10.5-23.8,23.4
			c0,12.9,10.7,23.4,23.8,23.4c28.9,0,52.5,23.1,52.5,51.5v74.9c0,54.2,44.9,98.3,100.1,98.3h25.4c13.2,0,23.8-10.5,23.8-23.4
			c0-12.9-10.7-23.4-23.8-23.4h-25.4c-28.9,0-52.4-23.1-52.4-51.5v-74.9c0-30-13.7-56.9-35.4-74.9
			C324.7,502.4,338.4,475.5,338.4,445.6L338.4,445.6z"/>
		<path fill="#4AAF47" d="M324.2,445.3v-74.9c0-28.4,23.5-51.5,52.4-51.5h25.4c13.2,0,23.8-10.5,23.8-23.4
			c0-12.9-10.7-23.4-23.8-23.4h-25.4c-55.2,0-100.1,44.1-100.1,98.3v74.9c0,28.4-23.6,51.5-52.5,51.5c-13.2,0-23.8,10.5-23.8,23.4
			c0,12.9,10.7,23.4,23.8,23.4c28.9,0,52.5,23.1,52.5,51.5V670c0,54.2,44.9,98.3,100.1,98.3h25.4c13.2,0,23.8-10.5,23.8-23.4
			c0-12.9-10.7-23.4-23.8-23.4h-25.4c-28.9,0-52.4-23.1-52.4-51.5v-74.9c0-30-13.7-56.9-35.4-74.9
			C310.5,502.2,324.2,475.3,324.2,445.3L324.2,445.3z"/>
		<path fill="#4AAF47" d="M414.2,318.9h-23c-17.4,0-31.7-14.3-31.7-31.7v0c0-17.4,14.3-31.7,31.7-31.7h23
			c17.4,0,31.7,14.3,31.7,31.7v0C445.9,304.7,431.6,318.9,414.2,318.9z"/>
		<path fill="#4AAF47" d="M223.8,543.5h-0.6c-17.4,0-31.7-14.3-31.7-31.7v0c0-17.4,14.3-31.7,31.7-31.7h0.6
			c17.4,0,31.7,14.3,31.7,31.7v0C255.5,529.3,241.2,543.5,223.8,543.5z"/>
		<path fill="#4AAF47" d="M414.2,768.3h-23c-17.4,0-31.7-14.3-31.7-31.7v0c0-17.4,14.3-31.7,31.7-31.7h23
			c17.4,0,31.7,14.3,31.7,31.7v0C445.9,754,431.6,768.3,414.2,768.3z"/>
	</g>
	<g display="inline">
		<path d="M722.9,589.7"/>
		<path fill="#4AAF47" d="M699.9,595.4v74.9c0,28.4-23.5,51.5-52.4,51.5H622c-13.2,0-23.8,10.5-23.8,23.4
			c0,12.9,10.7,23.4,23.8,23.4h25.4c55.2,0,100.1-44.1,100.1-98.3v-74.9c0-28.4,23.6-51.5,52.5-51.5c13.2,0,23.8-10.5,23.8-23.4
			c0-12.9-10.7-23.4-23.8-23.4c-28.9,0-52.5-23.1-52.5-51.5v-74.9c0-54.2-44.9-98.3-100.1-98.3H622c-13.2,0-23.8,10.5-23.8,23.4
			c0,12.9,10.7,23.4,23.8,23.4h25.4c28.9,0,52.4,23.1,52.4,51.5v74.9c0,30,13.7,56.9,35.4,74.9C713.7,538.5,699.9,565.4,699.9,595.4
			L699.9,595.4z"/>
		<path fill="#4AAF47" d="M683.9,578.4v74.9c0,28.4-23.5,51.5-52.4,51.5H606c-13.2,0-23.8,10.5-23.8,23.4
			c0,12.9,10.7,23.4,23.8,23.4h25.4c55.2,0,100.1-44.1,100.1-98.3v-74.9c0-28.4,23.6-51.5,52.5-51.5c13.2,0,23.8-10.5,23.8-23.4
			c0-12.9-10.7-23.4-23.8-23.4c-28.9,0-52.5-23.1-52.5-51.5v-74.9c0-54.2-44.9-98.3-100.1-98.3H606c-13.2,0-23.8,10.5-23.8,23.4
			c0,12.9,10.7,23.4,23.8,23.4h25.4c28.9,0,52.4,23.1,52.4,51.5v74.9c0,30,13.7,56.9,35.4,74.9C697.7,521.5,683.9,548.4,683.9,578.4
			L683.9,578.4z"/>
		<path fill="#4AAF47" d="M698.2,578.6v74.9c0,28.4-23.5,51.5-52.4,51.5h-25.4c-13.2,0-23.8,10.5-23.8,23.4
			c0,12.9,10.7,23.4,23.8,23.4h25.4c55.2,0,100.1-44.1,100.1-98.3v-74.9c0-28.4,23.6-51.5,52.5-51.5c13.2,0,23.8-10.5,23.8-23.4
			c0-12.9-10.7-23.4-23.8-23.4c-28.9,0-52.5-23.1-52.5-51.5v-74.9c0-54.2-44.9-98.3-100.1-98.3h-25.4c-13.2,0-23.8,10.5-23.8,23.4
			c0,12.9,10.7,23.4,23.8,23.4h25.4c28.9,0,52.4,23.1,52.4,51.5v74.9c0,30,13.7,56.9,35.4,74.9C711.9,521.7,698.2,548.6,698.2,578.6
			L698.2,578.6z"/>
		<path fill="#4AAF47" d="M608.2,705h23c17.4,0,31.7,14.3,31.7,31.7v0c0,17.4-14.3,31.7-31.7,31.7h-23c-17.4,0-31.7-14.3-31.7-31.7
			v0C576.4,719.3,590.7,705,608.2,705z"/>
		<path fill="#4AAF47" d="M798.6,480.4h0.6c17.4,0,31.7,14.3,31.7,31.7v0c0,17.4-14.3,31.7-31.7,31.7h-0.6
			c-17.4,0-31.7-14.3-31.7-31.7v0C766.9,494.6,781.2,480.4,798.6,480.4z"/>
		<path fill="#4AAF47" d="M608.2,255.6h23c17.4,0,31.7,14.3,31.7,31.7v0c0,17.4-14.3,31.7-31.7,31.7h-23
			c-17.4,0-31.7-14.3-31.7-31.7v0C576.4,269.9,590.7,255.6,608.2,255.6z"/>
	</g>
</g>
<g id="图层_8" display="none">
	<g display="inline">
		<path fill="#4AAF47" d="M483.5,647.1h-57.8l-23-61.6H297.5l-21.7,61.6h-56.4L321.9,376h56.2L483.5,647.1z M385.7,539.8
			l-36.3-100.6l-35.6,100.6H385.7z"/>
		<path fill="#4AAF47" d="M511.7,647.1V376H597c32.3,0,53.4,1.4,63.2,4.1c15.1,4.1,27.7,12.9,37.9,26.5
			c10.2,13.6,15.3,31.2,15.3,52.8c0,16.6-2.9,30.6-8.8,42c-5.9,11.3-13.3,20.3-22.4,26.7c-9,6.5-18.2,10.8-27.6,12.9
			c-12.7,2.6-31.1,3.9-55.1,3.9h-34.7v102.3H511.7z M564.9,421.8v76.9H594c20.9,0,35-1.4,42-4.3c7.1-2.8,12.6-7.3,16.6-13.3
			c4-6,6-13.1,6-21.1c0-9.9-2.8-18-8.4-24.4c-5.6-6.4-12.8-10.4-21.4-12c-6.3-1.2-19.1-1.8-38.3-1.8H564.9z"/>
		<path fill="#4AAF47" d="M755.4,647.1V376h53.2v271.1H755.4z"/>
	</g>
	<path display="inline" fill="#4AAF47" d="M896.8,64H129c-35.2,0-64,28.8-64,64v767.7c0,35.2,28.8,64,64,64h767.7
		c35.2,0,64-28.8,64-64V128C960.8,92.8,932,64,896.8,64z M896.4,859.1c0,21-17,38-38,38h-692c-21,0-38-17-38-38V167
		c0-20.9,17.1-38,38-38h692c20.9,0,38,17.1,38,38V859.1z"/>
	<g>
		<path display="inline" fill="#4AAF47" d="M224,671.1L224,671.1c-17.6,0-32-14.4-32-32V382.8c0-17.6,14.4-32,32-32h0
			c17.6,0,32,14.4,32,32v256.3C256,656.7,241.6,671.1,224,671.1z"/>
		<path display="inline" fill="#4AAF47" d="M385,670.3L385,670.3c-17.6,0-32-14.4-32-32V382c0-17.6,14.4-32,32-32h0
			c17.6,0,32,14.4,32,32v256.3C417,655.9,402.6,670.3,385,670.3z"/>
		<path display="inline" fill="#4AAF47" d="M416.2,382.9L416.2,382.9c0,17.6-14.4,32-32,32H224.1c-17.6,0-32-14.4-32-32v0
			c0-17.6,14.4-32,32-32h160.1C401.8,350.9,416.2,365.3,416.2,382.9z"/>
		<path display="inline" fill="#4AAF47" d="M417.1,542.9L417.1,542.9c0,17.6-14.4,32-32,32H225c-17.6,0-32-14.4-32-32v0
			c0-17.6,14.4-32,32-32h160.1C402.7,510.9,417.1,525.3,417.1,542.9z"/>
		<path display="inline" fill="#4AAF47" d="M514,672L514,672c-17.6,0-32-14.4-32-32V383.7c0-17.6,14.4-32,32-32h0
			c17.6,0,32,14.4,32,32V640C546,657.6,531.6,672,514,672z"/>
		<path display="inline" fill="#4AAF47" d="M706.1,537.9L706.1,537.9c0,17.6-14.4,32-32,32H514c-17.6,0-32-14.4-32-32v0
			c0-17.6,14.4-32,32-32h160.1C691.7,505.9,706.1,520.3,706.1,537.9z"/>
		<path display="inline" fill="#4AAF47" d="M801,671.1L801,671.1c-17.6,0-32-14.4-32-32V382.8c0-17.6,14.4-32,32-32h0
			c17.6,0,32,14.4,32,32v256.3C833,656.7,818.6,671.1,801,671.1z"/>
		<path display="inline" fill="#4AAF47" d="M706.1,382.9L706.1,382.9c0,17.6-14.4,32-32,32H514c-17.6,0-32-14.4-32-32v0
			c0-17.6,14.4-32,32-32h160.1C691.7,350.9,706.1,365.3,706.1,382.9z"/>
		<path display="inline" fill="#4AAF47" d="M674.4,351.7L674.4,351.7c17.6,0,32,14.4,32,32v153.1c0,17.6-14.4,32-32,32h0
			c-17.6,0-32-14.4-32-32V383.7C642.4,366.1,656.8,351.7,674.4,351.7z"/>
	</g>
</g>
<g id="图层_7" display="none">
	<path fill="#4AAF47" d="M896.4,63.7H128.7c-35.2,0-64,28.8-64,64v767.7c0,35.2,28.8,64,64,64h767.7c35.2,0,64-28.8,64-64V127.7
		C960.4,92.5,931.6,63.7,896.4,63.7z M896,858.7c0,21-17,38-38,38H166c-21,0-38-17-38-38v-692c0-20.9,17.1-38,38-38h692
		c20.9,0,38,17.1,38,38V858.7z"/>
	<path display="inline" fill="#4AAF47" d="M740.3,63.4l-610.8,0.1c-36.5,0-66,29.6-66,66l0.4,763.7c0,36.4,29.5,65.9,65.9,66
		l763.6,0.7c36.5,0,66-29.5,66.1-66l0.2-611c0-17.5-6.9-34.3-19.3-46.7L787,82.7C774.6,70.3,757.8,63.4,740.3,63.4z M831.5,895.2
		l-635.6-0.5c-36.4,0-65.9-29.5-65.9-66l-0.4-634.2c0-36.5,29.5-66,66-66l510.3-0.1c17.5,0,34.3,6.9,46.6,19.3l125.9,125.7
		c12.4,12.4,19.4,29.2,19.4,46.7l-0.2,509.1C897.5,865.7,867.9,895.2,831.5,895.2z"/>
	<path display="inline" fill="#4AAF47" d="M737,383.7H288.2c-17.6,0-31.9-14.3-31.9-31.9v0c0-17.6,14.3-31.9,31.9-31.9H737
		c17.6,0,31.9,14.3,31.9,31.9v0C768.9,369.5,754.6,383.7,737,383.7z"/>
	<path display="inline" fill="#4AAF47" d="M736.3,542.6H287.5c-17.6,0-31.9-14.3-31.9-31.9v0c0-17.6,14.3-31.9,31.9-31.9h448.8
		c17.6,0,31.9,14.3,31.9,31.9v0C768.2,528.4,753.9,542.6,736.3,542.6z"/>
	<path display="inline" fill="#4AAF47" d="M736,703.7H287.2c-17.6,0-31.9-14.3-31.9-31.9v0c0-17.6,14.3-31.9,31.9-31.9H736
		c17.6,0,31.9,14.3,31.9,31.9v0C767.9,689.5,753.6,703.7,736,703.7z"/>
</g>
<g id="图层_10" display="none">
	<path display="inline" stroke="#231815" stroke-miterlimit="10" d="M921.4,414.5h-308c-21.1,0-38.4-17.3-38.4-38.4v0
		c0-21.1,17.3-38.4,38.4-38.4h308c21.1,0,38.4,17.3,38.4,38.4v0C959.8,397.2,942.5,414.5,921.4,414.5z"/>
	<path display="inline" stroke="#231815" stroke-miterlimit="10" d="M921.4,685.3H106.6c-21.1,0-38.4-17.3-38.4-38.4v0
		c0-21.1,17.3-38.4,38.4-38.4h814.8c21.1,0,38.4,17.3,38.4,38.4v0C959.8,668.1,942.5,685.3,921.4,685.3z"/>
	<path display="inline" stroke="#231815" stroke-miterlimit="10" d="M921.4,956.2H104.6c-21.1,0-38.4-17.3-38.4-38.4v0
		c0-21.1,17.3-38.4,38.4-38.4h816.8c21.1,0,38.4,17.3,38.4,38.4v0C959.8,938.9,942.5,956.2,921.4,956.2z"/>
	<path display="inline" d="M80.5,65.1c0.1,0,0.2,0,0.3,0h356.1c4.9,0,9.4,2.6,11.9,6.9c2.4,4.3,2.4,9.5-0.1,13.7L270.6,387
		c-4.9,8.3-18.6,8.3-23.6,0L70.2,87.8c-3.6-4-4.4-9.8-2.2-14.7C70.2,68.2,75.1,65,80.5,65.1L80.5,65.1z"/>
	<path display="inline" d="M202.4,465.9"/>
	<path display="inline" stroke="#231815" stroke-miterlimit="10" d="M921.4,143.7H614.2c-21.1,0-38.4-17.3-38.4-38.4v0
		c0-21.1,17.3-38.4,38.4-38.4h307.2c21.1,0,38.4,17.3,38.4,38.4v0C959.8,126.4,942.5,143.7,921.4,143.7z"/>
</g>
<g id="图层_9" display="none">
	<path display="inline" fill="#4AAF47" d="M895.8,64H128c-35.2,0-64,28.8-64,64v767.7c0,35.2,28.8,64,64,64h767.7
		c35.2,0,64-28.8,64-64V128C959.8,92.8,931,64,895.8,64z M895.4,859.1c0,21-17,38-38,38h-692c-21,0-38-17-38-38v-692
		c0-20.9,17.1-38,38-38h692c20.9,0,38,17.1,38,38V859.1z"/>
	<path display="inline" d="M765.9,1181.1"/>
</g>
<g id="图层_12">
	<path display="none" fill="#F9F8F7" d="M475.8,554.5c0,55.8-13.6,98.7-40.6,128.4c-27,29.8-65.8,44.7-116.2,44.7
		c-22.3,0-43-3.7-62.2-10.9V632c16.4,11.9,35.2,17.7,56.2,17.7c45.4,0,68.2-32.8,68.2-98.5V297.8h94.6V554.5z M527.4,639.3
		c31.7,18.3,62.8,27.5,93.2,27.5c38.2,0,57.3-9.8,57.3-29.2c0-13.9-15.7-25.4-47.3-34.7c-39.4-11.7-66.4-24.6-81.1-38.9
		c-14.7-14.3-22-33.6-22-58c0-29.6,12.7-52.9,37.9-69.7c25.2-16.8,58.3-25.2,99.2-25.2c29,0,57,4.1,84,12.3v69.3
		C723.8,478.8,696.6,472,667,472c-14.7,0-26.6,2.5-35.6,7.5c-9,5-13.5,11.6-13.5,19.7c0,13.9,13.4,25,40.2,33.6
		c28.7,9.1,50.2,17.3,64.7,24.8c14.4,7.5,25.4,17.2,33,29.5c7.6,12.2,11.4,26.3,11.4,42.2c0,31.1-13.1,55.2-39.3,72.4
		c-26.2,17.1-61.2,25.8-104.9,25.8c-34.4,0-66.2-5.2-95.5-15.5v-72.7H527.4z M527.4,639.3"/>
	<g>
		<path fill="#F5AF3F" d="M510.1,65C263.7,65,63.9,264.8,63.9,511.2c0,246.5,199.8,446.2,446.2,446.2
			c246.5,0,446.2-199.8,446.2-446.2C956.4,264.8,756.6,65,510.1,65z M498.8,388.8H320.4v87.3h154v62.4h-154v156.8h-74.5V326.4h252.9
			V388.8z M796,695.3h-65.7V656c-10.9,15.3-23.8,26.6-38.6,34.1s-29.8,11.2-44.9,11.2c-30.7,0-57-12.4-78.9-37.1
			C546,639.4,535,604.9,535,560.6c0-45.3,10.7-79.7,32-103.3c21.3-23.6,48.2-35.4,80.8-35.4c29.9,0,55.7,12.4,77.5,37.2V326.4H796
			V695.3z"/>
		<path fill="#F5AF3F" d="M666.4,476.1c-16.8,0-30.8,6.7-42.1,20c-11.3,13.3-17,33.3-17,59.8c0,28.5,3.9,49.2,11.8,61.9
			c11.4,18.5,27.3,27.7,47.8,27.7c16.3,0,30.1-6.9,41.5-20.8c11.4-13.8,17.1-34.5,17.1-62c0-30.7-5.5-52.8-16.6-66.3
			C697.8,482.9,683.7,476.1,666.4,476.1z"/>
	</g>
</g>
<g id="图层_11" display="none">
	<path display="inline" fill="#F5AF3F" d="M511.2,65C264.8,65,65,264.8,65,511.2c0,246.5,199.8,446.2,446.2,446.2
		c246.5,0,446.2-199.8,446.2-446.2C957.5,264.8,757.7,65,511.2,65z M469.9,542.9c0,52-12.8,91.9-38.3,119.7
		c-25.5,27.8-62,41.7-109.6,41.7c-21.1,0-40.6-3.4-58.7-10.1v-79c15.5,11.1,33.2,16.5,53,16.5c42.9,0,64.3-30.6,64.3-91.8V303.7
		h89.2V542.9z M729.7,681c-23.7,15.5-55.2,23.3-94.7,23.3c-31,0-59.7-4.7-86.2-14v-65.6c0,0-0.1,0-0.1-0.1h0.1v0.1
		c28.6,16.5,56.6,24.8,84,24.8c34.4,0,51.7-8.8,51.7-26.4c0-12.5-14.2-22.9-42.7-31.3c-35.5-10.5-59.9-22.2-73.2-35.1
		c-13.3-12.9-19.9-30.3-19.9-52.3c0-26.7,11.4-47.8,34.2-62.9c22.8-15.2,52.6-22.8,89.5-22.8c26.2,0,51.4,3.7,75.8,11.1v62.5
		c-22.2-12.5-46.8-18.7-73.5-18.7c-13.3,0-24,2.2-32.1,6.7c-8.1,4.5-12.1,10.4-12.1,17.8c0,12.5,12.1,22.6,36.2,30.3
		c25.9,8.2,45.3,15.7,58.4,22.4c13,6.7,22.9,15.6,29.8,26.6c6.8,11,10.3,23.7,10.3,38.1C765.2,643.6,753.4,665.4,729.7,681z"/>
	<path display="inline" fill="#FFFFFF" d="M515.3,627.1"/>
</g>
</svg>
