<?xml version="1.0" encoding="utf-8"?>
<!-- Generator: Adobe Illustrator 22.0.0, SVG Export Plug-In . SVG Version: 6.00 Build 0)  -->
<svg version="1.1" id="图层_1" xmlns="http://www.w3.org/2000/svg" xmlns:xlink="http://www.w3.org/1999/xlink" x="0px" y="0px"
	 viewBox="0 0 1024 1024" style="enable-background:new 0 0 1024 1024;" xml:space="preserve">
<style type="text/css">
	.st0{fill:#FFFFFF;stroke:#AAAAAA;stroke-width:5;stroke-miterlimit:10;}
	.st1{fill:#D81E06;}
</style>
<circle class="st0" cx="512" cy="510.5" r="447.5"/>
<path class="st1" d="M794.6,286.3l-64.6,107.6H371.3c-21.5,0-32.3,10.8-32.3,28.7v175.8c0,21.5,10.8,28.7,32.3,28.7h308.5v-57.4
	H471.7V458.5h269.1c35.9,3.6,53.8,21.5,53.8,50.2v179.4c0,32.3-17.9,46.6-53.8,46.6H339c-71.8-21.5-107.6-57.4-107.6-107.6V393.9
	c0-32.3,14.4-107.6,107.6-107.6C339,286.3,794.6,286.3,794.6,286.3z"/>
</svg>
