<?xml version="1.0" standalone="no"?><!DOCTYPE svg PUBLIC "-//W3C//DTD SVG 1.1//EN" "http://www.w3.org/Graphics/SVG/1.1/DTD/svg11.dtd"><svg t="1586923026105" class="icon" viewBox="0 0 1024 1024" version="1.1" xmlns="http://www.w3.org/2000/svg" p-id="9110" xmlns:xlink="http://www.w3.org/1999/xlink" width="200" height="200"><defs><style type="text/css"></style></defs><path d="M512.3 63.8C265 63.8 64.4 264.3 64.4 511.7 64.4 759 265 959.5 512.3 959.5c247.3 0 447.8-200.5 447.8-447.8 0-247.4-200.5-447.9-447.8-447.9z" fill="#4AAF47" p-id="9111"></path><path d="M757.5 354.5L670 266.9c-7.1-7.1-16.6-11-26.6-11h-11.7c-2.5-0.9-5.1-1.4-7.9-1.4-2.8 0-5.4 0.5-7.9 1.4H294.8c-20.8 0-37.7 16.9-37.7 37.7l0.2 435.9c0 20.8 16.9 37.6 37.6 37.6l435.8 0.4c20.8 0 37.7-16.8 37.7-37.7l0.1-348.7c0-10-4-19.6-11-26.6z m-110.3-41.1l64.4 65.6c1.9 1.9 3.5 4 4.9 6.3h-69.3v-71.9z m74.9 374.9c0 20.3-16.1 36.7-36 36.7l-346.6-0.3c-19.9 0-35.9-16.4-36-36.7l-0.2-352.8c0-20.3 16.1-36.7 36-36.7h260.9v104.7c0 7.4 3.4 13.9 8.7 18.2 4.2 6.6 11.5 11 19.9 11h93.4l-0.1 255.9z" fill="#FFFFFF" p-id="9112"></path><path d="M244 382.5h68.5V670H244z" fill="#4AAF47" p-id="9113"></path><path d="M484.7 478.4l-72.2-120.2c-7-11.9-19.8-18.9-34.1-18.9s-27.1 7-34.1 18.9l-72 120.2c-28.1 46.5-20 105.4 19.3 143.5 19.3 18.7 43.8 29.8 69 33.4v29.8c0 3.6 3 6.6 6.6 6.6h22c3.6 0 6.6-3 6.6-6.6v-29.8c25.3-3.5 49.8-14.5 69.6-33.4 39.3-38 47.2-96.9 19.3-143.5z m-44.1 118.1c-12.4 12-28 19.9-44.8 23.2V487.2c0-3.6-3-6.6-6.6-6.6h-22c-3.6 0-6.6 3-6.6 6.6v132.5c-16.8-3.3-32.3-11.2-44.7-23.2-28.2-27.2-34.1-69.3-14-102.6l69.6-115.4c2.1-3.3 5.3-3.7 6.8-3.7 1.2 0 4.6 0.2 6.8 3.7l69.6 115.4c19.7 33.2 14.1 75.3-14.1 102.6zM537.4 431H519c-13 0-23.6-10.6-23.6-23.6 0-13 10.6-23.6 23.6-23.6h18.4c13 0 23.6 10.6 23.6 23.6 0 13-10.6 23.6-23.6 23.6zM634.9 535H566c-13 0-23.6-10.6-23.6-23.6 0-13 10.6-23.6 23.6-23.6h68.9c13 0 23.6 10.6 23.6 23.6 0 13-10.6 23.6-23.6 23.6zM635.4 640h-68.9c-13 0-23.6-10.6-23.6-23.6 0-13 10.6-23.6 23.6-23.6h68.9c13 0 23.6 10.6 23.6 23.6 0 13-10.6 23.6-23.6 23.6zM256.9 381.4v-16.7c0-12.8 10.5-23.3 23.3-23.3s23.3 10.5 23.3 23.3v16.7c0 12.8-10.5 23.3-23.3 23.3s-23.3-10.5-23.3-23.3zM256.9 687.4v-16.7c0-12.8 10.5-23.3 23.3-23.3s23.3 10.5 23.3 23.3v16.7c0 12.8-10.5 23.3-23.3 23.3s-23.3-10.5-23.3-23.3z" fill="#FFFFFF" p-id="9114"></path><path d="M474 167h238v89H474z" fill="#4AAF47" p-id="9115"></path></svg>