<?xml version="1.0" encoding="utf-8"?>
<!-- Generator: Adobe Illustrator 22.0.0, SVG Export Plug-In . SVG Version: 6.00 Build 0)  -->
<svg version="1.1" id="图层_1" xmlns="http://www.w3.org/2000/svg" xmlns:xlink="http://www.w3.org/1999/xlink" x="0px" y="0px"
	 viewBox="0 0 1024 1024" style="enable-background:new 0 0 1024 1024;" xml:space="preserve">
<style type="text/css">
	.st0{fill:#FFFFFF;stroke:#AAAAAA;stroke-width:5;stroke-miterlimit:10;}
	.st1{fill:#C9493F;}
</style>
<circle class="st0" cx="512" cy="510.5" r="447.5"/>
<g>
	<g>
		<path class="st1" d="M210.6,504.7c0-17.6,4.5-31.2,13.3-40.9c8.8-9.7,21.2-14.7,37-14.7c16.2,0,28.7,4.8,37.5,14.4
			c8.8,9.6,13.2,23.1,13.2,40.3c0,12.6-1.9,22.8-5.7,30.9c-3.8,8-9.4,14.3-16.6,18.7c-7.2,4.5-16.3,6.7-27.1,6.7
			c-11,0-20.1-1.9-27.3-5.8c-7.2-3.9-13-10-17.5-18.3C212.8,527.7,210.6,517.2,210.6,504.7z M240.7,504.9c0,10.9,1.8,18.6,5.5,23.4
			c3.6,4.8,8.6,7.1,14.9,7.1c6.5,0,11.5-2.3,15-7c3.6-4.6,5.3-12.9,5.3-25c0-10.1-1.8-17.5-5.5-22.2s-8.7-7-15-7
			c-6.1,0-10.9,2.4-14.6,7.1C242.5,486.1,240.7,493.9,240.7,504.9z"/>
		<path class="st1" d="M328.1,558.3V450.9h50.1c9.3,0,16.4,0.9,21.3,2.6c4.9,1.8,8.9,5,11.9,9.7c3,4.8,4.5,10.6,4.5,17.4
			c0,6-1.1,11.1-3.4,15.4c-2.3,4.3-5.5,7.8-9.5,10.5c-2.6,1.7-6.1,3.1-10.6,4.2c3.6,1.3,6.2,2.6,7.8,3.9c1.1,0.9,2.7,2.8,4.8,5.7
			c2.1,2.9,3.5,5.1,4.2,6.7l14.6,31.1h-33.9l-16.1-32.8c-2-4.2-3.8-7-5.5-8.3c-2.2-1.6-4.7-2.5-7.4-2.5h-2.6v43.6H328.1z
			 M358.4,494.5h12.7c1.3,0,4-0.5,8-1.5c2-0.4,3.6-1.6,4.9-3.3c1.3-1.8,1.9-3.9,1.9-6.2c0-3.5-1-6.1-3-8c-2-1.9-5.7-2.8-11.2-2.8
			h-13.2L358.4,494.5L358.4,494.5z"/>
		<path class="st1" d="M493.5,540.6h-34.1l-4.7,17.7h-30.7l36.6-107.4h32.8l36.6,107.4h-31.5L493.5,540.6z M487.2,517.4l-10.7-38.6
			l-10.7,38.6H487.2z"/>
		<path class="st1" d="M601.8,514.4l26.4,8.8c-1.8,8.2-4.6,15-8.4,20.5c-3.8,5.5-8.6,9.6-14.2,12.4c-5.7,2.8-12.8,4.2-21.5,4.2
			c-10.6,0-19.2-1.7-25.9-5.1c-6.7-3.4-12.5-9.4-17.3-17.9c-4.9-8.6-7.3-19.5-7.3-32.8c0-17.8,4.3-31.4,12.9-40.9
			c8.6-9.5,20.7-14.3,36.4-14.3c12.3,0,21.9,2.8,28.9,8.2c7,5.5,12.2,13.8,15.7,25.2l-26.6,6.5c-0.9-3.3-1.9-5.7-2.9-7.1
			c-1.7-2.5-3.7-4.5-6.2-5.9c-2.4-1.3-5.1-2.1-8.2-2.1c-6.8,0-12.1,3.1-15.7,9.1c-2.8,4.5-4.1,11.5-4.1,21.1
			c0,11.9,1.6,20.1,4.9,24.5c3.3,4.4,7.9,6.6,13.8,6.6c5.7,0,10.1-1.8,13-5.4C598.3,526.4,600.4,521.2,601.8,514.4z"/>
		<path class="st1" d="M642.8,450.9h30.1v80.9h47v26.4h-77.1V450.9z"/>
		<path class="st1" d="M733.4,450.9h80.6v22.9h-50.5v17h46.8v21.9h-46.8V534h52v24.3h-82.1V450.9z"/>
	</g>
	<path class="st1" d="M288.9,412.5c23.2-44.5,62.8-73.7,107.6-73.7h236.4c44.7,0,84.1,29.2,107.2,73.7h70.4
		C780.3,325.9,708.2,265,624.1,265l0,0H401.7c-84.1-0.1-156.2,60.9-186.4,147.5H288.9z"/>
	<path class="st1" d="M748.6,593.3c-6.2,16.3-14.5,31.2-24.6,44.3l0.1,0.1c-24.2,31-57,48.4-91.1,48.4H396.5
		c-51,0.1-95.1-37.8-116.2-92.8h-69.8C237.2,687.9,312.8,756,401.7,756l0,0h222.4c89,0.1,164.5-68.1,191.2-162.7H748.6z"/>
</g>
</svg>
