<?xml version="1.0" encoding="utf-8"?>
<!-- Generator: Adobe Illustrator 22.0.0, SVG Export Plug-In . SVG Version: 6.00 Build 0)  -->
<svg version="1.1" id="图层_1" xmlns="http://www.w3.org/2000/svg" xmlns:xlink="http://www.w3.org/1999/xlink" x="0px" y="0px"
	 viewBox="0 0 1024 1024" style="enable-background:new 0 0 1024 1024;" xml:space="preserve">
<style type="text/css">
	.st0{fill:#FFFFFF;stroke:#AAAAAA;stroke-width:5;stroke-miterlimit:10;}
	.st1{display:none;fill:#4AAF47;}
	.st2{fill:#8492A6;}
	.st3{fill:#2F638F;}
</style>
<circle class="st0" cx="512" cy="510.5" r="447.5"/>
<path class="st1" d="M767.7,730.3c0,20.8-16.9,37.7-37.7,37.7l-435.8-0.4c-20.8,0-37.6-16.9-37.6-37.6l-0.3-435.9
	c0-20.8,16.9-37.7,37.7-37.7h321.1c2.5-0.9,5.1-1.4,7.9-1.4s5.4,0.5,7.9,1.4h11.7c10,0,19.6,4,26.6,11l87.5,87.6
	c7.1,7.1,11,16.7,11,26.6L767.7,730.3z"/>
<g>
	<path class="st2" d="M227.7,305.6"/>
	<path class="st3" d="M473.5,580.4c5-12.8,9.3-25,14.6-36.2c12-25.3,19.2-51.6,16.6-79.2c-1.7-18-4-35.9-8.3-53.3
		c-6.3-25.3-27.8-35-52.7-33.4c-16.3,1.3-31.5,6.4-45.8,13.2c-1,0.6-2.3,1-4.7,1.9c0.3-5.2,0.7-9.3,1.3-13.5
		c3.3-23.1,9.3-45.6,20.5-66.4c19.9-37.2,51.7-57.8,95.4-59.1c31.2-1,61.3,4.8,88.8,19.6c40.4,21.8,68.6,54.5,86.2,95.9
		c2.3,5.5,1.7,5.5-4.7,5.8c-11.3,0.3-22.5,0.3-33.5,2.3c-22.2,4.5-35.4,21.5-35.8,43.7c-0.3,17,4.7,33.1,10.6,49.1
		c9.9,25.7,24.2,49.4,37.5,73.5c6.9,12.5,14.9,24,22.5,36.6c-1,0.3-2.6,1.6-4.3,2.3c-12,5.2-18.2,14.1-19.9,26
		c-3.3,29.2-5.9,58.8-9.6,87.9c-2.3,19.3-5.6,38.5-9.6,57.8c-4.7,23.4-20.2,37.2-43.4,43.3c-8.6,2.3-17.9,4.2-26.9,4.8
		c-20.2,1.6-34.8-7.7-44.1-25c-6.3-11.9-8.3-24.4-9.3-37.2c-3.3-40.4-3.3-81.2-2.3-121.6c0.3-13.5-5-24.7-16.9-32.1
		c-5-3.2-11.3-3.9-16.9-5.8C478.2,580.4,476.5,580.8,473.5,580.4z"/>
	<path class="st3" d="M391.8,576c-4.9,5.8-9.9,11.2-14.8,17c-9.9,11.9-19.8,23.7-29.7,35.3c-3.4,3.9-6.8,7.4-10.9,10.2
		c-7.1,5.2-14.3,4.5-21.4-0.6c-10.2-7.1-16.7-17.7-22.6-28.2c-16.4-29.5-26.9-61.6-36.2-94c-11.2-38.5-20.5-77.7-25.8-117.5
		c-3.7-28.6-3.1-57.1,6.8-84.4c7.5-21.2,20.5-37.5,40.2-47.2c10.9-5.5,22.6-8.3,34.7-9.9c30.1-3.6,59.2,1.9,88.3,9.9
		c2.5,0.6,4.7,1.9,6.8,2.6c4.7,0.6,3.4,2.3,1.5,5.2c-6.8,9.6-14.3,19-19.8,29.5c-12.8,23.4-19,49.4-22.3,76
		c-2.5,19.3-1.5,38.2-1.3,57.5c0.3,19.3-1.3,38.2-2.5,57.5c-2.2,30.2,4.9,56.8,26.7,78.3C390,573.7,390.7,574.7,391.8,576z"/>
	<path class="st3" d="M614.3,252.2c4.8-1,8.1-2.3,11.3-2.6c13.7-1,27.8-2.6,41.5-1.9c27.5,1.6,53.5,9.3,75.9,27.6
		c9.8,8,18.5,17.7,26.9,27.9c6.6,8,7.2,19,7.5,29.5c0.9,32.1-5.3,62.9-14,93.7c-12.8,47.2-31.6,91.4-55.6,133.5
		c-0.6,1-0.9,2.3-1.8,2.9c-0.9,0.6-2.1,1-3,1.3c0-1.3-0.6-2.6-0.3-3.6c1.8-4.8,4.2-9.6,5.9-14.4c5.3-15.4,6.3-31.8,5.1-48.1
		c-1.5-19-3-37.8-3-56.8c0-12.5,3.3-25,4.2-37.8c1.2-12.8,0.9-25.3-3.9-37.5c-6.6-16.4-14-32.1-23.9-46.9
		c-16.4-24.7-36.4-45-61.3-60C622.7,257,619.1,255.1,614.3,252.2z"/>
	<path class="st3" d="M475.4,476.3c0-19.3-2.5-35.4-6.2-51.2c-1.9-8.4-7.1-14.7-16.3-16.3c-4.8-0.8-10.1-1.6-14.6-0.5
		c-9.9,1.9-19.7,4.7-29,8.2c-14,5.5-14,8.2-13.8,22.3c0.6,16.9,0,34-1.7,50.9c-1.7,17.4,0,33.8,10.7,48.2
		c10.1,13.6,23.4,22.9,41.6,23.4c2.5,0.2,3.6-0.9,4.5-3.3c3.6-10.4,7.4-20.7,11.8-30.7C470.3,510,476.5,492.4,475.4,476.3z
		 M455.7,433.6c-10.9,10-23.2,4.2-28.8-4.8c-3-5.2,0-9.6,6.9-10.9c1.7-0.3,3.3-0.6,5-0.6c0.2-0.2,0.2-0.1,0.1,0
		c5.9,0.6,10.5,2.3,15.1,4.1C460,424.3,460.6,429.1,455.7,433.6z"/>
	<path class="st3" d="M685.4,409.6c0.6-4.5-0.2-5.2-4.6-5.2c-6.2,0-12.3-0.5-18.3,0c-13.6,1-23.1,7.5-23.4,21.6
		c-0.3,11.2,2.6,22.1,7.2,32.1c8.5,17.8,17.7,35.1,26.7,52.7c1.8,3.3,3.6,6.7,5.4,9.9c0.6,0,1,0,1.3,0.5c1.3-3.5,2.6-6.7,3.3-9.9
		c3.1-13.9,1.3-28.1-0.6-42c-1.6-13.2-1.8-26.6,0.2-40C683.9,422.6,684.6,416.1,685.4,409.6z M670.7,428.1
		c-5.9,5.5-15.3,4.5-21.2-1.3c-3.6-3.9-3.3-8,1.7-9.9c4.3-1.9,9.6-2.9,14.2-4.2c4.7,0.9,10.6,0.6,11,5.5
		C677,421.4,673.7,425.5,670.7,428.1z"/>
	<path class="st3" d="M423.7,651.3c-9.3-1.9-17.8-2.2-27-4.1c-1.3-0.3-2.3-1.9-3.6-2.9c1.3-1,2.3-2.3,4-2.6c8-2.3,15.9-4.2,23.9-6.1
		c12.3-2.9,21.2-9.6,28.8-19c3.3-4.2,6.9-8,10.6-11.9c5.3-5.8,12-5.8,17.2,0c6.9,7.7,7.3,15.1,0.7,22.8
		c-13.9,16.1-31.5,24.7-53.7,23.7C423.5,651.3,424.8,651.3,423.7,651.3z"/>
	<path class="st3" d="M773.3,608.8c-1.3,1.3-2.6,2.9-4,3.9c-10.9,7.7-23.2,12.8-36.4,15.4c-14.9,2.9-30.2,4.2-45.4,2.3
		c-9-1.3-10.3-2.9-9-11.5c1.7-9.9,5.6-14.4,15.9-16.4c1.7-0.3,4,0,5.3,1c14.6,8.3,30.5,8.6,46.7,7.4c9-0.6,17.5-1.9,26.5-3.2
		C772.6,608.1,772.9,608.5,773.3,608.8z"/>
</g>
</svg>
