<?xml version="1.0" standalone="no"?><!DOCTYPE svg PUBLIC "-//W3C//DTD SVG 1.1//EN" "http://www.w3.org/Graphics/SVG/1.1/DTD/svg11.dtd"><svg t="1599190030700" class="icon" viewBox="0 0 1024 1024" version="1.1" xmlns="http://www.w3.org/2000/svg" p-id="12555" xmlns:xlink="http://www.w3.org/1999/xlink" width="18" height="18"><defs><style type="text/css"></style></defs><path d="M512.3 512.3m-448.8 0a448.8 448.8 0 1 0 897.6 0 448.8 448.8 0 1 0-897.6 0Z" fill="#4AAF47" p-id="12556"></path><path d="M728.2 258H289.5c-21.9 0-36.6 14.6-36.6 36.6v438.7c0 21.9 14.6 36.6 36.6 36.6h438.7c21.9 0 36.6-14.6 36.6-36.6V294.6c0-22-14.6-36.6-36.6-36.6z m-15 460.2H304.6V309.6h408.5v408.6z" fill="#FFFFFF" p-id="12557"></path><path d="M540.9 350.2h138.9v138.9H540.9z" fill="#FFFFFF" p-id="12558"></path><path d="M576 385.3h68.8v68.8H576z" fill="#4AAF47" p-id="12559"></path><path d="M420.3 602.5m-73.1 0a73.1 73.1 0 1 0 146.2 0 73.1 73.1 0 1 0-146.2 0Z" fill="#FFFFFF" p-id="12560"></path><path d="M500.7 401.4l-54.8-10.9-25.6-47.6-25.6 47.6-54.8 10.9 40.2 40.2-11 54.9 51.2-25.6 51.2 25.6-11-54.9z" fill="#FFFFFF" p-id="12561"></path><path d="M436.2 443.6l-15.9-8-15.9 8 3.4-17.1-12.5-12.5 17-3.4 8-14.8 8 14.8 17 3.4-12.5 12.5z" fill="#4AAF47" p-id="12562"></path><path d="M647 609.8L610.4 544l-36.6 65.8-36.5 65.8h146.2z" fill="#FFFFFF" p-id="12563"></path><path d="M588.1 646.5l11.2-20 11.1-20.1 11.1 20.1 11.2 20z" fill="#4AAF47" p-id="12564"></path><path d="M420.3 602.5m-29.3 0a29.3 29.3 0 1 0 58.6 0 29.3 29.3 0 1 0-58.6 0Z" fill="#4AAF47" p-id="12565"></path></svg>