<?xml version="1.0" encoding="utf-8"?>
<!-- Generator: Adobe Illustrator 22.0.0, SVG Export Plug-In . SVG Version: 6.00 Build 0)  -->
<svg version="1.1" id="图层_1" xmlns="http://www.w3.org/2000/svg" xmlns:xlink="http://www.w3.org/1999/xlink" x="0px" y="0px"
	 viewBox="0 0 1024 1024" style="enable-background:new 0 0 1024 1024;" xml:space="preserve">
<style type="text/css">
	.st0{fill:#FFFFFF;stroke:#AAAAAA;stroke-width:5;stroke-miterlimit:10;}
	.st1{fill:#909CA9;}
	.st2{fill:#D64949;}
</style>
<circle class="st0" cx="512" cy="510.5" r="447.5"/>
<path class="st1" d="M569.3,313.8c-36.6-56.9-52.9-89.5-69.1-97.6c-16.3-8.1-56.9-4-101.6,12.2c-52.9,16.3-85.4,32.5-77.3,56.9
	c8.1,20.4,38.9,30,52.9,32.5c61,48.8,61,126.1,0,235.9c-56.9,20.4-101.6,40.7-130.1,61c-24.4,20.4-40.6,36.6-40.6,56.9
	c0,61,138.2,105.7,268.3,113.9c24.4,0,44.7,4.1,61,4.1c8.1,0,16.3,0,24.4-4.1c61-28.5,65-264.4,65-264.4v-16.3
	c16.3-4.1,36.6-8.1,56.9-12.2c24.4-4,101.6-16.3,101.6-16.3c48.8-8.1,69.1-16.3,73.2-36.6v-8.1C845.7,391.1,731.8,346.4,569.3,313.8
	z M544.9,346.4l73.2,12.2c-8.1,16.3-16.3,28.5-24.4,44.8l-61-12.2C536.7,374.9,540.8,358.6,544.9,346.4z M532.7,501
	c-12.2,4.1-32.5,8.1-44.7,12.2c12.2-24.4,24.4-56.9,36.6-93.6c16.3,4,36.6,8.1,52.9,12.2C565.2,456.2,548.9,476.6,532.7,501z
	 M456.1,412.7c12.2,0,23.3,2.7,33.2,5.1c-12.2,48.8-15.3,70.5-33.2,108.7c-4,4-29.1,11.1-33.2,11.1
	C443.2,492.8,456.1,449.3,456.1,412.7z M431,326.1c18.1,3.5,26.8,4.4,36.3,5.6c15.5,2.4,27.3,3.4,45,6.6l-13.9,50.6
	c-16.9-3.4-26.8-4.3-43.8-5C450.2,362.2,442.6,344.8,431,326.1z M458.7,557.4l37.4-11.7c6.3-2.1,6.2-2.5,16.3-4.1v56.9
	c-24.4,8.1-50.9,19.8-75.3,27.9C445.2,602.1,454.2,578.2,458.7,557.4z M402.6,289.4c-24.4-4-40.6-8.1-44.7-12.2
	c5.6-2.7,2.7-1.7,8.1-4.1c8.1-4,24.4-12.2,44.7-16.3c16.3-4,31.2-9.5,47.5-11.2c13.5-1.9,13.5-1,21.7-1c8.1,4,20.3,24.4,44.7,65.1
	c-20.3-4.1-33.2-6.9-52.9-10.5C457.8,298,410.7,289.4,402.6,289.4z M235.9,675.9c0-8.1,8.1-20.4,28.5-32.5
	c28.5-20.4,73.2-40.7,126-61c13.7-5.8,19.5-9.1,34.5-16.8c-5.1,24-11.2,47.8-22.3,69.7C357.9,647.4,300.9,663.7,235.9,675.9z
	 M268.4,704.3c36.6-8.1,73.2-20.4,109.8-28.5c-12.2,20.4-24.4,40.7-36.6,56.9C309.1,724.7,284.7,716.6,268.4,704.3z M459.5,757.2
	L374.1,745c20.3-28.5,36.6-52.9,48.8-77.3c27.7-7.7,54.9-17.2,81.3-28.5c-0.4,4.7-3.1,11.3-4.1,16.3
	C496.1,675.9,479.8,708.4,459.5,757.2z M544.9,753.1c-4.8,2.4-2.4,2.4-12.2,4.1c-12,2.1-24.4,4-36.6,4
	c20.3-40.7,28.5-73.2,36.6-97.6c4.1-12.2,8.1-28.5,12.2-44.8l8.1-4c8.1-4.1,20.3-8.1,28.5-12.2C581.4,659.6,569.3,741,544.9,753.1z
	 M589.6,562c-12.7,8.4-26.3,15.2-40.6,20.4c0-20.4,0-36.6-4-52.9c5.6-3.6,8.1-4.1,8.1-4.1c9.5-3.4,19-5.1,36.6-8.1L589.6,562
	L589.6,562z M585.5,484.7c8.1-16.3,16.3-28.5,24.4-44.8c24.4,4.1,54.1,10.8,74.4,19C655.9,467,614,476.6,585.5,484.7z M776.6,448.1
	c-12.2,0-24.4,4.1-36.6,4.1c-35.7-14.6-72.4-26.9-109.8-36.6c8.1-16.3,12.2-28.5,20.3-44.8c40.6,12.2,73.2,20.4,101.6,32.5
	c24.4,8.1,44.7,16.3,56.9,24.4c8.1,4,12.2,4,12.2,8.1C817.2,439.9,805,444,776.6,448.1z"/>
<path class="st2" d="M780.5,476.7c48.8-8.1,69.1-16.3,73.2-36.6v-8.1c-8.1-40.7-122-85.4-284.6-118l-40.6-4l-4.9-1.5
	c0.3,0.5,0.5,0.9,0.9,1.5c-20.3-4.1-33.2-6.9-52.9-10.5c-13.9-1.3-61-9.9-69.1-9.9c-3.6-0.6-6.6-1.2-9.8-1.8l-17.4,31.6
	C434.8,368.2,434.4,445,374,554c-0.2,0.1-0.5,0.2-0.7,0.3l9.2,31.3c2.7-1,5.1-2.1,7.8-3.2c13.7-5.8,19.5-9.1,34.5-16.8L547.5,528
	c3.3-1.8,5.4-2.6,5.4-2.6c5.8-2.1,11.8-3.5,19.4-5l49.8-15.3c16.3-4.1,36.6-8.1,56.9-12.2C703.3,488.9,780.5,476.7,780.5,476.7z
	 M650.4,370.9c40.6,12.2,73.2,20.4,101.6,32.5c24.4,8.1,44.7,16.3,56.9,24.4c8.1,4,12.2,4,12.2,8.1c-4.1,4.1-16.3,8.2-44.7,12.2
	c-12.2,0-24.4,4.1-36.6,4.1c-35.7-14.6-72.4-26.9-109.8-36.6C638.2,399.4,642.2,387.2,650.4,370.9z M544.7,346.5l73.2,12.2
	c-8.1,16.3-16.3,28.5-24.4,44.8l-61-12.2C536.6,375,540.6,358.7,544.7,346.5z M467.2,331.8c15.5,2.4,27.3,3.4,45,6.6l-13.9,50.6
	c-16.9-3.4-26.8-4.3-43.8-5c-4.5-21.6-12.1-39-23.7-57.7C449,329.7,457.6,330.6,467.2,331.8z M422.7,537.7
	c20.3-44.8,33.2-88.3,33.2-124.9c12.2,0,23.3,2.7,33.2,5.1c-12.2,48.8-15.3,70.5-33.2,108.7C451.9,530.6,426.8,537.7,422.7,537.7z
	 M532.5,501.1c-12.2,4.1-32.5,8.1-44.7,12.2c12.2-24.4,24.4-56.9,36.6-93.6c16.3,4,36.6,8.1,52.9,12.2
	C565,456.3,548.8,476.7,532.5,501.1z M585.4,484.8c8.1-16.3,16.3-28.5,24.4-44.8c24.4,4.1,54.1,10.8,74.4,19
	C655.7,467.1,613.8,476.7,585.4,484.8z"/>
</svg>
