<?xml version="1.0" encoding="utf-8"?>
<!-- Generator: Adobe Illustrator 18.0.0, SVG Export Plug-In . SVG Version: 6.00 Build 0)  -->
<!DOCTYPE svg PUBLIC "-//W3C//DTD SVG 1.1//EN" "http://www.w3.org/Graphics/SVG/1.1/DTD/svg11.dtd">
<svg version="1.1" xmlns="http://www.w3.org/2000/svg" xmlns:xlink="http://www.w3.org/1999/xlink" x="0px" y="0px"
	 viewBox="0 0 1024 1024" enable-background="new 0 0 1024 1024" xml:space="preserve">
<g id="图层_6">
</g>
<g id="图层_1" display="none">
	<circle fill="none" cx="512.1" cy="511.9" r="448.1"/>
	<path display="inline" fill="#333333" d="M951.5,602.7"/>
	<rect x="192" y="199" display="inline" fill="none" width="819.8" height="820.7"/>
	<path fill="#4AAF47" d="M799.3,192H224.9c-18,0-32.8,14.8-32.8,32.8v574.5c0,18,14.8,32.8,32.8,32.8h574.5
		c18,0,32.8-14.8,32.8-32.8V224.9C832.2,206.8,817.4,192,799.3,192z M384.3,756.5c0,6.6-5.4,12-12,12H268c-6.6,0-12-5.4-12-12V651.3
		c0-6.6,5.4-12,12-12h104.2c6.6,0,12,5.4,12,12V756.5z M384.3,563.8c0,6.6-5.4,12-12,12H268c-6.6,0-12-5.4-12-12V460.5
		c0-6.6,5.4-12,12-12h104.2c6.6,0,12,5.4,12,12V563.8z M384.3,371.7c0,6.6-5.4,12-12,12H268c-6.6,0-12-5.4-12-12V267.6
		c0-6.6,5.4-12,12-12h104.2c6.6,0,12,5.4,12,12V371.7z M576.3,756.2c0,6.6-5.4,12-12,12H460.1c-6.6,0-12-5.4-12-12V651
		c0-6.6,5.4-12,12-12h104.2c6.6,0,12,5.4,12,12V756.2z M576.3,564.2c0,6.6-5.4,12-12,12H460.1c-6.6,0-12-5.4-12-12v-104
		c0-6.6,5.4-12,12-12h104.2c6.6,0,12,5.4,12,12V564.2z M576.3,371.7c0,6.6-5.4,12-12,12H460.1c-6.6,0-12-5.4-12-12V267.6
		c0-6.6,5.4-12,12-12h104.2c6.6,0,12,5.4,12,12V371.7z M768.7,756.9c0,6.6-5.4,12-12,12H651.9c-6.6,0-12-5.4-12-12V651.7
		c0-6.6,5.4-12,12-12h104.8c6.6,0,12,5.4,12,12V756.9z M768.7,564.2c0,6.6-5.4,12-12,12H651.9c-6.6,0-12-5.4-12-12V460.9
		c0-6.6,5.4-12,12-12h104.8c6.6,0,12,5.4,12,12V564.2z M768.7,371.7c0,6.6-5.4,12-12,12H651.9c-6.6,0-12-5.4-12-12V267.6
		c0-6.6,5.4-12,12-12h104.8c6.6,0,12,5.4,12,12V371.7z"/>
	<path display="inline" fill="#333333" d="M894.8,503"/>
	<rect x="57.4" y="88.2" display="inline" fill="none" width="893.4" height="896.7"/>
	<path display="inline" fill="#4AAF47" d="M445.9,62.6H98.6c-18.9,0-34.3,15.4-34.3,34.3v347.4c0,18.9,15.4,34.3,34.3,34.3h347.4
		c18.9,0,34.3-15.4,34.3-34.3V96.9C480.2,78.1,464.8,62.6,445.9,62.6z M415.1,395.3c0,10.5-8.6,19.1-19.1,19.1H148.5
		c-10.5,0-19.1-8.6-19.1-19.1V145.9c0-10.5,8.6-19.1,19.1-19.1H396c10.5,0,19.1,8.6,19.1,19.1V395.3z"/>
	<path display="inline" fill="#4AAF47" d="M924,63.6H576.7c-18.9,0-34.3,15.4-34.3,34.3v347.4c0,18.9,15.4,34.3,34.3,34.3H924
		c18.9,0,34.3-15.4,34.3-34.3V97.9C958.4,79.1,942.9,63.6,924,63.6z M893.2,396.3c0,10.5-8.6,19.1-19.1,19.1H626.6
		c-10.5,0-19.1-8.6-19.1-19.1V146.9c0-10.5,8.6-19.1,19.1-19.1h247.4c10.5,0,19.1,8.6,19.1,19.1V396.3z"/>
	<path display="inline" fill="#4AAF47" d="M446,543.5H98.6c-18.9,0-34.3,15.4-34.3,34.3v347.4c0,18.9,15.4,34.3,34.3,34.3H446
		c18.9,0,34.3-15.4,34.3-34.3V577.8C480.3,558.9,464.9,543.5,446,543.5z M415.1,876.2c0,10.5-8.6,19.1-19.1,19.1H148.6
		c-10.5,0-19.1-8.6-19.1-19.1V626.8c0-10.5,8.6-19.1,19.1-19.1H396c10.5,0,19.1,8.6,19.1,19.1V876.2z"/>
	<path display="inline" fill="#4AAF47" d="M924.1,543.5H576.8c-18.9,0-34.3,15.4-34.3,34.3v347.4c0,18.9,15.4,34.3,34.3,34.3h347.4
		c18.9,0,34.3-15.4,34.3-34.3V577.8C958.5,558.9,943,543.5,924.1,543.5z M893.3,876.2c0,10.5-8.6,19.1-19.1,19.1H626.7
		c-10.5,0-19.1-8.6-19.1-19.1V626.8c0-10.5,8.6-19.1,19.1-19.1h247.4c10.5,0,19.1,8.6,19.1,19.1V876.2z"/>
</g>
<g id="图层_22" display="none">
	<path fill="#4AAF47" d="M445.9,63.6H98.6c-18.9,0-34.3,15.4-34.3,34.3v347.4c0,18.9,15.4,34.3,34.3,34.3h347.4
		c18.9,0,34.3-15.4,34.3-34.3V97.9C480.2,79,464.8,63.6,445.9,63.6z M415.1,396.3c0,10.5-8.6,19.1-19.1,19.1H148.5
		c-10.5,0-19.1-8.6-19.1-19.1V146.8c0-10.5,8.6-19.1,19.1-19.1h247.4c10.5,0,19.1,8.6,19.1,19.1V396.3z"/>
	<path fill="#4AAF47" d="M446,543.4H98.6c-18.9,0-34.3,15.4-34.3,34.3v347.4c0,18.9,15.4,34.3,34.3,34.3H446
		c18.9,0,34.3-15.4,34.3-34.3V577.8C480.3,558.9,464.9,543.4,446,543.4z M415.1,876.2c0,10.5-8.6,19.1-19.1,19.1H148.6
		c-10.5,0-19.1-8.6-19.1-19.1V626.7c0-10.5,8.6-19.1,19.1-19.1H396c10.5,0,19.1,8.6,19.1,19.1V876.2z"/>
	<path display="inline" fill="#4AAF47" d="M925.1,543.4H577.8c-18.9,0-34.3,15.4-34.3,34.3v347.4c0,18.9,15.4,34.3,34.3,34.3h347.4
		c18.9,0,34.3-15.4,34.3-34.3V577.8C959.5,558.9,944,543.4,925.1,543.4z M894.3,876.2c0,10.5-8.6,19.1-19.1,19.1H627.7
		c-10.5,0-19.1-8.6-19.1-19.1V626.7c0-10.5,8.6-19.1,19.1-19.1h247.4c10.5,0,19.1,8.6,19.1,19.1V876.2z"/>
	<path display="inline" fill="#4AAF47" d="M272,543.8c-114.8,0-207.9,93.1-207.9,207.9S157.2,959.5,272,959.5
		s207.9-93.1,207.9-207.9S386.8,543.8,272,543.8z M272,894.6c-79,0-143-64-143-143s64-143,143-143s143,64,143,143
		S351,894.6,272,894.6z"/>
	<path display="inline" fill="#4AAF47" d="M955.7,404.2L775.8,92.6c-11.1-19.3-39-19.3-50.1,0L545.8,404.2
		c-11.1,19.3,2.8,43.4,25.1,43.4h359.8C952.9,447.7,966.9,423.5,955.7,404.2z M872.7,393.8H628.8c-6.7,0-10.8-7.2-7.5-13
		l121.9-211.2c3.3-5.8,11.6-5.8,15,0l121.9,211.2C883.5,386.6,879.3,393.8,872.7,393.8z"/>
	<path display="inline" fill="#4AAF47" d="M470.9,424.7l-153-153l152.6-152.6c12.5-12.5,12.5-32.8,0-45.3l0,0
		c-12.5-12.5-32.8-12.5-45.3,0L272.7,226.4l-152-152C108.2,62,87.8,62,75.4,74.5h0c-12.5,12.5-12.5,32.8,0,45.3l152,152L75.1,424
		c-12.5,12.5-12.5,32.8,0,45.3h0c12.5,12.5,32.8,12.5,45.3,0L272.7,317l153,153c12.5,12.5,32.8,12.5,45.3,0v0
		C483.4,457.5,483.4,437.2,470.9,424.7z"/>
</g>
<g id="图层_2" display="none">
	<path display="inline" fill="#EFC461" d="M603.5,63.9H100.6c-20.2,0-36.5,16.4-36.5,36.5v118.9c0,20.2,16.4,36.5,36.5,36.5h502.9
		c20.2,0,36.5-16.4,36.5-36.5V100.5C640.1,80.3,623.7,63.9,603.5,63.9z"/>
	<path display="inline" fill="#EFC461" d="M922.9,191.9h-822c-20.2,0-36.5,16.4-36.5,36.5v695.9c0,20.2,16.4,36.5,36.5,36.5h822
		c20.2,0,36.5-16.4,36.5-36.5V228.5C959.4,208.3,943.1,191.9,922.9,191.9z M866.5,385.3c0,15.4-12.6,28-28,28H191
		c-15.4,0-28-12.6-28-28v-71.8c0-15.4,12.6-28,28-28h647.5c15.4,0,28,12.6,28,28V385.3z"/>
</g>
<g id="图层_3" display="none">
	<path display="inline" fill="#4AAF47" stroke="#FFFFFF" stroke-width="63" stroke-miterlimit="10" d="M706.2,779.5"/>
	<path display="inline" fill="#3A3633" d="M403.4,688.7"/>
	<path display="inline" fill="#4AAF47" d="M652.8,721.9c-18.2-0.2-32.8-14.9-32.9-33.1c0-18.2,14.6-33,32.8-33.2h163
		c78.9-0.7,142.4-64.8,142.4-143.6c0-78.9-63.6-143-142.5-143.7h-163c-11.9,0.1-23.1-6.2-29-16.4c-6-10.4-6-23.1,0-33.3
		c6-10.4,17-16.6,28.9-16.5h163c115.3,0.8,208.5,94.5,208.4,209.9c0,115.3-93.1,209.1-208.4,209.9"/>
	<path display="inline" fill="#4AAF47" d="M404.4,688.7c0,18.3-14.8,33.1-33.1,33.1l-158.6-0.1C96.8,721.9,2.8,627.9,2.8,511.9
		C2.8,396,96.9,302,212.7,302l158.6,0.1c11.9-0.1,23.1,6.2,29,16.4c6,10.4,6,23.1-0.1,33.4c-6,10.4-17,16.6-29,16.4H212.6
		c-51.8-0.9-100.1,26.3-126.3,71.1c-26.2,44.9-26.2,100.1,0,145c26.2,44.9,74.5,72,126.3,71.1l158.6-0.1c8.8,0,17.3,3.5,23.4,9.6
		C400.9,671.5,404.4,679.9,404.4,688.7L404.4,688.7z"/>
	<path fill="#4AAF47" d="M703.9,543.7H320.3c-17.7,0-32.2-14.5-32.2-32.3v0c0-17.7,14.5-32.2,32.2-32.2h383.6
		c17.7,0,32.3,14.5,32.3,32.2v0C736.1,529.2,721.6,543.7,703.9,543.7z"/>
</g>
<g id="图层_23" display="none">
	<g display="inline">
		<path fill="#4AAF47" d="M413,712.9H256.1C162.3,712.9,66,630,66,512.4c0-109.7,99.2-200.5,190.1-200.5h156.7
			c33.5,0,60.5,4.9,60.5-29.9c0-34.8-27.1-33.9-60.5-33.9H256.1C116,248,2,366.7,2,512.4c0,145.7,114,264.4,254,264.4H413
			c33.4,0,60.5,2.9,60.5-31.9C473.5,710.1,446.4,712.9,413,712.9z"/>
		<path fill="#4AAF47" d="M767.6,248.9H610.7c-33.4,0-60.5-2.9-60.5,31.9c0,34.8,27.1,31.9,60.5,31.9h156.9
			c93.8,0,190.1,82.9,190.1,200.5c0,109.7-99.2,200.5-190.1,200.5H610.9c-33.5,0-60.5-4.9-60.5,29.9c0,34.8,27.1,33.9,60.5,33.9
			h156.7c140,0,254-118.7,254-264.4C1021.6,367.6,907.6,248.9,767.6,248.9z"/>
		<path fill="#4AAF47" d="M288.1,511.4L288.1,511.4c0,17.7,14.5,32.3,32.3,32.3h383.6c17.7,0,32.3-14.5,32.3-32.2v0
			c0-17.7-14.5-32.3-32.3-32.3H320.3C302.6,479.2,288.1,493.7,288.1,511.4z"/>
	</g>
</g>
<g id="图层_4" display="none">
	<path display="inline" d="M714.7,481.3c0-0.1,0-0.1,0-0.2V216.3c0-3.7,2-7,5.1-8.8c3.2-1.8,7.1-1.8,10.2,0.1l223.7,132.4
		c6.2,3.7,6.2,13.9,0,17.5L731.6,489c-3,2.7-7.3,3.3-10.9,1.6C717,489,714.7,485.3,714.7,481.3L714.7,481.3z"/>
	<path display="inline" d="M740.8,790c0-0.1,0-0.1,0-0.2V552.9c0-3.3,1.8-6.3,4.6-7.9c2.8-1.6,6.3-1.6,9.1,0.1l200.1,118.5
		c5.5,3.3,5.5,12.4,0,15.7L755.9,796.8c-2.7,2.4-6.5,2.9-9.8,1.5C742.9,796.8,740.8,793.5,740.8,790L740.8,790z"/>
	<path display="inline" stroke="#231815" stroke-miterlimit="10" d="M858.5,710.6H611.6c-21.1,0-38.4-17.3-38.4-38.4v0
		c0-21.1,17.3-38.4,38.4-38.4h246.9c21.1,0,38.4,17.3,38.4,38.4v0C896.9,693.4,879.6,710.6,858.5,710.6z"/>
	<path display="inline" stroke="#231815" stroke-miterlimit="10" d="M859.1,388.7h-238c-21.1,0-38.4-17.3-38.4-38.4v0
		c0-21.1,17.3-38.4,38.4-38.4h238c21.1,0,38.4,17.3,38.4,38.4v0C897.5,371.4,880.2,388.7,859.1,388.7z"/>
	<path display="inline" stroke="#231815" stroke-miterlimit="10" d="M292.6,388.7H102.5c-21.1,0-38.4-17.3-38.4-38.4v0
		c0-21.1,17.3-38.4,38.4-38.4h190.1c21.1,0,38.4,17.3,38.4,38.4v0C331,371.4,313.8,388.7,292.6,388.7z"/>
	<path display="inline" stroke="#231815" stroke-miterlimit="10" d="M295.6,710.6H102.5c-21.1,0-38.4-17.3-38.4-38.4v0
		c0-21.1,17.3-38.4,38.4-38.4h193.1c21.1,0,38.4,17.3,38.4,38.4v0C334,693.4,316.8,710.6,295.6,710.6z"/>
	<path display="inline" d="M354.8,466l-88.4-88.4c-14.9-14.9-14.9-39.4,0-54.3l0,0c14.9-14.9,39.4-14.9,54.3,0l88.4,88.4
		c14.9,14.9,14.9,39.4,0,54.3l0,0C394.2,481,369.8,481,354.8,466z"/>
	<path display="inline" d="M646.6,378.1L324.8,700c-14.9,14.9-39.4,14.9-54.3,0l0,0c-14.9-14.9-14.9-39.4,0-54.3l321.9-321.9
		c14.9-14.9,39.4-14.9,54.3,0l0,0C661.6,338.8,661.6,363.2,646.6,378.1z"/>
	<path display="inline" d="M580.8,699l-82.4-82.4c-14.9-14.9-14.9-39.4,0-54.3l0,0c14.9-14.9,39.4-14.9,54.3,0l82.4,82.4
		c14.9,14.9,14.9,39.4,0,54.3l0,0C620.2,714,595.8,714,580.8,699z"/>
	<path display="inline" d="M714.7,803.3c0-0.1,0-0.1,0-0.2V538.3c0-3.7,2-7,5.1-8.8c3.2-1.8,7.1-1.8,10.2,0.1l223.7,132.4
		c6.2,3.7,6.2,13.9,0,17.5L731.6,811c-3,2.7-7.3,3.3-10.9,1.6C717,811,714.7,807.3,714.7,803.3L714.7,803.3z"/>
</g>
<g id="图层_5" display="none">
	<path display="inline" fill="#4AAF47" d="M896.3,63H128.5c-35.2,0-64,28.8-64,64v767.7c0,35.2,28.8,64,64,64h767.7
		c35.2,0,64-28.8,64-64V127C960.3,91.8,931.5,63,896.3,63z M895.8,858c0,21-17,38-38,38h-692c-21,0-38-17-38-38V166
		c0-20.9,17.1-38,38-38h692c20.9,0,38,17.1,38,38V858z"/>
	<path fill="#4AAF47" d="M512.2,314.7c-17.7,0-32.1,14.5-32.1,32.5c0,17.9,14.4,32.5,32.1,32.5c17.7,0,32.1-14.5,32.1-32.5
		C544.3,329.2,530,314.7,512.2,314.7L512.2,314.7z"/>
	<path display="inline" fill="#4AAF47" d="M338,430.6v-81.6c0-27.4,18.5-42.3,44.7-42.3h38.7c12.2,0,26.3-11.8,26.3-31.9
		c0-19.2-14.1-31.7-26.3-31.7h-38.7c-59.7,0-108.9,46.8-108.9,105.9v81.6c0,31-25.4,47-56.5,50.2c-11,1.1-25.4,14.4-25.4,31.1
		c0,15.9,15.4,31.3,25.6,32.4c31.1,3.3,57,18.7,57,49.6v81.6c0,59.1,48.6,112.4,108.3,112.4h33.7c25.9,0,31.5-17.1,31.5-31.2
		c0-14.1-5.3-31.9-31.5-31.9h-33.7c-27.2,0-44.7-22.2-44.7-49.2v-81.6c0-26-14-49.8-32.7-68.4c-7.4-7.3-7.4-19.2,0-26.6
		C324,480.4,338,456.5,338,430.6L338,430.6z"/>
	<path display="inline" fill="#4AAF47" d="M687.3,596.8v81.6c0,27.4-18.5,42.3-44.7,42.3h-38.7c-12.2,0-26.3,11.8-26.3,31.9
		c0,19.2,14.1,31.7,26.3,31.7h38.7c59.7,0,108.9-46.8,108.9-105.9v-81.6c0-31,25.4-47,56.5-50.2c11-1.1,25.4-14.4,25.4-31.1
		c0-15.9-15.4-31.3-25.6-32.4c-31.1-3.3-57-18.7-57-49.6v-81.6c0-59.1-48.6-112.4-108.3-112.4h-33.7c-25.9,0-31.5,17.1-31.5,31.2
		c0,14.1,5.3,31.9,31.5,31.9h33.7c27.2,0,44.7,22.2,44.7,49.2v81.6c0,26,14,49.8,32.7,68.4c7.4,7.3,7.4,19.2,0,26.6
		C701.3,547,687.3,570.9,687.3,596.8L687.3,596.8z"/>
	<path fill="#4AAF47" d="M448.7,704.6L448.7,704.6c-16.7-5.4-26-23.6-20.6-40.3l104.1-320.5c5.4-16.7,23.6-26,40.3-20.6l0,0
		c16.7,5.4,26,23.6,20.6,40.3L489.1,684C483.6,700.7,465.5,710,448.7,704.6z"/>
	<g>
		<path display="inline" fill="#4AAF47" d="M407.3,367.9L407.3,367.9c12.4,12.4,12.4,32.8,0,45.3L286.8,533.7
			c-12.4,12.4-32.8,12.4-45.3,0l0,0c-12.4-12.4-12.4-32.8,0-45.3L362,367.9C374.5,355.5,394.9,355.5,407.3,367.9z"/>
		<path display="inline" fill="#4AAF47" d="M408.3,654.7L408.3,654.7c-12.4,12.4-32.8,12.4-45.3,0L242.5,534.2
			c-12.4-12.4-12.4-32.8,0-45.3l0,0c12.4-12.4,32.8-12.4,45.3,0l120.5,120.5C420.8,621.9,420.8,642.3,408.3,654.7z"/>
	</g>
	<g>
		<path display="inline" fill="#4AAF47" d="M613.5,654.7L613.5,654.7c-12.4-12.4-12.4-32.8,0-45.3L734,488.9
			c12.4-12.4,32.8-12.4,45.3,0v0c12.4,12.4,12.4,32.8,0,45.3L658.8,654.7C646.3,667.2,626,667.2,613.5,654.7z"/>
		<path display="inline" fill="#4AAF47" d="M612.5,367.9L612.5,367.9c12.4-12.4,32.8-12.4,45.3,0l120.5,120.5
			c12.4,12.4,12.4,32.8,0,45.3v0c-12.4,12.4-32.8,12.4-45.3,0L612.5,413.2C600.1,400.7,600.1,380.4,612.5,367.9z"/>
	</g>
	<path display="inline" fill="#4AAF47" d="M512.1,703.9L512.1,703.9c-17.6,0-32-14.4-32-32V480.4c0-17.6,14.4-32,32-32h0
		c17.6,0,32,14.4,32,32v191.5C544.1,689.5,529.7,703.9,512.1,703.9z"/>
	<path display="inline" fill="#4AAF47" d="M512.1,416.2L512.1,416.2c-17.6,0-32-14.4-32-32v0c0-17.6,14.4-32,32-32h0
		c17.6,0,32,14.4,32,32v0C544.1,401.8,529.7,416.2,512.1,416.2z"/>
</g>
<g id="图层_8" display="none">
	<g display="inline">
		<path fill="#4AAF47" d="M483.5,647.1h-57.8l-23-61.6H297.5l-21.7,61.6h-56.4L321.9,376h56.2L483.5,647.1z M385.7,539.8
			l-36.3-100.6l-35.6,100.6H385.7z"/>
		<path fill="#4AAF47" d="M511.7,647.1V376H597c32.3,0,53.4,1.4,63.2,4.1c15.1,4.1,27.7,12.9,37.9,26.5
			c10.2,13.6,15.3,31.2,15.3,52.8c0,16.6-2.9,30.6-8.8,42c-5.9,11.3-13.3,20.3-22.4,26.7c-9,6.5-18.2,10.8-27.6,12.9
			c-12.7,2.6-31.1,3.9-55.1,3.9h-34.7v102.3H511.7z M564.9,421.8v76.9H594c20.9,0,35-1.4,42-4.3c7.1-2.8,12.6-7.3,16.6-13.3
			c4-6,6-13.1,6-21.1c0-9.9-2.8-18-8.4-24.4c-5.6-6.4-12.8-10.4-21.4-12c-6.3-1.2-19.1-1.8-38.3-1.8H564.9z"/>
		<path fill="#4AAF47" d="M755.4,647.1V376h53.2v271.1H755.4z"/>
	</g>
	<path display="inline" fill="#4AAF47" d="M896.8,64H129c-35.2,0-64,28.8-64,64v767.7c0,35.2,28.8,64,64,64h767.7
		c35.2,0,64-28.8,64-64V128C960.8,92.8,932,64,896.8,64z M896.4,859.1c0,21-17,38-38,38h-692c-21,0-38-17-38-38V167
		c0-20.9,17.1-38,38-38h692c20.9,0,38,17.1,38,38V859.1z"/>
	<g>
		<path display="inline" fill="#4AAF47" d="M224,671.1L224,671.1c-17.6,0-32-14.4-32-32V382.8c0-17.6,14.4-32,32-32h0
			c17.6,0,32,14.4,32,32v256.3C256,656.7,241.6,671.1,224,671.1z"/>
		<path display="inline" fill="#4AAF47" d="M385,670.3L385,670.3c-17.6,0-32-14.4-32-32V382c0-17.6,14.4-32,32-32h0
			c17.6,0,32,14.4,32,32v256.3C417,655.9,402.6,670.3,385,670.3z"/>
		<path display="inline" fill="#4AAF47" d="M416.2,382.9L416.2,382.9c0,17.6-14.4,32-32,32H224.1c-17.6,0-32-14.4-32-32v0
			c0-17.6,14.4-32,32-32h160.1C401.8,350.9,416.2,365.3,416.2,382.9z"/>
		<path display="inline" fill="#4AAF47" d="M417.1,542.9L417.1,542.9c0,17.6-14.4,32-32,32H225c-17.6,0-32-14.4-32-32v0
			c0-17.6,14.4-32,32-32h160.1C402.7,510.9,417.1,525.3,417.1,542.9z"/>
		<path display="inline" fill="#4AAF47" d="M514,672L514,672c-17.6,0-32-14.4-32-32V383.7c0-17.6,14.4-32,32-32h0
			c17.6,0,32,14.4,32,32V640C546,657.6,531.6,672,514,672z"/>
		<path display="inline" fill="#4AAF47" d="M706.1,537.9L706.1,537.9c0,17.6-14.4,32-32,32H514c-17.6,0-32-14.4-32-32v0
			c0-17.6,14.4-32,32-32h160.1C691.7,505.9,706.1,520.3,706.1,537.9z"/>
		<path display="inline" fill="#4AAF47" d="M801,671.1L801,671.1c-17.6,0-32-14.4-32-32V382.8c0-17.6,14.4-32,32-32h0
			c17.6,0,32,14.4,32,32v256.3C833,656.7,818.6,671.1,801,671.1z"/>
		<path display="inline" fill="#4AAF47" d="M706.1,382.9L706.1,382.9c0,17.6-14.4,32-32,32H514c-17.6,0-32-14.4-32-32v0
			c0-17.6,14.4-32,32-32h160.1C691.7,350.9,706.1,365.3,706.1,382.9z"/>
		<path display="inline" fill="#4AAF47" d="M674.4,351.7L674.4,351.7c17.6,0,32,14.4,32,32v153.1c0,17.6-14.4,32-32,32h0
			c-17.6,0-32-14.4-32-32V383.7C642.4,366.1,656.8,351.7,674.4,351.7z"/>
	</g>
</g>
<g id="图层_7" display="none">
	<path fill="#4AAF47" d="M896.4,63.7H128.7c-35.2,0-64,28.8-64,64v767.7c0,35.2,28.8,64,64,64h767.7c35.2,0,64-28.8,64-64V127.7
		C960.4,92.5,931.6,63.7,896.4,63.7z M896,858.7c0,21-17,38-38,38H166c-21,0-38-17-38-38v-692c0-20.9,17.1-38,38-38h692
		c20.9,0,38,17.1,38,38V858.7z"/>
	<path display="inline" fill="#4AAF47" d="M740.3,63.4l-610.8,0.1c-36.5,0-66,29.6-66,66l0.4,763.7c0,36.4,29.5,65.9,65.9,66
		l763.6,0.7c36.5,0,66-29.5,66.1-66l0.2-611c0-17.5-6.9-34.3-19.3-46.7L787,82.7C774.6,70.3,757.8,63.4,740.3,63.4z M831.5,895.2
		l-635.6-0.5c-36.4,0-65.9-29.5-65.9-66l-0.4-634.2c0-36.5,29.5-66,66-66l510.3-0.1c17.5,0,34.3,6.9,46.6,19.3l125.9,125.7
		c12.4,12.4,19.4,29.2,19.4,46.7l-0.2,509.1C897.5,865.7,867.9,895.2,831.5,895.2z"/>
	<path display="inline" fill="#4AAF47" d="M510.1,383.7H288.2c-17.6,0-31.9-14.3-31.9-31.9v0c0-17.6,14.3-31.9,31.9-31.9h221.9
		c17.6,0,31.9,14.3,31.9,31.9v0C542,369.5,527.7,383.7,510.1,383.7z"/>
	<path display="inline" fill="#4AAF47" d="M736.3,542.6H287.5c-17.6,0-31.9-14.3-31.9-31.9v0c0-17.6,14.3-31.9,31.9-31.9h448.8
		c17.6,0,31.9,14.3,31.9,31.9v0C768.2,528.4,753.9,542.6,736.3,542.6z"/>
	<path display="inline" fill="#4AAF47" d="M736,703.7H287.2c-17.6,0-31.9-14.3-31.9-31.9v0c0-17.6,14.3-31.9,31.9-31.9H736
		c17.6,0,31.9,14.3,31.9,31.9v0C767.9,689.5,753.6,703.7,736,703.7z"/>
	<path display="inline" fill="#4AAF47" d="M737.5,94.5v237.7c0,17.6-14.3,31.9-31.9,31.9h0c-17.6,0-31.9-14.3-31.9-31.9V94.5
		c0-17.6,14.3-31.9,31.9-31.9h0C723.2,62.6,737.5,76.8,737.5,94.5z"/>
	<path display="inline" fill="#4AAF47" d="M927,364.7H705.2c-17.6,0-31.9-14.3-31.9-31.9v0c0-17.6,14.3-31.9,31.9-31.9H927
		c17.6,0,31.9,14.3,31.9,31.9v0C958.9,350.5,944.6,364.7,927,364.7z"/>
</g>
<g id="图层_10" display="none">
	<path display="inline" stroke="#231815" stroke-miterlimit="10" d="M921.4,414.5h-308c-21.1,0-38.4-17.3-38.4-38.4v0
		c0-21.1,17.3-38.4,38.4-38.4h308c21.1,0,38.4,17.3,38.4,38.4v0C959.8,397.2,942.5,414.5,921.4,414.5z"/>
	<path display="inline" stroke="#231815" stroke-miterlimit="10" d="M921.4,685.3H106.6c-21.1,0-38.4-17.3-38.4-38.4v0
		c0-21.1,17.3-38.4,38.4-38.4h814.8c21.1,0,38.4,17.3,38.4,38.4v0C959.8,668.1,942.5,685.3,921.4,685.3z"/>
	<path display="inline" stroke="#231815" stroke-miterlimit="10" d="M921.4,956.2H104.6c-21.1,0-38.4-17.3-38.4-38.4v0
		c0-21.1,17.3-38.4,38.4-38.4h816.8c21.1,0,38.4,17.3,38.4,38.4v0C959.8,938.9,942.5,956.2,921.4,956.2z"/>
	<path display="inline" d="M80.5,65.1c0.1,0,0.2,0,0.3,0h356.1c4.9,0,9.4,2.6,11.9,6.9c2.4,4.3,2.4,9.5-0.1,13.7L270.6,387
		c-4.9,8.3-18.6,8.3-23.6,0L70.2,87.8c-3.6-4-4.4-9.8-2.2-14.7C70.2,68.2,75.1,65,80.5,65.1L80.5,65.1z"/>
	<path display="inline" d="M202.4,465.9"/>
	<path display="inline" stroke="#231815" stroke-miterlimit="10" d="M921.4,143.7H614.2c-21.1,0-38.4-17.3-38.4-38.4v0
		c0-21.1,17.3-38.4,38.4-38.4h307.2c21.1,0,38.4,17.3,38.4,38.4v0C959.8,126.4,942.5,143.7,921.4,143.7z"/>
</g>
<g id="图层_9" display="none">
	<path display="inline" fill="#4AAF47" d="M895.8,64H128c-35.2,0-64,28.8-64,64v767.7c0,35.2,28.8,64,64,64h767.7
		c35.2,0,64-28.8,64-64V128C959.8,92.8,931,64,895.8,64z M895.4,859.1c0,21-17,38-38,38h-692c-21,0-38-17-38-38v-692
		c0-20.9,17.1-38,38-38h692c20.9,0,38,17.1,38,38V859.1z"/>
	<path display="inline" d="M765.9,1181.1"/>
</g>
<g id="图层_12" display="none">
	<path fill="#F9F8F7" d="M475.8,554.5c0,55.8-13.6,98.7-40.6,128.4c-27,29.8-65.8,44.7-116.2,44.7c-22.3,0-43-3.7-62.2-10.9V632
		c16.4,11.9,35.2,17.7,56.2,17.7c45.4,0,68.2-32.8,68.2-98.5V297.8h94.6V554.5z M527.4,639.3c31.7,18.3,62.8,27.5,93.2,27.5
		c38.2,0,57.3-9.8,57.3-29.2c0-13.9-15.7-25.4-47.3-34.7c-39.4-11.7-66.4-24.6-81.1-38.9c-14.7-14.3-22-33.6-22-58
		c0-29.6,12.7-52.9,37.9-69.7c25.2-16.8,58.3-25.2,99.2-25.2c29,0,57,4.1,84,12.3v69.3C723.8,478.8,696.6,472,667,472
		c-14.7,0-26.6,2.5-35.6,7.5c-9,5-13.5,11.6-13.5,19.7c0,13.9,13.4,25,40.2,33.6c28.7,9.1,50.2,17.3,64.7,24.8
		c14.4,7.5,25.4,17.2,33,29.5c7.6,12.2,11.4,26.3,11.4,42.2c0,31.1-13.1,55.2-39.3,72.4c-26.2,17.1-61.2,25.8-104.9,25.8
		c-34.4,0-66.2-5.2-95.5-15.5v-72.7H527.4z M527.4,639.3"/>
	<g display="inline">
		<path fill="#F5AF3F" d="M510.1,65C263.7,65,63.9,264.8,63.9,511.2c0,246.5,199.8,446.2,446.2,446.2
			c246.5,0,446.2-199.8,446.2-446.2C956.4,264.8,756.6,65,510.1,65z M498.8,388.8H320.4v87.3h154v62.4h-154v156.8h-74.5V326.4h252.9
			V388.8z M796,695.3h-65.7V656c-10.9,15.3-23.8,26.6-38.6,34.1s-29.8,11.2-44.9,11.2c-30.7,0-57-12.4-78.9-37.1
			C546,639.4,535,604.9,535,560.6c0-45.3,10.7-79.7,32-103.3c21.3-23.6,48.2-35.4,80.8-35.4c29.9,0,55.7,12.4,77.5,37.2V326.4H796
			V695.3z"/>
		<path fill="#F5AF3F" d="M666.4,476.1c-16.8,0-30.8,6.7-42.1,20c-11.3,13.3-17,33.3-17,59.8c0,28.5,3.9,49.2,11.8,61.9
			c11.4,18.5,27.3,27.7,47.8,27.7c16.3,0,30.1-6.9,41.5-20.8c11.4-13.8,17.1-34.5,17.1-62c0-30.7-5.5-52.8-16.6-66.3
			C697.8,482.9,683.7,476.1,666.4,476.1z"/>
	</g>
</g>
<g id="图层_11" display="none">
	<path display="inline" fill="#F5AF3F" d="M511.2,65C264.8,65,65,264.8,65,511.2c0,246.5,199.8,446.2,446.2,446.2
		c246.5,0,446.2-199.8,446.2-446.2C957.5,264.8,757.7,65,511.2,65z M469.9,542.9c0,52-12.8,91.9-38.3,119.7
		c-25.5,27.8-62,41.7-109.6,41.7c-21.1,0-40.6-3.4-58.7-10.1v-79c15.5,11.1,33.2,16.5,53,16.5c42.9,0,64.3-30.6,64.3-91.8V303.7
		h89.2V542.9z M729.7,681c-23.7,15.5-55.2,23.3-94.7,23.3c-31,0-59.7-4.7-86.2-14v-65.6c0,0-0.1,0-0.1-0.1h0.1v0.1
		c28.6,16.5,56.6,24.8,84,24.8c34.4,0,51.7-8.8,51.7-26.4c0-12.5-14.2-22.9-42.7-31.3c-35.5-10.5-59.9-22.2-73.2-35.1
		c-13.3-12.9-19.9-30.3-19.9-52.3c0-26.7,11.4-47.8,34.2-62.9c22.8-15.2,52.6-22.8,89.5-22.8c26.2,0,51.4,3.7,75.8,11.1v62.5
		c-22.2-12.5-46.8-18.7-73.5-18.7c-13.3,0-24,2.2-32.1,6.7c-8.1,4.5-12.1,10.4-12.1,17.8c0,12.5,12.1,22.6,36.2,30.3
		c25.9,8.2,45.3,15.7,58.4,22.4c13,6.7,22.9,15.6,29.8,26.6c6.8,11,10.3,23.7,10.3,38.1C765.2,643.6,753.4,665.4,729.7,681z"/>
	<path display="inline" fill="#FFFFFF" d="M515.3,627.1"/>
</g>
<g id="图层_13" display="none">
	<g display="inline">
		<path fill="#4AAF47" d="M430.2,309.4c0-4.7-3.8-8.5-8.5-8.5H310.7c-4.7,0-8.5,3.8-8.5,8.5V421c0,4.7,3.8,8.5,8.5,8.5h111
			c4.7,0,8.5-3.8,8.5-8.5h-0.1V309.4z"/>
		<path fill="#4AAF47" d="M430.2,601.4c0-4.7-3.8-8.5-8.5-8.5H310.7c-4.7,0-8.5,3.8-8.5,8.5V713c0,4.7,3.8,8.5,8.5,8.5h111
			c4.7,0,8.5-3.8,8.5-8.5h-0.1V601.4z"/>
		<path fill="#4AAF47" d="M721.2,601.4c0-4.7-3.8-8.5-8.5-8.5H601.7c-4.7,0-8.5,3.8-8.5,8.5V713c0,4.7,3.8,8.5,8.5,8.5h111
			c4.7,0,8.5-3.8,8.5-8.5h-0.1V601.4z"/>
		<path fill="#4AAF47" d="M721.2,309.4c0-4.7-3.8-8.5-8.5-8.5H601.7c-4.7,0-8.5,3.8-8.5,8.5V421c0,4.7,3.8,8.5,8.5,8.5h111
			c4.7,0,8.5-3.8,8.5-8.5h-0.1V309.4z"/>
		<path fill="#4AAF47" d="M512.3,63.5c-247.9,0-448.8,200.9-448.8,448.8c0,247.9,200.9,448.8,448.8,448.8
			c247.9,0,448.8-200.9,448.8-448.8C961.1,264.4,760.2,63.5,512.3,63.5z M476.6,749.1c0,10-8.3,18.1-18.3,18.1H274.1
			c-10.1,0-18.3-8.2-18.3-18.1V565.3c0-10,8.3-18.1,18.3-18.1h184.2c10,0,18.1,8.1,18.3,18.1V749.1z M476.6,457.1
			c0,10-8.3,18.1-18.3,18.1H274.1c-10.1,0-18.3-8.2-18.3-18.1V273.3c0-10,8.3-18.1,18.3-18.1h184.2c10,0,18.1,8.1,18.3,18.1V457.1z
			 M767.6,749.1c0,10-8.3,18.1-18.3,18.1H565.1c-10.1,0-18.3-8.2-18.3-18.1V565.3c0-10,8.3-18.1,18.3-18.1h184.2
			c10,0,18.1,8.1,18.3,18.1V749.1z M767.6,457.1c0,10-8.3,18.1-18.3,18.1H565.1c-10.1,0-18.3-8.2-18.3-18.1V273.3
			c0-10,8.3-18.1,18.3-18.1h184.2c10,0,18.1,8.1,18.3,18.1V457.1z"/>
	</g>
</g>
<g id="图层_15">
	<path fill="#91ED8C" d="M727.7,658.4"/>
	<g>
		<polygon fill="#4AAF47" points="302.4,600.5 302.6,721.3 404.4,721.2 404.2,600.3 		"/>
		<polygon fill="#4AAF47" points="450.6,720.6 571.9,720.6 571.9,720.6 571.9,599.6 450.6,599.6 		"/>
		<path fill="#4AAF47" d="M721.7,322.5c0-11.5-9.3-20.9-20.7-20.9H324.3c-11.4,0-20.7,9.4-20.7,20.9v61.3h418.1V322.5z"/>
		<rect x="450.8" y="430.4" fill="#4AAF47" width="121" height="131"/>
		<rect x="302.2" y="429.9" fill="#4AAF47" width="101.8" height="130.5"/>
		<path fill="#4AAF47" d="M512.3,63.8C265,63.8,64.5,264.3,64.5,511.6C64.5,759,265,959.5,512.3,959.5
			c247.3,0,447.8-200.5,447.8-447.8C960.2,264.3,759.7,63.8,512.3,63.8z M768.1,733.2c0,20.2-16.5,36.7-36.7,36.7H291.1
			c-20.2,0-36.7-16.5-36.7-36.7V292.9c0-20.2,16.5-36.7,36.7-36.7h440.4c20.2,0,36.7,16.5,36.6,36.7V733.2z"/>
		<polygon fill="#4AAF47" points="619.1,599.9 619.3,720.8 722.4,720.7 722.2,599.8 		"/>
		<rect x="618.4" y="430.1" fill="#4AAF47" width="104.1" height="130.7"/>
	</g>
</g>
<g id="图层_16" display="none">
	<g id="图层_17" display="inline">
		<g>
			<path fill="#4AAF47" d="M303,434.9v76.7c0,35.6,84.1,70.7,209.2,70.7c125.1,0,209.2-35.2,209.2-70.8v-5.2v-71.5
				c-42.6,27.9-119.4,46.3-209.2,46.3C422.4,481.2,345.5,462.8,303,434.9z"/>
			<path fill="#4AAF47" d="M302,579.3v71.2c0,36,84.3,71.4,209.7,71.4c125.4,0,209.7-35.5,209.7-71.4v-71.2
				C678.7,607.5,601.7,626,511.7,626S344.6,607.5,302,579.3z"/>
			<path fill="#4AAF47" d="M511.5,436.4c122.7,0,205.7-32.9,208.8-66.8c-3.1-33.9-86.1-66.8-208.8-66.7
				c-122.7,0-205.7,32.9-208.8,66.8C305.8,403.6,388.8,436.4,511.5,436.4z"/>
			<path fill="#4AAF47" d="M510.9,64.3C263.5,64.3,63,264.8,63,512.1C63,759.5,263.5,960,510.9,960c247.3,0,447.8-200.5,447.8-447.8
				C958.7,264.8,758.2,64.3,510.9,64.3z M768.2,660.6c0,60.2-112.5,107.4-256.2,107.4c-143.6,0-256.2-47.2-256.2-107.4V359.3h0.4
				c4.2-58.6,114.9-104,255.9-104s251.7,45.4,255.9,104h0.3V660.6z"/>
		</g>
	</g>
</g>
<g id="图层_18" display="none">
	<g display="inline">
		<path fill="#4AAF47" d="M511.9,63.3C264.5,63.3,64,263.8,64,511.1C64,758.5,264.5,959,511.9,959c247.3,0,447.8-200.5,447.8-447.8
			C959.7,263.8,759.2,63.3,511.9,63.3z M639.6,665.5c-28.8,27.5-64.3,43.6-101.1,48.6v43.2c0,5.3-4.3,9.6-9.6,9.6H497
			c-5.3,0-9.6-4.3-9.6-9.6V714c-36.7-5.2-72.2-21.4-100.3-48.5C329.8,610.2,318.2,524.6,359,457l104.6-174.7
			c10.2-17.2,28.8-27.4,49.6-27.4c20.7,0,39.3,10.2,49.5,27.4l105,174.7C708.1,524.6,696.7,610.2,639.6,665.5z"/>
		<path fill="#4AAF47" d="M522.8,311.8c-3.2-5.1-8.1-5.4-9.8-5.4c-2.1,0-6.7,0.7-9.8,5.4L402,479.4
			c-29.1,48.4-20.6,109.6,20.4,149.1c18.1,17.3,40.6,28.9,65,33.7V469.8c0-5.3,4.3-9.6,9.6-9.6h31.9c5.3,0,9.6,4.3,9.6,9.6v192.5
			c24.4-4.7,47-16.3,65-33.7c41-39.6,49.1-100.8,20.4-149.1L522.8,311.8z"/>
	</g>
</g>
<g id="图层_26" display="none">
	<g display="inline">
		<path fill="#4AAF47" d="M396.8,327.3L292.7,154.1c-10.2-17.1-28.6-27.2-49.1-27.2c-20.6,0-39,10.2-49.2,27.2L90.8,327.3
			c-40.4,67-28.9,151.9,27.8,206.7c27.9,26.9,63.1,43,99.5,48.1v43c0,5.2,4.3,9.5,9.5,9.5h31.6c5.2,0,9.5-4.3,9.5-9.5v-42.9
			c36.5-5,71.7-20.9,100.2-48.2C425.6,479.2,436.9,394.3,396.8,327.3z M333.2,497.4c-17.9,17.3-40.3,28.7-64.5,33.4V339.9
			c0-5.2-4.3-9.5-9.5-9.5h-31.6c-5.2,0-9.5,4.3-9.5,9.5v190.8c-24.2-4.7-46.5-16.2-64.4-33.4c-40.7-39.2-49.1-99.8-20.2-147.8
			l100.2-166.2c3.1-4.7,7.7-5.4,9.8-5.4c1.7,0,6.6,0.3,9.8,5.4l100.2,166.2C381.9,397.4,373.9,458.1,333.2,497.4z"/>
		<path fill="#4AAF47" d="M880.5,253.4H748.9c-11.6-45.1-52.2-76.7-98.8-76.8c-56.6,0-102.4,45.8-102.4,102.4
			c0,56.6,45.8,102.4,102.4,102.4c46.6-0.1,87.2-31.7,98.8-76.8h131.6c14.1,0,25.6,11.5,25.6,25.6v230.4c0,14.1-11.5,25.6-25.6,25.6
			H637.3c-14.1,0-25.6,11.5-25.6,25.6c0,14.1,11.5,25.6,25.6,25.6h243.2c42.4,0,76.8-34.4,76.8-76.8V330.2
			C957.3,287.8,922.9,253.4,880.5,253.4L880.5,253.4z M650.1,330.2c-18.3,0-35.2-9.8-44.3-25.6c-9.1-15.8-9.1-35.4,0-51.2
			c9.1-15.8,26.1-25.6,44.4-25.6c28.3,0,51.2,22.9,51.2,51.2C701.3,307.3,678.4,330.2,650.1,330.2L650.1,330.2z M650.1,330.2"/>
		<path fill="#4AAF47" d="M317.3,637.4h25.6c0.1,46.6,31.7,87.3,76.9,98.8c0.6,41.9,34.7,75.6,76.7,75.6h258.2
			c11,52.7,60.9,87.9,114.2,80.6c53.3-7.3,91.9-54.7,88.2-108.4c-3.7-53.7-48.3-95.4-102.2-95.4l0,0c-45.9,0-84.3,30.4-97.3,72
			H496.5c-13.7,0-24.9-10.9-25.4-24.5c50-12.8,82.6-60.8,76.1-112c-6.6-51.2-50.3-89.4-101.9-89.1c-37.8,0-70.5,20.7-88.2,51.2
			h-39.8 M394.1,637.4c0-18.3,9.8-35.2,25.6-44.3c15.8-9.1,35.4-9.1,51.2,0c15.8,9.2,25.6,26.1,25.6,44.4
			c0,28.3-22.9,51.2-51.2,51.2C417,688.6,394.1,665.7,394.1,637.4L394.1,637.4z M854.9,842.2c-18.3,0-35.2-9.8-44.3-25.6
			c-9.1-15.8-9.1-35.4,0-51.2c9.2-15.8,26.1-25.6,44.4-25.6c28.3,0,51.2,22.9,51.2,51.2C906.1,819.3,883.2,842.2,854.9,842.2
			L854.9,842.2z M854.9,842.2"/>
		<path fill="#4AAF47" d="M555.7,304H428.3c-14.3,0-26-11.7-26-26v0c0-14.3,11.7-26,26-26h127.3c14.3,0,26,11.7,26,26v0
			C581.7,292.3,570,304,555.7,304z"/>
		<path fill="#4AAF47" d="M318.8,637.3L318.8,637.3c-14.1,0-25.6-11.5-25.6-25.6l0,0c0-14.1,11.5-25.6,25.6-25.6h0
			c14.1,0,25.6,11.5,25.6,25.6l0,0C344.3,625.8,332.8,637.3,318.8,637.3z"/>
	</g>
</g>
<g id="图层_19" display="none">
	<g display="inline">
		<path fill="#F5AF3F" d="M895.8,63H128c-35.2,0-64,28.8-64,64v767.7c0,35.2,28.8,64,64,64h767.7c35.2,0,64-28.8,64-64V127
			C959.8,91.8,931,63,895.8,63z M895.4,858.1c0,21-17,38-38,38h-692c-21,0-38-17-38-38v-692c0-20.9,17.1-38,38-38h692
			c20.9,0,38,17.1,38,38V858.1z"/>
		<polygon fill="#F5AF3F" points="242.9,694.1 317.3,694.1 317.3,537.6 470.9,537.6 470.9,475.3 317.3,475.3 317.3,388.2 
			495.3,388.2 495.3,325.9 242.9,325.9 		"/>
		<path fill="#F5AF3F" d="M718.8,458.5c-21.8-24.8-47.5-37.2-77.3-37.2c-32.5,0-59.4,11.8-80.6,35.3
			c-21.3,23.5-31.9,57.9-31.9,103.1c0,44.2,10.9,78.6,32.8,103.3c21.8,24.7,48.1,37,78.7,37c15.1,0,30-3.7,44.8-11.2
			c14.8-7.4,27.7-18.8,38.5-34v39.2h65.5V325.9h-70.6V458.5z M702,623.6c-11.4,13.8-25.2,20.7-41.4,20.7c-20.4,0-36.3-9.2-47.7-27.6
			c-7.9-12.7-11.8-33.3-11.8-61.8c0-26.4,5.7-46.3,17-59.6c11.3-13.3,25.3-20,42.1-20c17.2,0,31.4,6.7,42.4,20.2
			c11,13.5,16.6,35.5,16.6,66.2C719,589.2,713.3,609.8,702,623.6z"/>
	</g>
</g>
<g id="图层_20" display="none">
	<path display="inline" fill="#4AAF47" d="M914.6,62.2H110c-25.2,0-45.9,20.7-45.9,45.9v804.7c0,25.2,20.7,45.9,45.9,45.9h804.7
		c25.2,0,45.9-20.7,45.9-45.9V108.3C960.7,82.9,940,62.2,914.6,62.2z M317.8,894.8H148.1c-10.7,0-19.5-8.8-19.5-19.5V705.8
		c0-10.7,8.8-19.5,19.5-19.5h169.6c10.7,0,19.5,8.8,19.5,19.5v169.4h0.2C337.4,886,328.6,894.8,317.8,894.8z M317.8,614.8H148.1
		c-10.7,0-19.5-8.8-19.5-19.5V425.8c0-10.7,8.8-19.5,19.5-19.5h169.6c10.7,0,19.5,8.8,19.5,19.5v169.4h0.2
		C337.4,606,328.6,614.8,317.8,614.8z M317.8,336.8H148.1c-10.7,0-19.5-8.8-19.5-19.5V147.8c0-10.7,8.8-19.5,19.5-19.5h169.6
		c10.7,0,19.5,8.8,19.5,19.5v169.4h0.2C337.4,328,328.6,336.8,317.8,336.8z M597.9,893.6H428.2c-10.7,0-19.5-8.8-19.5-19.5V704.7
		c0-10.7,8.8-19.5,19.5-19.5h169.6c10.7,0,19.5,8.8,19.5,19.5v169.4h0.2C617.5,884.8,608.7,893.6,597.9,893.6z M597.9,613.6H428.2
		c-10.7,0-19.5-8.8-19.5-19.5V424.7c0-10.7,8.8-19.5,19.5-19.5h169.6c10.7,0,19.5,8.8,19.5,19.5v169.4h0.2
		C617.5,604.8,608.7,613.6,597.9,613.6z M597.9,335.6H428.2c-10.7,0-19.5-8.8-19.5-19.5V146.7c0-10.7,8.8-19.5,19.5-19.5h169.6
		c10.7,0,19.5,8.8,19.5,19.5v169.4h0.2C617.5,326.8,608.7,335.6,597.9,335.6z M876.8,893.8H707.1c-10.7,0-19.5-8.8-19.5-19.5V704.8
		c0-10.7,8.8-19.5,19.5-19.5h169.6c10.7,0,19.5,8.8,19.5,19.5v169.4h0.2C896.4,885,887.6,893.8,876.8,893.8z M876.8,613.8H707.1
		c-10.7,0-19.5-8.8-19.5-19.5V424.8c0-10.7,8.8-19.5,19.5-19.5h169.6c10.7,0,19.5,8.8,19.5,19.5v169.4h0.2
		C896.4,605,887.6,613.8,876.8,613.8z M876.8,335.8H707.1c-10.7,0-19.5-8.8-19.5-19.5V146.8c0-10.7,8.8-19.5,19.5-19.5h169.6
		c10.7,0,19.5,8.8,19.5,19.5v169.4h0.2C896.4,327,887.6,335.8,876.8,335.8z"/>
</g>
<g id="图层_21" display="none">
	<path display="inline" fill="#4AAF47" d="M960,511.1c0-125.5-52-238.7-135.4-319.9C741.1,109.7,628.9,64.1,512,64.2
		c-116.9-0.1-229.1,45.5-312.6,127.1c-13.6,13.2-26.2,27.3-38.1,42.2C98.3,312.3,64,410.2,64.1,511.1c0,246.8,200.5,447,448,447
		c116.9,0.1,229.1-45.6,312.6-127.1h0c13.6-13.2,26.3-27.3,38.1-42.2l0,0C925.7,710,960,612,960,511.1z M405.6,128.9
		c-29.7,40.2-54.7,84.1-74.4,130.7c-30.4-10.4-59.8-23.7-88-39.7C289.3,175.6,345.1,144.3,405.6,128.9z M345.3,480
		c2.7-49.7,12.8-97.4,29.5-142.3c34.1,7.4,69.3,12,105.3,13.6V480H345.3z M479.6,544.4v126.4c-35.3,1.5-70.4,6-104.9,13.3
		c-17-45.1-26.9-92.1-29.5-139.8H479.6z M208,276.2c33,18.8,67.7,34.2,103.7,46.1c-17.2,51-27.2,104.2-29.6,158.1H127.5
		C132.6,405.5,160.8,334.2,208,276.2z M208,747.1c-47.2-57.3-75.4-127.7-80.5-201.5H282c2.6,54.4,12.7,106.7,29.7,156.1
		C275.7,713.3,241,728.6,208,747.1L208,747.1z M243.2,804.1L243.2,804.1C243.2,804.1,243.2,804.1,243.2,804.1
		c28.2-16,57.6-29.3,88-39.7c19.7,46.6,44.7,90.5,74.4,130.7C345.1,879.6,289.3,848.3,243.2,804.1
		C243.2,804.1,243.2,804.1,243.2,804.1z M484,879.8c-35.1-40-64.4-84.7-87-132.9c28.7-6.1,57.8-10,87-11.5V879.8z M484,286.9
		c-29.3-1.5-58.4-5.4-87-11.5c22.6-48.2,51.9-92.9,87-132.9V286.9z M815.9,276C815.9,276,815.9,276,815.9,276
		c46.6,58.1,74.3,129.5,79.4,204.4H742.9c-2.4-53.9-12.3-107.2-29.3-158.3C749.1,310.3,783.3,294.8,815.9,276
		C815.8,276,815.8,276,815.9,276L815.9,276z M781.6,219.6c-28,16-57.2,29.3-87.4,39.8c-19.6-46.7-44.4-90.6-73.9-130.9
		C681.4,144.2,736.5,176,781.6,219.6z M544.1,479.9L544.1,479.9L544.1,479.9L544.1,479.9V351.3c35.4-1.6,70.6-6.1,105.1-13.6
		c17,45.8,26.9,93.7,29.5,142.2H544.1z M678.8,544.5c-2.6,47.6-12.5,94.6-29.5,139.6c-34.5-7.3-69.7-11.8-105.1-13.3V544.5H678.8z
		 M540,142.4c35.1,40,64.4,84.7,87,132.9c-28.3,6-57.3,10-87,11.5V142.4z M540,735.4c29.7,1.6,58.7,5.5,87,11.5
		c-22.6,48.2-51.8,92.9-87,132.9V735.4z M620.3,895.7c29.5-40.2,54.3-84.2,73.9-130.9c0,0,0,0,0,0h0c0,0,0,0,0,0
		c30.4,10.5,59.6,23.9,87.3,39.8C735.8,848.9,680.4,880.2,620.3,895.7z M815.8,747.5c-32.5-18.6-66.8-33.8-102.3-45.6
		c17-50.4,26.9-103,29.3-156.2h152.4C890.2,619.7,862.4,690.2,815.8,747.5z"/>
	<path display="inline" fill="#21A3DD" d="M862.7,788.8"/>
	<rect x="64.1" y="63.9" display="inline" fill="none" width="896.1" height="895.6"/>
</g>
<g id="图层_14" display="none">
	<rect x="127.4" y="479.2" display="inline" fill="#0C0C0C" width="64" height="64.5"/>
</g>
</svg>
