<?xml version="1.0" encoding="utf-8"?>
<!-- Generator: Adobe Illustrator 22.0.0, SVG Export Plug-In . SVG Version: 6.00 Build 0)  -->
<svg version="1.1" id="图层_1" xmlns="http://www.w3.org/2000/svg" xmlns:xlink="http://www.w3.org/1999/xlink" x="0px" y="0px"
	 viewBox="0 0 1024 1024" style="enable-background:new 0 0 1024 1024;" xml:space="preserve">
<style type="text/css">
	.st0{fill:#4AAF47;}
	.st1{fill:#FFFFFF;}
</style>
<path class="st0" d="M513.6,63.3c-247.3,0-447.8,200.5-447.8,447.8C65.7,758.5,266.2,959,513.6,959c247.3,0,447.8-200.5,447.8-447.8
	C961.4,263.8,760.9,63.3,513.6,63.3L513.6,63.3z"/>
<g>
	<path class="st1" d="M197.8,376.1h68.9l35.8,80l34.8-80h68.2l-63,126l68.9,134.2h-70.2l-40-83.6l-40,83.6h-69.8l69.8-135.6
		L197.8,376.1z"/>
	<path class="st1" d="M430.8,376.1H513l31.7,158.3l31.5-158.3h82.2v260.2h-51.2V437.9l-39.5,198.4h-46.3L482,437.9v198.4h-51.2
		V376.1z"/>
	<path class="st1" d="M698.2,376.1h62.5v196.1h97.6v64.1H698.2V376.1z"/>
</g>
</svg>
