<?xml version="1.0" standalone="no"?><!DOCTYPE svg PUBLIC "-//W3C//DTD SVG 1.1//EN" "http://www.w3.org/Graphics/SVG/1.1/DTD/svg11.dtd"><svg t="1602846740773" class="icon" viewBox="0 0 1024 1024" version="1.1" xmlns="http://www.w3.org/2000/svg" p-id="13566" xmlns:xlink="http://www.w3.org/1999/xlink" width="18" height="18"><defs><style type="text/css"></style></defs><path d="M656.7 246.3H364.5c-146.2-0.1-264.8 119.4-264.9 267 0.1 147.5 118.7 267 264.9 267h292.2c146.2 0.1 264.8-119.4 264.9-267-0.1-147.6-118.7-267.1-264.9-267zM769.6 628c-29.8 30.1-70.3 47-112.5 47H365c-88 0.1-159.5-71.8-159.8-160.6v-1.5c0.3-88.8 71.7-160.6 159.8-160.5h292c87.8-0.1 159 71.7 159.1 160.3v1.7c0 42.6-16.7 83.5-46.5 113.6z" fill="#DE4231" p-id="13567"></path></svg>