<?xml version="1.0" standalone="no"?><!DOCTYPE svg PUBLIC "-//W3C//DTD SVG 1.1//EN" "http://www.w3.org/Graphics/SVG/1.1/DTD/svg11.dtd"><svg t="1587783082225" class="icon" viewBox="0 0 1024 1024" version="1.1" xmlns="http://www.w3.org/2000/svg" p-id="11102" xmlns:xlink="http://www.w3.org/1999/xlink" width="200" height="200"><defs><style type="text/css"></style></defs><path d="M895.8 63.8H128c-35.2 0-64 28.8-64 64v767.7c0 35.2 28.8 64 64 64h767.7c35.2 0 64-28.8 64-64V127.8c0.1-35.2-28.7-64-63.9-64z m-0.4 795.1c0 21-17 38-38 38h-692c-21 0-38-17-38-38v-692c0-20.9 17.1-38 38-38h692c20.9 0 38 17.1 38 38v692z" fill="#F5AF3F" p-id="11103"></path><path d="M498 566.2c-10.4-11.2-23.6-21.4-39.6-30.7 32.1-4.7 56.3-15.9 72.4-33.8 16.1-17.9 24.2-40.6 24.2-68.1 0-21.6-5.3-40.9-16-57.7-10.7-16.8-24.8-28.5-42.6-35.1-17.7-6.6-46.2-9.9-85.3-9.9H255.7V697h73.9V544.2h15c17 0 29.4 1.4 37.2 4.1 7.8 2.7 15.2 7.8 22.2 15.2 7 7.4 20 25.3 39 53.8l53.4 79.7h88.4l-44.7-71.4c-17.6-28.4-31.7-48.2-42.1-59.4z m-113.7-80.4h-54.7v-92.9h57.7c30 0 47.9 0.4 53.9 1.2 12 2 21.3 6.8 27.8 14.4 6.6 7.6 9.9 17.5 9.9 29.8 0 11-2.5 20.1-7.5 27.5-5 7.3-11.9 12.5-20.7 15.5-8.8 3-30.9 4.5-66.4 4.5z m281.6-150.7c-12.7 6.9-21.5 15.9-26.2 26.8-4.7 11-7.1 27.6-7.1 49.9v20h-39V487h39v210h70.2V487h52.4v-55.2h-52.4v-18.7c0-13.5 2.2-22.6 6.6-27.3 4.4-4.7 11.7-7.1 21.9-7.1 10.3 0 21.1 1.3 32.2 4l9.5-48.9c-19.1-6-38.7-9-58.7-9-19.6-0.1-35.7 3.4-48.4 10.3z" fill="#F5AF3F" p-id="11104"></path></svg>