<?xml version="1.0" standalone="no"?><!DOCTYPE svg PUBLIC "-//W3C//DTD SVG 1.1//EN" "http://www.w3.org/Graphics/SVG/1.1/DTD/svg11.dtd"><svg t="1608101983477" class="icon" viewBox="0 0 1024 1024" version="1.1" xmlns="http://www.w3.org/2000/svg" p-id="14287" xmlns:xlink="http://www.w3.org/1999/xlink" width="64" height="64"><defs><style type="text/css"></style></defs><path d="M520.7 172.4H498c-12.1 0-21.9-9.9-21.9-21.9 0-12.1 9.9-21.9 21.9-21.9h22.7c12.1 0 21.9 9.9 21.9 21.9 0 12-9.9 21.9-21.9 21.9zM608.1 252.2H410.6c-12.1 0-21.9-9.9-21.9-21.9 0-12.1 9.9-21.9 21.9-21.9h197.5c12.1 0 21.9 9.9 21.9 21.9 0 12-9.9 21.9-21.9 21.9zM674.1 332H344.6c-12.1 0-21.9-9.9-21.9-21.9 0-12.1 9.9-21.9 21.9-21.9h329.6c12.1 0 21.9 9.9 21.9 21.9-0.1 12-9.9 21.9-22 21.9zM776.9 411.7H241.7c-12.1 0-21.9-9.9-21.9-21.9 0-12.1 9.9-21.9 21.9-21.9h535.2c12.1 0 21.9 9.9 21.9 21.9 0 12.1-9.8 21.9-21.9 21.9zM776.9 571.3H241.7c-12.1 0-21.9-9.9-21.9-21.9 0-12.1 9.9-21.9 21.9-21.9h535.2c12.1 0 21.9 9.9 21.9 21.9 0 12-9.8 21.9-21.9 21.9zM858.7 651.1H160c-12.1 0-21.9-9.9-21.9-21.9 0-12.1 9.9-21.9 21.9-21.9h698.6c12.1 0 21.9 9.9 21.9 21.9 0.1 12-9.8 21.9-21.8 21.9zM925.8 730.8h-833c-12.1 0-21.9-9.9-21.9-21.9 0-12.1 9.9-21.9 21.9-21.9h833c12.1 0 21.9 9.9 21.9 21.9 0 12.1-9.8 21.9-21.9 21.9z" fill="#D37039" p-id="14288"></path><path d="M469.6 896.4v-175c0-12.5 10.3-22.8 22.8-22.8H524c12.5 0 22.8 10.3 22.8 22.8v175c0 12.5-10.3 22.8-22.8 22.8h-31.6c-12.6 0-22.8-10.3-22.8-22.8zM674.1 497.3H344.6c-12.1 0-21.9-9.9-21.9-21.9 0-12.1 9.9-21.9 21.9-21.9h329.6c12.1 0 21.9 9.9 21.9 21.9-0.1 12-9.9 21.9-22 21.9z" fill="#D37039" p-id="14289"></path></svg>