<?xml version="1.0" standalone="no"?><!DOCTYPE svg PUBLIC "-//W3C//DTD SVG 1.1//EN" "http://www.w3.org/Graphics/SVG/1.1/DTD/svg11.dtd"><svg t="1598234291099" class="icon" viewBox="0 0 1024 1024" version="1.1" xmlns="http://www.w3.org/2000/svg" p-id="24162" xmlns:xlink="http://www.w3.org/1999/xlink" width="200" height="200"><defs><style type="text/css"></style></defs><path d="M895.8 63.8H128c-35.2 0-64 28.8-64 64v767.7c0 35.2 28.8 64 64 64h767.7c35.2 0 64-28.8 64-64V127.8c0.1-35.2-28.7-64-63.9-64z m-0.4 795.1c0 21-17 38-38 38h-692c-21 0-38-17-38-38v-692c0-20.9 17.1-38 38-38h692c20.9 0 38 17.1 38 38v692z" fill="#F5AF3F" p-id="24163"></path><path d="M245.6 359.3h100.5v291.6h75.4V359.3h100.8v-61.5H245.6z m440.6 33.3c-35.3 0-62.5 14.9-81.8 44.7h-0.9v-38.5h-73.6V767h73.6V620.6h0.9c16 24.3 39.4 36.5 70.2 36.5 34 0 61.6-12.7 82.5-38.1 21-25.4 31.5-59.1 31.5-101.2 0-38.6-9-69.1-27.1-91.5-18.2-22.5-43.2-33.7-75.3-33.7z m11.5 186.5c-10.3 14.3-24.6 21.4-43 21.4-15.5 0-28.1-5.7-37.8-17.1-9.7-11.4-14.6-26.1-14.6-44v-21.9c0-20.1 5.3-36.5 15.8-49.2 10.6-12.8 24.2-19.1 40.9-19.1 36 0 54 23.1 54 69.3 0.1 26.1-5 46.3-15.3 60.6z" fill="#F5AF3F" p-id="24164"></path></svg>