<?xml version="1.0" standalone="no"?><!DOCTYPE svg PUBLIC "-//W3C//DTD SVG 1.1//EN" "http://www.w3.org/Graphics/SVG/1.1/DTD/svg11.dtd"><svg t="1609906213022" class="icon" viewBox="0 0 1024 1024" version="1.1" xmlns="http://www.w3.org/2000/svg" p-id="14868" xmlns:xlink="http://www.w3.org/1999/xlink" width="64" height="64"><defs><style type="text/css"></style></defs><path d="M0 515.2L92.8 424h837.6L1024 515.2H0z" fill="#C46627" p-id="14869"></path><path d="M235.2 3.2h691.2c16.8 0 25.6 8.8 25.6 26.4V936c0 17.6-8.8 26.4-25.6 26.4H235.2c-16.8 0-25.6-8.8-25.6-26.4V29.6c0-17.6 8.8-26.4 25.6-26.4z" fill="#D1D3D3" p-id="14870"></path><path d="M106.4 80H816c17.6 0 26.4 8.8 26.4 25.6v892c0 16.8-8.8 25.6-26.4 25.6H106.4c-17.6 0-26.4-8.8-26.4-25.6V105.6c0-16.8 8.8-25.6 26.4-25.6z" fill="#EEEEEE" p-id="14871"></path><path d="M0 515.2v325.6c0 25.6 20.8 46.4 46.4 46.4h931.2c25.6 0 46.4-20.8 46.4-46.4V515.2H0z" fill="#DD7C3A" p-id="14872"></path><path d="M112.8 578.4h84l44 76 42.4-76h83.2l-76.8 120 84 127.2H288l-48.8-79.2-48.8 79.2H104.8L190.4 696l-77.6-117.6zM396.8 578.4h100.8L536 728l38.4-150.4h100v247.2h-62.4V636.8l-48 188.8h-56.8l-48-188.8v188.8h-62.4V578.4zM724 578.4h76v186.4h119.2v60.8H724V578.4z" fill="#FFFFFF" p-id="14873"></path><path d="M264.8 319.2l80-80c6.4-6.4 6.4-16.8 0-23.2-6.4-6.4-16.8-6.4-23.2 0l-80 80c-6.4 6.4-6.4 16.8 0 23.2 6.4 6.4 16.8 6.4 23.2 0z" fill="#C1C7D0" p-id="14874"></path><path d="M241.6 319.2l80 80c6.4 6.4 16.8 6.4 23.2 0 6.4-6.4 6.4-16.8 0-23.2l-80-80c-6.4-6.4-16.8-6.4-23.2 0-5.6 6.4-5.6 16.8 0 23.2z" fill="#C1C7D0" p-id="14875"></path><path d="M417.6 427.2l115.2-224c4-7.2 0.8-16.8-6.4-20.8s-16.8-0.8-20.8 6.4l-115.2 224c-4 7.2-0.8 16.8 6.4 20.8s16.8 0.8 20.8-6.4z" fill="#C1C7D0" p-id="14876"></path><path d="M657.6 295.2l-80 80c-6.4 6.4-6.4 16.8 0 23.2 6.4 6.4 16.8 6.4 23.2 0l80-80c6.4-6.4 6.4-16.8 0-23.2-6.4-6.4-16.8-6.4-23.2 0z" fill="#C1C7D0" p-id="14877"></path><path d="M680.8 294.4l-80-80c-6.4-6.4-16.8-6.4-23.2 0-6.4 6.4-6.4 16.8 0 23.2l80 80c6.4 6.4 16.8 6.4 23.2 0 5.6-6.4 5.6-16.8 0-23.2z" fill="#C1C7D0" p-id="14878"></path></svg>