<?xml version="1.0" encoding="UTF-8"?>
<svg width="140px" height="44px" viewBox="0 0 140 44" version="1.1" xmlns="http://www.w3.org/2000/svg" xmlns:xlink="http://www.w3.org/1999/xlink">
    <title>logo_白色</title>
    <g id="页面-1" stroke="none" stroke-width="1" fill="none" fill-rule="evenodd">
        <g id="logo_白色" fill="#FFFFFF" fill-rule="nonzero">
            <path d="M88.0861961,30.9462164 L88.0861961,32.1712544 L93.5442274,32.1712544 L93.5442274,33.7917303 L88.0861961,33.7917303 L88.0861961,34.9370428 L92.5871941,34.9370428 L92.5871941,39.665671 L89.6735477,39.665671 L89.6735477,41.4305639 C89.6735477,41.8966158 89.9057149,42.129414 90.370312,42.129414 L90.8764052,42.129414 C91.2514445,42.129414 91.4962181,42.0410327 91.6117764,41.8658646 C91.7283854,41.6902409 91.8528732,41.110751 91.9839269,40.1276227 C92.7592184,40.4515358 93.3984663,40.6934454 93.8998319,40.8513017 C93.7540709,41.5189452 93.6025318,42.0722395 93.4449523,42.5111848 C93.2876353,42.950358 93.0399727,43.2644761 92.7027524,43.4533114 C92.3657948,43.6414634 91.8935812,43.7362228 91.2871626,43.7362228 L89.6181322,43.7362228 C88.3504044,43.7362228 87.7169346,43.0738185 87.7169346,41.7471876 L87.7169346,39.665671 L86.0400252,39.665671 C85.9633365,41.8437693 84.5293624,43.288166 81.7383654,44 C81.4555101,43.5961339 80.9951151,43.0469397 80.3566551,42.3535563 C82.7825928,41.8171182 83.999895,40.9219157 84.0085619,39.665671 L81.6012712,39.665671 L81.6012712,34.9370428 L86.0061456,34.9370428 L86.0061456,33.7917303 L80.6161362,33.7917303 L80.6161362,32.1712544 L86.0061456,32.1712544 L86.0061456,30.9462164 L88.0861961,30.9462164 Z M72.4332913,30.8619353 L74.4106524,31.4020179 C73.6379872,32.3065597 72.8650594,33.1457267 72.0923942,33.9186076 L75.283118,33.7076769 L74.5606157,32.7988072 L75.91081,31.9949472 C76.883076,33.0398057 77.7418847,34.0468516 78.4877613,35.0131236 L77.0419687,36.080533 C76.8192563,35.7598091 76.5857758,35.4345294 76.3396891,35.1044661 L71.5471689,35.3876053 L72.5281017,35.8167558 C72.4506251,35.970512 72.374199,36.1192568 72.2967224,36.2645848 L77.805967,36.2645848 L77.805967,37.7538556 L74.7515496,37.7538556 C74.7515496,38.1486103 74.7418321,38.5317478 74.7244984,38.900307 L78.2960396,38.900307 L78.2960396,40.3886666 L75.0992751,40.3886666 C75.7713521,41.3068755 76.8783486,41.9000326 78.4189516,42.1688211 C78.0559933,42.7742787 77.7061667,43.3715359 77.3692089,43.9594539 C75.7965648,43.4599172 74.6451834,42.5902269 73.9129636,41.3515217 C73.1255909,42.5458084 71.7832756,43.4287104 69.8833912,44 C69.5745352,43.4637897 69.2142032,42.9102675 68.8065973,42.3392057 C70.4606576,41.9351118 71.6264839,41.285008 72.3035509,40.3886666 L69.5968589,40.3886666 L69.5968589,38.900307 L70.0063032,38.900307 L68.9295094,38.0966748 C69.6149806,37.3934967 70.2416221,36.512417 70.8102217,35.4538913 C70.5835697,35.4850981 70.3464124,35.5313388 70.1013762,35.5923857 L69.5288371,34.0899033 C70.2203488,33.7655348 71.1878874,32.6885584 72.4332913,30.8619353 L72.4332913,30.8619353 Z M108.362223,31.0330032 L109.139878,32.7598557 L105.48587,33.5495928 L105.48587,35.223371 L109.181374,35.223371 L109.181374,36.9495401 L108.294464,36.9495401 L108.294464,43.8020532 L106.495167,43.8020532 L106.495167,36.9495401 L105.48587,36.9495401 L105.48587,38.5574878 C105.48587,40.9378607 105.017333,42.7471721 104.080786,43.9870161 C103.731222,43.7004602 103.297353,43.3754083 102.779178,43.0118604 L101.640403,43.8416881 C101.12223,43.1478492 100.521851,42.4187034 99.8400568,41.6544784 L101.245142,40.718502 C101.694506,41.1838706 102.221609,41.7603992 102.826715,42.4446711 C103.417376,41.5050501 103.712838,40.1952755 103.712838,38.5178528 L103.712838,32.1131686 C105.5946,31.7712606 107.143871,31.4109016 108.362223,31.0330032 L108.362223,31.0330032 Z M98.2443009,30.9933683 L98.2443009,32.1794546 L100.82204,32.1794546 L100.82204,30.9933683 L102.540183,30.9933683 L102.540183,32.1794546 L103.316788,32.1794546 L103.316788,33.6555138 L102.540183,33.6555138 L102.540183,39.1898242 L103.235372,39.1898242 L103.235372,40.6656554 L97.610831,40.6656554 L99.1448682,41.6667788 C98.6897258,42.2995708 98.053367,43.0681238 97.2350037,43.9728934 C96.6813742,43.551032 96.15821,43.1872564 95.6673496,42.8799718 C96.4673285,42.1070909 97.0984348,41.3688336 97.5625066,40.6656554 L95.6402983,40.6656554 L95.6402983,39.1898242 L96.5272087,39.1898242 L96.5272087,33.6555138 L95.8861226,33.6555138 L95.8861226,32.1794546 L96.5272087,32.1794546 L96.5272087,30.9933683 L98.2443009,30.9933683 Z M23.9379137,12.4667768 L49.0676542,36.2598013 L44.1275344,43.9136687 L13.8672654,43.9136687 L8.83758794,35.9481888 L40.6445005,36.0194861 L40.7697762,36.0210807 L40.6027419,35.8525183 L33.4853977,28.374958 L33.4796197,34.2010633 L23.9245194,34.2085803 L23.9379137,12.4667768 Z M132.264944,30.9462164 L132.264944,41.9870472 L134.008824,41.9870472 L134.008824,30.9462164 L135.973842,30.9462164 L135.973842,38.5378981 C136.713678,37.0212929 137.436181,35.2725729 138.141348,33.2921936 L139.900725,34.0639357 C139.210264,35.8438625 138.382446,37.7725341 137.418847,39.8515451 L135.973842,39.156795 L135.973842,41.9870472 L139.900725,41.9870472 L139.900725,43.910252 L126.427146,43.910252 L126.427146,41.9870472 L130.273925,41.9870472 L130.273925,39.205997 L128.746454,39.8802462 C128.000052,37.6982756 127.255489,35.6944342 126.509612,33.8678111 L128.146076,33.095158 C128.932398,34.9126696 129.641507,36.6632119 130.273925,38.3490628 L130.273925,30.9462164 L132.264944,30.9462164 Z M123.721504,31.7610102 L123.721504,33.7741907 L118.867791,33.7741907 L118.867791,41.8968436 L124.417743,41.8968436 L124.417743,43.910252 L111.149543,43.910252 L111.149543,41.8968436 L116.630949,41.8968436 L116.630949,33.7741907 L111.88649,33.7741907 L111.88649,31.7610102 L123.721504,31.7610102 Z M68.2466646,31.0195638 L68.2466646,34.1293105 L69.4332388,34.1293105 L69.4332388,35.935205 L68.2466646,35.935205 L68.2466646,39.8351444 L69.3778233,39.4791135 C69.3604895,39.6597485 69.3518227,39.9057584 69.3518227,40.2173709 C69.3518227,40.5289833 69.3604895,40.9077929 69.3778233,41.3515217 C68.3611725,41.6850018 66.9878664,42.163582 65.2600063,42.7877182 L64.9057149,40.7977719 L66.4329237,40.3761383 L66.4329237,35.935205 L65.0422839,35.935205 L65.0422839,34.1293105 L66.4329237,34.1293105 L66.4329237,31.0195638 L68.2466646,31.0195638 Z M98.351455,39.1898242 L100.937599,39.1898242 L100.937599,38.2146684 L98.351455,38.2146684 L98.351455,39.1898242 Z M73.0315685,37.7538556 L71.4042967,37.7538556 C71.116714,38.1620496 70.810747,38.5440483 70.4871835,38.900307 L72.970375,38.900307 C73.0113457,38.6761646 73.0315685,38.2939383 73.0315685,37.7538556 L73.0315685,37.7538556 Z M83.5250552,38.0700237 L90.5210632,38.0700237 L90.5210632,36.501711 L83.5250552,36.501711 L83.5250552,38.0700237 Z M98.351455,36.9101329 L100.937599,36.9101329 L100.937599,35.9349772 L98.351455,35.9349772 L98.351455,36.9101329 Z M98.351455,34.6304416 L100.937599,34.6304416 L100.937599,33.6555138 L98.351455,33.6555138 L98.351455,34.6304416 Z M7.40308857,10.0825314 L14.4405925,17.1828767 L10.6586826,22.6190109 L18.222765,34.1905852 L7.72061141,34.1812459 L0,21.95729 L7.40308857,10.0825314 Z M50.1239627,10.4711358 L57.9325559,21.9550121 L50.4028785,34.1903573 L43.7992436,27.3672287 L47.1005358,21.9570622 L39.7470848,10.4711358 L50.1239627,10.4711358 Z M64.9057149,27.8234859 L72.9257275,27.8234859 L72.9257275,0 L64.9057149,0 L64.9057149,27.8234859 Z M114.770722,0 L119.263316,27.8234859 L110.975418,27.8234859 L110.540498,22.9616024 L107.639721,22.9616024 L107.152012,27.8234859 L98.7677278,27.8234859 L103.051004,0 L114.770722,0 Z M130.176751,0 C132.303288,0 134.115453,0.290883868 135.613247,0.873562738 C137.112091,1.45624162 138.10353,2.19062657 138.5894,3.07557866 C139.076321,3.96053075 139.319519,5.46483538 139.319519,7.58598694 L139.319519,8.64177926 L131.713415,8.64177926 L131.713415,6.66322228 C131.713415,5.73931864 131.616241,5.15071727 131.421893,4.89855718 C131.227545,4.64548594 130.902668,4.51860864 130.448839,4.51860864 C129.956141,4.51860864 129.582939,4.68922102 129.331075,5.03044579 C129.077372,5.37167057 128.951045,5.8882912 128.951045,6.58144678 C128.951045,7.47323245 129.092867,8.14383706 129.377824,8.59553851 C129.64886,9.04632872 130.420475,9.59028382 131.691091,10.2274038 C135.336958,12.0629106 137.633943,13.5683542 138.580733,14.744418 C139.527524,15.9213928 140,17.8177187 140,20.4349901 C140,22.3372385 139.73763,23.739039 139.212628,24.6406196 C138.687625,25.541289 137.673075,26.297997 136.16819,26.9086937 C134.663567,27.5184792 132.913122,27.8234859 130.915537,27.8234859 C128.724393,27.8234859 126.854186,27.4715551 125.303078,26.7686047 C123.753809,26.0638321 122.738733,25.1681741 122.258641,24.0802639 C121.779599,22.9916702 121.53929,21.4463639 121.53929,19.4445728 L121.53929,17.6974472 L129.145393,17.6974472 L129.145393,20.9461439 C129.145393,21.946584 129.253335,22.5893986 129.466331,22.8752711 C129.680113,23.1620549 130.059881,23.3046495 130.60458,23.3046495 C131.149806,23.3046495 131.555048,23.1233311 131.820307,22.7600109 C132.086617,22.3973742 132.218983,21.8591138 132.218983,21.143863 C132.218983,19.57145 131.966068,18.5429922 131.460763,18.0591728 C130.941801,17.5753535 129.664356,16.7678489 127.628165,15.6352925 C125.592761,14.4915745 124.243618,13.661519 123.582572,13.144215 C122.921788,12.6273665 122.37236,11.9125713 121.938754,11.0005125 C121.50331,10.088226 121.286637,8.92195709 121.286637,7.50443927 C121.286637,5.45891298 121.595755,3.96394755 122.211104,3.01794857 C122.82619,2.07172181 123.822618,1.33255333 125.196974,0.799304211 C126.571331,0.266282878 128.231695,0 130.176751,0 L130.176751,0 Z M85.1223868,0 L85.1223868,11.2816016 L89.2341633,0 L96.9489967,0 L91.7822251,12.9863587 L96.9489967,27.8234859 L88.4523059,27.8234859 L85.1223868,16.2284495 L85.1223868,27.8234859 L76.8990966,27.8234859 L76.8990966,0 L85.1223868,0 Z M11.249606,3.91246771 L15.8401618,7.97299686 L15.8409497,7.97299686 L21.8384284,13.2774704 L21.8384284,20.5163101 L8.68473582,8.0258435 L11.249606,3.91246771 Z M34.2015968,10.7041618 L34.2015968,20.0304406 L23.7023322,10.7041618 L34.2015968,10.7041618 Z M108.932399,5.80150446 C108.105631,10.9103089 107.7474,15.6485041 107.537031,18.0111098 L110.328028,18.0111098 C109.917796,14.9888333 109.345257,10.2499547 108.932399,5.80150446 L108.932399,5.80150446 Z M43.2264419,0 L48.4318206,7.90420523 L15.8409497,7.97299686 L11.249606,3.91246771 L13.68815,0 L43.2264419,0 Z" id="Fill-1"></path>
        </g>
    </g>
</svg>
