<svg width="660" height="660" viewBox="0 0 660 660" fill="none" xmlns="http://www.w3.org/2000/svg">
<path fill-rule="evenodd" clip-rule="evenodd" d="M184.286 215.151H112.551L62 132.85H299.114C253.397 148.044 213.361 176.739 184.286 215.151ZM373.438 227.064V488.728C343.449 488.815 314.36 478.49 291.137 459.516V255.965C314.427 237.103 343.469 226.777 373.438 226.701V227.064Z" fill="white"/>
<path fill-rule="evenodd" clip-rule="evenodd" d="M373.49 132.85C328.934 132.829 285.374 146.023 248.318 170.762C211.262 195.5 182.374 230.673 165.309 271.83C148.245 312.988 143.769 358.282 152.449 401.984C161.129 445.685 182.574 485.831 214.072 517.344C245.57 548.856 285.706 570.32 329.403 579.02C373.101 587.719 418.397 583.265 459.563 566.219C500.728 549.173 535.914 520.302 560.67 483.257C585.425 446.212 598.639 402.658 598.639 358.103V78C571.24 122.75 543.789 170.763 516.338 215.151V358.103C516.338 386.378 507.953 414.018 492.243 437.528C476.533 461.037 454.203 479.36 428.079 490.178C401.955 500.996 373.21 503.824 345.479 498.304C317.747 492.784 292.276 479.164 272.286 459.166C252.295 439.169 238.685 413.693 233.175 385.959C227.665 358.226 230.503 329.482 241.331 303.361C252.158 277.241 270.489 254.919 294.004 239.217C317.519 223.516 345.162 215.141 373.438 215.151H500.23L550.729 132.85H373.49Z" fill="white"/>
</svg>
