<svg width="116" height="24" viewBox="0 0 116 24" fill="none" xmlns="http://www.w3.org/2000/svg">
<g clip-path="url(#clip0_21227_519)">
<path fill-rule="evenodd" clip-rule="evenodd" d="M5.81964 6.49345H2.40481L0 2.59766H11.2545C9.09018 3.3191 7.16633 4.71389 5.81964 6.49345ZM14.7655 7.0706V19.4794C13.2745 19.4794 11.9279 18.9504 10.8697 18.0846V8.46539C11.9279 7.59966 13.2745 7.0706 14.7655 7.0706Z" fill="#3B47E5"/>
<path fill-rule="evenodd" clip-rule="evenodd" d="M14.8136 2.59719C8.94585 2.59719 4.13623 7.35872 4.13623 13.2746C4.13623 19.1423 8.89775 23.9519 14.8136 23.9519C20.6813 23.9519 25.4909 19.1904 25.4909 13.2746V0C24.1923 2.11623 22.8937 4.37675 21.5951 6.49299V13.2746C21.5951 17.0261 18.5651 20.0561 14.8136 20.0561C11.0621 20.0561 8.03202 17.0261 8.03202 13.2746C8.03202 9.52305 11.0621 6.49299 14.8136 6.49299C16.8336 6.49299 18.8537 6.49299 20.8256 6.49299L23.2304 2.59719C20.4408 2.59719 17.6032 2.59719 14.8136 2.59719Z" fill="#FFB400"/>
<path d="M105.379 16.401L107.014 14.1885H109.178C109.419 14.1885 109.707 14.1885 109.996 14.1885C110.285 14.1885 110.525 14.1885 110.717 14.2366C110.621 14.0924 110.429 13.9 110.285 13.6595C110.092 13.419 109.996 13.2266 109.852 12.9861L108.313 10.6775L104.273 16.4491H101.098L106.629 8.60938C106.822 8.3689 107.062 8.12842 107.303 7.93604C107.591 7.74365 107.928 7.64746 108.361 7.64746C108.794 7.64746 109.082 7.74365 109.371 7.93604C109.659 8.12842 109.852 8.3689 110.044 8.60938L115.431 16.401H105.379ZM80.8497 11.9761C80.8497 12.6014 80.7054 13.1785 80.465 13.7557C80.1764 14.3328 79.8397 14.7657 79.4068 15.1505C78.974 15.5352 78.3968 15.8238 77.7235 16.0643C77.0982 16.2567 76.4249 16.401 75.6553 16.401H69.8838V11.0142H72.5772V14.1885H75.7034C76.0882 14.1885 76.4249 14.1404 76.7615 14.0443C77.0982 13.9481 77.3387 13.8038 77.5792 13.6114C77.7716 13.419 78.012 13.1785 78.1082 12.938C78.2525 12.6976 78.3006 12.409 78.3006 12.1204C78.3006 11.8318 78.2525 11.5433 78.1082 11.3028C77.9639 11.0623 77.8197 10.8218 77.5311 10.6294C77.2425 10.437 77.002 10.2928 76.7134 10.1966C76.4249 10.1004 76.0401 10.0042 75.7034 10.0042H69.9319L71.6152 7.74365H75.7034C76.473 7.74365 77.1463 7.83985 77.7716 8.03223C78.3968 8.22462 78.9259 8.51319 79.4549 8.89796C79.8878 9.28273 80.2726 9.7156 80.513 10.2447C80.7535 10.7737 80.8497 11.399 80.8497 11.9761ZM84.6493 16.401L86.2846 14.1885H88.4489C88.6894 14.1885 88.978 14.1885 89.2666 14.1885C89.5551 14.1885 89.7956 14.1885 89.988 14.2366C89.8918 14.0924 89.6994 13.9 89.5551 13.6595C89.3627 13.419 89.2666 13.2266 89.1223 12.9861L87.5832 10.6775L83.5431 16.4491H80.3688L85.8998 8.60938C86.0922 8.3689 86.3327 8.12842 86.5732 7.93604C86.8617 7.74365 87.1984 7.64746 87.6313 7.64746C88.0641 7.64746 88.3527 7.74365 88.6413 7.93604C88.9299 8.12842 89.1223 8.3689 89.3146 8.60938L94.7495 16.401H84.6493ZM103.647 7.74365L101.916 10.0042H98.8377V16.401H96.1924V9.95608H92.1523L93.8838 7.69556H103.647V7.74365Z" fill="#FFB400"/>
<path d="M68.537 10.9661C68.537 11.4471 68.4408 11.8799 68.2484 12.2647C68.056 12.6495 67.8155 12.9861 67.4308 13.2747C67.046 13.5633 66.6131 13.7557 66.0841 13.9481C65.555 14.0924 64.9779 14.1885 64.3045 14.1885H59.7835V16.401H57.1382V11.9761H64.5931C65.026 11.9761 65.3145 11.8799 65.555 11.6875C65.7955 11.4952 65.8917 11.2547 65.8917 10.9661C65.8917 10.6775 65.7955 10.3889 65.555 10.2447C65.3145 10.0523 64.9779 9.95608 64.5931 9.95608H57.1382L58.9177 7.69556H64.3526C65.026 7.69556 65.6512 7.74365 66.1322 7.93604C66.6612 8.12842 67.0941 8.32081 67.4308 8.60938C67.7674 8.89796 68.056 9.23464 68.2484 9.61941C68.3927 10.0042 68.4889 10.437 68.537 10.9661ZM44.3927 7.74365L42.6612 10.0042H39.5831V16.401H36.9378V9.95608H32.8977L34.6292 7.69556H44.3927V7.74365ZM46.1242 16.401L47.7594 14.1885H49.9238C50.1642 14.1885 50.4528 14.1885 50.7414 14.1885C51.03 14.1885 51.2705 14.1885 51.4628 14.2366C51.3666 14.0924 51.1743 13.9 51.03 13.6595C50.8376 13.419 50.7414 13.2266 50.5971 12.9861L49.058 10.6775L45.0179 16.4491H41.8436L47.3747 8.60938C47.567 8.3689 47.8075 8.12842 48.048 7.93604C48.3366 7.74365 48.6733 7.64746 49.1061 7.64746C49.539 7.64746 49.8276 7.74365 50.1161 7.93604C50.4047 8.12842 50.5971 8.3689 50.7895 8.60938L56.1763 16.4491L46.1242 16.401Z" fill="#3B47E5"/>
</g>
<defs>
<clipPath id="clip0_21227_519">
<rect width="116" height="24" fill="white"/>
</clipPath>
</defs>
</svg>
