<?xml version="1.0" encoding="UTF-8"?>
<svg width="43px" height="43px" viewBox="0 0 43 43" version="1.1" xmlns="http://www.w3.org/2000/svg" xmlns:xlink="http://www.w3.org/1999/xlink">
    <title>服务器</title>
    <defs>
        <linearGradient x1="50%" y1="0%" x2="50%" y2="100%" id="linearGradient-1">
            <stop stop-color="#A7DAFD" offset="0%"></stop>
            <stop stop-color="#6EB3FA" offset="100%"></stop>
        </linearGradient>
        <linearGradient x1="50%" y1="0%" x2="50%" y2="100%" id="linearGradient-2">
            <stop stop-color="#87C9FC" offset="0%"></stop>
            <stop stop-color="#4F98F7" offset="100%"></stop>
        </linearGradient>
        <linearGradient x1="50%" y1="100%" x2="50%" y2="9.33354244%" id="linearGradient-3">
            <stop stop-color="#8FCDFC" offset="0%"></stop>
            <stop stop-color="#569FF8" offset="100%"></stop>
        </linearGradient>
    </defs>
    <g id="控制台" stroke="none" stroke-width="1" fill="none" fill-rule="evenodd">
        <g id="控制台-点击" transform="translate(-848.000000, -1170.000000)">
            <g id="服务器" transform="translate(848.000000, 1170.000000)">
                <rect id="矩形" fill="#E0EDFD" x="0" y="0" width="43" height="43" rx="1"></rect>
                <g id="编组-7" transform="translate(6.000000, 9.000000)">
                    <rect id="矩形" fill="url(#linearGradient-1)" x="0" y="6" width="24" height="5"></rect>
                    <rect id="矩形" fill="#D1E7FD" x="2" y="7" width="3" height="3"></rect>
                    <rect id="矩形" fill="#D1E7FD" x="6" y="7" width="3" height="3"></rect>
                    <polygon id="矩形" fill="url(#linearGradient-2)" points="2 0 22 0 24 6 0 6"></polygon>
                    <rect id="矩形" fill="url(#linearGradient-1)" x="0" y="12" width="24" height="5"></rect>
                    <rect id="矩形" fill="#D1E7FD" x="2" y="13" width="3" height="3"></rect>
                    <rect id="矩形" fill="#D1E7FD" x="6" y="13" width="3" height="3"></rect>
                    <path d="M0,18 L24,18 L24,22 C24,22.5522847 23.5522847,23 23,23 L1,23 C0.44771525,23 6.76353751e-17,22.5522847 0,22 L0,18 L0,18 Z" id="矩形" fill="url(#linearGradient-1)"></path>
                    <circle id="椭圆形" stroke="#E0EDFD" fill="url(#linearGradient-3)" cx="23.5" cy="18.5" r="8.5"></circle>
                    <g id="multilayer" transform="translate(19.000000, 14.000000)" fill="#D1E7FD" fill-rule="nonzero">
                        <path d="M8.8854,2.18080032 C8.862,2.1538693 8.8386,2.12632622 8.8122,2.10367968 C8.742,2.04369696 8.667,1.99167113 8.5836,1.95005047 C7.3572,1.33614569 6.132,0.71979264 4.9056,0.105887863 C4.8,0.0538620343 4.6884,0.0153017143 4.5708,0 C4.533,0 4.4946,0 4.4568,0 C4.1718,0.0532499657 3.927,0.207491246 3.6732,0.333577371 C2.5614,0.883214948 1.4514,1.43468873 0.3432,1.99167113 C0.1716,2.07858487 0.0378,2.2163003 0.0066,2.42685188 C0.0054,2.43419671 0.0024,2.44092946 0,2.44766222 C0,2.47765358 0,2.50764494 0,2.53702423 C0.018,2.63311899 0.048,2.72431721 0.1116,2.80082578 C0.1338,2.82653266 0.1548,2.85407575 0.1806,2.87549815 C0.2484,2.93119639 0.3168,2.98505842 0.396,3.02484288 C1.6314,3.6436442 2.865,4.2648938 4.1016,4.88185892 C4.206,4.93449682 4.3134,4.98591058 4.434,4.99692782 C4.5564,5.00855712 4.671,4.98713472 4.779,4.93327268 C6.0294,4.30957481 7.2786,3.68587694 8.5284,3.06156699 C8.5704,3.04014459 8.6142,3.0223946 8.6538,2.99729979 C8.7708,2.92568777 8.8806,2.84305851 8.9424,2.71391204 C8.9688,2.65882587 8.9808,2.59639488 9,2.53702423 C9,2.50703287 9,2.47704151 9,2.44766222 C8.9808,2.35034331 8.9502,2.25730889 8.8854,2.18080032 Z" id="路径"></path>
                        <path d="M8.46363576,4.01449999 C8.32924472,3.99129158 8.19785348,4.0043835 8.07426172,4.06508242 C7.83667755,4.18231465 7.60089327,4.30430758 7.36150923,4.41856437 C6.42197187,4.86607013 5.48063462,5.31119554 4.5404973,5.75810622 C4.5134991,5.77060306 4.49190054,5.77238832 4.46370242,5.7592964 C3.31177921,5.20526998 2.16045597,4.65243373 1.00913272,4.0990024 C0.815945604,4.00616876 0.611359243,3.97819965 0.402573162,4.01688034 C0.188387441,4.05734628 0.0395973602,4.23289708 0.00959936004,4.45605488 C0.00779948003,4.46795662 0.00299980001,4.48045346 0,4.49235521 C0,4.52984572 0,4.56793132 0,4.60542183 C0.0179988001,4.69706529 0.0479968002,4.78394806 0.10859276,4.85833399 C0.166188921,4.92855431 0.233384441,4.9862778 0.314379041,5.02555357 C1.57969469,5.64801504 2.84561029,6.2710716 4.11272582,6.88996255 C4.21411906,6.93935481 4.31911206,6.98815198 4.43730418,6.99767338 C4.55609626,7.00719478 4.66888874,6.9875569 4.7744817,6.93756955 C6.07579495,6.31986877 7.37710819,5.70276309 8.67662156,5.08208687 C8.85120992,4.99877463 8.95020332,4.85119294 8.98980068,4.66493057 C8.99340044,4.65124356 8.99640024,4.63696146 9,4.62327445 C9,4.58816429 9,4.55364922 9,4.51853906 C8.9880008,4.48045346 8.98020132,4.43998751 8.96460236,4.40368718 C8.87280848,4.17933921 8.69942004,4.05615611 8.46363576,4.01449999 Z" id="路径"></path>
                        <path d="M8.46416428,6.01237295 C8.33035536,5.9891623 8.19834656,6.00225549 8.07473832,6.06296026 C7.83412227,6.18139408 7.59530635,6.30458906 7.35349023,6.42064231 C6.41802787,6.86581064 5.4825655,7.30800325 4.54710314,7.75317158 C4.51290086,7.76864535 4.4864991,7.7680502 4.45409694,7.75198129 C3.30922061,7.20087718 2.16374425,6.65096335 1.01826788,6.0992641 C0.841256084,6.01415839 0.655243683,5.9891623 0.463230882,6.00404092 C0.240016001,6.02070498 0.0678045203,6.18198923 0.0192012801,6.40635883 C0.0126008401,6.43433064 0.00600040003,6.4617073 0,6.48967911 C0,6.52717323 0,6.5652625 0,6.60275662 C0.0180012001,6.69262349 0.0468031202,6.77832435 0.10560704,6.85212231 C0.164410961,6.92532512 0.234015601,6.98424446 0.318021201,7.02530945 C1.58170545,7.64664066 2.84598973,8.268567 4.1114741,8.88692248 C4.2194813,8.93989037 4.33288886,8.98869225 4.4564971,9 C4.48589906,9 4.51530102,9 4.54410294,9 C4.6455097,8.98393109 4.74091606,8.95238841 4.83332222,8.90596712 C4.95213014,8.84645263 5.0775385,8.79884105 5.1975465,8.74170714 C6.35262351,8.19119818 7.50710047,7.63949892 8.66037736,7.0883948 C8.84338956,7.00090851 8.94959664,6.8533126 8.99039936,6.65810509 C8.99339956,6.64560705 8.99639976,6.63310901 9,6.62061097 C9,6.58549742 9,6.55097902 9,6.51586548 C8.9879992,6.47777621 8.98019868,6.43730636 8.96459764,6.40100253 C8.8739916,6.17663292 8.69998,6.05343794 8.46416428,6.01237295 Z" id="路径"></path>
                    </g>
                    <rect id="矩形" fill="#D1E7FD" x="2" y="19" width="3" height="3"></rect>
                    <rect id="矩形" fill="#D1E7FD" x="6" y="19" width="3" height="3"></rect>
                </g>
            </g>
        </g>
    </g>
</svg>