<?xml version="1.0" encoding="UTF-8"?>
<svg width="286px" height="209px" viewBox="0 0 286 209" version="1.1" xmlns="http://www.w3.org/2000/svg" xmlns:xlink="http://www.w3.org/1999/xlink">
    <title>undraw_secure_files_re_6vdh</title>
    <g id="控制台" stroke="none" stroke-width="1" fill="none" fill-rule="evenodd">
        <g id="控制台-无权限" transform="translate(-677.000000, -214.000000)" fill-rule="nonzero">
            <g id="undraw_secure_files_re_6vdh" transform="translate(677.859154, 214.000000)">
                <path d="M264.097546,209 L264.097546,185.267309 C264.097546,185.267309 273.346425,202.092773 264.097546,209 Z" id="路径" fill="#F1F1F1"></path>
                <path d="M264.668872,208.995824 L247.186054,192.94616 C247.186054,192.94616 265.835353,197.511448 264.668872,208.995824 Z" id="路径" fill="#F1F1F1"></path>
                <path d="M189.142453,146.310221 C189.06369,145.430667 189.378559,144.561401 190.002336,143.936324 C190.626112,143.311247 191.49472,142.994568 192.374436,143.071499 L195.526091,137.024813 L199.667777,138.043849 L195.097085,146.520442 C194.864781,148.02272 193.545575,149.113825 192.026389,149.060192 C190.507203,149.006559 189.268225,147.82514 189.14244,146.310221 L189.142453,146.310221 Z" id="路径" fill="#FFB7B7"></path>
                <polygon id="路径" fill="#FFB7B7" points="207.955 205.217572 204.460055 205.217244 202.797389 191.737115 207.955657 191.737443"></polygon>
                <path d="M208.846194,208.605159 L197.577322,208.604743 L197.577322,208.462209 C197.577492,206.039882 199.541153,204.076252 201.96348,204.076119 L201.963759,204.076119 L208.846403,204.076398 L208.846194,208.605159 Z" id="路径" fill="#2F2E41"></path>
                <polygon id="路径" fill="#FFB7B7" points="236.063509 202.606779 232.69159 203.526035 227.54054 190.958273 232.517056 189.601369"></polygon>
                <path d="M237.814617,205.640502 L226.942731,208.605159 L226.905226,208.467648 C226.268029,206.130633 227.645825,203.719518 229.98276,203.082027 L229.983029,203.081955 L236.623209,201.271246 L237.814617,205.640502 Z" id="路径" fill="#2F2E41"></path>
                <polygon id="路径" fill="#2F2E41" points="201.574666 146.986852 199.831294 173.460252 203.57623 203.161876 209.710183 201.289572 209.968703 174.751542 214.875668 159.448647 229.403986 200.321105 236.054323 197.867458 230.566015 171.329428 227.466724 146.405837"></polygon>
                <path d="M218.523285,100.499565 L208.193702,102.022732 L204.472459,105.703074 L203.317024,118.92655 L204.034664,130.639358 L201.043082,151.294411 C201.043082,151.294411 208.56582,147.118326 214.395765,152.345942 C220.225711,157.573558 228.383247,153.269791 228.551066,149.792234 L218.523285,100.499565 Z" id="路径" fill="#CBCBCB"></path>
                <path d="M213.277852,117.083943 L213.277852,117.069094 L218.409326,100.342698 L218.475633,100.338374 C218.840865,100.314595 227.444054,99.8075542 229.36838,104.055443 L229.377685,104.075935 L228.793183,121.458146 L229.598175,148.681318 L213.686508,152.127614 L213.570856,152.152803 L213.277852,117.083943 Z" id="路径" fill="#2F2E41"></path>
                <path d="M207.591343,115.927714 L208.532665,101.748169 C201.837822,102.164623 201.938671,106.911312 201.946378,107.118273 L201.873218,128.328006 L200.53236,151.018775 L205.407627,150.653169 L207.591343,115.927714 Z" id="路径" fill="#2F2E41"></path>
                <polygon id="路径" fill="#2F2E41" points="192.49496 141.728597 198.438756 127.934018 202.587361 120.31567 204.753328 134.058368 197.233142 145.338621"></polygon>
                <path d="M217.05925,136.653049 C217.243468,135.789406 217.800763,135.051717 218.581179,134.638478 C219.361596,134.22524 220.284968,134.178901 221.102836,134.51193 L225.89804,129.664103 L229.554781,131.85961 L222.68688,138.610577 C222.021748,139.977493 220.439351,140.630888 219.00358,140.131466 C217.567809,139.632044 216.732498,138.137669 217.05925,136.653049 Z" id="路径" fill="#FFB7B7"></path>
                <path d="M221.091652,132.742178 L230.868592,122.016721 L224.396874,112.781902 L225.063,108.266982 L228.877346,103.555154 L228.951785,103.651397 C229.358371,104.177532 238.912751,116.590323 239.186907,121.289363 C239.462005,126.005791 225.729129,137.936242 225.144345,138.441702 L225.063095,138.512001 L221.091652,132.742178 Z" id="路径" fill="#2F2E41"></path>
                <circle id="椭圆形" fill="#FFB7B7" cx="212.562896" cy="92.3888245" r="6.94898711"></circle>
                <path d="M219.098519,86.8334653 L219.435403,86.1554236 L217.74029,85.3132149 C217.74029,85.3132149 215.870312,82.2705585 212.486514,83.1256113 C209.102716,83.980664 207.580297,84.4923964 207.580297,84.4923964 L205.889472,85.3431613 L206.738088,86.187509 L205.215705,86.6992546 L206.232763,87.2045765 L205.049386,87.8847606 L205.686426,91.371606 C205.686426,91.371606 206.744499,88.726966 208.778621,89.7376066 C210.812743,90.7482472 214.533454,89.2151692 214.533454,89.2151692 L217.765942,95.4710397 C217.765942,95.4710397 218.432803,93.2780458 219.62178,93.8628004 C219.621787,93.8628103 222.659309,89.0253405 219.098519,86.8334653 Z" id="路径" fill="#2F2E41"></path>
                <polygon id="路径" fill="#FFFFFF" points="140.470069 126.175558 34.7974598 155.318601 0 29.1430297 105.67261 0"></polygon>
                <path d="M140.470069,126.175558 L34.7974598,155.318601 L0,29.1430297 L105.67261,0 L140.470069,126.175558 Z M36.1475626,152.940227 L138.091705,124.825456 L104.322507,2.37835095 L2.37836079,30.4931258 L36.1475626,152.940227 Z" id="形状" fill="#F1F1F1"></path>
                <path d="M82.6759204,56.5245713 L56.1871006,63.8298244 C55.409065,64.0434379 54.6049352,63.5869649 54.3895412,62.8094204 L47.0842914,36.3205842 C46.8706759,35.5425483 47.3271497,34.7384172 48.1046954,34.5230247 L74.5935316,27.217775 C75.3715666,27.0041597 76.1756968,27.4606337 76.3910878,28.238179 L83.6963408,54.7270152 C83.909955,55.5050551 83.4534723,56.3091876 82.6759204,56.5245713 L82.6759204,56.5245713 Z M48.2601061,35.0866351 C47.7935662,35.2158544 47.5196739,35.698346 47.6478624,36.1651701 L54.9531155,62.6540063 C55.0823347,63.1205462 55.5648263,63.3944386 56.0316505,63.2662501 L82.5204703,55.960997 C82.9870102,55.8317778 83.2609025,55.3492862 83.132714,54.882462 L75.8274609,28.3936422 C75.6982417,27.9271023 75.2157501,27.65321 74.7489259,27.7813985 L48.2601061,35.0866351 Z" id="形状" fill="#E5E5E5"></path>
                <path d="M75.9611501,61.8635443 L49.4723303,69.1687974 C48.7720967,69.3610629 48.0483712,68.9502318 47.8545278,68.2504335 L40.5492452,41.7615973 C40.3569797,41.0613637 40.7678107,40.3376382 41.4676091,40.1437948 L67.9564289,32.8385417 C68.6566625,32.6462762 69.380388,33.0571073 69.5742314,33.7569056 L76.8794845,60.2457418 C77.0717539,60.9459667 76.6609377,61.6696895 75.9611501,61.8635443 L75.9611501,61.8635443 Z" id="路径" fill="#2C65FF"></path>
                <polygon id="矩形" fill="#F1F1F1" transform="translate(70.081061, 77.101010) rotate(-15.418110) translate(-70.081061, -77.101010) " points="31.7412736 75.6194245 108.420848 75.6194245 108.420848 78.5825957 31.7412736 78.5825957"></polygon>
                <polygon id="矩形" fill="#F1F1F1" transform="translate(72.135075, 84.548865) rotate(-15.418110) translate(-72.135075, -84.548865) " points="33.7952878 83.0672794 110.474862 83.0672794 110.474862 86.0304506 33.7952878 86.0304506"></polygon>
                <polygon id="矩形" fill="#F1F1F1" transform="translate(74.189086, 91.996721) rotate(-15.418110) translate(-74.189086, -91.996721) " points="35.8492988 90.5151352 112.528873 90.5151352 112.528873 93.4783063 35.8492988 93.4783063"></polygon>
                <polygon id="矩形" fill="#F1F1F1" transform="translate(77.804156, 105.104952) rotate(-15.418110) translate(-77.804156, -105.104952) " points="39.4643694 103.623366 116.143944 103.623366 116.143944 106.586537 39.4643694 106.586537"></polygon>
                <polygon id="矩形" fill="#F1F1F1" transform="translate(79.858167, 112.552811) rotate(-15.418110) translate(-79.858167, -112.552811) " points="41.5183804 111.071225 118.197955 111.071225 118.197955 114.034396 41.5183804 114.034396"></polygon>
                <polygon id="矩形" fill="#F1F1F1" transform="translate(81.912186, 120.000669) rotate(-15.418110) translate(-81.912186, -120.000669) " points="43.5723988 118.519083 120.251973 118.519083 120.251973 121.482255 43.5723988 121.482255"></polygon>
                <polygon id="路径" fill="#FFFFFF" points="174.296575 154.897085 64.6789817 154.897085 64.6789817 24.0111222 174.296575 24.0111222"></polygon>
                <path d="M174.296575,154.897085 L64.6789817,154.897085 L64.6789817,24.0111222 L174.296575,24.0111222 L174.296575,154.897085 Z M66.6128089,152.963255 L172.362745,152.963255 L172.362745,25.9449494 L66.6128089,25.9449494 L66.6128089,152.963255 Z" id="形状" fill="#E5E5E5"></path>
                <rect id="矩形" fill="#2C65FF" x="91.6658533" y="80.277334" width="62.672877" height="2.96317118"></rect>
                <rect id="矩形" fill="#2C65FF" x="91.6658533" y="87.9815778" width="62.672877" height="2.96317118"></rect>
                <rect id="矩形" fill="#2C65FF" x="91.6658533" y="95.6858182" width="62.672877" height="2.96317118"></rect>
                <circle id="椭圆形" fill="#2C65FF" cx="86.5706538" cy="82.1930418" r="1.93382721"></circle>
                <rect id="矩形" fill="#E5E5E5" x="91.6658533" y="47.0799379" width="62.672877" height="2.96317118"></rect>
                <rect id="矩形" fill="#E5E5E5" x="91.6658533" y="54.7841816" width="62.672877" height="2.96317118"></rect>
                <rect id="矩形" fill="#E5E5E5" x="91.6658533" y="62.4884254" width="62.672877" height="2.96317118"></rect>
                <circle id="椭圆形" fill="#E5E5E5" cx="86.5706538" cy="48.673345" r="1.93382721"></circle>
                <rect id="矩形" fill="#E5E5E5" x="91.6658533" y="113.797031" width="62.672877" height="2.96317118"></rect>
                <rect id="矩形" fill="#E5E5E5" x="91.6658533" y="121.501275" width="62.672877" height="2.96317118"></rect>
                <rect id="矩形" fill="#E5E5E5" x="91.6658533" y="129.205518" width="62.672877" height="2.96317118"></rect>
                <circle id="椭圆形" fill="#E5E5E5" cx="86.5706538" cy="115.390438" r="1.93382721"></circle>
                <circle id="椭圆形" fill="#2C65FF" cx="169.17889" cy="143.762595" r="22.4051139"></circle>
                <path d="M175.386406,142.333309 L175.386406,138.04633 C175.388019,135.827524 174.205226,133.776572 172.283952,132.666703 C170.362678,131.556834 167.995105,131.556834 166.073831,132.666703 C164.152557,133.776572 162.969764,135.827524 162.971377,138.04633 L162.971377,142.333309 C161.247647,142.410924 159.889821,143.830561 159.888965,145.556037 L159.888965,155.686642 L178.468818,155.686642 L178.468818,145.556037 C178.467962,143.830561 177.110136,142.410924 175.386406,142.333309 Z M169.17889,134.024413 C171.399018,134.026998 173.198102,135.826201 173.200541,138.04633 L173.200541,142.325838 L165.157242,142.325838 L165.157242,138.04633 C165.159679,135.826202 166.958762,134.026998 169.17889,134.024413 Z" id="形状" fill="#FFFFFF"></path>
                <path d="M170.848974,147.336123 C170.849244,146.54106 170.288986,145.85603 169.509673,145.698557 C168.73036,145.541084 167.948076,145.95483 167.639618,146.687619 C167.33116,147.420408 167.582055,148.269057 168.239385,148.71632 L168.239385,152.346431 L170.118126,152.346431 L170.118126,148.71632 C170.57538,148.405769 170.849093,147.888866 170.848974,147.336123 Z" id="路径" fill="#2C65FF"></path>
                <path d="M283.95362,208.866734 L158.958384,208.866734 C158.777195,208.866734 158.630312,208.719851 158.630312,208.538663 C158.630312,208.357474 158.777195,208.210591 158.958384,208.210591 L283.95362,208.210591 C284.134808,208.210591 284.281691,208.357474 284.281691,208.538663 C284.281691,208.719851 284.134808,208.866734 283.95362,208.866734 Z" id="路径" fill="#CBCBCB"></path>
            </g>
        </g>
    </g>
</svg>